<?xml version="1.0" encoding="UTF-8"?>
<svg xmlns="http://www.w3.org/2000/svg" version="1.1" width="400" height="400" viewBox="0 0 400 400"><rect x="0" y="0" width="400" height="400" fill="#ffffff"/><g transform="scale(14.815)"><g transform="translate(1,1)"><path fill-rule="evenodd" d="M8 0L8 1L9 1L9 2L10 2L10 3L11 3L11 1L13 1L13 2L12 2L12 4L11 4L11 5L10 5L10 4L9 4L9 5L10 5L10 8L9 8L9 6L8 6L8 8L9 8L9 9L8 9L8 10L6 10L6 9L7 9L7 8L6 8L6 9L5 9L5 8L3 8L3 9L2 9L2 8L0 8L0 9L1 9L1 11L3 11L3 12L5 12L5 14L4 14L4 13L3 13L3 14L1 14L1 12L0 12L0 17L1 17L1 15L2 15L2 17L3 17L3 16L4 16L4 17L5 17L5 16L6 16L6 17L7 17L7 16L6 16L6 15L8 15L8 16L9 16L9 17L8 17L8 18L9 18L9 19L10 19L10 20L8 20L8 22L9 22L9 21L10 21L10 22L11 22L11 23L12 23L12 24L10 24L10 25L12 25L12 24L13 24L13 23L14 23L14 24L16 24L16 25L18 25L18 24L16 24L16 21L18 21L18 22L17 22L17 23L18 23L18 22L19 22L19 21L21 21L21 16L22 16L22 18L24 18L24 19L23 19L23 20L25 20L25 18L24 18L24 16L25 16L25 14L24 14L24 13L25 13L25 10L24 10L24 9L25 9L25 8L24 8L24 9L19 9L19 8L18 8L18 9L17 9L17 6L16 6L16 8L14 8L14 7L15 7L15 6L14 6L14 7L13 7L13 5L12 5L12 4L14 4L14 5L15 5L15 4L14 4L14 3L16 3L16 5L17 5L17 3L16 3L16 2L15 2L15 0L14 0L14 1L13 1L13 0L11 0L11 1L9 1L9 0ZM11 5L11 7L12 7L12 9L10 9L10 10L8 10L8 12L7 12L7 11L6 11L6 10L4 10L4 9L3 9L3 10L4 10L4 11L5 11L5 12L7 12L7 13L6 13L6 14L8 14L8 15L9 15L9 16L10 16L10 19L11 19L11 17L12 17L12 16L14 16L14 13L15 13L15 12L14 12L14 11L15 11L15 10L12 10L12 9L14 9L14 8L13 8L13 7L12 7L12 5ZM16 9L16 10L17 10L17 14L16 14L16 16L15 16L15 17L14 17L14 18L12 18L12 20L10 20L10 21L12 21L12 22L13 22L13 21L14 21L14 20L13 20L13 19L16 19L16 16L17 16L17 15L18 15L18 14L19 14L19 15L20 15L20 16L21 16L21 15L20 15L20 13L21 13L21 14L23 14L23 13L24 13L24 12L21 12L21 11L20 11L20 10L19 10L19 9L18 9L18 10L17 10L17 9ZM10 10L10 11L9 11L9 13L8 13L8 14L9 14L9 13L10 13L10 12L11 12L11 13L13 13L13 11L12 11L12 10ZM18 10L18 11L19 11L19 10ZM22 10L22 11L24 11L24 10ZM18 12L18 13L19 13L19 12ZM3 14L3 15L4 15L4 16L5 16L5 15L4 15L4 14ZM11 14L11 15L10 15L10 16L12 16L12 15L13 15L13 14ZM23 15L23 16L24 16L24 15ZM17 17L17 20L20 20L20 17ZM18 18L18 19L19 19L19 18ZM12 20L12 21L13 21L13 20ZM23 21L23 22L20 22L20 23L19 23L19 24L21 24L21 25L22 25L22 24L24 24L24 25L25 25L25 21ZM14 22L14 23L15 23L15 22ZM8 23L8 25L9 25L9 23ZM21 23L21 24L22 24L22 23ZM0 0L0 7L7 7L7 0ZM1 1L1 6L6 6L6 1ZM2 2L2 5L5 5L5 2ZM18 0L18 7L25 7L25 0ZM19 1L19 6L24 6L24 1ZM20 2L20 5L23 5L23 2ZM0 18L0 25L7 25L7 18ZM1 19L1 24L6 24L6 19ZM2 20L2 23L5 23L5 20Z" fill="#282828"/></g></g></svg>
