<?xml version="1.0" encoding="UTF-8"?>
<svg xmlns="http://www.w3.org/2000/svg" version="1.1" width="90" height="90" viewBox="0 0 90 90"><rect x="0" y="0" width="90" height="90" fill="#ffffff"/><g transform="scale(2.903)"><g transform="translate(1,1)"><path fill-rule="evenodd" d="M8 0L8 1L10 1L10 0ZM12 0L12 1L13 1L13 0ZM14 0L14 2L12 2L12 4L14 4L14 5L15 5L15 0ZM18 0L18 1L16 1L16 5L17 5L17 6L16 6L16 7L15 7L15 6L14 6L14 7L13 7L13 5L11 5L11 3L10 3L10 2L9 2L9 5L10 5L10 7L11 7L11 6L12 6L12 8L13 8L13 9L14 9L14 10L13 10L13 11L16 11L16 13L13 13L13 15L11 15L11 16L12 16L12 17L13 17L13 18L14 18L14 19L12 19L12 18L11 18L11 17L9 17L9 16L8 16L8 15L9 15L9 13L11 13L11 11L12 11L12 9L11 9L11 8L10 8L10 9L11 9L11 11L10 11L10 10L9 10L9 11L7 11L7 10L8 10L8 9L7 9L7 8L6 8L6 9L5 9L5 8L3 8L3 10L2 10L2 11L3 11L3 12L4 12L4 17L3 17L3 13L1 13L1 9L2 9L2 8L0 8L0 13L1 13L1 14L0 14L0 15L1 15L1 14L2 14L2 17L1 17L1 16L0 16L0 21L2 21L2 20L5 20L5 21L8 21L8 22L9 22L9 21L8 21L8 20L10 20L10 22L11 22L11 25L10 25L10 26L9 26L9 24L10 24L10 23L9 23L9 24L8 24L8 26L9 26L9 27L8 27L8 29L14 29L14 28L13 28L13 27L16 27L16 28L17 28L17 27L18 27L18 28L19 28L19 29L22 29L22 25L24 25L24 26L23 26L23 27L24 27L24 28L23 28L23 29L25 29L25 25L26 25L26 26L27 26L27 27L26 27L26 28L27 28L27 27L28 27L28 28L29 28L29 23L28 23L28 21L29 21L29 20L28 20L28 19L29 19L29 18L28 18L28 16L29 16L29 11L28 11L28 12L26 12L26 9L23 9L23 8L22 8L22 9L23 9L23 10L21 10L21 11L22 11L22 14L19 14L19 12L18 12L18 11L19 11L19 10L20 10L20 9L21 9L21 6L20 6L20 8L19 8L19 9L18 9L18 8L17 8L17 6L18 6L18 7L19 7L19 5L20 5L20 4L21 4L21 3L20 3L20 1L19 1L19 0ZM18 1L18 2L17 2L17 3L18 3L18 4L17 4L17 5L18 5L18 4L20 4L20 3L18 3L18 2L19 2L19 1ZM8 6L8 8L9 8L9 6ZM15 8L15 9L16 9L16 10L18 10L18 9L16 9L16 8ZM28 8L28 9L27 9L27 10L29 10L29 8ZM6 9L6 10L7 10L7 9ZM3 10L3 11L4 11L4 10ZM23 10L23 11L25 11L25 10ZM6 11L6 12L7 12L7 13L6 13L6 14L5 14L5 17L4 17L4 18L2 18L2 19L4 19L4 18L7 18L7 19L5 19L5 20L7 20L7 19L11 19L11 18L9 18L9 17L6 17L6 16L7 16L7 15L8 15L8 14L7 14L7 13L9 13L9 12L10 12L10 11L9 11L9 12L7 12L7 11ZM17 12L17 16L16 16L16 17L15 17L15 14L14 14L14 15L13 15L13 16L14 16L14 18L17 18L17 16L18 16L18 17L19 17L19 18L18 18L18 19L14 19L14 20L13 20L13 21L12 21L12 20L11 20L11 21L12 21L12 24L13 24L13 25L12 25L12 26L10 26L10 27L9 27L9 28L10 28L10 27L12 27L12 26L13 26L13 25L14 25L14 26L15 26L15 24L14 24L14 23L15 23L15 22L14 22L14 23L13 23L13 21L14 21L14 20L18 20L18 21L17 21L17 22L18 22L18 21L19 21L19 22L20 22L20 21L19 21L19 20L18 20L18 19L19 19L19 18L20 18L20 17L21 17L21 19L22 19L22 20L23 20L23 19L24 19L24 20L26 20L26 19L24 19L24 17L27 17L27 16L28 16L28 15L27 15L27 13L25 13L25 12L24 12L24 13L25 13L25 15L23 15L23 16L18 16L18 12ZM20 12L20 13L21 13L21 12ZM6 14L6 15L7 15L7 14ZM25 15L25 16L27 16L27 15ZM23 16L23 17L24 17L24 16ZM22 18L22 19L23 19L23 18ZM21 21L21 24L24 24L24 21ZM26 21L26 22L25 22L25 23L26 23L26 25L28 25L28 24L27 24L27 23L26 23L26 22L27 22L27 21ZM22 22L22 23L23 23L23 22ZM18 23L18 24L16 24L16 25L17 25L17 26L16 26L16 27L17 27L17 26L18 26L18 27L19 27L19 28L21 28L21 26L20 26L20 25L19 25L19 24L20 24L20 23ZM19 26L19 27L20 27L20 26ZM0 0L0 7L7 7L7 0ZM1 1L1 6L6 6L6 1ZM2 2L2 5L5 5L5 2ZM22 0L22 7L29 7L29 0ZM23 1L23 6L28 6L28 1ZM24 2L24 5L27 5L27 2ZM0 22L0 29L7 29L7 22ZM1 23L1 28L6 28L6 23ZM2 24L2 27L5 27L5 24Z" fill="#282828"/></g></g></svg>
