<?xml version="1.0" encoding="UTF-8"?>
<svg xmlns="http://www.w3.org/2000/svg" version="1.1" width="90" height="90" viewBox="0 0 90 90"><rect x="0" y="0" width="90" height="90" fill="#ffffff"/><g transform="scale(2.903)"><g transform="translate(1,1)"><path fill-rule="evenodd" d="M8 0L8 4L10 4L10 3L11 3L11 4L12 4L12 2L11 2L11 0ZM12 0L12 1L13 1L13 2L14 2L14 3L13 3L13 5L11 5L11 6L10 6L10 7L9 7L9 5L8 5L8 7L9 7L9 8L10 8L10 7L11 7L11 6L12 6L12 8L11 8L11 9L7 9L7 8L4 8L4 9L2 9L2 8L0 8L0 14L1 14L1 13L2 13L2 15L3 15L3 16L2 16L2 17L1 17L1 15L0 15L0 18L3 18L3 19L2 19L2 20L0 20L0 21L2 21L2 20L3 20L3 21L4 21L4 20L3 20L3 19L4 19L4 18L5 18L5 19L7 19L7 18L8 18L8 16L9 16L9 18L11 18L11 19L9 19L9 20L5 20L5 21L8 21L8 22L9 22L9 23L8 23L8 25L9 25L9 24L10 24L10 23L11 23L11 21L10 21L10 22L9 22L9 20L12 20L12 21L13 21L13 22L15 22L15 23L14 23L14 24L13 24L13 23L12 23L12 24L11 24L11 25L12 25L12 26L11 26L11 28L12 28L12 29L14 29L14 27L15 27L15 28L17 28L17 29L20 29L20 28L21 28L21 29L23 29L23 25L27 25L27 24L28 24L28 26L26 26L26 27L25 27L25 29L26 29L26 27L27 27L27 29L28 29L28 28L29 28L29 21L26 21L26 20L24 20L24 19L25 19L25 18L26 18L26 19L28 19L28 20L29 20L29 17L23 17L23 18L22 18L22 19L21 19L21 18L20 18L20 19L19 19L19 17L16 17L16 16L19 16L19 15L16 15L16 14L19 14L19 13L20 13L20 9L21 9L21 8L20 8L20 7L21 7L21 6L20 6L20 7L19 7L19 4L20 4L20 5L21 5L21 4L20 4L20 3L19 3L19 2L20 2L20 1L19 1L19 0L18 0L18 1L19 1L19 2L15 2L15 1L17 1L17 0ZM9 2L9 3L10 3L10 2ZM14 3L14 5L15 5L15 8L17 8L17 9L19 9L19 7L18 7L18 4L19 4L19 3L16 3L16 4L17 4L17 7L16 7L16 5L15 5L15 3ZM13 6L13 8L12 8L12 9L11 9L11 10L7 10L7 9L4 9L4 11L3 11L3 10L2 10L2 9L1 9L1 12L2 12L2 11L3 11L3 12L5 12L5 11L6 11L6 12L8 12L8 13L9 13L9 14L7 14L7 13L6 13L6 14L7 14L7 15L5 15L5 13L4 13L4 14L3 14L3 15L4 15L4 16L3 16L3 18L4 18L4 16L5 16L5 17L6 17L6 18L7 18L7 17L6 17L6 16L7 16L7 15L9 15L9 16L12 16L12 17L11 17L11 18L12 18L12 17L13 17L13 18L14 18L14 17L13 17L13 16L15 16L15 14L16 14L16 13L19 13L19 11L18 11L18 10L16 10L16 9L14 9L14 6ZM17 7L17 8L18 8L18 7ZM23 8L23 9L22 9L22 12L23 12L23 11L24 11L24 12L25 12L25 13L22 13L22 14L20 14L20 15L21 15L21 16L20 16L20 17L22 17L22 16L23 16L23 14L24 14L24 16L26 16L26 15L25 15L25 13L26 13L26 14L27 14L27 16L29 16L29 13L27 13L27 12L28 12L28 11L29 11L29 10L28 10L28 9L29 9L29 8L25 8L25 9L24 9L24 8ZM12 9L12 10L11 10L11 11L10 11L10 13L11 13L11 12L12 12L12 13L13 13L13 15L12 15L12 16L13 16L13 15L14 15L14 13L15 13L15 12L18 12L18 11L16 11L16 10L15 10L15 12L14 12L14 13L13 13L13 12L12 12L12 11L13 11L13 10L14 10L14 9ZM25 9L25 10L24 10L24 11L25 11L25 10L27 10L27 11L26 11L26 12L27 12L27 11L28 11L28 10L27 10L27 9ZM6 10L6 11L7 11L7 10ZM8 11L8 12L9 12L9 11ZM9 14L9 15L10 15L10 14ZM15 17L15 18L16 18L16 17ZM17 18L17 19L18 19L18 18ZM23 18L23 19L24 19L24 18ZM12 19L12 20L13 20L13 19ZM14 19L14 21L15 21L15 22L16 22L16 25L13 25L13 24L12 24L12 25L13 25L13 26L16 26L16 25L19 25L19 28L20 28L20 25L19 25L19 23L18 23L18 24L17 24L17 22L18 22L18 21L19 21L19 22L20 22L20 21L19 21L19 20L16 20L16 19ZM20 19L20 20L21 20L21 19ZM16 21L16 22L17 22L17 21ZM21 21L21 24L24 24L24 21ZM22 22L22 23L23 23L23 22ZM25 22L25 23L26 23L26 24L27 24L27 22ZM9 26L9 27L8 27L8 29L9 29L9 28L10 28L10 26ZM17 26L17 27L18 27L18 26ZM12 27L12 28L13 28L13 27ZM0 0L0 7L7 7L7 0ZM1 1L1 6L6 6L6 1ZM2 2L2 5L5 5L5 2ZM22 0L22 7L29 7L29 0ZM23 1L23 6L28 6L28 1ZM24 2L24 5L27 5L27 2ZM0 22L0 29L7 29L7 22ZM1 23L1 28L6 28L6 23ZM2 24L2 27L5 27L5 24Z" fill="#282828"/></g></g></svg>
