<?xml version="1.0" encoding="UTF-8"?>
<svg xmlns="http://www.w3.org/2000/svg" version="1.1" width="90" height="90" viewBox="0 0 90 90"><rect x="0" y="0" width="90" height="90" fill="#ffffff"/><g transform="scale(2.903)"><g transform="translate(1,1)"><path fill-rule="evenodd" d="M10 0L10 1L9 1L9 2L8 2L8 3L9 3L9 5L10 5L10 7L11 7L11 8L12 8L12 9L11 9L11 10L10 10L10 9L9 9L9 6L8 6L8 8L4 8L4 12L3 12L3 13L4 13L4 12L5 12L5 10L6 10L6 11L7 11L7 10L10 10L10 11L8 11L8 12L10 12L10 13L8 13L8 15L9 15L9 17L11 17L11 15L9 15L9 14L12 14L12 13L13 13L13 12L15 12L15 14L14 14L14 15L13 15L13 16L14 16L14 15L15 15L15 16L16 16L16 17L17 17L17 18L20 18L20 25L25 25L25 22L26 22L26 23L27 23L27 22L26 22L26 21L25 21L25 20L26 20L26 19L25 19L25 20L24 20L24 18L23 18L23 17L25 17L25 16L26 16L26 15L27 15L27 16L28 16L28 19L29 19L29 16L28 16L28 15L29 15L29 10L27 10L27 8L26 8L26 10L22 10L22 11L21 11L21 9L23 9L23 8L20 8L20 7L21 7L21 5L19 5L19 4L20 4L20 3L19 3L19 2L21 2L21 1L19 1L19 0L17 0L17 1L15 1L15 0L14 0L14 1L13 1L13 2L14 2L14 1L15 1L15 2L18 2L18 3L19 3L19 4L18 4L18 5L13 5L13 4L15 4L15 3L12 3L12 2L11 2L11 3L12 3L12 5L10 5L10 3L9 3L9 2L10 2L10 1L11 1L11 0ZM18 5L18 6L17 6L17 7L16 7L16 6L15 6L15 7L14 7L14 6L13 6L13 7L12 7L12 6L11 6L11 7L12 7L12 8L13 8L13 9L14 9L14 10L15 10L15 11L16 11L16 13L17 13L17 14L18 14L18 15L20 15L20 16L17 16L17 15L16 15L16 14L15 14L15 15L16 15L16 16L17 16L17 17L20 17L20 16L21 16L21 17L22 17L22 16L23 16L23 15L24 15L24 16L25 16L25 15L24 15L24 14L26 14L26 12L27 12L27 15L28 15L28 11L27 11L27 10L26 10L26 11L24 11L24 12L23 12L23 13L22 13L22 14L23 14L23 15L22 15L22 16L21 16L21 14L19 14L19 13L21 13L21 11L20 11L20 10L19 10L19 7L20 7L20 6L19 6L19 5ZM18 6L18 7L17 7L17 8L16 8L16 7L15 7L15 8L16 8L16 9L15 9L15 10L17 10L17 8L18 8L18 7L19 7L19 6ZM13 7L13 8L14 8L14 7ZM0 8L0 9L1 9L1 10L2 10L2 11L1 11L1 12L0 12L0 13L1 13L1 14L0 14L0 15L3 15L3 14L2 14L2 13L1 13L1 12L2 12L2 11L3 11L3 8ZM6 9L6 10L7 10L7 9ZM11 11L11 12L12 12L12 11ZM17 11L17 12L19 12L19 11ZM6 12L6 13L5 13L5 14L4 14L4 16L5 16L5 14L6 14L6 15L7 15L7 14L6 14L6 13L7 13L7 12ZM24 12L24 13L25 13L25 12ZM0 16L0 17L2 17L2 18L3 18L3 20L2 20L2 19L1 19L1 18L0 18L0 19L1 19L1 20L0 20L0 21L1 21L1 20L2 20L2 21L3 21L3 20L4 20L4 21L5 21L5 20L6 20L6 21L8 21L8 25L9 25L9 24L10 24L10 26L11 26L11 24L12 24L12 23L11 23L11 22L9 22L9 21L11 21L11 20L12 20L12 19L13 19L13 20L15 20L15 21L14 21L14 22L13 22L13 26L14 26L14 27L13 27L13 28L12 28L12 27L11 27L11 28L10 28L10 27L9 27L9 26L8 26L8 29L11 29L11 28L12 28L12 29L14 29L14 27L15 27L15 28L19 28L19 29L21 29L21 28L20 28L20 27L21 27L21 26L19 26L19 27L18 27L18 26L17 26L17 24L19 24L19 23L18 23L18 21L17 21L17 20L19 20L19 19L17 19L17 20L16 20L16 19L15 19L15 18L14 18L14 17L13 17L13 18L12 18L12 19L11 19L11 20L10 20L10 19L9 19L9 18L8 18L8 17L7 17L7 16L6 16L6 17L4 17L4 18L3 18L3 16ZM6 17L6 18L4 18L4 20L5 20L5 19L6 19L6 20L7 20L7 19L8 19L8 18L7 18L7 17ZM26 17L26 18L27 18L27 17ZM6 18L6 19L7 19L7 18ZM13 18L13 19L14 19L14 18ZM21 18L21 19L22 19L22 20L23 20L23 19L22 19L22 18ZM28 20L28 24L26 24L26 25L27 25L27 26L28 26L28 27L27 27L27 28L26 28L26 29L29 29L29 28L28 28L28 27L29 27L29 25L28 25L28 24L29 24L29 20ZM16 21L16 23L15 23L15 22L14 22L14 23L15 23L15 24L14 24L14 25L16 25L16 24L17 24L17 21ZM21 21L21 24L24 24L24 21ZM22 22L22 23L23 23L23 22ZM10 23L10 24L11 24L11 23ZM16 26L16 27L17 27L17 26ZM22 26L22 27L26 27L26 26ZM22 28L22 29L23 29L23 28ZM24 28L24 29L25 29L25 28ZM0 0L0 7L7 7L7 0ZM1 1L1 6L6 6L6 1ZM2 2L2 5L5 5L5 2ZM22 0L22 7L29 7L29 0ZM23 1L23 6L28 6L28 1ZM24 2L24 5L27 5L27 2ZM0 22L0 29L7 29L7 22ZM1 23L1 28L6 28L6 23ZM2 24L2 27L5 27L5 24Z" fill="#282828"/></g></g></svg>
