<?xml version="1.0" encoding="UTF-8"?>
<svg xmlns="http://www.w3.org/2000/svg" version="1.1" width="90" height="90" viewBox="0 0 90 90"><rect x="0" y="0" width="90" height="90" fill="#ffffff"/><g transform="scale(3.333)"><g transform="translate(1,1)"><path fill-rule="evenodd" d="M8 0L8 4L9 4L9 5L8 5L8 7L9 7L9 6L10 6L10 9L11 9L11 8L12 8L12 9L13 9L13 10L14 10L14 12L13 12L13 11L12 11L12 12L11 12L11 13L10 13L10 16L8 16L8 15L9 15L9 12L10 12L10 11L11 11L11 10L8 10L8 9L7 9L7 8L4 8L4 10L1 10L1 11L0 11L0 12L1 12L1 13L0 13L0 14L1 14L1 13L4 13L4 14L2 14L2 15L3 15L3 16L0 16L0 17L3 17L3 16L4 16L4 15L7 15L7 16L6 16L6 17L8 17L8 18L9 18L9 17L10 17L10 18L11 18L11 19L10 19L10 23L8 23L8 25L9 25L9 24L12 24L12 23L13 23L13 22L16 22L16 23L14 23L14 25L16 25L16 23L18 23L18 24L19 24L19 25L21 25L21 24L22 24L22 25L25 25L25 24L24 24L24 22L25 22L25 21L23 21L23 20L25 20L25 19L24 19L24 17L25 17L25 16L24 16L24 17L23 17L23 18L22 18L22 17L21 17L21 16L17 16L17 15L21 15L21 14L23 14L23 15L22 15L22 16L23 16L23 15L24 15L24 13L25 13L25 12L24 12L24 9L25 9L25 8L21 8L21 9L20 9L20 8L19 8L19 9L20 9L20 10L19 10L19 11L18 11L18 9L13 9L13 8L12 8L12 7L13 7L13 6L12 6L12 7L11 7L11 3L10 3L10 2L9 2L9 0ZM14 0L14 1L11 1L11 2L12 2L12 5L13 5L13 4L14 4L14 5L16 5L16 7L15 7L15 6L14 6L14 7L15 7L15 8L17 8L17 4L16 4L16 3L17 3L17 2L16 2L16 3L15 3L15 1L17 1L17 0ZM13 2L13 3L14 3L14 2ZM0 8L0 9L2 9L2 8ZM5 9L5 10L7 10L7 11L6 11L6 12L4 12L4 13L6 13L6 14L8 14L8 10L7 10L7 9ZM22 9L22 10L23 10L23 9ZM16 10L16 11L15 11L15 12L14 12L14 13L13 13L13 14L12 14L12 13L11 13L11 14L12 14L12 15L13 15L13 16L11 16L11 17L14 17L14 18L12 18L12 20L11 20L11 21L16 21L16 22L17 22L17 21L16 21L16 20L15 20L15 19L16 19L16 16L14 16L14 15L13 15L13 14L16 14L16 13L17 13L17 14L20 14L20 13L21 13L21 12L22 12L22 13L24 13L24 12L22 12L22 11L21 11L21 10L20 10L20 11L19 11L19 12L20 12L20 13L17 13L17 12L16 12L16 11L17 11L17 10ZM6 12L6 13L7 13L7 12ZM17 17L17 20L20 20L20 17ZM18 18L18 19L19 19L19 18ZM8 19L8 21L9 21L9 19ZM21 19L21 20L22 20L22 19ZM21 21L21 22L20 22L20 23L19 23L19 24L21 24L21 22L22 22L22 23L23 23L23 21ZM0 0L0 7L7 7L7 0ZM1 1L1 6L6 6L6 1ZM2 2L2 5L5 5L5 2ZM18 0L18 7L25 7L25 0ZM19 1L19 6L24 6L24 1ZM20 2L20 5L23 5L23 2ZM0 18L0 25L7 25L7 18ZM1 19L1 24L6 24L6 19ZM2 20L2 23L5 23L5 20Z" fill="#282828"/></g></g></svg>
