<?xml version="1.0" encoding="UTF-8"?>
<svg xmlns="http://www.w3.org/2000/svg" version="1.1" width="90" height="90" viewBox="0 0 90 90"><rect x="0" y="0" width="90" height="90" fill="#ffffff"/><g transform="scale(3.333)"><g transform="translate(1,1)"><path fill-rule="evenodd" d="M8 0L8 1L11 1L11 2L10 2L10 3L11 3L11 2L13 2L13 4L14 4L14 5L12 5L12 7L11 7L11 6L10 6L10 5L11 5L11 4L10 4L10 5L9 5L9 2L8 2L8 5L9 5L9 6L8 6L8 7L9 7L9 6L10 6L10 7L11 7L11 8L10 8L10 9L11 9L11 10L9 10L9 8L8 8L8 9L7 9L7 8L6 8L6 9L5 9L5 10L4 10L4 11L5 11L5 12L6 12L6 13L8 13L8 15L11 15L11 16L6 16L6 15L7 15L7 14L6 14L6 15L5 15L5 16L4 16L4 14L5 14L5 13L3 13L3 14L1 14L1 15L0 15L0 16L1 16L1 15L3 15L3 16L2 16L2 17L8 17L8 18L9 18L9 19L11 19L11 20L12 20L12 19L11 19L11 18L10 18L10 17L11 17L11 16L12 16L12 18L13 18L13 19L14 19L14 20L13 20L13 21L15 21L15 20L16 20L16 22L19 22L19 24L18 24L18 23L15 23L15 24L14 24L14 23L13 23L13 24L12 24L12 22L11 22L11 21L10 21L10 22L9 22L9 21L8 21L8 25L10 25L10 24L9 24L9 23L11 23L11 25L13 25L13 24L14 24L14 25L15 25L15 24L17 24L17 25L25 25L25 24L23 24L23 23L24 23L24 22L25 22L25 17L24 17L24 16L25 16L25 15L23 15L23 18L24 18L24 20L23 20L23 21L22 21L22 22L23 22L23 23L21 23L21 20L22 20L22 19L21 19L21 18L22 18L22 17L21 17L21 16L20 16L20 15L19 15L19 14L18 14L18 13L19 13L19 12L20 12L20 14L21 14L21 15L22 15L22 14L23 14L23 13L21 13L21 12L23 12L23 11L24 11L24 9L25 9L25 8L24 8L24 9L23 9L23 8L20 8L20 9L18 9L18 8L17 8L17 9L15 9L15 6L14 6L14 5L15 5L15 4L14 4L14 3L15 3L15 1L17 1L17 0L15 0L15 1L14 1L14 2L13 2L13 0ZM16 2L16 3L17 3L17 2ZM16 4L16 7L17 7L17 4ZM13 6L13 7L12 7L12 8L11 8L11 9L12 9L12 11L11 11L11 13L9 13L9 14L11 14L11 15L12 15L12 16L13 16L13 18L15 18L15 17L16 17L16 16L14 16L14 15L16 15L16 13L17 13L17 12L16 12L16 10L15 10L15 9L14 9L14 10L13 10L13 8L14 8L14 6ZM0 8L0 9L1 9L1 12L0 12L0 13L2 13L2 12L3 12L3 9L4 9L4 8ZM6 9L6 10L7 10L7 9ZM17 9L17 11L18 11L18 12L19 12L19 11L20 11L20 12L21 12L21 11L22 11L22 10L23 10L23 9L20 9L20 10L19 10L19 11L18 11L18 9ZM8 10L8 11L6 11L6 12L9 12L9 10ZM14 10L14 11L13 11L13 12L14 12L14 13L12 13L12 15L14 15L14 14L15 14L15 13L16 13L16 12L14 12L14 11L15 11L15 10ZM20 10L20 11L21 11L21 10ZM24 12L24 14L25 14L25 12ZM18 15L18 16L19 16L19 15ZM17 17L17 20L20 20L20 17ZM18 18L18 19L19 19L19 18ZM19 21L19 22L20 22L20 21ZM20 23L20 24L21 24L21 23ZM0 0L0 7L7 7L7 0ZM1 1L1 6L6 6L6 1ZM2 2L2 5L5 5L5 2ZM18 0L18 7L25 7L25 0ZM19 1L19 6L24 6L24 1ZM20 2L20 5L23 5L23 2ZM0 18L0 25L7 25L7 18ZM1 19L1 24L6 24L6 19ZM2 20L2 23L5 23L5 20Z" fill="#282828"/></g></g></svg>
