<?xml version="1.0" encoding="UTF-8"?>
<svg xmlns="http://www.w3.org/2000/svg" version="1.1" width="90" height="90" viewBox="0 0 90 90"><rect x="0" y="0" width="90" height="90" fill="#ffffff"/><g transform="scale(2.903)"><g transform="translate(1,1)"><path fill-rule="evenodd" d="M8 0L8 2L10 2L10 4L8 4L8 11L7 11L7 10L5 10L5 9L7 9L7 8L5 8L5 9L3 9L3 8L0 8L0 9L3 9L3 10L0 10L0 11L1 11L1 12L4 12L4 15L3 15L3 16L2 16L2 15L1 15L1 14L2 14L2 13L0 13L0 16L2 16L2 17L1 17L1 18L0 18L0 19L2 19L2 20L0 20L0 21L4 21L4 20L5 20L5 19L7 19L7 18L6 18L6 17L9 17L9 18L8 18L8 19L9 19L9 18L11 18L11 19L12 19L12 18L11 18L11 16L13 16L13 15L14 15L14 18L13 18L13 19L15 19L15 20L14 20L14 21L13 21L13 20L11 20L11 21L10 21L10 20L6 20L6 21L8 21L8 22L10 22L10 23L8 23L8 24L9 24L9 26L8 26L8 29L10 29L10 28L9 28L9 27L12 27L12 26L11 26L11 25L10 25L10 23L11 23L11 24L13 24L13 26L14 26L14 25L16 25L16 26L15 26L15 27L18 27L18 29L19 29L19 28L20 28L20 29L21 29L21 28L22 28L22 29L23 29L23 28L25 28L25 29L27 29L27 28L26 28L26 26L24 26L24 27L23 27L23 26L22 26L22 25L25 25L25 24L26 24L26 25L28 25L28 26L27 26L27 27L29 27L29 25L28 25L28 24L29 24L29 20L28 20L28 19L29 19L29 16L27 16L27 22L25 22L25 21L26 21L26 20L25 20L25 19L26 19L26 18L25 18L25 19L24 19L24 17L25 17L25 16L26 16L26 15L29 15L29 13L28 13L28 11L29 11L29 10L28 10L28 9L29 9L29 8L27 8L27 9L25 9L25 8L19 8L19 5L20 5L20 3L21 3L21 1L20 1L20 0L17 0L17 1L16 1L16 0L15 0L15 1L13 1L13 0L11 0L11 1L9 1L9 0ZM11 1L11 2L12 2L12 1ZM15 1L15 2L14 2L14 3L15 3L15 4L14 4L14 5L13 5L13 3L11 3L11 4L12 4L12 6L11 6L11 5L9 5L9 8L10 8L10 6L11 6L11 7L12 7L12 6L13 6L13 8L11 8L11 10L9 10L9 11L10 11L10 13L9 13L9 12L7 12L7 11L6 11L6 12L5 12L5 11L4 11L4 12L5 12L5 14L7 14L7 15L6 15L6 16L8 16L8 15L9 15L9 16L10 16L10 15L9 15L9 14L11 14L11 15L12 15L12 13L11 13L11 12L13 12L13 14L14 14L14 11L13 11L13 10L16 10L16 11L15 11L15 12L16 12L16 13L15 13L15 14L16 14L16 15L15 15L15 16L16 16L16 15L17 15L17 16L18 16L18 18L20 18L20 19L16 19L16 20L15 20L15 22L16 22L16 20L18 20L18 21L17 21L17 22L18 22L18 23L17 23L17 24L18 24L18 25L17 25L17 26L18 26L18 27L20 27L20 28L21 28L21 27L22 27L22 28L23 28L23 27L22 27L22 26L21 26L21 25L19 25L19 24L18 24L18 23L19 23L19 22L20 22L20 20L21 20L21 18L23 18L23 17L22 17L22 16L21 16L21 18L20 18L20 17L19 17L19 16L20 16L20 15L22 15L22 14L23 14L23 13L24 13L24 15L25 15L25 13L24 13L24 10L25 10L25 11L26 11L26 12L27 12L27 11L28 11L28 10L25 10L25 9L23 9L23 11L20 11L20 13L19 13L19 10L18 10L18 9L19 9L19 8L18 8L18 3L20 3L20 1L17 1L17 2L18 2L18 3L15 3L15 2L16 2L16 1ZM15 4L15 5L16 5L16 7L15 7L15 6L14 6L14 7L15 7L15 9L16 9L16 10L17 10L17 11L16 11L16 12L17 12L17 13L16 13L16 14L17 14L17 13L18 13L18 12L17 12L17 11L18 11L18 10L17 10L17 9L18 9L18 8L17 8L17 5L16 5L16 4ZM20 6L20 7L21 7L21 6ZM20 9L20 10L22 10L22 9ZM11 10L11 11L12 11L12 10ZM6 12L6 13L7 13L7 12ZM22 12L22 13L23 13L23 12ZM20 13L20 14L18 14L18 16L19 16L19 15L20 15L20 14L21 14L21 13ZM26 13L26 14L27 14L27 13ZM3 16L3 17L2 17L2 18L3 18L3 17L4 17L4 19L5 19L5 16ZM15 17L15 18L16 18L16 17ZM22 19L22 20L23 20L23 19ZM11 21L11 23L12 23L12 21ZM21 21L21 24L24 24L24 21ZM22 22L22 23L23 23L23 22ZM13 23L13 24L14 24L14 23ZM15 23L15 24L16 24L16 23ZM26 23L26 24L28 24L28 23ZM18 25L18 26L19 26L19 25ZM20 26L20 27L21 27L21 26ZM13 27L13 28L11 28L11 29L14 29L14 27ZM15 28L15 29L17 29L17 28ZM28 28L28 29L29 29L29 28ZM0 0L0 7L7 7L7 0ZM1 1L1 6L6 6L6 1ZM2 2L2 5L5 5L5 2ZM22 0L22 7L29 7L29 0ZM23 1L23 6L28 6L28 1ZM24 2L24 5L27 5L27 2ZM0 22L0 29L7 29L7 22ZM1 23L1 28L6 28L6 23ZM2 24L2 27L5 27L5 24Z" fill="#282828"/></g></g></svg>
