<?xml version="1.0" encoding="UTF-8"?>
<svg xmlns="http://www.w3.org/2000/svg" version="1.1" width="100" height="100" viewBox="0 0 100 100"><rect x="0" y="0" width="100" height="100" fill="#ffffff"/><g transform="scale(3.704)"><g transform="translate(1,1)"><path fill-rule="evenodd" d="M11 0L11 1L8 1L8 3L9 3L9 4L8 4L8 8L6 8L6 9L4 9L4 8L3 8L3 9L4 9L4 10L5 10L5 11L4 11L4 12L2 12L2 11L3 11L3 10L2 10L2 8L0 8L0 10L2 10L2 11L1 11L1 13L2 13L2 14L3 14L3 13L4 13L4 12L5 12L5 11L7 11L7 12L6 12L6 13L5 13L5 14L4 14L4 15L3 15L3 16L2 16L2 15L1 15L1 14L0 14L0 15L1 15L1 16L0 16L0 17L3 17L3 16L5 16L5 17L7 17L7 16L9 16L9 17L8 17L8 19L9 19L9 18L11 18L11 17L12 17L12 18L14 18L14 17L12 17L12 16L15 16L15 19L14 19L14 20L12 20L12 19L11 19L11 20L9 20L9 21L8 21L8 22L9 22L9 21L10 21L10 23L8 23L8 25L14 25L14 21L15 21L15 25L17 25L17 24L16 24L16 21L17 21L17 22L18 22L18 21L19 21L19 22L20 22L20 23L19 23L19 24L18 24L18 25L19 25L19 24L20 24L20 25L21 25L21 24L20 24L20 23L21 23L21 22L22 22L22 21L21 21L21 20L25 20L25 16L24 16L24 17L23 17L23 16L21 16L21 15L20 15L20 13L21 13L21 11L25 11L25 10L23 10L23 9L24 9L24 8L22 8L22 10L20 10L20 11L18 11L18 9L21 9L21 8L18 8L18 9L16 9L16 11L15 11L15 10L14 10L14 9L15 9L15 6L16 6L16 7L17 7L17 6L16 6L16 5L17 5L17 4L15 4L15 3L13 3L13 0ZM14 0L14 1L15 1L15 2L16 2L16 3L17 3L17 2L16 2L16 1L17 1L17 0ZM9 2L9 3L10 3L10 5L9 5L9 8L8 8L8 9L6 9L6 10L7 10L7 11L11 11L11 13L10 13L10 12L9 12L9 13L8 13L8 12L7 12L7 13L6 13L6 14L5 14L5 15L6 15L6 16L7 16L7 15L6 15L6 14L7 14L7 13L8 13L8 14L12 14L12 15L10 15L10 16L12 16L12 15L13 15L13 14L14 14L14 13L15 13L15 16L16 16L16 15L17 15L17 16L19 16L19 15L18 15L18 14L19 14L19 13L20 13L20 12L19 12L19 13L16 13L16 12L15 12L15 11L14 11L14 13L13 13L13 11L12 11L12 9L11 9L11 8L10 8L10 5L11 5L11 7L12 7L12 8L14 8L14 6L15 6L15 5L14 5L14 4L13 4L13 5L14 5L14 6L13 6L13 7L12 7L12 5L11 5L11 3L10 3L10 2ZM8 9L8 10L10 10L10 9ZM22 12L22 15L25 15L25 12L24 12L24 14L23 14L23 12ZM12 13L12 14L13 14L13 13ZM17 17L17 20L20 20L20 17ZM22 17L22 18L21 18L21 19L24 19L24 18L23 18L23 17ZM18 18L18 19L19 19L19 18ZM15 19L15 21L16 21L16 19ZM11 21L11 23L10 23L10 24L11 24L11 23L12 23L12 21ZM20 21L20 22L21 22L21 21ZM24 22L24 23L25 23L25 22ZM22 24L22 25L25 25L25 24ZM0 0L0 7L7 7L7 0ZM1 1L1 6L6 6L6 1ZM2 2L2 5L5 5L5 2ZM18 0L18 7L25 7L25 0ZM19 1L19 6L24 6L24 1ZM20 2L20 5L23 5L23 2ZM0 18L0 25L7 25L7 18ZM1 19L1 24L6 24L6 19ZM2 20L2 23L5 23L5 20Z" fill="#282828"/></g></g></svg>
