<?xml version="1.0" encoding="UTF-8"?>
<svg xmlns="http://www.w3.org/2000/svg" version="1.1" width="90" height="90" viewBox="0 0 90 90"><rect x="0" y="0" width="90" height="90" fill="#ffffff"/><g transform="scale(3.333)"><g transform="translate(1,1)"><path fill-rule="evenodd" d="M9 0L9 1L8 1L8 2L9 2L9 3L8 3L8 4L10 4L10 7L11 7L11 4L12 4L12 5L13 5L13 6L12 6L12 9L13 9L13 6L14 6L14 7L15 7L15 6L16 6L16 8L17 8L17 9L15 9L15 8L14 8L14 9L15 9L15 10L11 10L11 11L10 11L10 9L11 9L11 8L6 8L6 9L5 9L5 8L0 8L0 9L2 9L2 10L0 10L0 12L1 12L1 13L0 13L0 17L1 17L1 14L2 14L2 13L3 13L3 12L5 12L5 15L4 15L4 14L3 14L3 16L2 16L2 17L4 17L4 16L5 16L5 15L8 15L8 16L6 16L6 17L8 17L8 19L9 19L9 20L8 20L8 25L9 25L9 23L11 23L11 22L13 22L13 21L14 21L14 22L16 22L16 23L15 23L15 24L13 24L13 23L12 23L12 25L15 25L15 24L17 24L17 25L20 25L20 23L19 23L19 24L17 24L17 22L19 22L19 21L20 21L20 22L21 22L21 23L22 23L22 22L24 22L24 24L21 24L21 25L25 25L25 21L23 21L23 20L21 20L21 19L22 19L22 18L24 18L24 19L25 19L25 18L24 18L24 17L25 17L25 14L24 14L24 13L25 13L25 9L24 9L24 8L23 8L23 9L22 9L22 8L21 8L21 9L22 9L22 11L24 11L24 13L22 13L22 12L21 12L21 13L22 13L22 14L24 14L24 15L23 15L23 16L17 16L17 14L18 14L18 15L19 15L19 14L20 14L20 13L19 13L19 12L18 12L18 10L17 10L17 9L18 9L18 8L17 8L17 6L16 6L16 5L17 5L17 4L15 4L15 2L16 2L16 3L17 3L17 2L16 2L16 1L17 1L17 0L15 0L15 2L14 2L14 4L12 4L12 2L13 2L13 1L11 1L11 2L10 2L10 0ZM10 3L10 4L11 4L11 3ZM14 4L14 5L15 5L15 4ZM8 5L8 7L9 7L9 5ZM19 8L19 11L21 11L21 10L20 10L20 8ZM3 9L3 11L2 11L2 12L3 12L3 11L5 11L5 9ZM6 9L6 10L7 10L7 11L6 11L6 12L7 12L7 11L8 11L8 12L9 12L9 10L8 10L8 9ZM16 10L16 13L14 13L14 11L12 11L12 12L13 12L13 16L12 16L12 13L11 13L11 12L10 12L10 13L11 13L11 14L8 14L8 13L6 13L6 14L8 14L8 15L11 15L11 17L10 17L10 19L11 19L11 21L13 21L13 20L14 20L14 19L13 19L13 18L11 18L11 17L14 17L14 15L15 15L15 14L17 14L17 10ZM18 13L18 14L19 14L19 13ZM8 16L8 17L9 17L9 16ZM23 16L23 17L24 17L24 16ZM17 17L17 20L20 20L20 17ZM21 17L21 18L22 18L22 17ZM15 18L15 20L16 20L16 18ZM18 18L18 19L19 19L19 18ZM12 19L12 20L13 20L13 19ZM9 20L9 21L10 21L10 20ZM21 21L21 22L22 22L22 21ZM10 24L10 25L11 25L11 24ZM0 0L0 7L7 7L7 0ZM1 1L1 6L6 6L6 1ZM2 2L2 5L5 5L5 2ZM18 0L18 7L25 7L25 0ZM19 1L19 6L24 6L24 1ZM20 2L20 5L23 5L23 2ZM0 18L0 25L7 25L7 18ZM1 19L1 24L6 24L6 19ZM2 20L2 23L5 23L5 20Z" fill="#282828"/></g></g></svg>
