<?xml version="1.0" encoding="UTF-8"?>
<svg xmlns="http://www.w3.org/2000/svg" version="1.1" width="90" height="90" viewBox="0 0 90 90"><rect x="0" y="0" width="90" height="90" fill="#ffffff"/><g transform="scale(2.903)"><g transform="translate(1,1)"><path fill-rule="evenodd" d="M9 0L9 1L8 1L8 2L9 2L9 3L8 3L8 4L10 4L10 7L11 7L11 4L12 4L12 5L13 5L13 6L12 6L12 9L13 9L13 8L14 8L14 9L18 9L18 10L19 10L19 9L18 9L18 8L20 8L20 7L21 7L21 6L20 6L20 7L19 7L19 6L18 6L18 5L21 5L21 3L20 3L20 2L19 2L19 3L20 3L20 4L18 4L18 3L16 3L16 2L17 2L17 1L15 1L15 0L14 0L14 1L15 1L15 4L17 4L17 5L14 5L14 4L12 4L12 2L13 2L13 1L11 1L11 2L10 2L10 0ZM18 0L18 1L21 1L21 0ZM10 3L10 4L11 4L11 3ZM8 5L8 7L9 7L9 5ZM13 6L13 7L14 7L14 8L15 8L15 7L16 7L16 8L18 8L18 6L17 6L17 7L16 7L16 6L15 6L15 7L14 7L14 6ZM0 8L0 9L5 9L5 8ZM6 8L6 9L7 9L7 10L3 10L3 11L1 11L1 10L0 10L0 14L1 14L1 13L3 13L3 11L8 11L8 12L9 12L9 14L11 14L11 13L12 13L12 14L13 14L13 15L12 15L12 17L13 17L13 16L14 16L14 17L16 17L16 18L15 18L15 19L14 19L14 20L15 20L15 19L16 19L16 21L12 21L12 19L13 19L13 18L11 18L11 17L10 17L10 18L8 18L8 20L6 20L6 19L7 19L7 18L6 18L6 19L5 19L5 17L9 17L9 16L8 16L8 15L7 15L7 14L8 14L8 13L7 13L7 12L6 12L6 13L7 13L7 14L5 14L5 12L4 12L4 14L3 14L3 16L4 16L4 14L5 14L5 15L7 15L7 16L5 16L5 17L3 17L3 18L2 18L2 15L0 15L0 16L1 16L1 17L0 17L0 21L1 21L1 18L2 18L2 19L3 19L3 21L8 21L8 23L9 23L9 24L8 24L8 29L12 29L12 27L13 27L13 26L11 26L11 27L10 27L10 28L9 28L9 26L10 26L10 25L9 25L9 24L10 24L10 23L11 23L11 22L10 22L10 23L9 23L9 21L10 21L10 20L11 20L11 21L12 21L12 22L13 22L13 23L12 23L12 25L13 25L13 24L14 24L14 25L16 25L16 26L15 26L15 27L14 27L14 28L15 28L15 29L18 29L18 28L15 28L15 27L17 27L17 26L18 26L18 27L19 27L19 26L20 26L20 28L19 28L19 29L20 29L20 28L21 28L21 29L22 29L22 28L23 28L23 27L25 27L25 28L24 28L24 29L25 29L25 28L26 28L26 27L25 27L25 26L24 26L24 25L25 25L25 23L26 23L26 21L28 21L28 22L27 22L27 23L28 23L28 22L29 22L29 21L28 21L28 20L26 20L26 18L27 18L27 19L28 19L28 18L29 18L29 17L28 17L28 16L26 16L26 14L27 14L27 15L28 15L28 14L29 14L29 13L28 13L28 11L27 11L27 9L28 9L28 8L27 8L27 9L26 9L26 8L25 8L25 9L24 9L24 8L23 8L23 9L22 9L22 8L21 8L21 9L20 9L20 10L25 10L25 12L26 12L26 11L27 11L27 13L21 13L21 14L20 14L20 13L18 13L18 12L19 12L19 11L18 11L18 12L17 12L17 13L16 13L16 11L17 11L17 10L15 10L15 11L14 11L14 12L15 12L15 13L12 13L12 11L13 11L13 10L11 10L11 11L10 11L10 9L11 9L11 8ZM8 9L8 10L9 10L9 9ZM21 11L21 12L22 12L22 11ZM23 11L23 12L24 12L24 11ZM10 12L10 13L11 13L11 12ZM15 13L15 14L16 14L16 16L19 16L19 17L21 17L21 16L22 16L22 17L26 17L26 16L23 16L23 14L22 14L22 15L21 15L21 16L20 16L20 14L19 14L19 15L18 15L18 13L17 13L17 14L16 14L16 13ZM27 13L27 14L28 14L28 13ZM14 15L14 16L15 16L15 15ZM17 17L17 21L20 21L20 20L21 20L21 19L20 19L20 18L19 18L19 19L20 19L20 20L18 20L18 17ZM27 17L27 18L28 18L28 17ZM22 18L22 20L24 20L24 19L25 19L25 18ZM4 19L4 20L5 20L5 19ZM8 20L8 21L9 21L9 20ZM25 20L25 21L26 21L26 20ZM21 21L21 24L24 24L24 21ZM17 22L17 24L16 24L16 25L17 25L17 24L18 24L18 25L20 25L20 26L22 26L22 27L21 27L21 28L22 28L22 27L23 27L23 25L20 25L20 24L18 24L18 23L19 23L19 22ZM22 22L22 23L23 23L23 22ZM14 23L14 24L15 24L15 23ZM26 24L26 25L27 25L27 28L28 28L28 26L29 26L29 25L27 25L27 24ZM0 0L0 7L7 7L7 0ZM1 1L1 6L6 6L6 1ZM2 2L2 5L5 5L5 2ZM22 0L22 7L29 7L29 0ZM23 1L23 6L28 6L28 1ZM24 2L24 5L27 5L27 2ZM0 22L0 29L7 29L7 22ZM1 23L1 28L6 28L6 23ZM2 24L2 27L5 27L5 24Z" fill="#282828"/></g></g></svg>
