<?xml version="1.0" encoding="UTF-8"?>
<svg xmlns="http://www.w3.org/2000/svg" version="1.1" width="90" height="90" viewBox="0 0 90 90"><rect x="0" y="0" width="90" height="90" fill="#ffffff"/><g transform="scale(2.903)"><g transform="translate(1,1)"><path fill-rule="evenodd" d="M8 0L8 4L9 4L9 5L8 5L8 7L9 7L9 6L10 6L10 9L11 9L11 8L12 8L12 9L13 9L13 10L14 10L14 9L15 9L15 8L16 8L16 7L17 7L17 8L19 8L19 6L20 6L20 9L16 9L16 10L15 10L15 11L14 11L14 13L12 13L12 12L13 12L13 11L12 11L12 12L11 12L11 13L10 13L10 14L11 14L11 15L10 15L10 17L9 17L9 18L8 18L8 16L9 16L9 14L8 14L8 15L7 15L7 14L6 14L6 15L5 15L5 14L3 14L3 15L2 15L2 17L3 17L3 18L2 18L2 19L4 19L4 20L5 20L5 21L8 21L8 22L9 22L9 21L8 21L8 20L11 20L11 21L12 21L12 22L11 22L11 24L12 24L12 25L13 25L13 26L15 26L15 27L14 27L14 28L13 28L13 27L12 27L12 28L11 28L11 29L12 29L12 28L13 28L13 29L15 29L15 27L16 27L16 26L18 26L18 27L17 27L17 28L18 28L18 27L19 27L19 25L20 25L20 29L21 29L21 27L23 27L23 28L24 28L24 29L28 29L28 28L29 28L29 21L26 21L26 18L25 18L25 17L26 17L26 14L25 14L25 13L27 13L27 15L28 15L28 16L29 16L29 13L27 13L27 12L29 12L29 10L28 10L28 9L29 9L29 8L25 8L25 9L24 9L24 8L23 8L23 9L22 9L22 11L21 11L21 12L19 12L19 13L18 13L18 14L17 14L17 12L18 12L18 11L19 11L19 10L20 10L20 9L21 9L21 6L20 6L20 4L21 4L21 2L20 2L20 0L15 0L15 1L14 1L14 0L13 0L13 1L11 1L11 2L12 2L12 5L13 5L13 6L12 6L12 7L11 7L11 3L10 3L10 2L9 2L9 0ZM15 1L15 2L13 2L13 3L15 3L15 7L16 7L16 4L17 4L17 7L18 7L18 6L19 6L19 5L18 5L18 4L17 4L17 2L18 2L18 3L19 3L19 4L20 4L20 2L19 2L19 1L17 1L17 2L16 2L16 1ZM13 6L13 7L12 7L12 8L13 8L13 9L14 9L14 6ZM0 8L0 10L1 10L1 11L0 11L0 15L1 15L1 13L2 13L2 12L3 12L3 10L5 10L5 12L6 12L6 13L7 13L7 12L10 12L10 11L11 11L11 10L9 10L9 9L8 9L8 10L5 10L5 9L7 9L7 8L4 8L4 9L3 9L3 10L2 10L2 8ZM25 9L25 10L27 10L27 11L26 11L26 12L27 12L27 11L28 11L28 10L27 10L27 9ZM8 10L8 11L9 11L9 10ZM16 10L16 12L15 12L15 13L14 13L14 14L13 14L13 15L12 15L12 16L11 16L11 20L12 20L12 21L13 21L13 22L14 22L14 21L13 21L13 20L16 20L16 21L15 21L15 22L16 22L16 23L17 23L17 22L18 22L18 24L15 24L15 23L14 23L14 25L15 25L15 26L16 26L16 25L19 25L19 22L20 22L20 21L19 21L19 22L18 22L18 21L17 21L17 19L15 19L15 18L16 18L16 17L17 17L17 18L18 18L18 17L19 17L19 19L20 19L20 20L21 20L21 19L20 19L20 18L22 18L22 17L25 17L25 14L23 14L23 16L22 16L22 15L21 15L21 17L19 17L19 16L20 16L20 13L19 13L19 15L18 15L18 16L17 16L17 14L16 14L16 12L17 12L17 11L18 11L18 10ZM1 11L1 12L2 12L2 11ZM6 11L6 12L7 12L7 11ZM23 11L23 12L22 12L22 13L21 13L21 14L22 14L22 13L25 13L25 12L24 12L24 11ZM11 13L11 14L12 14L12 13ZM15 14L15 15L14 15L14 17L13 17L13 16L12 16L12 17L13 17L13 18L14 18L14 17L15 17L15 15L16 15L16 14ZM6 15L6 16L4 16L4 18L5 18L5 19L6 19L6 20L7 20L7 19L8 19L8 18L7 18L7 17L6 17L6 16L7 16L7 15ZM0 17L0 18L1 18L1 17ZM27 17L27 19L28 19L28 20L29 20L29 17ZM6 18L6 19L7 19L7 18ZM12 19L12 20L13 20L13 19ZM24 19L24 20L25 20L25 19ZM0 20L0 21L2 21L2 20ZM16 21L16 22L17 22L17 21ZM21 21L21 24L24 24L24 21ZM25 21L25 22L26 22L26 23L25 23L25 24L26 24L26 25L27 25L27 26L25 26L25 25L24 25L24 26L23 26L23 25L22 25L22 26L23 26L23 27L26 27L26 28L27 28L27 26L28 26L28 23L27 23L27 22L26 22L26 21ZM22 22L22 23L23 23L23 22ZM8 23L8 25L10 25L10 24L9 24L9 23ZM12 23L12 24L13 24L13 23ZM9 26L9 27L8 27L8 29L9 29L9 27L11 27L11 26ZM0 0L0 7L7 7L7 0ZM1 1L1 6L6 6L6 1ZM2 2L2 5L5 5L5 2ZM22 0L22 7L29 7L29 0ZM23 1L23 6L28 6L28 1ZM24 2L24 5L27 5L27 2ZM0 22L0 29L7 29L7 22ZM1 23L1 28L6 28L6 23ZM2 24L2 27L5 27L5 24Z" fill="#282828"/></g></g></svg>
