<?xml version="1.0" encoding="UTF-8"?>
<svg xmlns="http://www.w3.org/2000/svg" version="1.1" width="90" height="90" viewBox="0 0 90 90"><rect x="0" y="0" width="90" height="90" fill="#ffffff"/><g transform="scale(2.903)"><g transform="translate(1,1)"><path fill-rule="evenodd" d="M10 0L10 2L11 2L11 0ZM12 0L12 1L13 1L13 0ZM14 0L14 1L15 1L15 2L14 2L14 3L13 3L13 2L12 2L12 4L14 4L14 5L15 5L15 6L14 6L14 8L15 8L15 9L16 9L16 10L14 10L14 9L12 9L12 7L13 7L13 5L11 5L11 6L10 6L10 4L11 4L11 3L8 3L8 4L9 4L9 5L8 5L8 7L9 7L9 8L6 8L6 9L7 9L7 10L4 10L4 9L5 9L5 8L0 8L0 10L1 10L1 13L2 13L2 15L1 15L1 14L0 14L0 15L1 15L1 16L0 16L0 21L1 21L1 18L2 18L2 16L3 16L3 17L4 17L4 16L3 16L3 13L4 13L4 15L5 15L5 16L6 16L6 17L5 17L5 18L3 18L3 19L2 19L2 20L4 20L4 19L5 19L5 18L6 18L6 19L7 19L7 20L6 20L6 21L7 21L7 20L8 20L8 23L9 23L9 24L8 24L8 29L9 29L9 26L10 26L10 27L11 27L11 26L10 26L10 25L9 25L9 24L10 24L10 23L11 23L11 25L12 25L12 26L13 26L13 27L12 27L12 29L13 29L13 28L14 28L14 29L15 29L15 28L16 28L16 27L18 27L18 28L17 28L17 29L18 29L18 28L19 28L19 29L20 29L20 28L21 28L21 29L23 29L23 28L26 28L26 29L27 29L27 28L28 28L28 26L29 26L29 25L27 25L27 28L26 28L26 27L25 27L25 26L26 26L26 25L25 25L25 24L26 24L26 23L25 23L25 17L28 17L28 18L26 18L26 19L28 19L28 18L29 18L29 17L28 17L28 16L26 16L26 15L25 15L25 14L26 14L26 13L24 13L24 14L23 14L23 13L22 13L22 14L23 14L23 15L25 15L25 17L19 17L19 18L21 18L21 19L18 19L18 20L17 20L17 17L18 17L18 16L17 16L17 15L19 15L19 14L20 14L20 16L22 16L22 15L21 15L21 14L20 14L20 13L19 13L19 14L17 14L17 13L18 13L18 12L19 12L19 8L17 8L17 9L16 9L16 7L17 7L17 5L18 5L18 7L19 7L19 5L21 5L21 4L20 4L20 3L19 3L19 2L18 2L18 3L16 3L16 2L17 2L17 1L15 1L15 0ZM18 0L18 1L20 1L20 2L21 2L21 0ZM8 1L8 2L9 2L9 1ZM14 3L14 4L15 4L15 5L17 5L17 4L15 4L15 3ZM18 3L18 4L19 4L19 3ZM9 6L9 7L10 7L10 6ZM11 6L11 7L12 7L12 6ZM15 6L15 7L16 7L16 6ZM20 6L20 8L21 8L21 9L20 9L20 10L21 10L21 11L22 11L22 12L23 12L23 11L22 11L22 10L24 10L24 12L26 12L26 11L27 11L27 9L28 9L28 8L27 8L27 9L26 9L26 8L25 8L25 9L24 9L24 8L23 8L23 9L22 9L22 8L21 8L21 6ZM10 8L10 9L8 9L8 11L9 11L9 12L11 12L11 13L10 13L10 14L9 14L9 13L8 13L8 12L7 12L7 11L5 11L5 12L7 12L7 13L6 13L6 14L7 14L7 13L8 13L8 15L10 15L10 14L13 14L13 15L12 15L12 17L11 17L11 16L7 16L7 15L6 15L6 16L7 16L7 17L6 17L6 18L7 18L7 19L9 19L9 18L7 18L7 17L10 17L10 18L11 18L11 19L10 19L10 20L11 20L11 21L9 21L9 22L13 22L13 23L12 23L12 25L15 25L15 26L16 26L16 25L17 25L17 24L18 24L18 25L20 25L20 26L18 26L18 27L19 27L19 28L20 28L20 26L25 26L25 25L20 25L20 24L19 24L19 23L18 23L18 21L19 21L19 22L20 22L20 21L19 21L19 20L18 20L18 21L17 21L17 20L16 20L16 21L14 21L14 20L15 20L15 19L14 19L14 20L13 20L13 21L12 21L12 19L13 19L13 18L12 18L12 17L16 17L16 15L15 15L15 14L16 14L16 13L14 13L14 12L15 12L15 11L14 11L14 12L13 12L13 13L12 13L12 11L13 11L13 10L12 10L12 9L11 9L11 8ZM10 9L10 11L11 11L11 9ZM17 9L17 10L16 10L16 12L18 12L18 9ZM21 9L21 10L22 10L22 9ZM3 10L3 11L4 11L4 10ZM27 12L27 13L28 13L28 14L27 14L27 15L28 15L28 14L29 14L29 13L28 13L28 12ZM14 15L14 16L15 16L15 15ZM22 18L22 19L21 19L21 20L23 20L23 19L24 19L24 18ZM26 20L26 21L28 21L28 22L27 22L27 24L29 24L29 23L28 23L28 22L29 22L29 21L28 21L28 20ZM16 21L16 22L15 22L15 23L14 23L14 24L15 24L15 23L16 23L16 24L17 24L17 23L16 23L16 22L17 22L17 21ZM21 21L21 24L24 24L24 21ZM22 22L22 23L23 23L23 22ZM14 27L14 28L15 28L15 27ZM21 27L21 28L22 28L22 27ZM10 28L10 29L11 29L11 28ZM0 0L0 7L7 7L7 0ZM1 1L1 6L6 6L6 1ZM2 2L2 5L5 5L5 2ZM22 0L22 7L29 7L29 0ZM23 1L23 6L28 6L28 1ZM24 2L24 5L27 5L27 2ZM0 22L0 29L7 29L7 22ZM1 23L1 28L6 28L6 23ZM2 24L2 27L5 27L5 24Z" fill="#282828"/></g></g></svg>
