<?xml version="1.0" encoding="UTF-8"?>
<svg xmlns="http://www.w3.org/2000/svg" version="1.1" width="90" height="90" viewBox="0 0 90 90"><rect x="0" y="0" width="90" height="90" fill="#ffffff"/><g transform="scale(2.903)"><g transform="translate(1,1)"><path fill-rule="evenodd" d="M8 0L8 4L10 4L10 3L11 3L11 4L12 4L12 2L11 2L11 0ZM12 0L12 1L13 1L13 2L14 2L14 3L13 3L13 5L11 5L11 6L10 6L10 7L9 7L9 5L8 5L8 7L9 7L9 8L10 8L10 7L11 7L11 6L12 6L12 8L11 8L11 9L9 9L9 10L8 10L8 9L7 9L7 8L4 8L4 9L3 9L3 10L2 10L2 8L0 8L0 10L1 10L1 11L0 11L0 12L1 12L1 11L2 11L2 12L3 12L3 11L4 11L4 13L5 13L5 14L6 14L6 15L7 15L7 16L6 16L6 17L5 17L5 18L4 18L4 16L5 16L5 15L4 15L4 14L3 14L3 13L1 13L1 14L0 14L0 15L1 15L1 16L0 16L0 18L2 18L2 17L1 17L1 16L3 16L3 18L4 18L4 19L3 19L3 20L0 20L0 21L3 21L3 20L4 20L4 19L5 19L5 21L8 21L8 22L9 22L9 23L8 23L8 25L9 25L9 27L8 27L8 29L9 29L9 28L10 28L10 27L11 27L11 28L12 28L12 29L14 29L14 27L15 27L15 28L19 28L19 27L20 27L20 29L21 29L21 28L22 28L22 25L23 25L23 26L24 26L24 25L25 25L25 26L26 26L26 27L25 27L25 28L23 28L23 29L25 29L25 28L26 28L26 27L27 27L27 29L28 29L28 28L29 28L29 25L28 25L28 23L29 23L29 21L26 21L26 20L21 20L21 19L24 19L24 18L26 18L26 19L28 19L28 20L29 20L29 17L22 17L22 16L26 16L26 15L24 15L24 14L25 14L25 13L26 13L26 14L27 14L27 15L28 15L28 16L29 16L29 13L27 13L27 12L28 12L28 11L29 11L29 10L28 10L28 9L29 9L29 8L25 8L25 9L24 9L24 8L23 8L23 11L22 11L22 12L19 12L19 9L20 9L20 11L21 11L21 8L19 8L19 6L20 6L20 7L21 7L21 5L20 5L20 3L21 3L21 2L20 2L20 0L17 0L17 1L16 1L16 0L15 0L15 1L14 1L14 0ZM15 1L15 2L16 2L16 1ZM18 1L18 2L19 2L19 3L20 3L20 2L19 2L19 1ZM9 2L9 3L10 3L10 2ZM14 3L14 5L13 5L13 8L12 8L12 9L11 9L11 10L9 10L9 13L10 13L10 14L11 14L11 15L10 15L10 16L9 16L9 14L7 14L7 13L6 13L6 14L7 14L7 15L8 15L8 16L7 16L7 17L6 17L6 18L5 18L5 19L6 19L6 20L7 20L7 19L8 19L8 21L9 21L9 22L11 22L11 23L9 23L9 24L10 24L10 25L11 25L11 26L12 26L12 25L13 25L13 26L16 26L16 27L18 27L18 26L20 26L20 27L21 27L21 26L20 26L20 25L19 25L19 22L18 22L18 21L17 21L17 19L18 19L18 20L19 20L19 21L20 21L20 19L21 19L21 18L22 18L22 17L20 17L20 15L21 15L21 16L22 16L22 15L23 15L23 14L24 14L24 13L25 13L25 10L27 10L27 11L26 11L26 12L27 12L27 11L28 11L28 10L27 10L27 9L25 9L25 10L24 10L24 12L22 12L22 13L19 13L19 12L17 12L17 14L16 14L16 15L15 15L15 14L13 14L13 13L12 13L12 12L13 12L13 11L12 11L12 12L11 12L11 13L10 13L10 11L11 11L11 10L12 10L12 9L13 9L13 10L14 10L14 9L13 9L13 8L15 8L15 9L19 9L19 8L15 8L15 7L16 7L16 5L18 5L18 6L17 6L17 7L18 7L18 6L19 6L19 5L18 5L18 4L17 4L17 3L16 3L16 5L15 5L15 3ZM14 5L14 7L15 7L15 5ZM4 9L4 10L7 10L7 11L6 11L6 12L7 12L7 11L8 11L8 10L7 10L7 9ZM17 10L17 11L18 11L18 10ZM14 11L14 13L16 13L16 12L15 12L15 11ZM22 13L22 14L21 14L21 15L22 15L22 14L23 14L23 13ZM1 14L1 15L2 15L2 14ZM17 14L17 16L15 16L15 15L14 15L14 16L13 16L13 15L12 15L12 16L11 16L11 17L9 17L9 16L8 16L8 17L9 17L9 19L11 19L11 20L12 20L12 21L13 21L13 22L15 22L15 23L14 23L14 24L13 24L13 23L12 23L12 24L11 24L11 25L12 25L12 24L13 24L13 25L15 25L15 23L17 23L17 24L18 24L18 22L17 22L17 21L16 21L16 20L15 20L15 21L14 21L14 19L16 19L16 18L18 18L18 19L19 19L19 17L17 17L17 16L19 16L19 14ZM3 15L3 16L4 16L4 15ZM12 16L12 17L11 17L11 18L12 18L12 17L13 17L13 18L16 18L16 17L13 17L13 16ZM6 18L6 19L7 19L7 18ZM12 19L12 20L13 20L13 19ZM15 21L15 22L16 22L16 21ZM21 21L21 24L24 24L24 21ZM22 22L22 23L23 23L23 22ZM25 22L25 23L26 23L26 24L25 24L25 25L26 25L26 24L27 24L27 22ZM16 25L16 26L17 26L17 25ZM27 25L27 26L28 26L28 25ZM12 27L12 28L13 28L13 27ZM0 0L0 7L7 7L7 0ZM1 1L1 6L6 6L6 1ZM2 2L2 5L5 5L5 2ZM22 0L22 7L29 7L29 0ZM23 1L23 6L28 6L28 1ZM24 2L24 5L27 5L27 2ZM0 22L0 29L7 29L7 22ZM1 23L1 28L6 28L6 23ZM2 24L2 27L5 27L5 24Z" fill="#282828"/></g></g></svg>
