<?xml version="1.0" encoding="UTF-8"?>
<svg xmlns="http://www.w3.org/2000/svg" version="1.1" width="90" height="90" viewBox="0 0 90 90"><rect x="0" y="0" width="90" height="90" fill="#ffffff"/><g transform="scale(3.333)"><g transform="translate(1,1)"><path fill-rule="evenodd" d="M10 0L10 2L11 2L11 0ZM12 0L12 1L13 1L13 2L12 2L12 4L13 4L13 2L14 2L14 9L12 9L12 7L13 7L13 5L11 5L11 6L10 6L10 4L11 4L11 3L8 3L8 4L9 4L9 5L8 5L8 7L9 7L9 8L6 8L6 9L7 9L7 10L6 10L6 11L5 11L5 10L2 10L2 9L5 9L5 8L0 8L0 9L1 9L1 10L0 10L0 11L1 11L1 12L0 12L0 17L1 17L1 14L2 14L2 13L1 13L1 12L2 12L2 11L4 11L4 13L5 13L5 14L4 14L4 15L5 15L5 14L6 14L6 15L7 15L7 16L5 16L5 17L8 17L8 19L9 19L9 20L8 20L8 25L9 25L9 24L10 24L10 25L11 25L11 24L10 24L10 23L11 23L11 22L13 22L13 21L14 21L14 22L15 22L15 23L14 23L14 24L13 24L13 23L12 23L12 24L13 24L13 25L14 25L14 24L15 24L15 25L16 25L16 24L18 24L18 25L19 25L19 24L18 24L18 23L16 23L16 21L17 21L17 22L19 22L19 23L20 23L20 21L21 21L21 25L25 25L25 21L23 21L23 20L25 20L25 18L24 18L24 17L25 17L25 14L24 14L24 13L25 13L25 10L24 10L24 8L23 8L23 10L22 10L22 8L21 8L21 10L20 10L20 8L19 8L19 10L18 10L18 8L15 8L15 6L16 6L16 7L17 7L17 3L15 3L15 2L17 2L17 0L15 0L15 1L14 1L14 0ZM8 1L8 2L9 2L9 1ZM9 6L9 7L10 7L10 6ZM11 6L11 7L12 7L12 6ZM10 8L10 9L9 9L9 10L7 10L7 11L6 11L6 12L5 12L5 13L6 13L6 14L8 14L8 16L9 16L9 15L10 15L10 16L11 16L11 15L10 15L10 14L13 14L13 15L12 15L12 16L17 16L17 15L15 15L15 14L14 14L14 13L12 13L12 11L13 11L13 12L14 12L14 11L13 11L13 10L12 10L12 9L11 9L11 8ZM10 9L10 11L11 11L11 9ZM1 10L1 11L2 11L2 10ZM17 10L17 12L16 12L16 11L15 11L15 13L17 13L17 14L19 14L19 13L20 13L20 14L21 14L21 15L19 15L19 16L22 16L22 17L21 17L21 18L22 18L22 19L21 19L21 21L22 21L22 22L23 22L23 23L22 23L22 24L24 24L24 22L23 22L23 21L22 21L22 20L23 20L23 19L24 19L24 18L23 18L23 17L24 17L24 16L23 16L23 15L24 15L24 14L23 14L23 15L22 15L22 13L24 13L24 12L23 12L23 11L24 11L24 10L23 10L23 11L22 11L22 10L21 10L21 13L20 13L20 12L19 12L19 11L18 11L18 10ZM8 11L8 12L9 12L9 13L8 13L8 14L10 14L10 13L11 13L11 12L9 12L9 11ZM6 12L6 13L7 13L7 12ZM17 12L17 13L19 13L19 12ZM2 15L2 16L3 16L3 17L4 17L4 16L3 16L3 15ZM10 17L10 18L11 18L11 19L13 19L13 20L10 20L10 21L9 21L9 22L10 22L10 21L13 21L13 20L14 20L14 21L15 21L15 20L16 20L16 19L15 19L15 18L16 18L16 17L13 17L13 18L12 18L12 17ZM17 17L17 20L20 20L20 17ZM18 18L18 19L19 19L19 18ZM14 19L14 20L15 20L15 19ZM0 0L0 7L7 7L7 0ZM1 1L1 6L6 6L6 1ZM2 2L2 5L5 5L5 2ZM18 0L18 7L25 7L25 0ZM19 1L19 6L24 6L24 1ZM20 2L20 5L23 5L23 2ZM0 18L0 25L7 25L7 18ZM1 19L1 24L6 24L6 19ZM2 20L2 23L5 23L5 20Z" fill="#282828"/></g></g></svg>
