<?xml version="1.0" encoding="UTF-8"?>
<svg xmlns="http://www.w3.org/2000/svg" version="1.1" width="90" height="90" viewBox="0 0 90 90"><rect x="0" y="0" width="90" height="90" fill="#ffffff"/><g transform="scale(3.333)"><g transform="translate(1,1)"><path fill-rule="evenodd" d="M8 0L8 1L9 1L9 2L8 2L8 5L9 5L9 4L11 4L11 2L12 2L12 3L13 3L13 4L14 4L14 5L12 5L12 7L11 7L11 5L10 5L10 10L9 10L9 11L7 11L7 10L8 10L8 9L9 9L9 8L8 8L8 9L7 9L7 8L6 8L6 9L5 9L5 10L4 10L4 12L3 12L3 11L2 11L2 10L3 10L3 9L4 9L4 8L0 8L0 9L1 9L1 11L0 11L0 13L1 13L1 15L0 15L0 16L1 16L1 15L3 15L3 16L2 16L2 17L4 17L4 16L5 16L5 17L7 17L7 16L9 16L9 15L8 15L8 14L10 14L10 13L11 13L11 11L13 11L13 13L14 13L14 14L12 14L12 16L11 16L11 17L10 17L10 19L9 19L9 20L10 20L10 21L8 21L8 25L12 25L12 24L14 24L14 25L15 25L15 23L13 23L13 22L12 22L12 21L13 21L13 20L12 20L12 19L14 19L14 21L15 21L15 22L16 22L16 23L17 23L17 24L18 24L18 25L20 25L20 24L18 24L18 23L19 23L19 21L20 21L20 23L21 23L21 25L25 25L25 24L23 24L23 23L24 23L24 22L25 22L25 20L23 20L23 21L22 21L22 22L21 22L21 20L22 20L22 19L21 19L21 18L22 18L22 17L21 17L21 16L16 16L16 15L15 15L15 14L17 14L17 15L20 15L20 14L21 14L21 15L22 15L22 14L23 14L23 13L19 13L19 12L20 12L20 9L23 9L23 11L21 11L21 12L24 12L24 14L25 14L25 12L24 12L24 9L25 9L25 8L24 8L24 9L23 9L23 8L20 8L20 9L19 9L19 10L18 10L18 8L16 8L16 9L17 9L17 10L16 10L16 12L15 12L15 10L14 10L14 9L15 9L15 2L12 2L12 1L13 1L13 0L12 0L12 1L9 1L9 0ZM16 0L16 2L17 2L17 0ZM16 4L16 7L17 7L17 4ZM8 6L8 7L9 7L9 6ZM13 6L13 7L12 7L12 8L11 8L11 9L12 9L12 8L13 8L13 9L14 9L14 6ZM6 9L6 10L5 10L5 12L7 12L7 11L6 11L6 10L7 10L7 9ZM13 10L13 11L14 11L14 10ZM1 11L1 12L2 12L2 11ZM18 11L18 12L19 12L19 11ZM8 12L8 13L6 13L6 14L8 14L8 13L9 13L9 12ZM16 12L16 13L17 13L17 12ZM2 13L2 14L3 14L3 13ZM4 13L4 15L5 15L5 16L7 16L7 15L5 15L5 13ZM13 15L13 16L12 16L12 17L13 17L13 18L14 18L14 19L16 19L16 17L15 17L15 15ZM23 15L23 18L24 18L24 19L25 19L25 17L24 17L24 16L25 16L25 15ZM13 16L13 17L14 17L14 16ZM8 17L8 18L9 18L9 17ZM17 17L17 20L20 20L20 17ZM11 18L11 19L12 19L12 18ZM18 18L18 19L19 19L19 18ZM11 20L11 21L10 21L10 22L9 22L9 24L10 24L10 22L11 22L11 21L12 21L12 20ZM15 20L15 21L16 21L16 22L17 22L17 23L18 23L18 22L17 22L17 21L16 21L16 20ZM22 22L22 23L23 23L23 22ZM0 0L0 7L7 7L7 0ZM1 1L1 6L6 6L6 1ZM2 2L2 5L5 5L5 2ZM18 0L18 7L25 7L25 0ZM19 1L19 6L24 6L24 1ZM20 2L20 5L23 5L23 2ZM0 18L0 25L7 25L7 18ZM1 19L1 24L6 24L6 19ZM2 20L2 23L5 23L5 20Z" fill="#282828"/></g></g></svg>
