<?xml version="1.0" encoding="UTF-8"?>
<svg xmlns="http://www.w3.org/2000/svg" version="1.1" width="90" height="90" viewBox="0 0 90 90"><rect x="0" y="0" width="90" height="90" fill="#ffffff"/><g transform="scale(3.333)"><g transform="translate(1,1)"><path fill-rule="evenodd" d="M9 0L9 1L8 1L8 3L9 3L9 4L8 4L8 8L6 8L6 9L8 9L8 10L9 10L9 11L7 11L7 10L6 10L6 11L5 11L5 12L6 12L6 13L8 13L8 12L9 12L9 11L11 11L11 10L12 10L12 9L11 9L11 8L10 8L10 7L11 7L11 6L12 6L12 8L13 8L13 12L12 12L12 13L9 13L9 14L12 14L12 16L11 16L11 17L9 17L9 16L8 16L8 15L7 15L7 14L5 14L5 13L3 13L3 12L4 12L4 11L3 11L3 10L4 10L4 8L3 8L3 10L2 10L2 8L0 8L0 9L1 9L1 10L0 10L0 11L1 11L1 10L2 10L2 11L3 11L3 12L1 12L1 14L0 14L0 15L1 15L1 16L0 16L0 17L4 17L4 16L5 16L5 17L8 17L8 19L9 19L9 18L10 18L10 20L11 20L11 24L10 24L10 21L8 21L8 22L9 22L9 23L8 23L8 25L13 25L13 24L14 24L14 25L17 25L17 24L14 24L14 22L15 22L15 21L14 21L14 20L15 20L15 18L16 18L16 22L18 22L18 21L19 21L19 22L20 22L20 23L19 23L19 24L18 24L18 25L19 25L19 24L20 24L20 25L21 25L21 24L22 24L22 23L23 23L23 22L22 22L22 20L23 20L23 18L24 18L24 21L25 21L25 16L24 16L24 17L23 17L23 18L22 18L22 20L21 20L21 16L20 16L20 13L19 13L19 12L18 12L18 11L20 11L20 12L21 12L21 13L23 13L23 12L24 12L24 14L23 14L23 15L25 15L25 12L24 12L24 11L25 11L25 9L24 9L24 8L22 8L22 9L24 9L24 11L23 11L23 12L21 12L21 11L22 11L22 10L19 10L19 9L21 9L21 8L18 8L18 9L17 9L17 8L16 8L16 7L17 7L17 6L16 6L16 5L17 5L17 4L16 4L16 3L17 3L17 2L16 2L16 1L14 1L14 0L12 0L12 1L11 1L11 2L9 2L9 1L10 1L10 0ZM13 2L13 3L12 3L12 4L9 4L9 5L10 5L10 6L9 6L9 7L10 7L10 6L11 6L11 5L12 5L12 6L13 6L13 8L15 8L15 7L16 7L16 6L15 6L15 7L14 7L14 6L13 6L13 4L14 4L14 5L16 5L16 4L14 4L14 2ZM15 2L15 3L16 3L16 2ZM8 8L8 9L9 9L9 10L10 10L10 8ZM14 9L14 10L15 10L15 11L14 11L14 12L15 12L15 11L18 11L18 10L15 10L15 9ZM6 11L6 12L7 12L7 11ZM2 13L2 14L1 14L1 15L2 15L2 14L3 14L3 13ZM13 13L13 15L16 15L16 16L19 16L19 14L17 14L17 13L16 13L16 14L14 14L14 13ZM4 14L4 15L5 15L5 14ZM21 14L21 15L22 15L22 14ZM6 15L6 16L7 16L7 15ZM12 16L12 17L11 17L11 19L12 19L12 20L14 20L14 18L15 18L15 17L14 17L14 16ZM13 17L13 18L14 18L14 17ZM17 17L17 20L20 20L20 17ZM18 18L18 19L19 19L19 18ZM20 21L20 22L21 22L21 23L22 23L22 22L21 22L21 21ZM24 22L24 23L25 23L25 22ZM23 24L23 25L25 25L25 24ZM0 0L0 7L7 7L7 0ZM1 1L1 6L6 6L6 1ZM2 2L2 5L5 5L5 2ZM18 0L18 7L25 7L25 0ZM19 1L19 6L24 6L24 1ZM20 2L20 5L23 5L23 2ZM0 18L0 25L7 25L7 18ZM1 19L1 24L6 24L6 19ZM2 20L2 23L5 23L5 20Z" fill="#282828"/></g></g></svg>
