<?xml version="1.0" encoding="UTF-8"?>
<svg xmlns="http://www.w3.org/2000/svg" version="1.1" width="90" height="90" viewBox="0 0 90 90"><rect x="0" y="0" width="90" height="90" fill="#ffffff"/><g transform="scale(2.571)"><g transform="translate(1,1)"><path fill-rule="evenodd" d="M8 0L8 1L9 1L9 2L10 2L10 3L11 3L11 1L13 1L13 0L11 0L11 1L9 1L9 0ZM14 0L14 1L19 1L19 2L20 2L20 1L19 1L19 0ZM21 0L21 3L22 3L22 0ZM23 0L23 1L24 1L24 0ZM12 2L12 4L11 4L11 5L10 5L10 4L9 4L9 5L10 5L10 8L9 8L9 6L8 6L8 8L9 8L9 9L8 9L8 10L6 10L6 11L5 11L5 8L3 8L3 9L4 9L4 11L3 11L3 10L2 10L2 8L0 8L0 14L1 14L1 15L2 15L2 16L3 16L3 15L2 15L2 14L3 14L3 13L4 13L4 14L5 14L5 15L4 15L4 16L6 16L6 17L5 17L5 19L4 19L4 17L3 17L3 18L1 18L1 19L3 19L3 21L2 21L2 20L1 20L1 21L0 21L0 25L3 25L3 24L1 24L1 22L2 22L2 23L3 23L3 22L4 22L4 23L7 23L7 22L8 22L8 20L10 20L10 21L9 21L9 23L8 23L8 24L4 24L4 25L8 25L8 26L9 26L9 24L11 24L11 23L10 23L10 22L11 22L11 19L12 19L12 21L14 21L14 24L13 24L13 25L12 25L12 26L13 26L13 25L15 25L15 24L16 24L16 23L17 23L17 25L16 25L16 26L14 26L14 27L12 27L12 28L11 28L11 27L10 27L10 28L8 28L8 30L9 30L9 31L8 31L8 33L12 33L12 31L13 31L13 33L14 33L14 31L15 31L15 32L16 32L16 33L17 33L17 31L19 31L19 32L21 32L21 33L22 33L22 32L23 32L23 33L26 33L26 32L27 32L27 30L26 30L26 29L28 29L28 31L29 31L29 32L28 32L28 33L31 33L31 32L33 32L33 29L31 29L31 28L32 28L32 26L31 26L31 25L33 25L33 24L32 24L32 23L33 23L33 22L32 22L32 20L33 20L33 16L31 16L31 15L30 15L30 16L29 16L29 14L28 14L28 13L29 13L29 12L28 12L28 13L27 13L27 12L26 12L26 13L25 13L25 14L27 14L27 15L25 15L25 16L23 16L23 14L21 14L21 15L20 15L20 14L19 14L19 13L18 13L18 12L20 12L20 13L21 13L21 11L22 11L22 10L23 10L23 11L24 11L24 12L22 12L22 13L24 13L24 12L25 12L25 11L27 11L27 10L29 10L29 11L30 11L30 12L33 12L33 8L32 8L32 10L31 10L31 9L27 9L27 8L26 8L26 10L25 10L25 11L24 11L24 10L23 10L23 9L22 9L22 8L25 8L25 6L24 6L24 4L25 4L25 2L24 2L24 4L21 4L21 5L20 5L20 4L19 4L19 3L17 3L17 6L16 6L16 7L17 7L17 6L18 6L18 8L19 8L19 9L16 9L16 8L15 8L15 11L16 11L16 12L15 12L15 13L14 13L14 7L15 7L15 6L14 6L14 7L13 7L13 5L12 5L12 4L13 4L13 2ZM14 4L14 5L15 5L15 4ZM11 5L11 7L12 7L12 9L10 9L10 10L8 10L8 11L10 11L10 10L12 10L12 11L13 11L13 10L12 10L12 9L13 9L13 7L12 7L12 5ZM19 5L19 7L20 7L20 8L22 8L22 6L21 6L21 7L20 7L20 5ZM23 6L23 7L24 7L24 6ZM6 8L6 9L7 9L7 8ZM20 9L20 10L17 10L17 11L21 11L21 10L22 10L22 9ZM1 10L1 12L2 12L2 13L1 13L1 14L2 14L2 13L3 13L3 11L2 11L2 10ZM4 11L4 12L5 12L5 11ZM6 11L6 12L7 12L7 13L6 13L6 14L7 14L7 13L8 13L8 14L9 14L9 15L6 15L6 16L8 16L8 17L6 17L6 18L7 18L7 19L5 19L5 20L4 20L4 21L5 21L5 22L7 22L7 21L5 21L5 20L7 20L7 19L8 19L8 18L9 18L9 17L14 17L14 16L16 16L16 18L17 18L17 19L15 19L15 18L12 18L12 19L13 19L13 20L14 20L14 19L15 19L15 20L16 20L16 22L17 22L17 23L19 23L19 22L17 22L17 21L21 21L21 20L22 20L22 21L24 21L24 19L23 19L23 20L22 20L22 18L20 18L20 19L21 19L21 20L19 20L19 18L18 18L18 17L21 17L21 16L22 16L22 15L21 15L21 16L20 16L20 15L19 15L19 14L18 14L18 13L17 13L17 12L16 12L16 15L15 15L15 14L14 14L14 15L12 15L12 16L11 16L11 15L10 15L10 14L13 14L13 13L11 13L11 12L10 12L10 13L9 13L9 12L7 12L7 11ZM30 13L30 14L31 14L31 13ZM32 13L32 14L33 14L33 13ZM17 14L17 15L16 15L16 16L17 16L17 17L18 17L18 16L17 16L17 15L18 15L18 14ZM27 15L27 16L28 16L28 15ZM30 16L30 17L31 17L31 16ZM24 17L24 18L25 18L25 19L28 19L28 20L29 20L29 22L28 22L28 23L26 23L26 24L30 24L30 23L32 23L32 22L30 22L30 20L29 20L29 19L28 19L28 17ZM10 18L10 19L11 19L11 18ZM31 19L31 20L32 20L32 19ZM25 20L25 22L24 22L24 24L25 24L25 22L26 22L26 21L27 21L27 20ZM12 22L12 23L13 23L13 22ZM20 22L20 24L22 24L22 25L20 25L20 26L18 26L18 25L19 25L19 24L18 24L18 25L17 25L17 26L16 26L16 29L15 29L15 28L13 28L13 29L12 29L12 30L11 30L11 29L9 29L9 30L10 30L10 31L12 31L12 30L17 30L17 28L18 28L18 29L20 29L20 31L21 31L21 32L22 32L22 30L23 30L23 31L24 31L24 30L23 30L23 29L20 29L20 27L21 27L21 28L23 28L23 27L24 27L24 25L23 25L23 23L22 23L22 22ZM29 22L29 23L30 23L30 22ZM10 25L10 26L11 26L11 25ZM22 25L22 27L23 27L23 25ZM25 25L25 28L28 28L28 25ZM17 26L17 27L18 27L18 26ZM26 26L26 27L27 27L27 26ZM29 28L29 29L30 29L30 28ZM25 30L25 32L26 32L26 30ZM30 30L30 31L31 31L31 30ZM0 0L0 7L7 7L7 0ZM1 1L1 6L6 6L6 1ZM2 2L2 5L5 5L5 2ZM26 0L26 7L33 7L33 0ZM27 1L27 6L32 6L32 1ZM28 2L28 5L31 5L31 2ZM0 26L0 33L7 33L7 26ZM1 27L1 32L6 32L6 27ZM2 28L2 31L5 31L5 28Z" fill="#282828"/></g></g></svg>
