<?xml version="1.0" encoding="UTF-8"?>
<svg xmlns="http://www.w3.org/2000/svg" version="1.1" width="90" height="90" viewBox="0 0 90 90"><rect x="0" y="0" width="90" height="90" fill="#ffffff"/><g transform="scale(3.333)"><g transform="translate(1,1)"><path fill-rule="evenodd" d="M8 0L8 4L9 4L9 3L10 3L10 5L12 5L12 7L11 7L11 6L10 6L10 7L9 7L9 5L8 5L8 7L9 7L9 9L7 9L7 8L4 8L4 9L7 9L7 10L6 10L6 11L8 11L8 13L7 13L7 12L5 12L5 11L4 11L4 10L3 10L3 9L2 9L2 8L0 8L0 11L1 11L1 10L3 10L3 11L2 11L2 12L1 12L1 13L0 13L0 14L2 14L2 15L3 15L3 14L2 14L2 13L3 13L3 11L4 11L4 14L5 14L5 15L4 15L4 16L3 16L3 17L4 17L4 16L5 16L5 17L8 17L8 18L9 18L9 19L8 19L8 21L9 21L9 23L8 23L8 25L9 25L9 23L10 23L10 25L14 25L14 24L12 24L12 23L13 23L13 22L14 22L14 23L15 23L15 22L14 22L14 20L15 20L15 19L16 19L16 21L17 21L17 22L16 22L16 24L15 24L15 25L16 25L16 24L17 24L17 25L18 25L18 23L17 23L17 22L19 22L19 23L20 23L20 22L21 22L21 24L19 24L19 25L21 25L21 24L22 24L22 25L25 25L25 24L24 24L24 22L23 22L23 23L22 23L22 22L21 22L21 21L23 21L23 20L24 20L24 21L25 21L25 20L24 20L24 17L25 17L25 16L24 16L24 17L23 17L23 18L22 18L22 17L21 17L21 16L17 16L17 15L21 15L21 14L23 14L23 15L22 15L22 16L23 16L23 15L24 15L24 13L25 13L25 12L24 12L24 13L22 13L22 12L23 12L23 11L24 11L24 9L25 9L25 8L21 8L21 9L20 9L20 8L19 8L19 9L16 9L16 8L15 8L15 9L16 9L16 10L15 10L15 12L17 12L17 13L16 13L16 14L15 14L15 13L14 13L14 12L13 12L13 11L14 11L14 8L13 8L13 10L12 10L12 9L10 9L10 7L11 7L11 8L12 8L12 7L13 7L13 6L14 6L14 7L15 7L15 5L16 5L16 4L17 4L17 2L15 2L15 0L10 0L10 1L14 1L14 5L12 5L12 2L11 2L11 3L10 3L10 2L9 2L9 0ZM16 0L16 1L17 1L17 0ZM16 6L16 7L17 7L17 6ZM19 9L19 10L18 10L18 11L19 11L19 12L20 12L20 11L21 11L21 12L22 12L22 11L21 11L21 10L22 10L22 9L21 9L21 10L20 10L20 9ZM16 10L16 11L17 11L17 10ZM11 11L11 12L9 12L9 14L8 14L8 17L9 17L9 18L10 18L10 21L11 21L11 22L10 22L10 23L11 23L11 22L13 22L13 21L12 21L12 20L14 20L14 19L15 19L15 18L16 18L16 17L15 17L15 16L14 16L14 15L15 15L15 14L14 14L14 13L13 13L13 12L12 12L12 11ZM11 12L11 13L12 13L12 12ZM5 13L5 14L7 14L7 13ZM17 13L17 14L16 14L16 15L17 15L17 14L18 14L18 13ZM19 13L19 14L20 14L20 13ZM9 14L9 16L10 16L10 18L11 18L11 20L12 20L12 19L14 19L14 16L13 16L13 15L12 15L12 14ZM5 15L5 16L7 16L7 15ZM11 15L11 16L12 16L12 15ZM0 16L0 17L2 17L2 16ZM11 17L11 18L13 18L13 17ZM17 17L17 20L20 20L20 17ZM18 18L18 19L19 19L19 18ZM21 19L21 20L22 20L22 19ZM0 0L0 7L7 7L7 0ZM1 1L1 6L6 6L6 1ZM2 2L2 5L5 5L5 2ZM18 0L18 7L25 7L25 0ZM19 1L19 6L24 6L24 1ZM20 2L20 5L23 5L23 2ZM0 18L0 25L7 25L7 18ZM1 19L1 24L6 24L6 19ZM2 20L2 23L5 23L5 20Z" fill="#282828"/></g></g></svg>
