<?xml version="1.0" encoding="UTF-8"?>
<svg xmlns="http://www.w3.org/2000/svg" version="1.1" width="90" height="90" viewBox="0 0 90 90"><rect x="0" y="0" width="90" height="90" fill="#ffffff"/><g transform="scale(2.903)"><g transform="translate(1,1)"><path fill-rule="evenodd" d="M8 0L8 4L9 4L9 5L8 5L8 7L9 7L9 6L10 6L10 9L11 9L11 8L12 8L12 9L13 9L13 11L12 11L12 12L11 12L11 13L10 13L10 14L11 14L11 15L9 15L9 12L10 12L10 11L11 11L11 10L8 10L8 9L7 9L7 8L4 8L4 9L5 9L5 10L6 10L6 11L7 11L7 12L5 12L5 11L4 11L4 10L3 10L3 9L2 9L2 8L0 8L0 10L1 10L1 13L0 13L0 15L2 15L2 14L1 14L1 13L2 13L2 11L4 11L4 12L5 12L5 13L3 13L3 14L4 14L4 15L3 15L3 16L5 16L5 17L4 17L4 18L3 18L3 17L2 17L2 16L1 16L1 17L0 17L0 18L1 18L1 17L2 17L2 19L4 19L4 18L5 18L5 19L8 19L8 18L9 18L9 20L8 20L8 22L9 22L9 20L10 20L10 19L11 19L11 20L12 20L12 19L13 19L13 17L14 17L14 18L15 18L15 20L16 20L16 22L13 22L13 21L14 21L14 20L13 20L13 21L11 21L11 24L10 24L10 23L8 23L8 25L9 25L9 24L10 24L10 26L9 26L9 27L8 27L8 29L9 29L9 27L10 27L10 26L11 26L11 28L12 28L12 29L13 29L13 28L12 28L12 27L13 27L13 26L14 26L14 25L11 25L11 24L12 24L12 23L14 23L14 24L15 24L15 25L16 25L16 26L15 26L15 27L17 27L17 28L20 28L20 29L22 29L22 28L23 28L23 29L24 29L24 27L23 27L23 26L22 26L22 25L24 25L24 26L27 26L27 28L26 28L26 27L25 27L25 29L28 29L28 28L29 28L29 24L27 24L27 25L26 25L26 24L25 24L25 23L26 23L26 22L27 22L27 23L29 23L29 21L26 21L26 18L25 18L25 17L26 17L26 14L25 14L25 13L27 13L27 15L28 15L28 16L29 16L29 10L28 10L28 9L29 9L29 8L25 8L25 9L24 9L24 8L23 8L23 10L22 10L22 9L21 9L21 6L20 6L20 4L19 4L19 3L20 3L20 2L21 2L21 1L20 1L20 0L19 0L19 2L17 2L17 0L16 0L16 2L17 2L17 4L16 4L16 3L15 3L15 0L13 0L13 1L11 1L11 2L12 2L12 5L13 5L13 2L14 2L14 5L15 5L15 4L16 4L16 8L15 8L15 9L16 9L16 10L15 10L15 11L14 11L14 8L12 8L12 7L13 7L13 6L12 6L12 7L11 7L11 3L10 3L10 2L9 2L9 0ZM17 4L17 7L18 7L18 4ZM14 6L14 7L15 7L15 6ZM19 6L19 9L20 9L20 10L18 10L18 9L17 9L17 8L16 8L16 9L17 9L17 10L18 10L18 12L14 12L14 11L13 11L13 12L14 12L14 13L16 13L16 15L19 15L19 16L17 16L17 17L19 17L19 19L20 19L20 20L21 20L21 19L20 19L20 18L22 18L22 17L23 17L23 16L22 16L22 15L21 15L21 17L19 17L19 16L20 16L20 13L19 13L19 12L22 12L22 13L21 13L21 14L23 14L23 13L24 13L24 12L23 12L23 11L25 11L25 10L27 10L27 11L26 11L26 12L27 12L27 13L28 13L28 10L27 10L27 9L25 9L25 10L23 10L23 11L21 11L21 9L20 9L20 6ZM6 9L6 10L7 10L7 9ZM7 12L7 13L6 13L6 14L7 14L7 13L8 13L8 12ZM11 13L11 14L12 14L12 13ZM17 13L17 14L19 14L19 13ZM13 14L13 15L12 15L12 17L13 17L13 16L14 16L14 17L15 17L15 18L16 18L16 20L17 20L17 21L19 21L19 22L20 22L20 21L19 21L19 20L17 20L17 19L18 19L18 18L16 18L16 17L15 17L15 16L14 16L14 15L15 15L15 14ZM6 15L6 16L7 16L7 17L6 17L6 18L7 18L7 17L8 17L8 16L7 16L7 15ZM24 15L24 16L25 16L25 15ZM27 17L27 19L28 19L28 20L29 20L29 17ZM23 18L23 19L24 19L24 20L25 20L25 18ZM0 20L0 21L7 21L7 20ZM21 21L21 24L24 24L24 21ZM25 21L25 22L26 22L26 21ZM16 22L16 23L18 23L18 24L17 24L17 27L18 27L18 25L19 25L19 23L18 23L18 22ZM22 22L22 23L23 23L23 22ZM27 25L27 26L28 26L28 25ZM19 26L19 27L21 27L21 28L22 28L22 27L21 27L21 26ZM15 28L15 29L16 29L16 28ZM0 0L0 7L7 7L7 0ZM1 1L1 6L6 6L6 1ZM2 2L2 5L5 5L5 2ZM22 0L22 7L29 7L29 0ZM23 1L23 6L28 6L28 1ZM24 2L24 5L27 5L27 2ZM0 22L0 29L7 29L7 22ZM1 23L1 28L6 28L6 23ZM2 24L2 27L5 27L5 24Z" fill="#282828"/></g></g></svg>
