<?xml version="1.0" encoding="UTF-8"?>
<svg xmlns="http://www.w3.org/2000/svg" version="1.1" width="90" height="90" viewBox="0 0 90 90"><rect x="0" y="0" width="90" height="90" fill="#ffffff"/><g transform="scale(3.333)"><g transform="translate(1,1)"><path fill-rule="evenodd" d="M10 0L10 2L11 2L11 0ZM12 0L12 1L13 1L13 0ZM16 0L16 1L14 1L14 2L16 2L16 3L17 3L17 2L16 2L16 1L17 1L17 0ZM8 1L8 2L9 2L9 1ZM12 2L12 4L13 4L13 5L11 5L11 6L10 6L10 4L11 4L11 3L8 3L8 4L9 4L9 5L8 5L8 7L9 7L9 8L6 8L6 9L10 9L10 11L11 11L11 9L12 9L12 10L13 10L13 11L12 11L12 12L13 12L13 13L11 13L11 12L9 12L9 13L7 13L7 12L6 12L6 13L5 13L5 12L3 12L3 11L1 11L1 9L3 9L3 10L4 10L4 11L9 11L9 10L5 10L5 8L0 8L0 11L1 11L1 12L3 12L3 14L2 14L2 13L0 13L0 17L1 17L1 14L2 14L2 15L3 15L3 16L2 16L2 17L3 17L3 16L5 16L5 14L6 14L6 15L11 15L11 14L13 14L13 15L12 15L12 16L13 16L13 17L8 17L8 16L6 16L6 17L8 17L8 19L9 19L9 18L13 18L13 19L12 19L12 21L9 21L9 20L8 20L8 25L10 25L10 24L11 24L11 23L9 23L9 22L12 22L12 24L13 24L13 25L18 25L18 24L19 24L19 25L20 25L20 23L19 23L19 22L18 22L18 21L20 21L20 22L21 22L21 23L22 23L22 22L24 22L24 24L21 24L21 25L25 25L25 21L23 21L23 20L24 20L24 19L25 19L25 18L24 18L24 17L25 17L25 14L24 14L24 13L25 13L25 9L24 9L24 8L23 8L23 9L22 9L22 8L21 8L21 9L22 9L22 11L23 11L23 12L24 12L24 13L22 13L22 12L21 12L21 10L20 10L20 8L19 8L19 10L18 10L18 8L17 8L17 10L14 10L14 9L16 9L16 7L17 7L17 6L16 6L16 5L17 5L17 4L15 4L15 3L13 3L13 2ZM14 4L14 5L15 5L15 4ZM9 6L9 7L10 7L10 6ZM11 6L11 7L12 7L12 8L14 8L14 6L13 6L13 7L12 7L12 6ZM15 6L15 7L16 7L16 6ZM10 8L10 9L11 9L11 8ZM17 10L17 11L16 11L16 13L13 13L13 14L16 14L16 15L17 15L17 16L23 16L23 17L24 17L24 16L23 16L23 15L24 15L24 14L22 14L22 13L21 13L21 12L19 12L19 11L18 11L18 10ZM13 11L13 12L15 12L15 11ZM17 12L17 13L16 13L16 14L17 14L17 15L18 15L18 14L17 14L17 13L19 13L19 14L20 14L20 13L19 13L19 12ZM6 13L6 14L7 14L7 13ZM9 13L9 14L11 14L11 13ZM13 15L13 16L14 16L14 15ZM15 16L15 17L14 17L14 18L15 18L15 20L16 20L16 18L15 18L15 17L16 17L16 16ZM17 17L17 20L20 20L20 17ZM21 17L21 18L22 18L22 19L21 19L21 20L23 20L23 19L24 19L24 18L22 18L22 17ZM18 18L18 19L19 19L19 18ZM13 19L13 21L12 21L12 22L13 22L13 21L14 21L14 19ZM15 21L15 22L17 22L17 24L18 24L18 22L17 22L17 21ZM21 21L21 22L22 22L22 21ZM13 23L13 24L14 24L14 23ZM0 0L0 7L7 7L7 0ZM1 1L1 6L6 6L6 1ZM2 2L2 5L5 5L5 2ZM18 0L18 7L25 7L25 0ZM19 1L19 6L24 6L24 1ZM20 2L20 5L23 5L23 2ZM0 18L0 25L7 25L7 18ZM1 19L1 24L6 24L6 19ZM2 20L2 23L5 23L5 20Z" fill="#282828"/></g></g></svg>
