<?xml version="1.0" encoding="UTF-8"?>
<svg xmlns="http://www.w3.org/2000/svg" version="1.1" width="100" height="100" viewBox="0 0 100 100"><rect x="0" y="0" width="100" height="100" fill="#ffffff"/><g transform="scale(3.704)"><g transform="translate(1,1)"><path fill-rule="evenodd" d="M12 0L12 1L13 1L13 2L12 2L12 3L13 3L13 4L11 4L11 3L8 3L8 4L9 4L9 5L8 5L8 7L9 7L9 8L6 8L6 9L5 9L5 8L0 8L0 10L1 10L1 11L0 11L0 17L1 17L1 14L2 14L2 13L1 13L1 11L2 11L2 10L3 10L3 12L4 12L4 11L5 11L5 12L6 12L6 13L5 13L5 14L4 14L4 15L5 15L5 16L6 16L6 17L8 17L8 19L9 19L9 20L8 20L8 25L9 25L9 24L10 24L10 25L11 25L11 24L10 24L10 23L9 23L9 21L10 21L10 22L11 22L11 21L12 21L12 19L11 19L11 18L12 18L12 17L11 17L11 14L12 14L12 16L13 16L13 17L14 17L14 19L15 19L15 20L13 20L13 21L14 21L14 22L13 22L13 23L14 23L14 24L13 24L13 25L15 25L15 24L16 24L16 23L14 23L14 22L15 22L15 21L17 21L17 22L18 22L18 24L20 24L20 21L21 21L21 23L22 23L22 21L23 21L23 22L24 22L24 24L23 24L23 25L25 25L25 21L24 21L24 20L25 20L25 18L24 18L24 17L25 17L25 14L24 14L24 13L25 13L25 9L24 9L24 8L23 8L23 9L22 9L22 8L21 8L21 9L22 9L22 11L23 11L23 12L24 12L24 13L23 13L23 14L24 14L24 15L23 15L23 16L22 16L22 17L21 17L21 15L22 15L22 14L20 14L20 13L19 13L19 11L20 11L20 12L21 12L21 13L22 13L22 12L21 12L21 11L20 11L20 8L19 8L19 9L18 9L18 8L17 8L17 4L16 4L16 3L17 3L17 2L16 2L16 1L17 1L17 0L16 0L16 1L13 1L13 0ZM8 1L8 2L9 2L9 1ZM10 1L10 2L11 2L11 1ZM13 2L13 3L16 3L16 2ZM10 4L10 6L9 6L9 7L10 7L10 6L11 6L11 8L10 8L10 9L8 9L8 10L9 10L9 12L8 12L8 11L6 11L6 10L7 10L7 9L6 9L6 10L5 10L5 11L6 11L6 12L7 12L7 13L6 13L6 14L7 14L7 15L6 15L6 16L7 16L7 15L8 15L8 17L10 17L10 18L9 18L9 19L10 19L10 18L11 18L11 17L10 17L10 15L9 15L9 14L7 14L7 13L9 13L9 12L11 12L11 13L10 13L10 14L11 14L11 13L12 13L12 14L13 14L13 16L14 16L14 15L15 15L15 13L17 13L17 14L16 14L16 16L17 16L17 14L18 14L18 13L17 13L17 11L18 11L18 9L17 9L17 8L16 8L16 6L15 6L15 5L16 5L16 4L14 4L14 5L11 5L11 4ZM12 6L12 8L13 8L13 9L10 9L10 11L11 11L11 10L13 10L13 9L14 9L14 8L15 8L15 6L14 6L14 8L13 8L13 6ZM3 9L3 10L4 10L4 9ZM16 9L16 10L15 10L15 11L17 11L17 9ZM12 11L12 13L13 13L13 11ZM14 12L14 13L15 13L15 12ZM19 14L19 15L18 15L18 16L20 16L20 14ZM2 15L2 17L4 17L4 16L3 16L3 15ZM23 16L23 17L22 17L22 18L23 18L23 19L22 19L22 20L23 20L23 19L24 19L24 18L23 18L23 17L24 17L24 16ZM17 17L17 20L20 20L20 17ZM15 18L15 19L16 19L16 18ZM18 18L18 19L19 19L19 18ZM21 24L21 25L22 25L22 24ZM0 0L0 7L7 7L7 0ZM1 1L1 6L6 6L6 1ZM2 2L2 5L5 5L5 2ZM18 0L18 7L25 7L25 0ZM19 1L19 6L24 6L24 1ZM20 2L20 5L23 5L23 2ZM0 18L0 25L7 25L7 18ZM1 19L1 24L6 24L6 19ZM2 20L2 23L5 23L5 20Z" fill="#282828"/></g></g></svg>
