<?xml version="1.0" encoding="UTF-8"?>
<svg xmlns="http://www.w3.org/2000/svg" version="1.1" width="90" height="90" viewBox="0 0 90 90"><rect x="0" y="0" width="90" height="90" fill="#ffffff"/><g transform="scale(2.903)"><g transform="translate(1,1)"><path fill-rule="evenodd" d="M8 0L8 1L9 1L9 2L8 2L8 5L9 5L9 4L11 4L11 5L10 5L10 10L9 10L9 12L8 12L8 11L7 11L7 10L4 10L4 8L0 8L0 9L1 9L1 11L0 11L0 12L2 12L2 13L0 13L0 16L2 16L2 17L4 17L4 18L3 18L3 19L2 19L2 20L1 20L1 21L3 21L3 20L4 20L4 21L8 21L8 22L9 22L9 21L10 21L10 23L9 23L9 25L8 25L8 29L9 29L9 28L10 28L10 27L9 27L9 26L10 26L10 23L11 23L11 26L12 26L12 28L11 28L11 29L12 29L12 28L14 28L14 27L15 27L15 28L16 28L16 29L17 29L17 28L16 28L16 27L19 27L19 28L18 28L18 29L22 29L22 27L19 27L19 25L18 25L18 26L17 26L17 25L16 25L16 24L17 24L17 22L16 22L16 24L15 24L15 22L14 22L14 23L11 23L11 21L10 21L10 20L9 20L9 16L8 16L8 18L6 18L6 17L7 17L7 16L5 16L5 17L4 17L4 16L3 16L3 15L5 15L5 14L6 14L6 15L7 15L7 14L9 14L9 13L11 13L11 16L10 16L10 17L11 17L11 16L12 16L12 17L13 17L13 16L12 16L12 14L13 14L13 15L14 15L14 18L13 18L13 21L15 21L15 19L17 19L17 21L18 21L18 24L19 24L19 23L20 23L20 26L22 26L22 25L23 25L23 29L26 29L26 27L27 27L27 29L28 29L28 27L29 27L29 25L28 25L28 24L27 24L27 25L26 25L26 24L25 24L25 21L27 21L27 20L28 20L28 22L29 22L29 20L28 20L28 17L27 17L27 18L26 18L26 14L28 14L28 15L27 15L27 16L29 16L29 13L28 13L28 12L29 12L29 11L28 11L28 10L27 10L27 8L24 8L24 9L22 9L22 8L21 8L21 4L19 4L19 6L18 6L18 7L17 7L17 4L18 4L18 3L17 3L17 1L16 1L16 0L12 0L12 1L11 1L11 0L10 0L10 1L9 1L9 0ZM18 0L18 1L19 1L19 0ZM20 0L20 2L19 2L19 3L20 3L20 2L21 2L21 0ZM14 1L14 2L11 2L11 4L12 4L12 3L13 3L13 5L12 5L12 6L11 6L11 8L12 8L12 6L13 6L13 8L14 8L14 9L15 9L15 7L16 7L16 6L15 6L15 5L16 5L16 4L17 4L17 3L16 3L16 1ZM14 3L14 5L13 5L13 6L14 6L14 7L15 7L15 6L14 6L14 5L15 5L15 4L16 4L16 3ZM8 6L8 7L9 7L9 6ZM19 6L19 8L20 8L20 9L21 9L21 8L20 8L20 6ZM6 8L6 9L7 9L7 8ZM8 8L8 9L9 9L9 8ZM28 8L28 9L29 9L29 8ZM2 9L2 11L3 11L3 13L2 13L2 14L3 14L3 13L6 13L6 14L7 14L7 13L8 13L8 12L7 12L7 11L5 11L5 12L4 12L4 10L3 10L3 9ZM11 9L11 10L12 10L12 9ZM16 9L16 10L14 10L14 11L11 11L11 13L12 13L12 12L13 12L13 14L14 14L14 15L15 15L15 17L16 17L16 16L17 16L17 17L18 17L18 20L19 20L19 22L20 22L20 16L21 16L21 15L22 15L22 17L24 17L24 18L21 18L21 20L24 20L24 18L25 18L25 20L26 20L26 18L25 18L25 17L24 17L24 16L23 16L23 15L24 15L24 14L25 14L25 13L27 13L27 10L26 10L26 11L25 11L25 10L22 10L22 11L23 11L23 12L22 12L22 13L21 13L21 12L20 12L20 10L19 10L19 11L17 11L17 12L18 12L18 13L16 13L16 14L14 14L14 12L16 12L16 10L17 10L17 9ZM24 11L24 12L25 12L25 11ZM6 12L6 13L7 13L7 12ZM19 12L19 14L16 14L16 15L21 15L21 14L20 14L20 12ZM22 13L22 15L23 15L23 13ZM18 16L18 17L19 17L19 16ZM0 18L0 19L1 19L1 18ZM5 18L5 19L6 19L6 20L7 20L7 19L6 19L6 18ZM11 19L11 20L12 20L12 19ZM21 21L21 24L24 24L24 21ZM22 22L22 23L23 23L23 22ZM26 22L26 23L27 23L27 22ZM12 24L12 26L13 26L13 27L14 27L14 26L15 26L15 27L16 27L16 26L15 26L15 24ZM13 25L13 26L14 26L14 25ZM25 25L25 26L24 26L24 27L26 27L26 25ZM27 25L27 27L28 27L28 25ZM0 0L0 7L7 7L7 0ZM1 1L1 6L6 6L6 1ZM2 2L2 5L5 5L5 2ZM22 0L22 7L29 7L29 0ZM23 1L23 6L28 6L28 1ZM24 2L24 5L27 5L27 2ZM0 22L0 29L7 29L7 22ZM1 23L1 28L6 28L6 23ZM2 24L2 27L5 27L5 24Z" fill="#282828"/></g></g></svg>
