<?xml version="1.0" encoding="UTF-8"?>
<svg xmlns="http://www.w3.org/2000/svg" version="1.1" width="90" height="90" viewBox="0 0 90 90"><rect x="0" y="0" width="90" height="90" fill="#ffffff"/><g transform="scale(2.903)"><g transform="translate(1,1)"><path fill-rule="evenodd" d="M8 0L8 4L10 4L10 3L11 3L11 4L12 4L12 2L11 2L11 0ZM12 0L12 1L13 1L13 0ZM16 0L16 2L17 2L17 3L16 3L16 5L17 5L17 4L18 4L18 5L19 5L19 6L18 6L18 7L17 7L17 6L16 6L16 7L17 7L17 8L18 8L18 7L19 7L19 9L16 9L16 10L15 10L15 9L12 9L12 8L13 8L13 6L14 6L14 7L15 7L15 5L14 5L14 4L15 4L15 2L14 2L14 3L13 3L13 5L11 5L11 6L10 6L10 7L9 7L9 5L8 5L8 7L9 7L9 8L10 8L10 7L11 7L11 6L12 6L12 8L11 8L11 9L9 9L9 10L11 10L11 11L10 11L10 13L11 13L11 12L12 12L12 13L13 13L13 14L14 14L14 13L15 13L15 12L16 12L16 14L15 14L15 15L14 15L14 17L12 17L12 16L13 16L13 15L12 15L12 16L11 16L11 15L10 15L10 14L8 14L8 13L7 13L7 12L9 12L9 11L7 11L7 10L8 10L8 9L7 9L7 8L4 8L4 9L5 9L5 10L3 10L3 9L2 9L2 8L0 8L0 9L2 9L2 10L0 10L0 11L2 11L2 10L3 10L3 13L2 13L2 12L0 12L0 13L1 13L1 14L2 14L2 15L0 15L0 18L1 18L1 17L2 17L2 18L4 18L4 17L9 17L9 18L10 18L10 17L9 17L9 15L10 15L10 16L11 16L11 17L12 17L12 18L11 18L11 19L10 19L10 20L9 20L9 19L8 19L8 18L5 18L5 20L3 20L3 19L2 19L2 20L0 20L0 21L2 21L2 20L3 20L3 21L8 21L8 22L9 22L9 23L8 23L8 25L12 25L12 26L11 26L11 28L12 28L12 29L14 29L14 27L16 27L16 28L15 28L15 29L16 29L16 28L19 28L19 27L20 27L20 29L24 29L24 28L25 28L25 29L26 29L26 26L27 26L27 29L28 29L28 28L29 28L29 24L28 24L28 23L29 23L29 21L26 21L26 20L25 20L25 18L26 18L26 19L28 19L28 20L29 20L29 17L23 17L23 18L22 18L22 19L24 19L24 20L21 20L21 18L20 18L20 20L19 20L19 21L18 21L18 22L17 22L17 20L18 20L18 19L19 19L19 17L18 17L18 19L17 19L17 17L16 17L16 16L15 16L15 15L16 15L16 14L18 14L18 15L17 15L17 16L18 16L18 15L19 15L19 13L17 13L17 12L19 12L19 9L20 9L20 8L21 8L21 5L19 5L19 3L18 3L18 2L20 2L20 3L21 3L21 2L20 2L20 1L21 1L21 0L20 0L20 1L19 1L19 0L18 0L18 2L17 2L17 0ZM9 2L9 3L10 3L10 2ZM19 6L19 7L20 7L20 6ZM23 8L23 9L22 9L22 10L20 10L20 11L22 11L22 10L24 10L24 11L23 11L23 12L24 12L24 11L25 11L25 13L22 13L22 14L21 14L21 15L20 15L20 17L22 17L22 16L26 16L26 15L23 15L23 14L25 14L25 13L26 13L26 14L27 14L27 16L28 16L28 15L29 15L29 13L27 13L27 12L28 12L28 11L29 11L29 10L28 10L28 9L29 9L29 8L25 8L25 9L24 9L24 8ZM6 9L6 10L5 10L5 11L4 11L4 12L5 12L5 11L6 11L6 12L7 12L7 11L6 11L6 10L7 10L7 9ZM11 9L11 10L12 10L12 9ZM25 9L25 10L27 10L27 11L26 11L26 12L27 12L27 11L28 11L28 10L27 10L27 9ZM13 10L13 11L12 11L12 12L13 12L13 13L14 13L14 11L15 11L15 10ZM16 10L16 12L17 12L17 11L18 11L18 10ZM20 12L20 13L21 13L21 12ZM4 13L4 14L3 14L3 15L2 15L2 17L3 17L3 16L4 16L4 15L6 15L6 16L7 16L7 15L6 15L6 14L7 14L7 13ZM14 17L14 19L12 19L12 20L11 20L11 22L10 22L10 21L9 21L9 22L10 22L10 23L9 23L9 24L12 24L12 25L13 25L13 26L14 26L14 25L13 25L13 24L15 24L15 25L16 25L16 27L19 27L19 26L18 26L18 25L19 25L19 24L15 24L15 22L16 22L16 20L17 20L17 19L15 19L15 18L16 18L16 17ZM6 19L6 20L8 20L8 19ZM12 20L12 21L13 21L13 23L12 23L12 24L13 24L13 23L14 23L14 21L15 21L15 20L14 20L14 21L13 21L13 20ZM21 21L21 24L24 24L24 21ZM18 22L18 23L19 23L19 22ZM22 22L22 23L23 23L23 22ZM25 22L25 23L26 23L26 24L27 24L27 26L28 26L28 24L27 24L27 22ZM22 25L22 27L21 27L21 26L20 26L20 27L21 27L21 28L23 28L23 27L25 27L25 25ZM8 27L8 29L9 29L9 27ZM12 27L12 28L13 28L13 27ZM0 0L0 7L7 7L7 0ZM1 1L1 6L6 6L6 1ZM2 2L2 5L5 5L5 2ZM22 0L22 7L29 7L29 0ZM23 1L23 6L28 6L28 1ZM24 2L24 5L27 5L27 2ZM0 22L0 29L7 29L7 22ZM1 23L1 28L6 28L6 23ZM2 24L2 27L5 27L5 24Z" fill="#282828"/></g></g></svg>
