<?xml version="1.0" encoding="UTF-8"?>
<svg xmlns="http://www.w3.org/2000/svg" version="1.1" width="90" height="90" viewBox="0 0 90 90"><rect x="0" y="0" width="90" height="90" fill="#ffffff"/><g transform="scale(3.333)"><g transform="translate(1,1)"><path fill-rule="evenodd" d="M8 0L8 1L10 1L10 0ZM15 0L15 1L13 1L13 2L11 2L11 4L10 4L10 3L9 3L9 2L8 2L8 5L9 5L9 6L8 6L8 7L9 7L9 8L8 8L8 10L5 10L5 9L4 9L4 8L0 8L0 10L1 10L1 11L2 11L2 12L1 12L1 13L2 13L2 14L1 14L1 15L0 15L0 16L1 16L1 15L3 15L3 16L2 16L2 17L3 17L3 16L4 16L4 17L5 17L5 16L4 16L4 15L5 15L5 14L6 14L6 15L7 15L7 16L6 16L6 17L8 17L8 18L9 18L9 19L10 19L10 20L9 20L9 21L8 21L8 25L10 25L10 24L11 24L11 23L12 23L12 21L10 21L10 20L12 20L12 19L10 19L10 16L9 16L9 17L8 17L8 15L11 15L11 13L10 13L10 12L8 12L8 11L9 11L9 10L10 10L10 9L9 9L9 8L10 8L10 7L11 7L11 8L12 8L12 9L11 9L11 12L12 12L12 10L14 10L14 9L15 9L15 10L17 10L17 11L16 11L16 12L14 12L14 11L13 11L13 14L12 14L12 16L11 16L11 18L12 18L12 17L13 17L13 18L14 18L14 19L15 19L15 20L13 20L13 25L15 25L15 23L14 23L14 22L15 22L15 20L16 20L16 21L17 21L17 22L16 22L16 23L17 23L17 24L18 24L18 25L19 25L19 24L20 24L20 23L21 23L21 22L22 22L22 24L21 24L21 25L25 25L25 24L23 24L23 23L24 23L24 22L25 22L25 20L24 20L24 19L25 19L25 17L24 17L24 16L25 16L25 15L23 15L23 17L21 17L21 16L19 16L19 14L21 14L21 15L22 15L22 14L23 14L23 13L21 13L21 12L23 12L23 11L24 11L24 14L25 14L25 11L24 11L24 9L25 9L25 8L24 8L24 9L23 9L23 8L20 8L20 9L18 9L18 8L16 8L16 9L15 9L15 8L14 8L14 9L13 9L13 6L14 6L14 7L15 7L15 6L14 6L14 5L17 5L17 4L14 4L14 3L15 3L15 2L17 2L17 0ZM13 2L13 3L14 3L14 2ZM12 4L12 5L10 5L10 6L9 6L9 7L10 7L10 6L11 6L11 7L12 7L12 6L13 6L13 4ZM16 6L16 7L17 7L17 6ZM6 8L6 9L7 9L7 8ZM1 9L1 10L2 10L2 11L3 11L3 12L2 12L2 13L3 13L3 14L4 14L4 13L5 13L5 12L7 12L7 11L5 11L5 12L4 12L4 11L3 11L3 10L2 10L2 9ZM17 9L17 10L18 10L18 11L19 11L19 12L16 12L16 14L14 14L14 15L13 15L13 16L14 16L14 18L15 18L15 19L16 19L16 16L14 16L14 15L18 15L18 14L17 14L17 13L20 13L20 11L19 11L19 10L18 10L18 9ZM21 9L21 11L23 11L23 9ZM6 13L6 14L7 14L7 15L8 15L8 14L9 14L9 13ZM17 17L17 20L20 20L20 17ZM18 18L18 19L19 19L19 18ZM22 18L22 22L23 22L23 19L24 19L24 18ZM9 21L9 22L10 22L10 23L11 23L11 22L10 22L10 21ZM19 21L19 22L21 22L21 21ZM0 0L0 7L7 7L7 0ZM1 1L1 6L6 6L6 1ZM2 2L2 5L5 5L5 2ZM18 0L18 7L25 7L25 0ZM19 1L19 6L24 6L24 1ZM20 2L20 5L23 5L23 2ZM0 18L0 25L7 25L7 18ZM1 19L1 24L6 24L6 19ZM2 20L2 23L5 23L5 20Z" fill="#282828"/></g></g></svg>
