<?xml version="1.0" encoding="UTF-8"?>
<svg xmlns="http://www.w3.org/2000/svg" version="1.1" width="90" height="90" viewBox="0 0 90 90"><rect x="0" y="0" width="90" height="90" fill="#ffffff"/><g transform="scale(2.903)"><g transform="translate(1,1)"><path fill-rule="evenodd" d="M8 0L8 4L9 4L9 5L8 5L8 7L9 7L9 6L10 6L10 9L11 9L11 8L12 8L12 9L13 9L13 10L15 10L15 11L14 11L14 12L13 12L13 11L12 11L12 12L11 12L11 13L10 13L10 14L11 14L11 16L12 16L12 17L13 17L13 18L15 18L15 19L14 19L14 20L13 20L13 19L12 19L12 20L11 20L11 19L10 19L10 15L9 15L9 14L8 14L8 12L10 12L10 11L11 11L11 10L9 10L9 9L8 9L8 10L4 10L4 9L7 9L7 8L4 8L4 9L3 9L3 10L2 10L2 11L1 11L1 9L2 9L2 8L0 8L0 14L1 14L1 13L5 13L5 14L6 14L6 15L5 15L5 16L4 16L4 14L2 14L2 15L1 15L1 17L0 17L0 18L2 18L2 19L3 19L3 20L0 20L0 21L4 21L4 20L5 20L5 21L8 21L8 22L9 22L9 23L8 23L8 25L9 25L9 26L10 26L10 27L8 27L8 29L9 29L9 28L10 28L10 29L12 29L12 28L13 28L13 29L16 29L16 28L15 28L15 27L17 27L17 28L19 28L19 29L22 29L22 28L24 28L24 29L26 29L26 28L24 28L24 27L23 27L23 26L22 26L22 25L24 25L24 26L25 26L25 27L26 27L26 26L27 26L27 29L28 29L28 28L29 28L29 25L28 25L28 24L29 24L29 21L27 21L27 23L28 23L28 24L27 24L27 25L26 25L26 23L25 23L25 21L26 21L26 19L25 19L25 17L26 17L26 14L25 14L25 13L27 13L27 16L28 16L28 15L29 15L29 13L28 13L28 12L29 12L29 10L28 10L28 9L29 9L29 8L25 8L25 9L24 9L24 8L23 8L23 10L25 10L25 12L24 12L24 11L23 11L23 12L24 12L24 13L23 13L23 14L25 14L25 16L24 16L24 17L23 17L23 20L22 20L22 19L21 19L21 18L20 18L20 17L22 17L22 16L23 16L23 15L22 15L22 14L20 14L20 13L22 13L22 11L21 11L21 10L20 10L20 9L21 9L21 8L20 8L20 9L18 9L18 10L17 10L17 11L16 11L16 9L17 9L17 8L18 8L18 7L19 7L19 6L20 6L20 7L21 7L21 5L20 5L20 4L19 4L19 3L18 3L18 2L16 2L16 3L15 3L15 2L14 2L14 0L13 0L13 1L11 1L11 2L12 2L12 5L13 5L13 2L14 2L14 3L15 3L15 4L14 4L14 5L16 5L16 7L15 7L15 6L14 6L14 7L13 7L13 6L12 6L12 7L11 7L11 3L10 3L10 2L9 2L9 0ZM15 0L15 1L16 1L16 0ZM17 0L17 1L19 1L19 2L20 2L20 3L21 3L21 2L20 2L20 0ZM16 3L16 5L17 5L17 7L18 7L18 6L19 6L19 5L17 5L17 3ZM12 7L12 8L13 8L13 7ZM14 7L14 9L16 9L16 8L15 8L15 7ZM25 9L25 10L27 10L27 11L26 11L26 12L28 12L28 10L27 10L27 9ZM3 10L3 11L2 11L2 12L3 12L3 11L4 11L4 10ZM8 10L8 11L5 11L5 13L6 13L6 14L7 14L7 15L6 15L6 16L7 16L7 15L8 15L8 14L7 14L7 13L6 13L6 12L8 12L8 11L9 11L9 10ZM19 10L19 11L20 11L20 12L21 12L21 11L20 11L20 10ZM12 12L12 13L11 13L11 14L12 14L12 13L13 13L13 14L15 14L15 13L17 13L17 14L18 14L18 16L17 16L17 17L20 17L20 16L22 16L22 15L20 15L20 14L18 14L18 13L17 13L17 12L15 12L15 13L13 13L13 12ZM12 15L12 16L13 16L13 15ZM14 15L14 17L16 17L16 16L15 16L15 15ZM3 16L3 17L2 17L2 18L3 18L3 19L4 19L4 18L5 18L5 17L4 17L4 16ZM8 16L8 17L6 17L6 18L7 18L7 19L5 19L5 20L7 20L7 19L9 19L9 18L8 18L8 17L9 17L9 16ZM3 17L3 18L4 18L4 17ZM27 17L27 19L28 19L28 20L29 20L29 17ZM16 18L16 19L15 19L15 20L17 20L17 22L16 22L16 21L13 21L13 20L12 20L12 21L11 21L11 22L12 22L12 21L13 21L13 22L16 22L16 23L14 23L14 25L15 25L15 26L13 26L13 25L12 25L12 24L13 24L13 23L12 23L12 24L11 24L11 23L10 23L10 24L11 24L11 25L10 25L10 26L11 26L11 27L10 27L10 28L12 28L12 27L13 27L13 28L14 28L14 27L15 27L15 26L16 26L16 25L19 25L19 24L17 24L17 23L18 23L18 21L20 21L20 18L19 18L19 19L18 19L18 18ZM17 19L17 20L18 20L18 19ZM9 21L9 22L10 22L10 21ZM21 21L21 24L24 24L24 21ZM19 22L19 23L20 23L20 22ZM22 22L22 23L23 23L23 22ZM15 24L15 25L16 25L16 24ZM25 25L25 26L26 26L26 25ZM27 25L27 26L28 26L28 25ZM17 26L17 27L18 27L18 26ZM19 26L19 28L20 28L20 27L21 27L21 28L22 28L22 27L21 27L21 26ZM0 0L0 7L7 7L7 0ZM1 1L1 6L6 6L6 1ZM2 2L2 5L5 5L5 2ZM22 0L22 7L29 7L29 0ZM23 1L23 6L28 6L28 1ZM24 2L24 5L27 5L27 2ZM0 22L0 29L7 29L7 22ZM1 23L1 28L6 28L6 23ZM2 24L2 27L5 27L5 24Z" fill="#282828"/></g></g></svg>
