<?xml version="1.0" encoding="UTF-8"?>
<svg xmlns="http://www.w3.org/2000/svg" version="1.1" width="90" height="90" viewBox="0 0 90 90"><rect x="0" y="0" width="90" height="90" fill="#ffffff"/><g transform="scale(3.333)"><g transform="translate(1,1)"><path fill-rule="evenodd" d="M9 0L9 1L8 1L8 3L9 3L9 4L8 4L8 8L6 8L6 9L5 9L5 13L9 13L9 12L8 12L8 11L7 11L7 10L9 10L9 11L11 11L11 12L13 12L13 13L14 13L14 11L13 11L13 10L14 10L14 9L15 9L15 8L16 8L16 9L17 9L17 6L16 6L16 5L17 5L17 4L16 4L16 5L15 5L15 3L17 3L17 2L16 2L16 0L14 0L14 1L15 1L15 2L14 2L14 5L13 5L13 6L12 6L12 5L11 5L11 6L10 6L10 5L9 5L9 4L12 4L12 3L13 3L13 0L12 0L12 1L11 1L11 2L9 2L9 1L10 1L10 0ZM14 5L14 6L13 6L13 8L14 8L14 6L15 6L15 7L16 7L16 6L15 6L15 5ZM9 6L9 7L10 7L10 8L8 8L8 9L9 9L9 10L10 10L10 8L11 8L11 9L12 9L12 10L11 10L11 11L12 11L12 10L13 10L13 9L12 9L12 6L11 6L11 7L10 7L10 6ZM0 8L0 9L1 9L1 10L2 10L2 11L0 11L0 12L1 12L1 14L0 14L0 15L1 15L1 16L0 16L0 17L2 17L2 16L3 16L3 17L4 17L4 16L5 16L5 17L8 17L8 19L9 19L9 20L10 20L10 21L12 21L12 19L11 19L11 18L12 18L12 17L11 17L11 18L10 18L10 16L11 16L11 15L13 15L13 17L14 17L14 16L15 16L15 19L14 19L14 18L13 18L13 19L14 19L14 20L13 20L13 24L12 24L12 25L14 25L14 24L15 24L15 25L19 25L19 24L20 24L20 25L21 25L21 24L22 24L22 23L23 23L23 22L22 22L22 20L23 20L23 21L24 21L24 20L25 20L25 16L24 16L24 17L23 17L23 18L22 18L22 20L21 20L21 15L22 15L22 14L21 14L21 15L20 15L20 13L19 13L19 12L20 12L20 11L21 11L21 10L20 10L20 11L19 11L19 9L21 9L21 8L18 8L18 12L17 12L17 10L16 10L16 11L15 11L15 12L16 12L16 13L17 13L17 14L16 14L16 15L13 15L13 14L11 14L11 13L10 13L10 14L8 14L8 15L9 15L9 16L5 16L5 14L2 14L2 13L4 13L4 8L3 8L3 10L2 10L2 8ZM22 8L22 9L24 9L24 14L23 14L23 15L25 15L25 9L24 9L24 8ZM6 9L6 10L7 10L7 9ZM22 10L22 11L23 11L23 10ZM2 11L2 12L3 12L3 11ZM6 11L6 12L7 12L7 11ZM21 12L21 13L23 13L23 12ZM1 14L1 15L2 15L2 14ZM6 14L6 15L7 15L7 14ZM10 14L10 15L11 15L11 14ZM17 14L17 16L20 16L20 15L18 15L18 14ZM3 15L3 16L4 16L4 15ZM17 17L17 20L20 20L20 17ZM9 18L9 19L10 19L10 20L11 20L11 19L10 19L10 18ZM18 18L18 19L19 19L19 18ZM23 18L23 20L24 20L24 18ZM15 19L15 21L16 21L16 22L17 22L17 24L18 24L18 23L20 23L20 22L21 22L21 23L22 23L22 22L21 22L21 21L20 21L20 22L19 22L19 21L16 21L16 19ZM8 21L8 22L9 22L9 23L8 23L8 25L10 25L10 24L9 24L9 23L10 23L10 22L9 22L9 21ZM24 22L24 23L25 23L25 22ZM23 24L23 25L25 25L25 24ZM0 0L0 7L7 7L7 0ZM1 1L1 6L6 6L6 1ZM2 2L2 5L5 5L5 2ZM18 0L18 7L25 7L25 0ZM19 1L19 6L24 6L24 1ZM20 2L20 5L23 5L23 2ZM0 18L0 25L7 25L7 18ZM1 19L1 24L6 24L6 19ZM2 20L2 23L5 23L5 20Z" fill="#282828"/></g></g></svg>
