<?xml version="1.0" encoding="UTF-8"?>
<svg xmlns="http://www.w3.org/2000/svg" version="1.1" width="90" height="90" viewBox="0 0 90 90"><rect x="0" y="0" width="90" height="90" fill="#ffffff"/><g transform="scale(2.903)"><g transform="translate(1,1)"><path fill-rule="evenodd" d="M8 0L8 1L10 1L10 0ZM13 0L13 1L14 1L14 0ZM16 0L16 3L15 3L15 2L11 2L11 4L10 4L10 3L9 3L9 2L8 2L8 5L9 5L9 6L8 6L8 7L9 7L9 8L8 8L8 9L7 9L7 8L6 8L6 9L7 9L7 10L4 10L4 8L0 8L0 10L1 10L1 11L0 11L0 14L1 14L1 15L0 15L0 17L1 17L1 15L2 15L2 14L3 14L3 15L4 15L4 16L3 16L3 18L2 18L2 20L1 20L1 21L4 21L4 19L5 19L5 18L6 18L6 19L7 19L7 20L5 20L5 21L7 21L7 20L8 20L8 22L10 22L10 23L9 23L9 25L8 25L8 29L15 29L15 28L16 28L16 27L14 27L14 26L13 26L13 27L11 27L11 28L10 28L10 27L9 27L9 25L11 25L11 24L13 24L13 25L14 25L14 24L15 24L15 22L14 22L14 23L13 23L13 21L12 21L12 20L13 20L13 18L15 18L15 19L14 19L14 21L15 21L15 20L16 20L16 23L18 23L18 22L19 22L19 26L18 26L18 27L20 27L20 25L21 25L21 26L22 26L22 25L23 25L23 27L22 27L22 29L23 29L23 28L26 28L26 27L27 27L27 29L28 29L28 27L29 27L29 23L27 23L27 22L26 22L26 23L27 23L27 24L28 24L28 27L27 27L27 26L25 26L25 21L27 21L27 20L28 20L28 22L29 22L29 20L28 20L28 17L27 17L27 18L26 18L26 14L28 14L28 15L27 15L27 16L29 16L29 13L25 13L25 14L24 14L24 13L21 13L21 14L20 14L20 11L18 11L18 10L21 10L21 11L22 11L22 8L21 8L21 4L19 4L19 5L18 5L18 7L17 7L17 6L16 6L16 8L15 8L15 6L14 6L14 9L15 9L15 10L14 10L14 11L11 11L11 13L10 13L10 12L9 12L9 10L10 10L10 9L9 9L9 8L10 8L10 7L11 7L11 8L12 8L12 7L13 7L13 5L12 5L12 3L13 3L13 4L14 4L14 5L17 5L17 4L18 4L18 3L20 3L20 2L21 2L21 0L20 0L20 2L18 2L18 1L19 1L19 0L18 0L18 1L17 1L17 0ZM17 2L17 3L16 3L16 4L17 4L17 3L18 3L18 2ZM10 5L10 6L9 6L9 7L10 7L10 6L11 6L11 7L12 7L12 5ZM19 6L19 7L18 7L18 8L19 8L19 7L20 7L20 6ZM24 8L24 9L23 9L23 11L24 11L24 10L25 10L25 11L26 11L26 10L27 10L27 12L28 12L28 10L27 10L27 8ZM28 8L28 9L29 9L29 8ZM2 9L2 11L4 11L4 10L3 10L3 9ZM17 9L17 10L15 10L15 12L16 12L16 14L15 14L15 13L14 13L14 12L12 12L12 14L10 14L10 13L8 13L8 10L7 10L7 11L5 11L5 13L4 13L4 12L3 12L3 14L5 14L5 16L7 16L7 17L6 17L6 18L7 18L7 17L9 17L9 14L10 14L10 15L11 15L11 16L12 16L12 17L10 17L10 19L9 19L9 18L8 18L8 20L10 20L10 22L12 22L12 21L11 21L11 20L12 20L12 19L11 19L11 18L12 18L12 17L13 17L13 16L14 16L14 17L16 17L16 20L17 20L17 17L18 17L18 21L17 21L17 22L18 22L18 21L19 21L19 22L20 22L20 21L19 21L19 19L20 19L20 20L21 20L21 19L20 19L20 17L18 17L18 16L19 16L19 12L18 12L18 11L17 11L17 10L18 10L18 9ZM16 11L16 12L17 12L17 13L18 13L18 12L17 12L17 11ZM1 12L1 13L2 13L2 12ZM6 12L6 13L7 13L7 14L6 14L6 15L7 15L7 16L8 16L8 13L7 13L7 12ZM13 13L13 14L12 14L12 16L13 16L13 14L14 14L14 16L16 16L16 15L15 15L15 14L14 14L14 13ZM21 14L21 15L22 15L22 14ZM23 14L23 15L24 15L24 16L25 16L25 15L24 15L24 14ZM22 16L22 17L21 17L21 18L22 18L22 20L23 20L23 16ZM4 17L4 18L3 18L3 19L4 19L4 18L5 18L5 17ZM24 17L24 18L25 18L25 19L24 19L24 20L26 20L26 18L25 18L25 17ZM0 18L0 19L1 19L1 18ZM10 19L10 20L11 20L11 19ZM21 21L21 24L24 24L24 21ZM22 22L22 23L23 23L23 22ZM15 25L15 26L17 26L17 25ZM24 26L24 27L25 27L25 26ZM13 27L13 28L14 28L14 27ZM18 28L18 29L20 29L20 28ZM0 0L0 7L7 7L7 0ZM1 1L1 6L6 6L6 1ZM2 2L2 5L5 5L5 2ZM22 0L22 7L29 7L29 0ZM23 1L23 6L28 6L28 1ZM24 2L24 5L27 5L27 2ZM0 22L0 29L7 29L7 22ZM1 23L1 28L6 28L6 23ZM2 24L2 27L5 27L5 24Z" fill="#282828"/></g></g></svg>
