<?xml version="1.0" encoding="UTF-8"?>
<svg xmlns="http://www.w3.org/2000/svg" version="1.1" width="90" height="90" viewBox="0 0 90 90"><rect x="0" y="0" width="90" height="90" fill="#ffffff"/><g transform="scale(2.903)"><g transform="translate(1,1)"><path fill-rule="evenodd" d="M9 0L9 1L10 1L10 2L8 2L8 3L9 3L9 4L10 4L10 5L9 5L9 6L8 6L8 8L4 8L4 9L3 9L3 8L0 8L0 9L1 9L1 10L0 10L0 12L2 12L2 11L3 11L3 10L6 10L6 11L5 11L5 12L3 12L3 14L0 14L0 16L1 16L1 18L0 18L0 19L1 19L1 20L0 20L0 21L1 21L1 20L2 20L2 21L4 21L4 20L5 20L5 21L7 21L7 20L6 20L6 19L8 19L8 20L9 20L9 21L8 21L8 25L9 25L9 26L8 26L8 29L9 29L9 27L11 27L11 28L12 28L12 29L13 29L13 28L12 28L12 27L11 27L11 26L12 26L12 24L14 24L14 26L13 26L13 27L14 27L14 26L20 26L20 27L17 27L17 28L15 28L15 29L17 29L17 28L20 28L20 29L24 29L24 28L25 28L25 22L26 22L26 23L27 23L27 24L26 24L26 25L27 25L27 26L26 26L26 27L27 27L27 29L29 29L29 28L28 28L28 27L29 27L29 20L28 20L28 23L27 23L27 22L26 22L26 21L25 21L25 20L26 20L26 19L25 19L25 20L24 20L24 19L23 19L23 20L20 20L20 21L19 21L19 22L20 22L20 25L17 25L17 24L19 24L19 23L18 23L18 22L17 22L17 20L18 20L18 19L19 19L19 18L20 18L20 19L21 19L21 18L23 18L23 17L21 17L21 15L19 15L19 16L20 16L20 17L19 17L19 18L17 18L17 17L16 17L16 16L18 16L18 15L16 15L16 16L15 16L15 14L14 14L14 13L13 13L13 12L12 12L12 11L11 11L11 12L12 12L12 13L11 13L11 15L12 15L12 16L11 16L11 18L9 18L9 17L10 17L10 15L9 15L9 14L8 14L8 13L7 13L7 12L6 12L6 11L7 11L7 10L6 10L6 9L9 9L9 8L10 8L10 10L8 10L8 11L10 11L10 10L12 10L12 8L14 8L14 9L15 9L15 8L16 8L16 11L15 11L15 12L16 12L16 11L17 11L17 12L18 12L18 11L19 11L19 10L23 10L23 8L21 8L21 9L19 9L19 6L20 6L20 7L21 7L21 5L19 5L19 4L20 4L20 3L21 3L21 1L19 1L19 0L15 0L15 2L14 2L14 3L15 3L15 6L14 6L14 4L13 4L13 6L12 6L12 8L11 8L11 6L10 6L10 5L11 5L11 4L12 4L12 3L13 3L13 0L12 0L12 1L10 1L10 0ZM11 2L11 3L12 3L12 2ZM15 2L15 3L16 3L16 2ZM17 2L17 3L18 3L18 2ZM19 2L19 3L20 3L20 2ZM17 4L17 5L18 5L18 6L17 6L17 7L16 7L16 6L15 6L15 7L14 7L14 6L13 6L13 7L14 7L14 8L15 8L15 7L16 7L16 8L17 8L17 7L18 7L18 6L19 6L19 5L18 5L18 4ZM9 6L9 7L10 7L10 6ZM26 8L26 10L24 10L24 11L26 11L26 10L27 10L27 12L26 12L26 13L27 13L27 12L28 12L28 11L29 11L29 10L27 10L27 8ZM2 9L2 10L3 10L3 9ZM18 9L18 10L17 10L17 11L18 11L18 10L19 10L19 9ZM13 10L13 11L14 11L14 10ZM21 11L21 13L19 13L19 14L22 14L22 16L23 16L23 15L24 15L24 16L25 16L25 18L26 18L26 16L25 16L25 15L24 15L24 14L22 14L22 11ZM23 12L23 13L24 13L24 12ZM4 13L4 14L5 14L5 13ZM6 13L6 14L7 14L7 15L5 15L5 16L4 16L4 15L3 15L3 17L2 17L2 18L1 18L1 19L3 19L3 20L4 20L4 19L3 19L3 17L4 17L4 18L5 18L5 19L6 19L6 18L7 18L7 17L6 17L6 16L7 16L7 15L8 15L8 14L7 14L7 13ZM16 13L16 14L18 14L18 13ZM28 13L28 15L27 15L27 14L26 14L26 15L27 15L27 16L28 16L28 19L29 19L29 13ZM13 14L13 15L14 15L14 14ZM1 15L1 16L2 16L2 15ZM8 16L8 17L9 17L9 16ZM12 16L12 18L11 18L11 19L12 19L12 20L10 20L10 21L12 21L12 20L13 20L13 21L14 21L14 22L13 22L13 23L14 23L14 22L15 22L15 23L16 23L16 24L15 24L15 25L16 25L16 24L17 24L17 22L15 22L15 19L17 19L17 18L14 18L14 16ZM5 17L5 18L6 18L6 17ZM8 18L8 19L9 19L9 18ZM13 18L13 19L14 19L14 18ZM21 21L21 24L24 24L24 21ZM10 22L10 23L9 23L9 24L10 24L10 25L11 25L11 24L12 24L12 23L11 23L11 22ZM22 22L22 23L23 23L23 22ZM10 23L10 24L11 24L11 23ZM20 25L20 26L21 26L21 28L24 28L24 27L23 27L23 26L24 26L24 25ZM27 26L27 27L28 27L28 26ZM0 0L0 7L7 7L7 0ZM1 1L1 6L6 6L6 1ZM2 2L2 5L5 5L5 2ZM22 0L22 7L29 7L29 0ZM23 1L23 6L28 6L28 1ZM24 2L24 5L27 5L27 2ZM0 22L0 29L7 29L7 22ZM1 23L1 28L6 28L6 23ZM2 24L2 27L5 27L5 24Z" fill="#282828"/></g></g></svg>
