<?xml version="1.0" encoding="UTF-8"?>
<svg xmlns="http://www.w3.org/2000/svg" version="1.1" width="90" height="90" viewBox="0 0 90 90"><rect x="0" y="0" width="90" height="90" fill="#ffffff"/><g transform="scale(2.903)"><g transform="translate(1,1)"><path fill-rule="evenodd" d="M8 0L8 4L10 4L10 3L11 3L11 4L12 4L12 2L11 2L11 0ZM12 0L12 1L13 1L13 0ZM16 0L16 2L14 2L14 3L13 3L13 5L11 5L11 6L10 6L10 7L9 7L9 5L8 5L8 7L9 7L9 8L10 8L10 7L11 7L11 6L12 6L12 8L11 8L11 9L9 9L9 10L11 10L11 11L10 11L10 13L9 13L9 11L8 11L8 9L7 9L7 8L4 8L4 9L2 9L2 8L0 8L0 9L1 9L1 10L0 10L0 12L3 12L3 13L2 13L2 14L3 14L3 15L4 15L4 17L5 17L5 18L4 18L4 19L3 19L3 20L0 20L0 21L3 21L3 20L4 20L4 21L7 21L7 20L8 20L8 22L10 22L10 21L11 21L11 20L12 20L12 21L13 21L13 20L12 20L12 19L14 19L14 17L15 17L15 15L16 15L16 18L15 18L15 19L16 19L16 22L15 22L15 23L14 23L14 24L13 24L13 23L12 23L12 24L11 24L11 23L10 23L10 24L11 24L11 25L9 25L9 23L8 23L8 25L9 25L9 27L8 27L8 29L9 29L9 28L12 28L12 29L14 29L14 27L15 27L15 28L17 28L17 29L21 29L21 27L22 27L22 25L25 25L25 26L23 26L23 27L24 27L24 29L28 29L28 28L29 28L29 24L28 24L28 23L29 23L29 21L26 21L26 20L25 20L25 19L22 19L22 18L25 18L25 17L26 17L26 16L25 16L25 15L26 15L26 14L25 14L25 13L27 13L27 16L28 16L28 15L29 15L29 10L28 10L28 9L29 9L29 8L25 8L25 9L24 9L24 8L23 8L23 9L21 9L21 10L20 10L20 11L23 11L23 10L25 10L25 13L22 13L22 12L20 12L20 14L19 14L19 15L18 15L18 13L16 13L16 12L15 12L15 11L16 11L16 10L17 10L17 12L18 12L18 10L19 10L19 9L20 9L20 7L21 7L21 5L19 5L19 2L20 2L20 1L19 1L19 2L17 2L17 0ZM9 2L9 3L10 3L10 2ZM17 3L17 5L16 5L16 4L14 4L14 5L15 5L15 7L14 7L14 6L13 6L13 8L12 8L12 9L11 9L11 10L12 10L12 9L15 9L15 10L13 10L13 11L12 11L12 12L11 12L11 13L10 13L10 16L9 16L9 17L8 17L8 20L9 20L9 21L10 21L10 20L9 20L9 17L10 17L10 18L12 18L12 17L14 17L14 15L15 15L15 14L16 14L16 15L17 15L17 14L16 14L16 13L14 13L14 11L15 11L15 10L16 10L16 9L17 9L17 10L18 10L18 9L17 9L17 7L18 7L18 8L19 8L19 7L20 7L20 6L19 6L19 5L18 5L18 3ZM16 6L16 7L15 7L15 9L16 9L16 7L17 7L17 6ZM18 6L18 7L19 7L19 6ZM4 9L4 12L5 12L5 10L7 10L7 9ZM25 9L25 10L27 10L27 11L26 11L26 12L27 12L27 13L28 13L28 10L27 10L27 9ZM2 10L2 11L3 11L3 10ZM6 11L6 12L8 12L8 11ZM12 12L12 13L13 13L13 14L14 14L14 13L13 13L13 12ZM6 13L6 14L7 14L7 15L5 15L5 16L7 16L7 15L9 15L9 13L8 13L8 14L7 14L7 13ZM0 14L0 15L1 15L1 16L0 16L0 18L3 18L3 17L1 17L1 16L2 16L2 15L1 15L1 14ZM21 14L21 15L20 15L20 16L21 16L21 15L22 15L22 14ZM24 14L24 15L23 15L23 16L22 16L22 17L20 17L20 18L22 18L22 17L25 17L25 16L24 16L24 15L25 15L25 14ZM12 15L12 16L11 16L11 17L12 17L12 16L13 16L13 15ZM17 16L17 18L16 18L16 19L17 19L17 18L18 18L18 19L19 19L19 18L18 18L18 17L19 17L19 16ZM6 17L6 18L5 18L5 19L4 19L4 20L7 20L7 19L6 19L6 18L7 18L7 17ZM27 17L27 18L26 18L26 19L28 19L28 20L29 20L29 17ZM21 19L21 20L22 20L22 19ZM14 20L14 21L15 21L15 20ZM17 20L17 21L19 21L19 20ZM21 21L21 24L24 24L24 21ZM16 22L16 24L15 24L15 26L16 26L16 25L17 25L17 27L18 27L18 28L20 28L20 27L21 27L21 26L18 26L18 25L19 25L19 24L17 24L17 22ZM19 22L19 23L20 23L20 22ZM22 22L22 23L23 23L23 22ZM25 22L25 23L26 23L26 24L27 24L27 26L28 26L28 24L27 24L27 22ZM12 24L12 25L11 25L11 26L10 26L10 27L11 27L11 26L12 26L12 25L13 25L13 26L14 26L14 25L13 25L13 24ZM12 27L12 28L13 28L13 27ZM22 28L22 29L23 29L23 28ZM0 0L0 7L7 7L7 0ZM1 1L1 6L6 6L6 1ZM2 2L2 5L5 5L5 2ZM22 0L22 7L29 7L29 0ZM23 1L23 6L28 6L28 1ZM24 2L24 5L27 5L27 2ZM0 22L0 29L7 29L7 22ZM1 23L1 28L6 28L6 23ZM2 24L2 27L5 27L5 24Z" fill="#282828"/></g></g></svg>
