<?xml version="1.0" encoding="UTF-8"?>
<svg xmlns="http://www.w3.org/2000/svg" version="1.1" width="90" height="90" viewBox="0 0 90 90"><rect x="0" y="0" width="90" height="90" fill="#ffffff"/><g transform="scale(2.903)"><g transform="translate(1,1)"><path fill-rule="evenodd" d="M8 0L8 4L9 4L9 5L8 5L8 7L9 7L9 6L10 6L10 9L11 9L11 8L12 8L12 9L13 9L13 10L15 10L15 11L14 11L14 13L12 13L12 12L13 12L13 11L12 11L12 12L11 12L11 13L8 13L8 12L10 12L10 11L11 11L11 10L9 10L9 9L7 9L7 8L4 8L4 10L5 10L5 9L7 9L7 10L6 10L6 11L3 11L3 10L2 10L2 8L0 8L0 10L1 10L1 11L2 11L2 12L0 12L0 13L1 13L1 14L0 14L0 15L1 15L1 16L0 16L0 18L2 18L2 19L3 19L3 18L2 18L2 17L1 17L1 16L4 16L4 17L5 17L5 16L6 16L6 17L7 17L7 18L4 18L4 20L0 20L0 21L4 21L4 20L5 20L5 21L7 21L7 20L8 20L8 22L9 22L9 23L8 23L8 25L9 25L9 24L10 24L10 26L11 26L11 24L12 24L12 25L13 25L13 26L15 26L15 27L14 27L14 28L13 28L13 27L12 27L12 28L11 28L11 27L10 27L10 28L11 28L11 29L12 29L12 28L13 28L13 29L16 29L16 26L17 26L17 28L18 28L18 26L19 26L19 27L20 27L20 26L21 26L21 28L20 28L20 29L21 29L21 28L23 28L23 29L28 29L28 28L29 28L29 21L26 21L26 19L25 19L25 17L26 17L26 15L25 15L25 17L24 17L24 16L23 16L23 15L24 15L24 14L25 14L25 13L26 13L26 10L25 10L25 9L29 9L29 8L25 8L25 9L24 9L24 8L23 8L23 9L22 9L22 10L25 10L25 13L22 13L22 12L23 12L23 11L18 11L18 10L19 10L19 9L21 9L21 6L20 6L20 5L21 5L21 4L20 4L20 5L19 5L19 2L21 2L21 1L20 1L20 0L18 0L18 1L19 1L19 2L17 2L17 0L16 0L16 2L14 2L14 3L13 3L13 1L11 1L11 2L12 2L12 5L13 5L13 6L12 6L12 7L11 7L11 3L10 3L10 2L9 2L9 0ZM14 4L14 5L15 5L15 7L14 7L14 6L13 6L13 7L12 7L12 8L13 8L13 9L15 9L15 10L16 10L16 9L17 9L17 10L18 10L18 9L19 9L19 8L20 8L20 6L19 6L19 5L16 5L16 4ZM16 6L16 7L15 7L15 8L16 8L16 7L17 7L17 8L18 8L18 7L19 7L19 6L18 6L18 7L17 7L17 6ZM28 10L28 11L29 11L29 10ZM6 11L6 12L7 12L7 11ZM3 12L3 13L4 13L4 12ZM15 12L15 13L14 13L14 14L13 14L13 15L12 15L12 16L11 16L11 17L10 17L10 19L8 19L8 18L7 18L7 19L6 19L6 20L7 20L7 19L8 19L8 20L12 20L12 21L9 21L9 22L10 22L10 23L11 23L11 22L12 22L12 21L13 21L13 22L14 22L14 21L13 21L13 20L15 20L15 22L16 22L16 24L15 24L15 23L14 23L14 25L15 25L15 26L16 26L16 25L17 25L17 26L18 26L18 25L17 25L17 22L18 22L18 23L19 23L19 22L18 22L18 21L20 21L20 20L22 20L22 17L23 17L23 16L22 16L22 17L19 17L19 16L21 16L21 15L23 15L23 14L22 14L22 13L20 13L20 12L17 12L17 13L19 13L19 15L18 15L18 14L16 14L16 12ZM27 12L27 14L28 14L28 15L27 15L27 16L28 16L28 15L29 15L29 14L28 14L28 13L29 13L29 12ZM5 13L5 14L7 14L7 13ZM11 13L11 14L12 14L12 13ZM2 14L2 15L3 15L3 14ZM9 14L9 15L6 15L6 16L7 16L7 17L9 17L9 16L10 16L10 14ZM15 14L15 15L14 15L14 17L13 17L13 16L12 16L12 17L13 17L13 19L12 19L12 20L13 20L13 19L14 19L14 17L16 17L16 18L15 18L15 19L16 19L16 20L19 20L19 17L18 17L18 19L17 19L17 17L16 17L16 16L15 16L15 15L16 15L16 14ZM20 14L20 15L21 15L21 14ZM4 15L4 16L5 16L5 15ZM17 15L17 16L18 16L18 15ZM27 17L27 19L28 19L28 20L29 20L29 17ZM20 18L20 19L21 19L21 18ZM23 18L23 19L24 19L24 20L25 20L25 19L24 19L24 18ZM16 21L16 22L17 22L17 21ZM21 21L21 24L24 24L24 21ZM25 21L25 22L26 22L26 23L25 23L25 24L26 24L26 25L27 25L27 26L25 26L25 25L24 25L24 26L23 26L23 25L21 25L21 26L22 26L22 27L23 27L23 28L25 28L25 27L26 27L26 28L27 28L27 26L28 26L28 23L27 23L27 22L26 22L26 21ZM22 22L22 23L23 23L23 22ZM12 23L12 24L13 24L13 23ZM8 27L8 29L9 29L9 27ZM0 0L0 7L7 7L7 0ZM1 1L1 6L6 6L6 1ZM2 2L2 5L5 5L5 2ZM22 0L22 7L29 7L29 0ZM23 1L23 6L28 6L28 1ZM24 2L24 5L27 5L27 2ZM0 22L0 29L7 29L7 22ZM1 23L1 28L6 28L6 23ZM2 24L2 27L5 27L5 24Z" fill="#282828"/></g></g></svg>
