<?xml version="1.0" encoding="UTF-8"?>
<svg xmlns="http://www.w3.org/2000/svg" version="1.1" width="90" height="90" viewBox="0 0 90 90"><rect x="0" y="0" width="90" height="90" fill="#ffffff"/><g transform="scale(3.333)"><g transform="translate(1,1)"><path fill-rule="evenodd" d="M10 0L10 1L9 1L9 2L8 2L8 3L9 3L9 5L10 5L10 7L11 7L11 8L12 8L12 7L13 7L13 8L15 8L15 9L17 9L17 12L16 12L16 13L15 13L15 14L14 14L14 13L13 13L13 16L15 16L15 18L13 18L13 20L12 20L12 19L11 19L11 16L12 16L12 15L10 15L10 16L9 16L9 14L8 14L8 13L7 13L7 12L6 12L6 13L7 13L7 14L5 14L5 15L4 15L4 16L3 16L3 12L4 12L4 13L5 13L5 11L7 11L7 10L6 10L6 9L8 9L8 10L10 10L10 11L8 11L8 12L10 12L10 14L11 14L11 10L10 10L10 9L9 9L9 6L8 6L8 8L4 8L4 10L5 10L5 11L3 11L3 12L2 12L2 10L3 10L3 8L0 8L0 10L1 10L1 11L0 11L0 12L1 12L1 14L0 14L0 15L1 15L1 16L0 16L0 17L1 17L1 16L2 16L2 17L7 17L7 16L8 16L8 21L9 21L9 20L10 20L10 19L11 19L11 20L12 20L12 23L10 23L10 22L11 22L11 21L10 21L10 22L8 22L8 25L9 25L9 23L10 23L10 25L11 25L11 24L12 24L12 23L13 23L13 25L14 25L14 24L15 24L15 25L17 25L17 24L18 24L18 23L19 23L19 24L20 24L20 25L21 25L21 24L22 24L22 23L21 23L21 22L22 22L22 20L21 20L21 15L22 15L22 14L23 14L23 12L21 12L21 13L22 13L22 14L21 14L21 15L19 15L19 12L20 12L20 11L21 11L21 10L22 10L22 11L23 11L23 10L22 10L22 9L23 9L23 8L22 8L22 9L21 9L21 10L19 10L19 8L16 8L16 7L17 7L17 4L16 4L16 3L17 3L17 2L16 2L16 1L15 1L15 0L13 0L13 1L14 1L14 3L13 3L13 4L12 4L12 5L10 5L10 3L9 3L9 2L10 2L10 1L11 1L11 0ZM11 2L11 3L12 3L12 2ZM15 2L15 3L16 3L16 2ZM12 5L12 6L11 6L11 7L12 7L12 6L13 6L13 7L14 7L14 6L15 6L15 7L16 7L16 6L15 6L15 5ZM1 9L1 10L2 10L2 9ZM13 9L13 10L14 10L14 9ZM24 9L24 15L25 15L25 9ZM15 10L15 11L13 11L13 12L15 12L15 11L16 11L16 10ZM18 10L18 11L19 11L19 10ZM17 12L17 13L18 13L18 12ZM1 14L1 15L2 15L2 14ZM7 14L7 15L5 15L5 16L7 16L7 15L8 15L8 14ZM17 14L17 15L18 15L18 16L19 16L19 15L18 15L18 14ZM15 15L15 16L16 16L16 15ZM22 16L22 17L23 17L23 16ZM24 16L24 19L23 19L23 18L22 18L22 19L23 19L23 21L24 21L24 19L25 19L25 16ZM17 17L17 20L20 20L20 17ZM9 18L9 19L10 19L10 18ZM18 18L18 19L19 19L19 18ZM15 19L15 20L13 20L13 22L14 22L14 23L15 23L15 22L19 22L19 21L16 21L16 19ZM14 21L14 22L15 22L15 21ZM20 21L20 22L21 22L21 21ZM24 22L24 23L23 23L23 25L25 25L25 24L24 24L24 23L25 23L25 22ZM20 23L20 24L21 24L21 23ZM0 0L0 7L7 7L7 0ZM1 1L1 6L6 6L6 1ZM2 2L2 5L5 5L5 2ZM18 0L18 7L25 7L25 0ZM19 1L19 6L24 6L24 1ZM20 2L20 5L23 5L23 2ZM0 18L0 25L7 25L7 18ZM1 19L1 24L6 24L6 19ZM2 20L2 23L5 23L5 20Z" fill="#282828"/></g></g></svg>
