<?xml version="1.0" encoding="UTF-8"?>
<svg xmlns="http://www.w3.org/2000/svg" version="1.1" width="90" height="90" viewBox="0 0 90 90"><rect x="0" y="0" width="90" height="90" fill="#ffffff"/><g transform="scale(2.903)"><g transform="translate(1,1)"><path fill-rule="evenodd" d="M8 0L8 1L9 1L9 2L8 2L8 5L9 5L9 4L11 4L11 5L10 5L10 10L9 10L9 8L8 8L8 9L7 9L7 8L6 8L6 9L4 9L4 8L0 8L0 9L2 9L2 10L0 10L0 11L2 11L2 10L3 10L3 9L4 9L4 11L3 11L3 12L0 12L0 17L2 17L2 18L4 18L4 19L2 19L2 20L1 20L1 21L2 21L2 20L4 20L4 21L5 21L5 20L6 20L6 21L8 21L8 22L9 22L9 21L10 21L10 20L12 20L12 19L10 19L10 20L9 20L9 19L8 19L8 18L11 18L11 17L8 17L8 15L10 15L10 16L12 16L12 17L13 17L13 19L14 19L14 18L15 18L15 20L16 20L16 19L17 19L17 20L18 20L18 21L19 21L19 22L17 22L17 21L14 21L14 23L11 23L11 22L10 22L10 24L11 24L11 25L10 25L10 26L9 26L9 25L8 25L8 29L9 29L9 28L10 28L10 29L12 29L12 28L14 28L14 27L15 27L15 28L17 28L17 29L22 29L22 28L23 28L23 29L24 29L24 28L26 28L26 27L24 27L24 26L25 26L25 25L26 25L26 24L25 24L25 21L27 21L27 20L28 20L28 22L29 22L29 20L28 20L28 17L27 17L27 18L26 18L26 14L28 14L28 16L29 16L29 13L28 13L28 12L29 12L29 11L28 11L28 10L27 10L27 8L24 8L24 9L22 9L22 8L21 8L21 5L20 5L20 3L21 3L21 1L20 1L20 0L18 0L18 1L17 1L17 0L12 0L12 1L11 1L11 0L10 0L10 1L9 1L9 0ZM14 1L14 2L15 2L15 3L16 3L16 4L13 4L13 5L12 5L12 6L11 6L11 8L12 8L12 6L13 6L13 11L11 11L11 13L8 13L8 14L7 14L7 13L6 13L6 12L9 12L9 11L8 11L8 10L7 10L7 9L6 9L6 10L5 10L5 11L4 11L4 13L3 13L3 14L2 14L2 13L1 13L1 14L2 14L2 15L1 15L1 16L2 16L2 15L3 15L3 17L4 17L4 16L5 16L5 18L7 18L7 17L6 17L6 16L7 16L7 15L8 15L8 14L11 14L11 13L12 13L12 12L13 12L13 11L14 11L14 10L15 10L15 12L14 12L14 13L13 13L13 14L12 14L12 16L14 16L14 15L15 15L15 16L16 16L16 17L15 17L15 18L17 18L17 16L18 16L18 14L16 14L16 13L19 13L19 11L20 11L20 15L19 15L19 17L18 17L18 19L21 19L21 20L24 20L24 19L25 19L25 20L26 20L26 18L25 18L25 17L24 17L24 18L23 18L23 16L22 16L22 15L24 15L24 16L25 16L25 15L24 15L24 14L25 14L25 13L27 13L27 10L26 10L26 11L25 11L25 10L19 10L19 9L18 9L18 8L17 8L17 7L18 7L18 6L17 6L17 7L16 7L16 4L17 4L17 5L19 5L19 2L20 2L20 1L18 1L18 2L17 2L17 3L16 3L16 1ZM11 2L11 4L12 4L12 3L13 3L13 2ZM13 5L13 6L14 6L14 9L15 9L15 10L16 10L16 11L19 11L19 10L17 10L17 8L16 8L16 7L15 7L15 6L14 6L14 5ZM8 6L8 7L9 7L9 6ZM19 6L19 8L20 8L20 9L21 9L21 8L20 8L20 6ZM15 8L15 9L16 9L16 8ZM28 8L28 9L29 9L29 8ZM11 9L11 10L12 10L12 9ZM6 10L6 11L7 11L7 10ZM21 11L21 12L22 12L22 11ZM24 11L24 12L25 12L25 11ZM4 13L4 14L5 14L5 13ZM22 13L22 14L23 14L23 13ZM6 14L6 15L5 15L5 16L6 16L6 15L7 15L7 14ZM13 14L13 15L14 15L14 14ZM16 15L16 16L17 16L17 15ZM20 15L20 16L21 16L21 15ZM20 17L20 18L21 18L21 19L22 19L22 18L21 18L21 17ZM0 18L0 19L1 19L1 18ZM6 19L6 20L8 20L8 19ZM21 21L21 24L24 24L24 21ZM15 22L15 23L16 23L16 22ZM22 22L22 23L23 23L23 22ZM26 22L26 23L27 23L27 22ZM17 23L17 24L18 24L18 23ZM19 23L19 25L18 25L18 26L16 26L16 25L15 25L15 24L12 24L12 26L11 26L11 27L10 27L10 28L12 28L12 26L13 26L13 27L14 27L14 26L13 26L13 25L15 25L15 27L17 27L17 28L18 28L18 27L19 27L19 28L20 28L20 27L21 27L21 28L22 28L22 26L23 26L23 25L22 25L22 26L20 26L20 27L19 27L19 25L20 25L20 23ZM27 24L27 25L28 25L28 27L27 27L27 29L28 29L28 27L29 27L29 24ZM0 0L0 7L7 7L7 0ZM1 1L1 6L6 6L6 1ZM2 2L2 5L5 5L5 2ZM22 0L22 7L29 7L29 0ZM23 1L23 6L28 6L28 1ZM24 2L24 5L27 5L27 2ZM0 22L0 29L7 29L7 22ZM1 23L1 28L6 28L6 23ZM2 24L2 27L5 27L5 24Z" fill="#282828"/></g></g></svg>
