<?xml version="1.0" encoding="UTF-8"?>
<svg xmlns="http://www.w3.org/2000/svg" version="1.1" width="90" height="90" viewBox="0 0 90 90"><rect x="0" y="0" width="90" height="90" fill="#ffffff"/><g transform="scale(3.333)"><g transform="translate(1,1)"><path fill-rule="evenodd" d="M12 0L12 2L11 2L11 1L10 1L10 2L11 2L11 3L8 3L8 4L9 4L9 5L8 5L8 7L9 7L9 8L6 8L6 9L8 9L8 10L5 10L5 8L0 8L0 9L1 9L1 10L0 10L0 17L1 17L1 13L2 13L2 10L4 10L4 11L3 11L3 13L4 13L4 14L2 14L2 16L3 16L3 17L4 17L4 16L5 16L5 17L7 17L7 16L5 16L5 15L4 15L4 14L5 14L5 13L7 13L7 12L8 12L8 10L9 10L9 9L10 9L10 11L11 11L11 10L13 10L13 11L12 11L12 12L13 12L13 13L11 13L11 12L9 12L9 14L8 14L8 15L9 15L9 16L11 16L11 15L10 15L10 13L11 13L11 14L13 14L13 13L14 13L14 16L13 16L13 15L12 15L12 17L8 17L8 19L11 19L11 18L12 18L12 20L13 20L13 21L17 21L17 22L19 22L19 23L20 23L20 22L19 22L19 21L21 21L21 25L25 25L25 21L24 21L24 20L25 20L25 18L24 18L24 17L25 17L25 14L24 14L24 13L25 13L25 12L24 12L24 11L25 11L25 10L24 10L24 8L23 8L23 10L22 10L22 8L21 8L21 11L23 11L23 12L24 12L24 13L22 13L22 15L23 15L23 16L24 16L24 17L23 17L23 18L24 18L24 19L23 19L23 20L22 20L22 21L21 21L21 19L22 19L22 18L21 18L21 17L22 17L22 16L21 16L21 15L20 15L20 13L21 13L21 12L20 12L20 13L19 13L19 11L20 11L20 8L19 8L19 11L18 11L18 12L17 12L17 13L19 13L19 14L18 14L18 15L16 15L16 14L15 14L15 13L16 13L16 10L17 10L17 9L18 9L18 8L17 8L17 4L16 4L16 2L17 2L17 0L16 0L16 1L15 1L15 2L14 2L14 3L13 3L13 1L14 1L14 0ZM8 1L8 2L9 2L9 1ZM11 3L11 4L10 4L10 6L9 6L9 7L10 7L10 6L11 6L11 7L12 7L12 6L13 6L13 8L10 8L10 9L13 9L13 8L14 8L14 5L16 5L16 4L14 4L14 5L11 5L11 4L13 4L13 3ZM15 6L15 7L16 7L16 6ZM15 8L15 9L14 9L14 10L15 10L15 9L17 9L17 8ZM23 10L23 11L24 11L24 10ZM4 11L4 12L7 12L7 11ZM13 11L13 12L14 12L14 11ZM6 14L6 15L7 15L7 14ZM23 14L23 15L24 15L24 14ZM12 17L12 18L13 18L13 17ZM14 17L14 18L15 18L15 19L13 19L13 20L16 20L16 17ZM17 17L17 20L20 20L20 17ZM18 18L18 19L19 19L19 18ZM8 20L8 25L9 25L9 24L11 24L11 25L12 25L12 23L10 23L10 20ZM11 21L11 22L12 22L12 21ZM22 21L22 22L23 22L23 23L22 23L22 24L24 24L24 22L23 22L23 21ZM15 22L15 23L14 23L14 25L15 25L15 24L17 24L17 25L19 25L19 24L18 24L18 23L16 23L16 22ZM0 0L0 7L7 7L7 0ZM1 1L1 6L6 6L6 1ZM2 2L2 5L5 5L5 2ZM18 0L18 7L25 7L25 0ZM19 1L19 6L24 6L24 1ZM20 2L20 5L23 5L23 2ZM0 18L0 25L7 25L7 18ZM1 19L1 24L6 24L6 19ZM2 20L2 23L5 23L5 20Z" fill="#282828"/></g></g></svg>
