<?xml version="1.0" encoding="UTF-8"?>
<svg xmlns="http://www.w3.org/2000/svg" version="1.1" width="90" height="90" viewBox="0 0 90 90"><rect x="0" y="0" width="90" height="90" fill="#ffffff"/><g transform="scale(2.903)"><g transform="translate(1,1)"><path fill-rule="evenodd" d="M8 0L8 4L10 4L10 3L11 3L11 4L12 4L12 2L11 2L11 0ZM12 0L12 1L13 1L13 0ZM14 0L14 1L15 1L15 0ZM16 0L16 2L15 2L15 3L14 3L14 4L13 4L13 5L11 5L11 6L10 6L10 7L9 7L9 5L8 5L8 7L9 7L9 8L10 8L10 7L11 7L11 6L12 6L12 8L11 8L11 9L9 9L9 10L8 10L8 9L7 9L7 8L4 8L4 9L2 9L2 8L0 8L0 9L2 9L2 10L1 10L1 11L0 11L0 15L2 15L2 16L1 16L1 17L0 17L0 18L2 18L2 19L3 19L3 21L5 21L5 18L6 18L6 19L7 19L7 18L8 18L8 22L9 22L9 20L10 20L10 21L11 21L11 22L10 22L10 23L8 23L8 25L9 25L9 27L8 27L8 29L9 29L9 28L10 28L10 29L11 29L11 28L12 28L12 25L14 25L14 24L15 24L15 25L16 25L16 26L13 26L13 27L14 27L14 28L16 28L16 26L17 26L17 28L19 28L19 27L18 27L18 25L16 25L16 24L15 24L15 23L17 23L17 24L19 24L19 25L20 25L20 27L21 27L21 28L20 28L20 29L21 29L21 28L22 28L22 29L28 29L28 28L29 28L29 25L27 25L27 24L29 24L29 21L26 21L26 20L22 20L22 19L24 19L24 18L26 18L26 19L28 19L28 20L29 20L29 17L25 17L25 16L26 16L26 15L25 15L25 13L26 13L26 14L27 14L27 15L29 15L29 13L27 13L27 12L26 12L26 11L27 11L27 10L28 10L28 11L29 11L29 10L28 10L28 9L29 9L29 8L25 8L25 9L24 9L24 8L23 8L23 10L21 10L21 11L23 11L23 12L24 12L24 13L22 13L22 14L21 14L21 12L19 12L19 13L18 13L18 14L17 14L17 15L16 15L16 13L14 13L14 12L13 12L13 13L11 13L11 11L14 11L14 10L15 10L15 12L18 12L18 11L19 11L19 10L20 10L20 9L21 9L21 6L20 6L20 4L19 4L19 3L18 3L18 2L20 2L20 3L21 3L21 2L20 2L20 0L19 0L19 1L17 1L17 0ZM9 2L9 3L10 3L10 2ZM15 4L15 5L13 5L13 8L14 8L14 9L15 9L15 10L16 10L16 9L19 9L19 8L16 8L16 6L17 6L17 7L18 7L18 4L17 4L17 5L16 5L16 4ZM14 6L14 8L15 8L15 6ZM19 6L19 7L20 7L20 6ZM4 9L4 10L2 10L2 11L1 11L1 13L2 13L2 14L3 14L3 12L4 12L4 14L7 14L7 15L5 15L5 16L8 16L8 18L9 18L9 19L10 19L10 17L13 17L13 18L14 18L14 17L15 17L15 18L16 18L16 19L12 19L12 20L11 20L11 21L13 21L13 20L14 20L14 21L15 21L15 22L16 22L16 21L17 21L17 22L18 22L18 21L19 21L19 23L20 23L20 21L19 21L19 20L20 20L20 19L22 19L22 18L23 18L23 16L22 16L22 17L21 17L21 14L20 14L20 13L19 13L19 15L18 15L18 16L19 16L19 17L20 17L20 18L18 18L18 17L17 17L17 16L14 16L14 15L15 15L15 14L13 14L13 15L11 15L11 13L10 13L10 11L11 11L11 10L12 10L12 9L11 9L11 10L9 10L9 11L6 11L6 10L7 10L7 9ZM25 9L25 10L23 10L23 11L25 11L25 10L27 10L27 9ZM5 11L5 12L6 12L6 13L7 13L7 14L8 14L8 16L9 16L9 17L10 17L10 16L11 16L11 15L9 15L9 13L7 13L7 12L6 12L6 11ZM3 15L3 17L4 17L4 15ZM19 15L19 16L20 16L20 15ZM24 15L24 16L25 16L25 15ZM13 16L13 17L14 17L14 16ZM6 17L6 18L7 18L7 17ZM16 17L16 18L17 18L17 20L18 20L18 18L17 18L17 17ZM0 20L0 21L2 21L2 20ZM6 20L6 21L7 21L7 20ZM21 21L21 24L24 24L24 21ZM22 22L22 23L23 23L23 22ZM25 22L25 23L26 23L26 24L27 24L27 22ZM10 23L10 24L9 24L9 25L10 25L10 26L11 26L11 25L12 25L12 24L14 24L14 23L12 23L12 24L11 24L11 23ZM10 24L10 25L11 25L11 24ZM22 25L22 26L21 26L21 27L22 27L22 26L23 26L23 28L25 28L25 26L24 26L24 25ZM10 27L10 28L11 28L11 27ZM26 27L26 28L27 28L27 27ZM0 0L0 7L7 7L7 0ZM1 1L1 6L6 6L6 1ZM2 2L2 5L5 5L5 2ZM22 0L22 7L29 7L29 0ZM23 1L23 6L28 6L28 1ZM24 2L24 5L27 5L27 2ZM0 22L0 29L7 29L7 22ZM1 23L1 28L6 28L6 23ZM2 24L2 27L5 27L5 24Z" fill="#282828"/></g></g></svg>
