<?xml version="1.0" encoding="UTF-8"?>
<svg xmlns="http://www.w3.org/2000/svg" version="1.1" width="90" height="90" viewBox="0 0 90 90"><rect x="0" y="0" width="90" height="90" fill="#ffffff"/><g transform="scale(2.903)"><g transform="translate(1,1)"><path fill-rule="evenodd" d="M8 0L8 2L10 2L10 4L8 4L8 9L7 9L7 8L5 8L5 9L3 9L3 8L0 8L0 9L3 9L3 14L4 14L4 13L5 13L5 11L7 11L7 10L8 10L8 11L9 11L9 13L7 13L7 12L6 12L6 13L7 13L7 14L6 14L6 15L7 15L7 16L6 16L6 17L4 17L4 16L5 16L5 15L4 15L4 16L3 16L3 17L2 17L2 14L1 14L1 12L2 12L2 11L1 11L1 10L0 10L0 14L1 14L1 15L0 15L0 16L1 16L1 17L2 17L2 18L0 18L0 19L4 19L4 21L5 21L5 19L4 19L4 18L6 18L6 19L8 19L8 20L10 20L10 26L8 26L8 29L10 29L10 28L11 28L11 29L14 29L14 27L13 27L13 28L11 28L11 27L12 27L12 26L11 26L11 24L13 24L13 26L15 26L15 27L17 27L17 26L19 26L19 27L18 27L18 28L19 28L19 27L22 27L22 26L20 26L20 25L26 25L26 24L25 24L25 22L26 22L26 23L28 23L28 24L27 24L27 25L28 25L28 26L24 26L24 27L25 27L25 28L24 28L24 29L27 29L27 28L26 28L26 27L29 27L29 20L28 20L28 19L29 19L29 12L28 12L28 13L27 13L27 12L26 12L26 11L25 11L25 10L28 10L28 11L29 11L29 10L28 10L28 9L29 9L29 8L27 8L27 9L25 9L25 8L21 8L21 5L20 5L20 2L19 2L19 3L18 3L18 1L20 1L20 0L18 0L18 1L17 1L17 0L15 0L15 1L13 1L13 0L11 0L11 1L9 1L9 0ZM11 1L11 2L12 2L12 1ZM15 1L15 2L16 2L16 1ZM13 2L13 3L11 3L11 4L12 4L12 6L11 6L11 5L9 5L9 8L10 8L10 6L11 6L11 7L12 7L12 6L13 6L13 8L11 8L11 10L9 10L9 9L8 9L8 10L9 10L9 11L10 11L10 13L9 13L9 16L10 16L10 20L13 20L13 19L14 19L14 21L13 21L13 22L15 22L15 20L16 20L16 23L15 23L15 24L18 24L18 25L19 25L19 24L18 24L18 23L17 23L17 20L18 20L18 22L20 22L20 21L19 21L19 19L18 19L18 17L19 17L19 18L20 18L20 17L19 17L19 16L20 16L20 15L19 15L19 16L18 16L18 15L17 15L17 12L18 12L18 14L20 14L20 12L19 12L19 10L20 10L20 11L21 11L21 10L22 10L22 12L21 12L21 18L23 18L23 17L22 17L22 16L25 16L25 15L26 15L26 17L27 17L27 15L26 15L26 14L25 14L25 13L24 13L24 14L23 14L23 13L22 13L22 12L23 12L23 11L24 11L24 10L25 10L25 9L24 9L24 10L23 10L23 9L21 9L21 8L20 8L20 5L17 5L17 4L18 4L18 3L15 3L15 4L16 4L16 6L15 6L15 5L13 5L13 4L14 4L14 2ZM14 6L14 8L13 8L13 10L15 10L15 11L16 11L16 12L15 12L15 14L13 14L13 13L14 13L14 11L13 11L13 12L11 12L11 13L12 13L12 15L10 15L10 16L13 16L13 18L15 18L15 19L16 19L16 12L17 12L17 11L18 11L18 10L15 10L15 8L16 8L16 9L18 9L18 8L19 8L19 9L20 9L20 10L21 10L21 9L20 9L20 8L19 8L19 6L18 6L18 8L17 8L17 6L16 6L16 7L15 7L15 6ZM5 9L5 10L7 10L7 9ZM11 10L11 11L12 11L12 10ZM7 14L7 15L8 15L8 14ZM24 14L24 15L25 15L25 14ZM13 15L13 16L14 16L14 15ZM7 16L7 17L6 17L6 18L8 18L8 16ZM17 16L17 17L18 17L18 16ZM3 17L3 18L4 18L4 17ZM24 17L24 19L22 19L22 20L24 20L24 19L26 19L26 22L27 22L27 19L26 19L26 18L25 18L25 17ZM11 18L11 19L12 19L12 18ZM20 19L20 20L21 20L21 19ZM0 20L0 21L3 21L3 20ZM6 20L6 21L7 21L7 20ZM8 21L8 22L9 22L9 21ZM11 21L11 23L12 23L12 21ZM21 21L21 24L24 24L24 21ZM22 22L22 23L23 23L23 22ZM8 23L8 24L9 24L9 23ZM13 23L13 24L14 24L14 23ZM9 27L9 28L10 28L10 27ZM15 28L15 29L16 29L16 28ZM20 28L20 29L23 29L23 28ZM28 28L28 29L29 29L29 28ZM0 0L0 7L7 7L7 0ZM1 1L1 6L6 6L6 1ZM2 2L2 5L5 5L5 2ZM22 0L22 7L29 7L29 0ZM23 1L23 6L28 6L28 1ZM24 2L24 5L27 5L27 2ZM0 22L0 29L7 29L7 22ZM1 23L1 28L6 28L6 23ZM2 24L2 27L5 27L5 24Z" fill="#282828"/></g></g></svg>
