<?xml version="1.0" encoding="UTF-8"?>
<svg xmlns="http://www.w3.org/2000/svg" version="1.1" width="90" height="90" viewBox="0 0 90 90"><rect x="0" y="0" width="90" height="90" fill="#ffffff"/><g transform="scale(2.903)"><g transform="translate(1,1)"><path fill-rule="evenodd" d="M9 0L9 1L10 1L10 2L8 2L8 3L9 3L9 4L10 4L10 5L9 5L9 6L8 6L8 8L4 8L4 9L3 9L3 8L0 8L0 10L1 10L1 9L3 9L3 10L2 10L2 11L0 11L0 14L1 14L1 15L2 15L2 16L1 16L1 18L0 18L0 19L1 19L1 20L0 20L0 21L1 21L1 20L2 20L2 19L1 19L1 18L3 18L3 21L5 21L5 20L6 20L6 21L7 21L7 20L8 20L8 25L10 25L10 26L12 26L12 24L14 24L14 26L13 26L13 27L14 27L14 26L16 26L16 27L15 27L15 28L16 28L16 29L21 29L21 28L22 28L22 29L23 29L23 28L22 28L22 27L21 27L21 26L22 26L22 25L23 25L23 26L24 26L24 25L25 25L25 26L26 26L26 29L29 29L29 28L28 28L28 27L29 27L29 25L27 25L27 24L28 24L28 23L29 23L29 20L28 20L28 23L27 23L27 22L26 22L26 21L25 21L25 20L26 20L26 19L25 19L25 18L26 18L26 16L25 16L25 12L24 12L24 10L25 10L25 11L26 11L26 10L27 10L27 11L29 11L29 10L27 10L27 8L26 8L26 10L25 10L25 9L23 9L23 8L21 8L21 9L19 9L19 10L22 10L22 9L23 9L23 12L22 12L22 11L21 11L21 12L20 12L20 11L17 11L17 12L16 12L16 11L15 11L15 10L18 10L18 9L16 9L16 8L19 8L19 6L20 6L20 7L21 7L21 6L20 6L20 5L19 5L19 4L20 4L20 3L19 3L19 2L21 2L21 0L18 0L18 1L17 1L17 2L16 2L16 0L14 0L14 1L13 1L13 0L12 0L12 1L10 1L10 0ZM14 1L14 2L13 2L13 3L12 3L12 2L11 2L11 3L12 3L12 4L11 4L11 5L10 5L10 6L9 6L9 7L10 7L10 6L11 6L11 8L12 8L12 10L10 10L10 8L9 8L9 10L10 10L10 11L9 11L9 12L8 12L8 15L5 15L5 14L7 14L7 13L6 13L6 12L7 12L7 11L6 11L6 12L5 12L5 11L2 11L2 12L3 12L3 14L2 14L2 15L4 15L4 17L3 17L3 16L2 16L2 17L3 17L3 18L4 18L4 19L5 19L5 18L4 18L4 17L5 17L5 16L8 16L8 17L6 17L6 18L9 18L9 17L10 17L10 19L8 19L8 20L9 20L9 23L10 23L10 24L12 24L12 23L10 23L10 21L12 21L12 20L13 20L13 21L14 21L14 22L13 22L13 23L14 23L14 22L15 22L15 23L19 23L19 24L17 24L17 25L18 25L18 26L17 26L17 27L16 27L16 28L17 28L17 27L20 27L20 28L21 28L21 27L20 27L20 22L15 22L15 21L16 21L16 20L17 20L17 21L19 21L19 20L17 20L17 18L15 18L15 17L14 17L14 16L12 16L12 15L11 15L11 13L12 13L12 12L13 12L13 8L12 8L12 6L13 6L13 7L14 7L14 6L15 6L15 8L16 8L16 6L15 6L15 3L16 3L16 2L15 2L15 1ZM18 1L18 2L17 2L17 3L18 3L18 2L19 2L19 1ZM16 4L16 5L17 5L17 4ZM13 5L13 6L14 6L14 5ZM17 6L17 7L18 7L18 6ZM4 9L4 10L5 10L5 9ZM6 9L6 10L7 10L7 9ZM11 11L11 12L12 12L12 11ZM15 12L15 13L16 13L16 12ZM17 12L17 14L18 14L18 16L17 16L17 17L18 17L18 19L20 19L20 18L19 18L19 17L20 17L20 16L21 16L21 14L19 14L19 12ZM23 12L23 13L22 13L22 15L23 15L23 17L22 17L22 18L25 18L25 17L24 17L24 12ZM26 12L26 13L28 13L28 19L29 19L29 12ZM4 13L4 14L5 14L5 13ZM9 14L9 15L8 15L8 16L11 16L11 18L12 18L12 16L11 16L11 15L10 15L10 14ZM13 14L13 15L15 15L15 16L16 16L16 14ZM26 14L26 15L27 15L27 14ZM19 15L19 16L20 16L20 15ZM13 18L13 19L14 19L14 18ZM6 19L6 20L7 20L7 19ZM10 19L10 20L12 20L12 19ZM15 19L15 20L16 20L16 19ZM21 19L21 20L23 20L23 19ZM21 21L21 24L24 24L24 21ZM22 22L22 23L23 23L23 22ZM25 22L25 25L26 25L26 24L27 24L27 23L26 23L26 22ZM8 26L8 29L10 29L10 28L9 28L9 26ZM27 26L27 27L28 27L28 26ZM11 27L11 28L12 28L12 29L13 29L13 28L12 28L12 27ZM24 27L24 29L25 29L25 27ZM0 0L0 7L7 7L7 0ZM1 1L1 6L6 6L6 1ZM2 2L2 5L5 5L5 2ZM22 0L22 7L29 7L29 0ZM23 1L23 6L28 6L28 1ZM24 2L24 5L27 5L27 2ZM0 22L0 29L7 29L7 22ZM1 23L1 28L6 28L6 23ZM2 24L2 27L5 27L5 24Z" fill="#282828"/></g></g></svg>
