<?xml version="1.0" encoding="UTF-8"?>
<svg xmlns="http://www.w3.org/2000/svg" version="1.1" width="90" height="90" viewBox="0 0 90 90"><rect x="0" y="0" width="90" height="90" fill="#ffffff"/><g transform="scale(2.903)"><g transform="translate(1,1)"><path fill-rule="evenodd" d="M10 0L10 2L11 2L11 0ZM12 0L12 1L13 1L13 2L12 2L12 4L13 4L13 2L15 2L15 3L14 3L14 4L15 4L15 5L11 5L11 6L10 6L10 4L11 4L11 3L8 3L8 4L9 4L9 5L8 5L8 7L9 7L9 8L6 8L6 9L5 9L5 8L0 8L0 10L1 10L1 9L2 9L2 10L3 10L3 12L4 12L4 13L8 13L8 14L4 14L4 15L3 15L3 14L1 14L1 13L2 13L2 11L0 11L0 15L1 15L1 16L0 16L0 21L1 21L1 16L2 16L2 15L3 15L3 17L4 17L4 16L5 16L5 15L7 15L7 16L6 16L6 17L5 17L5 18L6 18L6 19L4 19L4 18L3 18L3 20L2 20L2 21L3 21L3 20L5 20L5 21L8 21L8 23L10 23L10 24L8 24L8 29L9 29L9 28L10 28L10 27L11 27L11 28L12 28L12 27L14 27L14 28L13 28L13 29L14 29L14 28L15 28L15 29L16 29L16 28L17 28L17 29L18 29L18 28L17 28L17 27L20 27L20 26L21 26L21 28L24 28L24 29L25 29L25 28L26 28L26 27L25 27L25 23L26 23L26 21L28 21L28 22L27 22L27 24L26 24L26 25L27 25L27 28L28 28L28 26L29 26L29 24L28 24L28 22L29 22L29 21L28 21L28 20L26 20L26 18L27 18L27 19L28 19L28 18L29 18L29 17L28 17L28 16L29 16L29 15L28 15L28 14L29 14L29 13L28 13L28 14L27 14L27 13L25 13L25 12L26 12L26 11L27 11L27 12L29 12L29 11L27 11L27 9L28 9L28 8L27 8L27 9L26 9L26 8L25 8L25 9L24 9L24 8L23 8L23 10L22 10L22 8L21 8L21 10L20 10L20 9L16 9L16 8L15 8L15 6L16 6L16 7L17 7L17 6L18 6L18 8L19 8L19 4L20 4L20 5L21 5L21 4L20 4L20 3L21 3L21 2L18 2L18 3L19 3L19 4L16 4L16 2L17 2L17 0L15 0L15 1L14 1L14 0ZM18 0L18 1L19 1L19 0ZM20 0L20 1L21 1L21 0ZM8 1L8 2L9 2L9 1ZM16 5L16 6L17 6L17 5ZM9 6L9 7L10 7L10 6ZM11 6L11 7L12 7L12 9L11 9L11 8L10 8L10 9L9 9L9 10L8 10L8 9L6 9L6 10L5 10L5 9L4 9L4 12L5 12L5 11L6 11L6 12L7 12L7 11L6 11L6 10L8 10L8 11L9 11L9 12L11 12L11 13L10 13L10 14L13 14L13 15L12 15L12 17L11 17L11 15L10 15L10 16L9 16L9 17L10 17L10 19L11 19L11 20L8 20L8 21L9 21L9 22L10 22L10 23L11 23L11 22L13 22L13 23L12 23L12 24L14 24L14 25L13 25L13 26L14 26L14 27L15 27L15 26L19 26L19 25L20 25L20 24L18 24L18 22L19 22L19 23L20 23L20 22L19 22L19 21L20 21L20 17L21 17L21 16L22 16L22 17L23 17L23 16L24 16L24 15L25 15L25 14L23 14L23 13L24 13L24 12L25 12L25 11L23 11L23 12L20 12L20 10L18 10L18 11L17 11L17 12L15 12L15 13L17 13L17 15L16 15L16 16L15 16L15 14L14 14L14 13L12 13L12 11L13 11L13 12L14 12L14 11L13 11L13 10L12 10L12 9L14 9L14 6L13 6L13 7L12 7L12 6ZM20 6L20 7L21 7L21 6ZM10 9L10 11L11 11L11 9ZM21 10L21 11L22 11L22 10ZM17 12L17 13L18 13L18 16L17 16L17 17L15 17L15 16L13 16L13 17L12 17L12 18L13 18L13 17L15 17L15 19L14 19L14 20L13 20L13 19L12 19L12 21L14 21L14 22L15 22L15 23L14 23L14 24L15 24L15 25L14 25L14 26L15 26L15 25L16 25L16 22L17 22L17 21L18 21L18 20L17 20L17 17L18 17L18 18L19 18L19 17L18 17L18 16L19 16L19 13L20 13L20 16L21 16L21 14L22 14L22 13L20 13L20 12ZM26 14L26 16L25 16L25 17L26 17L26 16L28 16L28 15L27 15L27 14ZM6 17L6 18L7 18L7 19L6 19L6 20L7 20L7 19L9 19L9 18L7 18L7 17ZM27 17L27 18L28 18L28 17ZM22 18L22 20L24 20L24 19L23 19L23 18ZM14 20L14 21L17 21L17 20ZM25 20L25 21L26 21L26 20ZM10 21L10 22L11 22L11 21ZM21 21L21 24L24 24L24 21ZM22 22L22 23L23 23L23 22ZM10 24L10 26L9 26L9 27L10 27L10 26L11 26L11 27L12 27L12 25L11 25L11 24ZM17 24L17 25L18 25L18 24ZM27 24L27 25L28 25L28 24ZM21 25L21 26L22 26L22 27L23 27L23 26L24 26L24 25ZM24 27L24 28L25 28L25 27ZM19 28L19 29L20 29L20 28ZM0 0L0 7L7 7L7 0ZM1 1L1 6L6 6L6 1ZM2 2L2 5L5 5L5 2ZM22 0L22 7L29 7L29 0ZM23 1L23 6L28 6L28 1ZM24 2L24 5L27 5L27 2ZM0 22L0 29L7 29L7 22ZM1 23L1 28L6 28L6 23ZM2 24L2 27L5 27L5 24Z" fill="#282828"/></g></g></svg>
