<?xml version="1.0" encoding="UTF-8"?>
<svg xmlns="http://www.w3.org/2000/svg" version="1.1" width="90" height="90" viewBox="0 0 90 90"><rect x="0" y="0" width="90" height="90" fill="#ffffff"/><g transform="scale(3.333)"><g transform="translate(1,1)"><path fill-rule="evenodd" d="M8 0L8 1L11 1L11 3L10 3L10 2L9 2L9 3L10 3L10 5L9 5L9 6L8 6L8 8L9 8L9 9L10 9L10 10L8 10L8 9L7 9L7 8L6 8L6 9L5 9L5 8L3 8L3 9L2 9L2 8L0 8L0 9L1 9L1 10L3 10L3 12L2 12L2 13L1 13L1 11L0 11L0 17L1 17L1 15L3 15L3 14L4 14L4 17L5 17L5 16L6 16L6 17L8 17L8 18L9 18L9 17L10 17L10 16L11 16L11 17L12 17L12 18L11 18L11 19L12 19L12 21L11 21L11 20L10 20L10 19L9 19L9 20L8 20L8 22L9 22L9 23L8 23L8 25L10 25L10 24L9 24L9 23L11 23L11 25L12 25L12 24L13 24L13 23L14 23L14 24L15 24L15 23L16 23L16 21L17 21L17 24L16 24L16 25L17 25L17 24L18 24L18 25L22 25L22 24L24 24L24 25L25 25L25 21L24 21L24 20L25 20L25 18L23 18L23 17L25 17L25 14L24 14L24 13L25 13L25 12L23 12L23 11L25 11L25 10L24 10L24 9L25 9L25 8L24 8L24 9L19 9L19 8L18 8L18 9L19 9L19 10L18 10L18 11L16 11L16 10L15 10L15 9L17 9L17 8L16 8L16 7L17 7L17 6L16 6L16 7L15 7L15 6L14 6L14 5L13 5L13 4L14 4L14 1L15 1L15 0L13 0L13 1L12 1L12 0ZM16 1L16 2L15 2L15 3L16 3L16 5L17 5L17 3L16 3L16 2L17 2L17 1ZM12 2L12 3L13 3L13 2ZM10 5L10 6L9 6L9 7L10 7L10 9L14 9L14 8L13 8L13 7L14 7L14 6L13 6L13 5L12 5L12 6L11 6L11 5ZM10 6L10 7L11 7L11 8L12 8L12 7L13 7L13 6L12 6L12 7L11 7L11 6ZM6 9L6 10L7 10L7 11L5 11L5 13L6 13L6 14L7 14L7 13L6 13L6 12L8 12L8 10L7 10L7 9ZM10 10L10 11L9 11L9 12L12 12L12 13L15 13L15 12L16 12L16 11L15 11L15 12L14 12L14 10L12 10L12 11L11 11L11 10ZM21 10L21 11L20 11L20 13L18 13L18 12L17 12L17 13L16 13L16 15L17 15L17 16L20 16L20 13L22 13L22 12L21 12L21 11L22 11L22 10ZM12 11L12 12L13 12L13 11ZM3 12L3 13L2 13L2 14L3 14L3 13L4 13L4 12ZM8 13L8 14L9 14L9 15L6 15L6 16L8 16L8 17L9 17L9 15L11 15L11 16L12 16L12 17L13 17L13 16L14 16L14 18L12 18L12 19L14 19L14 20L15 20L15 19L16 19L16 16L15 16L15 14L10 14L10 13ZM17 13L17 14L18 14L18 15L19 15L19 14L18 14L18 13ZM21 14L21 15L24 15L24 14ZM12 15L12 16L13 16L13 15ZM2 16L2 17L3 17L3 16ZM22 16L22 17L23 17L23 16ZM17 17L17 20L20 20L20 17ZM14 18L14 19L15 19L15 18ZM18 18L18 19L19 19L19 18ZM22 19L22 20L21 20L21 22L22 22L22 21L23 21L23 20L24 20L24 19ZM9 21L9 22L10 22L10 21ZM12 21L12 22L13 22L13 21ZM14 21L14 23L15 23L15 21ZM19 21L19 22L18 22L18 24L22 24L22 23L19 23L19 22L20 22L20 21ZM0 0L0 7L7 7L7 0ZM1 1L1 6L6 6L6 1ZM2 2L2 5L5 5L5 2ZM18 0L18 7L25 7L25 0ZM19 1L19 6L24 6L24 1ZM20 2L20 5L23 5L23 2ZM0 18L0 25L7 25L7 18ZM1 19L1 24L6 24L6 19ZM2 20L2 23L5 23L5 20Z" fill="#282828"/></g></g></svg>
