<?xml version="1.0" encoding="UTF-8"?>
<svg xmlns="http://www.w3.org/2000/svg" version="1.1" width="90" height="90" viewBox="0 0 90 90"><rect x="0" y="0" width="90" height="90" fill="#ffffff"/><g transform="scale(2.903)"><g transform="translate(1,1)"><path fill-rule="evenodd" d="M9 0L9 1L8 1L8 2L9 2L9 3L8 3L8 4L10 4L10 7L11 7L11 4L12 4L12 5L13 5L13 6L12 6L12 9L13 9L13 8L14 8L14 9L17 9L17 10L15 10L15 11L14 11L14 12L15 12L15 13L12 13L12 11L13 11L13 10L11 10L11 11L10 11L10 9L11 9L11 8L6 8L6 9L7 9L7 10L5 10L5 8L0 8L0 9L2 9L2 10L1 10L1 12L0 12L0 13L2 13L2 10L5 10L5 11L3 11L3 13L4 13L4 14L6 14L6 15L8 15L8 16L5 16L5 15L4 15L4 16L5 16L5 17L8 17L8 18L6 18L6 19L10 19L10 20L6 20L6 21L8 21L8 23L9 23L9 24L8 24L8 29L9 29L9 26L10 26L10 23L11 23L11 22L10 22L10 20L11 20L11 21L12 21L12 22L13 22L13 23L12 23L12 25L13 25L13 24L14 24L14 25L16 25L16 26L15 26L15 27L14 27L14 28L15 28L15 29L16 29L16 28L17 28L17 29L18 29L18 28L19 28L19 29L25 29L25 28L26 28L26 29L27 29L27 28L28 28L28 26L29 26L29 25L26 25L26 27L25 27L25 26L21 26L21 25L25 25L25 24L26 24L26 23L25 23L25 17L28 17L28 18L26 18L26 19L28 19L28 18L29 18L29 17L28 17L28 16L29 16L29 15L28 15L28 14L29 14L29 12L28 12L28 11L27 11L27 9L28 9L28 8L27 8L27 9L26 9L26 8L25 8L25 9L24 9L24 8L23 8L23 11L21 11L21 10L22 10L22 8L20 8L20 7L21 7L21 5L20 5L20 4L18 4L18 3L19 3L19 0L18 0L18 1L15 1L15 0L13 0L13 1L11 1L11 2L10 2L10 0ZM20 0L20 1L21 1L21 0ZM13 1L13 2L12 2L12 4L14 4L14 5L17 5L17 7L16 7L16 6L15 6L15 7L14 7L14 6L13 6L13 7L14 7L14 8L15 8L15 7L16 7L16 8L18 8L18 9L20 9L20 8L19 8L19 7L20 7L20 5L19 5L19 7L18 7L18 4L15 4L15 3L18 3L18 2L15 2L15 1ZM10 3L10 4L11 4L11 3ZM8 5L8 7L9 7L9 5ZM7 10L7 11L5 11L5 12L8 12L8 13L9 13L9 14L10 14L10 13L11 13L11 16L8 16L8 17L11 17L11 18L13 18L13 19L12 19L12 21L16 21L16 19L15 19L15 18L16 18L16 17L14 17L14 16L15 16L15 15L14 15L14 16L13 16L13 17L12 17L12 15L13 15L13 14L12 14L12 13L11 13L11 12L10 12L10 13L9 13L9 12L8 12L8 10ZM17 10L17 11L16 11L16 13L15 13L15 14L16 14L16 16L18 16L18 17L17 17L17 20L19 20L19 22L20 22L20 20L19 20L19 19L20 19L20 18L19 18L19 19L18 19L18 17L19 17L19 16L18 16L18 15L20 15L20 14L16 14L16 13L17 13L17 12L18 12L18 13L19 13L19 12L20 12L20 13L21 13L21 14L22 14L22 15L24 15L24 16L20 16L20 17L25 17L25 15L26 15L26 16L28 16L28 15L27 15L27 14L28 14L28 13L27 13L27 11L26 11L26 12L25 12L25 11L24 11L24 12L21 12L21 11L20 11L20 10ZM18 11L18 12L19 12L19 11ZM6 13L6 14L7 14L7 13ZM22 13L22 14L23 14L23 13ZM24 13L24 14L26 14L26 13ZM0 14L0 15L2 15L2 17L1 17L1 16L0 16L0 21L1 21L1 18L3 18L3 19L2 19L2 20L4 20L4 21L5 21L5 19L4 19L4 17L3 17L3 14ZM22 18L22 19L21 19L21 20L24 20L24 19L23 19L23 18ZM14 19L14 20L15 20L15 19ZM26 20L26 21L28 21L28 22L27 22L27 23L28 23L28 22L29 22L29 21L28 21L28 20ZM17 21L17 24L16 24L16 25L19 25L19 24L20 24L20 23L19 23L19 24L18 24L18 21ZM21 21L21 24L24 24L24 21ZM22 22L22 23L23 23L23 22ZM14 23L14 24L15 24L15 23ZM11 26L11 28L10 28L10 29L12 29L12 27L13 27L13 26ZM16 26L16 27L17 27L17 28L18 28L18 27L19 27L19 28L22 28L22 27L21 27L21 26L18 26L18 27L17 27L17 26ZM26 27L26 28L27 28L27 27ZM0 0L0 7L7 7L7 0ZM1 1L1 6L6 6L6 1ZM2 2L2 5L5 5L5 2ZM22 0L22 7L29 7L29 0ZM23 1L23 6L28 6L28 1ZM24 2L24 5L27 5L27 2ZM0 22L0 29L7 29L7 22ZM1 23L1 28L6 28L6 23ZM2 24L2 27L5 27L5 24Z" fill="#282828"/></g></g></svg>
