<?xml version="1.0" encoding="UTF-8"?>
<svg xmlns="http://www.w3.org/2000/svg" version="1.1" width="90" height="90" viewBox="0 0 90 90"><rect x="0" y="0" width="90" height="90" fill="#ffffff"/><g transform="scale(3.333)"><g transform="translate(1,1)"><path fill-rule="evenodd" d="M8 0L8 4L9 4L9 3L10 3L10 5L12 5L12 4L13 4L13 6L12 6L12 8L11 8L11 9L10 9L10 7L11 7L11 6L10 6L10 7L9 7L9 5L8 5L8 7L9 7L9 9L10 9L10 11L9 11L9 10L8 10L8 11L7 11L7 10L6 10L6 9L7 9L7 8L4 8L4 9L2 9L2 8L0 8L0 10L1 10L1 11L0 11L0 12L1 12L1 11L2 11L2 12L3 12L3 13L2 13L2 14L3 14L3 15L2 15L2 16L0 16L0 17L2 17L2 16L4 16L4 17L5 17L5 16L4 16L4 15L7 15L7 16L6 16L6 17L8 17L8 18L9 18L9 19L8 19L8 21L9 21L9 19L10 19L10 22L9 22L9 23L8 23L8 25L9 25L9 24L10 24L10 25L11 25L11 24L12 24L12 25L14 25L14 24L13 24L13 22L11 22L11 20L12 20L12 18L11 18L11 19L10 19L10 18L9 18L9 15L10 15L10 13L9 13L9 15L7 15L7 14L6 14L6 13L8 13L8 11L9 11L9 12L10 12L10 11L11 11L11 12L12 12L12 13L13 13L13 14L14 14L14 15L15 15L15 16L16 16L16 18L15 18L15 17L14 17L14 16L13 16L13 19L14 19L14 20L13 20L13 21L14 21L14 22L15 22L15 25L16 25L16 24L18 24L18 25L19 25L19 24L20 24L20 25L21 25L21 24L20 24L20 23L19 23L19 22L20 22L20 21L21 21L21 23L22 23L22 25L25 25L25 24L24 24L24 22L23 22L23 20L24 20L24 21L25 21L25 20L24 20L24 17L25 17L25 16L24 16L24 17L23 17L23 15L24 15L24 13L25 13L25 11L24 11L24 13L21 13L21 11L19 11L19 12L17 12L17 9L16 9L16 10L15 10L15 8L16 8L16 7L17 7L17 3L16 3L16 2L15 2L15 3L14 3L14 4L13 4L13 3L12 3L12 2L14 2L14 1L15 1L15 0L14 0L14 1L12 1L12 0L11 0L11 1L12 1L12 2L11 2L11 3L10 3L10 2L9 2L9 0ZM16 0L16 1L17 1L17 0ZM15 3L15 5L14 5L14 6L13 6L13 8L12 8L12 9L11 9L11 10L13 10L13 12L14 12L14 14L16 14L16 15L17 15L17 16L21 16L21 17L22 17L22 14L20 14L20 13L19 13L19 14L18 14L18 13L17 13L17 14L16 14L16 11L15 11L15 10L13 10L13 9L14 9L14 6L15 6L15 7L16 7L16 3ZM19 8L19 9L18 9L18 10L19 10L19 9L20 9L20 10L25 10L25 8L21 8L21 9L20 9L20 8ZM1 9L1 10L2 10L2 9ZM3 11L3 12L7 12L7 11ZM22 11L22 12L23 12L23 11ZM0 13L0 14L1 14L1 13ZM4 13L4 14L5 14L5 13ZM11 14L11 15L12 15L12 14ZM17 14L17 15L18 15L18 14ZM10 16L10 17L12 17L12 16ZM17 17L17 20L20 20L20 17ZM14 18L14 19L15 19L15 20L14 20L14 21L16 21L16 19L15 19L15 18ZM18 18L18 19L19 19L19 18ZM21 19L21 21L22 21L22 19ZM17 21L17 22L18 22L18 21ZM10 22L10 23L11 23L11 22ZM18 23L18 24L19 24L19 23ZM0 0L0 7L7 7L7 0ZM1 1L1 6L6 6L6 1ZM2 2L2 5L5 5L5 2ZM18 0L18 7L25 7L25 0ZM19 1L19 6L24 6L24 1ZM20 2L20 5L23 5L23 2ZM0 18L0 25L7 25L7 18ZM1 19L1 24L6 24L6 19ZM2 20L2 23L5 23L5 20Z" fill="#282828"/></g></g></svg>
