<?xml version="1.0" encoding="UTF-8"?>
<svg xmlns="http://www.w3.org/2000/svg" version="1.1" width="90" height="90" viewBox="0 0 90 90"><rect x="0" y="0" width="90" height="90" fill="#ffffff"/><g transform="scale(2.903)"><g transform="translate(1,1)"><path fill-rule="evenodd" d="M8 0L8 1L9 1L9 2L8 2L8 5L9 5L9 4L11 4L11 5L10 5L10 10L9 10L9 11L8 11L8 9L9 9L9 8L8 8L8 9L7 9L7 8L6 8L6 9L5 9L5 11L4 11L4 10L3 10L3 9L4 9L4 8L0 8L0 9L1 9L1 10L0 10L0 11L1 11L1 10L3 10L3 12L6 12L6 13L7 13L7 14L6 14L6 15L7 15L7 14L10 14L10 13L11 13L11 15L9 15L9 16L4 16L4 17L3 17L3 16L2 16L2 15L3 15L3 14L4 14L4 15L5 15L5 13L3 13L3 14L2 14L2 13L1 13L1 12L0 12L0 14L1 14L1 15L0 15L0 17L1 17L1 18L0 18L0 19L1 19L1 18L2 18L2 17L3 17L3 19L2 19L2 20L1 20L1 21L3 21L3 20L4 20L4 21L5 21L5 18L4 18L4 17L8 17L8 20L6 20L6 21L8 21L8 22L10 22L10 23L9 23L9 24L10 24L10 23L11 23L11 25L10 25L10 27L11 27L11 26L12 26L12 28L11 28L11 29L12 29L12 28L14 28L14 27L15 27L15 28L17 28L17 29L22 29L22 28L21 28L21 27L22 27L22 25L24 25L24 26L23 26L23 29L24 29L24 28L26 28L26 27L24 27L24 26L26 26L26 25L25 25L25 21L27 21L27 20L28 20L28 22L29 22L29 20L28 20L28 15L29 15L29 13L28 13L28 12L29 12L29 11L28 11L28 10L27 10L27 8L24 8L24 9L22 9L22 8L21 8L21 9L20 9L20 8L19 8L19 6L20 6L20 7L21 7L21 4L19 4L19 6L18 6L18 7L17 7L17 6L16 6L16 7L17 7L17 8L15 8L15 6L14 6L14 5L13 5L13 4L15 4L15 5L18 5L18 3L20 3L20 2L21 2L21 0L20 0L20 2L19 2L19 0L12 0L12 1L11 1L11 0L10 0L10 1L9 1L9 0ZM14 1L14 2L15 2L15 3L16 3L16 4L17 4L17 3L18 3L18 2L16 2L16 1ZM11 2L11 4L12 4L12 3L13 3L13 2ZM12 5L12 6L11 6L11 8L12 8L12 6L13 6L13 11L11 11L11 13L12 13L12 12L13 12L13 11L14 11L14 10L15 10L15 11L16 11L16 12L14 12L14 13L13 13L13 14L12 14L12 16L9 16L9 17L11 17L11 18L9 18L9 19L12 19L12 20L11 20L11 23L14 23L14 24L12 24L12 26L13 26L13 27L14 27L14 26L13 26L13 25L15 25L15 24L18 24L18 23L16 23L16 20L14 20L14 18L13 18L13 17L12 17L12 16L14 16L14 15L17 15L17 16L15 16L15 17L16 17L16 18L17 18L17 19L18 19L18 20L21 20L21 19L22 19L22 20L23 20L23 19L24 19L24 20L26 20L26 18L27 18L27 15L28 15L28 14L26 14L26 18L25 18L25 17L24 17L24 16L23 16L23 15L25 15L25 13L27 13L27 12L28 12L28 11L27 11L27 10L26 10L26 11L25 11L25 10L24 10L24 11L23 11L23 10L22 10L22 11L23 11L23 12L22 12L22 13L21 13L21 10L19 10L19 9L17 9L17 10L16 10L16 9L14 9L14 6L13 6L13 5ZM8 6L8 7L9 7L9 6ZM28 8L28 9L29 9L29 8ZM6 9L6 10L7 10L7 9ZM11 9L11 10L12 10L12 9ZM6 11L6 12L8 12L8 13L9 13L9 12L8 12L8 11ZM19 11L19 13L18 13L18 12L17 12L17 13L15 13L15 14L18 14L18 17L17 17L17 18L18 18L18 19L19 19L19 18L18 18L18 17L20 17L20 19L21 19L21 17L22 17L22 18L24 18L24 17L22 17L22 16L21 16L21 15L22 15L22 14L23 14L23 13L22 13L22 14L21 14L21 15L20 15L20 11ZM24 11L24 12L25 12L25 11ZM13 14L13 15L14 15L14 14ZM1 16L1 17L2 17L2 16ZM6 18L6 19L7 19L7 18ZM8 20L8 21L9 21L9 20ZM14 21L14 23L15 23L15 21ZM17 21L17 22L18 22L18 21ZM19 21L19 22L20 22L20 21ZM21 21L21 24L24 24L24 21ZM22 22L22 23L23 23L23 22ZM26 22L26 23L27 23L27 22ZM19 23L19 25L17 25L17 26L15 26L15 27L17 27L17 28L20 28L20 27L21 27L21 25L20 25L20 23ZM27 24L27 25L28 25L28 27L27 27L27 29L28 29L28 27L29 27L29 24ZM8 25L8 29L10 29L10 28L9 28L9 25ZM19 25L19 26L18 26L18 27L19 27L19 26L20 26L20 25ZM0 0L0 7L7 7L7 0ZM1 1L1 6L6 6L6 1ZM2 2L2 5L5 5L5 2ZM22 0L22 7L29 7L29 0ZM23 1L23 6L28 6L28 1ZM24 2L24 5L27 5L27 2ZM0 22L0 29L7 29L7 22ZM1 23L1 28L6 28L6 23ZM2 24L2 27L5 27L5 24Z" fill="#282828"/></g></g></svg>
