<?xml version="1.0" encoding="UTF-8"?>
<svg xmlns="http://www.w3.org/2000/svg" version="1.1" width="90" height="90" viewBox="0 0 90 90"><rect x="0" y="0" width="90" height="90" fill="#ffffff"/><g transform="scale(2.903)"><g transform="translate(1,1)"><path fill-rule="evenodd" d="M11 0L11 1L9 1L9 2L11 2L11 1L13 1L13 2L12 2L12 4L13 4L13 5L11 5L11 6L10 6L10 8L9 8L9 9L8 9L8 8L5 8L5 10L4 10L4 9L2 9L2 8L0 8L0 9L2 9L2 10L0 10L0 11L1 11L1 12L0 12L0 14L1 14L1 15L0 15L0 21L1 21L1 19L2 19L2 21L3 21L3 20L4 20L4 19L7 19L7 20L6 20L6 21L8 21L8 24L9 24L9 26L10 26L10 24L12 24L12 27L11 27L11 28L13 28L13 29L14 29L14 28L15 28L15 29L16 29L16 28L17 28L17 29L20 29L20 28L19 28L19 27L21 27L21 26L22 26L22 28L21 28L21 29L23 29L23 27L24 27L24 28L26 28L26 29L27 29L27 27L28 27L28 28L29 28L29 27L28 27L28 26L29 26L29 25L28 25L28 26L27 26L27 27L25 27L25 26L26 26L26 25L27 25L27 24L26 24L26 23L25 23L25 20L24 20L24 19L23 19L23 18L25 18L25 19L26 19L26 18L27 18L27 20L26 20L26 22L27 22L27 23L28 23L28 19L29 19L29 17L27 17L27 15L28 15L28 16L29 16L29 15L28 15L28 14L29 14L29 11L28 11L28 12L26 12L26 11L27 11L27 10L29 10L29 9L27 9L27 10L26 10L26 8L24 8L24 9L23 9L23 11L22 11L22 9L17 9L17 8L16 8L16 7L17 7L17 6L18 6L18 7L19 7L19 6L18 6L18 5L19 5L19 4L17 4L17 3L16 3L16 2L18 2L18 3L19 3L19 2L18 2L18 1L20 1L20 2L21 2L21 1L20 1L20 0L18 0L18 1L16 1L16 0ZM14 1L14 2L13 2L13 4L14 4L14 6L13 6L13 7L12 7L12 6L11 6L11 7L12 7L12 9L11 9L11 8L10 8L10 10L9 10L9 11L8 11L8 10L7 10L7 9L6 9L6 10L5 10L5 11L6 11L6 12L7 12L7 11L8 11L8 14L7 14L7 13L6 13L6 14L7 14L7 15L6 15L6 16L7 16L7 15L8 15L8 14L9 14L9 16L8 16L8 17L4 17L4 18L2 18L2 17L3 17L3 16L2 16L2 17L1 17L1 18L2 18L2 19L4 19L4 18L7 18L7 19L8 19L8 20L9 20L9 18L8 18L8 17L10 17L10 18L12 18L12 19L11 19L11 21L10 21L10 22L9 22L9 24L10 24L10 22L13 22L13 23L12 23L12 24L13 24L13 28L14 28L14 23L15 23L15 26L16 26L16 27L15 27L15 28L16 28L16 27L17 27L17 28L18 28L18 25L17 25L17 26L16 26L16 23L15 23L15 22L18 22L18 21L19 21L19 22L20 22L20 20L21 20L21 18L23 18L23 17L26 17L26 15L27 15L27 14L26 14L26 15L24 15L24 16L22 16L22 15L23 15L23 14L22 14L22 13L21 13L21 14L22 14L22 15L20 15L20 14L18 14L18 15L17 15L17 16L16 16L16 15L15 15L15 14L16 14L16 13L15 13L15 12L18 12L18 13L19 13L19 12L20 12L20 11L21 11L21 10L19 10L19 11L15 11L15 12L14 12L14 11L13 11L13 10L12 10L12 9L14 9L14 10L17 10L17 9L14 9L14 6L15 6L15 7L16 7L16 6L17 6L17 5L15 5L15 4L16 4L16 3L14 3L14 2L16 2L16 1ZM8 3L8 5L10 5L10 4L9 4L9 3ZM20 3L20 5L21 5L21 3ZM8 6L8 7L9 7L9 6ZM20 6L20 7L21 7L21 6ZM3 10L3 11L4 11L4 10ZM6 10L6 11L7 11L7 10ZM10 10L10 11L9 11L9 14L10 14L10 16L11 16L11 17L12 17L12 18L13 18L13 19L12 19L12 21L14 21L14 20L15 20L15 21L16 21L16 20L19 20L19 19L20 19L20 18L21 18L21 16L20 16L20 17L19 17L19 16L17 16L17 17L16 17L16 18L13 18L13 17L15 17L15 15L14 15L14 16L13 16L13 17L12 17L12 15L13 15L13 14L10 14L10 11L11 11L11 10ZM12 11L12 12L11 12L11 13L13 13L13 11ZM23 11L23 12L24 12L24 13L25 13L25 12L24 12L24 11ZM3 12L3 13L4 13L4 14L5 14L5 13L4 13L4 12ZM14 13L14 14L15 14L15 13ZM2 14L2 15L3 15L3 14ZM4 15L4 16L5 16L5 15ZM17 17L17 18L18 18L18 17ZM13 19L13 20L14 20L14 19ZM22 19L22 20L23 20L23 19ZM21 21L21 24L24 24L24 21ZM22 22L22 23L23 23L23 22ZM18 23L18 24L19 24L19 23ZM25 24L25 25L22 25L22 26L25 26L25 25L26 25L26 24ZM19 25L19 26L20 26L20 25ZM8 27L8 29L9 29L9 27ZM0 0L0 7L7 7L7 0ZM1 1L1 6L6 6L6 1ZM2 2L2 5L5 5L5 2ZM22 0L22 7L29 7L29 0ZM23 1L23 6L28 6L28 1ZM24 2L24 5L27 5L27 2ZM0 22L0 29L7 29L7 22ZM1 23L1 28L6 28L6 23ZM2 24L2 27L5 27L5 24Z" fill="#282828"/></g></g></svg>
