<?xml version="1.0" encoding="UTF-8"?>
<svg xmlns="http://www.w3.org/2000/svg" version="1.1" width="90" height="90" viewBox="0 0 90 90"><rect x="0" y="0" width="90" height="90" fill="#ffffff"/><g transform="scale(2.903)"><g transform="translate(1,1)"><path fill-rule="evenodd" d="M9 0L9 1L8 1L8 2L9 2L9 3L8 3L8 4L10 4L10 7L11 7L11 4L12 4L12 5L13 5L13 4L14 4L14 7L15 7L15 9L14 9L14 8L13 8L13 6L12 6L12 9L14 9L14 10L11 10L11 11L10 11L10 9L11 9L11 8L6 8L6 9L9 9L9 11L8 11L8 10L6 10L6 11L7 11L7 12L5 12L5 11L3 11L3 12L5 12L5 13L2 13L2 12L1 12L1 11L2 11L2 10L1 10L1 9L3 9L3 10L5 10L5 8L0 8L0 13L2 13L2 15L1 15L1 14L0 14L0 16L2 16L2 15L3 15L3 14L4 14L4 17L2 17L2 18L3 18L3 19L2 19L2 20L3 20L3 21L4 21L4 20L3 20L3 19L4 19L4 17L5 17L5 18L6 18L6 19L7 19L7 20L5 20L5 21L8 21L8 23L9 23L9 24L8 24L8 29L9 29L9 28L10 28L10 29L12 29L12 27L13 27L13 26L10 26L10 25L11 25L11 22L10 22L10 21L12 21L12 22L13 22L13 23L12 23L12 25L13 25L13 24L14 24L14 25L15 25L15 27L14 27L14 28L15 28L15 29L16 29L16 28L17 28L17 27L18 27L18 28L19 28L19 27L18 27L18 26L19 26L19 25L15 25L15 24L14 24L14 23L16 23L16 24L17 24L17 21L18 21L18 24L20 24L20 25L23 25L23 27L24 27L24 29L26 29L26 27L25 27L25 23L26 23L26 21L28 21L28 22L27 22L27 23L28 23L28 24L29 24L29 23L28 23L28 22L29 22L29 21L28 21L28 20L26 20L26 18L27 18L27 19L28 19L28 18L29 18L29 17L28 17L28 18L27 18L27 16L28 16L28 14L29 14L29 13L28 13L28 12L29 12L29 11L28 11L28 12L27 12L27 13L25 13L25 12L26 12L26 11L27 11L27 9L28 9L28 8L27 8L27 9L26 9L26 8L25 8L25 9L24 9L24 8L23 8L23 10L24 10L24 11L23 11L23 12L24 12L24 13L23 13L23 14L22 14L22 13L21 13L21 12L20 12L20 11L18 11L18 12L20 12L20 14L22 14L22 15L21 15L21 16L23 16L23 18L25 18L25 19L24 19L24 20L23 20L23 19L22 19L22 17L20 17L20 16L19 16L19 15L18 15L18 16L19 16L19 17L18 17L18 18L19 18L19 17L20 17L20 19L19 19L19 20L17 20L17 19L16 19L16 18L17 18L17 17L15 17L15 16L14 16L14 15L16 15L16 16L17 16L17 14L19 14L19 13L17 13L17 10L19 10L19 9L20 9L20 10L22 10L22 8L21 8L21 9L20 9L20 8L19 8L19 9L17 9L17 8L16 8L16 7L17 7L17 6L16 6L16 5L17 5L17 4L16 4L16 2L17 2L17 1L15 1L15 0L14 0L14 1L15 1L15 2L14 2L14 3L13 3L13 4L12 4L12 2L13 2L13 1L11 1L11 2L10 2L10 0ZM20 0L20 2L18 2L18 3L20 3L20 7L21 7L21 3L20 3L20 2L21 2L21 0ZM10 3L10 4L11 4L11 3ZM14 3L14 4L15 4L15 5L16 5L16 4L15 4L15 3ZM18 4L18 5L19 5L19 4ZM8 5L8 7L9 7L9 5ZM15 6L15 7L16 7L16 6ZM18 6L18 7L19 7L19 6ZM15 9L15 10L14 10L14 11L12 11L12 13L11 13L11 12L10 12L10 13L9 13L9 12L7 12L7 13L5 13L5 17L6 17L6 18L8 18L8 19L9 19L9 18L10 18L10 20L8 20L8 21L10 21L10 20L11 20L11 18L13 18L13 19L12 19L12 21L17 21L17 20L16 20L16 19L15 19L15 17L14 17L14 16L13 16L13 17L12 17L12 15L13 15L13 14L12 14L12 13L14 13L14 14L15 14L15 13L16 13L16 11L15 11L15 10L16 10L16 9ZM14 11L14 12L15 12L15 11ZM7 13L7 14L6 14L6 15L7 15L7 14L8 14L8 17L9 17L9 16L11 16L11 13L10 13L10 15L9 15L9 13ZM27 13L27 14L26 14L26 16L25 16L25 17L26 17L26 16L27 16L27 14L28 14L28 13ZM6 16L6 17L7 17L7 16ZM0 17L0 21L1 21L1 17ZM14 19L14 20L15 20L15 19ZM20 19L20 20L19 20L19 23L20 23L20 20L22 20L22 19ZM25 20L25 21L26 21L26 20ZM21 21L21 24L24 24L24 21ZM9 22L9 23L10 23L10 22ZM22 22L22 23L23 23L23 22ZM26 24L26 25L27 25L27 28L28 28L28 26L29 26L29 25L27 25L27 24ZM9 26L9 27L10 27L10 28L11 28L11 27L10 27L10 26ZM21 26L21 27L20 27L20 28L21 28L21 27L22 27L22 26ZM15 27L15 28L16 28L16 27ZM0 0L0 7L7 7L7 0ZM1 1L1 6L6 6L6 1ZM2 2L2 5L5 5L5 2ZM22 0L22 7L29 7L29 0ZM23 1L23 6L28 6L28 1ZM24 2L24 5L27 5L27 2ZM0 22L0 29L7 29L7 22ZM1 23L1 28L6 28L6 23ZM2 24L2 27L5 27L5 24Z" fill="#282828"/></g></g></svg>
