<?xml version="1.0" encoding="UTF-8"?>
<svg xmlns="http://www.w3.org/2000/svg" version="1.1" width="90" height="90" viewBox="0 0 90 90"><rect x="0" y="0" width="90" height="90" fill="#ffffff"/><g transform="scale(2.903)"><g transform="translate(1,1)"><path fill-rule="evenodd" d="M8 0L8 2L9 2L9 3L10 3L10 2L9 2L9 1L11 1L11 2L12 2L12 0ZM13 0L13 1L15 1L15 2L16 2L16 0ZM17 0L17 3L15 3L15 5L13 5L13 3L14 3L14 2L13 2L13 3L11 3L11 5L9 5L9 4L8 4L8 9L7 9L7 8L5 8L5 10L4 10L4 9L3 9L3 8L0 8L0 9L3 9L3 10L1 10L1 11L0 11L0 12L1 12L1 11L2 11L2 12L3 12L3 13L1 13L1 14L0 14L0 15L1 15L1 17L2 17L2 16L3 16L3 15L4 15L4 16L5 16L5 17L3 17L3 18L5 18L5 19L7 19L7 18L6 18L6 17L7 17L7 16L6 16L6 15L9 15L9 13L10 13L10 17L8 17L8 18L10 18L10 19L9 19L9 21L8 21L8 20L5 20L5 21L8 21L8 22L9 22L9 21L11 21L11 20L13 20L13 22L15 22L15 23L16 23L16 20L17 20L17 22L19 22L19 23L18 23L18 24L19 24L19 25L18 25L18 26L17 26L17 27L19 27L19 26L20 26L20 25L21 25L21 27L22 27L22 29L23 29L23 26L22 26L22 25L25 25L25 24L26 24L26 25L28 25L28 26L27 26L27 27L29 27L29 24L28 24L28 23L29 23L29 20L28 20L28 19L29 19L29 16L28 16L28 17L27 17L27 22L25 22L25 21L26 21L26 20L24 20L24 19L26 19L26 18L24 18L24 17L25 17L25 16L26 16L26 15L29 15L29 12L28 12L28 13L27 13L27 12L26 12L26 11L25 11L25 10L28 10L28 11L29 11L29 10L28 10L28 9L29 9L29 8L27 8L27 9L25 9L25 8L21 8L21 9L20 9L20 10L19 10L19 11L20 11L20 12L19 12L19 13L20 13L20 14L18 14L18 12L17 12L17 10L18 10L18 8L19 8L19 5L18 5L18 4L19 4L19 3L21 3L21 2L19 2L19 3L18 3L18 0ZM19 0L19 1L20 1L20 0ZM17 3L17 4L18 4L18 3ZM20 4L20 7L21 7L21 4ZM11 5L11 7L10 7L10 6L9 6L9 7L10 7L10 9L8 9L8 10L7 10L7 9L6 9L6 10L5 10L5 12L4 12L4 11L3 11L3 12L4 12L4 13L3 13L3 14L4 14L4 15L5 15L5 12L8 12L8 13L9 13L9 12L10 12L10 11L9 11L9 10L11 10L11 11L12 11L12 9L11 9L11 8L13 8L13 7L14 7L14 9L13 9L13 10L15 10L15 11L16 11L16 9L15 9L15 8L18 8L18 5L17 5L17 7L16 7L16 5L15 5L15 7L14 7L14 6L13 6L13 7L12 7L12 5ZM21 9L21 10L20 10L20 11L21 11L21 12L20 12L20 13L21 13L21 14L20 14L20 15L18 15L18 14L17 14L17 13L16 13L16 12L15 12L15 14L13 14L13 12L14 12L14 11L13 11L13 12L11 12L11 14L12 14L12 15L11 15L11 16L13 16L13 15L14 15L14 17L13 17L13 18L15 18L15 16L16 16L16 18L17 18L17 20L18 20L18 21L19 21L19 22L20 22L20 20L18 20L18 19L19 19L19 18L20 18L20 17L21 17L21 20L23 20L23 19L24 19L24 18L23 18L23 17L24 17L24 16L25 16L25 13L24 13L24 16L23 16L23 15L21 15L21 14L22 14L22 13L21 13L21 12L22 12L22 11L24 11L24 12L25 12L25 11L24 11L24 10L25 10L25 9L24 9L24 10L23 10L23 9ZM6 10L6 11L7 11L7 10ZM8 11L8 12L9 12L9 11ZM6 13L6 14L7 14L7 13ZM26 13L26 14L27 14L27 13ZM1 14L1 15L2 15L2 14ZM15 14L15 15L16 15L16 16L17 16L17 18L18 18L18 16L17 16L17 14ZM22 16L22 17L23 17L23 16ZM10 17L10 18L11 18L11 19L12 19L12 17ZM0 18L0 19L2 19L2 20L0 20L0 21L2 21L2 20L3 20L3 21L4 21L4 19L2 19L2 18ZM13 19L13 20L14 20L14 19ZM15 19L15 20L16 20L16 19ZM21 21L21 24L24 24L24 21ZM10 22L10 24L9 24L9 23L8 23L8 24L9 24L9 25L12 25L12 27L11 27L11 26L8 26L8 29L10 29L10 28L13 28L13 29L17 29L17 28L15 28L15 27L16 27L16 24L15 24L15 26L13 26L13 25L14 25L14 23L13 23L13 24L11 24L11 23L12 23L12 22ZM22 22L22 23L23 23L23 22ZM26 23L26 24L27 24L27 23ZM24 26L24 27L25 27L25 28L24 28L24 29L25 29L25 28L26 28L26 29L27 29L27 28L26 28L26 27L25 27L25 26ZM13 27L13 28L14 28L14 27ZM20 28L20 29L21 29L21 28ZM28 28L28 29L29 29L29 28ZM0 0L0 7L7 7L7 0ZM1 1L1 6L6 6L6 1ZM2 2L2 5L5 5L5 2ZM22 0L22 7L29 7L29 0ZM23 1L23 6L28 6L28 1ZM24 2L24 5L27 5L27 2ZM0 22L0 29L7 29L7 22ZM1 23L1 28L6 28L6 23ZM2 24L2 27L5 27L5 24Z" fill="#282828"/></g></g></svg>
