<?xml version="1.0" encoding="UTF-8"?>
<svg xmlns="http://www.w3.org/2000/svg" version="1.1" width="90" height="90" viewBox="0 0 90 90"><rect x="0" y="0" width="90" height="90" fill="#ffffff"/><g transform="scale(3.333)"><g transform="translate(1,1)"><path fill-rule="evenodd" d="M8 0L8 1L11 1L11 3L10 3L10 2L9 2L9 3L10 3L10 5L9 5L9 6L8 6L8 8L9 8L9 9L10 9L10 10L8 10L8 11L7 11L7 10L6 10L6 9L7 9L7 8L6 8L6 9L5 9L5 8L3 8L3 9L4 9L4 10L1 10L1 9L2 9L2 8L0 8L0 17L1 17L1 15L3 15L3 14L2 14L2 13L1 13L1 12L3 12L3 13L4 13L4 14L6 14L6 15L7 15L7 14L6 14L6 13L8 13L8 12L9 12L9 13L10 13L10 15L11 15L11 14L13 14L13 13L12 13L12 11L14 11L14 12L15 12L15 13L14 13L14 16L13 16L13 15L12 15L12 16L11 16L11 17L12 17L12 18L11 18L11 19L12 19L12 21L11 21L11 24L10 24L10 25L12 25L12 24L13 24L13 23L14 23L14 24L15 24L15 23L14 23L14 21L17 21L17 22L16 22L16 23L17 23L17 24L16 24L16 25L17 25L17 24L18 24L18 25L22 25L22 24L24 24L24 25L25 25L25 21L24 21L24 20L25 20L25 18L23 18L23 17L25 17L25 14L24 14L24 13L25 13L25 10L24 10L24 9L25 9L25 8L24 8L24 9L19 9L19 8L18 8L18 9L17 9L17 11L16 11L16 10L15 10L15 9L16 9L16 8L17 8L17 1L16 1L16 8L14 8L14 7L15 7L15 6L14 6L14 7L13 7L13 6L12 6L12 5L13 5L13 4L14 4L14 5L15 5L15 4L14 4L14 2L15 2L15 0L14 0L14 1L12 1L12 0ZM12 2L12 3L13 3L13 2ZM10 5L10 6L9 6L9 7L10 7L10 9L13 9L13 10L14 10L14 11L15 11L15 12L16 12L16 11L15 11L15 10L14 10L14 8L13 8L13 7L12 7L12 6L11 6L11 5ZM10 6L10 7L11 7L11 6ZM18 9L18 10L19 10L19 9ZM4 10L4 11L3 11L3 12L7 12L7 11L6 11L6 10ZM10 10L10 11L9 11L9 12L11 12L11 10ZM21 10L21 11L17 11L17 13L16 13L16 15L15 15L15 16L14 16L14 17L13 17L13 16L12 16L12 17L13 17L13 18L12 18L12 19L13 19L13 18L15 18L15 19L14 19L14 20L15 20L15 19L16 19L16 17L15 17L15 16L17 16L17 14L18 14L18 15L19 15L19 16L21 16L21 15L24 15L24 14L21 14L21 15L19 15L19 14L20 14L20 13L22 13L22 12L21 12L21 11L23 11L23 10ZM18 12L18 13L20 13L20 12ZM23 12L23 13L24 13L24 12ZM8 14L8 15L9 15L9 14ZM4 15L4 16L2 16L2 17L8 17L8 18L9 18L9 20L8 20L8 22L9 22L9 23L8 23L8 25L9 25L9 23L10 23L10 21L9 21L9 20L10 20L10 17L9 17L9 16L5 16L5 15ZM22 16L22 17L23 17L23 16ZM17 17L17 20L20 20L20 17ZM18 18L18 19L19 19L19 18ZM22 19L22 20L21 20L21 22L22 22L22 21L23 21L23 20L24 20L24 19ZM12 21L12 22L13 22L13 21ZM19 21L19 22L18 22L18 24L22 24L22 23L19 23L19 22L20 22L20 21ZM0 0L0 7L7 7L7 0ZM1 1L1 6L6 6L6 1ZM2 2L2 5L5 5L5 2ZM18 0L18 7L25 7L25 0ZM19 1L19 6L24 6L24 1ZM20 2L20 5L23 5L23 2ZM0 18L0 25L7 25L7 18ZM1 19L1 24L6 24L6 19ZM2 20L2 23L5 23L5 20Z" fill="#282828"/></g></g></svg>
