<?xml version="1.0" encoding="UTF-8"?>
<svg xmlns="http://www.w3.org/2000/svg" version="1.1" width="90" height="90" viewBox="0 0 90 90"><rect x="0" y="0" width="90" height="90" fill="#ffffff"/><g transform="scale(2.903)"><g transform="translate(1,1)"><path fill-rule="evenodd" d="M10 0L10 2L11 2L11 0ZM12 0L12 1L13 1L13 0ZM14 0L14 3L13 3L13 2L12 2L12 4L16 4L16 5L14 5L14 9L12 9L12 7L13 7L13 5L11 5L11 6L10 6L10 4L11 4L11 3L8 3L8 4L9 4L9 5L8 5L8 7L9 7L9 8L6 8L6 9L7 9L7 10L5 10L5 11L4 11L4 13L8 13L8 12L9 12L9 13L11 13L11 12L9 12L9 10L8 10L8 9L10 9L10 11L11 11L11 9L12 9L12 10L13 10L13 11L12 11L12 13L14 13L14 14L15 14L15 15L16 15L16 16L17 16L17 17L16 17L16 18L15 18L15 19L14 19L14 20L13 20L13 19L12 19L12 21L14 21L14 22L15 22L15 23L14 23L14 24L12 24L12 23L13 23L13 22L11 22L11 18L9 18L9 19L8 19L8 20L6 20L6 19L7 19L7 18L6 18L6 17L8 17L8 15L7 15L7 14L6 14L6 15L5 15L5 14L3 14L3 12L1 12L1 13L2 13L2 14L1 14L1 15L2 15L2 14L3 14L3 15L4 15L4 16L0 16L0 21L1 21L1 18L2 18L2 20L4 20L4 21L5 21L5 20L6 20L6 21L8 21L8 23L10 23L10 24L8 24L8 29L10 29L10 28L11 28L11 29L12 29L12 28L13 28L13 29L14 29L14 28L13 28L13 25L14 25L14 27L15 27L15 28L16 28L16 27L18 27L18 28L17 28L17 29L18 29L18 28L19 28L19 29L20 29L20 28L21 28L21 29L22 29L22 27L25 27L25 28L26 28L26 27L25 27L25 26L24 26L24 25L25 25L25 23L26 23L26 21L28 21L28 22L27 22L27 24L26 24L26 25L27 25L27 28L28 28L28 26L29 26L29 24L28 24L28 22L29 22L29 21L28 21L28 20L26 20L26 18L27 18L27 19L28 19L28 18L29 18L29 17L28 17L28 18L27 18L27 16L28 16L28 14L29 14L29 12L28 12L28 11L27 11L27 9L28 9L28 8L27 8L27 9L26 9L26 8L25 8L25 9L24 9L24 8L23 8L23 9L22 9L22 8L21 8L21 9L20 9L20 8L19 8L19 9L18 9L18 8L17 8L17 4L16 4L16 3L17 3L17 0L16 0L16 1L15 1L15 0ZM18 0L18 3L19 3L19 1L20 1L20 0ZM8 1L8 2L9 2L9 1ZM15 2L15 3L16 3L16 2ZM20 2L20 3L21 3L21 2ZM18 4L18 5L20 5L20 7L21 7L21 4ZM9 6L9 7L10 7L10 6ZM11 6L11 7L12 7L12 6ZM15 6L15 7L16 7L16 6ZM18 6L18 7L19 7L19 6ZM0 8L0 9L1 9L1 10L0 10L0 11L2 11L2 10L4 10L4 9L5 9L5 8ZM10 8L10 9L11 9L11 8ZM16 8L16 9L15 9L15 10L16 10L16 11L17 11L17 12L16 12L16 13L15 13L15 14L16 14L16 15L17 15L17 16L18 16L18 17L23 17L23 16L24 16L24 17L26 17L26 16L27 16L27 14L28 14L28 13L27 13L27 11L26 11L26 12L24 12L24 13L27 13L27 14L26 14L26 16L24 16L24 15L25 15L25 14L24 14L24 15L23 15L23 16L19 16L19 15L20 15L20 14L18 14L18 13L20 13L20 12L21 12L21 13L23 13L23 11L24 11L24 10L23 10L23 11L21 11L21 10L19 10L19 11L20 11L20 12L18 12L18 11L17 11L17 10L18 10L18 9L17 9L17 8ZM16 9L16 10L17 10L17 9ZM7 10L7 11L5 11L5 12L7 12L7 11L8 11L8 10ZM13 11L13 12L14 12L14 11ZM17 12L17 13L16 13L16 14L17 14L17 13L18 13L18 12ZM10 14L10 16L11 16L11 17L12 17L12 18L13 18L13 17L15 17L15 16L13 16L13 17L12 17L12 15L13 15L13 14ZM21 14L21 15L22 15L22 14ZM6 15L6 16L7 16L7 15ZM4 16L4 17L5 17L5 16ZM3 18L3 19L4 19L4 20L5 20L5 18ZM18 18L18 19L16 19L16 21L17 21L17 22L16 22L16 25L15 25L15 24L14 24L14 25L15 25L15 26L17 26L17 24L18 24L18 25L20 25L20 26L19 26L19 28L20 28L20 26L21 26L21 25L20 25L20 24L18 24L18 23L19 23L19 22L20 22L20 21L19 21L19 20L18 20L18 19L21 19L21 20L23 20L23 18ZM9 19L9 22L10 22L10 23L11 23L11 22L10 22L10 19ZM14 20L14 21L15 21L15 20ZM17 20L17 21L18 21L18 22L19 22L19 21L18 21L18 20ZM25 20L25 21L26 21L26 20ZM21 21L21 24L24 24L24 21ZM22 22L22 23L23 23L23 22ZM27 24L27 25L28 25L28 24ZM9 25L9 26L10 26L10 25ZM11 25L11 28L12 28L12 25ZM22 25L22 26L23 26L23 25ZM9 27L9 28L10 28L10 27ZM0 0L0 7L7 7L7 0ZM1 1L1 6L6 6L6 1ZM2 2L2 5L5 5L5 2ZM22 0L22 7L29 7L29 0ZM23 1L23 6L28 6L28 1ZM24 2L24 5L27 5L27 2ZM0 22L0 29L7 29L7 22ZM1 23L1 28L6 28L6 23ZM2 24L2 27L5 27L5 24Z" fill="#282828"/></g></g></svg>
