<?xml version="1.0" encoding="UTF-8"?>
<svg xmlns="http://www.w3.org/2000/svg" version="1.1" width="90" height="90" viewBox="0 0 90 90"><rect x="0" y="0" width="90" height="90" fill="#ffffff"/><g transform="scale(2.903)"><g transform="translate(1,1)"><path fill-rule="evenodd" d="M9 0L9 1L8 1L8 2L9 2L9 3L8 3L8 4L10 4L10 7L11 7L11 4L12 4L12 5L13 5L13 6L12 6L12 9L15 9L15 8L17 8L17 9L16 9L16 10L11 10L11 11L10 11L10 9L11 9L11 8L6 8L6 9L5 9L5 8L0 8L0 11L1 11L1 12L3 12L3 11L4 11L4 13L3 13L3 16L4 16L4 17L5 17L5 19L3 19L3 20L2 20L2 21L3 21L3 20L5 20L5 21L7 21L7 20L6 20L6 19L7 19L7 18L8 18L8 17L9 17L9 18L10 18L10 17L11 17L11 13L12 13L12 14L13 14L13 15L12 15L12 17L14 17L14 18L15 18L15 20L12 20L12 19L13 19L13 18L11 18L11 19L8 19L8 20L10 20L10 21L8 21L8 23L9 23L9 24L8 24L8 29L9 29L9 27L10 27L10 28L11 28L11 27L10 27L10 26L9 26L9 24L10 24L10 25L11 25L11 26L12 26L12 27L13 27L13 25L14 25L14 26L15 26L15 27L14 27L14 28L13 28L13 29L14 29L14 28L15 28L15 29L18 29L18 28L19 28L19 26L18 26L18 28L15 28L15 27L17 27L17 25L18 25L18 24L17 24L17 22L15 22L15 23L14 23L14 24L13 24L13 23L12 23L12 24L10 24L10 23L11 23L11 22L10 22L10 21L12 21L12 22L13 22L13 21L16 21L16 18L17 18L17 17L18 17L18 20L17 20L17 21L18 21L18 22L19 22L19 21L18 21L18 20L20 20L20 23L19 23L19 24L20 24L20 25L23 25L23 26L21 26L21 27L20 27L20 28L21 28L21 27L24 27L24 28L23 28L23 29L25 29L25 28L26 28L26 27L25 27L25 26L24 26L24 25L25 25L25 23L26 23L26 21L28 21L28 22L27 22L27 23L28 23L28 22L29 22L29 21L28 21L28 20L26 20L26 18L27 18L27 19L28 19L28 18L29 18L29 17L28 17L28 18L27 18L27 16L28 16L28 14L29 14L29 12L27 12L27 13L24 13L24 12L26 12L26 11L27 11L27 9L28 9L28 8L27 8L27 9L26 9L26 8L25 8L25 9L24 9L24 8L23 8L23 9L22 9L22 8L21 8L21 5L20 5L20 4L18 4L18 3L19 3L19 2L18 2L18 1L19 1L19 0L18 0L18 1L17 1L17 0L16 0L16 1L15 1L15 2L14 2L14 3L13 3L13 4L12 4L12 2L13 2L13 1L11 1L11 2L10 2L10 0ZM20 0L20 1L21 1L21 0ZM15 2L15 3L16 3L16 4L14 4L14 5L16 5L16 4L17 4L17 3L18 3L18 2L17 2L17 3L16 3L16 2ZM10 3L10 4L11 4L11 3ZM8 5L8 7L9 7L9 5ZM18 5L18 6L17 6L17 8L18 8L18 9L21 9L21 8L20 8L20 5ZM13 6L13 8L15 8L15 7L16 7L16 6L15 6L15 7L14 7L14 6ZM18 6L18 7L19 7L19 6ZM1 9L1 11L2 11L2 10L4 10L4 11L5 11L5 15L4 15L4 16L5 16L5 17L6 17L6 18L7 18L7 17L6 17L6 16L8 16L8 15L9 15L9 16L10 16L10 15L9 15L9 13L8 13L8 12L9 12L9 11L8 11L8 10L9 10L9 9L8 9L8 10L7 10L7 9L6 9L6 10L4 10L4 9ZM6 10L6 11L7 11L7 12L6 12L6 13L7 13L7 14L6 14L6 15L8 15L8 13L7 13L7 12L8 12L8 11L7 11L7 10ZM19 10L19 11L16 11L16 13L15 13L15 14L16 14L16 13L17 13L17 12L18 12L18 13L19 13L19 11L20 11L20 12L21 12L21 13L23 13L23 12L24 12L24 11L25 11L25 10L24 10L24 11L21 11L21 10ZM12 11L12 13L14 13L14 11ZM10 12L10 13L11 13L11 12ZM0 13L0 15L1 15L1 13ZM27 13L27 14L26 14L26 16L24 16L24 17L26 17L26 16L27 16L27 14L28 14L28 13ZM18 14L18 15L15 15L15 17L17 17L17 16L19 16L19 17L23 17L23 15L22 15L22 14L21 14L21 15L22 15L22 16L20 16L20 14ZM13 15L13 16L14 16L14 15ZM0 17L0 21L1 21L1 17ZM2 17L2 18L3 18L3 17ZM19 18L19 19L22 19L22 20L24 20L24 19L25 19L25 18L23 18L23 19L22 19L22 18ZM25 20L25 21L26 21L26 20ZM21 21L21 24L24 24L24 21ZM9 22L9 23L10 23L10 22ZM22 22L22 23L23 23L23 22ZM12 24L12 25L13 25L13 24ZM14 24L14 25L15 25L15 26L16 26L16 25L17 25L17 24L16 24L16 25L15 25L15 24ZM26 24L26 25L27 25L27 28L28 28L28 26L29 26L29 24L28 24L28 25L27 25L27 24ZM0 0L0 7L7 7L7 0ZM1 1L1 6L6 6L6 1ZM2 2L2 5L5 5L5 2ZM22 0L22 7L29 7L29 0ZM23 1L23 6L28 6L28 1ZM24 2L24 5L27 5L27 2ZM0 22L0 29L7 29L7 22ZM1 23L1 28L6 28L6 23ZM2 24L2 27L5 27L5 24Z" fill="#282828"/></g></g></svg>
