<?xml version="1.0" encoding="UTF-8"?>
<svg xmlns="http://www.w3.org/2000/svg" version="1.1" width="90" height="90" viewBox="0 0 90 90"><rect x="0" y="0" width="90" height="90" fill="#ffffff"/><g transform="scale(2.903)"><g transform="translate(1,1)"><path fill-rule="evenodd" d="M9 0L9 1L8 1L8 2L9 2L9 3L8 3L8 4L10 4L10 7L11 7L11 4L12 4L12 5L13 5L13 6L12 6L12 9L13 9L13 8L14 8L14 9L17 9L17 6L16 6L16 4L12 4L12 2L13 2L13 1L11 1L11 2L10 2L10 0ZM15 0L15 1L17 1L17 2L16 2L16 3L17 3L17 2L18 2L18 1L19 1L19 0ZM20 0L20 3L19 3L19 4L17 4L17 5L18 5L18 8L19 8L19 4L20 4L20 5L21 5L21 4L20 4L20 3L21 3L21 0ZM14 2L14 3L15 3L15 2ZM10 3L10 4L11 4L11 3ZM8 5L8 7L9 7L9 5ZM13 6L13 7L14 7L14 8L15 8L15 7L16 7L16 6L15 6L15 7L14 7L14 6ZM20 6L20 7L21 7L21 6ZM0 8L0 10L1 10L1 11L0 11L0 15L5 15L5 16L4 16L4 17L3 17L3 16L0 16L0 21L1 21L1 17L2 17L2 18L6 18L6 19L7 19L7 18L8 18L8 23L9 23L9 24L8 24L8 29L9 29L9 27L10 27L10 26L11 26L11 28L10 28L10 29L12 29L12 27L13 27L13 26L11 26L11 21L12 21L12 22L13 22L13 23L12 23L12 25L13 25L13 24L14 24L14 25L15 25L15 27L14 27L14 28L15 28L15 29L17 29L17 27L18 27L18 26L19 26L19 25L17 25L17 20L16 20L16 18L17 18L17 17L16 17L16 15L17 15L17 14L19 14L19 13L20 13L20 15L21 15L21 16L22 16L22 14L23 14L23 15L25 15L25 16L24 16L24 17L23 17L23 18L22 18L22 17L20 17L20 19L21 19L21 18L22 18L22 19L24 19L24 20L19 20L19 21L18 21L18 22L19 22L19 21L20 21L20 23L18 23L18 24L20 24L20 26L21 26L21 28L22 28L22 26L21 26L21 25L24 25L24 26L23 26L23 27L24 27L24 28L23 28L23 29L24 29L24 28L26 28L26 27L25 27L25 23L26 23L26 21L28 21L28 22L27 22L27 23L28 23L28 24L26 24L26 25L27 25L27 28L28 28L28 26L29 26L29 25L28 25L28 24L29 24L29 23L28 23L28 22L29 22L29 21L28 21L28 20L26 20L26 19L25 19L25 18L27 18L27 19L28 19L28 18L29 18L29 17L28 17L28 18L27 18L27 16L28 16L28 15L27 15L27 16L26 16L26 15L25 15L25 14L27 14L27 12L26 12L26 10L28 10L28 8L27 8L27 9L26 9L26 8L25 8L25 9L24 9L24 8L23 8L23 10L24 10L24 11L23 11L23 12L24 12L24 13L22 13L22 12L21 12L21 11L22 11L22 8L21 8L21 10L20 10L20 9L18 9L18 11L19 11L19 10L20 10L20 12L19 12L19 13L17 13L17 12L16 12L16 11L17 11L17 10L15 10L15 11L14 11L14 12L15 12L15 13L12 13L12 11L13 11L13 10L11 10L11 11L10 11L10 9L11 9L11 8L6 8L6 9L8 9L8 10L6 10L6 11L5 11L5 8ZM1 9L1 10L2 10L2 11L1 11L1 12L2 12L2 11L3 11L3 13L2 13L2 14L3 14L3 13L4 13L4 14L5 14L5 13L6 13L6 14L7 14L7 15L6 15L6 16L5 16L5 17L6 17L6 18L7 18L7 17L6 17L6 16L7 16L7 15L8 15L8 14L7 14L7 13L9 13L9 12L8 12L8 11L6 11L6 12L4 12L4 11L3 11L3 10L4 10L4 9L3 9L3 10L2 10L2 9ZM24 11L24 12L25 12L25 13L26 13L26 12L25 12L25 11ZM28 11L28 13L29 13L29 11ZM6 12L6 13L7 13L7 12ZM10 12L10 13L11 13L11 14L10 14L10 15L9 15L9 16L8 16L8 17L9 17L9 19L10 19L10 20L11 20L11 18L13 18L13 19L12 19L12 21L15 21L15 22L16 22L16 21L15 21L15 20L14 20L14 19L15 19L15 18L16 18L16 17L14 17L14 16L15 16L15 15L14 15L14 16L13 16L13 17L12 17L12 15L13 15L13 14L12 14L12 13L11 13L11 12ZM20 12L20 13L21 13L21 12ZM15 13L15 14L17 14L17 13ZM10 15L10 16L9 16L9 17L10 17L10 16L11 16L11 15ZM25 16L25 17L26 17L26 16ZM18 17L18 19L19 19L19 17ZM2 19L2 21L4 21L4 20L5 20L5 19L4 19L4 20L3 20L3 19ZM6 20L6 21L7 21L7 20ZM25 20L25 21L26 21L26 20ZM21 21L21 24L24 24L24 21ZM22 22L22 23L23 23L23 22ZM14 23L14 24L15 24L15 25L16 25L16 23ZM9 24L9 25L10 25L10 24ZM19 27L19 29L20 29L20 27ZM0 0L0 7L7 7L7 0ZM1 1L1 6L6 6L6 1ZM2 2L2 5L5 5L5 2ZM22 0L22 7L29 7L29 0ZM23 1L23 6L28 6L28 1ZM24 2L24 5L27 5L27 2ZM0 22L0 29L7 29L7 22ZM1 23L1 28L6 28L6 23ZM2 24L2 27L5 27L5 24Z" fill="#282828"/></g></g></svg>
