<?xml version="1.0" encoding="UTF-8"?>
<svg xmlns="http://www.w3.org/2000/svg" version="1.1" width="90" height="90" viewBox="0 0 90 90"><rect x="0" y="0" width="90" height="90" fill="#ffffff"/><g transform="scale(2.903)"><g transform="translate(1,1)"><path fill-rule="evenodd" d="M8 0L8 4L9 4L9 5L8 5L8 7L9 7L9 6L10 6L10 9L11 9L11 8L12 8L12 9L13 9L13 10L15 10L15 11L14 11L14 12L13 12L13 11L12 11L12 12L11 12L11 13L9 13L9 12L10 12L10 11L11 11L11 10L9 10L9 9L8 9L8 10L6 10L6 11L5 11L5 10L4 10L4 9L7 9L7 8L4 8L4 9L2 9L2 8L0 8L0 10L1 10L1 9L2 9L2 11L3 11L3 10L4 10L4 12L0 12L0 14L1 14L1 13L2 13L2 15L0 15L0 18L2 18L2 17L1 17L1 16L3 16L3 19L2 19L2 20L0 20L0 21L5 21L5 20L6 20L6 21L8 21L8 22L9 22L9 21L10 21L10 23L11 23L11 24L12 24L12 25L13 25L13 26L15 26L15 27L14 27L14 28L13 28L13 27L12 27L12 28L11 28L11 25L10 25L10 24L9 24L9 23L8 23L8 25L10 25L10 28L11 28L11 29L12 29L12 28L13 28L13 29L15 29L15 28L16 28L16 27L17 27L17 28L18 28L18 27L19 27L19 26L20 26L20 25L21 25L21 27L20 27L20 29L22 29L22 25L26 25L26 26L27 26L27 29L28 29L28 28L29 28L29 25L28 25L28 24L29 24L29 21L26 21L26 20L25 20L25 18L26 18L26 19L28 19L28 20L29 20L29 17L28 17L28 16L29 16L29 13L27 13L27 12L29 12L29 10L28 10L28 9L29 9L29 8L25 8L25 9L24 9L24 8L23 8L23 9L22 9L22 10L25 10L25 13L22 13L22 14L21 14L21 18L20 18L20 20L19 20L19 21L17 21L17 20L18 20L18 19L17 19L17 20L15 20L15 19L16 19L16 18L17 18L17 16L19 16L19 17L18 17L18 18L19 18L19 17L20 17L20 15L19 15L19 13L21 13L21 12L23 12L23 11L21 11L21 10L20 10L20 11L19 11L19 9L21 9L21 6L20 6L20 5L21 5L21 4L20 4L20 5L19 5L19 2L21 2L21 1L20 1L20 0L17 0L17 1L16 1L16 0L15 0L15 1L14 1L14 0L13 0L13 1L11 1L11 2L12 2L12 5L13 5L13 2L15 2L15 4L14 4L14 5L16 5L16 7L15 7L15 6L14 6L14 7L13 7L13 6L12 6L12 7L11 7L11 3L10 3L10 2L9 2L9 0ZM15 1L15 2L16 2L16 5L17 5L17 7L18 7L18 4L17 4L17 2L19 2L19 1L17 1L17 2L16 2L16 1ZM19 6L19 8L17 8L17 9L16 9L16 8L15 8L15 7L14 7L14 9L16 9L16 11L17 11L17 10L18 10L18 9L19 9L19 8L20 8L20 6ZM12 7L12 8L13 8L13 7ZM25 9L25 10L27 10L27 11L26 11L26 12L27 12L27 11L28 11L28 10L27 10L27 9ZM8 10L8 11L6 11L6 12L9 12L9 10ZM18 11L18 12L19 12L19 11ZM20 11L20 12L21 12L21 11ZM12 12L12 13L11 13L11 14L12 14L12 13L13 13L13 14L15 14L15 13L17 13L17 12L15 12L15 13L13 13L13 12ZM3 13L3 14L4 14L4 15L3 15L3 16L4 16L4 17L5 17L5 19L4 19L4 20L5 20L5 19L6 19L6 20L8 20L8 21L9 21L9 20L8 20L8 19L10 19L10 18L11 18L11 20L12 20L12 21L11 21L11 22L12 22L12 21L13 21L13 22L16 22L16 23L14 23L14 25L15 25L15 26L16 26L16 25L19 25L19 24L17 24L17 23L18 23L18 22L16 22L16 21L13 21L13 20L14 20L14 19L15 19L15 18L13 18L13 17L12 17L12 16L13 16L13 15L12 15L12 16L11 16L11 15L10 15L10 14L9 14L9 13L8 13L8 14L7 14L7 13L6 13L6 14L7 14L7 15L6 15L6 16L4 16L4 15L5 15L5 13ZM25 13L25 14L23 14L23 15L26 15L26 16L22 16L22 18L21 18L21 19L22 19L22 18L23 18L23 17L27 17L27 16L28 16L28 15L27 15L27 14L26 14L26 13ZM14 15L14 17L16 17L16 16L15 16L15 15ZM6 16L6 17L7 17L7 16ZM8 16L8 18L10 18L10 17L11 17L11 16L10 16L10 17L9 17L9 16ZM6 18L6 19L7 19L7 18ZM12 19L12 20L13 20L13 19ZM23 19L23 20L24 20L24 19ZM19 21L19 22L20 22L20 21ZM21 21L21 24L24 24L24 21ZM22 22L22 23L23 23L23 22ZM25 22L25 23L26 23L26 24L28 24L28 23L27 23L27 22ZM12 23L12 24L13 24L13 23ZM15 24L15 25L16 25L16 24ZM27 25L27 26L28 26L28 25ZM17 26L17 27L18 27L18 26ZM8 27L8 29L9 29L9 27ZM25 27L25 28L24 28L24 29L26 29L26 27ZM0 0L0 7L7 7L7 0ZM1 1L1 6L6 6L6 1ZM2 2L2 5L5 5L5 2ZM22 0L22 7L29 7L29 0ZM23 1L23 6L28 6L28 1ZM24 2L24 5L27 5L27 2ZM0 22L0 29L7 29L7 22ZM1 23L1 28L6 28L6 23ZM2 24L2 27L5 27L5 24Z" fill="#282828"/></g></g></svg>
