<?xml version="1.0" encoding="UTF-8"?>
<svg xmlns="http://www.w3.org/2000/svg" version="1.1" width="90" height="90" viewBox="0 0 90 90"><rect x="0" y="0" width="90" height="90" fill="#ffffff"/><g transform="scale(2.903)"><g transform="translate(1,1)"><path fill-rule="evenodd" d="M8 0L8 1L9 1L9 2L8 2L8 5L9 5L9 4L11 4L11 5L10 5L10 10L9 10L9 13L8 13L8 14L5 14L5 9L4 9L4 8L0 8L0 9L1 9L1 10L2 10L2 9L3 9L3 10L4 10L4 14L5 14L5 15L3 15L3 16L5 16L5 17L3 17L3 18L2 18L2 14L3 14L3 13L0 13L0 14L1 14L1 15L0 15L0 16L1 16L1 18L0 18L0 19L1 19L1 18L2 18L2 19L3 19L3 20L1 20L1 21L3 21L3 20L4 20L4 21L5 21L5 20L4 20L4 19L7 19L7 20L6 20L6 21L8 21L8 22L9 22L9 21L10 21L10 23L9 23L9 25L8 25L8 29L10 29L10 28L11 28L11 29L12 29L12 28L14 28L14 27L15 27L15 29L16 29L16 28L17 28L17 29L22 29L22 27L23 27L23 29L25 29L25 28L26 28L26 29L28 29L28 27L29 27L29 24L27 24L27 25L26 25L26 24L25 24L25 21L27 21L27 20L28 20L28 22L29 22L29 20L28 20L28 16L27 16L27 18L26 18L26 14L28 14L28 15L29 15L29 13L28 13L28 12L29 12L29 11L28 11L28 10L27 10L27 8L24 8L24 9L23 9L23 10L25 10L25 11L24 11L24 13L25 13L25 14L24 14L24 15L23 15L23 13L22 13L22 12L23 12L23 11L22 11L22 8L21 8L21 9L20 9L20 8L19 8L19 6L20 6L20 7L21 7L21 4L19 4L19 6L18 6L18 7L17 7L17 4L16 4L16 3L15 3L15 2L14 2L14 1L16 1L16 2L17 2L17 0L12 0L12 1L11 1L11 0L10 0L10 1L9 1L9 0ZM20 0L20 2L19 2L19 1L18 1L18 3L20 3L20 2L21 2L21 0ZM11 2L11 4L12 4L12 3L13 3L13 2ZM13 4L13 5L12 5L12 6L11 6L11 8L12 8L12 6L13 6L13 11L11 11L11 13L9 13L9 14L8 14L8 15L9 15L9 18L8 18L8 16L7 16L7 15L5 15L5 16L7 16L7 17L5 17L5 18L8 18L8 19L9 19L9 18L10 18L10 16L11 16L11 19L10 19L10 21L11 21L11 23L10 23L10 24L11 24L11 23L14 23L14 21L17 21L17 22L18 22L18 20L17 20L17 19L18 19L18 18L19 18L19 20L21 20L21 19L22 19L22 20L24 20L24 19L25 19L25 20L26 20L26 18L25 18L25 15L24 15L24 18L23 18L23 19L22 19L22 17L23 17L23 15L22 15L22 13L21 13L21 12L20 12L20 9L19 9L19 11L18 11L18 10L17 10L17 12L16 12L16 10L15 10L15 9L14 9L14 6L15 6L15 7L16 7L16 4ZM13 5L13 6L14 6L14 5ZM8 6L8 7L9 7L9 6ZM6 8L6 9L7 9L7 10L6 10L6 11L7 11L7 12L6 12L6 13L7 13L7 12L8 12L8 9L9 9L9 8L8 8L8 9L7 9L7 8ZM17 8L17 9L18 9L18 8ZM28 8L28 9L29 9L29 8ZM11 9L11 10L12 10L12 9ZM14 10L14 11L13 11L13 12L12 12L12 13L11 13L11 14L9 14L9 15L11 15L11 16L12 16L12 17L13 17L13 18L14 18L14 19L15 19L15 20L16 20L16 18L15 18L15 16L16 16L16 17L17 17L17 18L18 18L18 17L19 17L19 18L21 18L21 17L22 17L22 15L21 15L21 14L17 14L17 13L16 13L16 15L14 15L14 14L13 14L13 13L14 13L14 12L15 12L15 10ZM26 10L26 11L25 11L25 13L27 13L27 10ZM2 11L2 12L3 12L3 11ZM19 12L19 13L20 13L20 12ZM12 14L12 16L14 16L14 15L13 15L13 14ZM17 15L17 16L18 16L18 15ZM19 15L19 16L21 16L21 15ZM11 19L11 20L12 20L12 19ZM8 20L8 21L9 21L9 20ZM21 21L21 24L24 24L24 21ZM15 22L15 24L12 24L12 26L11 26L11 25L9 25L9 27L11 27L11 28L12 28L12 26L13 26L13 27L14 27L14 26L13 26L13 25L15 25L15 27L17 27L17 28L18 28L18 27L19 27L19 26L20 26L20 28L21 28L21 27L22 27L22 26L23 26L23 25L22 25L22 26L21 26L21 25L20 25L20 22L19 22L19 25L18 25L18 26L16 26L16 25L17 25L17 24L18 24L18 23L17 23L17 24L16 24L16 22ZM22 22L22 23L23 23L23 22ZM26 22L26 23L27 23L27 22ZM15 24L15 25L16 25L16 24ZM24 25L24 27L26 27L26 28L27 28L27 27L28 27L28 25L27 25L27 27L26 27L26 26L25 26L25 25ZM0 0L0 7L7 7L7 0ZM1 1L1 6L6 6L6 1ZM2 2L2 5L5 5L5 2ZM22 0L22 7L29 7L29 0ZM23 1L23 6L28 6L28 1ZM24 2L24 5L27 5L27 2ZM0 22L0 29L7 29L7 22ZM1 23L1 28L6 28L6 23ZM2 24L2 27L5 27L5 24Z" fill="#282828"/></g></g></svg>
