<?xml version="1.0" encoding="UTF-8"?>
<svg xmlns="http://www.w3.org/2000/svg" version="1.1" width="90" height="90" viewBox="0 0 90 90"><rect x="0" y="0" width="90" height="90" fill="#ffffff"/><g transform="scale(2.903)"><g transform="translate(1,1)"><path fill-rule="evenodd" d="M8 0L8 1L9 1L9 2L8 2L8 5L9 5L9 4L11 4L11 5L10 5L10 10L9 10L9 8L8 8L8 10L6 10L6 11L8 11L8 10L9 10L9 12L5 12L5 10L4 10L4 12L3 12L3 13L2 13L2 14L1 14L1 15L0 15L0 16L1 16L1 15L2 15L2 16L3 16L3 17L2 17L2 18L3 18L3 19L2 19L2 20L1 20L1 21L2 21L2 20L3 20L3 19L8 19L8 20L10 20L10 21L11 21L11 20L12 20L12 19L11 19L11 18L9 18L9 17L8 17L8 16L6 16L6 17L5 17L5 16L4 16L4 14L6 14L6 15L9 15L9 16L10 16L10 17L11 17L11 16L12 16L12 17L13 17L13 16L12 16L12 14L13 14L13 15L14 15L14 18L13 18L13 21L15 21L15 19L17 19L17 20L18 20L18 21L17 21L17 22L16 22L16 24L15 24L15 22L14 22L14 23L10 23L10 22L9 22L9 21L8 21L8 22L9 22L9 25L8 25L8 29L9 29L9 28L10 28L10 29L12 29L12 28L14 28L14 27L15 27L15 28L16 28L16 29L17 29L17 28L16 28L16 27L19 27L19 28L18 28L18 29L23 29L23 27L24 27L24 28L26 28L26 27L25 27L25 26L24 26L24 25L25 25L25 21L27 21L27 20L28 20L28 22L29 22L29 20L28 20L28 16L27 16L27 18L26 18L26 14L28 14L28 15L29 15L29 13L28 13L28 12L27 12L27 13L25 13L25 16L23 16L23 17L22 17L22 16L20 16L20 17L21 17L21 18L20 18L20 19L22 19L22 20L19 20L19 18L18 18L18 17L19 17L19 16L17 16L17 15L14 15L14 14L16 14L16 13L17 13L17 14L18 14L18 15L20 15L20 14L18 14L18 13L17 13L17 11L18 11L18 12L19 12L19 13L20 13L20 12L21 12L21 13L22 13L22 14L21 14L21 15L22 15L22 14L23 14L23 13L22 13L22 12L25 12L25 11L26 11L26 10L27 10L27 11L28 11L28 10L27 10L27 8L24 8L24 9L22 9L22 8L21 8L21 9L20 9L20 7L21 7L21 5L17 5L17 4L16 4L16 3L17 3L17 2L18 2L18 1L20 1L20 0L18 0L18 1L16 1L16 0L12 0L12 1L11 1L11 0L10 0L10 1L9 1L9 0ZM14 1L14 2L11 2L11 4L12 4L12 3L13 3L13 5L12 5L12 6L11 6L11 8L12 8L12 6L13 6L13 8L14 8L14 9L15 9L15 7L16 7L16 6L15 6L15 5L16 5L16 4L15 4L15 5L14 5L14 3L16 3L16 1ZM20 2L20 3L19 3L19 4L20 4L20 3L21 3L21 2ZM13 5L13 6L14 6L14 7L15 7L15 6L14 6L14 5ZM8 6L8 7L9 7L9 6ZM17 6L17 7L18 7L18 8L17 8L17 9L16 9L16 10L14 10L14 11L11 11L11 13L10 13L10 14L11 14L11 13L12 13L12 12L13 12L13 14L14 14L14 12L15 12L15 11L17 11L17 9L18 9L18 11L19 11L19 12L20 12L20 9L18 9L18 8L19 8L19 7L20 7L20 6L19 6L19 7L18 7L18 6ZM0 8L0 9L1 9L1 10L2 10L2 11L3 11L3 9L4 9L4 8ZM6 8L6 9L7 9L7 8ZM28 8L28 9L29 9L29 8ZM11 9L11 10L12 10L12 9ZM22 10L22 11L23 11L23 10ZM24 10L24 11L25 11L25 10ZM0 11L0 12L1 12L1 11ZM3 13L3 14L4 14L4 13ZM6 13L6 14L8 14L8 13ZM10 15L10 16L11 16L11 15ZM15 16L15 17L16 17L16 16ZM6 17L6 18L8 18L8 19L9 19L9 18L8 18L8 17ZM23 17L23 18L22 18L22 19L23 19L23 18L24 18L24 20L26 20L26 18L24 18L24 17ZM0 18L0 19L1 19L1 18ZM10 19L10 20L11 20L11 19ZM5 20L5 21L7 21L7 20ZM19 21L19 22L18 22L18 23L17 23L17 24L16 24L16 25L17 25L17 26L18 26L18 25L20 25L20 27L21 27L21 28L22 28L22 27L23 27L23 25L22 25L22 26L21 26L21 25L20 25L20 23L19 23L19 22L20 22L20 21ZM21 21L21 24L24 24L24 21ZM22 22L22 23L23 23L23 22ZM26 22L26 23L27 23L27 22ZM18 23L18 24L19 24L19 23ZM10 24L10 25L9 25L9 27L10 27L10 28L12 28L12 26L13 26L13 27L14 27L14 26L15 26L15 27L16 27L16 26L15 26L15 24L12 24L12 26L11 26L11 27L10 27L10 25L11 25L11 24ZM27 24L27 25L26 25L26 26L27 26L27 25L28 25L28 27L27 27L27 29L28 29L28 27L29 27L29 25L28 25L28 24ZM13 25L13 26L14 26L14 25ZM0 0L0 7L7 7L7 0ZM1 1L1 6L6 6L6 1ZM2 2L2 5L5 5L5 2ZM22 0L22 7L29 7L29 0ZM23 1L23 6L28 6L28 1ZM24 2L24 5L27 5L27 2ZM0 22L0 29L7 29L7 22ZM1 23L1 28L6 28L6 23ZM2 24L2 27L5 27L5 24Z" fill="#282828"/></g></g></svg>
