<?xml version="1.0" encoding="UTF-8"?>
<svg xmlns="http://www.w3.org/2000/svg" version="1.1" width="90" height="90" viewBox="0 0 90 90"><rect x="0" y="0" width="90" height="90" fill="#ffffff"/><g transform="scale(2.903)"><g transform="translate(1,1)"><path fill-rule="evenodd" d="M9 0L9 1L8 1L8 2L9 2L9 3L8 3L8 4L10 4L10 7L11 7L11 4L12 4L12 5L13 5L13 6L12 6L12 9L13 9L13 8L14 8L14 9L15 9L15 10L17 10L17 9L18 9L18 8L17 8L17 9L16 9L16 7L17 7L17 5L16 5L16 4L17 4L17 2L16 2L16 4L12 4L12 2L13 2L13 1L11 1L11 2L10 2L10 0ZM15 0L15 1L17 1L17 0ZM18 0L18 3L19 3L19 1L20 1L20 2L21 2L21 1L20 1L20 0ZM14 2L14 3L15 3L15 2ZM10 3L10 4L11 4L11 3ZM18 4L18 7L19 7L19 10L20 10L20 11L18 11L18 12L17 12L17 11L16 11L16 12L17 12L17 13L18 13L18 12L19 12L19 14L20 14L20 15L18 15L18 16L14 16L14 15L17 15L17 14L16 14L16 13L12 13L12 11L13 11L13 10L11 10L11 11L10 11L10 9L11 9L11 8L6 8L6 9L8 9L8 10L6 10L6 11L5 11L5 8L0 8L0 9L1 9L1 10L0 10L0 11L1 11L1 10L3 10L3 11L2 11L2 12L1 12L1 14L0 14L0 15L1 15L1 16L0 16L0 21L1 21L1 16L2 16L2 15L1 15L1 14L5 14L5 15L3 15L3 16L6 16L6 17L4 17L4 19L2 19L2 20L4 20L4 21L8 21L8 23L9 23L9 22L10 22L10 23L11 23L11 21L12 21L12 22L13 22L13 23L12 23L12 25L13 25L13 24L14 24L14 25L18 25L18 24L16 24L16 23L18 23L18 21L17 21L17 18L15 18L15 19L14 19L14 20L15 20L15 21L12 21L12 19L13 19L13 18L10 18L10 20L11 20L11 21L8 21L8 20L9 20L9 18L8 18L8 16L9 16L9 15L10 15L10 17L11 17L11 13L12 13L12 14L13 14L13 15L12 15L12 17L13 17L13 16L14 16L14 17L18 17L18 19L19 19L19 18L20 18L20 20L19 20L19 21L20 21L20 22L19 22L19 24L20 24L20 25L19 25L19 26L18 26L18 28L17 28L17 29L18 29L18 28L19 28L19 29L20 29L20 28L21 28L21 29L23 29L23 28L24 28L24 29L25 29L25 28L26 28L26 29L27 29L27 28L28 28L28 26L29 26L29 25L28 25L28 24L27 24L27 26L26 26L26 25L25 25L25 24L26 24L26 23L25 23L25 19L24 19L24 20L22 20L22 18L25 18L25 17L27 17L27 16L26 16L26 15L25 15L25 14L26 14L26 13L20 13L20 12L22 12L22 11L23 11L23 12L24 12L24 10L25 10L25 12L26 12L26 11L27 11L27 9L28 9L28 8L27 8L27 9L26 9L26 8L25 8L25 9L24 9L24 8L23 8L23 9L22 9L22 8L21 8L21 6L20 6L20 7L19 7L19 5L21 5L21 4ZM8 5L8 7L9 7L9 5ZM13 6L13 7L14 7L14 8L15 8L15 7L16 7L16 6L15 6L15 7L14 7L14 6ZM20 8L20 9L21 9L21 8ZM3 9L3 10L4 10L4 9ZM8 10L8 11L6 11L6 12L7 12L7 13L5 13L5 11L4 11L4 12L2 12L2 13L5 13L5 14L7 14L7 13L8 13L8 15L6 15L6 16L8 16L8 15L9 15L9 14L10 14L10 13L11 13L11 12L10 12L10 13L8 13L8 11L9 11L9 10ZM21 10L21 11L22 11L22 10ZM14 11L14 12L15 12L15 11ZM28 11L28 12L27 12L27 13L28 13L28 14L27 14L27 15L28 15L28 14L29 14L29 13L28 13L28 12L29 12L29 11ZM22 14L22 15L20 15L20 17L21 17L21 16L22 16L22 17L25 17L25 15L23 15L23 14ZM18 16L18 17L19 17L19 16ZM2 17L2 18L3 18L3 17ZM6 17L6 18L7 18L7 17ZM28 17L28 18L26 18L26 19L28 19L28 18L29 18L29 17ZM6 19L6 20L7 20L7 19ZM26 20L26 21L28 21L28 22L27 22L27 23L28 23L28 22L29 22L29 21L28 21L28 20ZM15 21L15 22L17 22L17 21ZM21 21L21 24L24 24L24 21ZM22 22L22 23L23 23L23 22ZM14 23L14 24L15 24L15 23ZM8 24L8 29L9 29L9 28L10 28L10 27L11 27L11 29L12 29L12 27L13 27L13 26L10 26L10 25L11 25L11 24ZM20 25L20 27L19 27L19 28L20 28L20 27L21 27L21 26L22 26L22 28L23 28L23 26L25 26L25 27L26 27L26 28L27 28L27 27L26 27L26 26L25 26L25 25ZM9 26L9 27L10 27L10 26ZM15 26L15 27L14 27L14 28L15 28L15 29L16 29L16 27L17 27L17 26ZM0 0L0 7L7 7L7 0ZM1 1L1 6L6 6L6 1ZM2 2L2 5L5 5L5 2ZM22 0L22 7L29 7L29 0ZM23 1L23 6L28 6L28 1ZM24 2L24 5L27 5L27 2ZM0 22L0 29L7 29L7 22ZM1 23L1 28L6 28L6 23ZM2 24L2 27L5 27L5 24Z" fill="#282828"/></g></g></svg>
