<?xml version="1.0" encoding="UTF-8"?>
<svg xmlns="http://www.w3.org/2000/svg" version="1.1" width="90" height="90" viewBox="0 0 90 90"><rect x="0" y="0" width="90" height="90" fill="#ffffff"/><g transform="scale(2.903)"><g transform="translate(1,1)"><path fill-rule="evenodd" d="M8 0L8 1L10 1L10 0ZM15 0L15 1L14 1L14 2L11 2L11 4L10 4L10 3L9 3L9 2L8 2L8 5L9 5L9 6L8 6L8 7L9 7L9 8L8 8L8 9L7 9L7 8L6 8L6 9L7 9L7 10L6 10L6 11L8 11L8 13L7 13L7 12L4 12L4 11L5 11L5 9L4 9L4 8L0 8L0 9L2 9L2 10L3 10L3 9L4 9L4 11L3 11L3 13L2 13L2 11L1 11L1 12L0 12L0 13L1 13L1 14L3 14L3 15L4 15L4 16L5 16L5 17L4 17L4 18L3 18L3 17L1 17L1 18L0 18L0 19L1 19L1 18L3 18L3 19L2 19L2 20L1 20L1 21L3 21L3 20L4 20L4 21L5 21L5 19L7 19L7 18L5 18L5 17L7 17L7 16L9 16L9 17L10 17L10 18L8 18L8 22L9 22L9 21L10 21L10 22L11 22L11 23L9 23L9 25L8 25L8 29L9 29L9 25L11 25L11 26L10 26L10 29L11 29L11 28L12 28L12 29L13 29L13 28L12 28L12 26L13 26L13 27L14 27L14 29L21 29L21 28L22 28L22 29L24 29L24 28L26 28L26 27L24 27L24 26L25 26L25 25L26 25L26 24L25 24L25 21L27 21L27 20L28 20L28 22L29 22L29 20L28 20L28 16L27 16L27 18L26 18L26 14L28 14L28 15L29 15L29 13L26 13L26 12L25 12L25 11L26 11L26 10L27 10L27 12L29 12L29 11L28 11L28 10L27 10L27 8L24 8L24 9L22 9L22 8L21 8L21 9L20 9L20 7L21 7L21 4L19 4L19 6L18 6L18 7L17 7L17 6L16 6L16 8L17 8L17 10L16 10L16 11L17 11L17 10L18 10L18 11L19 11L19 10L20 10L20 12L19 12L19 14L17 14L17 15L18 15L18 17L17 17L17 16L16 16L16 15L15 15L15 14L16 14L16 13L18 13L18 12L15 12L15 10L14 10L14 11L11 11L11 13L10 13L10 12L9 12L9 10L10 10L10 9L9 9L9 8L10 8L10 7L11 7L11 8L12 8L12 7L13 7L13 9L15 9L15 5L14 5L14 4L13 4L13 5L12 5L12 3L16 3L16 1L17 1L17 2L18 2L18 3L17 3L17 5L18 5L18 3L20 3L20 2L21 2L21 0L20 0L20 2L18 2L18 0ZM10 5L10 6L9 6L9 7L10 7L10 6L11 6L11 7L12 7L12 5ZM13 5L13 7L14 7L14 5ZM19 6L19 7L20 7L20 6ZM28 8L28 9L29 9L29 8ZM8 9L8 10L9 10L9 9ZM21 10L21 11L22 11L22 12L20 12L20 14L21 14L21 18L20 18L20 17L18 17L18 18L17 18L17 19L15 19L15 17L16 17L16 16L15 16L15 15L14 15L14 14L15 14L15 12L12 12L12 14L11 14L11 16L10 16L10 13L8 13L8 14L7 14L7 13L5 13L5 14L4 14L4 15L6 15L6 16L7 16L7 15L9 15L9 16L10 16L10 17L11 17L11 18L10 18L10 20L12 20L12 19L11 19L11 18L12 18L12 17L14 17L14 18L13 18L13 20L14 20L14 21L15 21L15 22L14 22L14 23L11 23L11 25L12 25L12 24L13 24L13 26L14 26L14 27L15 27L15 28L16 28L16 27L17 27L17 28L20 28L20 27L19 27L19 25L20 25L20 23L19 23L19 22L20 22L20 20L24 20L24 19L25 19L25 20L26 20L26 18L25 18L25 17L24 17L24 18L23 18L23 16L22 16L22 15L24 15L24 16L25 16L25 15L24 15L24 14L26 14L26 13L25 13L25 12L24 12L24 11L25 11L25 10ZM13 13L13 14L12 14L12 16L11 16L11 17L12 17L12 16L14 16L14 15L13 15L13 14L14 14L14 13ZM22 13L22 14L23 14L23 13ZM6 14L6 15L7 15L7 14ZM18 18L18 19L17 19L17 20L16 20L16 22L17 22L17 21L18 21L18 22L19 22L19 18ZM21 18L21 19L22 19L22 18ZM6 20L6 21L7 21L7 20ZM11 21L11 22L12 22L12 21ZM21 21L21 24L24 24L24 21ZM22 22L22 23L23 23L23 22ZM26 22L26 23L27 23L27 25L28 25L28 27L27 27L27 29L28 29L28 27L29 27L29 25L28 25L28 23L27 23L27 22ZM16 23L16 24L14 24L14 26L17 26L17 27L18 27L18 26L17 26L17 25L18 25L18 24L19 24L19 23L18 23L18 24L17 24L17 23ZM22 25L22 26L21 26L21 27L22 27L22 28L23 28L23 27L22 27L22 26L23 26L23 25ZM0 0L0 7L7 7L7 0ZM1 1L1 6L6 6L6 1ZM2 2L2 5L5 5L5 2ZM22 0L22 7L29 7L29 0ZM23 1L23 6L28 6L28 1ZM24 2L24 5L27 5L27 2ZM0 22L0 29L7 29L7 22ZM1 23L1 28L6 28L6 23ZM2 24L2 27L5 27L5 24Z" fill="#282828"/></g></g></svg>
