<?xml version="1.0" encoding="UTF-8"?>
<svg xmlns="http://www.w3.org/2000/svg" version="1.1" width="90" height="90" viewBox="0 0 90 90"><rect x="0" y="0" width="90" height="90" fill="#ffffff"/><g transform="scale(3.333)"><g transform="translate(1,1)"><path fill-rule="evenodd" d="M8 0L8 1L10 1L10 0ZM13 0L13 1L14 1L14 2L11 2L11 4L10 4L10 3L9 3L9 2L8 2L8 5L9 5L9 6L8 6L8 7L9 7L9 8L8 8L8 10L5 10L5 9L4 9L4 8L0 8L0 9L2 9L2 10L3 10L3 11L4 11L4 15L2 15L2 14L3 14L3 13L2 13L2 11L0 11L0 12L1 12L1 13L2 13L2 14L1 14L1 15L0 15L0 16L1 16L1 15L2 15L2 16L4 16L4 17L5 17L5 16L6 16L6 17L8 17L8 18L9 18L9 20L11 20L11 21L10 21L10 22L11 22L11 24L13 24L13 25L14 25L14 24L15 24L15 25L16 25L16 24L15 24L15 23L12 23L12 22L13 22L13 21L12 21L12 20L13 20L13 18L15 18L15 20L16 20L16 21L14 21L14 22L16 22L16 21L17 21L17 22L19 22L19 23L18 23L18 25L19 25L19 24L20 24L20 23L21 23L21 22L22 22L22 24L21 24L21 25L25 25L25 24L23 24L23 23L24 23L24 22L25 22L25 20L24 20L24 19L25 19L25 17L24 17L24 16L25 16L25 15L23 15L23 17L21 17L21 16L20 16L20 15L22 15L22 14L23 14L23 13L24 13L24 14L25 14L25 12L24 12L24 9L25 9L25 8L24 8L24 9L23 9L23 8L20 8L20 9L18 9L18 8L17 8L17 9L15 9L15 8L16 8L16 7L17 7L17 6L16 6L16 7L15 7L15 5L14 5L14 4L16 4L16 5L17 5L17 4L16 4L16 3L17 3L17 0L15 0L15 1L14 1L14 0ZM15 1L15 2L14 2L14 3L12 3L12 5L10 5L10 6L9 6L9 7L10 7L10 8L9 8L9 9L10 9L10 10L9 10L9 11L5 11L5 12L7 12L7 13L5 13L5 14L7 14L7 15L6 15L6 16L7 16L7 15L8 15L8 17L9 17L9 18L10 18L10 19L11 19L11 20L12 20L12 19L11 19L11 18L12 18L12 17L13 17L13 16L14 16L14 15L16 15L16 16L15 16L15 18L16 18L16 16L17 16L17 15L18 15L18 14L19 14L19 13L23 13L23 12L21 12L21 11L22 11L22 10L23 10L23 9L20 9L20 10L21 10L21 11L18 11L18 9L17 9L17 12L19 12L19 13L18 13L18 14L16 14L16 13L15 13L15 14L14 14L14 13L13 13L13 12L12 12L12 14L11 14L11 15L10 15L10 14L9 14L9 15L8 15L8 13L9 13L9 12L10 12L10 13L11 13L11 11L14 11L14 12L15 12L15 11L16 11L16 10L15 10L15 11L14 11L14 8L15 8L15 7L14 7L14 5L13 5L13 4L14 4L14 3L16 3L16 1ZM12 5L12 7L11 7L11 6L10 6L10 7L11 7L11 8L12 8L12 7L13 7L13 5ZM6 8L6 9L7 9L7 8ZM12 14L12 16L9 16L9 17L10 17L10 18L11 18L11 17L12 17L12 16L13 16L13 15L14 15L14 14ZM17 17L17 20L20 20L20 17ZM18 18L18 19L19 19L19 18ZM22 18L22 22L23 22L23 21L24 21L24 20L23 20L23 19L24 19L24 18ZM8 21L8 25L10 25L10 23L9 23L9 21ZM11 21L11 22L12 22L12 21ZM19 21L19 22L21 22L21 21ZM0 0L0 7L7 7L7 0ZM1 1L1 6L6 6L6 1ZM2 2L2 5L5 5L5 2ZM18 0L18 7L25 7L25 0ZM19 1L19 6L24 6L24 1ZM20 2L20 5L23 5L23 2ZM0 18L0 25L7 25L7 18ZM1 19L1 24L6 24L6 19ZM2 20L2 23L5 23L5 20Z" fill="#282828"/></g></g></svg>
