<?xml version="1.0" encoding="UTF-8"?>
<svg xmlns="http://www.w3.org/2000/svg" version="1.1" width="90" height="90" viewBox="0 0 90 90"><rect x="0" y="0" width="90" height="90" fill="#ffffff"/><g transform="scale(3.333)"><g transform="translate(1,1)"><path fill-rule="evenodd" d="M9 0L9 1L8 1L8 3L9 3L9 4L8 4L8 8L6 8L6 9L7 9L7 10L4 10L4 12L5 12L5 13L4 13L4 14L3 14L3 9L4 9L4 8L3 8L3 9L2 9L2 8L0 8L0 9L1 9L1 11L0 11L0 12L1 12L1 13L2 13L2 14L3 14L3 16L2 16L2 15L1 15L1 14L0 14L0 15L1 15L1 16L0 16L0 17L3 17L3 16L4 16L4 17L5 17L5 16L6 16L6 17L7 17L7 16L8 16L8 19L10 19L10 21L8 21L8 22L10 22L10 21L12 21L12 20L13 20L13 23L12 23L12 24L13 24L13 25L15 25L15 24L16 24L16 25L17 25L17 24L20 24L20 25L21 25L21 24L22 24L22 23L23 23L23 22L22 22L22 20L23 20L23 21L24 21L24 20L23 20L23 18L24 18L24 19L25 19L25 16L24 16L24 17L23 17L23 18L22 18L22 20L21 20L21 16L20 16L20 13L24 13L24 14L23 14L23 15L25 15L25 12L24 12L24 11L25 11L25 9L24 9L24 8L22 8L22 9L24 9L24 11L23 11L23 10L18 10L18 9L21 9L21 8L18 8L18 9L17 9L17 4L16 4L16 3L17 3L17 1L15 1L15 0L14 0L14 1L15 1L15 2L14 2L14 3L13 3L13 0L12 0L12 1L11 1L11 2L9 2L9 1L10 1L10 0ZM12 3L12 4L9 4L9 5L10 5L10 6L9 6L9 7L10 7L10 8L8 8L8 9L9 9L9 10L7 10L7 11L5 11L5 12L7 12L7 13L5 13L5 14L4 14L4 15L6 15L6 16L7 16L7 15L6 15L6 14L7 14L7 13L8 13L8 16L10 16L10 15L11 15L11 16L12 16L12 14L10 14L10 13L12 13L12 12L13 12L13 11L14 11L14 13L13 13L13 15L14 15L14 16L13 16L13 17L11 17L11 18L10 18L10 19L11 19L11 20L12 20L12 19L13 19L13 20L14 20L14 21L16 21L16 22L15 22L15 23L14 23L14 24L15 24L15 23L18 23L18 22L19 22L19 23L20 23L20 22L21 22L21 23L22 23L22 22L21 22L21 21L20 21L20 22L19 22L19 21L16 21L16 18L15 18L15 20L14 20L14 18L13 18L13 17L15 17L15 16L19 16L19 13L20 13L20 12L23 12L23 11L18 11L18 10L17 10L17 11L18 11L18 12L19 12L19 13L18 13L18 15L17 15L17 12L15 12L15 11L16 11L16 10L14 10L14 8L15 8L15 9L16 9L16 8L15 8L15 7L16 7L16 6L15 6L15 5L16 5L16 4L15 4L15 5L14 5L14 4L13 4L13 3ZM11 5L11 6L10 6L10 7L11 7L11 6L12 6L12 8L13 8L13 6L12 6L12 5ZM14 6L14 7L15 7L15 6ZM10 8L10 10L9 10L9 11L11 11L11 10L12 10L12 9L11 9L11 8ZM1 11L1 12L2 12L2 11ZM7 11L7 12L8 12L8 13L9 13L9 12L8 12L8 11ZM14 13L14 14L16 14L16 13ZM9 14L9 15L10 15L10 14ZM21 14L21 15L22 15L22 14ZM17 17L17 20L20 20L20 17ZM18 18L18 19L19 19L19 18ZM24 22L24 23L25 23L25 22ZM8 23L8 25L9 25L9 23ZM23 24L23 25L25 25L25 24ZM0 0L0 7L7 7L7 0ZM1 1L1 6L6 6L6 1ZM2 2L2 5L5 5L5 2ZM18 0L18 7L25 7L25 0ZM19 1L19 6L24 6L24 1ZM20 2L20 5L23 5L23 2ZM0 18L0 25L7 25L7 18ZM1 19L1 24L6 24L6 19ZM2 20L2 23L5 23L5 20Z" fill="#282828"/></g></g></svg>
