<?xml version="1.0" encoding="UTF-8"?>
<svg xmlns="http://www.w3.org/2000/svg" version="1.1" width="90" height="90" viewBox="0 0 90 90"><rect x="0" y="0" width="90" height="90" fill="#ffffff"/><g transform="scale(3.333)"><g transform="translate(1,1)"><path fill-rule="evenodd" d="M9 0L9 2L8 2L8 3L9 3L9 5L10 5L10 7L11 7L11 8L12 8L12 7L13 7L13 8L16 8L16 9L15 9L15 10L14 10L14 9L13 9L13 10L14 10L14 11L13 11L13 12L12 12L12 11L11 11L11 10L10 10L10 9L9 9L9 6L8 6L8 8L4 8L4 10L3 10L3 11L2 11L2 10L1 10L1 12L2 12L2 15L1 15L1 14L0 14L0 15L1 15L1 16L0 16L0 17L1 17L1 16L2 16L2 15L4 15L4 17L8 17L8 21L9 21L9 22L8 22L8 25L10 25L10 24L15 24L15 25L17 25L17 24L16 24L16 23L17 23L17 22L15 22L15 23L10 23L10 24L9 24L9 22L10 22L10 21L9 21L9 15L10 15L10 16L12 16L12 15L13 15L13 16L14 16L14 14L13 14L13 12L15 12L15 14L17 14L17 15L20 15L20 16L16 16L16 15L15 15L15 18L16 18L16 21L19 21L19 22L18 22L18 25L19 25L19 24L20 24L20 25L21 25L21 24L22 24L22 23L21 23L21 22L22 22L22 20L21 20L21 18L22 18L22 19L23 19L23 21L24 21L24 20L25 20L25 16L24 16L24 19L23 19L23 18L22 18L22 17L23 17L23 16L21 16L21 15L22 15L22 14L23 14L23 13L24 13L24 15L25 15L25 12L20 12L20 11L21 11L21 10L22 10L22 11L23 11L23 8L22 8L22 9L21 9L21 10L18 10L18 9L19 9L19 8L17 8L17 4L16 4L16 3L17 3L17 2L16 2L16 1L15 1L15 0L11 0L11 2L10 2L10 0ZM13 1L13 2L11 2L11 3L10 3L10 2L9 2L9 3L10 3L10 4L11 4L11 3L14 3L14 1ZM15 2L15 3L16 3L16 2ZM13 4L13 7L14 7L14 4ZM11 6L11 7L12 7L12 6ZM15 6L15 7L16 7L16 6ZM0 8L0 9L3 9L3 8ZM5 9L5 10L4 10L4 12L5 12L5 15L6 15L6 16L8 16L8 15L9 15L9 13L10 13L10 12L9 12L9 11L10 11L10 10L9 10L9 11L8 11L8 9ZM24 9L24 11L25 11L25 9ZM6 10L6 11L5 11L5 12L6 12L6 13L8 13L8 11L7 11L7 10ZM15 10L15 12L16 12L16 10ZM6 11L6 12L7 12L7 11ZM18 11L18 12L19 12L19 13L18 13L18 14L22 14L22 13L20 13L20 12L19 12L19 11ZM11 12L11 15L12 15L12 12ZM3 13L3 14L4 14L4 13ZM6 14L6 15L7 15L7 14ZM12 17L12 18L14 18L14 17ZM17 17L17 20L20 20L20 17ZM10 18L10 20L11 20L11 22L14 22L14 21L12 21L12 20L14 20L14 19L12 19L12 20L11 20L11 18ZM18 18L18 19L19 19L19 18ZM20 21L20 22L21 22L21 21ZM24 22L24 23L23 23L23 25L25 25L25 24L24 24L24 23L25 23L25 22ZM20 23L20 24L21 24L21 23ZM0 0L0 7L7 7L7 0ZM1 1L1 6L6 6L6 1ZM2 2L2 5L5 5L5 2ZM18 0L18 7L25 7L25 0ZM19 1L19 6L24 6L24 1ZM20 2L20 5L23 5L23 2ZM0 18L0 25L7 25L7 18ZM1 19L1 24L6 24L6 19ZM2 20L2 23L5 23L5 20Z" fill="#282828"/></g></g></svg>
