<?xml version="1.0" encoding="UTF-8"?>
<svg xmlns="http://www.w3.org/2000/svg" version="1.1" width="90" height="90" viewBox="0 0 90 90"><rect x="0" y="0" width="90" height="90" fill="#ffffff"/><g transform="scale(3.333)"><g transform="translate(1,1)"><path fill-rule="evenodd" d="M9 0L9 1L8 1L8 2L9 2L9 3L8 3L8 4L9 4L9 3L11 3L11 1L13 1L13 0ZM16 0L16 1L15 1L15 2L14 2L14 3L13 3L13 2L12 2L12 3L13 3L13 4L10 4L10 5L8 5L8 7L9 7L9 8L6 8L6 9L5 9L5 8L0 8L0 9L2 9L2 12L3 12L3 13L0 13L0 17L1 17L1 14L2 14L2 15L3 15L3 17L4 17L4 16L5 16L5 17L7 17L7 16L8 16L8 19L9 19L9 20L8 20L8 25L10 25L10 24L9 24L9 22L11 22L11 21L13 21L13 23L14 23L14 22L15 22L15 24L14 24L14 25L16 25L16 24L17 24L17 25L19 25L19 23L20 23L20 22L19 22L19 21L21 21L21 25L25 25L25 21L24 21L24 19L25 19L25 18L24 18L24 17L25 17L25 14L24 14L24 13L25 13L25 10L24 10L24 8L23 8L23 9L22 9L22 8L21 8L21 10L24 10L24 11L23 11L23 13L22 13L22 15L23 15L23 16L24 16L24 17L23 17L23 18L24 18L24 19L23 19L23 20L22 20L22 21L21 21L21 19L22 19L22 17L21 17L21 14L20 14L20 13L21 13L21 12L20 12L20 11L17 11L17 9L18 9L18 8L13 8L13 6L14 6L14 7L15 7L15 6L16 6L16 7L17 7L17 6L16 6L16 5L17 5L17 4L16 4L16 5L14 5L14 4L15 4L15 2L16 2L16 3L17 3L17 2L16 2L16 1L17 1L17 0ZM10 5L10 6L9 6L9 7L10 7L10 6L11 6L11 8L10 8L10 9L9 9L9 11L8 11L8 9L6 9L6 10L5 10L5 9L4 9L4 11L5 11L5 12L4 12L4 13L3 13L3 15L4 15L4 14L5 14L5 15L6 15L6 16L7 16L7 15L6 15L6 14L8 14L8 16L9 16L9 15L10 15L10 16L11 16L11 15L12 15L12 17L11 17L11 19L10 19L10 18L9 18L9 19L10 19L10 21L11 21L11 20L12 20L12 18L13 18L13 21L14 21L14 20L16 20L16 19L15 19L15 16L16 16L16 15L17 15L17 16L18 16L18 15L19 15L19 13L20 13L20 12L19 12L19 13L17 13L17 12L16 12L16 13L13 13L13 12L15 12L15 11L14 11L14 10L16 10L16 9L12 9L12 6L13 6L13 5ZM19 8L19 10L20 10L20 8ZM11 9L11 10L10 10L10 11L11 11L11 10L12 10L12 12L13 12L13 10L12 10L12 9ZM6 10L6 11L7 11L7 10ZM5 12L5 14L6 14L6 13L8 13L8 12ZM9 12L9 13L11 13L11 14L10 14L10 15L11 15L11 14L12 14L12 13L11 13L11 12ZM16 13L16 14L14 14L14 16L13 16L13 17L14 17L14 16L15 16L15 15L16 15L16 14L17 14L17 15L18 15L18 14L17 14L17 13ZM23 14L23 15L24 15L24 14ZM17 17L17 20L20 20L20 17ZM18 18L18 19L19 19L19 18ZM16 21L16 23L19 23L19 22L17 22L17 21ZM22 21L22 22L23 22L23 23L22 23L22 24L24 24L24 22L23 22L23 21ZM12 24L12 25L13 25L13 24ZM0 0L0 7L7 7L7 0ZM1 1L1 6L6 6L6 1ZM2 2L2 5L5 5L5 2ZM18 0L18 7L25 7L25 0ZM19 1L19 6L24 6L24 1ZM20 2L20 5L23 5L23 2ZM0 18L0 25L7 25L7 18ZM1 19L1 24L6 24L6 19ZM2 20L2 23L5 23L5 20Z" fill="#282828"/></g></g></svg>
