<?xml version="1.0" encoding="UTF-8"?>
<svg xmlns="http://www.w3.org/2000/svg" version="1.1" width="90" height="90" viewBox="0 0 90 90"><rect x="0" y="0" width="90" height="90" fill="#ffffff"/><g transform="scale(3.333)"><g transform="translate(1,1)"><path fill-rule="evenodd" d="M10 0L10 1L8 1L8 3L9 3L9 2L11 2L11 4L10 4L10 5L9 5L9 4L8 4L8 8L6 8L6 9L8 9L8 10L10 10L10 11L9 11L9 12L10 12L10 13L8 13L8 12L6 12L6 11L7 11L7 10L6 10L6 11L5 11L5 9L4 9L4 8L3 8L3 9L2 9L2 8L0 8L0 9L2 9L2 10L4 10L4 11L3 11L3 12L2 12L2 11L1 11L1 10L0 10L0 13L3 13L3 15L1 15L1 14L0 14L0 15L1 15L1 16L0 16L0 17L5 17L5 16L4 16L4 13L5 13L5 14L6 14L6 15L7 15L7 14L8 14L8 16L6 16L6 17L8 17L8 19L9 19L9 20L12 20L12 21L13 21L13 22L12 22L12 23L13 23L13 24L11 24L11 25L14 25L14 23L15 23L15 22L17 22L17 21L19 21L19 22L18 22L18 23L19 23L19 24L20 24L20 25L21 25L21 24L20 24L20 23L21 23L21 22L22 22L22 21L21 21L21 20L23 20L23 22L24 22L24 23L25 23L25 20L24 20L24 19L25 19L25 16L24 16L24 17L23 17L23 16L22 16L22 15L25 15L25 12L24 12L24 11L25 11L25 10L23 10L23 9L24 9L24 8L22 8L22 10L19 10L19 9L21 9L21 8L18 8L18 9L17 9L17 6L16 6L16 5L17 5L17 4L16 4L16 3L17 3L17 2L16 2L16 0L13 0L13 2L12 2L12 0ZM13 2L13 4L12 4L12 5L10 5L10 6L9 6L9 7L10 7L10 8L11 8L11 9L13 9L13 8L14 8L14 10L15 10L15 12L12 12L12 11L13 11L13 10L11 10L11 14L10 14L10 16L9 16L9 17L10 17L10 16L13 16L13 18L9 18L9 19L13 19L13 20L14 20L14 19L15 19L15 21L14 21L14 22L15 22L15 21L16 21L16 19L15 19L15 18L14 18L14 17L15 17L15 15L16 15L16 16L17 16L17 13L18 13L18 12L19 12L19 13L20 13L20 15L21 15L21 14L24 14L24 13L22 13L22 12L23 12L23 11L19 11L19 10L18 10L18 11L16 11L16 6L15 6L15 5L14 5L14 6L13 6L13 8L12 8L12 5L13 5L13 4L14 4L14 3L16 3L16 2ZM10 6L10 7L11 7L11 6ZM14 6L14 8L15 8L15 6ZM8 8L8 9L9 9L9 8ZM4 11L4 12L3 12L3 13L4 13L4 12L5 12L5 11ZM6 13L6 14L7 14L7 13ZM12 13L12 14L11 14L11 15L13 15L13 16L14 16L14 14L13 14L13 13ZM18 15L18 16L19 16L19 15ZM21 16L21 19L24 19L24 18L22 18L22 16ZM17 17L17 20L20 20L20 17ZM13 18L13 19L14 19L14 18ZM18 18L18 19L19 19L19 18ZM8 21L8 22L9 22L9 23L8 23L8 25L10 25L10 24L9 24L9 23L10 23L10 22L11 22L11 21ZM19 22L19 23L20 23L20 22ZM16 23L16 24L15 24L15 25L17 25L17 23ZM22 24L22 25L25 25L25 24ZM0 0L0 7L7 7L7 0ZM1 1L1 6L6 6L6 1ZM2 2L2 5L5 5L5 2ZM18 0L18 7L25 7L25 0ZM19 1L19 6L24 6L24 1ZM20 2L20 5L23 5L23 2ZM0 18L0 25L7 25L7 18ZM1 19L1 24L6 24L6 19ZM2 20L2 23L5 23L5 20Z" fill="#282828"/></g></g></svg>
