<?xml version="1.0" encoding="UTF-8"?>
<svg xmlns="http://www.w3.org/2000/svg" version="1.1" width="90" height="90" viewBox="0 0 90 90"><rect x="0" y="0" width="90" height="90" fill="#ffffff"/><g transform="scale(3.333)"><g transform="translate(1,1)"><path fill-rule="evenodd" d="M8 0L8 1L11 1L11 3L10 3L10 2L9 2L9 3L10 3L10 5L9 5L9 6L8 6L8 8L9 8L9 9L7 9L7 8L6 8L6 9L5 9L5 8L3 8L3 9L2 9L2 8L0 8L0 9L1 9L1 10L0 10L0 11L1 11L1 10L2 10L2 13L3 13L3 9L4 9L4 10L5 10L5 11L4 11L4 12L5 12L5 13L7 13L7 14L6 14L6 15L7 15L7 16L5 16L5 15L4 15L4 14L1 14L1 12L0 12L0 17L1 17L1 15L4 15L4 16L3 16L3 17L4 17L4 16L5 16L5 17L7 17L7 16L8 16L8 15L9 15L9 17L8 17L8 18L10 18L10 17L12 17L12 18L11 18L11 19L12 19L12 21L11 21L11 20L8 20L8 22L9 22L9 23L8 23L8 25L10 25L10 22L11 22L11 25L12 25L12 24L13 24L13 23L14 23L14 24L15 24L15 23L14 23L14 21L15 21L15 22L17 22L17 23L16 23L16 25L17 25L17 23L18 23L18 24L19 24L19 25L22 25L22 24L24 24L24 25L25 25L25 21L24 21L24 20L25 20L25 18L23 18L23 17L25 17L25 14L24 14L24 13L25 13L25 12L24 12L24 11L25 11L25 10L24 10L24 9L25 9L25 8L24 8L24 9L22 9L22 10L21 10L21 9L19 9L19 8L18 8L18 10L19 10L19 12L18 12L18 13L17 13L17 11L16 11L16 10L15 10L15 9L17 9L17 8L16 8L16 7L17 7L17 3L16 3L16 2L17 2L17 1L16 1L16 0L13 0L13 1L12 1L12 0ZM14 1L14 3L13 3L13 2L12 2L12 3L13 3L13 4L16 4L16 3L15 3L15 2L16 2L16 1ZM10 5L10 6L9 6L9 7L10 7L10 9L9 9L9 10L10 10L10 11L9 11L9 12L12 12L12 13L13 13L13 14L11 14L11 15L10 15L10 14L9 14L9 13L8 13L8 12L7 12L7 11L5 11L5 12L7 12L7 13L8 13L8 14L7 14L7 15L8 15L8 14L9 14L9 15L10 15L10 16L12 16L12 17L13 17L13 18L12 18L12 19L14 19L14 20L15 20L15 16L14 16L14 13L15 13L15 12L16 12L16 11L15 11L15 12L14 12L14 9L13 9L13 8L12 8L12 6L11 6L11 5ZM13 5L13 7L14 7L14 8L15 8L15 7L16 7L16 5ZM10 6L10 7L11 7L11 6ZM14 6L14 7L15 7L15 6ZM6 9L6 10L7 10L7 9ZM10 9L10 10L11 10L11 11L13 11L13 9ZM22 10L22 11L23 11L23 10ZM20 11L20 12L21 12L21 13L22 13L22 12L21 12L21 11ZM13 12L13 13L14 13L14 12ZM23 12L23 13L24 13L24 12ZM16 13L16 15L17 15L17 16L19 16L19 15L20 15L20 13L19 13L19 15L18 15L18 14L17 14L17 13ZM21 14L21 15L24 15L24 14ZM12 15L12 16L13 16L13 15ZM21 16L21 18L22 18L22 17L23 17L23 16ZM17 17L17 20L20 20L20 17ZM18 18L18 19L19 19L19 18ZM22 19L22 20L21 20L21 22L22 22L22 21L23 21L23 20L24 20L24 19ZM12 21L12 22L13 22L13 21ZM19 21L19 22L20 22L20 21ZM19 23L19 24L22 24L22 23ZM0 0L0 7L7 7L7 0ZM1 1L1 6L6 6L6 1ZM2 2L2 5L5 5L5 2ZM18 0L18 7L25 7L25 0ZM19 1L19 6L24 6L24 1ZM20 2L20 5L23 5L23 2ZM0 18L0 25L7 25L7 18ZM1 19L1 24L6 24L6 19ZM2 20L2 23L5 23L5 20Z" fill="#282828"/></g></g></svg>
