<?xml version="1.0" encoding="UTF-8"?>
<svg xmlns="http://www.w3.org/2000/svg" version="1.1" width="90" height="90" viewBox="0 0 90 90"><rect x="0" y="0" width="90" height="90" fill="#ffffff"/><g transform="scale(3.333)"><g transform="translate(1,1)"><path fill-rule="evenodd" d="M8 0L8 1L10 1L10 0ZM15 0L15 1L14 1L14 2L11 2L11 4L10 4L10 3L9 3L9 2L8 2L8 5L9 5L9 6L8 6L8 7L9 7L9 8L8 8L8 9L7 9L7 8L6 8L6 9L4 9L4 8L0 8L0 11L1 11L1 9L2 9L2 11L4 11L4 12L3 12L3 13L4 13L4 12L6 12L6 13L7 13L7 14L6 14L6 15L8 15L8 14L9 14L9 13L10 13L10 14L12 14L12 16L11 16L11 15L9 15L9 17L8 17L8 16L5 16L5 14L4 14L4 15L3 15L3 14L1 14L1 15L0 15L0 16L1 16L1 15L3 15L3 17L8 17L8 18L9 18L9 20L10 20L10 22L9 22L9 21L8 21L8 25L9 25L9 23L10 23L10 24L11 24L11 23L13 23L13 25L14 25L14 22L17 22L17 23L15 23L15 24L17 24L17 25L19 25L19 24L20 24L20 23L21 23L21 22L22 22L22 24L21 24L21 25L25 25L25 24L23 24L23 23L24 23L24 22L25 22L25 20L24 20L24 19L25 19L25 17L24 17L24 16L25 16L25 15L23 15L23 17L22 17L22 16L20 16L20 15L19 15L19 14L21 14L21 15L22 15L22 14L23 14L23 13L24 13L24 14L25 14L25 11L24 11L24 9L25 9L25 8L24 8L24 9L23 9L23 8L20 8L20 9L18 9L18 8L17 8L17 6L16 6L16 9L15 9L15 8L14 8L14 11L11 11L11 13L10 13L10 12L9 12L9 13L7 13L7 12L6 12L6 11L8 11L8 10L10 10L10 9L9 9L9 8L10 8L10 7L11 7L11 8L12 8L12 7L13 7L13 5L14 5L14 7L15 7L15 5L14 5L14 4L15 4L15 3L17 3L17 0ZM15 1L15 2L16 2L16 1ZM12 3L12 5L10 5L10 6L9 6L9 7L10 7L10 6L11 6L11 7L12 7L12 5L13 5L13 4L14 4L14 3ZM16 4L16 5L17 5L17 4ZM6 9L6 10L5 10L5 11L6 11L6 10L7 10L7 9ZM20 9L20 13L23 13L23 12L24 12L24 11L23 11L23 9L22 9L22 11L23 11L23 12L21 12L21 9ZM15 10L15 11L14 11L14 12L15 12L15 14L14 14L14 13L13 13L13 12L12 12L12 14L14 14L14 15L13 15L13 16L12 16L12 17L11 17L11 18L10 18L10 17L9 17L9 18L10 18L10 19L11 19L11 20L12 20L12 21L11 21L11 22L10 22L10 23L11 23L11 22L12 22L12 21L13 21L13 22L14 22L14 21L16 21L16 16L18 16L18 14L19 14L19 13L18 13L18 14L17 14L17 15L16 15L16 13L17 13L17 12L19 12L19 10L17 10L17 11L16 11L16 10ZM0 12L0 13L1 13L1 12ZM14 15L14 16L13 16L13 17L12 17L12 18L11 18L11 19L12 19L12 20L13 20L13 18L15 18L15 16L16 16L16 15ZM17 17L17 20L20 20L20 17ZM21 17L21 18L22 18L22 22L23 22L23 21L24 21L24 20L23 20L23 19L24 19L24 18L22 18L22 17ZM18 18L18 19L19 19L19 18ZM19 21L19 22L18 22L18 24L19 24L19 22L21 22L21 21ZM0 0L0 7L7 7L7 0ZM1 1L1 6L6 6L6 1ZM2 2L2 5L5 5L5 2ZM18 0L18 7L25 7L25 0ZM19 1L19 6L24 6L24 1ZM20 2L20 5L23 5L23 2ZM0 18L0 25L7 25L7 18ZM1 19L1 24L6 24L6 19ZM2 20L2 23L5 23L5 20Z" fill="#282828"/></g></g></svg>
