<?xml version="1.0" encoding="UTF-8"?>
<svg xmlns="http://www.w3.org/2000/svg" version="1.1" width="90" height="90" viewBox="0 0 90 90"><rect x="0" y="0" width="90" height="90" fill="#ffffff"/><g transform="scale(2.903)"><g transform="translate(1,1)"><path fill-rule="evenodd" d="M9 0L9 1L8 1L8 2L9 2L9 3L8 3L8 4L10 4L10 7L11 7L11 4L12 4L12 5L13 5L13 6L12 6L12 9L14 9L14 10L11 10L11 11L10 11L10 9L11 9L11 8L6 8L6 9L7 9L7 10L5 10L5 11L4 11L4 12L3 12L3 13L4 13L4 12L5 12L5 13L7 13L7 12L5 12L5 11L8 11L8 9L9 9L9 14L5 14L5 15L4 15L4 14L3 14L3 15L0 15L0 21L1 21L1 18L2 18L2 19L4 19L4 21L5 21L5 15L7 15L7 16L6 16L6 17L7 17L7 18L6 18L6 19L7 19L7 18L8 18L8 19L9 19L9 21L8 21L8 20L6 20L6 21L8 21L8 23L9 23L9 24L8 24L8 29L10 29L10 28L11 28L11 29L12 29L12 27L13 27L13 26L11 26L11 22L10 22L10 23L9 23L9 21L12 21L12 22L13 22L13 23L12 23L12 25L13 25L13 24L14 24L14 25L15 25L15 27L14 27L14 28L15 28L15 29L16 29L16 28L15 28L15 27L16 27L16 26L17 26L17 25L15 25L15 24L14 24L14 23L16 23L16 24L17 24L17 21L18 21L18 24L20 24L20 25L18 25L18 26L20 26L20 27L21 27L21 28L22 28L22 29L23 29L23 28L24 28L24 29L25 29L25 28L26 28L26 26L27 26L27 28L28 28L28 26L29 26L29 25L25 25L25 24L26 24L26 23L25 23L25 19L24 19L24 20L23 20L23 18L25 18L25 17L27 17L27 16L29 16L29 15L28 15L28 14L29 14L29 13L28 13L28 12L29 12L29 11L27 11L27 9L28 9L28 8L27 8L27 9L26 9L26 8L25 8L25 9L24 9L24 8L23 8L23 9L22 9L22 8L21 8L21 10L20 10L20 9L18 9L18 11L19 11L19 10L20 10L20 12L22 12L22 10L23 10L23 12L24 12L24 13L23 13L23 14L22 14L22 13L20 13L20 14L21 14L21 15L19 15L19 17L18 17L18 19L19 19L19 17L20 17L20 19L21 19L21 18L22 18L22 20L20 20L20 23L19 23L19 20L17 20L17 19L16 19L16 18L17 18L17 17L16 17L16 16L17 16L17 14L19 14L19 13L17 13L17 8L16 8L16 7L17 7L17 6L18 6L18 7L19 7L19 5L17 5L17 4L16 4L16 2L17 2L17 1L15 1L15 0L14 0L14 1L15 1L15 2L14 2L14 3L13 3L13 4L12 4L12 2L13 2L13 1L11 1L11 2L10 2L10 0ZM20 0L20 1L21 1L21 0ZM18 2L18 3L19 3L19 4L20 4L20 5L21 5L21 4L20 4L20 3L21 3L21 2ZM10 3L10 4L11 4L11 3ZM14 3L14 4L13 4L13 5L14 5L14 4L15 4L15 5L16 5L16 6L15 6L15 7L14 7L14 6L13 6L13 8L14 8L14 9L15 9L15 10L14 10L14 11L12 11L12 13L11 13L11 12L10 12L10 13L11 13L11 14L9 14L9 15L8 15L8 16L7 16L7 17L8 17L8 18L10 18L10 16L11 16L11 18L13 18L13 19L12 19L12 21L15 21L15 20L14 20L14 19L15 19L15 17L14 17L14 16L15 16L15 15L14 15L14 16L13 16L13 17L12 17L12 15L13 15L13 14L12 14L12 13L14 13L14 14L15 14L15 13L16 13L16 11L15 11L15 10L16 10L16 9L15 9L15 7L16 7L16 6L17 6L17 5L16 5L16 4L15 4L15 3ZM8 5L8 7L9 7L9 5ZM20 6L20 7L21 7L21 6ZM0 8L0 9L2 9L2 10L4 10L4 9L5 9L5 8ZM23 9L23 10L24 10L24 9ZM0 10L0 12L1 12L1 14L2 14L2 12L1 12L1 10ZM26 11L26 12L25 12L25 13L26 13L26 14L25 14L25 15L23 15L23 16L20 16L20 17L22 17L22 18L23 18L23 17L24 17L24 16L25 16L25 15L26 15L26 16L27 16L27 14L28 14L28 13L27 13L27 11ZM3 15L3 16L4 16L4 15ZM9 15L9 16L10 16L10 15ZM3 17L3 18L4 18L4 17ZM28 17L28 18L26 18L26 19L28 19L28 18L29 18L29 17ZM2 20L2 21L3 21L3 20ZM16 20L16 21L17 21L17 20ZM26 20L26 21L28 21L28 22L27 22L27 23L28 23L28 24L29 24L29 23L28 23L28 22L29 22L29 21L28 21L28 20ZM21 21L21 24L24 24L24 21ZM22 22L22 23L23 23L23 22ZM20 25L20 26L21 26L21 27L22 27L22 28L23 28L23 25ZM9 27L9 28L10 28L10 27ZM19 28L19 29L20 29L20 28ZM0 0L0 7L7 7L7 0ZM1 1L1 6L6 6L6 1ZM2 2L2 5L5 5L5 2ZM22 0L22 7L29 7L29 0ZM23 1L23 6L28 6L28 1ZM24 2L24 5L27 5L27 2ZM0 22L0 29L7 29L7 22ZM1 23L1 28L6 28L6 23ZM2 24L2 27L5 27L5 24Z" fill="#282828"/></g></g></svg>
