<?xml version="1.0" encoding="UTF-8"?>
<svg xmlns="http://www.w3.org/2000/svg" version="1.1" width="90" height="90" viewBox="0 0 90 90"><rect x="0" y="0" width="90" height="90" fill="#ffffff"/><g transform="scale(3.333)"><g transform="translate(1,1)"><path fill-rule="evenodd" d="M9 0L9 1L8 1L8 2L9 2L9 3L8 3L8 4L10 4L10 7L11 7L11 4L12 4L12 5L13 5L13 6L12 6L12 9L13 9L13 10L11 10L11 11L10 11L10 9L11 9L11 8L6 8L6 9L5 9L5 8L0 8L0 17L1 17L1 14L3 14L3 15L4 15L4 16L5 16L5 15L7 15L7 16L6 16L6 17L7 17L7 16L10 16L10 14L11 14L11 13L12 13L12 14L13 14L13 15L11 15L11 16L13 16L13 17L8 17L8 19L9 19L9 20L8 20L8 25L10 25L10 24L9 24L9 20L10 20L10 18L12 18L12 19L11 19L11 20L12 20L12 19L13 19L13 17L14 17L14 18L16 18L16 19L15 19L15 20L13 20L13 21L10 21L10 22L13 22L13 21L15 21L15 23L14 23L14 24L13 24L13 23L12 23L12 24L13 24L13 25L14 25L14 24L16 24L16 23L18 23L18 25L19 25L19 23L20 23L20 22L19 22L19 21L21 21L21 25L25 25L25 21L23 21L23 20L22 20L22 21L21 21L21 19L22 19L22 17L21 17L21 14L20 14L20 13L19 13L19 12L21 12L21 10L22 10L22 11L23 11L23 10L24 10L24 11L25 11L25 10L24 10L24 8L23 8L23 10L22 10L22 8L21 8L21 10L20 10L20 8L19 8L19 9L18 9L18 8L17 8L17 9L16 9L16 7L17 7L17 4L15 4L15 3L17 3L17 0L15 0L15 1L11 1L11 2L10 2L10 0ZM12 2L12 4L14 4L14 5L15 5L15 4L14 4L14 2ZM10 3L10 4L11 4L11 3ZM8 5L8 7L9 7L9 5ZM13 6L13 9L14 9L14 10L15 10L15 9L14 9L14 8L15 8L15 7L16 7L16 6L15 6L15 7L14 7L14 6ZM1 9L1 10L2 10L2 11L1 11L1 13L2 13L2 11L3 11L3 14L4 14L4 15L5 15L5 14L7 14L7 13L4 13L4 12L5 12L5 11L4 11L4 10L2 10L2 9ZM6 9L6 10L7 10L7 11L6 11L6 12L9 12L9 10L7 10L7 9ZM17 10L17 11L15 11L15 13L17 13L17 14L16 14L16 16L17 16L17 14L18 14L18 13L17 13L17 11L18 11L18 12L19 12L19 11L18 11L18 10ZM12 11L12 12L13 12L13 13L14 13L14 11ZM10 12L10 13L11 13L11 12ZM23 12L23 13L22 13L22 15L23 15L23 16L24 16L24 17L23 17L23 18L24 18L24 19L25 19L25 18L24 18L24 17L25 17L25 14L24 14L24 13L25 13L25 12ZM8 13L8 15L9 15L9 13ZM19 14L19 16L20 16L20 14ZM23 14L23 15L24 15L24 14ZM13 15L13 16L14 16L14 15ZM2 16L2 17L3 17L3 16ZM17 17L17 20L20 20L20 17ZM18 18L18 19L19 19L19 18ZM16 21L16 22L17 22L17 21ZM22 21L22 22L23 22L23 23L22 23L22 24L24 24L24 22L23 22L23 21ZM0 0L0 7L7 7L7 0ZM1 1L1 6L6 6L6 1ZM2 2L2 5L5 5L5 2ZM18 0L18 7L25 7L25 0ZM19 1L19 6L24 6L24 1ZM20 2L20 5L23 5L23 2ZM0 18L0 25L7 25L7 18ZM1 19L1 24L6 24L6 19ZM2 20L2 23L5 23L5 20Z" fill="#282828"/></g></g></svg>
