<?xml version="1.0" encoding="UTF-8"?>
<svg xmlns="http://www.w3.org/2000/svg" version="1.1" width="90" height="90" viewBox="0 0 90 90"><rect x="0" y="0" width="90" height="90" fill="#ffffff"/><g transform="scale(2.903)"><g transform="translate(1,1)"><path fill-rule="evenodd" d="M8 0L8 1L10 1L10 0ZM14 0L14 1L15 1L15 0ZM17 0L17 1L18 1L18 2L19 2L19 3L20 3L20 2L21 2L21 0L20 0L20 2L19 2L19 0ZM8 2L8 5L9 5L9 6L8 6L8 7L9 7L9 8L8 8L8 9L7 9L7 8L6 8L6 9L5 9L5 10L2 10L2 13L1 13L1 9L4 9L4 8L0 8L0 16L4 16L4 17L5 17L5 18L4 18L4 19L3 19L3 17L2 17L2 19L3 19L3 21L5 21L5 18L6 18L6 19L7 19L7 20L6 20L6 21L8 21L8 22L9 22L9 25L8 25L8 29L11 29L11 28L12 28L12 29L13 29L13 28L12 28L12 26L13 26L13 27L14 27L14 29L15 29L15 28L16 28L16 29L22 29L22 28L23 28L23 27L24 27L24 29L25 29L25 28L26 28L26 29L28 29L28 27L29 27L29 25L28 25L28 27L27 27L27 25L26 25L26 27L24 27L24 25L25 25L25 21L27 21L27 20L28 20L28 22L29 22L29 20L28 20L28 16L29 16L29 13L26 13L26 12L24 12L24 10L25 10L25 11L26 11L26 10L27 10L27 11L28 11L28 12L29 12L29 11L28 11L28 10L27 10L27 8L24 8L24 9L23 9L23 11L22 11L22 8L21 8L21 9L20 9L20 8L19 8L19 6L20 6L20 7L21 7L21 4L19 4L19 5L17 5L17 6L16 6L16 7L17 7L17 8L18 8L18 10L16 10L16 12L15 12L15 10L14 10L14 11L11 11L11 13L10 13L10 12L9 12L9 13L7 13L7 12L8 12L8 9L9 9L9 10L10 10L10 9L9 9L9 8L10 8L10 7L11 7L11 8L12 8L12 7L13 7L13 9L15 9L15 5L16 5L16 4L17 4L17 3L16 3L16 2L15 2L15 4L13 4L13 5L12 5L12 3L14 3L14 2L11 2L11 4L10 4L10 3L9 3L9 2ZM10 5L10 6L9 6L9 7L10 7L10 6L11 6L11 7L12 7L12 5ZM13 5L13 7L14 7L14 5ZM17 6L17 7L18 7L18 6ZM28 8L28 9L29 9L29 8ZM6 9L6 10L5 10L5 11L4 11L4 12L3 12L3 13L2 13L2 15L3 15L3 14L5 14L5 15L4 15L4 16L5 16L5 17L6 17L6 18L7 18L7 19L9 19L9 18L12 18L12 17L14 17L14 18L13 18L13 20L14 20L14 21L15 21L15 17L16 17L16 18L17 18L17 17L16 17L16 16L18 16L18 15L19 15L19 16L20 16L20 15L22 15L22 17L21 17L21 18L22 18L22 19L23 19L23 18L22 18L22 17L24 17L24 18L25 18L25 19L24 19L24 20L26 20L26 18L27 18L27 15L28 15L28 14L26 14L26 13L24 13L24 12L22 12L22 13L21 13L21 12L20 12L20 13L18 13L18 14L17 14L17 15L16 15L16 14L15 14L15 12L12 12L12 14L11 14L11 15L10 15L10 14L9 14L9 15L8 15L8 17L6 17L6 16L7 16L7 15L6 15L6 14L7 14L7 13L6 13L6 14L5 14L5 12L7 12L7 11L6 11L6 10L7 10L7 9ZM19 9L19 10L18 10L18 11L17 11L17 12L16 12L16 13L17 13L17 12L18 12L18 11L20 11L20 9ZM13 13L13 14L12 14L12 16L10 16L10 15L9 15L9 17L8 17L8 18L9 18L9 17L12 17L12 16L14 16L14 15L15 15L15 16L16 16L16 15L15 15L15 14L14 14L14 13ZM22 13L22 15L23 15L23 16L25 16L25 18L26 18L26 14L25 14L25 15L24 15L24 14L23 14L23 13ZM13 14L13 15L14 15L14 14ZM19 14L19 15L20 15L20 14ZM18 17L18 20L16 20L16 21L17 21L17 22L18 22L18 20L19 20L19 23L17 23L17 24L16 24L16 22L14 22L14 23L10 23L10 24L11 24L11 25L12 25L12 24L13 24L13 26L14 26L14 27L17 27L17 28L19 28L19 27L17 27L17 26L20 26L20 28L21 28L21 25L20 25L20 18L19 18L19 17ZM0 18L0 19L1 19L1 18ZM11 19L11 20L12 20L12 19ZM1 20L1 21L2 21L2 20ZM9 20L9 22L10 22L10 20ZM11 21L11 22L12 22L12 21ZM21 21L21 24L24 24L24 21ZM22 22L22 23L23 23L23 22ZM26 22L26 23L27 23L27 24L29 24L29 23L27 23L27 22ZM14 24L14 26L15 26L15 25L16 25L16 26L17 26L17 25L16 25L16 24ZM9 25L9 28L10 28L10 25ZM22 25L22 26L23 26L23 25ZM26 27L26 28L27 28L27 27ZM0 0L0 7L7 7L7 0ZM1 1L1 6L6 6L6 1ZM2 2L2 5L5 5L5 2ZM22 0L22 7L29 7L29 0ZM23 1L23 6L28 6L28 1ZM24 2L24 5L27 5L27 2ZM0 22L0 29L7 29L7 22ZM1 23L1 28L6 28L6 23ZM2 24L2 27L5 27L5 24Z" fill="#282828"/></g></g></svg>
