<?xml version="1.0" encoding="UTF-8"?>
<svg xmlns="http://www.w3.org/2000/svg" version="1.1" width="90" height="90" viewBox="0 0 90 90"><rect x="0" y="0" width="90" height="90" fill="#ffffff"/><g transform="scale(3.333)"><g transform="translate(1,1)"><path fill-rule="evenodd" d="M10 0L10 1L9 1L9 2L8 2L8 3L9 3L9 5L10 5L10 7L11 7L11 8L12 8L12 9L11 9L11 10L10 10L10 9L9 9L9 6L8 6L8 8L4 8L4 9L3 9L3 8L0 8L0 10L2 10L2 9L3 9L3 10L4 10L4 12L3 12L3 13L2 13L2 11L0 11L0 12L1 12L1 13L2 13L2 15L1 15L1 14L0 14L0 15L1 15L1 16L0 16L0 17L1 17L1 16L3 16L3 17L8 17L8 21L9 21L9 22L8 22L8 25L9 25L9 23L10 23L10 24L12 24L12 23L11 23L11 21L9 21L9 17L10 17L10 16L9 16L9 15L10 15L10 14L12 14L12 13L13 13L13 12L16 12L16 13L17 13L17 15L14 15L14 14L15 14L15 13L14 13L14 14L13 14L13 15L11 15L11 16L13 16L13 18L12 18L12 20L13 20L13 22L14 22L14 23L13 23L13 25L19 25L19 24L20 24L20 25L21 25L21 24L22 24L22 23L21 23L21 22L22 22L22 20L21 20L21 18L22 18L22 19L23 19L23 20L25 20L25 16L24 16L24 19L23 19L23 18L22 18L22 17L23 17L23 16L21 16L21 15L22 15L22 14L23 14L23 13L24 13L24 15L25 15L25 9L24 9L24 11L23 11L23 10L18 10L18 11L17 11L17 9L19 9L19 8L17 8L17 6L16 6L16 5L15 5L15 3L16 3L16 2L17 2L17 1L13 1L13 2L15 2L15 3L12 3L12 2L11 2L11 3L12 3L12 5L10 5L10 3L9 3L9 2L10 2L10 1L11 1L11 0ZM13 4L13 5L14 5L14 4ZM11 6L11 7L12 7L12 8L13 8L13 9L14 9L14 10L13 10L13 11L14 11L14 10L15 10L15 11L16 11L16 12L17 12L17 11L16 11L16 10L15 10L15 9L16 9L16 6L15 6L15 7L14 7L14 6L13 6L13 7L12 7L12 6ZM13 7L13 8L14 8L14 7ZM22 8L22 9L23 9L23 8ZM5 9L5 12L7 12L7 11L6 11L6 10L8 10L8 13L6 13L6 14L7 14L7 15L6 15L6 16L8 16L8 17L9 17L9 16L8 16L8 14L10 14L10 12L9 12L9 11L10 11L10 10L8 10L8 9ZM11 11L11 12L12 12L12 11ZM19 11L19 13L18 13L18 15L17 15L17 16L19 16L19 15L20 15L20 14L22 14L22 13L20 13L20 12L23 12L23 11ZM3 14L3 16L5 16L5 15L4 15L4 14ZM14 16L14 17L16 17L16 16ZM17 17L17 20L20 20L20 17ZM13 18L13 19L14 19L14 22L15 22L15 21L16 21L16 18L15 18L15 19L14 19L14 18ZM18 18L18 19L19 19L19 18ZM17 21L17 22L16 22L16 24L17 24L17 23L18 23L18 22L19 22L19 21ZM20 21L20 22L21 22L21 21ZM24 22L24 23L23 23L23 25L25 25L25 24L24 24L24 23L25 23L25 22ZM20 23L20 24L21 24L21 23ZM0 0L0 7L7 7L7 0ZM1 1L1 6L6 6L6 1ZM2 2L2 5L5 5L5 2ZM18 0L18 7L25 7L25 0ZM19 1L19 6L24 6L24 1ZM20 2L20 5L23 5L23 2ZM0 18L0 25L7 25L7 18ZM1 19L1 24L6 24L6 19ZM2 20L2 23L5 23L5 20Z" fill="#282828"/></g></g></svg>
