<?xml version="1.0" encoding="UTF-8"?>
<svg xmlns="http://www.w3.org/2000/svg" version="1.1" width="90" height="90" viewBox="0 0 90 90"><rect x="0" y="0" width="90" height="90" fill="#ffffff"/><g transform="scale(3.333)"><g transform="translate(1,1)"><path fill-rule="evenodd" d="M8 0L8 1L10 1L10 0ZM13 0L13 1L14 1L14 2L11 2L11 4L10 4L10 3L9 3L9 2L8 2L8 5L9 5L9 6L8 6L8 7L9 7L9 8L8 8L8 9L9 9L9 10L8 10L8 12L6 12L6 11L7 11L7 10L6 10L6 9L7 9L7 8L6 8L6 9L5 9L5 12L6 12L6 13L7 13L7 14L5 14L5 15L4 15L4 13L2 13L2 14L1 14L1 15L0 15L0 16L1 16L1 15L2 15L2 14L3 14L3 17L4 17L4 16L5 16L5 17L8 17L8 18L9 18L9 21L8 21L8 25L9 25L9 21L10 21L10 22L11 22L11 23L10 23L10 25L11 25L11 23L13 23L13 25L14 25L14 24L15 24L15 25L16 25L16 24L15 24L15 22L16 22L16 21L17 21L17 23L18 23L18 22L19 22L19 24L17 24L17 25L19 25L19 24L20 24L20 23L21 23L21 22L22 22L22 24L21 24L21 25L25 25L25 24L23 24L23 23L24 23L24 22L25 22L25 17L24 17L24 16L25 16L25 15L23 15L23 17L22 17L22 16L20 16L20 15L22 15L22 14L23 14L23 13L24 13L24 14L25 14L25 11L24 11L24 9L25 9L25 8L24 8L24 9L23 9L23 8L20 8L20 9L18 9L18 8L17 8L17 9L15 9L15 8L16 8L16 7L17 7L17 4L16 4L16 7L15 7L15 1L16 1L16 2L17 2L17 0L15 0L15 1L14 1L14 0ZM12 3L12 5L10 5L10 6L9 6L9 7L10 7L10 8L9 8L9 9L10 9L10 10L9 10L9 12L8 12L8 13L9 13L9 12L10 12L10 13L11 13L11 11L15 11L15 12L16 12L16 13L14 13L14 12L13 12L13 13L12 13L12 14L11 14L11 15L10 15L10 16L8 16L8 15L9 15L9 14L8 14L8 15L6 15L6 16L8 16L8 17L9 17L9 18L11 18L11 21L12 21L12 18L13 18L13 23L14 23L14 22L15 22L15 21L16 21L16 20L15 20L15 21L14 21L14 19L15 19L15 18L16 18L16 17L15 17L15 16L14 16L14 14L15 14L15 15L16 15L16 16L18 16L18 15L19 15L19 13L23 13L23 12L24 12L24 11L23 11L23 9L20 9L20 11L19 11L19 10L17 10L17 11L16 11L16 10L15 10L15 9L13 9L13 8L14 8L14 5L13 5L13 4L14 4L14 3ZM12 5L12 7L11 7L11 6L10 6L10 7L11 7L11 8L12 8L12 7L13 7L13 5ZM0 8L0 10L1 10L1 9L2 9L2 11L3 11L3 9L4 9L4 8ZM21 10L21 11L20 11L20 12L23 12L23 11L22 11L22 10ZM17 11L17 13L16 13L16 15L18 15L18 13L19 13L19 12L18 12L18 11ZM13 13L13 14L12 14L12 15L13 15L13 14L14 14L14 13ZM11 16L11 18L12 18L12 17L13 17L13 18L15 18L15 17L14 17L14 16ZM17 17L17 20L20 20L20 17ZM21 17L21 18L22 18L22 22L23 22L23 21L24 21L24 20L23 20L23 19L24 19L24 18L22 18L22 17ZM18 18L18 19L19 19L19 18ZM19 21L19 22L21 22L21 21ZM0 0L0 7L7 7L7 0ZM1 1L1 6L6 6L6 1ZM2 2L2 5L5 5L5 2ZM18 0L18 7L25 7L25 0ZM19 1L19 6L24 6L24 1ZM20 2L20 5L23 5L23 2ZM0 18L0 25L7 25L7 18ZM1 19L1 24L6 24L6 19ZM2 20L2 23L5 23L5 20Z" fill="#282828"/></g></g></svg>
