<?xml version="1.0" encoding="UTF-8"?>
<svg xmlns="http://www.w3.org/2000/svg" version="1.1" width="90" height="90" viewBox="0 0 90 90"><rect x="0" y="0" width="90" height="90" fill="#ffffff"/><g transform="scale(3.333)"><g transform="translate(1,1)"><path fill-rule="evenodd" d="M8 0L8 1L9 1L9 2L8 2L8 5L9 5L9 6L8 6L8 7L9 7L9 8L8 8L8 9L7 9L7 8L6 8L6 9L5 9L5 10L4 10L4 11L3 11L3 12L2 12L2 14L1 14L1 15L0 15L0 16L1 16L1 15L2 15L2 16L4 16L4 14L5 14L5 10L6 10L6 11L8 11L8 12L9 12L9 13L7 13L7 12L6 12L6 13L7 13L7 14L6 14L6 15L7 15L7 14L9 14L9 15L10 15L10 16L9 16L9 17L8 17L8 16L6 16L6 17L8 17L8 18L10 18L10 21L8 21L8 25L9 25L9 22L10 22L10 24L11 24L11 25L13 25L13 24L14 24L14 25L15 25L15 24L17 24L17 25L18 25L18 24L17 24L17 23L15 23L15 22L14 22L14 23L13 23L13 22L10 22L10 21L15 21L15 20L16 20L16 22L19 22L19 24L20 24L20 23L21 23L21 22L22 22L22 24L21 24L21 25L25 25L25 24L23 24L23 23L24 23L24 22L25 22L25 17L24 17L24 16L25 16L25 15L23 15L23 17L21 17L21 16L20 16L20 15L22 15L22 14L23 14L23 13L24 13L24 14L25 14L25 11L24 11L24 9L25 9L25 8L24 8L24 9L23 9L23 8L20 8L20 9L18 9L18 8L17 8L17 4L16 4L16 2L17 2L17 0L15 0L15 1L16 1L16 2L14 2L14 0ZM12 1L12 2L13 2L13 1ZM9 2L9 3L10 3L10 6L9 6L9 7L10 7L10 8L9 8L9 9L10 9L10 10L8 10L8 11L9 11L9 12L10 12L10 13L11 13L11 16L10 16L10 18L11 18L11 20L12 20L12 19L13 19L13 20L15 20L15 18L16 18L16 16L17 16L17 12L18 12L18 9L17 9L17 10L15 10L15 9L13 9L13 10L15 10L15 11L14 11L14 12L13 12L13 11L11 11L11 9L12 9L12 8L14 8L14 6L15 6L15 7L16 7L16 4L15 4L15 3L14 3L14 4L13 4L13 3L10 3L10 2ZM14 4L14 5L12 5L12 7L11 7L11 6L10 6L10 7L11 7L11 8L12 8L12 7L13 7L13 6L14 6L14 5L15 5L15 4ZM0 8L0 10L1 10L1 11L0 11L0 13L1 13L1 11L2 11L2 10L3 10L3 9L4 9L4 8ZM1 9L1 10L2 10L2 9ZM6 9L6 10L7 10L7 9ZM20 9L20 10L21 10L21 11L20 11L20 12L19 12L19 13L18 13L18 15L19 15L19 13L23 13L23 12L24 12L24 11L23 11L23 12L21 12L21 11L22 11L22 10L23 10L23 9ZM16 11L16 12L14 12L14 13L13 13L13 12L12 12L12 14L13 14L13 15L12 15L12 16L11 16L11 18L13 18L13 19L14 19L14 18L13 18L13 15L14 15L14 16L16 16L16 15L14 15L14 14L16 14L16 12L17 12L17 11ZM3 12L3 13L4 13L4 12ZM2 14L2 15L3 15L3 14ZM17 17L17 20L20 20L20 17ZM18 18L18 19L19 19L19 18ZM22 18L22 22L23 22L23 19L24 19L24 18ZM20 21L20 22L21 22L21 21ZM11 23L11 24L13 24L13 23ZM0 0L0 7L7 7L7 0ZM1 1L1 6L6 6L6 1ZM2 2L2 5L5 5L5 2ZM18 0L18 7L25 7L25 0ZM19 1L19 6L24 6L24 1ZM20 2L20 5L23 5L23 2ZM0 18L0 25L7 25L7 18ZM1 19L1 24L6 24L6 19ZM2 20L2 23L5 23L5 20Z" fill="#282828"/></g></g></svg>
