<?xml version="1.0" encoding="UTF-8"?>
<svg xmlns="http://www.w3.org/2000/svg" version="1.1" width="90" height="90" viewBox="0 0 90 90"><rect x="0" y="0" width="90" height="90" fill="#ffffff"/><g transform="scale(3.333)"><g transform="translate(1,1)"><path fill-rule="evenodd" d="M9 0L9 1L11 1L11 2L9 2L9 3L8 3L8 5L9 5L9 6L8 6L8 7L9 7L9 9L8 9L8 8L5 8L5 9L2 9L2 8L0 8L0 9L1 9L1 10L0 10L0 17L1 17L1 14L2 14L2 16L3 16L3 17L4 17L4 16L6 16L6 17L8 17L8 20L10 20L10 22L13 22L13 21L14 21L14 22L15 22L15 23L14 23L14 25L17 25L17 23L16 23L16 22L19 22L19 23L18 23L18 25L22 25L22 24L19 24L19 23L20 23L20 22L21 22L21 23L23 23L23 22L24 22L24 25L25 25L25 21L23 21L23 20L22 20L22 19L25 19L25 18L24 18L24 17L25 17L25 14L24 14L24 13L25 13L25 12L24 12L24 13L23 13L23 12L22 12L22 11L23 11L23 10L24 10L24 11L25 11L25 10L24 10L24 9L22 9L22 8L20 8L20 9L19 9L19 11L18 11L18 10L16 10L16 8L17 8L17 2L15 2L15 3L16 3L16 8L15 8L15 5L14 5L14 3L13 3L13 4L12 4L12 2L13 2L13 1L12 1L12 0ZM14 0L14 1L15 1L15 0ZM9 3L9 5L10 5L10 3ZM11 4L11 7L10 7L10 6L9 6L9 7L10 7L10 8L11 8L11 10L10 10L10 9L9 9L9 10L10 10L10 11L8 11L8 10L7 10L7 9L5 9L5 11L4 11L4 13L3 13L3 12L2 12L2 11L3 11L3 10L1 10L1 13L2 13L2 14L3 14L3 16L4 16L4 15L6 15L6 16L7 16L7 15L8 15L8 17L10 17L10 18L9 18L9 19L10 19L10 20L11 20L11 21L13 21L13 20L15 20L15 19L12 19L12 20L11 20L11 19L10 19L10 18L11 18L11 17L13 17L13 18L14 18L14 17L13 17L13 16L19 16L19 15L22 15L22 14L21 14L21 13L22 13L22 12L21 12L21 11L22 11L22 10L20 10L20 14L19 14L19 13L18 13L18 12L17 12L17 11L15 11L15 12L14 12L14 10L15 10L15 9L12 9L12 6L13 6L13 8L14 8L14 6L13 6L13 5L12 5L12 4ZM6 10L6 11L5 11L5 13L4 13L4 14L6 14L6 15L7 15L7 14L6 14L6 13L8 13L8 11L7 11L7 10ZM11 10L11 11L10 11L10 12L9 12L9 14L8 14L8 15L9 15L9 16L12 16L12 15L9 15L9 14L11 14L11 12L12 12L12 14L13 14L13 15L16 15L16 14L17 14L17 12L16 12L16 13L14 13L14 12L12 12L12 11L13 11L13 10ZM6 11L6 12L7 12L7 11ZM18 14L18 15L19 15L19 14ZM23 14L23 15L24 15L24 14ZM21 16L21 18L23 18L23 17L24 17L24 16ZM15 17L15 18L16 18L16 17ZM17 17L17 20L20 20L20 17ZM18 18L18 19L19 19L19 18ZM21 20L21 22L22 22L22 20ZM15 21L15 22L16 22L16 21ZM19 21L19 22L20 22L20 21ZM8 23L8 25L9 25L9 23ZM12 23L12 24L10 24L10 25L12 25L12 24L13 24L13 23ZM15 23L15 24L16 24L16 23ZM0 0L0 7L7 7L7 0ZM1 1L1 6L6 6L6 1ZM2 2L2 5L5 5L5 2ZM18 0L18 7L25 7L25 0ZM19 1L19 6L24 6L24 1ZM20 2L20 5L23 5L23 2ZM0 18L0 25L7 25L7 18ZM1 19L1 24L6 24L6 19ZM2 20L2 23L5 23L5 20Z" fill="#282828"/></g></g></svg>
