<?xml version="1.0" encoding="UTF-8"?>
<svg xmlns="http://www.w3.org/2000/svg" version="1.1" width="90" height="90" viewBox="0 0 90 90"><rect x="0" y="0" width="90" height="90" fill="#ffffff"/><g transform="scale(2.903)"><g transform="translate(1,1)"><path fill-rule="evenodd" d="M9 0L9 1L8 1L8 3L9 3L9 4L8 4L8 8L6 8L6 9L4 9L4 8L3 8L3 9L2 9L2 8L0 8L0 9L2 9L2 10L1 10L1 11L2 11L2 10L3 10L3 9L4 9L4 10L6 10L6 11L7 11L7 12L6 12L6 13L5 13L5 11L4 11L4 12L0 12L0 13L2 13L2 14L1 14L1 15L0 15L0 16L1 16L1 18L0 18L0 19L1 19L1 18L3 18L3 17L5 17L5 16L6 16L6 17L8 17L8 19L10 19L10 20L11 20L11 23L10 23L10 24L9 24L9 25L8 25L8 26L9 26L9 27L8 27L8 29L9 29L9 28L10 28L10 29L11 29L11 28L12 28L12 29L14 29L14 28L12 28L12 24L14 24L14 25L13 25L13 27L15 27L15 28L16 28L16 29L18 29L18 28L19 28L19 27L20 27L20 25L22 25L22 27L21 27L21 28L20 28L20 29L23 29L23 26L24 26L24 27L25 27L25 26L28 26L28 27L27 27L27 28L25 28L25 29L28 29L28 27L29 27L29 26L28 26L28 25L29 25L29 23L27 23L27 22L26 22L26 21L27 21L27 20L26 20L26 21L25 21L25 18L27 18L27 17L28 17L28 22L29 22L29 17L28 17L28 16L29 16L29 14L28 14L28 15L27 15L27 17L25 17L25 14L24 14L24 15L23 15L23 11L25 11L25 10L22 10L22 9L25 9L25 8L22 8L22 9L21 9L21 12L20 12L20 10L19 10L19 9L18 9L18 8L19 8L19 6L20 6L20 7L21 7L21 5L20 5L20 4L19 4L19 0L18 0L18 2L16 2L16 1L17 1L17 0L16 0L16 1L14 1L14 0L12 0L12 1L11 1L11 2L9 2L9 1L10 1L10 0ZM20 1L20 3L21 3L21 1ZM14 2L14 3L16 3L16 4L15 4L15 8L14 8L14 6L13 6L13 3L12 3L12 4L9 4L9 5L10 5L10 6L9 6L9 7L10 7L10 8L8 8L8 9L9 9L9 10L7 10L7 9L6 9L6 10L7 10L7 11L8 11L8 12L7 12L7 13L6 13L6 14L7 14L7 15L6 15L6 16L7 16L7 15L9 15L9 16L8 16L8 17L9 17L9 18L10 18L10 19L12 19L12 20L13 20L13 21L14 21L14 22L15 22L15 23L14 23L14 24L15 24L15 27L16 27L16 28L17 28L17 27L19 27L19 26L18 26L18 25L20 25L20 23L19 23L19 22L17 22L17 20L15 20L15 19L19 19L19 20L18 20L18 21L20 21L20 20L21 20L21 19L22 19L22 18L21 18L21 17L24 17L24 18L23 18L23 20L24 20L24 18L25 18L25 17L24 17L24 16L23 16L23 15L21 15L21 14L20 14L20 12L18 12L18 11L19 11L19 10L17 10L17 9L16 9L16 10L14 10L14 9L15 9L15 8L17 8L17 7L18 7L18 4L17 4L17 3L16 3L16 2ZM16 4L16 5L17 5L17 4ZM11 5L11 6L10 6L10 7L11 7L11 6L12 6L12 8L13 8L13 6L12 6L12 5ZM16 6L16 7L17 7L17 6ZM10 8L10 10L9 10L9 11L11 11L11 10L12 10L12 9L11 9L11 8ZM26 8L26 10L27 10L27 11L26 11L26 12L24 12L24 13L27 13L27 12L28 12L28 10L27 10L27 9L28 9L28 8ZM14 11L14 12L15 12L15 13L16 13L16 17L17 17L17 16L19 16L19 18L20 18L20 16L21 16L21 15L19 15L19 14L18 14L18 15L17 15L17 13L16 13L16 11ZM8 12L8 13L7 13L7 14L8 14L8 13L9 13L9 12ZM12 12L12 13L10 13L10 14L9 14L9 15L10 15L10 14L12 14L12 16L10 16L10 17L12 17L12 16L13 16L13 17L15 17L15 15L13 15L13 12ZM4 13L4 14L3 14L3 15L2 15L2 16L3 16L3 15L4 15L4 16L5 16L5 15L4 15L4 14L5 14L5 13ZM5 18L5 20L4 20L4 19L2 19L2 20L3 20L3 21L5 21L5 20L6 20L6 21L8 21L8 23L9 23L9 20L6 20L6 19L7 19L7 18ZM13 18L13 20L14 20L14 21L15 21L15 20L14 20L14 18ZM0 20L0 21L1 21L1 20ZM21 21L21 24L24 24L24 21ZM16 22L16 23L15 23L15 24L16 24L16 25L17 25L17 24L16 24L16 23L17 23L17 22ZM22 22L22 23L23 23L23 22ZM18 23L18 24L19 24L19 23ZM25 23L25 25L24 25L24 26L25 26L25 25L26 25L26 23ZM10 24L10 25L11 25L11 24ZM27 24L27 25L28 25L28 24ZM10 26L10 27L11 27L11 26ZM16 26L16 27L17 27L17 26ZM0 0L0 7L7 7L7 0ZM1 1L1 6L6 6L6 1ZM2 2L2 5L5 5L5 2ZM22 0L22 7L29 7L29 0ZM23 1L23 6L28 6L28 1ZM24 2L24 5L27 5L27 2ZM0 22L0 29L7 29L7 22ZM1 23L1 28L6 28L6 23ZM2 24L2 27L5 27L5 24Z" fill="#282828"/></g></g></svg>
