<?xml version="1.0" encoding="UTF-8"?>
<svg xmlns="http://www.w3.org/2000/svg" version="1.1" width="90" height="90" viewBox="0 0 90 90"><rect x="0" y="0" width="90" height="90" fill="#ffffff"/><g transform="scale(3.333)"><g transform="translate(1,1)"><path fill-rule="evenodd" d="M10 0L10 2L11 2L11 0ZM12 0L12 1L13 1L13 2L12 2L12 4L14 4L14 5L15 5L15 6L14 6L14 7L15 7L15 6L16 6L16 7L17 7L17 6L16 6L16 5L17 5L17 4L16 4L16 2L17 2L17 0ZM8 1L8 2L9 2L9 1ZM13 2L13 3L14 3L14 2ZM8 3L8 4L9 4L9 5L8 5L8 7L9 7L9 8L6 8L6 9L5 9L5 8L0 8L0 9L3 9L3 10L2 10L2 11L3 11L3 13L2 13L2 15L4 15L4 16L2 16L2 17L5 17L5 16L6 16L6 17L8 17L8 19L10 19L10 18L11 18L11 17L12 17L12 18L13 18L13 19L12 19L12 21L13 21L13 22L11 22L11 23L10 23L10 22L9 22L9 21L10 21L10 20L8 20L8 25L10 25L10 24L11 24L11 25L13 25L13 24L12 24L12 23L13 23L13 22L15 22L15 23L14 23L14 24L16 24L16 23L17 23L17 22L16 22L16 21L18 21L18 22L19 22L19 23L18 23L18 25L19 25L19 23L20 23L20 22L19 22L19 21L21 21L21 25L25 25L25 20L24 20L24 19L25 19L25 18L24 18L24 17L25 17L25 14L24 14L24 13L25 13L25 12L23 12L23 13L22 13L22 15L23 15L23 16L24 16L24 17L23 17L23 18L24 18L24 19L23 19L23 20L22 20L22 21L21 21L21 19L22 19L22 18L21 18L21 17L22 17L22 16L21 16L21 15L20 15L20 13L19 13L19 12L21 12L21 10L24 10L24 11L25 11L25 10L24 10L24 8L23 8L23 9L22 9L22 8L21 8L21 10L20 10L20 8L19 8L19 9L18 9L18 8L17 8L17 9L15 9L15 8L13 8L13 9L12 9L12 7L13 7L13 5L11 5L11 6L10 6L10 4L11 4L11 3ZM9 6L9 7L10 7L10 6ZM11 6L11 7L12 7L12 6ZM10 8L10 9L8 9L8 10L7 10L7 9L6 9L6 10L5 10L5 9L4 9L4 10L3 10L3 11L4 11L4 12L5 12L5 11L6 11L6 12L7 12L7 13L5 13L5 14L4 14L4 15L6 15L6 16L7 16L7 15L8 15L8 17L9 17L9 18L10 18L10 17L11 17L11 14L13 14L13 15L12 15L12 17L13 17L13 18L14 18L14 17L15 17L15 16L14 16L14 15L15 15L15 14L14 14L14 13L15 13L15 12L14 12L14 11L15 11L15 9L13 9L13 10L12 10L12 9L11 9L11 8ZM10 9L10 11L11 11L11 9ZM17 9L17 10L16 10L16 11L17 11L17 12L16 12L16 13L17 13L17 15L16 15L16 16L17 16L17 15L18 15L18 13L17 13L17 12L19 12L19 11L20 11L20 10L18 10L18 9ZM6 10L6 11L7 11L7 12L8 12L8 13L7 13L7 14L6 14L6 15L7 15L7 14L8 14L8 15L9 15L9 14L10 14L10 13L11 13L11 12L8 12L8 11L9 11L9 10L8 10L8 11L7 11L7 10ZM17 10L17 11L18 11L18 10ZM12 11L12 13L14 13L14 12L13 12L13 11ZM0 13L0 17L1 17L1 13ZM23 14L23 15L24 15L24 14ZM19 15L19 16L20 16L20 15ZM13 16L13 17L14 17L14 16ZM17 17L17 20L20 20L20 17ZM18 18L18 19L19 19L19 18ZM13 19L13 20L14 20L14 21L15 21L15 20L16 20L16 19ZM22 21L22 22L23 22L23 23L22 23L22 24L24 24L24 22L23 22L23 21ZM9 23L9 24L10 24L10 23ZM0 0L0 7L7 7L7 0ZM1 1L1 6L6 6L6 1ZM2 2L2 5L5 5L5 2ZM18 0L18 7L25 7L25 0ZM19 1L19 6L24 6L24 1ZM20 2L20 5L23 5L23 2ZM0 18L0 25L7 25L7 18ZM1 19L1 24L6 24L6 19ZM2 20L2 23L5 23L5 20Z" fill="#282828"/></g></g></svg>
