<?xml version="1.0" encoding="UTF-8"?>
<svg xmlns="http://www.w3.org/2000/svg" version="1.1" width="90" height="90" viewBox="0 0 90 90"><rect x="0" y="0" width="90" height="90" fill="#ffffff"/><g transform="scale(3.333)"><g transform="translate(1,1)"><path fill-rule="evenodd" d="M8 0L8 1L9 1L9 2L8 2L8 5L9 5L9 4L11 4L11 5L10 5L10 10L9 10L9 8L8 8L8 9L7 9L7 8L6 8L6 9L4 9L4 8L0 8L0 11L1 11L1 12L0 12L0 13L1 13L1 15L0 15L0 16L1 16L1 15L3 15L3 16L2 16L2 17L5 17L5 16L6 16L6 17L7 17L7 16L8 16L8 15L9 15L9 17L8 17L8 18L9 18L9 19L10 19L10 20L9 20L9 21L8 21L8 25L10 25L10 24L11 24L11 23L13 23L13 25L14 25L14 24L15 24L15 22L14 22L14 23L13 23L13 18L15 18L15 17L16 17L16 19L14 19L14 21L15 21L15 20L16 20L16 21L17 21L17 22L16 22L16 23L17 23L17 25L19 25L19 24L21 24L21 25L22 25L22 24L23 24L23 25L25 25L25 24L23 24L23 23L24 23L24 22L25 22L25 20L24 20L24 21L23 21L23 23L21 23L21 22L22 22L22 21L21 21L21 19L23 19L23 18L24 18L24 19L25 19L25 17L24 17L24 16L25 16L25 15L23 15L23 14L22 14L22 12L23 12L23 13L24 13L24 14L25 14L25 11L24 11L24 12L23 12L23 10L25 10L25 8L24 8L24 9L23 9L23 8L20 8L20 9L19 9L19 10L17 10L17 9L18 9L18 8L17 8L17 4L16 4L16 3L15 3L15 1L17 1L17 0L15 0L15 1L14 1L14 2L13 2L13 0L12 0L12 1L11 1L11 0L10 0L10 1L9 1L9 0ZM11 2L11 4L12 4L12 3L13 3L13 4L14 4L14 3L13 3L13 2ZM15 4L15 7L14 7L14 6L13 6L13 5L12 5L12 6L11 6L11 8L12 8L12 6L13 6L13 8L15 8L15 7L16 7L16 4ZM8 6L8 7L9 7L9 6ZM1 9L1 11L6 11L6 12L7 12L7 13L5 13L5 12L4 12L4 14L5 14L5 15L6 15L6 16L7 16L7 15L8 15L8 14L9 14L9 13L8 13L8 10L7 10L7 9L6 9L6 10L2 10L2 9ZM11 9L11 10L12 10L12 9ZM13 9L13 10L15 10L15 11L14 11L14 12L13 12L13 11L11 11L11 13L10 13L10 18L11 18L11 20L10 20L10 21L12 21L12 18L13 18L13 16L14 16L14 17L15 17L15 16L16 16L16 14L17 14L17 15L20 15L20 16L23 16L23 15L22 15L22 14L17 14L17 12L18 12L18 11L17 11L17 10L15 10L15 9ZM20 9L20 10L19 10L19 13L20 13L20 11L21 11L21 10L22 10L22 9ZM6 10L6 11L7 11L7 10ZM16 11L16 12L14 12L14 13L13 13L13 12L12 12L12 13L11 13L11 16L12 16L12 14L14 14L14 16L15 16L15 14L16 14L16 12L17 12L17 11ZM7 13L7 14L6 14L6 15L7 15L7 14L8 14L8 13ZM14 13L14 14L15 14L15 13ZM17 17L17 20L20 20L20 17ZM21 17L21 18L22 18L22 17ZM18 18L18 19L19 19L19 18ZM19 21L19 22L20 22L20 21ZM9 22L9 24L10 24L10 23L11 23L11 22ZM0 0L0 7L7 7L7 0ZM1 1L1 6L6 6L6 1ZM2 2L2 5L5 5L5 2ZM18 0L18 7L25 7L25 0ZM19 1L19 6L24 6L24 1ZM20 2L20 5L23 5L23 2ZM0 18L0 25L7 25L7 18ZM1 19L1 24L6 24L6 19ZM2 20L2 23L5 23L5 20Z" fill="#282828"/></g></g></svg>
