<?xml version="1.0" encoding="UTF-8"?>
<svg xmlns="http://www.w3.org/2000/svg" version="1.1" width="100" height="100" viewBox="0 0 100 100"><rect x="0" y="0" width="100" height="100" fill="#ffffff"/><g transform="scale(3.226)"><g transform="translate(1,1)"><path fill-rule="evenodd" d="M8 0L8 2L10 2L10 4L8 4L8 9L7 9L7 8L5 8L5 9L7 9L7 10L2 10L2 11L5 11L5 12L6 12L6 13L7 13L7 12L8 12L8 14L6 14L6 15L8 15L8 16L6 16L6 17L5 17L5 16L4 16L4 15L5 15L5 14L3 14L3 16L2 16L2 18L0 18L0 19L2 19L2 20L0 20L0 21L3 21L3 20L5 20L5 21L8 21L8 22L9 22L9 17L10 17L10 18L11 18L11 19L12 19L12 18L11 18L11 16L13 16L13 18L15 18L15 19L16 19L16 16L15 16L15 15L16 15L16 12L17 12L17 13L18 13L18 12L19 12L19 11L20 11L20 14L19 14L19 15L18 15L18 14L17 14L17 15L18 15L18 16L17 16L17 17L18 17L18 19L22 19L22 20L20 20L20 22L19 22L19 27L18 27L18 28L17 28L17 27L16 27L16 26L18 26L18 24L17 24L17 25L16 25L16 24L15 24L15 23L17 23L17 22L18 22L18 20L15 20L15 22L13 22L13 21L14 21L14 19L13 19L13 20L10 20L10 21L12 21L12 23L11 23L11 22L10 22L10 23L11 23L11 24L13 24L13 26L15 26L15 28L17 28L17 29L18 29L18 28L19 28L19 27L21 27L21 26L22 26L22 27L23 27L23 29L27 29L27 28L26 28L26 27L29 27L29 20L28 20L28 19L29 19L29 14L28 14L28 13L27 13L27 14L28 14L28 17L27 17L27 18L24 18L24 17L26 17L26 16L25 16L25 15L26 15L26 14L24 14L24 13L25 13L25 12L26 12L26 11L27 11L27 12L29 12L29 10L28 10L28 11L27 11L27 10L26 10L26 9L25 9L25 8L19 8L19 9L20 9L20 10L18 10L18 8L17 8L17 6L16 6L16 4L15 4L15 3L18 3L18 5L19 5L19 3L21 3L21 2L19 2L19 1L20 1L20 0L19 0L19 1L18 1L18 0L15 0L15 1L13 1L13 0L11 0L11 1L9 1L9 0ZM11 1L11 2L12 2L12 1ZM15 1L15 2L16 2L16 1ZM17 1L17 2L18 2L18 1ZM13 2L13 3L11 3L11 4L12 4L12 6L11 6L11 5L9 5L9 8L10 8L10 6L11 6L11 7L12 7L12 6L13 6L13 8L11 8L11 10L7 10L7 11L6 11L6 12L7 12L7 11L8 11L8 12L9 12L9 11L10 11L10 15L12 15L12 13L11 13L11 12L13 12L13 11L14 11L14 13L13 13L13 14L15 14L15 10L17 10L17 9L16 9L16 8L15 8L15 10L13 10L13 8L14 8L14 6L15 6L15 7L16 7L16 6L15 6L15 5L13 5L13 4L14 4L14 2ZM20 4L20 7L21 7L21 4ZM18 6L18 7L19 7L19 6ZM0 8L0 9L3 9L3 8ZM27 8L27 9L29 9L29 8ZM21 9L21 10L20 10L20 11L21 11L21 14L20 14L20 15L19 15L19 16L18 16L18 17L19 17L19 18L20 18L20 16L21 16L21 18L23 18L23 17L22 17L22 16L23 16L23 13L22 13L22 12L23 12L23 11L25 11L25 9L23 9L23 11L21 11L21 10L22 10L22 9ZM11 10L11 11L12 11L12 10ZM0 11L0 12L1 12L1 14L0 14L0 17L1 17L1 14L2 14L2 12L1 12L1 11ZM17 11L17 12L18 12L18 11ZM8 14L8 15L9 15L9 14ZM21 14L21 16L22 16L22 14ZM13 15L13 16L14 16L14 15ZM4 17L4 19L6 19L6 20L7 20L7 19L8 19L8 18L7 18L7 17L6 17L6 18L5 18L5 17ZM6 18L6 19L7 19L7 18ZM26 19L26 20L27 20L27 19ZM21 21L21 24L24 24L24 21ZM26 21L26 22L27 22L27 21ZM22 22L22 23L23 23L23 22ZM8 23L8 24L9 24L9 26L8 26L8 29L10 29L10 27L9 27L9 26L11 26L11 27L12 27L12 26L11 26L11 25L10 25L10 24L9 24L9 23ZM13 23L13 24L14 24L14 23ZM26 23L26 24L28 24L28 23ZM20 25L20 26L21 26L21 25ZM22 25L22 26L23 26L23 27L24 27L24 28L25 28L25 27L26 27L26 25ZM27 25L27 26L28 26L28 25ZM24 26L24 27L25 27L25 26ZM13 27L13 28L11 28L11 29L14 29L14 27ZM20 28L20 29L22 29L22 28ZM28 28L28 29L29 29L29 28ZM0 0L0 7L7 7L7 0ZM1 1L1 6L6 6L6 1ZM2 2L2 5L5 5L5 2ZM22 0L22 7L29 7L29 0ZM23 1L23 6L28 6L28 1ZM24 2L24 5L27 5L27 2ZM0 22L0 29L7 29L7 22ZM1 23L1 28L6 28L6 23ZM2 24L2 27L5 27L5 24Z" fill="#282828"/></g></g></svg>
