<?xml version="1.0" encoding="UTF-8"?>
<svg xmlns="http://www.w3.org/2000/svg" version="1.1" width="90" height="90" viewBox="0 0 90 90"><rect x="0" y="0" width="90" height="90" fill="#ffffff"/><g transform="scale(3.333)"><g transform="translate(1,1)"><path fill-rule="evenodd" d="M9 0L9 1L8 1L8 3L9 3L9 4L8 4L8 8L6 8L6 9L7 9L7 10L5 10L5 9L4 9L4 8L3 8L3 9L2 9L2 8L0 8L0 11L1 11L1 12L4 12L4 13L2 13L2 14L4 14L4 15L3 15L3 16L4 16L4 17L5 17L5 16L6 16L6 17L7 17L7 16L6 16L6 15L8 15L8 16L9 16L9 14L11 14L11 15L10 15L10 17L8 17L8 19L9 19L9 21L8 21L8 22L10 22L10 23L11 23L11 21L12 21L12 19L9 19L9 18L10 18L10 17L11 17L11 18L12 18L12 17L11 17L11 15L12 15L12 16L13 16L13 17L14 17L14 16L16 16L16 17L15 17L15 19L14 19L14 18L13 18L13 19L14 19L14 20L13 20L13 24L12 24L12 25L14 25L14 24L15 24L15 25L19 25L19 24L20 24L20 25L21 25L21 24L22 24L22 23L23 23L23 22L22 22L22 20L23 20L23 21L24 21L24 20L25 20L25 16L24 16L24 17L23 17L23 18L22 18L22 20L21 20L21 15L22 15L22 14L21 14L21 15L20 15L20 13L24 13L24 14L23 14L23 15L25 15L25 9L24 9L24 8L22 8L22 9L21 9L21 8L18 8L18 9L21 9L21 10L20 10L20 13L19 13L19 10L18 10L18 11L15 11L15 12L16 12L16 13L15 13L15 14L14 14L14 13L13 13L13 14L14 14L14 15L12 15L12 14L11 14L11 13L9 13L9 14L8 14L8 13L7 13L7 12L9 12L9 11L11 11L11 10L12 10L12 9L13 9L13 12L14 12L14 9L15 9L15 10L17 10L17 8L16 8L16 7L17 7L17 4L16 4L16 5L13 5L13 6L12 6L12 5L11 5L11 6L10 6L10 5L9 5L9 4L12 4L12 3L13 3L13 4L15 4L15 2L16 2L16 3L17 3L17 1L15 1L15 0L14 0L14 1L15 1L15 2L14 2L14 3L13 3L13 0L12 0L12 1L11 1L11 2L9 2L9 1L10 1L10 0ZM9 6L9 7L10 7L10 8L8 8L8 9L9 9L9 10L8 10L8 11L9 11L9 10L10 10L10 8L11 8L11 9L12 9L12 6L11 6L11 7L10 7L10 6ZM13 6L13 9L14 9L14 6ZM15 6L15 7L16 7L16 6ZM15 8L15 9L16 9L16 8ZM22 9L22 11L21 11L21 12L23 12L23 11L24 11L24 9ZM2 10L2 11L5 11L5 10ZM6 11L6 12L5 12L5 14L7 14L7 13L6 13L6 12L7 12L7 11ZM16 13L16 14L15 14L15 15L16 15L16 16L20 16L20 15L19 15L19 13L18 13L18 14L17 14L17 13ZM0 14L0 15L1 15L1 16L0 16L0 17L2 17L2 15L1 15L1 14ZM16 14L16 15L17 15L17 14ZM4 15L4 16L5 16L5 15ZM17 17L17 20L20 20L20 17ZM18 18L18 19L19 19L19 18ZM23 18L23 20L24 20L24 18ZM15 20L15 21L16 21L16 20ZM17 21L17 23L16 23L16 24L18 24L18 22L19 22L19 23L20 23L20 22L21 22L21 23L22 23L22 22L21 22L21 21L20 21L20 22L19 22L19 21ZM24 22L24 23L25 23L25 22ZM8 23L8 25L11 25L11 24L9 24L9 23ZM23 24L23 25L25 25L25 24ZM0 0L0 7L7 7L7 0ZM1 1L1 6L6 6L6 1ZM2 2L2 5L5 5L5 2ZM18 0L18 7L25 7L25 0ZM19 1L19 6L24 6L24 1ZM20 2L20 5L23 5L23 2ZM0 18L0 25L7 25L7 18ZM1 19L1 24L6 24L6 19ZM2 20L2 23L5 23L5 20Z" fill="#282828"/></g></g></svg>
