<?xml version="1.0" encoding="UTF-8"?>
<svg xmlns="http://www.w3.org/2000/svg" version="1.1" width="90" height="90" viewBox="0 0 90 90"><rect x="0" y="0" width="90" height="90" fill="#ffffff"/><g transform="scale(3.333)"><g transform="translate(1,1)"><path fill-rule="evenodd" d="M8 0L8 1L9 1L9 2L8 2L8 5L9 5L9 4L11 4L11 5L10 5L10 10L9 10L9 8L8 8L8 9L7 9L7 8L6 8L6 9L7 9L7 10L5 10L5 9L4 9L4 8L0 8L0 9L1 9L1 10L2 10L2 12L1 12L1 13L2 13L2 12L3 12L3 11L5 11L5 12L4 12L4 14L1 14L1 15L0 15L0 16L1 16L1 15L2 15L2 16L3 16L3 17L4 17L4 16L5 16L5 17L7 17L7 16L5 16L5 15L8 15L8 14L10 14L10 15L9 15L9 16L11 16L11 17L8 17L8 18L12 18L12 17L13 17L13 16L12 16L12 15L13 15L13 14L14 14L14 16L16 16L16 18L15 18L15 17L14 17L14 18L13 18L13 19L15 19L15 20L14 20L14 23L13 23L13 20L12 20L12 19L9 19L9 21L8 21L8 25L11 25L11 24L9 24L9 23L10 23L10 22L9 22L9 21L10 21L10 20L12 20L12 21L11 21L11 23L13 23L13 24L12 24L12 25L15 25L15 24L14 24L14 23L16 23L16 24L17 24L17 23L16 23L16 22L15 22L15 20L16 20L16 21L17 21L17 22L19 22L19 24L20 24L20 23L21 23L21 22L22 22L22 24L21 24L21 25L25 25L25 24L23 24L23 23L24 23L24 22L25 22L25 17L24 17L24 16L25 16L25 15L23 15L23 17L21 17L21 16L20 16L20 14L21 14L21 15L22 15L22 14L23 14L23 13L24 13L24 14L25 14L25 11L24 11L24 9L25 9L25 8L24 8L24 9L23 9L23 8L20 8L20 9L18 9L18 8L17 8L17 6L16 6L16 8L15 8L15 4L16 4L16 5L17 5L17 4L16 4L16 3L17 3L17 2L15 2L15 1L17 1L17 0L15 0L15 1L14 1L14 2L13 2L13 0L12 0L12 1L11 1L11 0L10 0L10 1L9 1L9 0ZM11 2L11 4L12 4L12 3L13 3L13 4L14 4L14 3L13 3L13 2ZM12 5L12 6L11 6L11 8L12 8L12 9L11 9L11 10L12 10L12 12L11 12L11 13L10 13L10 14L11 14L11 15L12 15L12 14L13 14L13 13L14 13L14 12L13 12L13 10L14 10L14 11L15 11L15 12L16 12L16 14L15 14L15 15L18 15L18 14L19 14L19 13L23 13L23 12L21 12L21 11L22 11L22 10L23 10L23 9L22 9L22 10L21 10L21 9L20 9L20 10L21 10L21 11L19 11L19 10L18 10L18 11L19 11L19 13L18 13L18 14L17 14L17 12L16 12L16 11L17 11L17 10L15 10L15 9L13 9L13 8L14 8L14 5ZM8 6L8 7L9 7L9 6ZM12 6L12 8L13 8L13 6ZM3 9L3 10L4 10L4 9ZM12 9L12 10L13 10L13 9ZM6 11L6 12L8 12L8 11ZM6 13L6 14L7 14L7 13ZM4 14L4 15L3 15L3 16L4 16L4 15L5 15L5 14ZM17 17L17 20L20 20L20 17ZM18 18L18 19L19 19L19 18ZM22 18L22 22L23 22L23 21L24 21L24 18ZM19 21L19 22L21 22L21 21ZM0 0L0 7L7 7L7 0ZM1 1L1 6L6 6L6 1ZM2 2L2 5L5 5L5 2ZM18 0L18 7L25 7L25 0ZM19 1L19 6L24 6L24 1ZM20 2L20 5L23 5L23 2ZM0 18L0 25L7 25L7 18ZM1 19L1 24L6 24L6 19ZM2 20L2 23L5 23L5 20Z" fill="#282828"/></g></g></svg>
