<?xml version="1.0" encoding="UTF-8"?>
<svg xmlns="http://www.w3.org/2000/svg" version="1.1" width="90" height="90" viewBox="0 0 90 90"><rect x="0" y="0" width="90" height="90" fill="#ffffff"/><g transform="scale(2.903)"><g transform="translate(1,1)"><path fill-rule="evenodd" d="M8 0L8 1L9 1L9 2L10 2L10 3L11 3L11 1L13 1L13 0L11 0L11 1L9 1L9 0ZM15 0L15 1L16 1L16 2L15 2L15 3L16 3L16 4L14 4L14 5L15 5L15 6L14 6L14 7L13 7L13 5L12 5L12 4L13 4L13 2L12 2L12 4L11 4L11 5L10 5L10 4L9 4L9 5L10 5L10 8L9 8L9 6L8 6L8 8L9 8L9 10L10 10L10 11L9 11L9 12L8 12L8 11L7 11L7 10L8 10L8 9L7 9L7 8L6 8L6 9L5 9L5 8L3 8L3 10L1 10L1 12L0 12L0 15L1 15L1 16L0 16L0 21L3 21L3 20L4 20L4 21L8 21L8 22L10 22L10 23L9 23L9 24L8 24L8 26L9 26L9 25L11 25L11 24L10 24L10 23L11 23L11 21L10 21L10 20L9 20L9 19L12 19L12 21L14 21L14 24L13 24L13 25L12 25L12 26L13 26L13 25L15 25L15 26L14 26L14 27L12 27L12 28L11 28L11 26L10 26L10 29L13 29L13 28L15 28L15 29L17 29L17 27L18 27L18 22L19 22L19 21L20 21L20 23L19 23L19 25L20 25L20 26L22 26L22 28L21 28L21 27L20 27L20 28L19 28L19 29L24 29L24 28L26 28L26 29L27 29L27 27L28 27L28 28L29 28L29 24L26 24L26 23L28 23L28 21L29 21L29 20L28 20L28 19L29 19L29 18L28 18L28 17L27 17L27 19L26 19L26 18L25 18L25 17L26 17L26 16L28 16L28 15L29 15L29 12L28 12L28 11L27 11L27 12L26 12L26 9L23 9L23 8L22 8L22 10L20 10L20 11L19 11L19 9L18 9L18 10L17 10L17 1L18 1L18 3L19 3L19 2L20 2L20 1L21 1L21 0L20 0L20 1L19 1L19 0ZM20 3L20 4L21 4L21 3ZM18 4L18 5L19 5L19 4ZM11 5L11 7L12 7L12 9L10 9L10 10L12 10L12 11L13 11L13 10L12 10L12 9L13 9L13 7L12 7L12 5ZM20 5L20 7L19 7L19 6L18 6L18 8L21 8L21 5ZM15 6L15 7L14 7L14 13L15 13L15 10L16 10L16 8L15 8L15 7L16 7L16 6ZM0 8L0 9L2 9L2 8ZM28 8L28 9L27 9L27 10L29 10L29 8ZM6 9L6 10L4 10L4 11L3 11L3 13L4 13L4 14L2 14L2 13L1 13L1 15L2 15L2 16L3 16L3 17L1 17L1 18L3 18L3 19L2 19L2 20L3 20L3 19L4 19L4 20L7 20L7 19L8 19L8 18L11 18L11 17L14 17L14 16L15 16L15 14L14 14L14 15L12 15L12 16L11 16L11 14L13 14L13 13L11 13L11 12L10 12L10 15L9 15L9 14L7 14L7 13L8 13L8 12L7 12L7 11L6 11L6 10L7 10L7 9ZM22 10L22 11L24 11L24 12L25 12L25 10ZM4 11L4 13L7 13L7 12L6 12L6 11ZM18 11L18 13L17 13L17 12L16 12L16 16L18 16L18 17L17 17L17 18L16 18L16 19L15 19L15 18L12 18L12 19L13 19L13 20L14 20L14 19L15 19L15 20L16 20L16 21L17 21L17 22L18 22L18 21L19 21L19 19L17 19L17 18L18 18L18 17L19 17L19 18L20 18L20 16L21 16L21 19L20 19L20 20L22 20L22 17L23 17L23 18L24 18L24 17L23 17L23 16L22 16L22 15L19 15L19 16L18 16L18 15L17 15L17 14L18 14L18 13L19 13L19 11ZM20 11L20 14L22 14L22 13L21 13L21 11ZM25 13L25 14L24 14L24 16L25 16L25 14L26 14L26 15L27 15L27 14L26 14L26 13ZM4 14L4 15L7 15L7 16L6 16L6 17L4 17L4 19L5 19L5 18L6 18L6 19L7 19L7 18L6 18L6 17L8 17L8 16L9 16L9 17L11 17L11 16L9 16L9 15L7 15L7 14ZM23 19L23 20L25 20L25 19ZM8 20L8 21L9 21L9 20ZM21 21L21 24L24 24L24 21ZM25 21L25 23L26 23L26 21ZM12 22L12 23L13 23L13 22ZM22 22L22 23L23 23L23 22ZM15 23L15 24L16 24L16 23ZM22 25L22 26L24 26L24 25ZM25 25L25 26L26 26L26 27L27 27L27 26L28 26L28 25ZM8 27L8 29L9 29L9 27ZM15 27L15 28L16 28L16 27ZM0 0L0 7L7 7L7 0ZM1 1L1 6L6 6L6 1ZM2 2L2 5L5 5L5 2ZM22 0L22 7L29 7L29 0ZM23 1L23 6L28 6L28 1ZM24 2L24 5L27 5L27 2ZM0 22L0 29L7 29L7 22ZM1 23L1 28L6 28L6 23ZM2 24L2 27L5 27L5 24Z" fill="#282828"/></g></g></svg>
