<?xml version="1.0" encoding="UTF-8"?>
<svg xmlns="http://www.w3.org/2000/svg" version="1.1" width="90" height="90" viewBox="0 0 90 90"><rect x="0" y="0" width="90" height="90" fill="#ffffff"/><g transform="scale(2.903)"><g transform="translate(1,1)"><path fill-rule="evenodd" d="M9 0L9 1L8 1L8 3L9 3L9 4L8 4L8 8L6 8L6 9L7 9L7 10L3 10L3 9L4 9L4 8L3 8L3 9L2 9L2 8L0 8L0 9L1 9L1 10L0 10L0 11L2 11L2 10L3 10L3 11L5 11L5 12L4 12L4 13L3 13L3 12L2 12L2 16L1 16L1 14L0 14L0 17L1 17L1 18L0 18L0 19L1 19L1 18L2 18L2 16L3 16L3 19L2 19L2 21L3 21L3 20L4 20L4 21L8 21L8 23L9 23L9 25L8 25L8 26L9 26L9 27L8 27L8 29L9 29L9 27L10 27L10 29L11 29L11 28L12 28L12 29L14 29L14 28L12 28L12 24L14 24L14 25L13 25L13 27L15 27L15 29L16 29L16 28L19 28L19 29L21 29L21 27L19 27L19 26L17 26L17 27L15 27L15 26L16 26L16 24L17 24L17 23L18 23L18 24L19 24L19 23L20 23L20 25L22 25L22 26L24 26L24 27L22 27L22 29L23 29L23 28L24 28L24 29L25 29L25 27L26 27L26 26L28 26L28 27L27 27L27 29L28 29L28 27L29 27L29 26L28 26L28 25L29 25L29 24L28 24L28 23L27 23L27 22L26 22L26 21L27 21L27 20L26 20L26 21L25 21L25 18L27 18L27 17L28 17L28 22L29 22L29 17L28 17L28 16L29 16L29 14L28 14L28 16L27 16L27 17L25 17L25 18L24 18L24 17L22 17L22 16L21 16L21 13L23 13L23 14L24 14L24 15L23 15L23 16L24 16L24 15L25 15L25 14L26 14L26 13L29 13L29 12L28 12L28 10L27 10L27 9L28 9L28 8L26 8L26 10L27 10L27 11L26 11L26 13L25 13L25 14L24 14L24 13L23 13L23 12L22 12L22 11L23 11L23 10L22 10L22 9L25 9L25 8L22 8L22 9L20 9L20 8L21 8L21 6L20 6L20 5L21 5L21 4L20 4L20 3L19 3L19 1L17 1L17 0L16 0L16 1L15 1L15 0L12 0L12 1L11 1L11 2L9 2L9 1L10 1L10 0ZM14 2L14 3L17 3L17 2ZM12 3L12 4L9 4L9 5L10 5L10 6L9 6L9 7L10 7L10 8L8 8L8 9L9 9L9 10L8 10L8 11L6 11L6 12L8 12L8 13L9 13L9 14L8 14L8 16L7 16L7 15L6 15L6 16L7 16L7 17L4 17L4 18L5 18L5 19L4 19L4 20L5 20L5 19L6 19L6 20L8 20L8 21L9 21L9 20L11 20L11 19L12 19L12 20L13 20L13 21L14 21L14 22L15 22L15 23L14 23L14 24L16 24L16 21L17 21L17 20L15 20L15 19L16 19L16 17L18 17L18 18L17 18L17 19L18 19L18 18L19 18L19 19L20 19L20 20L21 20L21 17L20 17L20 13L21 13L21 10L20 10L20 11L19 11L19 12L18 12L18 11L16 11L16 10L19 10L19 8L18 8L18 9L17 9L17 7L18 7L18 6L19 6L19 7L20 7L20 6L19 6L19 5L20 5L20 4L19 4L19 5L18 5L18 4L16 4L16 5L17 5L17 7L16 7L16 6L15 6L15 8L14 8L14 6L13 6L13 3ZM11 5L11 6L10 6L10 7L11 7L11 6L12 6L12 8L13 8L13 6L12 6L12 5ZM10 8L10 10L9 10L9 11L8 11L8 12L9 12L9 11L11 11L11 10L12 10L12 9L11 9L11 8ZM14 9L14 10L15 10L15 9ZM24 10L24 11L25 11L25 10ZM14 11L14 12L16 12L16 11ZM0 12L0 13L1 13L1 12ZM12 12L12 13L10 13L10 14L12 14L12 16L11 16L11 15L9 15L9 17L10 17L10 18L11 18L11 17L12 17L12 16L13 16L13 17L15 17L15 16L16 16L16 15L13 15L13 12ZM6 13L6 14L7 14L7 13ZM16 13L16 14L17 14L17 16L19 16L19 15L18 15L18 14L19 14L19 13ZM4 14L4 15L3 15L3 16L5 16L5 14ZM7 17L7 18L6 18L6 19L8 19L8 20L9 20L9 18L8 18L8 17ZM19 17L19 18L20 18L20 17ZM13 18L13 20L14 20L14 21L15 21L15 20L14 20L14 18ZM22 18L22 20L24 20L24 19L23 19L23 18ZM0 20L0 21L1 21L1 20ZM18 20L18 21L19 21L19 20ZM21 21L21 24L24 24L24 21ZM9 22L9 23L10 23L10 25L9 25L9 26L10 26L10 27L11 27L11 26L10 26L10 25L11 25L11 23L10 23L10 22ZM22 22L22 23L23 23L23 22ZM25 23L25 26L26 26L26 23ZM0 0L0 7L7 7L7 0ZM1 1L1 6L6 6L6 1ZM2 2L2 5L5 5L5 2ZM22 0L22 7L29 7L29 0ZM23 1L23 6L28 6L28 1ZM24 2L24 5L27 5L27 2ZM0 22L0 29L7 29L7 22ZM1 23L1 28L6 28L6 23ZM2 24L2 27L5 27L5 24Z" fill="#282828"/></g></g></svg>
