<?xml version="1.0" encoding="UTF-8"?>
<svg xmlns="http://www.w3.org/2000/svg" version="1.1" width="90" height="90" viewBox="0 0 90 90"><rect x="0" y="0" width="90" height="90" fill="#ffffff"/><g transform="scale(2.903)"><g transform="translate(1,1)"><path fill-rule="evenodd" d="M8 0L8 4L10 4L10 3L11 3L11 4L12 4L12 2L11 2L11 0ZM12 0L12 1L14 1L14 0ZM15 0L15 1L16 1L16 2L14 2L14 3L13 3L13 5L11 5L11 6L10 6L10 7L9 7L9 5L8 5L8 7L9 7L9 8L10 8L10 7L11 7L11 6L12 6L12 8L11 8L11 9L8 9L8 10L6 10L6 9L7 9L7 8L4 8L4 9L5 9L5 10L3 10L3 9L2 9L2 8L0 8L0 9L2 9L2 10L3 10L3 11L2 11L2 12L0 12L0 13L4 13L4 14L6 14L6 15L5 15L5 17L4 17L4 18L3 18L3 19L2 19L2 20L0 20L0 21L2 21L2 20L3 20L3 21L4 21L4 20L5 20L5 19L7 19L7 18L5 18L5 17L8 17L8 16L6 16L6 15L7 15L7 14L6 14L6 13L7 13L7 12L9 12L9 10L11 10L11 11L10 11L10 13L9 13L9 14L8 14L8 15L9 15L9 19L10 19L10 18L11 18L11 20L8 20L8 22L9 22L9 23L8 23L8 25L10 25L10 26L9 26L9 27L8 27L8 29L9 29L9 28L10 28L10 27L11 27L11 28L12 28L12 29L14 29L14 27L16 27L16 28L15 28L15 29L16 29L16 28L17 28L17 29L18 29L18 28L19 28L19 26L17 26L17 25L18 25L18 24L19 24L19 25L20 25L20 26L21 26L21 28L20 28L20 29L21 29L21 28L23 28L23 27L22 27L22 26L21 26L21 25L23 25L23 26L24 26L24 25L28 25L28 26L27 26L27 29L28 29L28 28L29 28L29 25L28 25L28 23L29 23L29 21L26 21L26 20L24 20L24 19L25 19L25 18L26 18L26 19L28 19L28 20L29 20L29 17L28 17L28 16L27 16L27 17L22 17L22 15L23 15L23 14L24 14L24 16L26 16L26 15L25 15L25 13L26 13L26 14L27 14L27 15L29 15L29 13L28 13L28 12L29 12L29 10L28 10L28 9L29 9L29 8L25 8L25 9L24 9L24 8L23 8L23 9L22 9L22 10L25 10L25 13L24 13L24 12L23 12L23 11L22 11L22 12L21 12L21 11L20 11L20 13L22 13L22 14L20 14L20 15L21 15L21 16L19 16L19 17L22 17L22 18L21 18L21 19L22 19L22 20L20 20L20 19L19 19L19 21L18 21L18 19L16 19L16 18L17 18L17 16L18 16L18 14L19 14L19 9L18 9L18 7L19 7L19 6L20 6L20 7L21 7L21 6L20 6L20 5L19 5L19 4L20 4L20 3L21 3L21 2L20 2L20 1L19 1L19 0L18 0L18 2L17 2L17 1L16 1L16 0ZM9 2L9 3L10 3L10 2ZM19 2L19 3L20 3L20 2ZM14 3L14 6L13 6L13 8L12 8L12 9L11 9L11 10L12 10L12 9L13 9L13 10L14 10L14 9L13 9L13 8L14 8L14 6L15 6L15 7L16 7L16 5L17 5L17 4L18 4L18 3L16 3L16 5L15 5L15 3ZM18 5L18 6L17 6L17 7L18 7L18 6L19 6L19 5ZM15 8L15 9L17 9L17 10L18 10L18 9L17 9L17 8ZM20 8L20 9L21 9L21 8ZM25 9L25 10L27 10L27 11L26 11L26 12L28 12L28 10L27 10L27 9ZM0 10L0 11L1 11L1 10ZM4 11L4 12L5 12L5 13L6 13L6 12L7 12L7 11L6 11L6 12L5 12L5 11ZM12 11L12 12L11 12L11 13L10 13L10 15L11 15L11 16L10 16L10 17L11 17L11 18L12 18L12 17L13 17L13 18L16 18L16 17L13 17L13 16L14 16L14 15L15 15L15 16L17 16L17 14L18 14L18 13L17 13L17 14L16 14L16 15L15 15L15 14L13 14L13 13L12 13L12 12L13 12L13 11ZM14 11L14 13L16 13L16 12L15 12L15 11ZM22 12L22 13L23 13L23 12ZM0 14L0 15L1 15L1 16L0 16L0 18L1 18L1 16L3 16L3 15L2 15L2 14ZM12 15L12 16L11 16L11 17L12 17L12 16L13 16L13 15ZM4 18L4 19L5 19L5 18ZM12 19L12 20L11 20L11 21L9 21L9 22L10 22L10 25L11 25L11 26L12 26L12 25L13 25L13 26L15 26L15 25L13 25L13 24L14 24L14 23L15 23L15 22L13 22L13 21L12 21L12 20L13 20L13 19ZM14 19L14 21L17 21L17 20L15 20L15 19ZM6 20L6 21L7 21L7 20ZM21 21L21 24L24 24L24 21ZM16 22L16 23L18 23L18 22ZM22 22L22 23L23 23L23 22ZM25 22L25 23L26 23L26 24L27 24L27 22ZM12 23L12 24L11 24L11 25L12 25L12 24L13 24L13 23ZM16 24L16 25L17 25L17 24ZM16 26L16 27L17 27L17 26ZM12 27L12 28L13 28L13 27ZM25 27L25 28L24 28L24 29L26 29L26 27ZM0 0L0 7L7 7L7 0ZM1 1L1 6L6 6L6 1ZM2 2L2 5L5 5L5 2ZM22 0L22 7L29 7L29 0ZM23 1L23 6L28 6L28 1ZM24 2L24 5L27 5L27 2ZM0 22L0 29L7 29L7 22ZM1 23L1 28L6 28L6 23ZM2 24L2 27L5 27L5 24Z" fill="#282828"/></g></g></svg>
