<?xml version="1.0" encoding="UTF-8"?>
<svg xmlns="http://www.w3.org/2000/svg" version="1.1" width="90" height="90" viewBox="0 0 90 90"><rect x="0" y="0" width="90" height="90" fill="#ffffff"/><g transform="scale(2.903)"><g transform="translate(1,1)"><path fill-rule="evenodd" d="M9 0L9 1L8 1L8 2L9 2L9 3L8 3L8 4L10 4L10 7L11 7L11 8L6 8L6 9L5 9L5 8L0 8L0 9L5 9L5 10L6 10L6 11L8 11L8 12L9 12L9 14L6 14L6 13L7 13L7 12L5 12L5 14L3 14L3 13L4 13L4 11L3 11L3 10L2 10L2 12L0 12L0 21L1 21L1 17L2 17L2 18L4 18L4 19L2 19L2 20L5 20L5 19L8 19L8 20L6 20L6 21L8 21L8 23L10 23L10 22L12 22L12 24L13 24L13 22L12 22L12 21L13 21L13 19L12 19L12 21L10 21L10 22L9 22L9 20L10 20L10 19L11 19L11 18L14 18L14 17L15 17L15 19L14 19L14 21L15 21L15 22L14 22L14 23L15 23L15 24L14 24L14 25L16 25L16 22L17 22L17 20L15 20L15 19L17 19L17 17L16 17L16 15L17 15L17 13L15 13L15 12L17 12L17 11L19 11L19 10L20 10L20 12L23 12L23 11L24 11L24 13L23 13L23 14L22 14L22 13L19 13L19 14L20 14L20 15L18 15L18 16L20 16L20 17L18 17L18 19L19 19L19 18L21 18L21 16L20 16L20 15L21 15L21 14L22 14L22 16L24 16L24 17L23 17L23 19L24 19L24 20L20 20L20 21L19 21L19 22L18 22L18 24L20 24L20 25L17 25L17 26L15 26L15 27L14 27L14 29L16 29L16 27L17 27L17 26L18 26L18 28L19 28L19 29L20 29L20 28L19 28L19 27L20 27L20 25L21 25L21 29L22 29L22 27L23 27L23 29L26 29L26 27L27 27L27 28L28 28L28 26L29 26L29 25L28 25L28 24L27 24L27 25L25 25L25 24L26 24L26 23L25 23L25 19L24 19L24 18L25 18L25 17L27 17L27 16L26 16L26 15L25 15L25 14L26 14L26 13L25 13L25 12L26 12L26 11L27 11L27 12L29 12L29 11L27 11L27 9L28 9L28 8L27 8L27 9L26 9L26 8L25 8L25 9L24 9L24 8L23 8L23 10L22 10L22 8L21 8L21 10L20 10L20 9L19 9L19 10L17 10L17 8L16 8L16 7L17 7L17 5L15 5L15 6L14 6L14 9L15 9L15 11L14 11L14 10L13 10L13 9L11 9L11 8L12 8L12 7L13 7L13 3L12 3L12 2L14 2L14 1L15 1L15 3L14 3L14 4L16 4L16 1L17 1L17 2L18 2L18 1L19 1L19 0L14 0L14 1L11 1L11 2L10 2L10 0ZM20 0L20 3L19 3L19 4L20 4L20 5L21 5L21 4L20 4L20 3L21 3L21 0ZM10 3L10 4L11 4L11 7L12 7L12 4L11 4L11 3ZM8 5L8 7L9 7L9 5ZM15 6L15 7L16 7L16 6ZM18 6L18 7L19 7L19 6ZM20 6L20 7L21 7L21 6ZM15 8L15 9L16 9L16 8ZM6 9L6 10L9 10L9 9ZM10 9L10 11L12 11L12 12L10 12L10 13L14 13L14 14L9 14L9 15L6 15L6 14L5 14L5 15L6 15L6 16L4 16L4 15L2 15L2 13L3 13L3 12L2 12L2 13L1 13L1 16L2 16L2 17L4 17L4 18L8 18L8 19L10 19L10 18L11 18L11 17L14 17L14 16L15 16L15 13L14 13L14 11L13 11L13 10L11 10L11 9ZM16 10L16 11L17 11L17 10ZM21 10L21 11L22 11L22 10ZM28 13L28 14L27 14L27 15L28 15L28 16L29 16L29 15L28 15L28 14L29 14L29 13ZM10 15L10 17L8 17L8 16L6 16L6 17L8 17L8 18L10 18L10 17L11 17L11 15ZM12 15L12 16L13 16L13 15ZM24 15L24 16L25 16L25 15ZM28 17L28 18L26 18L26 19L28 19L28 18L29 18L29 17ZM26 20L26 21L28 21L28 22L27 22L27 23L28 23L28 22L29 22L29 21L28 21L28 20ZM21 21L21 24L24 24L24 21ZM22 22L22 23L23 23L23 22ZM8 24L8 29L10 29L10 28L11 28L11 29L12 29L12 27L11 27L11 26L12 26L12 25L11 25L11 24ZM9 25L9 26L10 26L10 25ZM22 25L22 26L23 26L23 25ZM27 25L27 26L28 26L28 25ZM0 0L0 7L7 7L7 0ZM1 1L1 6L6 6L6 1ZM2 2L2 5L5 5L5 2ZM22 0L22 7L29 7L29 0ZM23 1L23 6L28 6L28 1ZM24 2L24 5L27 5L27 2ZM0 22L0 29L7 29L7 22ZM1 23L1 28L6 28L6 23ZM2 24L2 27L5 27L5 24Z" fill="#282828"/></g></g></svg>
