<?xml version="1.0" encoding="UTF-8"?>
<svg xmlns="http://www.w3.org/2000/svg" version="1.1" width="90" height="90" viewBox="0 0 90 90"><rect x="0" y="0" width="90" height="90" fill="#ffffff"/><g transform="scale(3.333)"><g transform="translate(1,1)"><path fill-rule="evenodd" d="M10 0L10 2L11 2L11 0ZM12 0L12 1L13 1L13 0ZM15 0L15 1L14 1L14 2L16 2L16 3L17 3L17 2L16 2L16 1L17 1L17 0ZM8 1L8 2L9 2L9 1ZM12 2L12 4L13 4L13 2ZM8 3L8 4L9 4L9 5L8 5L8 7L9 7L9 8L6 8L6 9L5 9L5 8L0 8L0 9L1 9L1 11L0 11L0 17L1 17L1 14L4 14L4 15L2 15L2 16L4 16L4 15L5 15L5 16L6 16L6 17L7 17L7 16L6 16L6 15L7 15L7 14L8 14L8 13L7 13L7 12L9 12L9 13L11 13L11 12L9 12L9 11L8 11L8 10L9 10L9 9L10 9L10 11L11 11L11 9L12 9L12 10L13 10L13 11L12 11L12 13L14 13L14 14L15 14L15 16L12 16L12 15L13 15L13 14L10 14L10 15L11 15L11 16L9 16L9 15L8 15L8 19L11 19L11 18L10 18L10 17L12 17L12 18L13 18L13 17L15 17L15 19L14 19L14 20L13 20L13 19L12 19L12 20L8 20L8 25L10 25L10 23L11 23L11 24L12 24L12 23L11 23L11 22L13 22L13 21L14 21L14 22L15 22L15 23L14 23L14 24L13 24L13 25L14 25L14 24L15 24L15 25L16 25L16 24L17 24L17 25L18 25L18 24L19 24L19 23L20 23L20 22L19 22L19 21L21 21L21 25L25 25L25 21L23 21L23 20L25 20L25 18L24 18L24 17L25 17L25 14L24 14L24 13L25 13L25 12L24 12L24 11L25 11L25 10L24 10L24 8L23 8L23 9L22 9L22 8L21 8L21 9L20 9L20 8L19 8L19 9L18 9L18 8L17 8L17 9L15 9L15 8L16 8L16 7L17 7L17 4L15 4L15 3L14 3L14 4L15 4L15 6L14 6L14 9L12 9L12 7L13 7L13 5L11 5L11 6L10 6L10 4L11 4L11 3ZM9 6L9 7L10 7L10 6ZM11 6L11 7L12 7L12 6ZM15 6L15 7L16 7L16 6ZM10 8L10 9L11 9L11 8ZM2 9L2 11L1 11L1 12L2 12L2 13L3 13L3 12L4 12L4 14L5 14L5 15L6 15L6 14L7 14L7 13L6 13L6 14L5 14L5 12L4 12L4 11L6 11L6 12L7 12L7 11L6 11L6 10L8 10L8 9L6 9L6 10L5 10L5 9ZM17 9L17 10L16 10L16 11L15 11L15 12L16 12L16 11L18 11L18 12L17 12L17 16L18 16L18 15L19 15L19 16L20 16L20 15L21 15L21 16L22 16L22 17L21 17L21 18L22 18L22 19L21 19L21 21L22 21L22 22L23 22L23 23L22 23L22 24L24 24L24 22L23 22L23 21L22 21L22 20L23 20L23 19L24 19L24 18L23 18L23 17L24 17L24 16L23 16L23 15L24 15L24 14L23 14L23 15L22 15L22 13L23 13L23 11L24 11L24 10L21 10L21 13L20 13L20 12L19 12L19 11L20 11L20 10L19 10L19 11L18 11L18 9ZM3 10L3 11L4 11L4 10ZM13 11L13 12L14 12L14 11ZM19 13L19 15L20 15L20 13ZM17 17L17 20L20 20L20 17ZM18 18L18 19L19 19L19 18ZM15 19L15 20L14 20L14 21L15 21L15 20L16 20L16 19ZM12 20L12 21L13 21L13 20ZM10 21L10 22L9 22L9 23L10 23L10 22L11 22L11 21ZM16 21L16 23L17 23L17 24L18 24L18 23L19 23L19 22L18 22L18 23L17 23L17 21ZM0 0L0 7L7 7L7 0ZM1 1L1 6L6 6L6 1ZM2 2L2 5L5 5L5 2ZM18 0L18 7L25 7L25 0ZM19 1L19 6L24 6L24 1ZM20 2L20 5L23 5L23 2ZM0 18L0 25L7 25L7 18ZM1 19L1 24L6 24L6 19ZM2 20L2 23L5 23L5 20Z" fill="#282828"/></g></g></svg>
