<?xml version="1.0" encoding="UTF-8"?>
<svg xmlns="http://www.w3.org/2000/svg" version="1.1" width="90" height="90" viewBox="0 0 90 90"><rect x="0" y="0" width="90" height="90" fill="#ffffff"/><g transform="scale(3.333)"><g transform="translate(1,1)"><path fill-rule="evenodd" d="M9 0L9 1L8 1L8 2L9 2L9 3L8 3L8 4L10 4L10 7L11 7L11 4L12 4L12 5L13 5L13 4L16 4L16 5L14 5L14 9L13 9L13 6L12 6L12 9L13 9L13 10L11 10L11 11L10 11L10 9L11 9L11 8L6 8L6 9L5 9L5 8L0 8L0 17L1 17L1 14L2 14L2 12L4 12L4 13L3 13L3 15L4 15L4 13L8 13L8 11L7 11L7 10L6 10L6 9L8 9L8 10L9 10L9 14L5 14L5 15L7 15L7 16L2 16L2 17L7 17L7 16L8 16L8 19L9 19L9 20L8 20L8 25L9 25L9 24L10 24L10 25L11 25L11 24L12 24L12 23L11 23L11 21L12 21L12 22L13 22L13 21L14 21L14 22L16 22L16 21L18 21L18 22L19 22L19 21L20 21L20 22L21 22L21 23L22 23L22 22L24 22L24 24L21 24L21 25L25 25L25 21L23 21L23 20L21 20L21 19L22 19L22 18L24 18L24 20L25 20L25 18L24 18L24 17L25 17L25 14L24 14L24 13L25 13L25 12L24 12L24 11L25 11L25 9L24 9L24 8L23 8L23 9L22 9L22 8L21 8L21 9L22 9L22 11L23 11L23 13L22 13L22 12L21 12L21 11L19 11L19 10L20 10L20 8L19 8L19 10L17 10L17 9L18 9L18 8L17 8L17 3L16 3L16 1L17 1L17 0L16 0L16 1L15 1L15 0L13 0L13 1L11 1L11 2L10 2L10 0ZM14 1L14 2L12 2L12 4L13 4L13 3L15 3L15 1ZM10 3L10 4L11 4L11 3ZM8 5L8 7L9 7L9 5ZM15 6L15 7L16 7L16 6ZM16 8L16 9L15 9L15 10L16 10L16 12L15 12L15 14L14 14L14 13L13 13L13 12L14 12L14 11L12 11L12 13L11 13L11 12L10 12L10 13L11 13L11 14L9 14L9 15L8 15L8 16L9 16L9 19L10 19L10 20L9 20L9 21L10 21L10 20L11 20L11 19L10 19L10 16L11 16L11 18L13 18L13 19L12 19L12 20L14 20L14 21L15 21L15 20L16 20L16 18L15 18L15 17L12 17L12 15L13 15L13 16L17 16L17 15L18 15L18 14L19 14L19 16L23 16L23 17L24 17L24 16L23 16L23 15L24 15L24 14L22 14L22 13L21 13L21 12L19 12L19 13L17 13L17 10L16 10L16 9L17 9L17 8ZM2 9L2 10L1 10L1 12L2 12L2 10L3 10L3 11L4 11L4 12L5 12L5 11L6 11L6 12L7 12L7 11L6 11L6 10L5 10L5 9ZM12 13L12 14L13 14L13 13ZM16 13L16 14L15 14L15 15L17 15L17 13ZM19 13L19 14L20 14L20 13ZM9 15L9 16L10 16L10 15ZM17 17L17 20L20 20L20 17ZM21 17L21 18L22 18L22 17ZM18 18L18 19L19 19L19 18ZM14 19L14 20L15 20L15 19ZM21 21L21 22L22 22L22 21ZM9 22L9 23L10 23L10 22ZM14 23L14 24L13 24L13 25L14 25L14 24L15 24L15 23ZM18 23L18 25L20 25L20 23ZM0 0L0 7L7 7L7 0ZM1 1L1 6L6 6L6 1ZM2 2L2 5L5 5L5 2ZM18 0L18 7L25 7L25 0ZM19 1L19 6L24 6L24 1ZM20 2L20 5L23 5L23 2ZM0 18L0 25L7 25L7 18ZM1 19L1 24L6 24L6 19ZM2 20L2 23L5 23L5 20Z" fill="#282828"/></g></g></svg>
