<?xml version="1.0" encoding="UTF-8"?>
<svg xmlns="http://www.w3.org/2000/svg" version="1.1" width="90" height="90" viewBox="0 0 90 90"><rect x="0" y="0" width="90" height="90" fill="#ffffff"/><g transform="scale(3.333)"><g transform="translate(1,1)"><path fill-rule="evenodd" d="M8 0L8 1L11 1L11 3L10 3L10 2L9 2L9 3L10 3L10 5L9 5L9 6L8 6L8 8L9 8L9 9L8 9L8 10L6 10L6 9L7 9L7 8L6 8L6 9L5 9L5 8L3 8L3 9L2 9L2 8L0 8L0 10L1 10L1 11L0 11L0 12L2 12L2 13L5 13L5 14L3 14L3 16L2 16L2 17L3 17L3 16L4 16L4 17L5 17L5 15L7 15L7 16L6 16L6 17L8 17L8 18L10 18L10 17L12 17L12 18L11 18L11 19L9 19L9 20L8 20L8 22L9 22L9 23L8 23L8 25L9 25L9 23L10 23L10 24L11 24L11 25L12 25L12 24L13 24L13 23L14 23L14 24L16 24L16 25L17 25L17 24L16 24L16 22L15 22L15 23L14 23L14 21L17 21L17 23L18 23L18 25L22 25L22 24L24 24L24 25L25 25L25 21L24 21L24 20L25 20L25 18L23 18L23 17L25 17L25 14L24 14L24 12L25 12L25 10L24 10L24 9L25 9L25 8L24 8L24 9L22 9L22 10L21 10L21 9L19 9L19 8L18 8L18 9L17 9L17 8L16 8L16 7L17 7L17 6L16 6L16 7L15 7L15 4L16 4L16 5L17 5L17 2L14 2L14 1L15 1L15 0L13 0L13 1L12 1L12 0ZM12 2L12 3L13 3L13 2ZM14 3L14 4L15 4L15 3ZM10 5L10 6L9 6L9 7L10 7L10 9L9 9L9 10L8 10L8 11L6 11L6 10L5 10L5 9L3 9L3 11L2 11L2 12L3 12L3 11L4 11L4 12L5 12L5 11L6 11L6 12L11 12L11 13L13 13L13 14L11 14L11 16L12 16L12 17L13 17L13 18L12 18L12 19L11 19L11 20L9 20L9 22L10 22L10 21L12 21L12 22L13 22L13 21L12 21L12 19L13 19L13 18L14 18L14 20L15 20L15 19L16 19L16 18L14 18L14 17L15 17L15 16L19 16L19 15L18 15L18 14L20 14L20 13L22 13L22 12L20 12L20 13L18 13L18 12L19 12L19 11L18 11L18 12L17 12L17 13L16 13L16 14L17 14L17 15L14 15L14 13L15 13L15 12L16 12L16 11L17 11L17 9L16 9L16 11L13 11L13 12L11 12L11 10L10 10L10 9L13 9L13 10L14 10L14 8L15 8L15 7L14 7L14 5L13 5L13 7L14 7L14 8L12 8L12 6L11 6L11 5ZM10 6L10 7L11 7L11 6ZM18 9L18 10L19 10L19 9ZM9 10L9 11L10 11L10 10ZM20 10L20 11L21 11L21 10ZM22 10L22 11L23 11L23 10ZM0 13L0 17L1 17L1 15L2 15L2 14L1 14L1 13ZM6 13L6 14L7 14L7 15L9 15L9 16L8 16L8 17L10 17L10 14L9 14L9 13ZM21 14L21 15L20 15L20 16L21 16L21 15L24 15L24 14ZM12 15L12 16L13 16L13 17L14 17L14 16L13 16L13 15ZM22 16L22 17L23 17L23 16ZM17 17L17 20L20 20L20 17ZM18 18L18 19L19 19L19 18ZM22 19L22 20L21 20L21 21L19 21L19 22L18 22L18 23L19 23L19 24L22 24L22 23L19 23L19 22L22 22L22 21L23 21L23 20L24 20L24 19ZM0 0L0 7L7 7L7 0ZM1 1L1 6L6 6L6 1ZM2 2L2 5L5 5L5 2ZM18 0L18 7L25 7L25 0ZM19 1L19 6L24 6L24 1ZM20 2L20 5L23 5L23 2ZM0 18L0 25L7 25L7 18ZM1 19L1 24L6 24L6 19ZM2 20L2 23L5 23L5 20Z" fill="#282828"/></g></g></svg>
