<?xml version="1.0" encoding="UTF-8"?>
<svg xmlns="http://www.w3.org/2000/svg" version="1.1" width="90" height="90" viewBox="0 0 90 90"><rect x="0" y="0" width="90" height="90" fill="#ffffff"/><g transform="scale(2.903)"><g transform="translate(1,1)"><path fill-rule="evenodd" d="M8 0L8 1L9 1L9 2L8 2L8 5L9 5L9 4L11 4L11 5L10 5L10 10L9 10L9 8L8 8L8 9L7 9L7 8L6 8L6 9L5 9L5 10L4 10L4 8L0 8L0 9L1 9L1 10L0 10L0 11L1 11L1 13L0 13L0 17L1 17L1 15L2 15L2 19L3 19L3 20L1 20L1 21L3 21L3 20L4 20L4 21L5 21L5 20L4 20L4 17L5 17L5 18L6 18L6 19L7 19L7 20L6 20L6 21L8 21L8 22L11 22L11 21L8 21L8 19L11 19L11 20L12 20L12 19L11 19L11 18L10 18L10 17L11 17L11 16L12 16L12 17L13 17L13 16L12 16L12 14L13 14L13 15L14 15L14 18L13 18L13 21L15 21L15 19L16 19L16 17L15 17L15 16L16 16L16 15L14 15L14 14L16 14L16 13L17 13L17 11L19 11L19 9L20 9L20 10L22 10L22 11L21 11L21 12L23 12L23 11L24 11L24 13L25 13L25 15L23 15L23 14L17 14L17 15L23 15L23 16L25 16L25 18L24 18L24 17L22 17L22 16L20 16L20 17L19 17L19 16L17 16L17 20L18 20L18 24L19 24L19 22L20 22L20 26L21 26L21 25L25 25L25 26L26 26L26 27L24 27L24 26L23 26L23 29L24 29L24 28L26 28L26 29L28 29L28 27L29 27L29 25L28 25L28 27L27 27L27 25L25 25L25 21L27 21L27 20L28 20L28 22L29 22L29 20L28 20L28 17L29 17L29 16L28 16L28 15L29 15L29 13L28 13L28 12L29 12L29 11L28 11L28 10L27 10L27 8L24 8L24 9L23 9L23 10L22 10L22 8L21 8L21 9L20 9L20 8L18 8L18 7L19 7L19 6L20 6L20 7L21 7L21 5L19 5L19 6L18 6L18 7L17 7L17 5L18 5L18 4L20 4L20 3L21 3L21 0L20 0L20 3L19 3L19 0L18 0L18 3L17 3L17 1L16 1L16 0L15 0L15 1L16 1L16 3L14 3L14 5L13 5L13 3L12 3L12 4L11 4L11 2L14 2L14 0L12 0L12 1L11 1L11 0L10 0L10 1L9 1L9 0ZM16 4L16 5L14 5L14 6L13 6L13 5L12 5L12 6L11 6L11 8L12 8L12 6L13 6L13 8L14 8L14 9L15 9L15 10L14 10L14 11L11 11L11 13L9 13L9 12L8 12L8 10L7 10L7 9L6 9L6 10L7 10L7 11L6 11L6 12L8 12L8 14L7 14L7 13L6 13L6 14L7 14L7 15L6 15L6 16L7 16L7 17L6 17L6 18L7 18L7 19L8 19L8 18L7 18L7 17L8 17L8 16L9 16L9 17L10 17L10 16L11 16L11 15L10 15L10 14L11 14L11 13L12 13L12 12L13 12L13 14L14 14L14 12L16 12L16 10L18 10L18 8L17 8L17 7L16 7L16 5L17 5L17 4ZM8 6L8 7L9 7L9 6ZM14 6L14 7L15 7L15 6ZM15 8L15 9L16 9L16 8ZM28 8L28 9L29 9L29 8ZM2 9L2 14L3 14L3 16L5 16L5 12L3 12L3 11L4 11L4 10L3 10L3 9ZM11 9L11 10L12 10L12 9ZM24 10L24 11L25 11L25 13L27 13L27 10L26 10L26 11L25 11L25 10ZM19 12L19 13L20 13L20 12ZM26 14L26 18L25 18L25 19L23 19L23 18L22 18L22 19L21 19L21 20L22 20L22 19L23 19L23 20L26 20L26 18L27 18L27 17L28 17L28 16L27 16L27 15L28 15L28 14ZM9 15L9 16L10 16L10 15ZM18 17L18 20L19 20L19 19L20 19L20 18L19 18L19 17ZM0 18L0 19L1 19L1 18ZM16 21L16 23L15 23L15 22L14 22L14 23L11 23L11 26L10 26L10 23L9 23L9 25L8 25L8 29L9 29L9 28L10 28L10 27L11 27L11 26L12 26L12 28L11 28L11 29L12 29L12 28L14 28L14 27L15 27L15 26L14 26L14 25L13 25L13 26L12 26L12 24L16 24L16 26L17 26L17 24L16 24L16 23L17 23L17 21ZM21 21L21 24L24 24L24 21ZM22 22L22 23L23 23L23 22ZM26 22L26 23L27 23L27 22ZM28 23L28 24L29 24L29 23ZM9 26L9 27L10 27L10 26ZM13 26L13 27L14 27L14 26ZM18 26L18 27L19 27L19 28L17 28L17 27L16 27L16 28L15 28L15 29L16 29L16 28L17 28L17 29L21 29L21 28L22 28L22 27L21 27L21 28L20 28L20 27L19 27L19 26ZM26 27L26 28L27 28L27 27ZM0 0L0 7L7 7L7 0ZM1 1L1 6L6 6L6 1ZM2 2L2 5L5 5L5 2ZM22 0L22 7L29 7L29 0ZM23 1L23 6L28 6L28 1ZM24 2L24 5L27 5L27 2ZM0 22L0 29L7 29L7 22ZM1 23L1 28L6 28L6 23ZM2 24L2 27L5 27L5 24Z" fill="#282828"/></g></g></svg>
