<?xml version="1.0" encoding="UTF-8"?>
<svg xmlns="http://www.w3.org/2000/svg" version="1.1" width="90" height="90" viewBox="0 0 90 90"><rect x="0" y="0" width="90" height="90" fill="#ffffff"/><g transform="scale(3.333)"><g transform="translate(1,1)"><path fill-rule="evenodd" d="M10 0L10 1L8 1L8 3L9 3L9 4L8 4L8 8L6 8L6 9L5 9L5 10L4 10L4 11L3 11L3 9L4 9L4 8L3 8L3 9L2 9L2 8L0 8L0 9L1 9L1 10L0 10L0 11L1 11L1 12L0 12L0 13L3 13L3 14L2 14L2 15L1 15L1 14L0 14L0 15L1 15L1 16L0 16L0 17L4 17L4 16L5 16L5 17L7 17L7 16L8 16L8 15L9 15L9 17L8 17L8 19L9 19L9 17L10 17L10 16L12 16L12 14L10 14L10 13L12 13L12 12L11 12L11 11L8 11L8 12L6 12L6 11L7 11L7 10L10 10L10 9L8 9L8 8L9 8L9 5L10 5L10 8L11 8L11 9L12 9L12 8L11 8L11 4L10 4L10 3L9 3L9 2L11 2L11 0ZM14 0L14 1L15 1L15 2L14 2L14 3L13 3L13 4L12 4L12 5L14 5L14 7L15 7L15 8L14 8L14 9L15 9L15 10L12 10L12 11L13 11L13 12L14 12L14 11L15 11L15 12L17 12L17 15L19 15L19 16L16 16L16 15L13 15L13 17L14 17L14 18L16 18L16 21L15 21L15 19L14 19L14 22L16 22L16 21L19 21L19 22L20 22L20 23L15 23L15 24L16 24L16 25L17 25L17 24L20 24L20 25L21 25L21 24L22 24L22 23L23 23L23 22L22 22L22 20L24 20L24 19L25 19L25 16L24 16L24 17L23 17L23 18L22 18L22 20L21 20L21 15L22 15L22 14L21 14L21 15L19 15L19 14L20 14L20 13L19 13L19 12L21 12L21 13L23 13L23 12L21 12L21 10L22 10L22 11L23 11L23 10L22 10L22 9L24 9L24 11L25 11L25 9L24 9L24 8L22 8L22 9L21 9L21 8L18 8L18 9L17 9L17 4L16 4L16 5L14 5L14 4L15 4L15 2L16 2L16 1L15 1L15 0ZM12 6L12 7L13 7L13 6ZM15 6L15 7L16 7L16 6ZM15 8L15 9L16 9L16 8ZM6 9L6 10L5 10L5 11L6 11L6 10L7 10L7 9ZM19 9L19 10L18 10L18 12L19 12L19 11L20 11L20 10L21 10L21 9ZM1 10L1 11L2 11L2 12L3 12L3 11L2 11L2 10ZM15 10L15 11L17 11L17 10ZM8 12L8 14L7 14L7 13L6 13L6 14L3 14L3 15L5 15L5 16L7 16L7 15L8 15L8 14L9 14L9 13L10 13L10 12ZM15 13L15 14L16 14L16 13ZM24 13L24 14L23 14L23 15L25 15L25 13ZM6 14L6 15L7 15L7 14ZM14 16L14 17L16 17L16 16ZM11 17L11 18L12 18L12 17ZM17 17L17 20L20 20L20 17ZM18 18L18 19L19 19L19 18ZM23 18L23 19L24 19L24 18ZM10 19L10 20L9 20L9 21L8 21L8 22L9 22L9 23L8 23L8 25L11 25L11 24L9 24L9 23L11 23L11 21L12 21L12 23L13 23L13 25L14 25L14 23L13 23L13 20L12 20L12 19ZM10 20L10 21L11 21L11 20ZM20 21L20 22L21 22L21 23L22 23L22 22L21 22L21 21ZM24 22L24 23L25 23L25 22ZM23 24L23 25L25 25L25 24ZM0 0L0 7L7 7L7 0ZM1 1L1 6L6 6L6 1ZM2 2L2 5L5 5L5 2ZM18 0L18 7L25 7L25 0ZM19 1L19 6L24 6L24 1ZM20 2L20 5L23 5L23 2ZM0 18L0 25L7 25L7 18ZM1 19L1 24L6 24L6 19ZM2 20L2 23L5 23L5 20Z" fill="#282828"/></g></g></svg>
