<?xml version="1.0" encoding="UTF-8"?>
<svg xmlns="http://www.w3.org/2000/svg" version="1.1" width="90" height="90" viewBox="0 0 90 90"><rect x="0" y="0" width="90" height="90" fill="#ffffff"/><g transform="scale(2.903)"><g transform="translate(1,1)"><path fill-rule="evenodd" d="M10 0L10 2L11 2L11 0ZM12 0L12 1L13 1L13 2L12 2L12 4L13 4L13 3L14 3L14 4L18 4L18 5L17 5L17 6L16 6L16 5L15 5L15 6L14 6L14 8L16 8L16 9L18 9L18 10L20 10L20 12L21 12L21 13L19 13L19 14L20 14L20 15L18 15L18 16L17 16L17 17L16 17L16 15L17 15L17 14L15 14L15 15L14 15L14 16L15 16L15 17L12 17L12 15L13 15L13 14L11 14L11 15L9 15L9 16L6 16L6 15L7 15L7 14L6 14L6 15L5 15L5 14L3 14L3 15L4 15L4 16L3 16L3 17L2 17L2 18L3 18L3 17L4 17L4 18L6 18L6 19L7 19L7 20L6 20L6 21L7 21L7 20L8 20L8 23L9 23L9 19L10 19L10 18L11 18L11 17L12 17L12 18L13 18L13 19L12 19L12 21L13 21L13 20L14 20L14 21L16 21L16 22L15 22L15 23L14 23L14 24L15 24L15 23L16 23L16 25L12 25L12 23L13 23L13 22L11 22L11 21L10 21L10 22L11 22L11 24L8 24L8 29L9 29L9 28L10 28L10 29L11 29L11 28L10 28L10 26L9 26L9 25L12 25L12 26L13 26L13 27L12 27L12 29L13 29L13 28L14 28L14 29L16 29L16 28L17 28L17 29L18 29L18 28L19 28L19 29L20 29L20 28L21 28L21 27L22 27L22 29L24 29L24 28L26 28L26 29L27 29L27 28L28 28L28 26L29 26L29 25L27 25L27 28L26 28L26 26L21 26L21 27L20 27L20 25L25 25L25 24L26 24L26 23L25 23L25 19L24 19L24 20L23 20L23 19L22 19L22 18L21 18L21 16L22 16L22 14L23 14L23 16L25 16L25 17L23 17L23 18L25 18L25 17L28 17L28 18L26 18L26 19L28 19L28 18L29 18L29 16L28 16L28 14L29 14L29 13L28 13L28 14L27 14L27 16L26 16L26 15L25 15L25 14L26 14L26 13L22 13L22 12L21 12L21 10L25 10L25 11L24 11L24 12L26 12L26 11L27 11L27 12L28 12L28 11L27 11L27 9L28 9L28 8L27 8L27 9L26 9L26 8L25 8L25 9L24 9L24 8L23 8L23 9L22 9L22 8L21 8L21 6L20 6L20 8L19 8L19 9L18 9L18 8L16 8L16 7L17 7L17 6L18 6L18 7L19 7L19 6L18 6L18 5L20 5L20 4L18 4L18 3L19 3L19 2L18 2L18 1L19 1L19 0L17 0L17 2L16 2L16 0L15 0L15 1L14 1L14 0ZM20 0L20 1L21 1L21 0ZM8 1L8 2L9 2L9 1ZM14 2L14 3L15 3L15 2ZM17 2L17 3L18 3L18 2ZM8 3L8 4L9 4L9 5L8 5L8 7L9 7L9 8L6 8L6 9L5 9L5 8L0 8L0 9L1 9L1 12L0 12L0 13L2 13L2 12L4 12L4 11L5 11L5 13L8 13L8 14L10 14L10 13L11 13L11 12L9 12L9 10L6 10L6 9L10 9L10 11L11 11L11 9L12 9L12 10L13 10L13 11L12 11L12 13L13 13L13 12L14 12L14 13L18 13L18 12L16 12L16 11L17 11L17 10L15 10L15 9L12 9L12 7L13 7L13 5L11 5L11 6L10 6L10 4L11 4L11 3ZM9 6L9 7L10 7L10 6ZM11 6L11 7L12 7L12 6ZM15 6L15 7L16 7L16 6ZM10 8L10 9L11 9L11 8ZM20 8L20 9L21 9L21 8ZM2 9L2 10L3 10L3 11L4 11L4 10L5 10L5 11L6 11L6 12L7 12L7 11L6 11L6 10L5 10L5 9ZM14 11L14 12L15 12L15 11ZM8 12L8 13L9 13L9 12ZM0 14L0 15L1 15L1 16L2 16L2 14ZM20 15L20 16L18 16L18 17L17 17L17 18L16 18L16 17L15 17L15 18L16 18L16 20L18 20L18 21L17 21L17 22L18 22L18 21L20 21L20 20L21 20L21 19L20 19L20 18L19 18L19 17L20 17L20 16L21 16L21 15ZM4 16L4 17L5 17L5 16ZM9 16L9 17L6 17L6 18L9 18L9 17L10 17L10 16ZM0 17L0 21L1 21L1 17ZM17 18L17 19L19 19L19 20L20 20L20 19L19 19L19 18ZM4 19L4 20L2 20L2 21L4 21L4 20L5 20L5 19ZM14 19L14 20L15 20L15 19ZM26 20L26 21L28 21L28 22L27 22L27 24L28 24L28 22L29 22L29 21L28 21L28 20ZM21 21L21 24L24 24L24 21ZM22 22L22 23L23 23L23 22ZM17 23L17 24L18 24L18 25L20 25L20 24L19 24L19 23ZM17 26L17 28L18 28L18 26ZM14 27L14 28L15 28L15 27ZM0 0L0 7L7 7L7 0ZM1 1L1 6L6 6L6 1ZM2 2L2 5L5 5L5 2ZM22 0L22 7L29 7L29 0ZM23 1L23 6L28 6L28 1ZM24 2L24 5L27 5L27 2ZM0 22L0 29L7 29L7 22ZM1 23L1 28L6 28L6 23ZM2 24L2 27L5 27L5 24Z" fill="#282828"/></g></g></svg>
