<?xml version="1.0" encoding="UTF-8"?>
<svg xmlns="http://www.w3.org/2000/svg" version="1.1" width="90" height="90" viewBox="0 0 90 90"><rect x="0" y="0" width="90" height="90" fill="#ffffff"/><g transform="scale(2.903)"><g transform="translate(1,1)"><path fill-rule="evenodd" d="M8 0L8 1L10 1L10 0ZM15 0L15 1L14 1L14 2L11 2L11 4L10 4L10 3L9 3L9 2L8 2L8 5L9 5L9 6L8 6L8 7L9 7L9 8L8 8L8 9L9 9L9 10L10 10L10 9L9 9L9 8L10 8L10 7L11 7L11 8L12 8L12 7L13 7L13 9L15 9L15 10L14 10L14 11L11 11L11 13L10 13L10 12L8 12L8 13L7 13L7 12L6 12L6 11L8 11L8 10L5 10L5 14L6 14L6 15L4 15L4 14L3 14L3 13L4 13L4 12L3 12L3 10L4 10L4 8L0 8L0 9L1 9L1 11L2 11L2 15L1 15L1 13L0 13L0 17L2 17L2 19L4 19L4 20L1 20L1 21L4 21L4 20L6 20L6 21L7 21L7 20L6 20L6 19L7 19L7 18L8 18L8 19L9 19L9 20L8 20L8 22L9 22L9 25L8 25L8 29L11 29L11 28L12 28L12 29L13 29L13 28L12 28L12 26L13 26L13 27L14 27L14 29L15 29L15 28L16 28L16 27L14 27L14 26L16 26L16 25L17 25L17 26L19 26L19 25L18 25L18 24L19 24L19 23L20 23L20 28L19 28L19 27L18 27L18 29L22 29L22 28L21 28L21 26L22 26L22 25L24 25L24 26L23 26L23 28L24 28L24 29L25 29L25 28L26 28L26 27L27 27L27 29L28 29L28 27L29 27L29 25L28 25L28 24L29 24L29 23L27 23L27 22L26 22L26 23L27 23L27 25L25 25L25 21L27 21L27 20L28 20L28 22L29 22L29 20L28 20L28 17L29 17L29 16L28 16L28 15L29 15L29 13L25 13L25 14L23 14L23 13L22 13L22 12L23 12L23 11L24 11L24 12L25 12L25 11L26 11L26 10L27 10L27 11L28 11L28 10L27 10L27 8L24 8L24 9L22 9L22 8L21 8L21 9L20 9L20 8L18 8L18 7L19 7L19 6L20 6L20 7L21 7L21 5L20 5L20 3L21 3L21 2L19 2L19 1L21 1L21 0L18 0L18 1L17 1L17 0ZM16 1L16 3L12 3L12 5L10 5L10 6L9 6L9 7L10 7L10 6L11 6L11 7L12 7L12 5L13 5L13 7L14 7L14 5L15 5L15 9L16 9L16 8L17 8L17 7L18 7L18 6L17 6L17 4L16 4L16 3L18 3L18 5L19 5L19 3L18 3L18 2L17 2L17 1ZM13 4L13 5L14 5L14 4ZM16 6L16 7L17 7L17 6ZM6 8L6 9L7 9L7 8ZM28 8L28 9L29 9L29 8ZM2 9L2 10L3 10L3 9ZM17 9L17 10L16 10L16 12L12 12L12 14L11 14L11 15L10 15L10 13L9 13L9 15L8 15L8 14L7 14L7 13L6 13L6 14L7 14L7 15L6 15L6 16L4 16L4 18L5 18L5 17L6 17L6 18L7 18L7 17L6 17L6 16L7 16L7 15L8 15L8 18L10 18L10 17L11 17L11 18L12 18L12 17L14 17L14 18L13 18L13 20L14 20L14 21L15 21L15 22L14 22L14 23L11 23L11 22L12 22L12 21L11 21L11 22L10 22L10 21L9 21L9 22L10 22L10 23L11 23L11 25L12 25L12 24L13 24L13 26L14 26L14 24L16 24L16 22L17 22L17 24L18 24L18 22L20 22L20 20L21 20L21 18L22 18L22 17L23 17L23 16L24 16L24 15L22 15L22 13L21 13L21 11L23 11L23 10L21 10L21 11L20 11L20 9ZM17 10L17 11L18 11L18 12L17 12L17 14L16 14L16 17L15 17L15 19L16 19L16 18L17 18L17 14L18 14L18 15L21 15L21 17L20 17L20 16L18 16L18 18L19 18L19 17L20 17L20 18L21 18L21 17L22 17L22 15L21 15L21 13L19 13L19 14L18 14L18 12L20 12L20 11L19 11L19 10ZM24 10L24 11L25 11L25 10ZM13 13L13 14L12 14L12 16L11 16L11 17L12 17L12 16L14 16L14 15L15 15L15 14L14 14L14 13ZM13 14L13 15L14 15L14 14ZM26 14L26 18L25 18L25 17L24 17L24 18L23 18L23 19L24 19L24 20L26 20L26 18L27 18L27 17L28 17L28 16L27 16L27 15L28 15L28 14ZM2 15L2 17L3 17L3 15ZM9 16L9 17L10 17L10 16ZM0 18L0 19L1 19L1 18ZM10 19L10 20L12 20L12 19ZM17 19L17 20L18 20L18 21L17 21L17 22L18 22L18 21L19 21L19 20L18 20L18 19ZM15 20L15 21L16 21L16 20ZM21 21L21 24L24 24L24 21ZM22 22L22 23L23 23L23 22ZM9 25L9 26L10 26L10 27L11 27L11 26L10 26L10 25ZM27 25L27 27L28 27L28 25ZM24 26L24 28L25 28L25 26ZM0 0L0 7L7 7L7 0ZM1 1L1 6L6 6L6 1ZM2 2L2 5L5 5L5 2ZM22 0L22 7L29 7L29 0ZM23 1L23 6L28 6L28 1ZM24 2L24 5L27 5L27 2ZM0 22L0 29L7 29L7 22ZM1 23L1 28L6 28L6 23ZM2 24L2 27L5 27L5 24Z" fill="#282828"/></g></g></svg>
