<?xml version="1.0" encoding="UTF-8"?>
<svg xmlns="http://www.w3.org/2000/svg" version="1.1" width="90" height="90" viewBox="0 0 90 90"><rect x="0" y="0" width="90" height="90" fill="#ffffff"/><g transform="scale(3.333)"><g transform="translate(1,1)"><path fill-rule="evenodd" d="M9 0L9 1L8 1L8 2L9 2L9 3L8 3L8 4L10 4L10 7L11 7L11 8L6 8L6 9L9 9L9 11L8 11L8 10L6 10L6 11L5 11L5 10L2 10L2 9L5 9L5 8L0 8L0 10L2 10L2 11L1 11L1 12L0 12L0 17L1 17L1 13L2 13L2 11L3 11L3 12L4 12L4 13L3 13L3 14L2 14L2 17L3 17L3 16L4 16L4 17L5 17L5 16L6 16L6 17L8 17L8 19L9 19L9 20L8 20L8 25L9 25L9 24L10 24L10 23L11 23L11 22L12 22L12 24L13 24L13 25L15 25L15 24L17 24L17 25L19 25L19 24L17 24L17 23L15 23L15 21L16 21L16 22L19 22L19 23L20 23L20 21L21 21L21 25L25 25L25 21L24 21L24 20L25 20L25 18L24 18L24 17L25 17L25 14L24 14L24 13L22 13L22 15L23 15L23 16L24 16L24 17L23 17L23 18L24 18L24 20L22 20L22 21L21 21L21 19L22 19L22 18L21 18L21 17L22 17L22 16L17 16L17 14L18 14L18 15L19 15L19 14L20 14L20 15L21 15L21 14L20 14L20 13L21 13L21 10L20 10L20 8L19 8L19 10L14 10L14 9L16 9L16 7L17 7L17 6L16 6L16 5L17 5L17 4L16 4L16 3L17 3L17 0L16 0L16 1L15 1L15 2L14 2L14 0L13 0L13 1L11 1L11 2L10 2L10 0ZM12 2L12 3L14 3L14 2ZM10 3L10 4L11 4L11 7L12 7L12 8L11 8L11 9L10 9L10 11L11 11L11 12L10 12L10 13L9 13L9 12L8 12L8 13L5 13L5 14L8 14L8 13L9 13L9 14L10 14L10 15L9 15L9 16L10 16L10 17L13 17L13 16L15 16L15 15L14 15L14 14L16 14L16 13L17 13L17 12L18 12L18 11L17 11L17 12L16 12L16 13L14 13L14 14L10 14L10 13L11 13L11 12L12 12L12 13L13 13L13 12L15 12L15 11L14 11L14 10L13 10L13 12L12 12L12 10L11 10L11 9L13 9L13 8L14 8L14 6L13 6L13 5L12 5L12 4L11 4L11 3ZM14 4L14 5L15 5L15 4ZM8 5L8 7L9 7L9 5ZM12 6L12 7L13 7L13 6ZM15 6L15 7L16 7L16 6ZM17 8L17 9L18 9L18 8ZM21 8L21 9L22 9L22 8ZM23 8L23 10L22 10L22 11L23 11L23 10L24 10L24 12L25 12L25 10L24 10L24 8ZM6 11L6 12L7 12L7 11ZM19 12L19 13L18 13L18 14L19 14L19 13L20 13L20 12ZM23 14L23 15L24 15L24 14ZM6 15L6 16L7 16L7 15ZM10 15L10 16L11 16L11 15ZM12 15L12 16L13 16L13 15ZM14 17L14 18L15 18L15 20L16 20L16 17ZM17 17L17 20L20 20L20 17ZM9 18L9 19L10 19L10 18ZM11 18L11 20L10 20L10 21L9 21L9 23L10 23L10 21L12 21L12 22L13 22L13 21L14 21L14 19L13 19L13 18ZM18 18L18 19L19 19L19 18ZM12 19L12 21L13 21L13 19ZM22 21L22 22L23 22L23 23L22 23L22 24L24 24L24 22L23 22L23 21ZM13 23L13 24L14 24L14 23ZM0 0L0 7L7 7L7 0ZM1 1L1 6L6 6L6 1ZM2 2L2 5L5 5L5 2ZM18 0L18 7L25 7L25 0ZM19 1L19 6L24 6L24 1ZM20 2L20 5L23 5L23 2ZM0 18L0 25L7 25L7 18ZM1 19L1 24L6 24L6 19ZM2 20L2 23L5 23L5 20Z" fill="#282828"/></g></g></svg>
