<?xml version="1.0" encoding="UTF-8"?>
<svg xmlns="http://www.w3.org/2000/svg" version="1.1" width="90" height="90" viewBox="0 0 90 90"><rect x="0" y="0" width="90" height="90" fill="#ffffff"/><g transform="scale(3.333)"><g transform="translate(1,1)"><path fill-rule="evenodd" d="M9 0L9 1L8 1L8 2L9 2L9 3L8 3L8 4L10 4L10 7L11 7L11 4L12 4L12 5L13 5L13 6L12 6L12 9L14 9L14 10L15 10L15 11L16 11L16 10L17 10L17 9L18 9L18 8L17 8L17 9L16 9L16 8L15 8L15 6L16 6L16 7L17 7L17 4L16 4L16 3L17 3L17 0L16 0L16 1L14 1L14 0L13 0L13 1L11 1L11 2L10 2L10 0ZM13 1L13 2L12 2L12 4L14 4L14 3L15 3L15 2L14 2L14 1ZM10 3L10 4L11 4L11 3ZM15 4L15 5L16 5L16 4ZM8 5L8 7L9 7L9 5ZM13 6L13 8L14 8L14 6ZM0 8L0 17L1 17L1 14L2 14L2 17L3 17L3 15L4 15L4 17L8 17L8 19L9 19L9 18L10 18L10 21L12 21L12 24L10 24L10 25L12 25L12 24L13 24L13 25L14 25L14 24L13 24L13 22L15 22L15 25L16 25L16 24L18 24L18 25L19 25L19 24L18 24L18 23L16 23L16 21L17 21L17 22L19 22L19 23L20 23L20 22L19 22L19 21L22 21L22 22L21 22L21 25L25 25L25 21L23 21L23 20L22 20L22 19L21 19L21 17L22 17L22 18L24 18L24 20L25 20L25 18L24 18L24 17L25 17L25 14L24 14L24 13L22 13L22 15L23 15L23 16L24 16L24 17L22 17L22 16L19 16L19 15L20 15L20 13L21 13L21 12L18 12L18 11L19 11L19 10L20 10L20 11L22 11L22 10L24 10L24 12L25 12L25 10L24 10L24 8L23 8L23 9L22 9L22 8L21 8L21 10L20 10L20 8L19 8L19 10L18 10L18 11L17 11L17 12L13 12L13 13L12 13L12 11L13 11L13 10L11 10L11 11L10 11L10 9L11 9L11 8L6 8L6 9L9 9L9 10L8 10L8 11L7 11L7 10L6 10L6 11L7 11L7 12L6 12L6 13L8 13L8 11L9 11L9 14L6 14L6 15L7 15L7 16L5 16L5 14L3 14L3 13L4 13L4 10L3 10L3 9L5 9L5 8ZM15 9L15 10L16 10L16 9ZM1 10L1 13L2 13L2 12L3 12L3 11L2 11L2 10ZM10 12L10 13L11 13L11 14L10 14L10 15L11 15L11 16L10 16L10 17L11 17L11 18L13 18L13 19L12 19L12 20L14 20L14 21L15 21L15 20L16 20L16 19L15 19L15 18L14 18L14 17L15 17L15 16L14 16L14 15L15 15L15 14L16 14L16 13L13 13L13 14L12 14L12 13L11 13L11 12ZM17 13L17 14L19 14L19 13ZM23 14L23 15L24 15L24 14ZM8 15L8 17L9 17L9 15ZM12 15L12 17L14 17L14 16L13 16L13 15ZM16 15L16 16L17 16L17 15ZM17 17L17 20L20 20L20 17ZM18 18L18 19L19 19L19 18ZM14 19L14 20L15 20L15 19ZM8 20L8 25L9 25L9 23L11 23L11 22L9 22L9 20ZM23 22L23 23L22 23L22 24L24 24L24 22ZM0 0L0 7L7 7L7 0ZM1 1L1 6L6 6L6 1ZM2 2L2 5L5 5L5 2ZM18 0L18 7L25 7L25 0ZM19 1L19 6L24 6L24 1ZM20 2L20 5L23 5L23 2ZM0 18L0 25L7 25L7 18ZM1 19L1 24L6 24L6 19ZM2 20L2 23L5 23L5 20Z" fill="#282828"/></g></g></svg>
