<?xml version="1.0" encoding="UTF-8"?>
<svg xmlns="http://www.w3.org/2000/svg" version="1.1" width="90" height="90" viewBox="0 0 90 90"><rect x="0" y="0" width="90" height="90" fill="#ffffff"/><g transform="scale(2.903)"><g transform="translate(1,1)"><path fill-rule="evenodd" d="M8 0L8 1L11 1L11 3L10 3L10 2L9 2L9 3L10 3L10 5L9 5L9 6L8 6L8 8L9 8L9 9L7 9L7 8L6 8L6 9L7 9L7 10L4 10L4 9L5 9L5 8L3 8L3 9L2 9L2 8L0 8L0 10L1 10L1 9L2 9L2 11L3 11L3 12L1 12L1 11L0 11L0 12L1 12L1 13L2 13L2 14L1 14L1 15L2 15L2 16L0 16L0 21L2 21L2 20L4 20L4 21L7 21L7 20L6 20L6 19L7 19L7 18L9 18L9 17L10 17L10 18L11 18L11 19L10 19L10 20L11 20L11 22L9 22L9 21L8 21L8 22L9 22L9 23L10 23L10 24L8 24L8 26L9 26L9 25L10 25L10 27L11 27L11 26L13 26L13 27L12 27L12 28L9 28L9 27L8 27L8 29L14 29L14 28L16 28L16 27L17 27L17 25L18 25L18 26L20 26L20 27L21 27L21 28L19 28L19 29L22 29L22 25L23 25L23 27L24 27L24 28L23 28L23 29L25 29L25 25L26 25L26 26L27 26L27 27L26 27L26 28L27 28L27 27L28 27L28 28L29 28L29 25L28 25L28 26L27 26L27 25L26 25L26 23L27 23L27 24L28 24L28 21L29 21L29 20L28 20L28 19L29 19L29 18L28 18L28 17L29 17L29 13L28 13L28 12L29 12L29 11L27 11L27 12L26 12L26 9L23 9L23 8L22 8L22 9L23 9L23 10L22 10L22 11L23 11L23 12L22 12L22 13L21 13L21 10L20 10L20 7L21 7L21 5L20 5L20 4L21 4L21 1L19 1L19 0L18 0L18 2L19 2L19 5L18 5L18 3L17 3L17 2L14 2L14 1L16 1L16 0L14 0L14 1L12 1L12 0ZM12 2L12 4L15 4L15 7L14 7L14 6L13 6L13 5L12 5L12 6L11 6L11 5L10 5L10 6L9 6L9 7L10 7L10 9L9 9L9 10L10 10L10 11L6 11L6 12L5 12L5 11L4 11L4 10L3 10L3 11L4 11L4 12L3 12L3 14L4 14L4 16L5 16L5 17L3 17L3 18L2 18L2 17L1 17L1 18L2 18L2 19L4 19L4 20L5 20L5 19L4 19L4 18L7 18L7 17L6 17L6 16L7 16L7 15L8 15L8 16L9 16L9 15L8 15L8 14L10 14L10 13L9 13L9 12L11 12L11 16L10 16L10 17L11 17L11 18L12 18L12 17L14 17L14 18L13 18L13 19L14 19L14 20L15 20L15 21L14 21L14 23L13 23L13 22L12 22L12 23L13 23L13 24L12 24L12 25L14 25L14 27L13 27L13 28L14 28L14 27L15 27L15 26L16 26L16 24L17 24L17 23L18 23L18 25L19 25L19 23L18 23L18 22L17 22L17 21L19 21L19 22L20 22L20 21L19 21L19 20L18 20L18 19L17 19L17 17L18 17L18 16L19 16L19 17L20 17L20 20L21 20L21 19L22 19L22 20L24 20L24 19L22 19L22 18L24 18L24 17L27 17L27 16L28 16L28 15L27 15L27 13L25 13L25 12L24 12L24 13L25 13L25 15L24 15L24 14L23 14L23 16L21 16L21 17L20 17L20 15L22 15L22 14L21 14L21 13L20 13L20 12L19 12L19 11L20 11L20 10L19 10L19 7L20 7L20 5L19 5L19 7L18 7L18 5L17 5L17 4L16 4L16 3L13 3L13 2ZM10 6L10 7L11 7L11 6ZM12 6L12 9L14 9L14 10L15 10L15 12L16 12L16 14L15 14L15 13L14 13L14 12L12 12L12 14L13 14L13 13L14 13L14 14L15 14L15 15L14 15L14 16L15 16L15 17L16 17L16 14L17 14L17 12L18 12L18 11L19 11L19 10L18 10L18 11L17 11L17 12L16 12L16 10L15 10L15 9L18 9L18 8L17 8L17 6L16 6L16 8L14 8L14 7L13 7L13 6ZM28 8L28 9L27 9L27 10L29 10L29 8ZM10 9L10 10L11 10L11 9ZM12 10L12 11L13 11L13 10ZM23 10L23 11L24 11L24 10ZM4 12L4 13L5 13L5 14L6 14L6 15L7 15L7 14L8 14L8 12L6 12L6 13L5 13L5 12ZM6 13L6 14L7 14L7 13ZM18 13L18 15L20 15L20 13ZM12 15L12 16L13 16L13 15ZM25 15L25 16L27 16L27 15ZM23 16L23 17L24 17L24 16ZM15 18L15 20L16 20L16 21L17 21L17 19L16 19L16 18ZM11 19L11 20L12 20L12 21L13 21L13 20L12 20L12 19ZM25 19L25 20L26 20L26 19ZM21 21L21 24L24 24L24 21ZM26 21L26 22L25 22L25 23L26 23L26 22L27 22L27 21ZM15 22L15 23L14 23L14 24L15 24L15 23L17 23L17 22ZM22 22L22 23L23 23L23 22ZM10 24L10 25L11 25L11 24ZM17 28L17 29L18 29L18 28ZM0 0L0 7L7 7L7 0ZM1 1L1 6L6 6L6 1ZM2 2L2 5L5 5L5 2ZM22 0L22 7L29 7L29 0ZM23 1L23 6L28 6L28 1ZM24 2L24 5L27 5L27 2ZM0 22L0 29L7 29L7 22ZM1 23L1 28L6 28L6 23ZM2 24L2 27L5 27L5 24Z" fill="#282828"/></g></g></svg>
