<?xml version="1.0" encoding="UTF-8"?>
<svg xmlns="http://www.w3.org/2000/svg" version="1.1" width="90" height="90" viewBox="0 0 90 90"><rect x="0" y="0" width="90" height="90" fill="#ffffff"/><g transform="scale(2.903)"><g transform="translate(1,1)"><path fill-rule="evenodd" d="M8 0L8 4L9 4L9 5L8 5L8 7L9 7L9 6L10 6L10 9L11 9L11 10L9 10L9 9L8 9L8 10L6 10L6 9L7 9L7 8L4 8L4 9L5 9L5 10L2 10L2 8L0 8L0 10L1 10L1 12L0 12L0 14L1 14L1 17L0 17L0 18L1 18L1 17L2 17L2 16L4 16L4 17L3 17L3 19L4 19L4 21L5 21L5 20L6 20L6 21L7 21L7 20L8 20L8 22L9 22L9 23L8 23L8 25L9 25L9 24L10 24L10 26L9 26L9 27L8 27L8 29L9 29L9 28L10 28L10 29L14 29L14 28L16 28L16 25L14 25L14 24L17 24L17 26L18 26L18 27L17 27L17 29L18 29L18 27L19 27L19 28L20 28L20 29L22 29L22 28L23 28L23 27L22 27L22 25L25 25L25 28L26 28L26 27L27 27L27 29L28 29L28 28L29 28L29 25L27 25L27 24L26 24L26 23L25 23L25 22L27 22L27 23L29 23L29 21L26 21L26 20L25 20L25 19L24 19L24 18L26 18L26 19L28 19L28 20L29 20L29 13L27 13L27 12L28 12L28 11L29 11L29 10L28 10L28 9L29 9L29 8L25 8L25 9L24 9L24 8L23 8L23 9L22 9L22 12L26 12L26 13L22 13L22 14L20 14L20 16L19 16L19 13L20 13L20 12L21 12L21 11L20 11L20 12L19 12L19 13L18 13L18 11L19 11L19 10L18 10L18 11L17 11L17 13L16 13L16 12L15 12L15 11L16 11L16 10L17 10L17 9L18 9L18 8L19 8L19 9L20 9L20 8L21 8L21 5L19 5L19 3L18 3L18 2L20 2L20 3L21 3L21 2L20 2L20 1L21 1L21 0L20 0L20 1L19 1L19 0L18 0L18 2L17 2L17 0L16 0L16 2L17 2L17 3L15 3L15 2L14 2L14 3L12 3L12 2L10 2L10 1L13 1L13 0L10 0L10 1L9 1L9 0ZM14 0L14 1L15 1L15 0ZM11 3L11 4L10 4L10 5L11 5L11 7L12 7L12 8L11 8L11 9L13 9L13 8L14 8L14 9L15 9L15 10L13 10L13 11L12 11L12 12L11 12L11 11L10 11L10 12L9 12L9 13L12 13L12 16L11 16L11 15L10 15L10 16L11 16L11 17L12 17L12 18L14 18L14 17L15 17L15 18L16 18L16 17L17 17L17 15L16 15L16 16L14 16L14 13L15 13L15 14L16 14L16 13L15 13L15 12L14 12L14 11L15 11L15 10L16 10L16 9L17 9L17 7L18 7L18 6L19 6L19 8L20 8L20 6L19 6L19 5L18 5L18 4L17 4L17 5L16 5L16 4L15 4L15 3L14 3L14 4L15 4L15 7L14 7L14 6L13 6L13 5L11 5L11 4L12 4L12 3ZM12 6L12 7L13 7L13 6ZM16 6L16 7L17 7L17 6ZM15 8L15 9L16 9L16 8ZM25 9L25 10L23 10L23 11L25 11L25 10L27 10L27 11L26 11L26 12L27 12L27 11L28 11L28 10L27 10L27 9ZM8 10L8 11L9 11L9 10ZM2 11L2 12L3 12L3 11ZM6 11L6 12L7 12L7 11ZM12 12L12 13L14 13L14 12ZM1 13L1 14L2 14L2 15L3 15L3 14L4 14L4 15L5 15L5 13L3 13L3 14L2 14L2 13ZM6 13L6 14L8 14L8 15L6 15L6 16L5 16L5 18L4 18L4 19L6 19L6 20L7 20L7 19L6 19L6 18L9 18L9 20L10 20L10 17L8 17L8 16L9 16L9 14L8 14L8 13ZM17 13L17 14L18 14L18 13ZM25 14L25 15L23 15L23 16L22 16L22 17L19 17L19 16L18 16L18 17L19 17L19 19L18 19L18 23L19 23L19 22L20 22L20 21L19 21L19 19L20 19L20 20L21 20L21 19L23 19L23 20L24 20L24 19L23 19L23 16L24 16L24 17L28 17L28 15L27 15L27 14ZM25 15L25 16L26 16L26 15ZM6 16L6 17L7 17L7 16ZM13 16L13 17L14 17L14 16ZM11 19L11 20L12 20L12 21L11 21L11 22L10 22L10 21L9 21L9 22L10 22L10 23L11 23L11 22L13 22L13 24L11 24L11 26L13 26L13 24L14 24L14 22L16 22L16 21L17 21L17 19L15 19L15 20L14 20L14 19L13 19L13 20L12 20L12 19ZM0 20L0 21L3 21L3 20ZM13 20L13 22L14 22L14 20ZM15 20L15 21L16 21L16 20ZM21 21L21 24L24 24L24 21ZM22 22L22 23L23 23L23 22ZM18 24L18 25L19 25L19 26L20 26L20 27L21 27L21 26L20 26L20 25L19 25L19 24ZM25 24L25 25L26 25L26 24ZM10 27L10 28L12 28L12 27ZM13 27L13 28L14 28L14 27ZM0 0L0 7L7 7L7 0ZM1 1L1 6L6 6L6 1ZM2 2L2 5L5 5L5 2ZM22 0L22 7L29 7L29 0ZM23 1L23 6L28 6L28 1ZM24 2L24 5L27 5L27 2ZM0 22L0 29L7 29L7 22ZM1 23L1 28L6 28L6 23ZM2 24L2 27L5 27L5 24Z" fill="#282828"/></g></g></svg>
