<?xml version="1.0" encoding="UTF-8"?>
<svg xmlns="http://www.w3.org/2000/svg" version="1.1" width="90" height="90" viewBox="0 0 90 90"><rect x="0" y="0" width="90" height="90" fill="#ffffff"/><g transform="scale(2.903)"><g transform="translate(1,1)"><path fill-rule="evenodd" d="M8 0L8 4L10 4L10 3L11 3L11 4L12 4L12 2L11 2L11 0ZM12 0L12 1L13 1L13 2L14 2L14 3L13 3L13 5L11 5L11 6L10 6L10 7L9 7L9 5L8 5L8 7L9 7L9 8L10 8L10 7L11 7L11 6L12 6L12 8L11 8L11 9L9 9L9 10L11 10L11 11L10 11L10 13L9 13L9 14L8 14L8 13L7 13L7 12L6 12L6 11L7 11L7 10L6 10L6 11L4 11L4 10L5 10L5 9L7 9L7 8L4 8L4 10L3 10L3 11L2 11L2 10L1 10L1 9L2 9L2 8L0 8L0 10L1 10L1 14L0 14L0 15L1 15L1 14L2 14L2 15L3 15L3 16L4 16L4 17L2 17L2 16L0 16L0 18L1 18L1 17L2 17L2 18L4 18L4 17L5 17L5 16L6 16L6 17L7 17L7 18L5 18L5 20L4 20L4 19L2 19L2 20L0 20L0 21L2 21L2 20L3 20L3 21L8 21L8 22L9 22L9 21L10 21L10 22L11 22L11 20L12 20L12 21L13 21L13 22L15 22L15 23L14 23L14 24L13 24L13 23L12 23L12 24L11 24L11 23L10 23L10 24L9 24L9 23L8 23L8 25L9 25L9 27L8 27L8 29L11 29L11 28L12 28L12 29L14 29L14 27L15 27L15 29L16 29L16 26L17 26L17 28L19 28L19 27L20 27L20 26L17 26L17 25L16 25L16 24L15 24L15 23L16 23L16 22L18 22L18 23L17 23L17 24L19 24L19 25L21 25L21 27L23 27L23 28L22 28L22 29L24 29L24 27L23 27L23 26L22 26L22 25L26 25L26 26L25 26L25 29L26 29L26 27L27 27L27 29L28 29L28 28L29 28L29 25L28 25L28 23L29 23L29 21L26 21L26 20L24 20L24 19L23 19L23 18L26 18L26 19L28 19L28 20L29 20L29 13L28 13L28 12L29 12L29 10L28 10L28 9L29 9L29 8L25 8L25 9L24 9L24 8L23 8L23 9L21 9L21 6L20 6L20 3L21 3L21 2L20 2L20 0L17 0L17 1L16 1L16 0L15 0L15 1L13 1L13 0ZM15 1L15 2L16 2L16 1ZM18 1L18 2L19 2L19 3L16 3L16 5L15 5L15 3L14 3L14 6L13 6L13 8L12 8L12 9L11 9L11 10L12 10L12 9L13 9L13 10L14 10L14 9L13 9L13 8L14 8L14 6L15 6L15 7L16 7L16 5L17 5L17 7L18 7L18 8L15 8L15 9L17 9L17 10L18 10L18 11L20 11L20 12L17 12L17 14L16 14L16 15L15 15L15 14L13 14L13 13L12 13L12 12L13 12L13 11L12 11L12 12L11 12L11 13L10 13L10 14L9 14L9 15L10 15L10 16L9 16L9 17L8 17L8 18L7 18L7 19L6 19L6 20L7 20L7 19L8 19L8 21L9 21L9 18L12 18L12 17L13 17L13 18L16 18L16 20L15 20L15 19L14 19L14 21L15 21L15 22L16 22L16 20L17 20L17 21L19 21L19 23L20 23L20 21L19 21L19 20L20 20L20 18L23 18L23 17L28 17L28 15L27 15L27 14L26 14L26 13L25 13L25 12L24 12L24 13L25 13L25 14L24 14L24 15L23 15L23 16L22 16L22 17L20 17L20 18L19 18L19 16L20 16L20 14L22 14L22 13L23 13L23 11L25 11L25 10L27 10L27 11L26 11L26 12L28 12L28 10L27 10L27 9L25 9L25 10L23 10L23 11L21 11L21 9L20 9L20 8L19 8L19 7L20 7L20 6L19 6L19 7L18 7L18 4L19 4L19 3L20 3L20 2L19 2L19 1ZM9 2L9 3L10 3L10 2ZM18 9L18 10L20 10L20 9ZM3 11L3 14L4 14L4 15L6 15L6 16L8 16L8 14L7 14L7 13L6 13L6 12L4 12L4 11ZM8 11L8 12L9 12L9 11ZM14 11L14 13L16 13L16 12L15 12L15 11ZM4 13L4 14L5 14L5 13ZM19 13L19 14L20 14L20 13ZM6 14L6 15L7 15L7 14ZM10 14L10 15L11 15L11 14ZM12 15L12 16L10 16L10 17L12 17L12 16L13 16L13 17L16 17L16 18L17 18L17 16L19 16L19 15L17 15L17 16L15 16L15 15L14 15L14 16L13 16L13 15ZM25 15L25 16L26 16L26 15ZM10 19L10 20L11 20L11 19ZM12 19L12 20L13 20L13 19ZM17 19L17 20L19 20L19 19ZM21 19L21 20L22 20L22 19ZM21 21L21 24L24 24L24 21ZM22 22L22 23L23 23L23 22ZM25 22L25 23L26 23L26 24L27 24L27 22ZM12 24L12 25L11 25L11 26L10 26L10 27L9 27L9 28L10 28L10 27L11 27L11 26L12 26L12 25L13 25L13 26L16 26L16 25L13 25L13 24ZM27 25L27 26L28 26L28 25ZM12 27L12 28L13 28L13 27ZM20 28L20 29L21 29L21 28ZM0 0L0 7L7 7L7 0ZM1 1L1 6L6 6L6 1ZM2 2L2 5L5 5L5 2ZM22 0L22 7L29 7L29 0ZM23 1L23 6L28 6L28 1ZM24 2L24 5L27 5L27 2ZM0 22L0 29L7 29L7 22ZM1 23L1 28L6 28L6 23ZM2 24L2 27L5 27L5 24Z" fill="#282828"/></g></g></svg>
