<?xml version="1.0" encoding="UTF-8"?>
<svg xmlns="http://www.w3.org/2000/svg" version="1.1" width="90" height="90" viewBox="0 0 90 90"><rect x="0" y="0" width="90" height="90" fill="#ffffff"/><g transform="scale(3.333)"><g transform="translate(1,1)"><path fill-rule="evenodd" d="M10 0L10 1L8 1L8 3L9 3L9 4L8 4L8 8L6 8L6 9L7 9L7 10L6 10L6 11L5 11L5 10L3 10L3 11L2 11L2 10L0 10L0 13L1 13L1 12L3 12L3 11L4 11L4 12L6 12L6 13L7 13L7 14L6 14L6 15L5 15L5 13L4 13L4 14L3 14L3 15L1 15L1 14L0 14L0 15L1 15L1 16L0 16L0 17L3 17L3 15L4 15L4 17L5 17L5 16L6 16L6 17L7 17L7 16L8 16L8 15L9 15L9 17L8 17L8 19L9 19L9 17L10 17L10 15L11 15L11 16L12 16L12 18L11 18L11 19L10 19L10 20L9 20L9 21L8 21L8 22L9 22L9 23L8 23L8 25L9 25L9 24L13 24L13 25L15 25L15 24L16 24L16 25L19 25L19 24L20 24L20 25L21 25L21 24L22 24L22 23L23 23L23 22L22 22L22 20L23 20L23 21L24 21L24 19L25 19L25 16L24 16L24 17L23 17L23 18L22 18L22 20L21 20L21 16L19 16L19 15L20 15L20 12L21 12L21 13L23 13L23 12L24 12L24 11L25 11L25 9L24 9L24 8L22 8L22 9L24 9L24 11L23 11L23 10L19 10L19 9L21 9L21 8L18 8L18 9L17 9L17 8L15 8L15 6L16 6L16 7L17 7L17 4L15 4L15 3L16 3L16 2L17 2L17 1L16 1L16 0L14 0L14 3L12 3L12 7L11 7L11 4L10 4L10 3L9 3L9 2L11 2L11 0ZM13 4L13 7L12 7L12 8L14 8L14 6L15 6L15 4ZM9 5L9 8L8 8L8 10L7 10L7 11L6 11L6 12L8 12L8 14L7 14L7 15L6 15L6 16L7 16L7 15L8 15L8 14L11 14L11 13L10 13L10 12L8 12L8 10L9 10L9 11L11 11L11 8L10 8L10 5ZM0 8L0 9L2 9L2 8ZM3 8L3 9L4 9L4 8ZM9 9L9 10L10 10L10 9ZM15 9L15 11L17 11L17 10L16 10L16 9ZM18 10L18 11L19 11L19 12L20 12L20 11L19 11L19 10ZM21 11L21 12L23 12L23 11ZM12 12L12 16L13 16L13 17L14 17L14 18L13 18L13 20L14 20L14 21L12 21L12 19L11 19L11 20L10 20L10 23L13 23L13 22L14 22L14 21L16 21L16 22L15 22L15 23L14 23L14 24L15 24L15 23L18 23L18 24L19 24L19 23L20 23L20 22L21 22L21 23L22 23L22 22L21 22L21 21L20 21L20 22L19 22L19 21L16 21L16 18L15 18L15 17L16 17L16 16L15 16L15 17L14 17L14 16L13 16L13 15L19 15L19 14L17 14L17 12L14 12L14 13L13 13L13 12ZM24 13L24 14L23 14L23 15L25 15L25 13ZM21 14L21 15L22 15L22 14ZM17 17L17 20L20 20L20 17ZM14 18L14 20L15 20L15 18ZM18 18L18 19L19 19L19 18ZM23 18L23 19L24 19L24 18ZM11 21L11 22L12 22L12 21ZM24 22L24 23L25 23L25 22ZM23 24L23 25L25 25L25 24ZM0 0L0 7L7 7L7 0ZM1 1L1 6L6 6L6 1ZM2 2L2 5L5 5L5 2ZM18 0L18 7L25 7L25 0ZM19 1L19 6L24 6L24 1ZM20 2L20 5L23 5L23 2ZM0 18L0 25L7 25L7 18ZM1 19L1 24L6 24L6 19ZM2 20L2 23L5 23L5 20Z" fill="#282828"/></g></g></svg>
