<?xml version="1.0" encoding="UTF-8"?>
<svg xmlns="http://www.w3.org/2000/svg" version="1.1" width="100" height="100" viewBox="0 0 100 100"><rect x="0" y="0" width="100" height="100" fill="#ffffff"/><g transform="scale(3.704)"><g transform="translate(1,1)"><path fill-rule="evenodd" d="M10 0L10 2L11 2L11 0ZM12 0L12 1L14 1L14 2L15 2L15 3L13 3L13 2L12 2L12 4L13 4L13 5L11 5L11 6L10 6L10 4L11 4L11 3L8 3L8 4L9 4L9 5L8 5L8 7L9 7L9 8L6 8L6 9L5 9L5 8L0 8L0 9L1 9L1 10L2 10L2 11L3 11L3 12L1 12L1 13L0 13L0 17L1 17L1 13L4 13L4 14L2 14L2 16L3 16L3 17L5 17L5 15L8 15L8 16L6 16L6 17L8 17L8 19L10 19L10 18L13 18L13 17L15 17L15 18L14 18L14 21L13 21L13 19L12 19L12 21L11 21L11 20L8 20L8 25L9 25L9 21L10 21L10 22L12 22L12 24L13 24L13 25L15 25L15 24L16 24L16 23L17 23L17 25L20 25L20 22L19 22L19 21L21 21L21 23L22 23L22 21L23 21L23 22L24 22L24 24L23 24L23 25L25 25L25 21L23 21L23 20L24 20L24 19L25 19L25 18L24 18L24 17L25 17L25 14L24 14L24 13L22 13L22 12L21 12L21 11L20 11L20 8L19 8L19 9L18 9L18 8L17 8L17 9L16 9L16 10L15 10L15 8L16 8L16 7L17 7L17 6L16 6L16 5L17 5L17 4L16 4L16 5L15 5L15 6L14 6L14 8L12 8L12 7L13 7L13 5L14 5L14 4L15 4L15 3L16 3L16 2L17 2L17 0L16 0L16 1L14 1L14 0ZM8 1L8 2L9 2L9 1ZM9 6L9 7L10 7L10 6ZM11 6L11 7L12 7L12 6ZM15 6L15 7L16 7L16 6ZM10 8L10 9L9 9L9 10L7 10L7 9L6 9L6 10L7 10L7 11L6 11L6 12L5 12L5 11L4 11L4 10L3 10L3 9L2 9L2 10L3 10L3 11L4 11L4 12L5 12L5 14L7 14L7 13L6 13L6 12L12 12L12 13L13 13L13 14L11 14L11 13L9 13L9 14L8 14L8 15L9 15L9 14L11 14L11 16L8 16L8 17L13 17L13 16L15 16L15 14L16 14L16 16L18 16L18 15L22 15L22 16L23 16L23 17L24 17L24 16L23 16L23 15L24 15L24 14L22 14L22 13L21 13L21 12L19 12L19 13L20 13L20 14L18 14L18 13L17 13L17 14L16 14L16 13L15 13L15 14L14 14L14 13L13 13L13 12L15 12L15 10L14 10L14 9L13 9L13 10L12 10L12 9L11 9L11 8ZM21 8L21 9L22 9L22 11L23 11L23 12L25 12L25 9L24 9L24 8L23 8L23 9L22 9L22 8ZM10 9L10 11L11 11L11 9ZM17 9L17 10L16 10L16 12L17 12L17 11L18 11L18 9ZM12 11L12 12L13 12L13 11ZM17 14L17 15L18 15L18 14ZM3 15L3 16L4 16L4 15ZM12 15L12 16L13 16L13 15ZM17 17L17 20L20 20L20 17ZM21 17L21 18L22 18L22 17ZM15 18L15 19L16 19L16 18ZM18 18L18 19L19 19L19 18ZM23 18L23 19L22 19L22 20L23 20L23 19L24 19L24 18ZM12 21L12 22L13 22L13 21ZM16 21L16 22L17 22L17 23L18 23L18 22L17 22L17 21ZM10 23L10 24L11 24L11 23ZM13 23L13 24L14 24L14 23ZM21 24L21 25L22 25L22 24ZM0 0L0 7L7 7L7 0ZM1 1L1 6L6 6L6 1ZM2 2L2 5L5 5L5 2ZM18 0L18 7L25 7L25 0ZM19 1L19 6L24 6L24 1ZM20 2L20 5L23 5L23 2ZM0 18L0 25L7 25L7 18ZM1 19L1 24L6 24L6 19ZM2 20L2 23L5 23L5 20Z" fill="#282828"/></g></g></svg>
