<?xml version="1.0" encoding="UTF-8"?>
<svg xmlns="http://www.w3.org/2000/svg" version="1.1" width="100" height="100" viewBox="0 0 100 100"><rect x="0" y="0" width="100" height="100" fill="#ffffff"/><g transform="scale(3.704)"><g transform="translate(1,1)"><path fill-rule="evenodd" d="M11 0L11 1L8 1L8 3L9 3L9 4L8 4L8 8L6 8L6 9L8 9L8 8L9 8L9 5L10 5L10 8L11 8L11 9L12 9L12 10L13 10L13 11L9 11L9 10L10 10L10 9L9 9L9 10L8 10L8 12L6 12L6 11L7 11L7 10L6 10L6 11L5 11L5 9L4 9L4 8L3 8L3 9L4 9L4 11L3 11L3 10L2 10L2 11L1 11L1 9L2 9L2 8L0 8L0 13L1 13L1 14L0 14L0 15L1 15L1 16L0 16L0 17L2 17L2 16L3 16L3 17L4 17L4 16L5 16L5 17L7 17L7 16L8 16L8 19L9 19L9 17L11 17L11 18L12 18L12 19L10 19L10 21L12 21L12 22L14 22L14 23L13 23L13 24L11 24L11 22L10 22L10 23L8 23L8 25L9 25L9 24L10 24L10 25L14 25L14 23L15 23L15 25L19 25L19 24L21 24L21 23L23 23L23 22L21 22L21 18L22 18L22 21L23 21L23 20L25 20L25 16L24 16L24 17L23 17L23 16L22 16L22 15L20 15L20 12L21 12L21 14L23 14L23 13L24 13L24 12L25 12L25 10L24 10L24 8L22 8L22 9L23 9L23 13L22 13L22 12L21 12L21 11L19 11L19 12L16 12L16 11L14 11L14 10L13 10L13 9L15 9L15 10L17 10L17 11L18 11L18 10L19 10L19 9L21 9L21 8L18 8L18 9L17 9L17 6L16 6L16 5L17 5L17 4L15 4L15 2L16 2L16 3L17 3L17 2L16 2L16 0L15 0L15 1L13 1L13 0ZM9 2L9 3L10 3L10 5L11 5L11 7L12 7L12 9L13 9L13 8L14 8L14 6L15 6L15 9L16 9L16 6L15 6L15 5L14 5L14 2L13 2L13 3L12 3L12 5L11 5L11 2ZM12 6L12 7L13 7L13 6ZM2 11L2 13L3 13L3 14L1 14L1 15L3 15L3 16L4 16L4 12L5 12L5 11L4 11L4 12L3 12L3 11ZM8 12L8 13L6 13L6 14L5 14L5 15L6 15L6 16L7 16L7 15L8 15L8 16L11 16L11 17L12 17L12 16L13 16L13 17L14 17L14 16L13 16L13 15L14 15L14 14L15 14L15 15L17 15L17 16L19 16L19 15L17 15L17 14L16 14L16 12L14 12L14 13L13 13L13 12L12 12L12 13L13 13L13 14L12 14L12 16L11 16L11 15L10 15L10 14L11 14L11 13L10 13L10 12ZM6 14L6 15L7 15L7 14ZM8 14L8 15L9 15L9 14ZM24 14L24 15L25 15L25 14ZM15 16L15 17L16 17L16 16ZM21 16L21 17L22 17L22 18L23 18L23 19L24 19L24 18L23 18L23 17L22 17L22 16ZM17 17L17 20L20 20L20 17ZM13 18L13 20L15 20L15 21L16 21L16 19L14 19L14 18ZM18 18L18 19L19 19L19 18ZM8 21L8 22L9 22L9 21ZM17 21L17 24L18 24L18 23L20 23L20 22L19 22L19 21ZM24 22L24 23L25 23L25 22ZM23 24L23 25L25 25L25 24ZM0 0L0 7L7 7L7 0ZM1 1L1 6L6 6L6 1ZM2 2L2 5L5 5L5 2ZM18 0L18 7L25 7L25 0ZM19 1L19 6L24 6L24 1ZM20 2L20 5L23 5L23 2ZM0 18L0 25L7 25L7 18ZM1 19L1 24L6 24L6 19ZM2 20L2 23L5 23L5 20Z" fill="#282828"/></g></g></svg>
