<?xml version="1.0" encoding="UTF-8"?>
<svg xmlns="http://www.w3.org/2000/svg" version="1.1" width="90" height="90" viewBox="0 0 90 90"><rect x="0" y="0" width="90" height="90" fill="#ffffff"/><g transform="scale(3.333)"><g transform="translate(1,1)"><path fill-rule="evenodd" d="M8 0L8 1L11 1L11 2L13 2L13 3L12 3L12 5L13 5L13 6L12 6L12 7L11 7L11 6L10 6L10 3L9 3L9 2L8 2L8 5L9 5L9 6L8 6L8 7L9 7L9 8L8 8L8 9L7 9L7 8L6 8L6 9L4 9L4 8L0 8L0 9L2 9L2 12L1 12L1 10L0 10L0 13L2 13L2 14L1 14L1 15L0 15L0 16L1 16L1 15L5 15L5 16L2 16L2 17L5 17L5 16L6 16L6 17L7 17L7 16L8 16L8 18L12 18L12 20L10 20L10 19L9 19L9 21L8 21L8 25L10 25L10 23L13 23L13 24L11 24L11 25L15 25L15 24L16 24L16 23L15 23L15 22L14 22L14 23L13 23L13 22L12 22L12 20L13 20L13 17L14 17L14 16L15 16L15 17L16 17L16 19L15 19L15 18L14 18L14 21L15 21L15 20L16 20L16 22L17 22L17 23L21 23L21 24L20 24L20 25L25 25L25 24L23 24L23 23L24 23L24 22L25 22L25 17L24 17L24 16L25 16L25 15L24 15L24 14L23 14L23 16L22 16L22 15L21 15L21 12L22 12L22 13L24 13L24 12L25 12L25 11L20 11L20 9L23 9L23 8L20 8L20 9L19 9L19 10L18 10L18 11L20 11L20 13L19 13L19 12L17 12L17 13L16 13L16 12L15 12L15 10L14 10L14 9L15 9L15 6L14 6L14 5L16 5L16 3L17 3L17 2L16 2L16 3L15 3L15 2L14 2L14 1L13 1L13 0ZM15 0L15 1L17 1L17 0ZM9 6L9 7L10 7L10 8L9 8L9 9L8 9L8 10L7 10L7 9L6 9L6 10L7 10L7 11L3 11L3 12L2 12L2 13L3 13L3 14L4 14L4 12L7 12L7 13L6 13L6 14L7 14L7 15L6 15L6 16L7 16L7 15L8 15L8 16L9 16L9 17L10 17L10 15L9 15L9 14L8 14L8 13L9 13L9 12L10 12L10 13L11 13L11 9L12 9L12 10L13 10L13 11L14 11L14 10L13 10L13 9L14 9L14 6L13 6L13 7L12 7L12 8L11 8L11 7L10 7L10 6ZM16 6L16 7L17 7L17 6ZM12 8L12 9L13 9L13 8ZM16 8L16 10L17 10L17 9L18 9L18 8ZM24 8L24 10L25 10L25 8ZM9 9L9 10L10 10L10 9ZM7 11L7 12L8 12L8 11ZM12 12L12 13L13 13L13 15L12 15L12 14L11 14L11 16L12 16L12 17L13 17L13 16L14 16L14 15L16 15L16 16L17 16L17 14L15 14L15 13L13 13L13 12ZM18 14L18 15L20 15L20 16L21 16L21 18L22 18L22 20L21 20L21 21L22 21L22 22L21 22L21 23L22 23L22 22L23 22L23 21L22 21L22 20L23 20L23 19L24 19L24 18L22 18L22 16L21 16L21 15L20 15L20 14ZM17 17L17 20L20 20L20 17ZM18 18L18 19L19 19L19 18ZM10 21L10 22L9 22L9 23L10 23L10 22L11 22L11 21ZM17 21L17 22L18 22L18 21ZM18 24L18 25L19 25L19 24ZM0 0L0 7L7 7L7 0ZM1 1L1 6L6 6L6 1ZM2 2L2 5L5 5L5 2ZM18 0L18 7L25 7L25 0ZM19 1L19 6L24 6L24 1ZM20 2L20 5L23 5L23 2ZM0 18L0 25L7 25L7 18ZM1 19L1 24L6 24L6 19ZM2 20L2 23L5 23L5 20Z" fill="#282828"/></g></g></svg>
