<?xml version="1.0" encoding="UTF-8"?>
<svg xmlns="http://www.w3.org/2000/svg" version="1.1" width="90" height="90" viewBox="0 0 90 90"><rect x="0" y="0" width="90" height="90" fill="#ffffff"/><g transform="scale(3.333)"><g transform="translate(1,1)"><path fill-rule="evenodd" d="M10 0L10 1L9 1L9 2L8 2L8 3L9 3L9 5L10 5L10 7L11 7L11 8L12 8L12 9L11 9L11 10L10 10L10 9L9 9L9 6L8 6L8 8L4 8L4 9L3 9L3 8L0 8L0 9L1 9L1 10L0 10L0 12L1 12L1 13L2 13L2 15L1 15L1 14L0 14L0 15L1 15L1 16L0 16L0 17L1 17L1 16L3 16L3 15L4 15L4 14L3 14L3 13L2 13L2 12L4 12L4 13L5 13L5 14L6 14L6 15L5 15L5 16L4 16L4 17L7 17L7 16L6 16L6 15L8 15L8 21L9 21L9 22L8 22L8 25L9 25L9 24L10 24L10 25L11 25L11 23L10 23L10 21L11 21L11 20L12 20L12 19L13 19L13 22L12 22L12 23L13 23L13 25L15 25L15 24L16 24L16 25L19 25L19 24L20 24L20 25L21 25L21 24L22 24L22 23L21 23L21 22L22 22L22 20L21 20L21 15L22 15L22 14L23 14L23 12L24 12L24 15L23 15L23 16L22 16L22 17L23 17L23 16L24 16L24 19L23 19L23 18L22 18L22 19L23 19L23 20L25 20L25 12L24 12L24 11L25 11L25 9L24 9L24 11L23 11L23 10L22 10L22 9L23 9L23 8L22 8L22 9L21 9L21 10L19 10L19 8L17 8L17 5L16 5L16 4L15 4L15 3L14 3L14 4L15 4L15 6L14 6L14 7L13 7L13 3L12 3L12 2L11 2L11 3L12 3L12 5L10 5L10 3L9 3L9 2L10 2L10 1L11 1L11 0ZM15 0L15 2L16 2L16 3L17 3L17 1L16 1L16 0ZM11 6L11 7L12 7L12 8L13 8L13 7L12 7L12 6ZM15 6L15 7L16 7L16 6ZM14 8L14 9L13 9L13 11L14 11L14 10L15 10L15 12L13 12L13 13L12 13L12 14L11 14L11 15L12 15L12 16L11 16L11 17L10 17L10 15L9 15L9 14L10 14L10 12L8 12L8 13L6 13L6 14L8 14L8 15L9 15L9 17L10 17L10 18L11 18L11 19L12 19L12 18L13 18L13 19L14 19L14 22L13 22L13 23L14 23L14 22L15 22L15 23L16 23L16 22L18 22L18 23L19 23L19 21L16 21L16 18L15 18L15 19L14 19L14 18L13 18L13 14L14 14L14 15L16 15L16 13L15 13L15 12L17 12L17 11L16 11L16 9L17 9L17 8ZM4 9L4 10L5 10L5 11L4 11L4 12L7 12L7 11L8 11L8 10L9 10L9 11L10 11L10 10L9 10L9 9L6 9L6 10L5 10L5 9ZM2 10L2 11L1 11L1 12L2 12L2 11L3 11L3 10ZM6 10L6 11L7 11L7 10ZM18 10L18 11L19 11L19 10ZM11 11L11 12L12 12L12 11ZM20 11L20 12L19 12L19 16L20 16L20 15L21 15L21 14L22 14L22 13L21 13L21 12L23 12L23 11ZM8 13L8 14L9 14L9 13ZM14 13L14 14L15 14L15 13ZM17 14L17 16L18 16L18 14ZM14 16L14 17L16 17L16 16ZM17 17L17 20L20 20L20 17ZM18 18L18 19L19 19L19 18ZM9 19L9 21L10 21L10 19ZM15 21L15 22L16 22L16 21ZM20 21L20 22L21 22L21 21ZM24 22L24 23L23 23L23 25L25 25L25 24L24 24L24 23L25 23L25 22ZM20 23L20 24L21 24L21 23ZM0 0L0 7L7 7L7 0ZM1 1L1 6L6 6L6 1ZM2 2L2 5L5 5L5 2ZM18 0L18 7L25 7L25 0ZM19 1L19 6L24 6L24 1ZM20 2L20 5L23 5L23 2ZM0 18L0 25L7 25L7 18ZM1 19L1 24L6 24L6 19ZM2 20L2 23L5 23L5 20Z" fill="#282828"/></g></g></svg>
