<?xml version="1.0" encoding="UTF-8"?>
<svg xmlns="http://www.w3.org/2000/svg" version="1.1" width="90" height="90" viewBox="0 0 90 90"><rect x="0" y="0" width="90" height="90" fill="#ffffff"/><g transform="scale(2.903)"><g transform="translate(1,1)"><path fill-rule="evenodd" d="M8 0L8 4L9 4L9 5L8 5L8 7L9 7L9 6L10 6L10 9L11 9L11 8L12 8L12 9L13 9L13 11L12 11L12 12L11 12L11 13L10 13L10 14L11 14L11 15L8 15L8 16L6 16L6 17L5 17L5 15L7 15L7 14L9 14L9 12L10 12L10 11L11 11L11 10L9 10L9 9L8 9L8 10L6 10L6 9L7 9L7 8L4 8L4 9L2 9L2 8L0 8L0 11L1 11L1 12L0 12L0 16L1 16L1 12L2 12L2 15L3 15L3 16L2 16L2 17L0 17L0 18L2 18L2 19L3 19L3 21L4 21L4 19L3 19L3 18L2 18L2 17L5 17L5 19L7 19L7 18L8 18L8 17L9 17L9 16L12 16L12 17L13 17L13 18L15 18L15 19L14 19L14 20L13 20L13 19L12 19L12 20L11 20L11 21L10 21L10 22L9 22L9 21L8 21L8 20L10 20L10 19L11 19L11 17L10 17L10 18L9 18L9 19L8 19L8 20L6 20L6 21L8 21L8 22L9 22L9 23L8 23L8 25L9 25L9 23L10 23L10 25L11 25L11 24L12 24L12 25L13 25L13 26L15 26L15 27L14 27L14 28L13 28L13 27L12 27L12 28L9 28L9 27L8 27L8 29L12 29L12 28L13 28L13 29L16 29L16 27L17 27L17 29L18 29L18 28L19 28L19 29L22 29L22 25L23 25L23 26L24 26L24 25L25 25L25 27L23 27L23 29L24 29L24 28L25 28L25 29L26 29L26 26L27 26L27 29L28 29L28 28L29 28L29 25L28 25L28 24L26 24L26 23L25 23L25 22L27 22L27 23L29 23L29 21L26 21L26 20L22 20L22 19L23 19L23 18L26 18L26 19L27 19L27 20L28 20L28 19L29 19L29 17L22 17L22 16L24 16L24 15L22 15L22 14L25 14L25 13L26 13L26 14L27 14L27 16L29 16L29 13L27 13L27 12L28 12L28 11L29 11L29 10L28 10L28 9L29 9L29 8L25 8L25 9L24 9L24 8L23 8L23 9L22 9L22 10L20 10L20 11L19 11L19 12L20 12L20 13L22 13L22 14L20 14L20 15L17 15L17 17L14 17L14 15L15 15L15 16L16 16L16 14L17 14L17 12L18 12L18 10L19 10L19 6L20 6L20 9L21 9L21 6L20 6L20 5L19 5L19 3L20 3L20 2L21 2L21 1L19 1L19 2L17 2L17 1L16 1L16 0L15 0L15 1L14 1L14 0L13 0L13 1L11 1L11 2L12 2L12 5L13 5L13 6L12 6L12 7L11 7L11 3L10 3L10 2L9 2L9 0ZM13 1L13 3L14 3L14 5L15 5L15 7L14 7L14 6L13 6L13 7L12 7L12 8L13 8L13 9L14 9L14 11L13 11L13 12L12 12L12 13L11 13L11 14L12 14L12 13L13 13L13 14L14 14L14 13L13 13L13 12L17 12L17 10L18 10L18 9L17 9L17 10L16 10L16 11L15 11L15 9L16 9L16 8L15 8L15 7L16 7L16 6L17 6L17 7L18 7L18 6L19 6L19 5L15 5L15 2L16 2L16 1L15 1L15 2L14 2L14 1ZM17 3L17 4L18 4L18 3ZM14 8L14 9L15 9L15 8ZM25 9L25 10L27 10L27 11L26 11L26 12L27 12L27 11L28 11L28 10L27 10L27 9ZM2 10L2 12L3 12L3 10ZM4 10L4 11L5 11L5 13L4 13L4 14L3 14L3 15L5 15L5 13L6 13L6 14L7 14L7 13L8 13L8 11L9 11L9 10L8 10L8 11L5 11L5 10ZM22 10L22 11L24 11L24 12L22 12L22 13L25 13L25 11L24 11L24 10ZM6 12L6 13L7 13L7 12ZM15 13L15 14L16 14L16 13ZM18 13L18 14L19 14L19 13ZM12 15L12 16L13 16L13 15ZM20 15L20 16L18 16L18 17L17 17L17 18L18 18L18 19L19 19L19 20L18 20L18 21L17 21L17 19L15 19L15 20L16 20L16 21L17 21L17 22L16 22L16 23L18 23L18 25L19 25L19 23L20 23L20 22L19 22L19 20L21 20L21 19L20 19L20 18L22 18L22 17L20 17L20 16L22 16L22 15ZM25 15L25 16L26 16L26 15ZM6 17L6 18L7 18L7 17ZM18 17L18 18L19 18L19 17ZM0 20L0 21L2 21L2 20ZM12 20L12 21L11 21L11 22L10 22L10 23L11 23L11 22L12 22L12 21L13 21L13 22L15 22L15 21L13 21L13 20ZM21 21L21 24L24 24L24 21ZM22 22L22 23L23 23L23 22ZM12 23L12 24L13 24L13 23ZM14 23L14 25L15 25L15 23ZM16 24L16 25L17 25L17 24ZM27 25L27 26L28 26L28 25ZM10 26L10 27L11 27L11 26ZM17 26L17 27L18 27L18 26ZM19 26L19 28L20 28L20 27L21 27L21 26ZM0 0L0 7L7 7L7 0ZM1 1L1 6L6 6L6 1ZM2 2L2 5L5 5L5 2ZM22 0L22 7L29 7L29 0ZM23 1L23 6L28 6L28 1ZM24 2L24 5L27 5L27 2ZM0 22L0 29L7 29L7 22ZM1 23L1 28L6 28L6 23ZM2 24L2 27L5 27L5 24Z" fill="#282828"/></g></g></svg>
