<?xml version="1.0" encoding="UTF-8"?>
<svg xmlns="http://www.w3.org/2000/svg" version="1.1" width="90" height="90" viewBox="0 0 90 90"><rect x="0" y="0" width="90" height="90" fill="#ffffff"/><g transform="scale(3.333)"><g transform="translate(1,1)"><path fill-rule="evenodd" d="M11 0L11 1L10 1L10 2L11 2L11 5L10 5L10 3L9 3L9 1L8 1L8 3L9 3L9 4L8 4L8 8L6 8L6 9L8 9L8 8L9 8L9 5L10 5L10 8L11 8L11 9L12 9L12 8L11 8L11 5L13 5L13 6L12 6L12 7L13 7L13 6L14 6L14 9L15 9L15 10L18 10L18 11L13 11L13 12L12 12L12 14L10 14L10 13L11 13L11 11L9 11L9 10L10 10L10 9L9 9L9 10L8 10L8 11L7 11L7 10L6 10L6 11L7 11L7 12L6 12L6 13L4 13L4 15L1 15L1 14L0 14L0 15L1 15L1 16L0 16L0 17L2 17L2 16L4 16L4 17L8 17L8 19L9 19L9 21L8 21L8 22L9 22L9 21L10 21L10 19L9 19L9 18L13 18L13 19L12 19L12 20L13 20L13 19L14 19L14 21L11 21L11 22L10 22L10 23L8 23L8 25L9 25L9 24L10 24L10 23L11 23L11 25L13 25L13 24L14 24L14 22L16 22L16 21L19 21L19 22L18 22L18 23L15 23L15 24L16 24L16 25L19 25L19 24L20 24L20 25L21 25L21 24L22 24L22 23L23 23L23 22L22 22L22 20L25 20L25 12L24 12L24 14L23 14L23 16L24 16L24 17L23 17L23 18L22 18L22 20L21 20L21 16L19 16L19 15L22 15L22 14L20 14L20 13L23 13L23 12L21 12L21 11L23 11L23 10L22 10L22 9L24 9L24 11L25 11L25 9L24 9L24 8L22 8L22 9L21 9L21 8L18 8L18 9L17 9L17 5L16 5L16 3L17 3L17 1L15 1L15 2L14 2L14 3L13 3L13 2L12 2L12 1L14 1L14 0ZM15 2L15 3L16 3L16 2ZM15 6L15 7L16 7L16 6ZM0 8L0 10L1 10L1 9L2 9L2 10L3 10L3 11L4 11L4 12L5 12L5 11L4 11L4 10L5 10L5 9L4 9L4 8L3 8L3 9L2 9L2 8ZM15 8L15 9L16 9L16 8ZM18 9L18 10L20 10L20 11L21 11L21 9ZM0 11L0 12L2 12L2 14L3 14L3 12L2 12L2 11ZM8 11L8 12L7 12L7 13L6 13L6 14L7 14L7 15L6 15L6 16L7 16L7 15L8 15L8 16L9 16L9 17L13 17L13 18L14 18L14 19L15 19L15 21L16 21L16 18L14 18L14 17L16 17L16 16L15 16L15 15L17 15L17 16L18 16L18 15L17 15L17 12L13 12L13 14L15 14L15 15L14 15L14 17L13 17L13 15L12 15L12 16L11 16L11 15L10 15L10 16L9 16L9 15L8 15L8 14L9 14L9 13L10 13L10 12L9 12L9 11ZM18 11L18 12L19 12L19 11ZM7 13L7 14L8 14L8 13ZM15 13L15 14L16 14L16 13ZM18 13L18 14L19 14L19 13ZM17 17L17 20L20 20L20 17ZM18 18L18 19L19 19L19 18ZM23 18L23 19L24 19L24 18ZM20 21L20 22L19 22L19 23L18 23L18 24L19 24L19 23L20 23L20 22L21 22L21 23L22 23L22 22L21 22L21 21ZM11 22L11 23L13 23L13 22ZM24 22L24 23L25 23L25 22ZM23 24L23 25L25 25L25 24ZM0 0L0 7L7 7L7 0ZM1 1L1 6L6 6L6 1ZM2 2L2 5L5 5L5 2ZM18 0L18 7L25 7L25 0ZM19 1L19 6L24 6L24 1ZM20 2L20 5L23 5L23 2ZM0 18L0 25L7 25L7 18ZM1 19L1 24L6 24L6 19ZM2 20L2 23L5 23L5 20Z" fill="#282828"/></g></g></svg>
