<?xml version="1.0" encoding="UTF-8"?>
<svg xmlns="http://www.w3.org/2000/svg" version="1.1" width="90" height="90" viewBox="0 0 90 90"><rect x="0" y="0" width="90" height="90" fill="#ffffff"/><g transform="scale(2.903)"><g transform="translate(1,1)"><path fill-rule="evenodd" d="M8 0L8 1L11 1L11 3L10 3L10 2L9 2L9 3L10 3L10 5L9 5L9 6L8 6L8 8L9 8L9 9L8 9L8 10L9 10L9 11L10 11L10 10L11 10L11 9L10 9L10 7L11 7L11 6L12 6L12 9L13 9L13 8L14 8L14 9L15 9L15 8L14 8L14 7L15 7L15 5L17 5L17 6L16 6L16 9L17 9L17 10L14 10L14 11L17 11L17 12L15 12L15 13L12 13L12 14L13 14L13 15L12 15L12 16L11 16L11 12L9 12L9 14L10 14L10 16L11 16L11 18L12 18L12 19L11 19L11 20L10 20L10 21L9 21L9 19L10 19L10 18L9 18L9 19L7 19L7 18L8 18L8 14L5 14L5 12L6 12L6 13L7 13L7 12L6 12L6 11L7 11L7 10L6 10L6 9L7 9L7 8L6 8L6 9L5 9L5 8L3 8L3 9L2 9L2 8L0 8L0 9L2 9L2 12L3 12L3 13L4 13L4 15L3 15L3 16L4 16L4 15L7 15L7 16L6 16L6 17L7 17L7 18L5 18L5 17L4 17L4 18L5 18L5 19L3 19L3 18L2 18L2 17L0 17L0 21L2 21L2 20L3 20L3 21L4 21L4 20L5 20L5 21L7 21L7 20L8 20L8 22L9 22L9 24L8 24L8 26L9 26L9 24L10 24L10 25L13 25L13 26L10 26L10 27L8 27L8 29L9 29L9 28L10 28L10 29L11 29L11 28L12 28L12 29L13 29L13 28L12 28L12 27L14 27L14 29L16 29L16 28L15 28L15 27L16 27L16 25L18 25L18 24L19 24L19 25L21 25L21 26L20 26L20 28L19 28L19 29L22 29L22 27L25 27L25 28L26 28L26 29L27 29L27 27L28 27L28 28L29 28L29 25L28 25L28 21L29 21L29 18L28 18L28 16L29 16L29 11L28 11L28 13L27 13L27 12L26 12L26 9L23 9L23 8L22 8L22 11L24 11L24 10L25 10L25 12L22 12L22 13L23 13L23 14L22 14L22 15L21 15L21 14L20 14L20 12L21 12L21 10L20 10L20 12L18 12L18 11L19 11L19 9L20 9L20 8L21 8L21 3L20 3L20 2L21 2L21 1L20 1L20 0L19 0L19 1L18 1L18 0L17 0L17 1L18 1L18 3L20 3L20 4L17 4L17 2L16 2L16 4L15 4L15 5L14 5L14 4L12 4L12 2L13 2L13 3L15 3L15 1L16 1L16 0L14 0L14 1L12 1L12 0ZM10 5L10 6L9 6L9 7L10 7L10 6L11 6L11 5ZM12 5L12 6L13 6L13 7L14 7L14 6L13 6L13 5ZM18 5L18 6L17 6L17 9L19 9L19 7L20 7L20 5ZM18 6L18 7L19 7L19 6ZM28 8L28 9L27 9L27 10L29 10L29 8ZM9 9L9 10L10 10L10 9ZM0 10L0 11L1 11L1 10ZM12 10L12 11L13 11L13 10ZM17 10L17 11L18 11L18 10ZM4 11L4 12L5 12L5 11ZM17 12L17 14L16 14L16 13L15 13L15 14L14 14L14 15L13 15L13 16L15 16L15 18L17 18L17 17L16 17L16 15L17 15L17 16L18 16L18 17L19 17L19 18L18 18L18 19L17 19L17 21L16 21L16 20L13 20L13 19L14 19L14 17L12 17L12 18L13 18L13 19L12 19L12 21L10 21L10 24L11 24L11 22L12 22L12 23L13 23L13 25L14 25L14 26L15 26L15 25L14 25L14 24L16 24L16 23L17 23L17 22L19 22L19 23L20 23L20 20L23 20L23 19L24 19L24 17L23 17L23 16L24 16L24 15L23 15L23 16L22 16L22 17L21 17L21 18L23 18L23 19L20 19L20 20L19 20L19 18L20 18L20 17L19 17L19 16L20 16L20 15L19 15L19 16L18 16L18 12ZM1 13L1 14L2 14L2 13ZM25 13L25 15L27 15L27 16L25 16L25 17L27 17L27 16L28 16L28 15L27 15L27 13ZM15 14L15 15L16 15L16 14ZM0 15L0 16L1 16L1 15ZM25 18L25 20L26 20L26 18ZM6 19L6 20L7 20L7 19ZM27 19L27 20L28 20L28 19ZM12 21L12 22L13 22L13 21ZM21 21L21 24L24 24L24 21ZM14 22L14 23L16 23L16 22ZM22 22L22 23L23 23L23 22ZM25 23L25 24L26 24L26 25L27 25L27 26L26 26L26 27L27 27L27 26L28 26L28 25L27 25L27 23ZM22 25L22 26L24 26L24 25ZM17 26L17 27L19 27L19 26ZM10 27L10 28L11 28L11 27ZM17 28L17 29L18 29L18 28ZM23 28L23 29L24 29L24 28ZM0 0L0 7L7 7L7 0ZM1 1L1 6L6 6L6 1ZM2 2L2 5L5 5L5 2ZM22 0L22 7L29 7L29 0ZM23 1L23 6L28 6L28 1ZM24 2L24 5L27 5L27 2ZM0 22L0 29L7 29L7 22ZM1 23L1 28L6 28L6 23ZM2 24L2 27L5 27L5 24Z" fill="#282828"/></g></g></svg>
