<?xml version="1.0" encoding="UTF-8"?>
<svg xmlns="http://www.w3.org/2000/svg" version="1.1" width="90" height="90" viewBox="0 0 90 90"><rect x="0" y="0" width="90" height="90" fill="#ffffff"/><g transform="scale(2.903)"><g transform="translate(1,1)"><path fill-rule="evenodd" d="M8 0L8 1L10 1L10 0ZM13 0L13 2L11 2L11 4L10 4L10 3L9 3L9 2L8 2L8 5L9 5L9 6L8 6L8 7L9 7L9 8L8 8L8 9L7 9L7 8L6 8L6 9L4 9L4 8L0 8L0 9L2 9L2 10L5 10L5 12L4 12L4 11L3 11L3 13L2 13L2 11L1 11L1 10L0 10L0 11L1 11L1 13L2 13L2 14L0 14L0 16L2 16L2 15L3 15L3 13L4 13L4 15L5 15L5 13L7 13L7 14L6 14L6 15L7 15L7 16L4 16L4 17L2 17L2 18L3 18L3 19L2 19L2 20L1 20L1 21L2 21L2 20L4 20L4 21L8 21L8 22L9 22L9 25L8 25L8 29L9 29L9 25L11 25L11 24L10 24L10 22L11 22L11 23L12 23L12 24L13 24L13 25L14 25L14 24L15 24L15 26L19 26L19 27L18 27L18 29L22 29L22 27L21 27L21 26L22 26L22 25L24 25L24 26L23 26L23 27L24 27L24 26L25 26L25 28L23 28L23 29L25 29L25 28L26 28L26 29L28 29L28 27L29 27L29 23L27 23L27 22L26 22L26 21L27 21L27 19L28 19L28 22L29 22L29 19L28 19L28 17L26 17L26 18L24 18L24 17L25 17L25 16L26 16L26 15L25 15L25 16L24 16L24 15L23 15L23 13L22 13L22 12L23 12L23 11L22 11L22 10L25 10L25 11L24 11L24 12L25 12L25 11L26 11L26 10L27 10L27 12L29 12L29 11L28 11L28 10L27 10L27 8L24 8L24 9L22 9L22 8L21 8L21 6L20 6L20 5L19 5L19 4L20 4L20 3L21 3L21 0L16 0L16 1L18 1L18 3L17 3L17 4L15 4L15 3L16 3L16 2L15 2L15 1L14 1L14 0ZM19 1L19 3L18 3L18 4L19 4L19 3L20 3L20 1ZM12 3L12 5L10 5L10 6L9 6L9 7L10 7L10 8L9 8L9 9L10 9L10 10L7 10L7 9L6 9L6 10L7 10L7 11L6 11L6 12L7 12L7 13L8 13L8 11L9 11L9 12L10 12L10 13L9 13L9 14L8 14L8 17L5 17L5 18L4 18L4 20L7 20L7 19L5 19L5 18L8 18L8 17L10 17L10 18L9 18L9 19L10 19L10 20L8 20L8 21L9 21L9 22L10 22L10 21L11 21L11 22L12 22L12 21L13 21L13 23L14 23L14 22L15 22L15 24L16 24L16 25L17 25L17 24L18 24L18 25L20 25L20 23L19 23L19 24L18 24L18 23L16 23L16 22L18 22L18 20L19 20L19 19L20 19L20 17L21 17L21 15L22 15L22 17L23 17L23 15L22 15L22 13L21 13L21 8L20 8L20 6L19 6L19 8L20 8L20 10L18 10L18 9L17 9L17 10L16 10L16 6L17 6L17 7L18 7L18 5L15 5L15 4L13 4L13 3ZM12 5L12 7L11 7L11 6L10 6L10 7L11 7L11 8L12 8L12 7L13 7L13 6L14 6L14 7L15 7L15 5ZM14 8L14 9L13 9L13 10L14 10L14 9L15 9L15 8ZM28 8L28 9L29 9L29 8ZM11 11L11 13L10 13L10 15L11 15L11 14L12 14L12 16L10 16L10 17L12 17L12 18L10 18L10 19L12 19L12 20L11 20L11 21L12 21L12 20L13 20L13 18L15 18L15 19L14 19L14 21L15 21L15 19L16 19L16 18L15 18L15 17L16 17L16 16L17 16L17 15L15 15L15 14L18 14L18 15L19 15L19 16L20 16L20 15L21 15L21 14L20 14L20 13L19 13L19 14L18 14L18 12L17 12L17 11ZM19 11L19 12L20 12L20 11ZM12 12L12 14L13 14L13 16L12 16L12 17L13 17L13 16L14 16L14 17L15 17L15 16L14 16L14 14L15 14L15 13L14 13L14 12ZM16 12L16 13L17 13L17 12ZM13 13L13 14L14 14L14 13ZM25 13L25 14L26 14L26 13ZM27 13L27 14L28 14L28 15L27 15L27 16L28 16L28 15L29 15L29 13ZM0 18L0 19L1 19L1 18ZM18 18L18 19L17 19L17 20L16 20L16 21L17 21L17 20L18 20L18 19L19 19L19 18ZM22 18L22 19L21 19L21 20L22 20L22 19L23 19L23 20L25 20L25 19L23 19L23 18ZM26 18L26 19L27 19L27 18ZM21 21L21 24L24 24L24 21ZM22 22L22 23L23 23L23 22ZM26 23L26 24L25 24L25 26L26 26L26 28L27 28L27 27L28 27L28 24L27 24L27 23ZM26 24L26 26L27 26L27 24ZM12 27L12 28L10 28L10 29L15 29L15 28L13 28L13 27ZM19 27L19 28L20 28L20 27ZM16 28L16 29L17 29L17 28ZM0 0L0 7L7 7L7 0ZM1 1L1 6L6 6L6 1ZM2 2L2 5L5 5L5 2ZM22 0L22 7L29 7L29 0ZM23 1L23 6L28 6L28 1ZM24 2L24 5L27 5L27 2ZM0 22L0 29L7 29L7 22ZM1 23L1 28L6 28L6 23ZM2 24L2 27L5 27L5 24Z" fill="#282828"/></g></g></svg>
