<?xml version="1.0" encoding="UTF-8"?>
<svg xmlns="http://www.w3.org/2000/svg" version="1.1" width="90" height="90" viewBox="0 0 90 90"><rect x="0" y="0" width="90" height="90" fill="#ffffff"/><g transform="scale(2.903)"><g transform="translate(1,1)"><path fill-rule="evenodd" d="M9 0L9 1L8 1L8 2L9 2L9 3L8 3L8 4L10 4L10 7L11 7L11 4L12 4L12 5L13 5L13 6L12 6L12 9L13 9L13 8L14 8L14 9L17 9L17 10L18 10L18 12L19 12L19 13L18 13L18 15L19 15L19 17L20 17L20 19L19 19L19 18L18 18L18 20L19 20L19 21L20 21L20 23L19 23L19 22L18 22L18 24L20 24L20 25L23 25L23 28L22 28L22 26L20 26L20 27L21 27L21 28L22 28L22 29L23 29L23 28L24 28L24 29L25 29L25 28L26 28L26 29L27 29L27 28L28 28L28 26L29 26L29 25L28 25L28 24L29 24L29 23L28 23L28 22L29 22L29 21L28 21L28 20L29 20L29 19L28 19L28 18L29 18L29 17L28 17L28 14L29 14L29 13L28 13L28 14L27 14L27 16L26 16L26 15L25 15L25 14L26 14L26 13L22 13L22 11L23 11L23 12L24 12L24 11L25 11L25 12L26 12L26 11L27 11L27 12L29 12L29 11L27 11L27 9L28 9L28 8L27 8L27 9L26 9L26 8L25 8L25 9L24 9L24 8L23 8L23 9L22 9L22 8L21 8L21 6L20 6L20 7L19 7L19 3L17 3L17 2L16 2L16 3L17 3L17 4L18 4L18 8L19 8L19 9L17 9L17 6L16 6L16 4L12 4L12 2L13 2L13 1L11 1L11 2L10 2L10 0ZM15 0L15 1L17 1L17 0ZM18 0L18 1L19 1L19 0ZM20 0L20 1L21 1L21 0ZM14 2L14 3L15 3L15 2ZM20 2L20 5L21 5L21 2ZM10 3L10 4L11 4L11 3ZM8 5L8 7L9 7L9 5ZM13 6L13 7L14 7L14 8L16 8L16 6L15 6L15 7L14 7L14 6ZM0 8L0 9L2 9L2 10L0 10L0 11L1 11L1 12L0 12L0 15L1 15L1 16L2 16L2 17L3 17L3 15L4 15L4 18L3 18L3 21L4 21L4 20L5 20L5 19L7 19L7 20L6 20L6 21L8 21L8 23L9 23L9 24L8 24L8 29L10 29L10 28L11 28L11 29L12 29L12 27L13 27L13 26L10 26L10 24L11 24L11 21L12 21L12 22L13 22L13 23L12 23L12 25L13 25L13 24L14 24L14 25L16 25L16 26L15 26L15 27L14 27L14 28L15 28L15 27L16 27L16 29L17 29L17 26L18 26L18 27L19 27L19 25L17 25L17 24L16 24L16 22L17 22L17 21L16 21L16 19L17 19L17 18L15 18L15 19L14 19L14 20L15 20L15 21L12 21L12 19L13 19L13 18L10 18L10 17L11 17L11 13L12 13L12 14L13 14L13 15L12 15L12 17L13 17L13 16L14 16L14 17L17 17L17 16L14 16L14 15L16 15L16 14L15 14L15 13L17 13L17 12L16 12L16 10L15 10L15 11L14 11L14 12L15 12L15 13L12 13L12 11L13 11L13 10L11 10L11 11L10 11L10 9L11 9L11 8L6 8L6 9L7 9L7 10L6 10L6 11L5 11L5 12L6 12L6 13L4 13L4 11L2 11L2 10L3 10L3 9L4 9L4 10L5 10L5 8ZM20 8L20 9L19 9L19 11L20 11L20 9L21 9L21 8ZM8 10L8 11L6 11L6 12L8 12L8 13L6 13L6 14L4 14L4 13L3 13L3 12L2 12L2 13L3 13L3 14L4 14L4 15L5 15L5 17L6 17L6 18L7 18L7 17L6 17L6 16L7 16L7 15L6 15L6 14L8 14L8 13L9 13L9 12L8 12L8 11L9 11L9 10ZM21 10L21 11L22 11L22 10ZM23 10L23 11L24 11L24 10ZM10 12L10 13L11 13L11 12ZM20 12L20 13L19 13L19 15L20 15L20 17L21 17L21 19L22 19L22 20L24 20L24 19L25 19L25 23L26 23L26 24L25 24L25 25L24 25L24 26L26 26L26 25L27 25L27 24L28 24L28 23L27 23L27 22L28 22L28 21L26 21L26 20L27 20L27 19L26 19L26 18L28 18L28 17L25 17L25 16L23 16L23 14L22 14L22 16L21 16L21 15L20 15L20 13L21 13L21 12ZM1 14L1 15L2 15L2 14ZM9 14L9 15L10 15L10 14ZM9 16L9 17L8 17L8 19L9 19L9 20L8 20L8 21L9 21L9 22L10 22L10 21L11 21L11 20L10 20L10 18L9 18L9 17L10 17L10 16ZM0 17L0 21L1 21L1 17ZM23 17L23 18L25 18L25 17ZM4 18L4 19L5 19L5 18ZM15 21L15 22L16 22L16 21ZM21 21L21 24L24 24L24 21ZM22 22L22 23L23 23L23 22ZM14 23L14 24L15 24L15 23ZM26 27L26 28L27 28L27 27ZM19 28L19 29L20 29L20 28ZM0 0L0 7L7 7L7 0ZM1 1L1 6L6 6L6 1ZM2 2L2 5L5 5L5 2ZM22 0L22 7L29 7L29 0ZM23 1L23 6L28 6L28 1ZM24 2L24 5L27 5L27 2ZM0 22L0 29L7 29L7 22ZM1 23L1 28L6 28L6 23ZM2 24L2 27L5 27L5 24Z" fill="#282828"/></g></g></svg>
