<?xml version="1.0" encoding="UTF-8"?>
<svg xmlns="http://www.w3.org/2000/svg" version="1.1" width="90" height="90" viewBox="0 0 90 90"><rect x="0" y="0" width="90" height="90" fill="#ffffff"/><g transform="scale(3.333)"><g transform="translate(1,1)"><path fill-rule="evenodd" d="M8 0L8 1L10 1L10 0ZM15 0L15 1L14 1L14 2L11 2L11 4L10 4L10 3L9 3L9 2L8 2L8 5L9 5L9 6L8 6L8 7L9 7L9 8L8 8L8 9L9 9L9 10L8 10L8 11L9 11L9 10L10 10L10 9L9 9L9 8L10 8L10 7L11 7L11 8L12 8L12 7L13 7L13 5L14 5L14 7L15 7L15 5L14 5L14 4L15 4L15 3L17 3L17 0ZM15 1L15 2L16 2L16 1ZM12 3L12 5L10 5L10 6L9 6L9 7L10 7L10 6L11 6L11 7L12 7L12 5L13 5L13 4L14 4L14 3ZM16 4L16 5L17 5L17 4ZM16 6L16 9L15 9L15 8L14 8L14 11L11 11L11 13L10 13L10 12L5 12L5 11L7 11L7 10L6 10L6 9L7 9L7 8L6 8L6 9L4 9L4 8L0 8L0 9L1 9L1 10L0 10L0 13L1 13L1 15L0 15L0 16L1 16L1 15L2 15L2 14L3 14L3 13L4 13L4 14L5 14L5 15L4 15L4 16L2 16L2 17L4 17L4 16L5 16L5 17L7 17L7 16L5 16L5 15L8 15L8 16L9 16L9 15L10 15L10 14L12 14L12 16L10 16L10 18L9 18L9 17L8 17L8 18L9 18L9 19L10 19L10 18L11 18L11 19L12 19L12 20L11 20L11 21L12 21L12 22L11 22L11 23L10 23L10 24L13 24L13 25L14 25L14 23L16 23L16 24L17 24L17 23L19 23L19 24L18 24L18 25L19 25L19 24L20 24L20 23L21 23L21 22L22 22L22 24L21 24L21 25L25 25L25 24L23 24L23 23L24 23L24 22L25 22L25 20L24 20L24 19L25 19L25 17L24 17L24 16L23 16L23 17L21 17L21 15L22 15L22 14L23 14L23 13L21 13L21 12L23 12L23 11L24 11L24 9L25 9L25 8L24 8L24 9L23 9L23 8L20 8L20 9L19 9L19 10L18 10L18 12L17 12L17 11L15 11L15 10L17 10L17 9L18 9L18 8L17 8L17 6ZM2 9L2 10L1 10L1 11L5 11L5 10L3 10L3 9ZM20 9L20 10L23 10L23 9ZM14 11L14 12L15 12L15 11ZM12 12L12 14L14 14L14 15L13 15L13 16L12 16L12 17L11 17L11 18L12 18L12 17L13 17L13 16L14 16L14 15L19 15L19 14L16 14L16 13L17 13L17 12L16 12L16 13L15 13L15 14L14 14L14 13L13 13L13 12ZM19 12L19 13L20 13L20 12ZM24 12L24 14L25 14L25 12ZM6 13L6 14L7 14L7 13ZM9 13L9 14L10 14L10 13ZM15 16L15 17L16 17L16 16ZM17 17L17 20L20 20L20 17ZM14 18L14 19L13 19L13 20L12 20L12 21L13 21L13 23L14 23L14 21L16 21L16 22L18 22L18 21L16 21L16 20L14 20L14 19L15 19L15 18ZM18 18L18 19L19 19L19 18ZM22 18L22 22L23 22L23 21L24 21L24 20L23 20L23 19L24 19L24 18ZM9 20L9 21L8 21L8 25L9 25L9 21L10 21L10 20ZM19 21L19 22L21 22L21 21ZM0 0L0 7L7 7L7 0ZM1 1L1 6L6 6L6 1ZM2 2L2 5L5 5L5 2ZM18 0L18 7L25 7L25 0ZM19 1L19 6L24 6L24 1ZM20 2L20 5L23 5L23 2ZM0 18L0 25L7 25L7 18ZM1 19L1 24L6 24L6 19ZM2 20L2 23L5 23L5 20Z" fill="#282828"/></g></g></svg>
