<?xml version="1.0" encoding="UTF-8"?>
<svg xmlns="http://www.w3.org/2000/svg" version="1.1" width="90" height="90" viewBox="0 0 90 90"><rect x="0" y="0" width="90" height="90" fill="#ffffff"/><g transform="scale(3.333)"><g transform="translate(1,1)"><path fill-rule="evenodd" d="M9 0L9 1L8 1L8 3L9 3L9 4L8 4L8 8L6 8L6 9L7 9L7 10L5 10L5 9L4 9L4 8L3 8L3 9L2 9L2 8L0 8L0 10L1 10L1 12L3 12L3 11L4 11L4 12L5 12L5 11L7 11L7 12L6 12L6 13L9 13L9 14L10 14L10 13L11 13L11 11L9 11L9 10L10 10L10 9L8 9L8 8L9 8L9 5L10 5L10 8L11 8L11 9L12 9L12 8L11 8L11 5L13 5L13 6L12 6L12 7L13 7L13 6L14 6L14 7L15 7L15 6L16 6L16 7L17 7L17 4L16 4L16 5L15 5L15 3L16 3L16 2L17 2L17 1L15 1L15 0L14 0L14 3L13 3L13 2L12 2L12 1L13 1L13 0L11 0L11 1L10 1L10 0ZM9 2L9 3L10 3L10 5L11 5L11 3L10 3L10 2ZM13 4L13 5L14 5L14 6L15 6L15 5L14 5L14 4ZM13 8L13 12L12 12L12 14L11 14L11 16L12 16L12 15L13 15L13 17L11 17L11 18L10 18L10 19L9 19L9 16L10 16L10 15L9 15L9 16L8 16L8 19L9 19L9 20L10 20L10 24L11 24L11 22L13 22L13 24L12 24L12 25L13 25L13 24L14 24L14 23L15 23L15 24L16 24L16 25L19 25L19 24L20 24L20 25L21 25L21 24L22 24L22 23L23 23L23 22L22 22L22 20L25 20L25 12L24 12L24 14L23 14L23 16L24 16L24 17L23 17L23 18L22 18L22 20L21 20L21 16L18 16L18 15L19 15L19 14L20 14L20 15L22 15L22 14L20 14L20 13L23 13L23 12L21 12L21 11L20 11L20 10L18 10L18 9L21 9L21 10L23 10L23 9L24 9L24 11L25 11L25 9L24 9L24 8L22 8L22 9L21 9L21 8L18 8L18 9L17 9L17 8L15 8L15 10L14 10L14 8ZM1 9L1 10L2 10L2 9ZM15 10L15 11L16 11L16 10ZM8 11L8 12L9 12L9 13L10 13L10 12L9 12L9 11ZM18 11L18 12L19 12L19 11ZM13 12L13 13L14 13L14 14L15 14L15 15L14 15L14 18L15 18L15 21L14 21L14 19L13 19L13 18L11 18L11 19L10 19L10 20L11 20L11 21L13 21L13 22L15 22L15 23L17 23L17 24L18 24L18 23L17 23L17 22L19 22L19 23L20 23L20 22L21 22L21 23L22 23L22 22L21 22L21 21L20 21L20 22L19 22L19 21L16 21L16 18L15 18L15 15L16 15L16 14L17 14L17 15L18 15L18 14L19 14L19 13L18 13L18 14L17 14L17 13L16 13L16 12ZM2 13L2 14L3 14L3 13ZM4 13L4 14L5 14L5 13ZM15 13L15 14L16 14L16 13ZM0 14L0 15L1 15L1 16L0 16L0 17L4 17L4 15L1 15L1 14ZM6 14L6 15L8 15L8 14ZM5 16L5 17L7 17L7 16ZM17 17L17 20L20 20L20 17ZM18 18L18 19L19 19L19 18ZM23 18L23 19L24 19L24 18ZM12 19L12 20L13 20L13 19ZM8 21L8 22L9 22L9 21ZM15 21L15 22L16 22L16 21ZM24 22L24 23L25 23L25 22ZM8 23L8 25L9 25L9 23ZM23 24L23 25L25 25L25 24ZM0 0L0 7L7 7L7 0ZM1 1L1 6L6 6L6 1ZM2 2L2 5L5 5L5 2ZM18 0L18 7L25 7L25 0ZM19 1L19 6L24 6L24 1ZM20 2L20 5L23 5L23 2ZM0 18L0 25L7 25L7 18ZM1 19L1 24L6 24L6 19ZM2 20L2 23L5 23L5 20Z" fill="#282828"/></g></g></svg>
