<?xml version="1.0" encoding="UTF-8"?>
<svg xmlns="http://www.w3.org/2000/svg" version="1.1" width="90" height="90" viewBox="0 0 90 90"><rect x="0" y="0" width="90" height="90" fill="#ffffff"/><g transform="scale(3.333)"><g transform="translate(1,1)"><path fill-rule="evenodd" d="M8 0L8 4L9 4L9 5L8 5L8 7L9 7L9 6L10 6L10 9L11 9L11 8L12 8L12 9L13 9L13 8L12 8L12 7L13 7L13 6L12 6L12 7L11 7L11 3L10 3L10 2L9 2L9 0ZM13 0L13 1L11 1L11 2L12 2L12 5L13 5L13 4L14 4L14 5L16 5L16 7L15 7L15 6L14 6L14 7L15 7L15 8L16 8L16 7L17 7L17 3L16 3L16 4L15 4L15 2L14 2L14 3L13 3L13 1L17 1L17 0ZM0 8L0 9L2 9L2 10L0 10L0 11L1 11L1 12L2 12L2 13L0 13L0 14L3 14L3 15L2 15L2 16L0 16L0 17L2 17L2 16L3 16L3 15L4 15L4 16L5 16L5 15L7 15L7 14L8 14L8 13L7 13L7 12L10 12L10 11L11 11L11 10L9 10L9 9L8 9L8 11L7 11L7 10L6 10L6 9L7 9L7 8L4 8L4 10L3 10L3 9L2 9L2 8ZM19 8L19 9L20 9L20 10L21 10L21 9L22 9L22 12L21 12L21 13L20 13L20 11L19 11L19 12L17 12L17 11L16 11L16 10L17 10L17 9L14 9L14 10L15 10L15 11L14 11L14 12L13 12L13 11L12 11L12 12L11 12L11 13L10 13L10 14L9 14L9 15L8 15L8 16L6 16L6 17L8 17L8 18L9 18L9 16L10 16L10 14L11 14L11 17L10 17L10 18L11 18L11 20L12 20L12 18L14 18L14 17L12 17L12 15L14 15L14 16L16 16L16 19L15 19L15 20L16 20L16 21L11 21L11 23L12 23L12 22L16 22L16 23L14 23L14 25L16 25L16 23L17 23L17 22L18 22L18 23L20 23L20 22L21 22L21 24L18 24L18 25L21 25L21 24L22 24L22 25L25 25L25 24L24 24L24 22L25 22L25 21L23 21L23 20L25 20L25 19L24 19L24 17L25 17L25 15L24 15L24 13L25 13L25 12L24 12L24 9L25 9L25 8L21 8L21 9L20 9L20 8ZM2 10L2 12L3 12L3 13L4 13L4 15L5 15L5 14L7 14L7 13L5 13L5 12L7 12L7 11L6 11L6 10L4 10L4 11L3 11L3 10ZM4 11L4 12L5 12L5 11ZM15 11L15 12L14 12L14 13L13 13L13 14L16 14L16 13L17 13L17 12L16 12L16 11ZM15 12L15 13L16 13L16 12ZM22 12L22 13L24 13L24 12ZM11 13L11 14L12 14L12 13ZM18 13L18 14L17 14L17 15L18 15L18 16L19 16L19 14L20 14L20 13ZM21 14L21 17L22 17L22 18L23 18L23 17L24 17L24 16L22 16L22 15L23 15L23 14ZM17 17L17 20L20 20L20 17ZM18 18L18 19L19 19L19 18ZM8 19L8 21L9 21L9 23L8 23L8 25L11 25L11 24L9 24L9 23L10 23L10 21L9 21L9 20L10 20L10 19ZM21 19L21 20L22 20L22 19ZM16 21L16 22L17 22L17 21ZM21 21L21 22L22 22L22 23L23 23L23 21ZM0 0L0 7L7 7L7 0ZM1 1L1 6L6 6L6 1ZM2 2L2 5L5 5L5 2ZM18 0L18 7L25 7L25 0ZM19 1L19 6L24 6L24 1ZM20 2L20 5L23 5L23 2ZM0 18L0 25L7 25L7 18ZM1 19L1 24L6 24L6 19ZM2 20L2 23L5 23L5 20Z" fill="#282828"/></g></g></svg>
