<?xml version="1.0" encoding="UTF-8"?>
<svg xmlns="http://www.w3.org/2000/svg" version="1.1" width="90" height="90" viewBox="0 0 90 90"><rect x="0" y="0" width="90" height="90" fill="#ffffff"/><g transform="scale(3.333)"><g transform="translate(1,1)"><path fill-rule="evenodd" d="M9 0L9 1L10 1L10 2L8 2L8 3L9 3L9 4L10 4L10 5L9 5L9 6L8 6L8 8L4 8L4 9L3 9L3 8L0 8L0 9L1 9L1 12L0 12L0 13L2 13L2 9L3 9L3 10L4 10L4 11L3 11L3 14L2 14L2 15L1 15L1 14L0 14L0 15L1 15L1 16L0 16L0 17L1 17L1 16L2 16L2 17L5 17L5 16L6 16L6 17L8 17L8 21L9 21L9 17L10 17L10 18L12 18L12 19L11 19L11 20L12 20L12 19L13 19L13 22L12 22L12 23L13 23L13 25L19 25L19 24L20 24L20 25L21 25L21 24L22 24L22 23L23 23L23 25L25 25L25 24L24 24L24 23L25 23L25 22L24 22L24 23L23 23L23 22L20 22L20 21L21 21L21 19L23 19L23 17L22 17L22 18L21 18L21 16L18 16L18 15L17 15L17 14L18 14L18 13L21 13L21 12L20 12L20 10L17 10L17 9L19 9L19 8L17 8L17 9L13 9L13 12L12 12L12 11L11 11L11 12L12 12L12 13L11 13L11 15L12 15L12 16L11 16L11 17L10 17L10 16L6 16L6 15L7 15L7 14L6 14L6 13L8 13L8 14L10 14L10 13L8 13L8 12L9 12L9 11L10 11L10 10L12 10L12 8L15 8L15 6L16 6L16 7L17 7L17 5L15 5L15 4L17 4L17 3L15 3L15 2L16 2L16 1L15 1L15 0L12 0L12 1L10 1L10 0ZM14 1L14 2L13 2L13 3L12 3L12 2L11 2L11 3L12 3L12 4L11 4L11 5L10 5L10 6L9 6L9 7L10 7L10 6L11 6L11 8L12 8L12 6L13 6L13 7L14 7L14 6L13 6L13 5L14 5L14 4L13 4L13 3L14 3L14 2L15 2L15 1ZM9 8L9 10L8 10L8 9L5 9L5 11L6 11L6 12L8 12L8 11L9 11L9 10L10 10L10 8ZM22 8L22 10L21 10L21 11L22 11L22 10L23 10L23 12L22 12L22 14L19 14L19 15L23 15L23 16L24 16L24 19L25 19L25 12L24 12L24 11L25 11L25 10L23 10L23 8ZM6 10L6 11L7 11L7 10ZM15 10L15 11L14 11L14 12L13 12L13 14L14 14L14 15L16 15L16 16L14 16L14 17L16 17L16 16L17 16L17 15L16 15L16 14L14 14L14 13L16 13L16 12L15 12L15 11L17 11L17 10ZM18 11L18 12L19 12L19 11ZM4 12L4 13L5 13L5 12ZM23 12L23 15L24 15L24 12ZM3 14L3 15L2 15L2 16L5 16L5 14ZM12 17L12 18L13 18L13 19L14 19L14 22L13 22L13 23L14 23L14 22L15 22L15 24L19 24L19 23L18 23L18 22L19 22L19 21L17 21L17 23L16 23L16 22L15 22L15 21L16 21L16 20L15 20L15 19L14 19L14 18L13 18L13 17ZM17 17L17 20L20 20L20 17ZM18 18L18 19L19 19L19 18ZM10 21L10 23L9 23L9 22L8 22L8 25L9 25L9 24L10 24L10 23L11 23L11 21ZM20 23L20 24L21 24L21 23ZM0 0L0 7L7 7L7 0ZM1 1L1 6L6 6L6 1ZM2 2L2 5L5 5L5 2ZM18 0L18 7L25 7L25 0ZM19 1L19 6L24 6L24 1ZM20 2L20 5L23 5L23 2ZM0 18L0 25L7 25L7 18ZM1 19L1 24L6 24L6 19ZM2 20L2 23L5 23L5 20Z" fill="#282828"/></g></g></svg>
