<?xml version="1.0" encoding="UTF-8"?>
<svg xmlns="http://www.w3.org/2000/svg" version="1.1" width="90" height="90" viewBox="0 0 90 90"><rect x="0" y="0" width="90" height="90" fill="#ffffff"/><g transform="scale(3.333)"><g transform="translate(1,1)"><path fill-rule="evenodd" d="M8 0L8 1L10 1L10 0ZM15 0L15 1L14 1L14 2L11 2L11 4L10 4L10 3L9 3L9 2L8 2L8 5L9 5L9 6L8 6L8 7L9 7L9 8L8 8L8 9L9 9L9 10L10 10L10 9L9 9L9 8L10 8L10 7L11 7L11 8L12 8L12 9L11 9L11 12L12 12L12 10L13 10L13 12L14 12L14 16L16 16L16 21L15 21L15 20L12 20L12 19L15 19L15 17L12 17L12 16L13 16L13 14L12 14L12 16L11 16L11 18L10 18L10 17L9 17L9 15L8 15L8 14L9 14L9 13L10 13L10 15L11 15L11 13L10 13L10 12L8 12L8 13L7 13L7 12L6 12L6 11L7 11L7 10L4 10L4 8L0 8L0 9L3 9L3 10L4 10L4 11L3 11L3 12L2 12L2 11L1 11L1 10L0 10L0 11L1 11L1 12L2 12L2 13L1 13L1 15L0 15L0 16L1 16L1 15L2 15L2 17L4 17L4 13L5 13L5 12L6 12L6 13L7 13L7 14L6 14L6 15L5 15L5 17L8 17L8 18L10 18L10 19L11 19L11 20L12 20L12 21L10 21L10 20L9 20L9 21L8 21L8 25L12 25L12 24L14 24L14 25L15 25L15 24L17 24L17 25L19 25L19 24L20 24L20 23L22 23L22 24L21 24L21 25L25 25L25 24L23 24L23 23L24 23L24 22L25 22L25 20L24 20L24 19L25 19L25 17L24 17L24 16L22 16L22 17L21 17L21 16L20 16L20 15L19 15L19 14L21 14L21 15L23 15L23 13L22 13L22 12L23 12L23 10L25 10L25 8L24 8L24 9L23 9L23 8L20 8L20 9L18 9L18 8L16 8L16 7L17 7L17 6L16 6L16 7L15 7L15 6L14 6L14 5L15 5L15 4L16 4L16 5L17 5L17 3L16 3L16 2L17 2L17 0ZM15 1L15 2L16 2L16 1ZM14 3L14 4L12 4L12 5L10 5L10 6L9 6L9 7L10 7L10 6L11 6L11 7L12 7L12 8L14 8L14 6L13 6L13 5L14 5L14 4L15 4L15 3ZM12 6L12 7L13 7L13 6ZM6 8L6 9L7 9L7 8ZM14 9L14 12L16 12L16 13L15 13L15 15L16 15L16 16L18 16L18 14L19 14L19 13L18 13L18 14L17 14L17 15L16 15L16 13L17 13L17 12L19 12L19 10L17 10L17 12L16 12L16 10L15 10L15 9ZM20 9L20 13L21 13L21 10L22 10L22 9ZM4 11L4 12L3 12L3 13L2 13L2 14L3 14L3 13L4 13L4 12L5 12L5 11ZM24 12L24 14L25 14L25 12ZM6 15L6 16L7 16L7 15ZM17 17L17 20L20 20L20 17ZM22 17L22 18L21 18L21 19L22 19L22 20L21 20L21 21L19 21L19 22L18 22L18 24L19 24L19 22L22 22L22 23L23 23L23 19L24 19L24 18L23 18L23 17ZM11 18L11 19L12 19L12 18ZM18 18L18 19L19 19L19 18ZM9 21L9 22L10 22L10 23L9 23L9 24L10 24L10 23L11 23L11 22L10 22L10 21ZM12 21L12 22L13 22L13 21ZM14 21L14 23L17 23L17 22L15 22L15 21ZM0 0L0 7L7 7L7 0ZM1 1L1 6L6 6L6 1ZM2 2L2 5L5 5L5 2ZM18 0L18 7L25 7L25 0ZM19 1L19 6L24 6L24 1ZM20 2L20 5L23 5L23 2ZM0 18L0 25L7 25L7 18ZM1 19L1 24L6 24L6 19ZM2 20L2 23L5 23L5 20Z" fill="#282828"/></g></g></svg>
