<?xml version="1.0" encoding="UTF-8"?>
<svg xmlns="http://www.w3.org/2000/svg" version="1.1" width="90" height="90" viewBox="0 0 90 90"><rect x="0" y="0" width="90" height="90" fill="#ffffff"/><g transform="scale(2.903)"><g transform="translate(1,1)"><path fill-rule="evenodd" d="M9 0L9 1L8 1L8 2L9 2L9 3L8 3L8 4L10 4L10 7L11 7L11 4L12 4L12 5L13 5L13 6L12 6L12 9L13 9L13 8L14 8L14 9L18 9L18 10L15 10L15 11L14 11L14 12L15 12L15 13L12 13L12 11L13 11L13 10L11 10L11 11L10 11L10 9L11 9L11 8L6 8L6 9L5 9L5 8L0 8L0 10L1 10L1 9L2 9L2 10L3 10L3 11L0 11L0 13L1 13L1 12L3 12L3 13L2 13L2 14L1 14L1 16L0 16L0 21L1 21L1 18L2 18L2 21L3 21L3 15L5 15L5 16L4 16L4 17L7 17L7 18L4 18L4 21L8 21L8 23L9 23L9 24L8 24L8 29L9 29L9 27L10 27L10 26L9 26L9 24L10 24L10 25L11 25L11 24L10 24L10 23L11 23L11 22L9 22L9 21L12 21L12 22L13 22L13 23L12 23L12 25L13 25L13 24L14 24L14 25L15 25L15 24L16 24L16 22L17 22L17 23L18 23L18 24L17 24L17 25L16 25L16 26L15 26L15 27L14 27L14 28L15 28L15 29L16 29L16 27L18 27L18 26L19 26L19 25L18 25L18 24L20 24L20 26L21 26L21 27L19 27L19 29L20 29L20 28L22 28L22 27L25 27L25 28L26 28L26 29L27 29L27 28L28 28L28 26L29 26L29 25L27 25L27 28L26 28L26 26L21 26L21 25L25 25L25 24L26 24L26 23L25 23L25 18L26 18L26 19L27 19L27 20L26 20L26 21L28 21L28 22L27 22L27 23L28 23L28 22L29 22L29 21L28 21L28 20L29 20L29 19L28 19L28 18L29 18L29 17L28 17L28 16L26 16L26 17L24 17L24 16L25 16L25 15L26 15L26 14L27 14L27 15L28 15L28 14L29 14L29 13L28 13L28 11L27 11L27 9L28 9L28 8L27 8L27 9L26 9L26 8L25 8L25 11L24 11L24 10L23 10L23 9L24 9L24 8L23 8L23 9L22 9L22 8L21 8L21 6L20 6L20 7L19 7L19 6L18 6L18 5L21 5L21 2L20 2L20 4L18 4L18 3L16 3L16 2L19 2L19 1L21 1L21 0L19 0L19 1L15 1L15 0L14 0L14 1L15 1L15 4L17 4L17 6L16 6L16 5L14 5L14 4L12 4L12 2L13 2L13 1L11 1L11 2L10 2L10 0ZM10 3L10 4L11 4L11 3ZM8 5L8 7L9 7L9 5ZM13 6L13 7L14 7L14 8L18 8L18 9L19 9L19 12L18 12L18 11L16 11L16 13L15 13L15 14L16 14L16 16L19 16L19 17L22 17L22 18L21 18L21 19L20 19L20 18L19 18L19 20L18 20L18 17L17 17L17 21L19 21L19 22L18 22L18 23L19 23L19 22L20 22L20 21L19 21L19 20L23 20L23 19L24 19L24 18L23 18L23 16L24 16L24 15L25 15L25 13L27 13L27 14L28 14L28 13L27 13L27 11L26 11L26 12L25 12L25 13L24 13L24 11L21 11L21 10L20 10L20 9L21 9L21 8L20 8L20 9L19 9L19 7L18 7L18 6L17 6L17 7L16 7L16 6L15 6L15 7L14 7L14 6ZM4 9L4 12L7 12L7 13L6 13L6 14L7 14L7 13L9 13L9 15L10 15L10 13L11 13L11 16L9 16L9 17L11 17L11 18L7 18L7 19L5 19L5 20L8 20L8 21L9 21L9 20L11 20L11 18L13 18L13 19L12 19L12 21L16 21L16 19L15 19L15 18L16 18L16 17L14 17L14 16L15 16L15 15L14 15L14 16L13 16L13 17L12 17L12 15L13 15L13 14L12 14L12 13L11 13L11 12L10 12L10 13L9 13L9 11L8 11L8 12L7 12L7 11L6 11L6 10L7 10L7 9L6 9L6 10L5 10L5 9ZM17 12L17 13L16 13L16 14L17 14L17 13L18 13L18 14L20 14L20 16L22 16L22 14L24 14L24 13L22 13L22 12L21 12L21 14L20 14L20 13L18 13L18 12ZM3 13L3 14L5 14L5 13ZM6 15L6 16L7 16L7 17L8 17L8 16L7 16L7 15ZM1 16L1 17L2 17L2 16ZM27 17L27 18L28 18L28 17ZM22 18L22 19L23 19L23 18ZM14 19L14 20L15 20L15 19ZM21 21L21 24L24 24L24 21ZM22 22L22 23L23 23L23 22ZM14 23L14 24L15 24L15 23ZM11 26L11 28L10 28L10 29L12 29L12 27L13 27L13 26ZM17 28L17 29L18 29L18 28ZM23 28L23 29L24 29L24 28ZM0 0L0 7L7 7L7 0ZM1 1L1 6L6 6L6 1ZM2 2L2 5L5 5L5 2ZM22 0L22 7L29 7L29 0ZM23 1L23 6L28 6L28 1ZM24 2L24 5L27 5L27 2ZM0 22L0 29L7 29L7 22ZM1 23L1 28L6 28L6 23ZM2 24L2 27L5 27L5 24Z" fill="#282828"/></g></g></svg>
