<?xml version="1.0" encoding="UTF-8"?>
<svg xmlns="http://www.w3.org/2000/svg" version="1.1" width="90" height="90" viewBox="0 0 90 90"><rect x="0" y="0" width="90" height="90" fill="#ffffff"/><g transform="scale(3.333)"><g transform="translate(1,1)"><path fill-rule="evenodd" d="M9 0L9 1L8 1L8 2L9 2L9 3L8 3L8 4L10 4L10 7L11 7L11 4L12 4L12 5L13 5L13 6L12 6L12 9L14 9L14 10L15 10L15 11L16 11L16 12L17 12L17 13L15 13L15 12L13 12L13 13L12 13L12 11L13 11L13 10L11 10L11 11L10 11L10 9L11 9L11 8L6 8L6 9L5 9L5 8L0 8L0 11L1 11L1 12L0 12L0 17L1 17L1 12L2 12L2 10L5 10L5 12L6 12L6 13L7 13L7 14L6 14L6 15L5 15L5 13L3 13L3 14L2 14L2 15L3 15L3 16L2 16L2 17L4 17L4 15L5 15L5 16L6 16L6 17L7 17L7 16L8 16L8 15L9 15L9 14L10 14L10 15L11 15L11 13L12 13L12 14L13 14L13 13L15 13L15 15L14 15L14 16L13 16L13 15L12 15L12 17L14 17L14 18L9 18L9 17L8 17L8 19L10 19L10 21L12 21L12 23L11 23L11 22L10 22L10 25L11 25L11 24L13 24L13 25L14 25L14 24L15 24L15 25L16 25L16 24L17 24L17 25L19 25L19 24L17 24L17 23L16 23L16 21L17 21L17 22L18 22L18 23L20 23L20 22L19 22L19 21L21 21L21 25L25 25L25 21L23 21L23 20L22 20L22 21L21 21L21 19L22 19L22 18L21 18L21 17L22 17L22 16L21 16L21 14L20 14L20 13L19 13L19 12L21 12L21 11L23 11L23 12L24 12L24 13L22 13L22 15L23 15L23 14L24 14L24 15L25 15L25 14L24 14L24 13L25 13L25 10L24 10L24 8L23 8L23 10L22 10L22 8L21 8L21 10L20 10L20 8L19 8L19 9L18 9L18 8L17 8L17 6L16 6L16 5L17 5L17 4L15 4L15 2L16 2L16 1L17 1L17 0L15 0L15 1L14 1L14 0L13 0L13 1L11 1L11 2L10 2L10 0ZM12 2L12 4L14 4L14 2ZM10 3L10 4L11 4L11 3ZM8 5L8 7L9 7L9 5ZM13 6L13 8L14 8L14 6ZM15 6L15 7L16 7L16 6ZM16 8L16 9L17 9L17 8ZM6 9L6 10L7 10L7 11L6 11L6 12L7 12L7 11L8 11L8 14L9 14L9 10L8 10L8 9ZM17 10L17 11L18 11L18 12L19 12L19 11L18 11L18 10ZM23 10L23 11L24 11L24 10ZM10 12L10 13L11 13L11 12ZM17 14L17 15L15 15L15 16L14 16L14 17L16 17L16 16L17 16L17 15L18 15L18 16L20 16L20 15L18 15L18 14ZM6 15L6 16L7 16L7 15ZM10 16L10 17L11 17L11 16ZM24 16L24 17L23 17L23 18L24 18L24 20L25 20L25 18L24 18L24 17L25 17L25 16ZM17 17L17 20L20 20L20 17ZM14 18L14 19L12 19L12 20L14 20L14 21L13 21L13 24L14 24L14 23L15 23L15 22L14 22L14 21L15 21L15 20L16 20L16 19L15 19L15 18ZM18 18L18 19L19 19L19 18ZM8 20L8 25L9 25L9 20ZM22 21L22 22L23 22L23 23L22 23L22 24L24 24L24 22L23 22L23 21ZM0 0L0 7L7 7L7 0ZM1 1L1 6L6 6L6 1ZM2 2L2 5L5 5L5 2ZM18 0L18 7L25 7L25 0ZM19 1L19 6L24 6L24 1ZM20 2L20 5L23 5L23 2ZM0 18L0 25L7 25L7 18ZM1 19L1 24L6 24L6 19ZM2 20L2 23L5 23L5 20Z" fill="#282828"/></g></g></svg>
