<?xml version="1.0" encoding="UTF-8"?>
<svg xmlns="http://www.w3.org/2000/svg" version="1.1" width="90" height="90" viewBox="0 0 90 90"><rect x="0" y="0" width="90" height="90" fill="#ffffff"/><g transform="scale(2.903)"><g transform="translate(1,1)"><path fill-rule="evenodd" d="M9 0L9 1L8 1L8 2L9 2L9 3L8 3L8 4L10 4L10 7L11 7L11 4L12 4L12 5L13 5L13 6L12 6L12 9L13 9L13 8L14 8L14 9L18 9L18 11L19 11L19 13L20 13L20 14L21 14L21 16L22 16L22 14L23 14L23 16L25 16L25 17L23 17L23 20L21 20L21 19L22 19L22 17L21 17L21 18L20 18L20 17L18 17L18 16L19 16L19 15L18 15L18 16L14 16L14 15L16 15L16 14L15 14L15 13L18 13L18 12L16 12L16 11L17 11L17 10L15 10L15 11L14 11L14 12L15 12L15 13L12 13L12 11L13 11L13 10L11 10L11 11L10 11L10 9L11 9L11 8L6 8L6 9L5 9L5 8L0 8L0 14L1 14L1 16L2 16L2 17L3 17L3 18L4 18L4 17L5 17L5 16L6 16L6 17L7 17L7 16L6 16L6 15L8 15L8 14L6 14L6 13L7 13L7 12L5 12L5 11L4 11L4 12L5 12L5 13L4 13L4 14L3 14L3 13L2 13L2 14L1 14L1 12L3 12L3 11L1 11L1 10L2 10L2 9L4 9L4 10L6 10L6 11L7 11L7 10L9 10L9 11L8 11L8 12L9 12L9 14L10 14L10 15L9 15L9 16L10 16L10 17L8 17L8 19L9 19L9 18L11 18L11 19L10 19L10 20L9 20L9 21L8 21L8 20L6 20L6 19L7 19L7 18L6 18L6 19L2 19L2 20L4 20L4 21L8 21L8 23L9 23L9 24L8 24L8 29L9 29L9 28L10 28L10 29L12 29L12 27L13 27L13 26L11 26L11 28L10 28L10 27L9 27L9 24L10 24L10 25L11 25L11 24L10 24L10 23L11 23L11 22L10 22L10 20L11 20L11 21L12 21L12 22L13 22L13 23L12 23L12 25L13 25L13 24L14 24L14 25L16 25L16 26L15 26L15 27L14 27L14 28L15 28L15 27L16 27L16 29L17 29L17 25L18 25L18 27L19 27L19 29L20 29L20 28L21 28L21 29L22 29L22 28L21 28L21 27L23 27L23 29L27 29L27 28L28 28L28 26L29 26L29 25L28 25L28 24L29 24L29 23L28 23L28 22L29 22L29 21L28 21L28 20L29 20L29 19L28 19L28 18L29 18L29 17L28 17L28 16L26 16L26 15L25 15L25 14L26 14L26 13L22 13L22 12L21 12L21 11L19 11L19 10L25 10L25 12L26 12L26 11L27 11L27 12L28 12L28 11L27 11L27 9L28 9L28 8L27 8L27 9L26 9L26 8L25 8L25 9L24 9L24 8L23 8L23 9L22 9L22 8L21 8L21 9L20 9L20 7L21 7L21 0L18 0L18 1L20 1L20 2L19 2L19 3L20 3L20 4L19 4L19 5L20 5L20 7L19 7L19 6L18 6L18 8L17 8L17 6L16 6L16 4L12 4L12 2L13 2L13 1L11 1L11 2L10 2L10 0ZM15 0L15 1L17 1L17 0ZM14 2L14 3L15 3L15 2ZM16 2L16 3L17 3L17 4L18 4L18 3L17 3L17 2ZM10 3L10 4L11 4L11 3ZM8 5L8 7L9 7L9 5ZM13 6L13 7L14 7L14 8L15 8L15 7L16 7L16 6L15 6L15 7L14 7L14 6ZM18 8L18 9L19 9L19 8ZM6 9L6 10L7 10L7 9ZM23 11L23 12L24 12L24 11ZM10 12L10 13L11 13L11 15L10 15L10 16L11 16L11 18L13 18L13 19L12 19L12 21L15 21L15 22L16 22L16 24L18 24L18 25L19 25L19 27L20 27L20 24L18 24L18 23L17 23L17 22L18 22L18 21L19 21L19 22L20 22L20 18L18 18L18 17L14 17L14 16L13 16L13 17L12 17L12 15L13 15L13 14L12 14L12 13L11 13L11 12ZM20 12L20 13L21 13L21 12ZM28 13L28 14L27 14L27 15L28 15L28 14L29 14L29 13ZM2 14L2 16L5 16L5 14L4 14L4 15L3 15L3 14ZM0 17L0 21L1 21L1 17ZM25 17L25 18L24 18L24 19L25 19L25 23L26 23L26 24L25 24L25 25L21 25L21 26L25 26L25 25L26 25L26 28L27 28L27 24L28 24L28 23L27 23L27 22L28 22L28 21L26 21L26 20L27 20L27 19L26 19L26 18L28 18L28 17ZM15 18L15 19L14 19L14 20L15 20L15 21L16 21L16 22L17 22L17 21L18 21L18 20L17 20L17 21L16 21L16 19L17 19L17 18ZM21 21L21 24L24 24L24 21ZM22 22L22 23L23 23L23 22ZM14 23L14 24L15 24L15 23ZM0 0L0 7L7 7L7 0ZM1 1L1 6L6 6L6 1ZM2 2L2 5L5 5L5 2ZM22 0L22 7L29 7L29 0ZM23 1L23 6L28 6L28 1ZM24 2L24 5L27 5L27 2ZM0 22L0 29L7 29L7 22ZM1 23L1 28L6 28L6 23ZM2 24L2 27L5 27L5 24Z" fill="#282828"/></g></g></svg>
