<?xml version="1.0" encoding="UTF-8"?>
<svg xmlns="http://www.w3.org/2000/svg" version="1.1" width="90" height="90" viewBox="0 0 90 90"><rect x="0" y="0" width="90" height="90" fill="#ffffff"/><g transform="scale(2.903)"><g transform="translate(1,1)"><path fill-rule="evenodd" d="M8 0L8 2L10 2L10 4L8 4L8 9L9 9L9 10L8 10L8 11L7 11L7 10L6 10L6 9L7 9L7 8L5 8L5 9L4 9L4 12L3 12L3 14L4 14L4 12L5 12L5 13L7 13L7 14L6 14L6 15L7 15L7 16L5 16L5 15L2 15L2 13L1 13L1 15L2 15L2 17L1 17L1 18L0 18L0 19L2 19L2 17L3 17L3 19L4 19L4 18L5 18L5 20L4 20L4 21L5 21L5 20L6 20L6 21L8 21L8 22L9 22L9 23L8 23L8 24L9 24L9 25L10 25L10 26L11 26L11 27L10 27L10 28L11 28L11 29L14 29L14 27L13 27L13 28L11 28L11 27L12 27L12 26L11 26L11 25L10 25L10 23L11 23L11 24L13 24L13 26L14 26L14 25L16 25L16 26L15 26L15 27L16 27L16 28L15 28L15 29L16 29L16 28L17 28L17 29L18 29L18 28L17 28L17 27L20 27L20 29L22 29L22 28L21 28L21 27L20 27L20 25L21 25L21 26L22 26L22 25L23 25L23 26L24 26L24 27L23 27L23 29L26 29L26 27L29 27L29 25L28 25L28 24L29 24L29 16L28 16L28 15L29 15L29 12L28 12L28 11L29 11L29 10L28 10L28 9L29 9L29 8L27 8L27 9L25 9L25 8L19 8L19 5L20 5L20 2L19 2L19 1L20 1L20 0L17 0L17 1L16 1L16 0L15 0L15 1L13 1L13 0L11 0L11 1L9 1L9 0ZM11 1L11 2L12 2L12 1ZM15 1L15 2L14 2L14 3L15 3L15 4L14 4L14 5L13 5L13 3L11 3L11 4L12 4L12 6L11 6L11 5L9 5L9 8L10 8L10 6L11 6L11 7L12 7L12 6L13 6L13 8L11 8L11 10L9 10L9 11L8 11L8 12L9 12L9 11L10 11L10 13L8 13L8 15L9 15L9 16L7 16L7 17L5 17L5 18L7 18L7 17L8 17L8 19L9 19L9 17L10 17L10 20L9 20L9 22L11 22L11 23L12 23L12 21L10 21L10 20L13 20L13 22L14 22L14 23L13 23L13 24L14 24L14 23L15 23L15 24L17 24L17 26L19 26L19 25L18 25L18 23L20 23L20 22L19 22L19 16L18 16L18 15L19 15L19 12L21 12L21 14L20 14L20 17L21 17L21 18L20 18L20 20L21 20L21 18L22 18L22 16L23 16L23 13L22 13L22 12L23 12L23 11L24 11L24 14L25 14L25 11L26 11L26 12L27 12L27 13L26 13L26 14L27 14L27 13L28 13L28 12L27 12L27 11L28 11L28 10L25 10L25 9L23 9L23 11L21 11L21 10L22 10L22 9L20 9L20 11L19 11L19 12L18 12L18 10L19 10L19 8L18 8L18 5L19 5L19 4L18 4L18 3L19 3L19 2L18 2L18 1L17 1L17 2L18 2L18 3L15 3L15 2L16 2L16 1ZM15 4L15 5L16 5L16 8L15 8L15 9L16 9L16 10L13 10L13 11L14 11L14 15L15 15L15 16L14 16L14 18L13 18L13 19L14 19L14 22L15 22L15 23L16 23L16 22L17 22L17 21L18 21L18 20L17 20L17 19L16 19L16 18L18 18L18 16L17 16L17 15L18 15L18 14L17 14L17 13L18 13L18 12L17 12L17 11L16 11L16 10L18 10L18 8L17 8L17 5L18 5L18 4L17 4L17 5L16 5L16 4ZM14 6L14 7L15 7L15 6ZM20 6L20 7L21 7L21 6ZM0 8L0 9L3 9L3 8ZM16 8L16 9L17 9L17 8ZM2 10L2 11L0 11L0 12L2 12L2 11L3 11L3 10ZM11 10L11 11L12 11L12 10ZM24 10L24 11L25 11L25 10ZM6 11L6 12L7 12L7 11ZM11 12L11 13L12 13L12 15L11 15L11 14L10 14L10 16L13 16L13 12ZM15 12L15 14L16 14L16 15L17 15L17 14L16 14L16 12ZM26 15L26 16L24 16L24 18L23 18L23 19L22 19L22 20L23 20L23 19L24 19L24 20L26 20L26 21L25 21L25 22L27 22L27 20L28 20L28 19L27 19L27 15ZM3 16L3 17L4 17L4 16ZM15 17L15 18L16 18L16 17ZM11 18L11 19L12 19L12 18ZM24 18L24 19L26 19L26 18ZM6 19L6 20L7 20L7 19ZM15 19L15 22L16 22L16 19ZM0 20L0 21L3 21L3 20ZM21 21L21 24L24 24L24 21ZM22 22L22 23L23 23L23 22ZM26 23L26 24L25 24L25 26L28 26L28 25L26 25L26 24L28 24L28 23ZM8 26L8 29L9 29L9 26ZM24 27L24 28L25 28L25 27ZM28 28L28 29L29 29L29 28ZM0 0L0 7L7 7L7 0ZM1 1L1 6L6 6L6 1ZM2 2L2 5L5 5L5 2ZM22 0L22 7L29 7L29 0ZM23 1L23 6L28 6L28 1ZM24 2L24 5L27 5L27 2ZM0 22L0 29L7 29L7 22ZM1 23L1 28L6 28L6 23ZM2 24L2 27L5 27L5 24Z" fill="#282828"/></g></g></svg>
