<?xml version="1.0" encoding="UTF-8"?>
<svg xmlns="http://www.w3.org/2000/svg" version="1.1" width="90" height="90" viewBox="0 0 90 90"><rect x="0" y="0" width="90" height="90" fill="#ffffff"/><g transform="scale(2.903)"><g transform="translate(1,1)"><path fill-rule="evenodd" d="M8 0L8 4L10 4L10 3L11 3L11 4L12 4L12 2L11 2L11 0ZM12 0L12 1L13 1L13 2L14 2L14 3L13 3L13 5L11 5L11 6L10 6L10 7L9 7L9 5L8 5L8 7L9 7L9 8L10 8L10 7L11 7L11 6L12 6L12 8L11 8L11 9L8 9L8 10L6 10L6 9L7 9L7 8L4 8L4 9L5 9L5 10L3 10L3 9L2 9L2 8L0 8L0 10L1 10L1 11L2 11L2 10L3 10L3 11L8 11L8 13L7 13L7 12L6 12L6 13L7 13L7 14L6 14L6 15L7 15L7 16L5 16L5 15L4 15L4 16L3 16L3 18L2 18L2 17L0 17L0 18L2 18L2 19L5 19L5 21L8 21L8 22L9 22L9 23L8 23L8 25L10 25L10 27L8 27L8 29L11 29L11 28L12 28L12 29L14 29L14 27L16 27L16 29L18 29L18 28L19 28L19 27L18 27L18 26L19 26L19 25L20 25L20 29L21 29L21 28L22 28L22 29L23 29L23 27L21 27L21 26L22 26L22 25L23 25L23 26L24 26L24 25L25 25L25 26L27 26L27 29L28 29L28 28L29 28L29 21L26 21L26 20L23 20L23 18L26 18L26 19L27 19L27 20L28 20L28 19L29 19L29 17L22 17L22 16L23 16L23 15L24 15L24 16L26 16L26 15L24 15L24 14L25 14L25 13L26 13L26 14L27 14L27 15L28 15L28 16L29 16L29 13L28 13L28 12L29 12L29 10L28 10L28 9L29 9L29 8L25 8L25 9L24 9L24 8L23 8L23 9L22 9L22 10L21 10L21 8L19 8L19 6L20 6L20 7L21 7L21 5L20 5L20 4L21 4L21 3L20 3L20 4L19 4L19 2L21 2L21 1L19 1L19 0L18 0L18 2L15 2L15 1L17 1L17 0ZM9 2L9 3L10 3L10 2ZM14 3L14 5L13 5L13 8L12 8L12 9L11 9L11 10L8 10L8 11L9 11L9 14L11 14L11 15L9 15L9 17L4 17L4 18L5 18L5 19L6 19L6 20L10 20L10 18L12 18L12 17L13 17L13 18L14 18L14 17L13 17L13 16L14 16L14 14L15 14L15 13L17 13L17 14L16 14L16 15L15 15L15 17L16 17L16 15L17 15L17 14L18 14L18 13L19 13L19 15L20 15L20 17L19 17L19 18L18 18L18 17L17 17L17 18L16 18L16 19L14 19L14 21L16 21L16 19L17 19L17 18L18 18L18 20L17 20L17 21L19 21L19 22L20 22L20 21L19 21L19 19L20 19L20 20L22 20L22 19L20 19L20 18L22 18L22 17L21 17L21 15L23 15L23 13L25 13L25 10L27 10L27 11L26 11L26 12L28 12L28 10L27 10L27 9L25 9L25 10L24 10L24 9L23 9L23 12L22 12L22 13L19 13L19 12L21 12L21 11L20 11L20 9L19 9L19 8L18 8L18 9L19 9L19 11L18 11L18 13L17 13L17 12L15 12L15 13L14 13L14 11L15 11L15 10L16 10L16 11L17 11L17 10L16 10L16 9L14 9L14 8L17 8L17 7L18 7L18 6L19 6L19 4L18 4L18 3L16 3L16 4L17 4L17 7L16 7L16 5L15 5L15 3ZM14 5L14 7L15 7L15 5ZM1 9L1 10L2 10L2 9ZM12 9L12 10L11 10L11 11L10 11L10 13L11 13L11 12L12 12L12 13L13 13L13 14L14 14L14 13L13 13L13 12L12 12L12 11L13 11L13 10L14 10L14 9ZM1 12L1 13L0 13L0 14L1 14L1 16L2 16L2 14L1 14L1 13L2 13L2 12ZM7 14L7 15L8 15L8 14ZM20 14L20 15L21 15L21 14ZM12 15L12 16L11 16L11 17L12 17L12 16L13 16L13 15ZM9 17L9 18L6 18L6 19L9 19L9 18L10 18L10 17ZM12 19L12 20L11 20L11 21L10 21L10 22L11 22L11 23L10 23L10 25L11 25L11 26L12 26L12 25L13 25L13 26L15 26L15 25L13 25L13 24L14 24L14 23L15 23L15 22L13 22L13 21L12 21L12 20L13 20L13 19ZM0 20L0 21L2 21L2 20ZM3 20L3 21L4 21L4 20ZM21 21L21 24L24 24L24 21ZM16 22L16 23L17 23L17 22ZM22 22L22 23L23 23L23 22ZM25 22L25 23L26 23L26 24L25 24L25 25L26 25L26 24L27 24L27 26L28 26L28 24L27 24L27 22ZM12 23L12 24L11 24L11 25L12 25L12 24L13 24L13 23ZM18 23L18 25L17 25L17 24L16 24L16 25L17 25L17 26L18 26L18 25L19 25L19 23ZM10 27L10 28L11 28L11 27ZM12 27L12 28L13 28L13 27ZM25 27L25 28L24 28L24 29L26 29L26 27ZM0 0L0 7L7 7L7 0ZM1 1L1 6L6 6L6 1ZM2 2L2 5L5 5L5 2ZM22 0L22 7L29 7L29 0ZM23 1L23 6L28 6L28 1ZM24 2L24 5L27 5L27 2ZM0 22L0 29L7 29L7 22ZM1 23L1 28L6 28L6 23ZM2 24L2 27L5 27L5 24Z" fill="#282828"/></g></g></svg>
