<?xml version="1.0" encoding="UTF-8"?>
<svg xmlns="http://www.w3.org/2000/svg" version="1.1" width="90" height="90" viewBox="0 0 90 90"><rect x="0" y="0" width="90" height="90" fill="#ffffff"/><g transform="scale(2.903)"><g transform="translate(1,1)"><path fill-rule="evenodd" d="M9 0L9 1L10 1L10 2L8 2L8 3L9 3L9 4L10 4L10 5L9 5L9 6L8 6L8 8L4 8L4 9L3 9L3 8L0 8L0 9L1 9L1 10L0 10L0 11L1 11L1 12L0 12L0 15L1 15L1 16L0 16L0 17L1 17L1 16L2 16L2 15L1 15L1 14L2 14L2 13L3 13L3 14L5 14L5 15L3 15L3 16L5 16L5 17L3 17L3 18L2 18L2 19L1 19L1 18L0 18L0 19L1 19L1 20L0 20L0 21L1 21L1 20L2 20L2 19L3 19L3 21L4 21L4 20L6 20L6 21L8 21L8 25L9 25L9 26L8 26L8 29L10 29L10 28L9 28L9 26L10 26L10 27L11 27L11 26L10 26L10 24L12 24L12 23L10 23L10 22L9 22L9 21L10 21L10 20L9 20L9 18L10 18L10 19L11 19L11 18L12 18L12 20L13 20L13 22L14 22L14 23L13 23L13 26L12 26L12 27L13 27L13 29L15 29L15 26L14 26L14 23L15 23L15 24L16 24L16 25L17 25L17 24L19 24L19 23L18 23L18 22L17 22L17 20L18 20L18 19L19 19L19 17L20 17L20 19L21 19L21 20L19 20L19 22L20 22L20 25L19 25L19 26L20 26L20 27L19 27L19 28L20 28L20 29L23 29L23 28L24 28L24 29L25 29L25 28L26 28L26 27L27 27L27 29L29 29L29 28L28 28L28 27L29 27L29 25L28 25L28 24L29 24L29 16L28 16L28 19L27 19L27 17L26 17L26 19L27 19L27 20L28 20L28 23L27 23L27 21L26 21L26 23L27 23L27 26L24 26L24 25L25 25L25 18L24 18L24 20L23 20L23 19L22 19L22 18L23 18L23 16L25 16L25 15L27 15L27 13L28 13L28 15L29 15L29 10L27 10L27 8L26 8L26 10L24 10L24 12L25 12L25 11L26 11L26 10L27 10L27 12L26 12L26 14L23 14L23 12L21 12L21 13L20 13L20 11L19 11L19 10L17 10L17 8L19 8L19 6L20 6L20 7L21 7L21 5L20 5L20 3L19 3L19 2L21 2L21 0L18 0L18 1L17 1L17 2L16 2L16 1L15 1L15 0L12 0L12 1L10 1L10 0ZM13 1L13 3L12 3L12 2L11 2L11 3L12 3L12 4L11 4L11 5L10 5L10 6L9 6L9 7L10 7L10 6L11 6L11 8L12 8L12 10L10 10L10 8L9 8L9 10L10 10L10 11L9 11L9 12L8 12L8 13L5 13L5 12L4 12L4 11L6 11L6 12L7 12L7 11L8 11L8 9L5 9L5 10L4 10L4 11L3 11L3 12L4 12L4 13L5 13L5 14L8 14L8 13L10 13L10 14L9 14L9 15L10 15L10 16L8 16L8 18L9 18L9 17L11 17L11 16L12 16L12 15L11 15L11 13L12 13L12 12L13 12L13 13L14 13L14 15L16 15L16 14L15 14L15 12L17 12L17 13L18 13L18 14L17 14L17 15L18 15L18 14L19 14L19 16L17 16L17 18L14 18L14 17L16 17L16 16L13 16L13 17L12 17L12 18L14 18L14 19L16 19L16 20L14 20L14 21L16 21L16 20L17 20L17 18L18 18L18 17L19 17L19 16L20 16L20 15L21 15L21 16L23 16L23 15L22 15L22 14L20 14L20 13L19 13L19 12L17 12L17 11L16 11L16 10L15 10L15 9L16 9L16 8L17 8L17 7L18 7L18 6L19 6L19 5L18 5L18 4L17 4L17 3L18 3L18 2L19 2L19 1L18 1L18 2L17 2L17 3L16 3L16 2L14 2L14 1ZM13 3L13 4L15 4L15 3ZM13 5L13 6L12 6L12 8L16 8L16 7L17 7L17 6L18 6L18 5ZM13 6L13 7L14 7L14 6ZM15 6L15 7L16 7L16 6ZM20 8L20 10L23 10L23 8ZM2 9L2 10L3 10L3 9ZM6 10L6 11L7 11L7 10ZM13 10L13 12L14 12L14 10ZM11 11L11 12L12 12L12 11ZM1 12L1 13L2 13L2 12ZM5 15L5 16L7 16L7 15ZM6 17L6 18L4 18L4 19L6 19L6 20L8 20L8 21L9 21L9 20L8 20L8 19L6 19L6 18L7 18L7 17ZM21 21L21 24L24 24L24 21ZM15 22L15 23L16 23L16 24L17 24L17 23L16 23L16 22ZM22 22L22 23L23 23L23 22ZM20 25L20 26L21 26L21 28L23 28L23 25ZM13 26L13 27L14 27L14 26ZM17 26L17 27L16 27L16 29L17 29L17 28L18 28L18 26ZM27 26L27 27L28 27L28 26ZM24 27L24 28L25 28L25 27ZM0 0L0 7L7 7L7 0ZM1 1L1 6L6 6L6 1ZM2 2L2 5L5 5L5 2ZM22 0L22 7L29 7L29 0ZM23 1L23 6L28 6L28 1ZM24 2L24 5L27 5L27 2ZM0 22L0 29L7 29L7 22ZM1 23L1 28L6 28L6 23ZM2 24L2 27L5 27L5 24Z" fill="#282828"/></g></g></svg>
