<?xml version="1.0" encoding="UTF-8"?>
<svg xmlns="http://www.w3.org/2000/svg" version="1.1" width="90" height="90" viewBox="0 0 90 90"><rect x="0" y="0" width="90" height="90" fill="#ffffff"/><g transform="scale(2.903)"><g transform="translate(1,1)"><path fill-rule="evenodd" d="M9 0L9 1L8 1L8 2L9 2L9 3L8 3L8 4L10 4L10 7L11 7L11 4L12 4L12 5L13 5L13 4L14 4L14 5L15 5L15 6L14 6L14 8L13 8L13 6L12 6L12 9L13 9L13 10L11 10L11 11L10 11L10 9L11 9L11 8L6 8L6 9L5 9L5 8L0 8L0 11L3 11L3 10L5 10L5 11L7 11L7 12L6 12L6 13L7 13L7 12L8 12L8 10L6 10L6 9L9 9L9 14L10 14L10 16L9 16L9 15L8 15L8 16L6 16L6 15L7 15L7 14L5 14L5 13L4 13L4 12L1 12L1 14L4 14L4 15L5 15L5 16L4 16L4 17L3 17L3 18L5 18L5 19L7 19L7 18L5 18L5 17L9 17L9 18L8 18L8 19L9 19L9 18L11 18L11 20L10 20L10 21L9 21L9 20L4 20L4 19L2 19L2 21L3 21L3 20L4 20L4 21L8 21L8 23L10 23L10 24L8 24L8 29L12 29L12 27L13 27L13 26L11 26L11 28L9 28L9 26L10 26L10 24L11 24L11 23L10 23L10 21L12 21L12 22L13 22L13 23L12 23L12 25L13 25L13 24L14 24L14 25L15 25L15 27L14 27L14 28L15 28L15 29L16 29L16 27L17 27L17 23L16 23L16 22L17 22L17 21L18 21L18 24L20 24L20 26L21 26L21 27L18 27L18 28L19 28L19 29L20 29L20 28L21 28L21 27L22 27L22 29L23 29L23 27L25 27L25 28L24 28L24 29L27 29L27 28L28 28L28 26L29 26L29 25L27 25L27 28L26 28L26 27L25 27L25 26L21 26L21 25L26 25L26 23L25 23L25 20L21 20L21 18L22 18L22 19L25 19L25 18L26 18L26 19L27 19L27 20L26 20L26 21L28 21L28 22L27 22L27 23L28 23L28 24L29 24L29 23L28 23L28 22L29 22L29 21L28 21L28 20L29 20L29 19L28 19L28 18L29 18L29 17L28 17L28 16L26 16L26 17L23 17L23 18L22 18L22 17L20 17L20 16L22 16L22 14L25 14L25 15L26 15L26 14L27 14L27 15L28 15L28 14L29 14L29 12L28 12L28 11L27 11L27 9L28 9L28 8L27 8L27 9L26 9L26 8L25 8L25 9L24 9L24 8L23 8L23 9L22 9L22 8L21 8L21 6L20 6L20 10L23 10L23 11L24 11L24 12L26 12L26 11L27 11L27 13L22 13L22 12L21 12L21 15L20 15L20 16L19 16L19 15L18 15L18 16L19 16L19 17L18 17L18 19L19 19L19 18L20 18L20 22L19 22L19 20L17 20L17 11L18 11L18 12L19 12L19 11L18 11L18 10L19 10L19 9L17 9L17 8L16 8L16 7L17 7L17 6L16 6L16 5L18 5L18 7L19 7L19 4L16 4L16 2L17 2L17 1L18 1L18 3L20 3L20 2L21 2L21 0L20 0L20 2L19 2L19 0L17 0L17 1L15 1L15 0L14 0L14 1L11 1L11 2L10 2L10 0ZM14 1L14 2L12 2L12 4L13 4L13 3L14 3L14 4L15 4L15 5L16 5L16 4L15 4L15 1ZM10 3L10 4L11 4L11 3ZM20 4L20 5L21 5L21 4ZM8 5L8 7L9 7L9 5ZM15 6L15 7L16 7L16 6ZM14 8L14 9L15 9L15 10L13 10L13 11L12 11L12 13L11 13L11 12L10 12L10 13L11 13L11 16L10 16L10 17L11 17L11 18L13 18L13 19L12 19L12 21L17 21L17 20L16 20L16 19L15 19L15 17L14 17L14 16L15 16L15 15L14 15L14 16L13 16L13 17L12 17L12 15L13 15L13 14L12 14L12 13L14 13L14 14L15 14L15 13L16 13L16 11L15 11L15 10L16 10L16 9L15 9L15 8ZM24 10L24 11L25 11L25 10ZM18 13L18 14L20 14L20 13ZM27 13L27 14L28 14L28 13ZM0 15L0 16L2 16L2 15ZM23 15L23 16L24 16L24 15ZM0 17L0 21L1 21L1 18L2 18L2 17ZM27 17L27 18L28 18L28 17ZM14 19L14 20L15 20L15 19ZM21 21L21 24L24 24L24 21ZM22 22L22 23L23 23L23 22ZM14 23L14 24L15 24L15 23ZM0 0L0 7L7 7L7 0ZM1 1L1 6L6 6L6 1ZM2 2L2 5L5 5L5 2ZM22 0L22 7L29 7L29 0ZM23 1L23 6L28 6L28 1ZM24 2L24 5L27 5L27 2ZM0 22L0 29L7 29L7 22ZM1 23L1 28L6 28L6 23ZM2 24L2 27L5 27L5 24Z" fill="#282828"/></g></g></svg>
