<?xml version="1.0" encoding="UTF-8"?>
<svg xmlns="http://www.w3.org/2000/svg" version="1.1" width="90" height="90" viewBox="0 0 90 90"><rect x="0" y="0" width="90" height="90" fill="#ffffff"/><g transform="scale(3.333)"><g transform="translate(1,1)"><path fill-rule="evenodd" d="M10 0L10 1L8 1L8 3L9 3L9 4L8 4L8 8L6 8L6 9L8 9L8 12L6 12L6 11L7 11L7 10L3 10L3 9L4 9L4 8L3 8L3 9L2 9L2 8L0 8L0 13L1 13L1 12L2 12L2 13L3 13L3 14L4 14L4 15L5 15L5 17L7 17L7 16L6 16L6 15L7 15L7 14L8 14L8 19L9 19L9 21L8 21L8 22L9 22L9 21L12 21L12 19L11 19L11 20L10 20L10 18L9 18L9 16L10 16L10 17L11 17L11 18L12 18L12 13L13 13L13 16L16 16L16 17L15 17L15 18L14 18L14 17L13 17L13 18L14 18L14 19L16 19L16 22L14 22L14 21L15 21L15 20L13 20L13 22L12 22L12 23L11 23L11 22L10 22L10 23L8 23L8 25L11 25L11 24L12 24L12 23L13 23L13 25L17 25L17 23L16 23L16 22L20 22L20 23L18 23L18 25L19 25L19 24L20 24L20 25L21 25L21 24L22 24L22 23L23 23L23 22L22 22L22 20L23 20L23 21L24 21L24 20L25 20L25 12L24 12L24 11L25 11L25 9L24 9L24 8L22 8L22 9L21 9L21 8L18 8L18 9L17 9L17 4L15 4L15 2L16 2L16 3L17 3L17 1L16 1L16 0L14 0L14 1L15 1L15 2L14 2L14 4L15 4L15 5L13 5L13 3L12 3L12 7L11 7L11 4L10 4L10 3L9 3L9 2L11 2L11 0ZM9 5L9 8L8 8L8 9L10 9L10 10L9 10L9 11L11 11L11 8L10 8L10 5ZM13 6L13 7L12 7L12 8L14 8L14 6ZM15 6L15 9L14 9L14 10L15 10L15 11L14 11L14 12L13 12L13 13L15 13L15 15L17 15L17 16L18 16L18 15L17 15L17 14L16 14L16 12L18 12L18 14L19 14L19 16L20 16L20 14L22 14L22 15L21 15L21 20L22 20L22 18L23 18L23 19L24 19L24 18L23 18L23 17L24 17L24 16L23 16L23 14L24 14L24 12L23 12L23 11L24 11L24 9L23 9L23 10L22 10L22 11L21 11L21 12L19 12L19 11L20 11L20 10L21 10L21 9L19 9L19 11L17 11L17 10L15 10L15 9L16 9L16 6ZM1 9L1 10L2 10L2 12L3 12L3 10L2 10L2 9ZM4 11L4 13L5 13L5 11ZM15 11L15 12L16 12L16 11ZM8 12L8 13L10 13L10 14L9 14L9 15L10 15L10 16L11 16L11 15L10 15L10 14L11 14L11 13L10 13L10 12ZM21 12L21 13L23 13L23 12ZM6 13L6 14L7 14L7 13ZM19 13L19 14L20 14L20 13ZM0 14L0 15L1 15L1 16L0 16L0 17L2 17L2 15L1 15L1 14ZM3 16L3 17L4 17L4 16ZM17 17L17 20L20 20L20 17ZM18 18L18 19L19 19L19 18ZM20 21L20 22L21 22L21 23L22 23L22 22L21 22L21 21ZM24 22L24 23L25 23L25 22ZM10 23L10 24L11 24L11 23ZM14 23L14 24L15 24L15 23ZM23 24L23 25L25 25L25 24ZM0 0L0 7L7 7L7 0ZM1 1L1 6L6 6L6 1ZM2 2L2 5L5 5L5 2ZM18 0L18 7L25 7L25 0ZM19 1L19 6L24 6L24 1ZM20 2L20 5L23 5L23 2ZM0 18L0 25L7 25L7 18ZM1 19L1 24L6 24L6 19ZM2 20L2 23L5 23L5 20Z" fill="#282828"/></g></g></svg>
