<?xml version="1.0" encoding="UTF-8"?>
<svg xmlns="http://www.w3.org/2000/svg" version="1.1" width="90" height="90" viewBox="0 0 90 90"><rect x="0" y="0" width="90" height="90" fill="#ffffff"/><g transform="scale(2.903)"><g transform="translate(1,1)"><path fill-rule="evenodd" d="M8 0L8 4L9 4L9 5L8 5L8 7L9 7L9 6L10 6L10 9L11 9L11 8L12 8L12 9L13 9L13 10L14 10L14 9L16 9L16 10L15 10L15 11L14 11L14 12L13 12L13 11L12 11L12 12L11 12L11 13L10 13L10 14L8 14L8 15L9 15L9 17L7 17L7 16L5 16L5 15L3 15L3 16L5 16L5 17L2 17L2 15L1 15L1 14L0 14L0 15L1 15L1 17L0 17L0 18L1 18L1 17L2 17L2 18L3 18L3 19L2 19L2 20L0 20L0 21L5 21L5 20L4 20L4 18L5 18L5 19L7 19L7 20L6 20L6 21L7 21L7 20L8 20L8 22L9 22L9 23L8 23L8 25L9 25L9 26L10 26L10 27L8 27L8 29L9 29L9 28L10 28L10 27L11 27L11 26L10 26L10 23L11 23L11 24L12 24L12 25L13 25L13 26L15 26L15 27L14 27L14 28L13 28L13 27L12 27L12 28L11 28L11 29L12 29L12 28L13 28L13 29L16 29L16 26L18 26L18 27L17 27L17 28L18 28L18 27L19 27L19 25L20 25L20 26L21 26L21 28L20 28L20 29L21 29L21 28L23 28L23 27L22 27L22 26L21 26L21 25L23 25L23 26L25 26L25 29L28 29L28 28L29 28L29 25L28 25L28 24L26 24L26 23L25 23L25 22L27 22L27 23L29 23L29 21L26 21L26 20L24 20L24 19L26 19L26 18L27 18L27 20L28 20L28 19L29 19L29 17L26 17L26 14L25 14L25 13L26 13L26 10L25 10L25 9L29 9L29 8L25 8L25 9L24 9L24 8L23 8L23 10L25 10L25 11L21 11L21 10L20 10L20 9L21 9L21 5L20 5L20 4L19 4L19 3L21 3L21 1L20 1L20 0L18 0L18 2L15 2L15 1L17 1L17 0L13 0L13 1L11 1L11 2L12 2L12 5L14 5L14 7L15 7L15 5L16 5L16 7L17 7L17 8L14 8L14 9L13 9L13 8L12 8L12 7L13 7L13 6L12 6L12 7L11 7L11 3L10 3L10 2L9 2L9 0ZM13 2L13 3L14 3L14 5L15 5L15 3L14 3L14 2ZM16 3L16 4L17 4L17 5L18 5L18 4L17 4L17 3ZM17 6L17 7L18 7L18 6ZM19 6L19 7L20 7L20 6ZM0 8L0 10L2 10L2 11L1 11L1 13L3 13L3 14L4 14L4 12L3 12L3 11L4 11L4 10L5 10L5 12L6 12L6 13L5 13L5 14L6 14L6 15L7 15L7 14L6 14L6 13L8 13L8 12L10 12L10 11L11 11L11 10L8 10L8 12L6 12L6 11L7 11L7 10L6 10L6 9L7 9L7 8L4 8L4 10L2 10L2 8ZM17 8L17 9L20 9L20 8ZM16 10L16 12L15 12L15 14L16 14L16 16L15 16L15 15L14 15L14 17L15 17L15 18L13 18L13 17L12 17L12 16L13 16L13 15L12 15L12 16L11 16L11 18L10 18L10 17L9 17L9 18L7 18L7 17L5 17L5 18L7 18L7 19L8 19L8 20L9 20L9 18L10 18L10 19L11 19L11 20L12 20L12 21L11 21L11 22L12 22L12 21L13 21L13 22L16 22L16 24L15 24L15 23L14 23L14 25L15 25L15 26L16 26L16 25L19 25L19 24L17 24L17 23L18 23L18 22L16 22L16 21L13 21L13 20L14 20L14 19L15 19L15 20L16 20L16 19L15 19L15 18L16 18L16 17L17 17L17 18L19 18L19 19L18 19L18 20L17 20L17 21L19 21L19 23L20 23L20 21L19 21L19 19L20 19L20 18L21 18L21 20L22 20L22 18L23 18L23 17L24 17L24 16L25 16L25 14L23 14L23 13L24 13L24 12L22 12L22 13L21 13L21 12L20 12L20 10ZM28 10L28 11L29 11L29 10ZM17 11L17 12L16 12L16 14L17 14L17 16L18 16L18 14L20 14L20 15L19 15L19 16L20 16L20 17L19 17L19 18L20 18L20 17L22 17L22 16L23 16L23 15L21 15L21 14L20 14L20 12L19 12L19 11ZM12 12L12 13L11 13L11 14L10 14L10 15L11 15L11 14L12 14L12 13L13 13L13 14L14 14L14 13L13 13L13 12ZM27 12L27 14L28 14L28 16L29 16L29 14L28 14L28 13L29 13L29 12ZM17 13L17 14L18 14L18 13ZM25 17L25 18L26 18L26 17ZM12 19L12 20L13 20L13 19ZM9 21L9 22L10 22L10 21ZM21 21L21 24L24 24L24 21ZM22 22L22 23L23 23L23 22ZM12 23L12 24L13 24L13 23ZM25 25L25 26L26 26L26 28L27 28L27 26L28 26L28 25ZM0 0L0 7L7 7L7 0ZM1 1L1 6L6 6L6 1ZM2 2L2 5L5 5L5 2ZM22 0L22 7L29 7L29 0ZM23 1L23 6L28 6L28 1ZM24 2L24 5L27 5L27 2ZM0 22L0 29L7 29L7 22ZM1 23L1 28L6 28L6 23ZM2 24L2 27L5 27L5 24Z" fill="#282828"/></g></g></svg>
