<?xml version="1.0" encoding="UTF-8"?>
<svg xmlns="http://www.w3.org/2000/svg" version="1.1" width="90" height="90" viewBox="0 0 90 90"><rect x="0" y="0" width="90" height="90" fill="#ffffff"/><g transform="scale(3.333)"><g transform="translate(1,1)"><path fill-rule="evenodd" d="M8 0L8 4L10 4L10 3L11 3L11 5L12 5L12 7L13 7L13 5L14 5L14 7L15 7L15 8L17 8L17 6L16 6L16 7L15 7L15 5L14 5L14 4L15 4L15 3L16 3L16 5L17 5L17 3L16 3L16 2L17 2L17 0L16 0L16 2L15 2L15 0L14 0L14 1L13 1L13 0L12 0L12 1L13 1L13 2L14 2L14 4L13 4L13 3L12 3L12 2L11 2L11 1L10 1L10 0ZM9 2L9 3L10 3L10 2ZM8 5L8 7L9 7L9 8L10 8L10 7L11 7L11 6L10 6L10 7L9 7L9 5ZM0 8L0 9L2 9L2 8ZM4 8L4 9L3 9L3 10L0 10L0 11L1 11L1 12L0 12L0 14L1 14L1 13L2 13L2 15L3 15L3 17L7 17L7 16L5 16L5 15L4 15L4 13L7 13L7 14L6 14L6 15L7 15L7 14L8 14L8 15L9 15L9 16L10 16L10 14L8 14L8 13L9 13L9 12L8 12L8 13L7 13L7 12L4 12L4 11L3 11L3 10L5 10L5 9L7 9L7 10L6 10L6 11L8 11L8 10L11 10L11 11L10 11L10 13L11 13L11 16L12 16L12 13L14 13L14 14L15 14L15 15L14 15L14 16L13 16L13 17L14 17L14 19L16 19L16 21L17 21L17 23L15 23L15 21L14 21L14 20L13 20L13 18L12 18L12 17L8 17L8 18L11 18L11 19L12 19L12 20L10 20L10 19L8 19L8 21L9 21L9 22L10 22L10 23L8 23L8 25L11 25L11 24L12 24L12 25L14 25L14 24L13 24L13 22L10 22L10 21L12 21L12 20L13 20L13 21L14 21L14 23L15 23L15 25L16 25L16 24L17 24L17 25L21 25L21 24L22 24L22 25L25 25L25 24L24 24L24 22L25 22L25 21L24 21L24 20L23 20L23 19L24 19L24 17L25 17L25 15L24 15L24 13L25 13L25 12L24 12L24 13L21 13L21 11L20 11L20 10L25 10L25 8L21 8L21 9L20 9L20 8L19 8L19 9L17 9L17 13L16 13L16 14L15 14L15 13L14 13L14 12L16 12L16 9L14 9L14 8L13 8L13 9L7 9L7 8ZM19 9L19 10L18 10L18 11L19 11L19 12L20 12L20 11L19 11L19 10L20 10L20 9ZM13 10L13 11L12 11L12 12L11 12L11 13L12 13L12 12L14 12L14 10ZM22 11L22 12L23 12L23 11ZM3 12L3 13L4 13L4 12ZM17 13L17 15L16 15L16 16L19 16L19 14L20 14L20 15L21 15L21 17L22 17L22 14L20 14L20 13L19 13L19 14L18 14L18 13ZM0 16L0 17L2 17L2 16ZM14 16L14 17L15 17L15 18L16 18L16 17L15 17L15 16ZM23 16L23 17L24 17L24 16ZM17 17L17 20L20 20L20 17ZM18 18L18 19L19 19L19 18ZM21 18L21 21L22 21L22 22L20 22L20 23L19 23L19 22L18 22L18 23L19 23L19 24L21 24L21 23L22 23L22 22L23 22L23 21L22 21L22 18ZM9 20L9 21L10 21L10 20ZM10 23L10 24L11 24L11 23ZM0 0L0 7L7 7L7 0ZM1 1L1 6L6 6L6 1ZM2 2L2 5L5 5L5 2ZM18 0L18 7L25 7L25 0ZM19 1L19 6L24 6L24 1ZM20 2L20 5L23 5L23 2ZM0 18L0 25L7 25L7 18ZM1 19L1 24L6 24L6 19ZM2 20L2 23L5 23L5 20Z" fill="#282828"/></g></g></svg>
