<?xml version="1.0" encoding="UTF-8"?>
<svg xmlns="http://www.w3.org/2000/svg" version="1.1" width="90" height="90" viewBox="0 0 90 90"><rect x="0" y="0" width="90" height="90" fill="#ffffff"/><g transform="scale(2.903)"><g transform="translate(1,1)"><path fill-rule="evenodd" d="M8 0L8 1L9 1L9 2L8 2L8 5L9 5L9 4L11 4L11 5L10 5L10 10L9 10L9 8L8 8L8 13L7 13L7 12L6 12L6 11L7 11L7 10L3 10L3 9L4 9L4 8L0 8L0 10L1 10L1 11L0 11L0 12L1 12L1 11L2 11L2 12L3 12L3 13L5 13L5 14L4 14L4 15L8 15L8 18L9 18L9 19L11 19L11 20L10 20L10 23L9 23L9 24L11 24L11 26L10 26L10 25L8 25L8 29L9 29L9 28L10 28L10 27L11 27L11 26L12 26L12 25L14 25L14 23L15 23L15 25L16 25L16 26L17 26L17 27L18 27L18 26L19 26L19 27L20 27L20 29L22 29L22 28L21 28L21 27L20 27L20 26L22 26L22 25L23 25L23 27L24 27L24 29L25 29L25 28L26 28L26 27L24 27L24 26L25 26L25 21L27 21L27 19L28 19L28 22L29 22L29 19L28 19L28 17L27 17L27 18L26 18L26 14L28 14L28 15L27 15L27 16L29 16L29 13L28 13L28 12L29 12L29 11L28 11L28 10L27 10L27 8L24 8L24 9L22 9L22 8L21 8L21 9L18 9L18 8L20 8L20 7L21 7L21 6L20 6L20 2L18 2L18 3L17 3L17 4L16 4L16 7L17 7L17 9L15 9L15 6L14 6L14 5L15 5L15 3L16 3L16 2L17 2L17 0L15 0L15 1L14 1L14 2L13 2L13 0L12 0L12 1L11 1L11 0L10 0L10 1L9 1L9 0ZM18 0L18 1L21 1L21 0ZM15 1L15 2L16 2L16 1ZM11 2L11 4L12 4L12 3L13 3L13 4L14 4L14 3L13 3L13 2ZM18 3L18 4L17 4L17 5L18 5L18 6L17 6L17 7L18 7L18 6L19 6L19 7L20 7L20 6L19 6L19 3ZM12 5L12 6L11 6L11 8L12 8L12 6L13 6L13 8L14 8L14 6L13 6L13 5ZM8 6L8 7L9 7L9 6ZM6 8L6 9L7 9L7 8ZM28 8L28 9L29 9L29 8ZM1 9L1 10L2 10L2 9ZM11 9L11 10L12 10L12 9ZM17 9L17 10L18 10L18 11L16 11L16 10L14 10L14 11L15 11L15 13L13 13L13 14L12 14L12 16L10 16L10 15L9 15L9 17L11 17L11 19L12 19L12 20L11 20L11 23L13 23L13 22L14 22L14 21L16 21L16 20L17 20L17 23L16 23L16 22L15 22L15 23L16 23L16 25L19 25L19 26L20 26L20 22L19 22L19 21L20 21L20 16L21 16L21 15L18 15L18 14L19 14L19 12L20 12L20 14L22 14L22 13L23 13L23 15L22 15L22 19L21 19L21 20L22 20L22 19L23 19L23 20L26 20L26 18L25 18L25 17L24 17L24 16L25 16L25 13L27 13L27 12L28 12L28 11L27 11L27 10L26 10L26 11L25 11L25 10L23 10L23 11L21 11L21 12L20 12L20 10L18 10L18 9ZM3 11L3 12L4 12L4 11ZM11 11L11 13L8 13L8 14L11 14L11 13L12 13L12 12L13 12L13 11ZM6 13L6 14L7 14L7 13ZM16 13L16 15L15 15L15 16L16 16L16 15L17 15L17 13ZM1 14L1 15L0 15L0 16L1 16L1 17L2 17L2 16L3 16L3 14ZM13 14L13 15L14 15L14 14ZM6 16L6 17L7 17L7 16ZM12 16L12 17L13 17L13 18L14 18L14 16ZM17 16L17 17L15 17L15 19L17 19L17 20L18 20L18 21L19 21L19 18L18 18L18 19L17 19L17 17L19 17L19 16ZM3 17L3 18L2 18L2 20L1 20L1 21L2 21L2 20L3 20L3 21L4 21L4 19L5 19L5 21L8 21L8 22L9 22L9 21L8 21L8 20L6 20L6 19L7 19L7 18L6 18L6 19L5 19L5 17ZM23 17L23 19L25 19L25 18L24 18L24 17ZM0 18L0 19L1 19L1 18ZM21 21L21 24L24 24L24 21ZM22 22L22 23L23 23L23 22ZM26 22L26 23L27 23L27 22ZM18 23L18 24L19 24L19 23ZM28 23L28 27L27 27L27 29L28 29L28 27L29 27L29 23ZM26 25L26 26L27 26L27 25ZM9 26L9 27L10 27L10 26ZM12 27L12 28L11 28L11 29L15 29L15 28L16 28L16 27L15 27L15 28L13 28L13 27ZM17 28L17 29L19 29L19 28ZM0 0L0 7L7 7L7 0ZM1 1L1 6L6 6L6 1ZM2 2L2 5L5 5L5 2ZM22 0L22 7L29 7L29 0ZM23 1L23 6L28 6L28 1ZM24 2L24 5L27 5L27 2ZM0 22L0 29L7 29L7 22ZM1 23L1 28L6 28L6 23ZM2 24L2 27L5 27L5 24Z" fill="#282828"/></g></g></svg>
