<?xml version="1.0" encoding="UTF-8"?>
<svg xmlns="http://www.w3.org/2000/svg" version="1.1" width="90" height="90" viewBox="0 0 90 90"><rect x="0" y="0" width="90" height="90" fill="#ffffff"/><g transform="scale(2.903)"><g transform="translate(1,1)"><path fill-rule="evenodd" d="M10 0L10 2L11 2L11 0ZM12 0L12 1L13 1L13 2L12 2L12 4L14 4L14 7L15 7L15 9L16 9L16 10L14 10L14 9L12 9L12 7L13 7L13 5L11 5L11 6L10 6L10 4L11 4L11 3L8 3L8 4L9 4L9 5L8 5L8 7L9 7L9 8L6 8L6 9L5 9L5 8L0 8L0 9L1 9L1 10L0 10L0 13L1 13L1 12L2 12L2 13L3 13L3 14L4 14L4 13L5 13L5 14L6 14L6 15L7 15L7 16L6 16L6 17L5 17L5 16L4 16L4 15L2 15L2 14L0 14L0 15L2 15L2 16L3 16L3 17L1 17L1 16L0 16L0 21L1 21L1 18L2 18L2 19L4 19L4 20L2 20L2 21L4 21L4 20L5 20L5 21L8 21L8 23L9 23L9 24L8 24L8 29L9 29L9 27L10 27L10 28L11 28L11 27L10 27L10 26L11 26L11 25L12 25L12 26L13 26L13 27L12 27L12 29L13 29L13 28L14 28L14 29L15 29L15 28L14 28L14 27L16 27L16 28L17 28L17 26L19 26L19 25L12 25L12 23L13 23L13 22L11 22L11 25L10 25L10 22L9 22L9 21L11 21L11 18L10 18L10 16L11 16L11 17L12 17L12 18L13 18L13 19L12 19L12 21L13 21L13 20L14 20L14 21L15 21L15 23L14 23L14 24L15 24L15 23L16 23L16 24L17 24L17 23L16 23L16 22L18 22L18 23L19 23L19 24L20 24L20 25L22 25L22 26L20 26L20 29L21 29L21 28L22 28L22 29L24 29L24 27L25 27L25 28L26 28L26 29L27 29L27 28L28 28L28 26L29 26L29 25L27 25L27 26L26 26L26 27L25 27L25 26L24 26L24 25L26 25L26 23L25 23L25 19L24 19L24 18L25 18L25 17L28 17L28 18L26 18L26 19L27 19L27 20L26 20L26 21L28 21L28 22L27 22L27 24L29 24L29 23L28 23L28 22L29 22L29 21L28 21L28 20L29 20L29 19L28 19L28 18L29 18L29 17L28 17L28 16L29 16L29 15L28 15L28 14L29 14L29 13L28 13L28 14L27 14L27 16L26 16L26 15L25 15L25 14L26 14L26 13L24 13L24 14L23 14L23 13L22 13L22 14L23 14L23 15L25 15L25 17L24 17L24 16L23 16L23 17L22 17L22 18L21 18L21 17L18 17L18 18L17 18L17 13L18 13L18 16L19 16L19 14L20 14L20 16L21 16L21 14L20 14L20 13L19 13L19 12L16 12L16 10L17 10L17 9L18 9L18 10L19 10L19 9L20 9L20 10L21 10L21 11L22 11L22 8L21 8L21 4L20 4L20 3L21 3L21 2L20 2L20 3L19 3L19 5L20 5L20 7L19 7L19 6L18 6L18 5L15 5L15 4L18 4L18 3L15 3L15 4L14 4L14 3L13 3L13 2L14 2L14 1L15 1L15 2L16 2L16 1L15 1L15 0L14 0L14 1L13 1L13 0ZM17 0L17 1L18 1L18 2L19 2L19 1L21 1L21 0ZM8 1L8 2L9 2L9 1ZM9 6L9 7L10 7L10 6ZM11 6L11 7L12 7L12 6ZM15 6L15 7L16 7L16 9L17 9L17 8L18 8L18 9L19 9L19 8L18 8L18 6L17 6L17 7L16 7L16 6ZM10 8L10 9L8 9L8 10L9 10L9 12L7 12L7 11L6 11L6 10L7 10L7 9L6 9L6 10L5 10L5 13L6 13L6 14L9 14L9 16L10 16L10 15L11 15L11 14L13 14L13 15L12 15L12 17L16 17L16 15L15 15L15 14L16 14L16 13L14 13L14 12L15 12L15 11L14 11L14 12L13 12L13 13L12 13L12 11L13 11L13 10L12 10L12 9L11 9L11 8ZM20 8L20 9L21 9L21 8ZM23 8L23 10L24 10L24 12L26 12L26 11L27 11L27 12L28 12L28 11L27 11L27 9L28 9L28 8L27 8L27 9L26 9L26 8L25 8L25 9L24 9L24 8ZM10 9L10 11L11 11L11 9ZM2 10L2 11L3 11L3 10ZM3 12L3 13L4 13L4 12ZM6 12L6 13L7 13L7 12ZM9 12L9 13L11 13L11 12ZM14 15L14 16L15 16L15 15ZM7 16L7 17L6 17L6 18L7 18L7 19L6 19L6 20L9 20L9 19L8 19L8 18L9 18L9 17L8 17L8 16ZM3 17L3 18L5 18L5 17ZM19 18L19 20L18 20L18 19L17 19L17 20L16 20L16 19L14 19L14 20L16 20L16 21L19 21L19 22L20 22L20 21L19 21L19 20L20 20L20 19L21 19L21 18ZM22 18L22 19L23 19L23 20L24 20L24 19L23 19L23 18ZM21 21L21 24L24 24L24 21ZM22 22L22 23L23 23L23 22ZM9 25L9 26L10 26L10 25ZM22 26L22 28L23 28L23 26ZM18 27L18 28L19 28L19 27ZM26 27L26 28L27 28L27 27ZM0 0L0 7L7 7L7 0ZM1 1L1 6L6 6L6 1ZM2 2L2 5L5 5L5 2ZM22 0L22 7L29 7L29 0ZM23 1L23 6L28 6L28 1ZM24 2L24 5L27 5L27 2ZM0 22L0 29L7 29L7 22ZM1 23L1 28L6 28L6 23ZM2 24L2 27L5 27L5 24Z" fill="#282828"/></g></g></svg>
