<?xml version="1.0" encoding="UTF-8"?>
<svg xmlns="http://www.w3.org/2000/svg" version="1.1" width="90" height="90" viewBox="0 0 90 90"><rect x="0" y="0" width="90" height="90" fill="#ffffff"/><g transform="scale(2.903)"><g transform="translate(1,1)"><path fill-rule="evenodd" d="M9 0L9 1L11 1L11 2L9 2L9 3L8 3L8 5L9 5L9 6L8 6L8 7L9 7L9 9L10 9L10 10L8 10L8 11L7 11L7 10L6 10L6 11L7 11L7 12L6 12L6 13L7 13L7 12L8 12L8 13L9 13L9 15L7 15L7 14L6 14L6 15L7 15L7 16L5 16L5 17L4 17L4 18L3 18L3 16L4 16L4 15L5 15L5 11L4 11L4 12L3 12L3 11L2 11L2 10L3 10L3 9L2 9L2 8L0 8L0 9L1 9L1 10L0 10L0 11L2 11L2 13L1 13L1 12L0 12L0 13L1 13L1 14L3 14L3 15L0 15L0 16L2 16L2 18L1 18L1 17L0 17L0 21L1 21L1 19L2 19L2 20L3 20L3 19L5 19L5 17L7 17L7 18L6 18L6 19L7 19L7 18L10 18L10 20L8 20L8 24L9 24L9 27L8 27L8 29L10 29L10 28L13 28L13 29L14 29L14 28L16 28L16 27L17 27L17 26L18 26L18 28L19 28L19 29L20 29L20 28L21 28L21 29L22 29L22 25L23 25L23 28L24 28L24 29L25 29L25 28L27 28L27 27L28 27L28 28L29 28L29 27L28 27L28 26L29 26L29 25L28 25L28 26L27 26L27 27L25 27L25 24L26 24L26 25L27 25L27 24L28 24L28 20L29 20L29 17L28 17L28 16L27 16L27 15L28 15L28 14L29 14L29 12L28 12L28 11L27 11L27 10L29 10L29 9L27 9L27 10L26 10L26 8L24 8L24 9L22 9L22 11L24 11L24 12L21 12L21 10L20 10L20 12L19 12L19 9L17 9L17 10L18 10L18 12L17 12L17 11L16 11L16 10L15 10L15 9L16 9L16 8L14 8L14 9L13 9L13 6L12 6L12 9L13 9L13 10L11 10L11 8L10 8L10 7L11 7L11 4L12 4L12 5L13 5L13 4L12 4L12 2L14 2L14 3L15 3L15 4L14 4L14 5L16 5L16 7L17 7L17 6L18 6L18 7L19 7L19 8L20 8L20 9L21 9L21 8L20 8L20 7L21 7L21 6L20 6L20 7L19 7L19 5L20 5L20 4L21 4L21 3L20 3L20 4L18 4L18 5L17 5L17 2L16 2L16 3L15 3L15 1L16 1L16 0L13 0L13 1L12 1L12 0ZM17 0L17 1L18 1L18 0ZM19 0L19 1L20 1L20 0ZM18 2L18 3L19 3L19 2ZM9 3L9 5L10 5L10 3ZM9 6L9 7L10 7L10 6ZM14 6L14 7L15 7L15 6ZM5 8L5 9L4 9L4 10L5 10L5 9L8 9L8 8ZM10 10L10 11L8 11L8 12L10 12L10 11L11 11L11 10ZM13 10L13 11L12 11L12 12L11 12L11 15L9 15L9 16L7 16L7 17L10 17L10 18L11 18L11 19L12 19L12 20L16 20L16 21L15 21L15 22L14 22L14 21L13 21L13 22L12 22L12 21L11 21L11 22L10 22L10 21L9 21L9 22L10 22L10 23L9 23L9 24L10 24L10 23L11 23L11 24L12 24L12 25L13 25L13 26L14 26L14 27L13 27L13 28L14 28L14 27L15 27L15 26L16 26L16 25L17 25L17 24L18 24L18 25L19 25L19 23L20 23L20 22L19 22L19 23L17 23L17 24L16 24L16 23L15 23L15 22L18 22L18 21L20 21L20 20L18 20L18 19L19 19L19 18L20 18L20 17L21 17L21 19L23 19L23 20L24 20L24 19L25 19L25 23L26 23L26 24L27 24L27 22L26 22L26 20L28 20L28 19L27 19L27 17L25 17L25 18L23 18L23 17L24 17L24 15L27 15L27 13L28 13L28 12L27 12L27 11L26 11L26 12L27 12L27 13L26 13L26 14L24 14L24 15L23 15L23 14L22 14L22 13L21 13L21 14L22 14L22 15L21 15L21 16L20 16L20 13L19 13L19 12L18 12L18 13L17 13L17 12L16 12L16 11L15 11L15 10ZM14 11L14 12L13 12L13 13L12 13L12 14L13 14L13 15L12 15L12 17L14 17L14 18L12 18L12 19L16 19L16 16L17 16L17 15L16 15L16 14L17 14L17 13L16 13L16 12L15 12L15 11ZM14 12L14 13L15 13L15 14L16 14L16 13L15 13L15 12ZM3 13L3 14L4 14L4 13ZM18 13L18 15L19 15L19 13ZM13 15L13 16L16 16L16 15ZM22 15L22 16L23 16L23 15ZM19 16L19 17L20 17L20 16ZM17 18L17 19L18 19L18 18ZM25 18L25 19L26 19L26 18ZM4 20L4 21L7 21L7 20ZM21 21L21 24L24 24L24 21ZM22 22L22 23L23 23L23 22ZM14 23L14 26L15 26L15 25L16 25L16 24L15 24L15 23ZM10 25L10 26L11 26L11 27L12 27L12 26L11 26L11 25ZM20 25L20 26L19 26L19 28L20 28L20 26L21 26L21 25ZM9 27L9 28L10 28L10 27ZM0 0L0 7L7 7L7 0ZM1 1L1 6L6 6L6 1ZM2 2L2 5L5 5L5 2ZM22 0L22 7L29 7L29 0ZM23 1L23 6L28 6L28 1ZM24 2L24 5L27 5L27 2ZM0 22L0 29L7 29L7 22ZM1 23L1 28L6 28L6 23ZM2 24L2 27L5 27L5 24Z" fill="#282828"/></g></g></svg>
