<?xml version="1.0" encoding="UTF-8"?>
<svg xmlns="http://www.w3.org/2000/svg" version="1.1" width="90" height="90" viewBox="0 0 90 90"><rect x="0" y="0" width="90" height="90" fill="#ffffff"/><g transform="scale(2.903)"><g transform="translate(1,1)"><path fill-rule="evenodd" d="M8 0L8 4L9 4L9 5L8 5L8 7L9 7L9 6L10 6L10 9L11 9L11 8L12 8L12 9L13 9L13 10L15 10L15 11L14 11L14 12L13 12L13 11L12 11L12 12L11 12L11 13L10 13L10 14L11 14L11 15L10 15L10 16L9 16L9 17L11 17L11 16L12 16L12 17L13 17L13 18L15 18L15 19L14 19L14 20L13 20L13 19L12 19L12 20L11 20L11 18L10 18L10 20L11 20L11 21L10 21L10 23L8 23L8 25L9 25L9 24L10 24L10 27L8 27L8 29L12 29L12 28L13 28L13 29L16 29L16 28L15 28L15 27L17 27L17 28L19 28L19 29L22 29L22 28L23 28L23 29L24 29L24 27L22 27L22 25L25 25L25 29L26 29L26 26L27 26L27 29L28 29L28 28L29 28L29 25L28 25L28 24L29 24L29 21L26 21L26 20L22 20L22 19L23 19L23 18L25 18L25 17L26 17L26 16L25 16L25 15L26 15L26 14L25 14L25 13L27 13L27 16L28 16L28 15L29 15L29 13L28 13L28 11L29 11L29 10L28 10L28 9L29 9L29 8L25 8L25 9L24 9L24 8L23 8L23 9L22 9L22 10L25 10L25 13L22 13L22 11L21 11L21 10L20 10L20 12L18 12L18 11L16 11L16 9L18 9L18 8L19 8L19 9L20 9L20 8L21 8L21 5L19 5L19 4L20 4L20 3L19 3L19 2L21 2L21 1L19 1L19 0L17 0L17 1L18 1L18 2L16 2L16 3L15 3L15 4L14 4L14 5L16 5L16 3L18 3L18 5L19 5L19 6L18 6L18 7L17 7L17 6L16 6L16 9L14 9L14 7L15 7L15 6L14 6L14 7L13 7L13 6L12 6L12 7L11 7L11 3L10 3L10 2L9 2L9 0ZM13 0L13 1L11 1L11 2L12 2L12 5L13 5L13 1L14 1L14 0ZM15 0L15 1L16 1L16 0ZM19 6L19 8L20 8L20 6ZM12 7L12 8L13 8L13 7ZM0 8L0 9L1 9L1 10L0 10L0 13L1 13L1 14L0 14L0 15L2 15L2 13L3 13L3 14L4 14L4 16L0 16L0 18L1 18L1 17L2 17L2 19L4 19L4 18L6 18L6 19L7 19L7 18L8 18L8 16L6 16L6 17L4 17L4 16L5 16L5 14L6 14L6 15L8 15L8 14L9 14L9 12L10 12L10 11L11 11L11 10L9 10L9 11L8 11L8 12L6 12L6 11L7 11L7 10L4 10L4 9L7 9L7 8L4 8L4 9L3 9L3 12L2 12L2 11L1 11L1 10L2 10L2 8ZM25 9L25 10L27 10L27 11L26 11L26 12L27 12L27 11L28 11L28 10L27 10L27 9ZM23 11L23 12L24 12L24 11ZM4 12L4 13L5 13L5 12ZM12 12L12 13L11 13L11 14L12 14L12 13L13 13L13 14L15 14L15 13L17 13L17 14L18 14L18 16L17 16L17 18L16 18L16 19L15 19L15 20L17 20L17 21L19 21L19 20L17 20L17 18L18 18L18 19L20 19L20 18L21 18L21 17L19 17L19 16L21 16L21 15L22 15L22 13L21 13L21 12L20 12L20 13L19 13L19 14L18 14L18 13L17 13L17 12L15 12L15 13L13 13L13 12ZM6 13L6 14L7 14L7 13ZM20 14L20 15L21 15L21 14ZM24 14L24 15L25 15L25 14ZM12 15L12 16L13 16L13 15ZM14 15L14 17L16 17L16 16L15 16L15 15ZM22 16L22 17L23 17L23 16ZM24 16L24 17L25 17L25 16ZM3 17L3 18L4 18L4 17ZM6 17L6 18L7 18L7 17ZM18 17L18 18L19 18L19 17ZM27 17L27 18L26 18L26 19L27 19L27 20L28 20L28 19L29 19L29 17ZM8 19L8 22L9 22L9 19ZM0 20L0 21L3 21L3 20ZM4 20L4 21L7 21L7 20ZM12 20L12 21L11 21L11 22L12 22L12 21L13 21L13 22L16 22L16 23L14 23L14 25L15 25L15 26L13 26L13 25L12 25L12 24L13 24L13 23L12 23L12 24L11 24L11 28L12 28L12 27L13 27L13 28L14 28L14 27L15 27L15 26L16 26L16 25L17 25L17 26L18 26L18 27L19 27L19 28L20 28L20 27L21 27L21 28L22 28L22 27L21 27L21 26L18 26L18 25L19 25L19 24L17 24L17 22L16 22L16 21L13 21L13 20ZM21 21L21 24L24 24L24 21ZM19 22L19 23L20 23L20 22ZM22 22L22 23L23 23L23 22ZM25 22L25 23L26 23L26 24L28 24L28 23L27 23L27 22ZM27 25L27 26L28 26L28 25ZM0 0L0 7L7 7L7 0ZM1 1L1 6L6 6L6 1ZM2 2L2 5L5 5L5 2ZM22 0L22 7L29 7L29 0ZM23 1L23 6L28 6L28 1ZM24 2L24 5L27 5L27 2ZM0 22L0 29L7 29L7 22ZM1 23L1 28L6 28L6 23ZM2 24L2 27L5 27L5 24Z" fill="#282828"/></g></g></svg>
