<?xml version="1.0" encoding="UTF-8"?>
<svg xmlns="http://www.w3.org/2000/svg" version="1.1" width="90" height="90" viewBox="0 0 90 90"><rect x="0" y="0" width="90" height="90" fill="#ffffff"/><g transform="scale(2.308)"><g transform="translate(1,1)"><path fill-rule="evenodd" d="M9 0L9 1L8 1L8 3L9 3L9 4L8 4L8 8L6 8L6 9L5 9L5 10L6 10L6 11L7 11L7 12L4 12L4 8L3 8L3 12L1 12L1 10L2 10L2 8L0 8L0 9L1 9L1 10L0 10L0 13L1 13L1 14L2 14L2 15L0 15L0 17L1 17L1 19L2 19L2 18L4 18L4 17L2 17L2 16L3 16L3 15L4 15L4 14L5 14L5 13L7 13L7 14L6 14L6 15L5 15L5 17L7 17L7 18L5 18L5 19L7 19L7 20L6 20L6 21L8 21L8 22L9 22L9 21L10 21L10 23L8 23L8 25L7 25L7 24L6 24L6 23L7 23L7 22L5 22L5 20L4 20L4 21L3 21L3 20L0 20L0 21L1 21L1 23L0 23L0 24L1 24L1 26L0 26L0 27L1 27L1 28L0 28L0 29L5 29L5 28L3 28L3 27L4 27L4 26L6 26L6 27L7 27L7 28L6 28L6 29L8 29L8 31L9 31L9 33L8 33L8 34L9 34L9 35L8 35L8 37L10 37L10 36L11 36L11 34L12 34L12 33L11 33L11 32L10 32L10 31L9 31L9 30L11 30L11 31L12 31L12 32L13 32L13 30L14 30L14 32L15 32L15 29L18 29L18 31L17 31L17 30L16 30L16 32L18 32L18 31L19 31L19 29L23 29L23 28L22 28L22 27L23 27L23 25L26 25L26 26L25 26L25 28L24 28L24 30L23 30L23 31L22 31L22 30L21 30L21 31L20 31L20 32L19 32L19 34L18 34L18 33L17 33L17 34L18 34L18 36L17 36L17 37L19 37L19 36L20 36L20 37L23 37L23 34L22 34L22 32L24 32L24 36L27 36L27 37L29 37L29 36L31 36L31 35L32 35L32 34L34 34L34 37L37 37L37 36L35 36L35 35L37 35L37 34L34 34L34 32L35 32L35 33L37 33L37 32L36 32L36 31L37 31L37 21L36 21L36 19L37 19L37 18L36 18L36 16L37 16L37 14L36 14L36 13L37 13L37 12L35 12L35 13L33 13L33 12L34 12L34 11L37 11L37 9L36 9L36 8L34 8L34 9L33 9L33 8L30 8L30 9L29 9L29 8L28 8L28 7L29 7L29 5L28 5L28 3L29 3L29 1L27 1L27 0L22 0L22 1L20 1L20 0L19 0L19 1L20 1L20 2L16 2L16 1L17 1L17 0L16 0L16 1L14 1L14 0L12 0L12 1L11 1L11 2L9 2L9 1L10 1L10 0ZM25 1L25 2L24 2L24 5L23 5L23 4L22 4L22 6L21 6L21 7L20 7L20 6L19 6L19 7L18 7L18 5L21 5L21 3L22 3L22 2L21 2L21 3L19 3L19 4L18 4L18 3L16 3L16 2L14 2L14 3L16 3L16 4L15 4L15 8L14 8L14 6L13 6L13 3L12 3L12 4L9 4L9 5L10 5L10 6L9 6L9 7L10 7L10 8L8 8L8 9L6 9L6 10L7 10L7 11L8 11L8 12L7 12L7 13L9 13L9 14L7 14L7 15L6 15L6 16L7 16L7 15L8 15L8 17L9 17L9 18L10 18L10 20L11 20L11 19L12 19L12 20L13 20L13 21L14 21L14 22L15 22L15 21L16 21L16 20L15 20L15 19L17 19L17 18L18 18L18 17L19 17L19 20L17 20L17 21L18 21L18 22L16 22L16 23L14 23L14 24L12 24L12 28L10 28L10 29L11 29L11 30L12 30L12 28L14 28L14 29L15 29L15 27L16 27L16 28L17 28L17 27L20 27L20 28L21 28L21 27L22 27L22 25L21 25L21 24L22 24L22 23L23 23L23 24L25 24L25 23L28 23L28 20L27 20L27 21L25 21L25 20L26 20L26 19L29 19L29 18L30 18L30 20L29 20L29 21L30 21L30 22L29 22L29 23L30 23L30 22L31 22L31 23L33 23L33 24L32 24L32 26L30 26L30 28L31 28L31 27L33 27L33 25L34 25L34 23L35 23L35 26L34 26L34 27L35 27L35 26L36 26L36 21L35 21L35 20L34 20L34 18L35 18L35 16L36 16L36 14L35 14L35 15L34 15L34 14L33 14L33 13L32 13L32 12L33 12L33 11L34 11L34 10L36 10L36 9L34 9L34 10L33 10L33 11L32 11L32 12L29 12L29 11L30 11L30 10L32 10L32 9L30 9L30 10L29 10L29 11L28 11L28 8L27 8L27 11L28 11L28 12L29 12L29 13L27 13L27 12L26 12L26 13L23 13L23 17L19 17L19 15L20 15L20 14L21 14L21 15L22 15L22 13L20 13L20 12L18 12L18 11L19 11L19 8L20 8L20 9L22 9L22 11L21 11L21 12L22 12L22 11L23 11L23 12L25 12L25 11L26 11L26 10L25 10L25 11L24 11L24 9L25 9L25 8L26 8L26 6L27 6L27 7L28 7L28 6L27 6L27 5L26 5L26 3L28 3L28 2L27 2L27 1ZM16 4L16 5L17 5L17 4ZM11 5L11 6L10 6L10 7L11 7L11 6L12 6L12 8L13 8L13 6L12 6L12 5ZM24 5L24 7L25 7L25 5ZM16 6L16 7L17 7L17 8L18 8L18 7L17 7L17 6ZM22 6L22 8L23 8L23 9L24 9L24 8L23 8L23 6ZM10 8L10 9L8 9L8 11L10 11L10 12L11 12L11 10L12 10L12 9L11 9L11 8ZM15 8L15 9L14 9L14 10L16 10L16 11L14 11L14 12L16 12L16 13L15 13L15 15L13 15L13 12L12 12L12 13L11 13L11 14L10 14L10 16L9 16L9 17L10 17L10 18L11 18L11 17L12 17L12 16L13 16L13 17L15 17L15 18L16 18L16 17L18 17L18 15L17 15L17 14L16 14L16 13L18 13L18 12L16 12L16 11L17 11L17 10L18 10L18 9L17 9L17 10L16 10L16 8ZM3 12L3 13L2 13L2 14L4 14L4 12ZM19 13L19 14L20 14L20 13ZM26 13L26 15L25 15L25 16L24 16L24 18L23 18L23 19L22 19L22 20L23 20L23 21L24 21L24 22L25 22L25 21L24 21L24 20L23 20L23 19L25 19L25 18L27 18L27 17L25 17L25 16L26 16L26 15L27 15L27 13ZM29 13L29 14L28 14L28 15L30 15L30 14L32 14L32 13ZM11 14L11 16L12 16L12 14ZM15 15L15 16L16 16L16 15ZM31 15L31 16L28 16L28 18L29 18L29 17L30 17L30 18L31 18L31 20L32 20L32 21L33 21L33 22L35 22L35 21L33 21L33 20L32 20L32 19L33 19L33 17L34 17L34 16L33 16L33 17L32 17L32 15ZM7 18L7 19L8 19L8 18ZM13 18L13 20L14 20L14 21L15 21L15 20L14 20L14 18ZM8 20L8 21L9 21L9 20ZM19 20L19 21L20 21L20 22L19 22L19 23L18 23L18 24L19 24L19 23L20 23L20 24L21 24L21 23L22 23L22 21L20 21L20 20ZM2 22L2 23L3 23L3 22ZM4 22L4 23L5 23L5 22ZM16 23L16 24L14 24L14 25L13 25L13 27L15 27L15 26L16 26L16 27L17 27L17 23ZM2 24L2 26L1 26L1 27L3 27L3 25L6 25L6 26L7 26L7 27L8 27L8 28L9 28L9 27L11 27L11 24L9 24L9 25L8 25L8 26L7 26L7 25L6 25L6 24ZM26 24L26 25L27 25L27 24ZM29 24L29 25L28 25L28 26L26 26L26 27L28 27L28 28L25 28L25 29L28 29L28 28L29 28L29 27L28 27L28 26L29 26L29 25L31 25L31 24ZM9 25L9 26L10 26L10 25ZM18 25L18 26L20 26L20 27L21 27L21 25ZM18 28L18 29L19 29L19 28ZM33 28L33 29L34 29L34 28ZM35 28L35 29L36 29L36 28ZM29 29L29 32L32 32L32 29ZM25 30L25 31L24 31L24 32L26 32L26 34L28 34L28 35L31 35L31 33L28 33L28 32L26 32L26 31L27 31L27 30ZM30 30L30 31L31 31L31 30ZM35 30L35 31L36 31L36 30ZM33 31L33 32L34 32L34 31ZM20 32L20 33L21 33L21 32ZM9 33L9 34L11 34L11 33ZM14 33L14 34L15 34L15 33ZM21 34L21 35L22 35L22 34ZM14 35L14 36L15 36L15 35ZM12 36L12 37L13 37L13 36ZM32 36L32 37L33 37L33 36ZM0 0L0 7L7 7L7 0ZM1 1L1 6L6 6L6 1ZM2 2L2 5L5 5L5 2ZM30 0L30 7L37 7L37 0ZM31 1L31 6L36 6L36 1ZM32 2L32 5L35 5L35 2ZM0 30L0 37L7 37L7 30ZM1 31L1 36L6 36L6 31ZM2 32L2 35L5 35L5 32Z" fill="#282828"/></g></g></svg>
