<?xml version="1.0" encoding="UTF-8"?>
<svg xmlns="http://www.w3.org/2000/svg" version="1.1" width="90" height="90" viewBox="0 0 90 90"><rect x="0" y="0" width="90" height="90" fill="#ffffff"/><g transform="scale(2.903)"><g transform="translate(1,1)"><path fill-rule="evenodd" d="M8 0L8 1L11 1L11 3L10 3L10 2L9 2L9 3L10 3L10 5L9 5L9 6L8 6L8 8L9 8L9 9L8 9L8 10L6 10L6 9L7 9L7 8L6 8L6 9L5 9L5 8L3 8L3 10L6 10L6 11L7 11L7 12L4 12L4 11L2 11L2 13L1 13L1 11L0 11L0 21L4 21L4 20L5 20L5 21L7 21L7 20L8 20L8 19L9 19L9 20L10 20L10 21L8 21L8 22L10 22L10 23L9 23L9 24L8 24L8 26L9 26L9 27L8 27L8 29L10 29L10 28L12 28L12 27L14 27L14 26L15 26L15 28L14 28L14 29L15 29L15 28L16 28L16 26L19 26L19 29L22 29L22 28L24 28L24 27L25 27L25 28L26 28L26 29L27 29L27 27L28 27L28 28L29 28L29 23L28 23L28 21L29 21L29 18L28 18L28 16L27 16L27 15L25 15L25 13L26 13L26 11L27 11L27 12L28 12L28 11L27 11L27 10L26 10L26 9L23 9L23 8L22 8L22 10L23 10L23 11L24 11L24 10L25 10L25 12L22 12L22 11L21 11L21 12L19 12L19 10L17 10L17 11L16 11L16 9L17 9L17 8L15 8L15 3L14 3L14 2L15 2L15 1L14 1L14 0L13 0L13 1L12 1L12 0ZM16 0L16 1L18 1L18 3L19 3L19 4L17 4L17 6L16 6L16 7L17 7L17 6L18 6L18 7L19 7L19 6L18 6L18 5L19 5L19 4L21 4L21 3L19 3L19 2L20 2L20 1L21 1L21 0L20 0L20 1L19 1L19 0ZM13 1L13 2L12 2L12 4L14 4L14 3L13 3L13 2L14 2L14 1ZM16 2L16 3L17 3L17 2ZM10 5L10 6L9 6L9 7L10 7L10 9L9 9L9 10L8 10L8 13L9 13L9 14L10 14L10 13L9 13L9 12L11 12L11 16L12 16L12 15L14 15L14 14L15 14L15 13L13 13L13 12L14 12L14 9L12 9L12 6L13 6L13 8L14 8L14 6L13 6L13 5L12 5L12 6L11 6L11 5ZM20 5L20 8L19 8L19 9L20 9L20 8L21 8L21 5ZM10 6L10 7L11 7L11 6ZM0 8L0 10L1 10L1 9L2 9L2 8ZM28 8L28 10L29 10L29 8ZM10 9L10 10L9 10L9 11L10 11L10 10L11 10L11 9ZM12 10L12 11L13 11L13 10ZM15 11L15 12L16 12L16 13L17 13L17 14L16 14L16 16L13 16L13 17L12 17L12 18L11 18L11 17L10 17L10 15L8 15L8 14L7 14L7 13L4 13L4 12L3 12L3 13L2 13L2 14L1 14L1 15L3 15L3 16L5 16L5 17L4 17L4 18L5 18L5 20L7 20L7 19L6 19L6 18L8 18L8 17L6 17L6 16L7 16L7 15L8 15L8 16L9 16L9 17L10 17L10 18L9 18L9 19L10 19L10 20L11 20L11 19L12 19L12 21L10 21L10 22L12 22L12 23L13 23L13 22L12 22L12 21L13 21L13 19L12 19L12 18L16 18L16 19L17 19L17 20L19 20L19 18L20 18L20 19L21 19L21 20L23 20L23 19L21 19L21 18L24 18L24 17L23 17L23 16L24 16L24 15L23 15L23 16L22 16L22 17L21 17L21 18L20 18L20 16L21 16L21 15L22 15L22 14L23 14L23 13L22 13L22 12L21 12L21 13L20 13L20 16L19 16L19 15L17 15L17 14L19 14L19 12L18 12L18 13L17 13L17 12L16 12L16 11ZM12 13L12 14L13 14L13 13ZM27 13L27 14L28 14L28 15L29 15L29 14L28 14L28 13ZM3 14L3 15L4 15L4 14ZM5 14L5 15L7 15L7 14ZM16 16L16 17L17 17L17 19L18 19L18 18L19 18L19 17L18 17L18 16ZM25 16L25 17L26 17L26 18L25 18L25 19L24 19L24 20L25 20L25 19L26 19L26 18L27 18L27 16ZM2 17L2 18L3 18L3 17ZM3 19L3 20L4 20L4 19ZM14 19L14 25L15 25L15 26L16 26L16 24L17 24L17 23L15 23L15 22L18 22L18 21L16 21L16 20L15 20L15 19ZM27 19L27 20L28 20L28 19ZM19 21L19 23L20 23L20 21ZM21 21L21 24L24 24L24 21ZM25 21L25 23L26 23L26 24L25 24L25 25L26 25L26 24L27 24L27 26L28 26L28 24L27 24L27 23L26 23L26 21ZM22 22L22 23L23 23L23 22ZM10 23L10 24L9 24L9 26L10 26L10 27L9 27L9 28L10 28L10 27L11 27L11 26L13 26L13 25L11 25L11 23ZM18 24L18 25L19 25L19 26L20 26L20 27L22 27L22 26L24 26L24 25L22 25L22 26L21 26L21 25L19 25L19 24ZM10 25L10 26L11 26L11 25ZM25 26L25 27L26 27L26 26ZM17 28L17 29L18 29L18 28ZM0 0L0 7L7 7L7 0ZM1 1L1 6L6 6L6 1ZM2 2L2 5L5 5L5 2ZM22 0L22 7L29 7L29 0ZM23 1L23 6L28 6L28 1ZM24 2L24 5L27 5L27 2ZM0 22L0 29L7 29L7 22ZM1 23L1 28L6 28L6 23ZM2 24L2 27L5 27L5 24Z" fill="#282828"/></g></g></svg>
