<?xml version="1.0" encoding="UTF-8"?>
<svg xmlns="http://www.w3.org/2000/svg" version="1.1" width="90" height="90" viewBox="0 0 90 90"><rect x="0" y="0" width="90" height="90" fill="#ffffff"/><g transform="scale(3.333)"><g transform="translate(1,1)"><path fill-rule="evenodd" d="M9 0L9 1L8 1L8 3L9 3L9 4L8 4L8 8L6 8L6 9L8 9L8 8L10 8L10 10L5 10L5 9L4 9L4 8L3 8L3 9L2 9L2 8L0 8L0 9L2 9L2 11L0 11L0 13L1 13L1 12L2 12L2 13L4 13L4 12L3 12L3 11L5 11L5 12L6 12L6 13L7 13L7 14L6 14L6 15L8 15L8 14L9 14L9 17L8 17L8 19L9 19L9 20L11 20L11 21L12 21L12 23L13 23L13 25L14 25L14 23L13 23L13 20L12 20L12 19L9 19L9 17L11 17L11 18L12 18L12 17L11 17L11 16L10 16L10 14L11 14L11 15L13 15L13 18L16 18L16 22L15 22L15 19L14 19L14 22L15 22L15 25L17 25L17 24L20 24L20 25L21 25L21 24L22 24L22 22L20 22L20 23L19 23L19 22L18 22L18 23L17 23L17 24L16 24L16 22L17 22L17 21L21 21L21 19L22 19L22 20L23 20L23 21L24 21L24 20L25 20L25 10L23 10L23 9L24 9L24 8L22 8L22 10L21 10L21 11L24 11L24 14L20 14L20 13L21 13L21 12L20 12L20 13L19 13L19 12L16 12L16 11L13 11L13 10L12 10L12 9L13 9L13 6L14 6L14 9L15 9L15 10L17 10L17 11L18 11L18 9L21 9L21 8L18 8L18 9L15 9L15 6L16 6L16 8L17 8L17 4L16 4L16 5L15 5L15 3L16 3L16 1L15 1L15 0L12 0L12 1L11 1L11 2L9 2L9 1L10 1L10 0ZM13 1L13 3L12 3L12 4L9 4L9 5L10 5L10 6L9 6L9 7L10 7L10 8L11 8L11 9L12 9L12 6L13 6L13 3L15 3L15 2L14 2L14 1ZM11 5L11 6L10 6L10 7L11 7L11 6L12 6L12 5ZM3 9L3 10L4 10L4 9ZM11 10L11 11L9 11L9 13L11 13L11 14L15 14L15 15L17 15L17 16L19 16L19 15L17 15L17 14L16 14L16 12L13 12L13 11L12 11L12 10ZM6 11L6 12L8 12L8 11ZM11 11L11 12L12 12L12 11ZM22 12L22 13L23 13L23 12ZM18 13L18 14L19 14L19 13ZM0 14L0 15L1 15L1 16L0 16L0 17L4 17L4 16L5 16L5 17L7 17L7 16L5 16L5 14L3 14L3 16L2 16L2 15L1 15L1 14ZM20 15L20 16L21 16L21 18L22 18L22 16L23 16L23 17L24 17L24 16L23 16L23 15ZM14 16L14 17L16 17L16 16ZM17 17L17 20L20 20L20 17ZM18 18L18 19L19 19L19 18ZM23 18L23 20L24 20L24 18ZM8 21L8 22L9 22L9 23L8 23L8 25L11 25L11 22L9 22L9 21ZM24 22L24 23L25 23L25 22ZM23 24L23 25L25 25L25 24ZM0 0L0 7L7 7L7 0ZM1 1L1 6L6 6L6 1ZM2 2L2 5L5 5L5 2ZM18 0L18 7L25 7L25 0ZM19 1L19 6L24 6L24 1ZM20 2L20 5L23 5L23 2ZM0 18L0 25L7 25L7 18ZM1 19L1 24L6 24L6 19ZM2 20L2 23L5 23L5 20Z" fill="#282828"/></g></g></svg>
