<?xml version="1.0" encoding="UTF-8"?>
<svg xmlns="http://www.w3.org/2000/svg" version="1.1" width="90" height="90" viewBox="0 0 90 90"><rect x="0" y="0" width="90" height="90" fill="#ffffff"/><g transform="scale(3.333)"><g transform="translate(1,1)"><path fill-rule="evenodd" d="M8 0L8 1L9 1L9 2L8 2L8 5L9 5L9 4L11 4L11 2L12 2L12 1L13 1L13 0L12 0L12 1L9 1L9 0ZM15 0L15 1L16 1L16 7L17 7L17 0ZM13 2L13 3L14 3L14 4L15 4L15 2ZM10 5L10 10L9 10L9 8L8 8L8 9L7 9L7 8L6 8L6 9L4 9L4 8L0 8L0 10L2 10L2 9L4 9L4 10L3 10L3 11L2 11L2 12L3 12L3 13L1 13L1 15L0 15L0 16L1 16L1 15L3 15L3 16L4 16L4 17L8 17L8 18L9 18L9 20L10 20L10 21L8 21L8 25L10 25L10 24L9 24L9 22L11 22L11 25L12 25L12 24L14 24L14 25L15 25L15 23L14 23L14 21L15 21L15 20L16 20L16 21L17 21L17 22L16 22L16 24L17 24L17 25L25 25L25 24L23 24L23 23L24 23L24 22L25 22L25 20L23 20L23 21L22 21L22 22L23 22L23 23L21 23L21 20L22 20L22 19L21 19L21 18L22 18L22 17L21 17L21 16L20 16L20 15L18 15L18 13L19 13L19 12L20 12L20 14L21 14L21 15L22 15L22 14L23 14L23 13L21 13L21 12L24 12L24 14L25 14L25 11L24 11L24 9L25 9L25 8L24 8L24 9L23 9L23 8L20 8L20 9L18 9L18 8L16 8L16 9L18 9L18 10L16 10L16 12L14 12L14 9L15 9L15 6L14 6L14 5L12 5L12 7L13 7L13 6L14 6L14 8L12 8L12 9L11 9L11 5ZM8 6L8 7L9 7L9 6ZM6 9L6 10L7 10L7 9ZM20 9L20 10L19 10L19 11L20 11L20 12L21 12L21 11L23 11L23 9L22 9L22 10L21 10L21 9ZM4 10L4 11L3 11L3 12L4 12L4 11L5 11L5 10ZM12 10L12 12L11 12L11 13L10 13L10 14L11 14L11 16L12 16L12 17L13 17L13 19L12 19L12 18L11 18L11 17L9 17L9 16L10 16L10 15L9 15L9 16L8 16L8 13L9 13L9 11L6 11L6 12L8 12L8 13L4 13L4 15L5 15L5 16L8 16L8 17L9 17L9 18L11 18L11 19L12 19L12 20L11 20L11 21L12 21L12 22L13 22L13 21L12 21L12 20L15 20L15 18L16 18L16 17L15 17L15 15L17 15L17 14L16 14L16 13L17 13L17 12L18 12L18 11L17 11L17 12L16 12L16 13L15 13L15 14L13 14L13 13L14 13L14 12L13 12L13 10ZM20 10L20 11L21 11L21 10ZM0 11L0 12L1 12L1 11ZM6 14L6 15L7 15L7 14ZM12 14L12 16L13 16L13 14ZM23 16L23 18L24 18L24 19L25 19L25 17L24 17L24 16ZM17 17L17 20L20 20L20 17ZM18 18L18 19L19 19L19 18ZM19 21L19 22L18 22L18 23L19 23L19 22L20 22L20 21ZM20 23L20 24L21 24L21 23ZM0 0L0 7L7 7L7 0ZM1 1L1 6L6 6L6 1ZM2 2L2 5L5 5L5 2ZM18 0L18 7L25 7L25 0ZM19 1L19 6L24 6L24 1ZM20 2L20 5L23 5L23 2ZM0 18L0 25L7 25L7 18ZM1 19L1 24L6 24L6 19ZM2 20L2 23L5 23L5 20Z" fill="#282828"/></g></g></svg>
