<?xml version="1.0" encoding="UTF-8"?>
<svg xmlns="http://www.w3.org/2000/svg" version="1.1" width="90" height="90" viewBox="0 0 90 90"><rect x="0" y="0" width="90" height="90" fill="#ffffff"/><g transform="scale(2.903)"><g transform="translate(1,1)"><path fill-rule="evenodd" d="M8 0L8 1L9 1L9 2L8 2L8 5L9 5L9 4L11 4L11 5L10 5L10 10L9 10L9 8L8 8L8 9L7 9L7 8L6 8L6 9L4 9L4 8L0 8L0 9L2 9L2 10L1 10L1 12L2 12L2 16L1 16L1 17L2 17L2 16L3 16L3 19L4 19L4 21L8 21L8 22L9 22L9 23L10 23L10 24L9 24L9 25L8 25L8 29L10 29L10 28L11 28L11 29L12 29L12 28L14 28L14 27L15 27L15 26L16 26L16 27L18 27L18 29L21 29L21 28L22 28L22 29L23 29L23 28L26 28L26 26L27 26L27 25L28 25L28 27L27 27L27 29L28 29L28 27L29 27L29 23L28 23L28 24L27 24L27 25L25 25L25 21L27 21L27 19L28 19L28 22L29 22L29 19L28 19L28 17L27 17L27 18L26 18L26 14L28 14L28 16L29 16L29 13L28 13L28 12L29 12L29 11L28 11L28 10L27 10L27 8L24 8L24 9L22 9L22 8L21 8L21 6L20 6L20 5L19 5L19 4L18 4L18 3L21 3L21 0L18 0L18 1L17 1L17 0L16 0L16 1L17 1L17 2L16 2L16 3L15 3L15 1L14 1L14 2L13 2L13 0L12 0L12 1L11 1L11 0L10 0L10 1L9 1L9 0ZM19 1L19 2L20 2L20 1ZM11 2L11 4L12 4L12 3L13 3L13 2ZM17 2L17 3L18 3L18 2ZM14 3L14 4L13 4L13 5L12 5L12 6L11 6L11 8L12 8L12 6L13 6L13 10L14 10L14 9L15 9L15 8L14 8L14 6L15 6L15 7L16 7L16 6L17 6L17 7L18 7L18 8L20 8L20 10L18 10L18 11L17 11L17 10L15 10L15 12L14 12L14 13L13 13L13 14L12 14L12 16L11 16L11 13L12 13L12 12L13 12L13 11L11 11L11 13L9 13L9 11L8 11L8 10L7 10L7 9L6 9L6 10L4 10L4 11L6 11L6 12L5 12L5 13L6 13L6 14L7 14L7 15L4 15L4 14L3 14L3 15L4 15L4 16L7 16L7 15L9 15L9 16L10 16L10 18L11 18L11 19L8 19L8 21L11 21L11 22L10 22L10 23L14 23L14 22L15 22L15 24L12 24L12 26L11 26L11 25L9 25L9 26L10 26L10 27L9 27L9 28L10 28L10 27L11 27L11 28L12 28L12 26L13 26L13 27L14 27L14 26L15 26L15 25L17 25L17 26L19 26L19 25L20 25L20 23L19 23L19 22L20 22L20 20L18 20L18 21L17 21L17 22L18 22L18 23L17 23L17 24L16 24L16 21L13 21L13 18L15 18L15 17L16 17L16 18L17 18L17 17L18 17L18 18L19 18L19 19L20 19L20 15L19 15L19 12L18 12L18 11L20 11L20 14L21 14L21 15L22 15L22 17L21 17L21 20L22 20L22 17L23 17L23 16L25 16L25 13L27 13L27 10L26 10L26 11L24 11L24 10L23 10L23 11L22 11L22 10L21 10L21 8L20 8L20 6L19 6L19 5L18 5L18 6L17 6L17 5L15 5L15 3ZM8 6L8 7L9 7L9 6ZM18 6L18 7L19 7L19 6ZM16 8L16 9L17 9L17 8ZM28 8L28 9L29 9L29 8ZM11 9L11 10L12 10L12 9ZM6 10L6 11L7 11L7 12L6 12L6 13L7 13L7 14L8 14L8 13L7 13L7 12L8 12L8 11L7 11L7 10ZM20 10L20 11L21 11L21 13L22 13L22 15L24 15L24 14L23 14L23 13L22 13L22 11L21 11L21 10ZM2 11L2 12L3 12L3 11ZM16 11L16 12L17 12L17 13L15 13L15 14L17 14L17 15L14 15L14 14L13 14L13 15L14 15L14 17L15 17L15 16L17 16L17 15L18 15L18 12L17 12L17 11ZM0 13L0 15L1 15L1 13ZM12 16L12 17L13 17L13 16ZM18 16L18 17L19 17L19 16ZM4 17L4 18L5 18L5 17ZM6 17L6 18L7 18L7 17ZM24 17L24 18L23 18L23 19L24 19L24 20L26 20L26 18L25 18L25 17ZM0 18L0 19L1 19L1 18ZM5 19L5 20L7 20L7 19ZM11 19L11 20L12 20L12 19ZM16 19L16 20L17 20L17 19ZM1 20L1 21L3 21L3 20ZM18 21L18 22L19 22L19 21ZM21 21L21 24L24 24L24 21ZM22 22L22 23L23 23L23 22ZM26 22L26 23L27 23L27 22ZM13 25L13 26L14 26L14 25ZM22 25L22 26L21 26L21 27L23 27L23 26L24 26L24 27L25 27L25 26L24 26L24 25ZM19 27L19 28L20 28L20 27ZM15 28L15 29L16 29L16 28ZM0 0L0 7L7 7L7 0ZM1 1L1 6L6 6L6 1ZM2 2L2 5L5 5L5 2ZM22 0L22 7L29 7L29 0ZM23 1L23 6L28 6L28 1ZM24 2L24 5L27 5L27 2ZM0 22L0 29L7 29L7 22ZM1 23L1 28L6 28L6 23ZM2 24L2 27L5 27L5 24Z" fill="#282828"/></g></g></svg>
