<?xml version="1.0" encoding="UTF-8"?>
<svg xmlns="http://www.w3.org/2000/svg" version="1.1" width="90" height="90" viewBox="0 0 90 90"><rect x="0" y="0" width="90" height="90" fill="#ffffff"/><g transform="scale(2.903)"><g transform="translate(1,1)"><path fill-rule="evenodd" d="M10 0L10 2L11 2L11 0ZM12 0L12 1L13 1L13 2L12 2L12 4L13 4L13 5L11 5L11 6L10 6L10 4L11 4L11 3L8 3L8 4L9 4L9 5L8 5L8 7L9 7L9 8L6 8L6 9L5 9L5 8L0 8L0 10L1 10L1 9L2 9L2 10L3 10L3 11L0 11L0 12L1 12L1 13L0 13L0 16L1 16L1 17L0 17L0 21L1 21L1 18L2 18L2 21L5 21L5 20L6 20L6 21L8 21L8 23L10 23L10 22L11 22L11 25L12 25L12 27L10 27L10 25L9 25L9 24L8 24L8 29L11 29L11 28L13 28L13 29L14 29L14 28L15 28L15 29L16 29L16 28L17 28L17 29L18 29L18 28L17 28L17 25L18 25L18 24L20 24L20 25L21 25L21 29L22 29L22 27L23 27L23 29L24 29L24 28L26 28L26 29L27 29L27 28L28 28L28 26L29 26L29 24L28 24L28 22L29 22L29 21L28 21L28 20L29 20L29 19L28 19L28 18L29 18L29 17L28 17L28 16L29 16L29 15L28 15L28 14L29 14L29 13L28 13L28 12L29 12L29 11L27 11L27 9L28 9L28 8L27 8L27 9L26 9L26 8L25 8L25 9L24 9L24 8L23 8L23 9L22 9L22 8L21 8L21 9L18 9L18 8L17 8L17 9L16 9L16 10L15 10L15 8L16 8L16 7L17 7L17 6L16 6L16 5L17 5L17 4L16 4L16 5L15 5L15 6L14 6L14 4L15 4L15 2L16 2L16 3L17 3L17 0L16 0L16 1L15 1L15 2L14 2L14 1L13 1L13 0ZM18 0L18 3L19 3L19 4L18 4L18 5L20 5L20 7L19 7L19 6L18 6L18 7L19 7L19 8L20 8L20 7L21 7L21 4L20 4L20 2L21 2L21 1L20 1L20 0ZM8 1L8 2L9 2L9 1ZM19 1L19 2L20 2L20 1ZM13 2L13 3L14 3L14 2ZM9 6L9 7L10 7L10 6ZM11 6L11 7L12 7L12 9L11 9L11 8L10 8L10 9L8 9L8 12L7 12L7 11L6 11L6 12L5 12L5 10L4 10L4 9L3 9L3 10L4 10L4 12L5 12L5 13L3 13L3 12L2 12L2 13L1 13L1 15L3 15L3 14L7 14L7 15L4 15L4 16L5 16L5 17L6 17L6 18L9 18L9 16L8 16L8 17L6 17L6 16L7 16L7 15L8 15L8 14L10 14L10 17L11 17L11 22L14 22L14 23L12 23L12 24L14 24L14 25L13 25L13 26L14 26L14 27L13 27L13 28L14 28L14 27L15 27L15 26L16 26L16 25L17 25L17 24L18 24L18 23L19 23L19 22L20 22L20 20L21 20L21 19L22 19L22 20L23 20L23 19L22 19L22 18L21 18L21 19L20 19L20 18L19 18L19 19L18 19L18 17L19 17L19 16L20 16L20 17L25 17L25 19L24 19L24 20L25 20L25 23L26 23L26 24L25 24L25 25L22 25L22 26L25 26L25 25L26 25L26 28L27 28L27 25L28 25L28 24L27 24L27 22L28 22L28 21L26 21L26 20L27 20L27 19L26 19L26 18L28 18L28 17L25 17L25 16L24 16L24 15L23 15L23 14L16 14L16 13L17 13L17 12L18 12L18 13L19 13L19 11L20 11L20 10L17 10L17 11L15 11L15 12L16 12L16 13L15 13L15 14L14 14L14 13L12 13L12 11L13 11L13 12L14 12L14 11L13 11L13 10L12 10L12 9L14 9L14 6L13 6L13 7L12 7L12 6ZM15 6L15 7L16 7L16 6ZM6 9L6 10L7 10L7 9ZM10 9L10 11L11 11L11 9ZM21 9L21 12L20 12L20 13L26 13L26 14L25 14L25 15L26 15L26 16L28 16L28 15L27 15L27 14L28 14L28 13L27 13L27 11L26 11L26 12L25 12L25 10L22 10L22 9ZM23 11L23 12L24 12L24 11ZM6 12L6 13L7 13L7 14L8 14L8 13L7 13L7 12ZM9 12L9 13L11 13L11 12ZM2 13L2 14L3 14L3 13ZM11 14L11 17L12 17L12 18L13 18L13 17L15 17L15 19L14 19L14 20L13 20L13 19L12 19L12 21L14 21L14 22L15 22L15 24L17 24L17 23L18 23L18 22L19 22L19 21L18 21L18 20L17 20L17 23L16 23L16 22L15 22L15 21L16 21L16 18L17 18L17 17L18 17L18 16L17 16L17 15L16 15L16 14L15 14L15 16L13 16L13 17L12 17L12 15L13 15L13 14ZM3 17L3 19L4 19L4 17ZM6 19L6 20L8 20L8 19ZM19 19L19 20L20 20L20 19ZM9 20L9 22L10 22L10 20ZM14 20L14 21L15 21L15 20ZM21 21L21 24L24 24L24 21ZM22 22L22 23L23 23L23 22ZM14 25L14 26L15 26L15 25ZM19 26L19 29L20 29L20 26ZM0 0L0 7L7 7L7 0ZM1 1L1 6L6 6L6 1ZM2 2L2 5L5 5L5 2ZM22 0L22 7L29 7L29 0ZM23 1L23 6L28 6L28 1ZM24 2L24 5L27 5L27 2ZM0 22L0 29L7 29L7 22ZM1 23L1 28L6 28L6 23ZM2 24L2 27L5 27L5 24Z" fill="#282828"/></g></g></svg>
