<?xml version="1.0" encoding="UTF-8"?>
<svg xmlns="http://www.w3.org/2000/svg" version="1.1" width="90" height="90" viewBox="0 0 90 90"><rect x="0" y="0" width="90" height="90" fill="#ffffff"/><g transform="scale(2.903)"><g transform="translate(1,1)"><path fill-rule="evenodd" d="M8 0L8 1L9 1L9 2L8 2L8 5L9 5L9 4L11 4L11 5L10 5L10 10L9 10L9 8L8 8L8 9L7 9L7 8L6 8L6 9L5 9L5 10L6 10L6 11L7 11L7 12L6 12L6 13L5 13L5 11L4 11L4 10L3 10L3 9L4 9L4 8L0 8L0 9L1 9L1 11L0 11L0 13L1 13L1 15L2 15L2 14L4 14L4 16L3 16L3 17L2 17L2 16L1 16L1 17L2 17L2 20L1 20L1 21L7 21L7 20L6 20L6 19L7 19L7 18L5 18L5 17L4 17L4 16L5 16L5 14L6 14L6 15L7 15L7 16L6 16L6 17L7 17L7 16L8 16L8 19L9 19L9 20L8 20L8 22L9 22L9 20L10 20L10 18L9 18L9 17L10 17L10 16L12 16L12 14L13 14L13 15L14 15L14 16L15 16L15 17L14 17L14 18L13 18L13 19L16 19L16 21L15 21L15 20L14 20L14 23L13 23L13 20L12 20L12 21L11 21L11 23L10 23L10 24L9 24L9 25L8 25L8 29L9 29L9 25L10 25L10 24L12 24L12 23L13 23L13 25L14 25L14 26L13 26L13 27L11 27L11 26L10 26L10 27L11 27L11 28L10 28L10 29L15 29L15 28L17 28L17 27L14 27L14 26L16 26L16 24L17 24L17 25L18 25L18 24L17 24L17 23L20 23L20 25L21 25L21 26L22 26L22 25L23 25L23 27L22 27L22 28L21 28L21 27L20 27L20 26L19 26L19 28L18 28L18 29L23 29L23 27L24 27L24 29L25 29L25 28L26 28L26 27L24 27L24 26L27 26L27 25L25 25L25 21L27 21L27 19L28 19L28 22L29 22L29 19L28 19L28 17L27 17L27 18L26 18L26 14L28 14L28 16L29 16L29 13L28 13L28 10L27 10L27 8L24 8L24 9L22 9L22 8L21 8L21 4L20 4L20 2L19 2L19 1L21 1L21 0L18 0L18 1L17 1L17 0L16 0L16 1L17 1L17 2L18 2L18 3L14 3L14 5L18 5L18 4L19 4L19 5L20 5L20 7L19 7L19 6L18 6L18 7L17 7L17 6L16 6L16 7L15 7L15 6L14 6L14 7L13 7L13 6L12 6L12 5L13 5L13 3L12 3L12 4L11 4L11 2L13 2L13 1L14 1L14 2L15 2L15 1L14 1L14 0L12 0L12 1L11 1L11 0L10 0L10 1L9 1L9 0ZM8 6L8 7L9 7L9 6ZM11 6L11 8L12 8L12 6ZM14 7L14 8L13 8L13 9L14 9L14 10L13 10L13 11L11 11L11 13L9 13L9 12L7 12L7 13L6 13L6 14L7 14L7 15L8 15L8 16L9 16L9 15L8 15L8 13L9 13L9 14L10 14L10 15L11 15L11 13L12 13L12 12L13 12L13 11L14 11L14 10L15 10L15 11L17 11L17 12L18 12L18 13L17 13L17 14L15 14L15 16L16 16L16 19L17 19L17 17L18 17L18 19L20 19L20 20L19 20L19 22L20 22L20 20L24 20L24 19L25 19L25 20L26 20L26 18L25 18L25 17L24 17L24 19L23 19L23 18L22 18L22 17L23 17L23 15L25 15L25 13L27 13L27 10L26 10L26 11L25 11L25 10L22 10L22 11L23 11L23 12L22 12L22 13L21 13L21 11L20 11L20 15L19 15L19 17L18 17L18 14L19 14L19 12L18 12L18 11L17 11L17 10L18 10L18 8L19 8L19 7L18 7L18 8L17 8L17 10L16 10L16 9L15 9L15 7ZM20 8L20 9L19 9L19 10L20 10L20 9L21 9L21 8ZM28 8L28 9L29 9L29 8ZM6 9L6 10L7 10L7 11L9 11L9 10L7 10L7 9ZM11 9L11 10L12 10L12 9ZM2 10L2 11L1 11L1 12L3 12L3 13L4 13L4 12L3 12L3 10ZM24 11L24 12L25 12L25 11ZM13 13L13 14L14 14L14 13ZM22 13L22 15L20 15L20 16L21 16L21 17L20 17L20 19L21 19L21 17L22 17L22 15L23 15L23 13ZM16 15L16 16L17 16L17 15ZM3 17L3 18L4 18L4 20L5 20L5 18L4 18L4 17ZM0 18L0 19L1 19L1 18ZM17 21L17 22L15 22L15 23L14 23L14 24L16 24L16 23L17 23L17 22L18 22L18 21ZM21 21L21 24L24 24L24 21ZM22 22L22 23L23 23L23 22ZM26 22L26 23L27 23L27 22ZM28 24L28 27L27 27L27 29L28 29L28 27L29 27L29 24ZM13 27L13 28L14 28L14 27ZM0 0L0 7L7 7L7 0ZM1 1L1 6L6 6L6 1ZM2 2L2 5L5 5L5 2ZM22 0L22 7L29 7L29 0ZM23 1L23 6L28 6L28 1ZM24 2L24 5L27 5L27 2ZM0 22L0 29L7 29L7 22ZM1 23L1 28L6 28L6 23ZM2 24L2 27L5 27L5 24Z" fill="#282828"/></g></g></svg>
