<?xml version="1.0" encoding="UTF-8"?>
<svg xmlns="http://www.w3.org/2000/svg" version="1.1" width="90" height="90" viewBox="0 0 90 90"><rect x="0" y="0" width="90" height="90" fill="#ffffff"/><g transform="scale(2.903)"><g transform="translate(1,1)"><path fill-rule="evenodd" d="M8 0L8 1L10 1L10 0ZM14 0L14 2L11 2L11 4L10 4L10 3L9 3L9 2L8 2L8 5L9 5L9 6L8 6L8 7L9 7L9 8L8 8L8 10L10 10L10 9L9 9L9 8L10 8L10 7L11 7L11 8L12 8L12 7L13 7L13 6L14 6L14 7L15 7L15 9L14 9L14 10L13 10L13 11L11 11L11 13L10 13L10 12L9 12L9 11L8 11L8 12L6 12L6 13L7 13L7 14L5 14L5 13L3 13L3 15L0 15L0 16L1 16L1 17L4 17L4 18L2 18L2 19L7 19L7 20L6 20L6 21L8 21L8 22L9 22L9 24L10 24L10 22L9 22L9 21L8 21L8 20L11 20L11 21L12 21L12 22L11 22L11 23L14 23L14 20L16 20L16 21L15 21L15 22L17 22L17 23L18 23L18 22L19 22L19 23L20 23L20 26L22 26L22 25L23 25L23 27L20 27L20 28L19 28L19 26L17 26L17 25L16 25L16 26L17 26L17 27L18 27L18 28L17 28L17 29L22 29L22 28L23 28L23 27L24 27L24 28L25 28L25 29L26 29L26 27L27 27L27 29L28 29L28 27L29 27L29 23L27 23L27 22L26 22L26 23L27 23L27 25L26 25L26 24L25 24L25 21L27 21L27 19L28 19L28 22L29 22L29 19L28 19L28 17L26 17L26 20L24 20L24 19L25 19L25 18L24 18L24 17L25 17L25 16L24 16L24 15L25 15L25 14L26 14L26 13L25 13L25 14L24 14L24 15L23 15L23 13L22 13L22 11L21 11L21 10L20 10L20 8L21 8L21 9L22 9L22 10L25 10L25 11L24 11L24 12L25 12L25 11L26 11L26 10L27 10L27 11L28 11L28 12L29 12L29 11L28 11L28 10L27 10L27 8L24 8L24 9L22 9L22 8L21 8L21 6L20 6L20 5L18 5L18 7L17 7L17 6L16 6L16 7L15 7L15 6L14 6L14 5L15 5L15 3L16 3L16 5L17 5L17 3L16 3L16 2L18 2L18 3L19 3L19 4L21 4L21 3L19 3L19 2L18 2L18 1L19 1L19 0L18 0L18 1L17 1L17 0L16 0L16 2L15 2L15 0ZM20 0L20 2L21 2L21 0ZM14 2L14 3L15 3L15 2ZM12 3L12 5L10 5L10 6L9 6L9 7L10 7L10 6L11 6L11 7L12 7L12 5L14 5L14 4L13 4L13 3ZM19 6L19 8L20 8L20 6ZM16 7L16 8L17 8L17 12L16 12L16 13L15 13L15 11L16 11L16 10L15 10L15 11L14 11L14 13L13 13L13 12L12 12L12 14L11 14L11 16L9 16L9 15L10 15L10 13L8 13L8 16L7 16L7 15L6 15L6 16L7 16L7 17L5 17L5 18L7 18L7 19L9 19L9 18L7 18L7 17L10 17L10 19L11 19L11 20L12 20L12 19L11 19L11 18L12 18L12 17L13 17L13 16L14 16L14 15L16 15L16 16L15 16L15 18L16 18L16 19L23 19L23 18L20 18L20 15L17 15L17 14L19 14L19 11L20 11L20 10L18 10L18 8L17 8L17 7ZM0 8L0 10L3 10L3 9L4 9L4 12L5 12L5 11L7 11L7 10L5 10L5 9L4 9L4 8ZM6 8L6 9L7 9L7 8ZM28 8L28 9L29 9L29 8ZM0 11L0 12L1 12L1 13L0 13L0 14L2 14L2 12L3 12L3 11ZM20 12L20 14L21 14L21 15L22 15L22 17L23 17L23 15L22 15L22 13L21 13L21 12ZM16 13L16 14L17 14L17 13ZM27 13L27 14L28 14L28 16L29 16L29 13ZM12 14L12 16L11 16L11 17L12 17L12 16L13 16L13 14ZM3 15L3 16L4 16L4 15ZM17 16L17 17L18 17L18 18L19 18L19 16ZM0 18L0 19L1 19L1 18ZM13 18L13 20L14 20L14 18ZM1 20L1 21L5 21L5 20ZM18 20L18 21L17 21L17 22L18 22L18 21L19 21L19 20ZM21 21L21 24L24 24L24 21ZM22 22L22 23L23 23L23 22ZM15 23L15 24L14 24L14 26L13 26L13 24L12 24L12 25L11 25L11 26L9 26L9 25L8 25L8 29L9 29L9 28L10 28L10 27L11 27L11 28L12 28L12 29L13 29L13 28L12 28L12 26L13 26L13 27L14 27L14 29L15 29L15 28L16 28L16 27L14 27L14 26L15 26L15 24L16 24L16 23ZM25 25L25 26L24 26L24 27L26 27L26 25ZM27 25L27 27L28 27L28 25ZM0 0L0 7L7 7L7 0ZM1 1L1 6L6 6L6 1ZM2 2L2 5L5 5L5 2ZM22 0L22 7L29 7L29 0ZM23 1L23 6L28 6L28 1ZM24 2L24 5L27 5L27 2ZM0 22L0 29L7 29L7 22ZM1 23L1 28L6 28L6 23ZM2 24L2 27L5 27L5 24Z" fill="#282828"/></g></g></svg>
