<?xml version="1.0" encoding="UTF-8"?>
<svg xmlns="http://www.w3.org/2000/svg" version="1.1" width="90" height="90" viewBox="0 0 90 90"><rect x="0" y="0" width="90" height="90" fill="#ffffff"/><g transform="scale(2.903)"><g transform="translate(1,1)"><path fill-rule="evenodd" d="M10 0L10 2L11 2L11 0ZM12 0L12 1L13 1L13 0ZM16 0L16 1L14 1L14 3L13 3L13 2L12 2L12 4L13 4L13 5L11 5L11 6L10 6L10 4L11 4L11 3L8 3L8 4L9 4L9 5L8 5L8 7L9 7L9 8L6 8L6 9L5 9L5 8L0 8L0 11L1 11L1 10L2 10L2 11L3 11L3 9L5 9L5 10L4 10L4 11L7 11L7 12L6 12L6 13L4 13L4 14L2 14L2 12L1 12L1 15L0 15L0 16L1 16L1 17L0 17L0 21L1 21L1 17L2 17L2 19L7 19L7 20L5 20L5 21L7 21L7 20L9 20L9 21L8 21L8 23L9 23L9 24L8 24L8 29L9 29L9 28L11 28L11 27L9 27L9 26L11 26L11 25L12 25L12 26L13 26L13 27L14 27L14 28L13 28L13 29L14 29L14 28L15 28L15 29L16 29L16 28L17 28L17 29L18 29L18 28L19 28L19 29L20 29L20 28L21 28L21 27L22 27L22 26L21 26L21 27L20 27L20 28L19 28L19 27L18 27L18 28L17 28L17 26L15 26L15 25L16 25L16 22L17 22L17 23L19 23L19 24L20 24L20 25L19 25L19 26L20 26L20 25L25 25L25 24L26 24L26 23L25 23L25 19L24 19L24 18L25 18L25 17L28 17L28 18L26 18L26 19L27 19L27 20L26 20L26 21L28 21L28 22L27 22L27 24L28 24L28 25L27 25L27 28L26 28L26 26L23 26L23 28L22 28L22 29L27 29L27 28L28 28L28 26L29 26L29 24L28 24L28 22L29 22L29 21L28 21L28 20L29 20L29 19L28 19L28 18L29 18L29 17L28 17L28 16L29 16L29 15L28 15L28 14L29 14L29 13L28 13L28 14L27 14L27 15L28 15L28 16L26 16L26 15L25 15L25 14L26 14L26 13L24 13L24 12L26 12L26 11L27 11L27 9L28 9L28 8L27 8L27 9L26 9L26 8L25 8L25 9L24 9L24 8L23 8L23 9L22 9L22 8L21 8L21 4L20 4L20 3L21 3L21 2L20 2L20 3L19 3L19 1L20 1L20 0L18 0L18 3L19 3L19 4L18 4L18 7L19 7L19 5L20 5L20 8L21 8L21 9L19 9L19 10L20 10L20 11L21 11L21 12L22 12L22 11L21 11L21 9L22 9L22 10L23 10L23 11L24 11L24 12L23 12L23 13L20 13L20 12L19 12L19 13L18 13L18 12L17 12L17 13L16 13L16 12L15 12L15 11L16 11L16 10L17 10L17 9L18 9L18 8L14 8L14 9L12 9L12 7L13 7L13 5L14 5L14 7L15 7L15 6L16 6L16 7L17 7L17 6L16 6L16 5L17 5L17 4L16 4L16 5L14 5L14 4L15 4L15 3L16 3L16 2L17 2L17 0ZM8 1L8 2L9 2L9 1ZM9 6L9 7L10 7L10 6ZM11 6L11 7L12 7L12 6ZM10 8L10 9L8 9L8 10L7 10L7 9L6 9L6 10L7 10L7 11L8 11L8 12L7 12L7 13L6 13L6 14L8 14L8 15L6 15L6 16L5 16L5 17L6 17L6 18L7 18L7 19L8 19L8 18L9 18L9 19L10 19L10 21L9 21L9 22L14 22L14 23L12 23L12 24L14 24L14 25L13 25L13 26L14 26L14 27L15 27L15 26L14 26L14 25L15 25L15 22L14 22L14 21L15 21L15 20L16 20L16 21L17 21L17 22L20 22L20 20L21 20L21 18L19 18L19 17L20 17L20 16L22 16L22 17L23 17L23 14L18 14L18 13L17 13L17 14L18 14L18 15L16 15L16 17L13 17L13 16L15 16L15 14L16 14L16 13L15 13L15 14L14 14L14 13L12 13L12 11L13 11L13 12L14 12L14 11L13 11L13 10L12 10L12 9L11 9L11 8ZM10 9L10 11L11 11L11 9ZM15 9L15 10L16 10L16 9ZM24 10L24 11L25 11L25 10ZM9 12L9 13L11 13L11 12ZM4 14L4 15L5 15L5 14ZM10 14L10 16L9 16L9 18L10 18L10 19L11 19L11 18L10 18L10 16L11 16L11 17L12 17L12 18L13 18L13 17L12 17L12 15L13 15L13 14ZM1 15L1 16L3 16L3 18L4 18L4 16L3 16L3 15ZM19 15L19 16L20 16L20 15ZM6 16L6 17L8 17L8 16ZM17 16L17 17L16 17L16 18L15 18L15 19L14 19L14 20L13 20L13 19L12 19L12 21L14 21L14 20L15 20L15 19L16 19L16 20L17 20L17 21L18 21L18 20L17 20L17 17L18 17L18 16ZM24 16L24 17L25 17L25 16ZM22 18L22 20L23 20L23 18ZM19 19L19 20L20 20L20 19ZM2 20L2 21L4 21L4 20ZM21 21L21 24L24 24L24 21ZM22 22L22 23L23 23L23 22ZM10 23L10 24L9 24L9 25L10 25L10 24L11 24L11 23ZM17 24L17 25L18 25L18 24ZM0 0L0 7L7 7L7 0ZM1 1L1 6L6 6L6 1ZM2 2L2 5L5 5L5 2ZM22 0L22 7L29 7L29 0ZM23 1L23 6L28 6L28 1ZM24 2L24 5L27 5L27 2ZM0 22L0 29L7 29L7 22ZM1 23L1 28L6 28L6 23ZM2 24L2 27L5 27L5 24Z" fill="#282828"/></g></g></svg>
