<?xml version="1.0" encoding="UTF-8"?>
<svg xmlns="http://www.w3.org/2000/svg" version="1.1" width="90" height="90" viewBox="0 0 90 90"><rect x="0" y="0" width="90" height="90" fill="#ffffff"/><g transform="scale(3.333)"><g transform="translate(1,1)"><path fill-rule="evenodd" d="M11 0L11 2L10 2L10 3L9 3L9 1L8 1L8 3L9 3L9 4L8 4L8 8L6 8L6 9L4 9L4 8L3 8L3 9L2 9L2 8L0 8L0 9L1 9L1 10L0 10L0 13L1 13L1 12L2 12L2 11L4 11L4 12L3 12L3 13L2 13L2 15L1 15L1 14L0 14L0 15L1 15L1 16L0 16L0 17L4 17L4 16L2 16L2 15L3 15L3 13L4 13L4 12L5 12L5 11L7 11L7 10L8 10L8 12L6 12L6 13L8 13L8 14L6 14L6 15L7 15L7 16L5 16L5 17L7 17L7 16L9 16L9 15L10 15L10 17L8 17L8 19L9 19L9 20L10 20L10 21L11 21L11 22L13 22L13 23L12 23L12 25L14 25L14 23L15 23L15 25L19 25L19 24L20 24L20 25L21 25L21 24L22 24L22 23L23 23L23 22L22 22L22 20L25 20L25 9L24 9L24 8L22 8L22 9L24 9L24 11L23 11L23 10L22 10L22 11L23 11L23 12L21 12L21 10L20 10L20 11L19 11L19 9L21 9L21 8L18 8L18 10L16 10L16 11L15 11L15 10L13 10L13 12L12 12L12 14L11 14L11 15L10 15L10 13L11 13L11 11L9 11L9 10L10 10L10 9L8 9L8 8L9 8L9 5L10 5L10 8L11 8L11 9L12 9L12 8L11 8L11 5L13 5L13 6L12 6L12 7L13 7L13 6L14 6L14 7L15 7L15 8L13 8L13 9L15 9L15 8L16 8L16 9L17 9L17 6L16 6L16 5L17 5L17 4L16 4L16 5L15 5L15 6L14 6L14 4L15 4L15 3L16 3L16 2L17 2L17 1L16 1L16 0L14 0L14 1L15 1L15 2L14 2L14 4L13 4L13 0ZM11 2L11 3L10 3L10 5L11 5L11 3L12 3L12 2ZM15 6L15 7L16 7L16 6ZM3 9L3 10L4 10L4 11L5 11L5 10L4 10L4 9ZM6 9L6 10L7 10L7 9ZM1 10L1 11L2 11L2 10ZM17 11L17 12L19 12L19 13L20 13L20 14L18 14L18 16L20 16L20 14L22 14L22 15L21 15L21 20L22 20L22 18L23 18L23 19L24 19L24 18L23 18L23 17L24 17L24 16L23 16L23 14L24 14L24 12L23 12L23 13L21 13L21 12L19 12L19 11ZM9 12L9 13L10 13L10 12ZM14 12L14 13L13 13L13 15L12 15L12 16L11 16L11 17L10 17L10 18L9 18L9 19L11 19L11 21L13 21L13 22L15 22L15 21L16 21L16 22L17 22L17 24L19 24L19 23L20 23L20 22L21 22L21 23L22 23L22 22L21 22L21 21L20 21L20 22L19 22L19 21L16 21L16 19L15 19L15 18L14 18L14 17L15 17L15 16L13 16L13 15L16 15L16 16L17 16L17 13L16 13L16 12ZM4 14L4 15L5 15L5 14ZM11 17L11 18L13 18L13 17ZM17 17L17 20L20 20L20 17ZM18 18L18 19L19 19L19 18ZM12 19L12 20L13 20L13 21L15 21L15 20L13 20L13 19ZM8 21L8 22L9 22L9 21ZM24 22L24 23L25 23L25 22ZM8 23L8 25L9 25L9 23ZM23 24L23 25L25 25L25 24ZM0 0L0 7L7 7L7 0ZM1 1L1 6L6 6L6 1ZM2 2L2 5L5 5L5 2ZM18 0L18 7L25 7L25 0ZM19 1L19 6L24 6L24 1ZM20 2L20 5L23 5L23 2ZM0 18L0 25L7 25L7 18ZM1 19L1 24L6 24L6 19ZM2 20L2 23L5 23L5 20Z" fill="#282828"/></g></g></svg>
