<?xml version="1.0" encoding="UTF-8"?>
<svg xmlns="http://www.w3.org/2000/svg" version="1.1" width="90" height="90" viewBox="0 0 90 90"><rect x="0" y="0" width="90" height="90" fill="#ffffff"/><g transform="scale(2.903)"><g transform="translate(1,1)"><path fill-rule="evenodd" d="M8 0L8 1L9 1L9 2L8 2L8 5L9 5L9 4L11 4L11 5L10 5L10 10L9 10L9 8L8 8L8 10L9 10L9 12L6 12L6 13L8 13L8 14L9 14L9 15L8 15L8 16L6 16L6 15L7 15L7 14L5 14L5 16L4 16L4 12L5 12L5 11L7 11L7 10L4 10L4 8L0 8L0 9L1 9L1 10L2 10L2 11L1 11L1 12L2 12L2 13L3 13L3 15L2 15L2 14L1 14L1 13L0 13L0 14L1 14L1 16L0 16L0 17L1 17L1 16L2 16L2 17L5 17L5 16L6 16L6 17L7 17L7 18L6 18L6 19L5 19L5 18L2 18L2 20L1 20L1 21L3 21L3 19L5 19L5 20L4 20L4 21L5 21L5 20L6 20L6 21L7 21L7 20L8 20L8 22L9 22L9 23L10 23L10 24L9 24L9 25L8 25L8 29L12 29L12 28L14 28L14 27L15 27L15 28L16 28L16 29L17 29L17 27L18 27L18 29L21 29L21 28L22 28L22 29L23 29L23 28L26 28L26 27L27 27L27 29L28 29L28 27L29 27L29 25L28 25L28 27L27 27L27 26L25 26L25 21L27 21L27 19L28 19L28 22L29 22L29 19L28 19L28 17L27 17L27 18L26 18L26 14L28 14L28 16L29 16L29 13L25 13L25 15L24 15L24 14L23 14L23 19L24 19L24 17L25 17L25 18L26 18L26 20L22 20L22 18L21 18L21 17L22 17L22 16L20 16L20 18L21 18L21 19L20 19L20 22L19 22L19 19L17 19L17 18L18 18L18 17L19 17L19 15L22 15L22 14L21 14L21 13L19 13L19 12L20 12L20 11L21 11L21 10L23 10L23 11L22 11L22 12L25 12L25 11L26 11L26 10L27 10L27 12L28 12L28 10L27 10L27 8L24 8L24 10L23 10L23 9L22 9L22 8L21 8L21 6L20 6L20 4L19 4L19 5L18 5L18 3L21 3L21 2L19 2L19 1L21 1L21 0L19 0L19 1L18 1L18 3L17 3L17 2L15 2L15 0L14 0L14 1L13 1L13 0L12 0L12 1L11 1L11 0L10 0L10 1L9 1L9 0ZM11 2L11 4L12 4L12 3L13 3L13 2ZM14 3L14 4L13 4L13 5L12 5L12 6L11 6L11 8L12 8L12 6L13 6L13 8L14 8L14 11L11 11L11 13L9 13L9 14L10 14L10 15L9 15L9 16L8 16L8 19L9 19L9 21L11 21L11 23L14 23L14 22L15 22L15 24L12 24L12 26L11 26L11 27L9 27L9 28L12 28L12 26L13 26L13 27L14 27L14 26L15 26L15 27L16 27L16 26L15 26L15 25L17 25L17 24L18 24L18 25L19 25L19 26L18 26L18 27L21 27L21 26L20 26L20 23L19 23L19 22L18 22L18 21L17 21L17 22L16 22L16 20L17 20L17 19L15 19L15 21L13 21L13 18L14 18L14 15L15 15L15 16L16 16L16 15L17 15L17 16L18 16L18 15L19 15L19 13L18 13L18 14L14 14L14 12L16 12L16 11L17 11L17 12L19 12L19 11L20 11L20 9L21 9L21 8L19 8L19 11L17 11L17 10L16 10L16 8L17 8L17 7L18 7L18 5L17 5L17 4L16 4L16 5L15 5L15 3ZM14 5L14 7L15 7L15 5ZM8 6L8 7L9 7L9 6ZM16 6L16 7L17 7L17 6ZM19 6L19 7L20 7L20 6ZM6 8L6 9L7 9L7 8ZM28 8L28 9L29 9L29 8ZM11 9L11 10L12 10L12 9ZM24 10L24 11L25 11L25 10ZM2 11L2 12L3 12L3 11ZM12 12L12 13L11 13L11 15L10 15L10 17L9 17L9 18L11 18L11 16L12 16L12 17L13 17L13 16L12 16L12 14L13 14L13 15L14 15L14 14L13 14L13 12ZM15 17L15 18L17 18L17 17ZM0 18L0 19L1 19L1 18ZM6 19L6 20L7 20L7 19ZM11 19L11 20L12 20L12 19ZM21 21L21 24L24 24L24 21ZM17 22L17 23L16 23L16 24L17 24L17 23L18 23L18 24L19 24L19 23L18 23L18 22ZM22 22L22 23L23 23L23 22ZM26 22L26 23L27 23L27 22ZM10 24L10 25L11 25L11 24ZM13 25L13 26L14 26L14 25ZM22 25L22 28L23 28L23 26L24 26L24 27L25 27L25 26L24 26L24 25ZM0 0L0 7L7 7L7 0ZM1 1L1 6L6 6L6 1ZM2 2L2 5L5 5L5 2ZM22 0L22 7L29 7L29 0ZM23 1L23 6L28 6L28 1ZM24 2L24 5L27 5L27 2ZM0 22L0 29L7 29L7 22ZM1 23L1 28L6 28L6 23ZM2 24L2 27L5 27L5 24Z" fill="#282828"/></g></g></svg>
