<?xml version="1.0" encoding="UTF-8"?>
<svg xmlns="http://www.w3.org/2000/svg" version="1.1" width="90" height="90" viewBox="0 0 90 90"><rect x="0" y="0" width="90" height="90" fill="#ffffff"/><g transform="scale(2.903)"><g transform="translate(1,1)"><path fill-rule="evenodd" d="M8 0L8 1L9 1L9 2L8 2L8 5L9 5L9 4L11 4L11 5L10 5L10 10L9 10L9 11L8 11L8 13L7 13L7 12L6 12L6 13L7 13L7 14L6 14L6 15L5 15L5 13L4 13L4 11L7 11L7 10L5 10L5 9L4 9L4 8L0 8L0 11L1 11L1 13L0 13L0 14L1 14L1 15L0 15L0 17L3 17L3 18L2 18L2 20L1 20L1 21L2 21L2 20L3 20L3 21L4 21L4 20L5 20L5 21L7 21L7 20L5 20L5 19L4 19L4 18L5 18L5 17L3 17L3 16L6 16L6 17L7 17L7 18L6 18L6 19L7 19L7 18L8 18L8 20L9 20L9 19L11 19L11 20L12 20L12 19L11 19L11 18L10 18L10 15L11 15L11 16L12 16L12 17L13 17L13 18L14 18L14 16L12 16L12 14L13 14L13 15L14 15L14 14L13 14L13 13L16 13L16 15L15 15L15 16L16 16L16 15L17 15L17 14L18 14L18 15L19 15L19 16L18 16L18 18L17 18L17 17L15 17L15 19L16 19L16 22L17 22L17 23L18 23L18 24L17 24L17 25L15 25L15 26L16 26L16 27L14 27L14 28L13 28L13 26L12 26L12 25L14 25L14 23L15 23L15 21L14 21L14 22L13 22L13 23L11 23L11 22L10 22L10 21L8 21L8 22L9 22L9 23L10 23L10 24L11 24L11 25L8 25L8 29L9 29L9 28L10 28L10 27L11 27L11 26L12 26L12 29L16 29L16 28L17 28L17 26L18 26L18 27L19 27L19 26L22 26L22 25L23 25L23 27L22 27L22 28L23 28L23 29L24 29L24 28L25 28L25 27L24 27L24 25L25 25L25 26L27 26L27 24L26 24L26 25L25 25L25 22L26 22L26 23L27 23L27 19L28 19L28 22L29 22L29 19L28 19L28 17L26 17L26 18L27 18L27 19L25 19L25 18L24 18L24 17L25 17L25 16L26 16L26 15L24 15L24 14L23 14L23 13L24 13L24 12L23 12L23 11L26 11L26 10L27 10L27 14L28 14L28 16L29 16L29 11L28 11L28 10L27 10L27 8L24 8L24 9L22 9L22 8L21 8L21 9L19 9L19 8L20 8L20 7L21 7L21 5L20 5L20 4L21 4L21 3L20 3L20 4L19 4L19 2L18 2L18 1L20 1L20 2L21 2L21 0L18 0L18 1L17 1L17 0L16 0L16 2L15 2L15 0L14 0L14 1L13 1L13 0L12 0L12 1L11 1L11 0L10 0L10 1L9 1L9 0ZM11 2L11 4L12 4L12 3L13 3L13 2ZM14 2L14 3L15 3L15 4L17 4L17 3L18 3L18 2L16 2L16 3L15 3L15 2ZM13 4L13 5L12 5L12 6L11 6L11 8L12 8L12 6L13 6L13 8L16 8L16 5L14 5L14 4ZM18 4L18 5L17 5L17 7L18 7L18 8L17 8L17 9L18 9L18 8L19 8L19 7L20 7L20 6L19 6L19 4ZM13 5L13 6L14 6L14 7L15 7L15 6L14 6L14 5ZM8 6L8 7L9 7L9 6ZM18 6L18 7L19 7L19 6ZM6 8L6 9L7 9L7 8ZM8 8L8 9L9 9L9 8ZM28 8L28 9L29 9L29 8ZM3 9L3 11L2 11L2 13L1 13L1 14L2 14L2 16L3 16L3 15L4 15L4 13L3 13L3 11L4 11L4 9ZM11 9L11 10L12 10L12 9ZM15 9L15 10L14 10L14 11L16 11L16 13L17 13L17 12L18 12L18 13L19 13L19 12L18 12L18 11L17 11L17 10L16 10L16 9ZM19 10L19 11L20 11L20 10ZM21 10L21 11L22 11L22 10ZM11 11L11 13L9 13L9 14L7 14L7 15L6 15L6 16L7 16L7 15L8 15L8 16L9 16L9 15L10 15L10 14L11 14L11 13L12 13L12 12L13 12L13 11ZM20 12L20 15L21 15L21 16L22 16L22 17L21 17L21 18L19 18L19 19L18 19L18 20L20 20L20 19L21 19L21 20L24 20L24 19L22 19L22 18L23 18L23 17L24 17L24 16L23 16L23 15L21 15L21 14L22 14L22 13L23 13L23 12ZM25 13L25 14L26 14L26 13ZM19 16L19 17L20 17L20 16ZM8 17L8 18L9 18L9 17ZM0 18L0 19L1 19L1 18ZM3 19L3 20L4 20L4 19ZM19 21L19 22L18 22L18 23L19 23L19 22L20 22L20 21ZM21 21L21 24L24 24L24 21ZM22 22L22 23L23 23L23 22ZM28 23L28 27L27 27L27 29L28 29L28 27L29 27L29 23ZM18 24L18 26L19 26L19 25L20 25L20 24ZM9 26L9 27L10 27L10 26ZM20 27L20 28L18 28L18 29L21 29L21 27ZM23 27L23 28L24 28L24 27ZM0 0L0 7L7 7L7 0ZM1 1L1 6L6 6L6 1ZM2 2L2 5L5 5L5 2ZM22 0L22 7L29 7L29 0ZM23 1L23 6L28 6L28 1ZM24 2L24 5L27 5L27 2ZM0 22L0 29L7 29L7 22ZM1 23L1 28L6 28L6 23ZM2 24L2 27L5 27L5 24Z" fill="#282828"/></g></g></svg>
