<?xml version="1.0" encoding="UTF-8"?>
<svg xmlns="http://www.w3.org/2000/svg" version="1.1" width="90" height="90" viewBox="0 0 90 90"><rect x="0" y="0" width="90" height="90" fill="#ffffff"/><g transform="scale(2.903)"><g transform="translate(1,1)"><path fill-rule="evenodd" d="M8 0L8 1L10 1L10 0ZM14 0L14 1L13 1L13 2L11 2L11 4L10 4L10 3L9 3L9 2L8 2L8 5L9 5L9 6L8 6L8 7L9 7L9 8L8 8L8 9L7 9L7 8L6 8L6 9L7 9L7 10L5 10L5 9L4 9L4 8L0 8L0 9L1 9L1 10L0 10L0 11L1 11L1 13L2 13L2 14L1 14L1 15L0 15L0 16L1 16L1 17L2 17L2 18L3 18L3 16L4 16L4 17L5 17L5 16L6 16L6 17L7 17L7 18L4 18L4 19L2 19L2 20L1 20L1 21L2 21L2 20L4 20L4 19L7 19L7 20L5 20L5 21L8 21L8 22L10 22L10 24L12 24L12 23L13 23L13 25L14 25L14 26L13 26L13 27L11 27L11 28L10 28L10 29L16 29L16 28L17 28L17 29L24 29L24 28L26 28L26 27L27 27L27 29L28 29L28 27L29 27L29 23L27 23L27 24L25 24L25 22L26 22L26 20L27 20L27 19L28 19L28 22L29 22L29 19L28 19L28 17L27 17L27 19L24 19L24 20L23 20L23 18L24 18L24 17L25 17L25 18L26 18L26 17L25 17L25 15L28 15L28 16L29 16L29 14L28 14L28 13L29 13L29 12L28 12L28 9L29 9L29 8L28 8L28 9L27 9L27 8L24 8L24 12L26 12L26 13L25 13L25 14L22 14L22 13L21 13L21 14L22 14L22 16L21 16L21 15L20 15L20 13L19 13L19 14L18 14L18 13L16 13L16 14L17 14L17 15L20 15L20 16L21 16L21 17L20 17L20 20L19 20L19 18L18 18L18 19L17 19L17 18L15 18L15 17L16 17L16 15L15 15L15 12L14 12L14 9L15 9L15 10L16 10L16 11L18 11L18 12L21 12L21 11L19 11L19 10L20 10L20 8L21 8L21 10L23 10L23 9L22 9L22 8L21 8L21 6L20 6L20 5L19 5L19 4L17 4L17 1L18 1L18 3L19 3L19 0ZM20 0L20 3L21 3L21 0ZM15 1L15 2L16 2L16 1ZM12 3L12 5L10 5L10 6L9 6L9 7L10 7L10 8L9 8L9 9L8 9L8 10L7 10L7 11L6 11L6 12L5 12L5 11L2 11L2 10L4 10L4 9L2 9L2 10L1 10L1 11L2 11L2 12L3 12L3 14L2 14L2 16L3 16L3 14L4 14L4 16L5 16L5 13L6 13L6 14L10 14L10 18L9 18L9 16L8 16L8 18L9 18L9 19L8 19L8 20L9 20L9 19L11 19L11 20L10 20L10 22L12 22L12 21L13 21L13 23L14 23L14 24L15 24L15 23L16 23L16 25L15 25L15 26L14 26L14 27L13 27L13 28L14 28L14 27L15 27L15 28L16 28L16 25L17 25L17 24L19 24L19 25L18 25L18 26L17 26L17 28L18 28L18 27L19 27L19 26L20 26L20 27L22 27L22 28L23 28L23 25L22 25L22 26L21 26L21 25L20 25L20 23L19 23L19 22L20 22L20 21L18 21L18 20L16 20L16 19L13 19L13 20L12 20L12 19L11 19L11 18L12 18L12 17L13 17L13 18L14 18L14 17L15 17L15 16L14 16L14 12L12 12L12 14L10 14L10 13L11 13L11 11L13 11L13 8L15 8L15 9L16 9L16 8L17 8L17 10L18 10L18 8L17 8L17 7L18 7L18 5L16 5L16 4L15 4L15 5L14 5L14 6L13 6L13 7L12 7L12 5L13 5L13 4L14 4L14 3ZM10 6L10 7L11 7L11 8L12 8L12 7L11 7L11 6ZM14 6L14 7L15 7L15 6ZM16 6L16 7L17 7L17 6ZM19 6L19 8L20 8L20 6ZM9 9L9 10L10 10L10 9ZM7 11L7 12L6 12L6 13L7 13L7 12L8 12L8 11ZM22 11L22 12L23 12L23 11ZM26 11L26 12L27 12L27 13L26 13L26 14L27 14L27 13L28 13L28 12L27 12L27 11ZM4 12L4 13L5 13L5 12ZM9 12L9 13L10 13L10 12ZM12 14L12 16L11 16L11 17L12 17L12 16L13 16L13 14ZM6 15L6 16L7 16L7 15ZM23 15L23 16L22 16L22 17L21 17L21 19L22 19L22 18L23 18L23 16L24 16L24 15ZM17 16L17 17L19 17L19 16ZM0 18L0 19L1 19L1 18ZM11 20L11 21L12 21L12 20ZM14 20L14 23L15 23L15 22L16 22L16 23L18 23L18 22L17 22L17 21L15 21L15 20ZM21 21L21 24L24 24L24 21ZM22 22L22 23L23 23L23 22ZM27 24L27 27L28 27L28 24ZM8 25L8 29L9 29L9 27L10 27L10 26L9 26L9 25ZM25 25L25 26L24 26L24 27L25 27L25 26L26 26L26 25ZM0 0L0 7L7 7L7 0ZM1 1L1 6L6 6L6 1ZM2 2L2 5L5 5L5 2ZM22 0L22 7L29 7L29 0ZM23 1L23 6L28 6L28 1ZM24 2L24 5L27 5L27 2ZM0 22L0 29L7 29L7 22ZM1 23L1 28L6 28L6 23ZM2 24L2 27L5 27L5 24Z" fill="#282828"/></g></g></svg>
