<?xml version="1.0" encoding="UTF-8"?>
<svg xmlns="http://www.w3.org/2000/svg" version="1.1" width="90" height="90" viewBox="0 0 90 90"><rect x="0" y="0" width="90" height="90" fill="#ffffff"/><g transform="scale(2.903)"><g transform="translate(1,1)"><path fill-rule="evenodd" d="M8 0L8 1L9 1L9 2L8 2L8 5L9 5L9 4L11 4L11 5L10 5L10 10L9 10L9 8L8 8L8 11L7 11L7 10L6 10L6 11L5 11L5 9L4 9L4 8L0 8L0 9L1 9L1 10L2 10L2 12L3 12L3 10L4 10L4 14L3 14L3 13L1 13L1 12L0 12L0 13L1 13L1 14L2 14L2 15L0 15L0 17L1 17L1 18L0 18L0 19L1 19L1 18L2 18L2 17L3 17L3 16L2 16L2 15L5 15L5 12L6 12L6 13L7 13L7 14L6 14L6 15L7 15L7 16L6 16L6 17L7 17L7 18L6 18L6 19L4 19L4 18L5 18L5 16L4 16L4 18L3 18L3 19L2 19L2 20L1 20L1 21L8 21L8 22L9 22L9 23L10 23L10 22L11 22L11 23L13 23L13 24L12 24L12 26L14 26L14 28L13 28L13 27L12 27L12 28L11 28L11 24L10 24L10 28L11 28L11 29L14 29L14 28L15 28L15 26L14 26L14 25L15 25L15 24L16 24L16 23L17 23L17 22L16 22L16 23L15 23L15 24L14 24L14 21L15 21L15 20L12 20L12 21L10 21L10 20L9 20L9 19L8 19L8 20L6 20L6 19L7 19L7 18L9 18L9 17L8 17L8 15L9 15L9 14L10 14L10 15L11 15L11 14L10 14L10 13L11 13L11 11L13 11L13 12L14 12L14 14L13 14L13 15L14 15L14 16L15 16L15 17L13 17L13 16L11 16L11 18L10 18L10 19L11 19L11 18L12 18L12 19L13 19L13 18L14 18L14 19L16 19L16 18L15 18L15 17L16 17L16 16L17 16L17 17L18 17L18 18L17 18L17 20L16 20L16 21L17 21L17 20L18 20L18 21L19 21L19 16L17 16L17 15L20 15L20 16L21 16L21 17L20 17L20 19L21 19L21 18L22 18L22 15L24 15L24 14L23 14L23 13L21 13L21 12L25 12L25 11L26 11L26 10L27 10L27 14L28 14L28 15L27 15L27 17L26 17L26 18L27 18L27 19L25 19L25 20L20 20L20 26L18 26L18 25L16 25L16 27L17 27L17 26L18 26L18 27L20 27L20 29L22 29L22 28L21 28L21 27L20 27L20 26L22 26L22 25L23 25L23 27L24 27L24 28L23 28L23 29L24 29L24 28L25 28L25 27L24 27L24 25L25 25L25 26L28 26L28 27L27 27L27 29L28 29L28 27L29 27L29 25L28 25L28 24L29 24L29 23L28 23L28 24L26 24L26 25L25 25L25 22L26 22L26 23L27 23L27 19L28 19L28 22L29 22L29 19L28 19L28 15L29 15L29 13L28 13L28 12L29 12L29 11L28 11L28 10L27 10L27 8L24 8L24 9L22 9L22 8L21 8L21 5L20 5L20 4L19 4L19 3L21 3L21 2L19 2L19 1L21 1L21 0L14 0L14 1L16 1L16 2L19 2L19 3L14 3L14 2L13 2L13 0L12 0L12 1L11 1L11 0L10 0L10 1L9 1L9 0ZM11 2L11 4L12 4L12 3L13 3L13 5L12 5L12 6L11 6L11 8L12 8L12 9L11 9L11 10L12 10L12 9L13 9L13 8L15 8L15 9L14 9L14 10L13 10L13 11L14 11L14 12L15 12L15 11L16 11L16 13L15 13L15 16L16 16L16 13L17 13L17 14L19 14L19 13L20 13L20 14L21 14L21 13L20 13L20 12L21 12L21 11L20 11L20 10L19 10L19 12L18 12L18 11L16 11L16 10L15 10L15 9L16 9L16 6L17 6L17 7L18 7L18 8L17 8L17 9L18 9L18 8L19 8L19 9L21 9L21 8L20 8L20 6L19 6L19 4L18 4L18 5L16 5L16 4L15 4L15 5L14 5L14 3L13 3L13 2ZM8 6L8 7L9 7L9 6ZM12 6L12 8L13 8L13 6ZM14 6L14 7L15 7L15 6ZM18 6L18 7L19 7L19 6ZM6 8L6 9L7 9L7 8ZM28 8L28 9L29 9L29 8ZM14 10L14 11L15 11L15 10ZM22 10L22 11L23 11L23 10ZM6 11L6 12L7 12L7 11ZM8 11L8 12L9 12L9 11ZM25 13L25 14L26 14L26 13ZM7 14L7 15L8 15L8 14ZM25 15L25 16L23 16L23 19L24 19L24 17L25 17L25 16L26 16L26 15ZM12 17L12 18L13 18L13 17ZM3 19L3 20L4 20L4 19ZM21 21L21 24L24 24L24 21ZM22 22L22 23L23 23L23 22ZM18 23L18 24L19 24L19 23ZM13 24L13 25L14 25L14 24ZM8 25L8 29L9 29L9 25ZM17 28L17 29L19 29L19 28ZM0 0L0 7L7 7L7 0ZM1 1L1 6L6 6L6 1ZM2 2L2 5L5 5L5 2ZM22 0L22 7L29 7L29 0ZM23 1L23 6L28 6L28 1ZM24 2L24 5L27 5L27 2ZM0 22L0 29L7 29L7 22ZM1 23L1 28L6 28L6 23ZM2 24L2 27L5 27L5 24Z" fill="#282828"/></g></g></svg>
