<?xml version="1.0" encoding="UTF-8"?>
<svg xmlns="http://www.w3.org/2000/svg" version="1.1" width="90" height="90" viewBox="0 0 90 90"><rect x="0" y="0" width="90" height="90" fill="#ffffff"/><g transform="scale(2.903)"><g transform="translate(1,1)"><path fill-rule="evenodd" d="M8 0L8 4L9 4L9 5L8 5L8 7L9 7L9 6L10 6L10 9L11 9L11 8L12 8L12 9L13 9L13 10L15 10L15 11L14 11L14 12L13 12L13 11L12 11L12 12L11 12L11 13L10 13L10 17L11 17L11 16L12 16L12 17L13 17L13 18L15 18L15 19L14 19L14 20L13 20L13 19L12 19L12 20L11 20L11 18L9 18L9 14L8 14L8 16L5 16L5 14L4 14L4 12L5 12L5 13L8 13L8 11L9 11L9 12L10 12L10 11L11 11L11 10L9 10L9 9L8 9L8 10L6 10L6 9L7 9L7 8L4 8L4 9L2 9L2 8L0 8L0 12L1 12L1 13L0 13L0 14L1 14L1 16L2 16L2 15L3 15L3 14L4 14L4 16L3 16L3 17L5 17L5 19L4 19L4 18L2 18L2 17L0 17L0 18L2 18L2 19L4 19L4 21L5 21L5 19L7 19L7 20L6 20L6 21L8 21L8 22L9 22L9 23L8 23L8 25L9 25L9 26L10 26L10 27L11 27L11 24L12 24L12 25L13 25L13 26L15 26L15 27L14 27L14 28L13 28L13 27L12 27L12 28L11 28L11 29L12 29L12 28L13 28L13 29L15 29L15 28L16 28L16 27L17 27L17 28L18 28L18 27L19 27L19 26L21 26L21 27L20 27L20 28L19 28L19 29L22 29L22 28L23 28L23 29L25 29L25 28L26 28L26 29L28 29L28 28L29 28L29 25L28 25L28 24L29 24L29 21L26 21L26 20L23 20L23 19L22 19L22 18L21 18L21 19L20 19L20 20L19 20L19 19L18 19L18 17L17 17L17 16L18 16L18 15L19 15L19 14L20 14L20 13L22 13L22 12L24 12L24 13L23 13L23 18L26 18L26 19L27 19L27 20L28 20L28 19L29 19L29 17L28 17L28 16L29 16L29 13L27 13L27 12L28 12L28 11L29 11L29 10L28 10L28 9L29 9L29 8L25 8L25 9L24 9L24 8L23 8L23 10L20 10L20 7L21 7L21 5L20 5L20 4L19 4L19 2L20 2L20 3L21 3L21 2L20 2L20 0L19 0L19 1L17 1L17 4L18 4L18 5L19 5L19 6L18 6L18 7L17 7L17 6L16 6L16 9L14 9L14 7L15 7L15 6L14 6L14 7L13 7L13 6L12 6L12 7L11 7L11 3L10 3L10 2L9 2L9 0ZM13 0L13 1L11 1L11 2L12 2L12 5L13 5L13 1L14 1L14 2L15 2L15 4L14 4L14 5L16 5L16 2L15 2L15 1L16 1L16 0L15 0L15 1L14 1L14 0ZM19 6L19 7L20 7L20 6ZM12 7L12 8L13 8L13 7ZM1 9L1 10L2 10L2 9ZM16 9L16 11L17 11L17 10L18 10L18 12L15 12L15 13L13 13L13 12L12 12L12 13L11 13L11 14L12 14L12 13L13 13L13 14L15 14L15 13L17 13L17 14L18 14L18 13L19 13L19 12L20 12L20 10L18 10L18 9ZM25 9L25 10L24 10L24 11L25 11L25 10L27 10L27 11L26 11L26 12L27 12L27 11L28 11L28 10L27 10L27 9ZM5 10L5 12L7 12L7 11L6 11L6 10ZM2 11L2 12L3 12L3 11ZM21 11L21 12L22 12L22 11ZM2 13L2 14L3 14L3 13ZM25 13L25 14L24 14L24 16L25 16L25 17L27 17L27 14L26 14L26 13ZM6 14L6 15L7 15L7 14ZM12 15L12 16L13 16L13 15ZM14 15L14 17L16 17L16 16L15 16L15 15ZM21 15L21 16L20 16L20 17L19 17L19 18L20 18L20 17L22 17L22 15ZM25 15L25 16L26 16L26 15ZM6 17L6 18L7 18L7 17ZM8 18L8 20L9 20L9 21L10 21L10 23L9 23L9 24L11 24L11 22L12 22L12 21L13 21L13 22L16 22L16 23L17 23L17 22L18 22L18 23L20 23L20 21L19 21L19 20L17 20L17 18L16 18L16 19L15 19L15 20L17 20L17 22L16 22L16 21L13 21L13 20L12 20L12 21L11 21L11 20L10 20L10 19L9 19L9 18ZM21 19L21 20L22 20L22 19ZM0 20L0 21L3 21L3 20ZM18 21L18 22L19 22L19 21ZM21 21L21 24L24 24L24 21ZM22 22L22 23L23 23L23 22ZM25 22L25 23L26 23L26 24L25 24L25 25L26 25L26 24L28 24L28 23L27 23L27 22ZM12 23L12 24L13 24L13 23ZM14 23L14 25L15 25L15 26L16 26L16 25L19 25L19 24L15 24L15 23ZM22 25L22 26L23 26L23 27L24 27L24 28L25 28L25 26L24 26L24 25ZM27 25L27 26L28 26L28 25ZM17 26L17 27L18 27L18 26ZM8 27L8 29L9 29L9 27ZM21 27L21 28L22 28L22 27ZM26 27L26 28L27 28L27 27ZM0 0L0 7L7 7L7 0ZM1 1L1 6L6 6L6 1ZM2 2L2 5L5 5L5 2ZM22 0L22 7L29 7L29 0ZM23 1L23 6L28 6L28 1ZM24 2L24 5L27 5L27 2ZM0 22L0 29L7 29L7 22ZM1 23L1 28L6 28L6 23ZM2 24L2 27L5 27L5 24Z" fill="#282828"/></g></g></svg>
