<?xml version="1.0" encoding="UTF-8"?>
<svg xmlns="http://www.w3.org/2000/svg" version="1.1" width="90" height="90" viewBox="0 0 90 90"><rect x="0" y="0" width="90" height="90" fill="#ffffff"/><g transform="scale(3.333)"><g transform="translate(1,1)"><path fill-rule="evenodd" d="M8 0L8 2L9 2L9 3L10 3L10 2L9 2L9 1L11 1L11 2L12 2L12 0ZM13 0L13 4L12 4L12 3L11 3L11 5L9 5L9 4L8 4L8 9L7 9L7 8L5 8L5 10L4 10L4 9L3 9L3 8L0 8L0 12L1 12L1 13L2 13L2 14L0 14L0 15L2 15L2 14L3 14L3 17L7 17L7 16L5 16L5 15L8 15L8 18L9 18L9 15L10 15L10 17L11 17L11 19L10 19L10 20L9 20L9 19L8 19L8 20L9 20L9 21L10 21L10 25L12 25L12 24L11 24L11 23L13 23L13 22L15 22L15 23L14 23L14 24L15 24L15 25L22 25L22 24L19 24L19 23L18 23L18 21L21 21L21 20L22 20L22 19L25 19L25 12L24 12L24 13L23 13L23 12L22 12L22 11L25 11L25 8L23 8L23 10L22 10L22 9L21 9L21 8L16 8L16 9L14 9L14 10L12 10L12 8L13 8L13 6L14 6L14 8L15 8L15 0ZM13 4L13 5L11 5L11 7L10 7L10 6L9 6L9 7L10 7L10 9L8 9L8 11L9 11L9 12L7 12L7 11L6 11L6 12L7 12L7 13L5 13L5 12L4 12L4 11L2 11L2 10L1 10L1 12L3 12L3 13L5 13L5 14L4 14L4 15L5 15L5 14L8 14L8 13L9 13L9 12L10 12L10 11L9 11L9 10L11 10L11 8L12 8L12 6L13 6L13 5L14 5L14 4ZM16 5L16 7L17 7L17 5ZM6 9L6 10L7 10L7 9ZM17 9L17 11L16 11L16 12L14 12L14 11L15 11L15 10L14 10L14 11L13 11L13 12L12 12L12 11L11 11L11 12L12 12L12 14L14 14L14 15L12 15L12 19L11 19L11 20L10 20L10 21L11 21L11 20L14 20L14 21L15 21L15 22L17 22L17 21L15 21L15 18L16 18L16 17L15 17L15 16L16 16L16 15L15 15L15 13L16 13L16 12L17 12L17 15L18 15L18 16L19 16L19 15L18 15L18 11L19 11L19 12L20 12L20 14L21 14L21 15L20 15L20 16L21 16L21 15L22 15L22 16L24 16L24 15L23 15L23 14L21 14L21 13L22 13L22 12L21 12L21 11L20 11L20 10L21 10L21 9L20 9L20 10L18 10L18 9ZM10 14L10 15L11 15L11 14ZM14 15L14 16L15 16L15 15ZM0 16L0 17L2 17L2 16ZM14 17L14 18L13 18L13 19L14 19L14 18L15 18L15 17ZM17 17L17 20L20 20L20 17ZM22 17L22 18L23 18L23 17ZM18 18L18 19L19 19L19 18ZM23 21L23 23L25 23L25 22L24 22L24 21ZM8 22L8 25L9 25L9 22ZM20 22L20 23L22 23L22 22ZM15 23L15 24L16 24L16 23ZM24 24L24 25L25 25L25 24ZM0 0L0 7L7 7L7 0ZM1 1L1 6L6 6L6 1ZM2 2L2 5L5 5L5 2ZM18 0L18 7L25 7L25 0ZM19 1L19 6L24 6L24 1ZM20 2L20 5L23 5L23 2ZM0 18L0 25L7 25L7 18ZM1 19L1 24L6 24L6 19ZM2 20L2 23L5 23L5 20Z" fill="#282828"/></g></g></svg>
