<?xml version="1.0" encoding="UTF-8"?>
<svg xmlns="http://www.w3.org/2000/svg" version="1.1" width="90" height="90" viewBox="0 0 90 90"><rect x="0" y="0" width="90" height="90" fill="#ffffff"/><g transform="scale(3.333)"><g transform="translate(1,1)"><path fill-rule="evenodd" d="M10 0L10 1L9 1L9 2L8 2L8 3L9 3L9 5L10 5L10 7L11 7L11 6L12 6L12 8L13 8L13 9L14 9L14 7L15 7L15 10L14 10L14 11L13 11L13 10L12 10L12 11L11 11L11 10L10 10L10 9L9 9L9 6L8 6L8 8L4 8L4 9L3 9L3 8L0 8L0 9L1 9L1 10L0 10L0 12L1 12L1 13L3 13L3 12L4 12L4 11L8 11L8 12L5 12L5 13L4 13L4 14L3 14L3 16L2 16L2 15L1 15L1 14L0 14L0 15L1 15L1 16L0 16L0 17L1 17L1 16L2 16L2 17L3 17L3 16L4 16L4 17L5 17L5 16L6 16L6 17L8 17L8 21L9 21L9 19L10 19L10 20L12 20L12 23L9 23L9 22L8 22L8 25L11 25L11 24L12 24L12 23L13 23L13 25L14 25L14 24L15 24L15 25L19 25L19 24L20 24L20 25L21 25L21 24L22 24L22 23L21 23L21 22L22 22L22 20L21 20L21 15L22 15L22 14L23 14L23 13L24 13L24 15L23 15L23 16L22 16L22 17L23 17L23 16L24 16L24 19L23 19L23 18L22 18L22 19L23 19L23 21L24 21L24 19L25 19L25 12L24 12L24 11L25 11L25 9L24 9L24 11L23 11L23 12L21 12L21 13L22 13L22 14L19 14L19 12L20 12L20 11L21 11L21 10L19 10L19 8L17 8L17 5L16 5L16 3L17 3L17 1L16 1L16 0L15 0L15 1L13 1L13 2L16 2L16 3L14 3L14 4L15 4L15 6L14 6L14 7L13 7L13 6L12 6L12 5L13 5L13 4L12 4L12 5L10 5L10 3L9 3L9 2L10 2L10 1L11 1L11 0ZM11 2L11 3L12 3L12 2ZM15 6L15 7L16 7L16 6ZM22 8L22 9L23 9L23 8ZM5 9L5 10L8 10L8 11L10 11L10 10L8 10L8 9ZM17 9L17 10L18 10L18 9ZM2 10L2 12L3 12L3 11L4 11L4 10ZM15 10L15 11L16 11L16 12L14 12L14 14L15 14L15 15L18 15L18 13L16 13L16 12L19 12L19 11L16 11L16 10ZM8 12L8 13L6 13L6 14L8 14L8 15L6 15L6 16L8 16L8 17L9 17L9 14L8 14L8 13L10 13L10 12ZM11 12L11 14L10 14L10 15L11 15L11 17L10 17L10 19L12 19L12 20L13 20L13 22L14 22L14 23L16 23L16 19L15 19L15 17L16 17L16 16L14 16L14 18L13 18L13 15L12 15L12 14L13 14L13 12ZM4 14L4 16L5 16L5 14ZM19 15L19 16L20 16L20 15ZM17 17L17 20L20 20L20 17ZM18 18L18 19L19 19L19 18ZM13 19L13 20L15 20L15 19ZM10 21L10 22L11 22L11 21ZM14 21L14 22L15 22L15 21ZM17 21L17 23L19 23L19 21ZM20 21L20 22L21 22L21 21ZM24 22L24 23L23 23L23 25L25 25L25 24L24 24L24 23L25 23L25 22ZM20 23L20 24L21 24L21 23ZM0 0L0 7L7 7L7 0ZM1 1L1 6L6 6L6 1ZM2 2L2 5L5 5L5 2ZM18 0L18 7L25 7L25 0ZM19 1L19 6L24 6L24 1ZM20 2L20 5L23 5L23 2ZM0 18L0 25L7 25L7 18ZM1 19L1 24L6 24L6 19ZM2 20L2 23L5 23L5 20Z" fill="#282828"/></g></g></svg>
