<?xml version="1.0" encoding="UTF-8"?>
<svg xmlns="http://www.w3.org/2000/svg" version="1.1" width="90" height="90" viewBox="0 0 90 90"><rect x="0" y="0" width="90" height="90" fill="#ffffff"/><g transform="scale(2.903)"><g transform="translate(1,1)"><path fill-rule="evenodd" d="M10 0L10 2L11 2L11 0ZM12 0L12 1L13 1L13 0ZM16 0L16 1L15 1L15 2L14 2L14 3L13 3L13 2L12 2L12 4L14 4L14 5L11 5L11 6L10 6L10 4L11 4L11 3L8 3L8 4L9 4L9 5L8 5L8 7L9 7L9 8L6 8L6 9L7 9L7 10L6 10L6 11L7 11L7 12L6 12L6 13L7 13L7 14L6 14L6 15L7 15L7 16L5 16L5 15L4 15L4 14L5 14L5 11L4 11L4 12L2 12L2 10L4 10L4 9L5 9L5 8L0 8L0 9L2 9L2 10L1 10L1 12L0 12L0 14L1 14L1 13L3 13L3 16L5 16L5 18L4 18L4 19L3 19L3 18L2 18L2 19L3 19L3 20L2 20L2 21L4 21L4 20L6 20L6 21L8 21L8 23L9 23L9 22L10 22L10 21L9 21L9 20L11 20L11 19L9 19L9 18L6 18L6 17L7 17L7 16L8 16L8 17L10 17L10 15L11 15L11 17L12 17L12 18L13 18L13 19L12 19L12 21L13 21L13 20L14 20L14 21L15 21L15 23L14 23L14 24L16 24L16 23L18 23L18 24L20 24L20 25L18 25L18 26L20 26L20 25L24 25L24 26L23 26L23 27L22 27L22 26L21 26L21 27L22 27L22 28L21 28L21 29L26 29L26 26L27 26L27 28L28 28L28 26L29 26L29 24L28 24L28 22L29 22L29 21L28 21L28 20L29 20L29 19L28 19L28 18L29 18L29 17L28 17L28 18L26 18L26 19L27 19L27 20L26 20L26 21L28 21L28 22L27 22L27 25L26 25L26 23L25 23L25 17L27 17L27 16L28 16L28 14L29 14L29 13L28 13L28 14L27 14L27 16L26 16L26 15L24 15L24 14L26 14L26 13L24 13L24 14L23 14L23 15L24 15L24 16L23 16L23 19L22 19L22 18L21 18L21 17L20 17L20 18L21 18L21 19L19 19L19 16L17 16L17 15L18 15L18 14L20 14L20 13L16 13L16 12L17 12L17 10L19 10L19 9L20 9L20 10L22 10L22 8L21 8L21 4L20 4L20 3L21 3L21 0L20 0L20 3L19 3L19 0L18 0L18 1L17 1L17 0ZM8 1L8 2L9 2L9 1ZM16 1L16 3L17 3L17 4L19 4L19 5L18 5L18 6L17 6L17 9L19 9L19 7L20 7L20 4L19 4L19 3L18 3L18 2L17 2L17 1ZM14 3L14 4L15 4L15 5L14 5L14 6L13 6L13 7L12 7L12 6L11 6L11 7L12 7L12 9L11 9L11 8L10 8L10 9L8 9L8 11L9 11L9 12L8 12L8 14L7 14L7 15L8 15L8 16L9 16L9 15L8 15L8 14L14 14L14 13L15 13L15 12L16 12L16 11L14 11L14 9L16 9L16 6L15 6L15 5L16 5L16 4L15 4L15 3ZM9 6L9 7L10 7L10 6ZM14 6L14 7L15 7L15 6ZM18 6L18 7L19 7L19 6ZM13 8L13 9L12 9L12 10L13 10L13 9L14 9L14 8ZM20 8L20 9L21 9L21 8ZM23 8L23 10L24 10L24 12L26 12L26 11L27 11L27 9L28 9L28 8L27 8L27 9L26 9L26 8L25 8L25 9L24 9L24 8ZM10 9L10 11L11 11L11 9ZM12 11L12 13L14 13L14 12L13 12L13 11ZM18 11L18 12L19 12L19 11ZM21 11L21 12L23 12L23 11ZM28 11L28 12L29 12L29 11ZM9 12L9 13L11 13L11 12ZM21 13L21 14L22 14L22 13ZM16 14L16 15L15 15L15 16L14 16L14 15L12 15L12 17L14 17L14 18L15 18L15 17L17 17L17 19L16 19L16 21L17 21L17 22L18 22L18 21L19 21L19 23L20 23L20 21L19 21L19 20L18 20L18 17L17 17L17 16L16 16L16 15L17 15L17 14ZM0 15L0 16L1 16L1 15ZM20 15L20 16L21 16L21 15ZM0 17L0 21L1 21L1 17ZM5 18L5 19L6 19L6 20L7 20L7 19L6 19L6 18ZM8 19L8 20L9 20L9 19ZM14 19L14 20L15 20L15 19ZM21 21L21 24L24 24L24 21ZM11 22L11 23L10 23L10 25L9 25L9 24L8 24L8 29L9 29L9 26L10 26L10 27L11 27L11 26L10 26L10 25L12 25L12 26L13 26L13 27L12 27L12 29L13 29L13 28L14 28L14 29L16 29L16 28L17 28L17 27L16 27L16 26L17 26L17 25L12 25L12 23L13 23L13 22ZM22 22L22 23L23 23L23 22ZM25 25L25 26L26 26L26 25ZM14 27L14 28L15 28L15 27ZM23 27L23 28L25 28L25 27ZM10 28L10 29L11 29L11 28ZM19 28L19 29L20 29L20 28ZM0 0L0 7L7 7L7 0ZM1 1L1 6L6 6L6 1ZM2 2L2 5L5 5L5 2ZM22 0L22 7L29 7L29 0ZM23 1L23 6L28 6L28 1ZM24 2L24 5L27 5L27 2ZM0 22L0 29L7 29L7 22ZM1 23L1 28L6 28L6 23ZM2 24L2 27L5 27L5 24Z" fill="#282828"/></g></g></svg>
