<?xml version="1.0" encoding="UTF-8"?>
<svg xmlns="http://www.w3.org/2000/svg" version="1.1" width="90" height="90" viewBox="0 0 90 90"><rect x="0" y="0" width="90" height="90" fill="#ffffff"/><g transform="scale(3.333)"><g transform="translate(1,1)"><path fill-rule="evenodd" d="M9 0L9 1L10 1L10 2L8 2L8 3L9 3L9 4L10 4L10 5L9 5L9 6L8 6L8 8L4 8L4 9L5 9L5 10L3 10L3 8L0 8L0 9L1 9L1 10L0 10L0 11L1 11L1 14L0 14L0 15L1 15L1 16L0 16L0 17L1 17L1 16L2 16L2 17L7 17L7 16L8 16L8 14L10 14L10 16L11 16L11 18L10 18L10 17L8 17L8 21L9 21L9 22L8 22L8 25L9 25L9 22L10 22L10 23L11 23L11 24L13 24L13 25L17 25L17 24L18 24L18 25L19 25L19 24L20 24L20 25L21 25L21 24L22 24L22 23L21 23L21 22L19 22L19 24L18 24L18 23L17 23L17 24L16 24L16 22L18 22L18 21L21 21L21 20L22 20L22 19L23 19L23 16L24 16L24 19L25 19L25 12L24 12L24 11L25 11L25 9L24 9L24 11L23 11L23 8L22 8L22 9L21 9L21 10L19 10L19 8L17 8L17 5L16 5L16 3L17 3L17 2L16 2L16 0L12 0L12 1L10 1L10 0ZM14 1L14 2L13 2L13 3L12 3L12 2L11 2L11 3L12 3L12 4L11 4L11 5L10 5L10 6L9 6L9 7L10 7L10 6L11 6L11 8L12 8L12 10L10 10L10 8L9 8L9 9L6 9L6 10L5 10L5 11L2 11L2 14L1 14L1 15L2 15L2 14L3 14L3 13L6 13L6 14L8 14L8 13L10 13L10 14L11 14L11 13L12 13L12 12L13 12L13 10L14 10L14 11L16 11L16 12L14 12L14 13L15 13L15 15L14 15L14 14L13 14L13 15L14 15L14 18L13 18L13 17L12 17L12 18L11 18L11 19L10 19L10 20L11 20L11 19L12 19L12 21L11 21L11 23L12 23L12 22L13 22L13 19L14 19L14 18L16 18L16 17L15 17L15 15L16 15L16 16L17 16L17 14L16 14L16 12L19 12L19 14L18 14L18 16L19 16L19 15L20 15L20 16L21 16L21 18L22 18L22 16L23 16L23 15L24 15L24 13L23 13L23 14L22 14L22 13L21 13L21 12L23 12L23 11L22 11L22 10L21 10L21 11L20 11L20 12L19 12L19 11L17 11L17 10L18 10L18 9L17 9L17 10L16 10L16 9L15 9L15 8L12 8L12 6L13 6L13 7L14 7L14 5L13 5L13 4L14 4L14 3L15 3L15 1ZM15 6L15 7L16 7L16 6ZM14 9L14 10L15 10L15 9ZM6 10L6 11L8 11L8 12L6 12L6 13L8 13L8 12L9 12L9 11L10 11L10 10ZM11 11L11 12L12 12L12 11ZM4 14L4 16L5 16L5 14ZM20 14L20 15L22 15L22 14ZM6 15L6 16L7 16L7 15ZM11 15L11 16L12 16L12 15ZM17 17L17 20L20 20L20 17ZM12 18L12 19L13 19L13 18ZM18 18L18 19L19 19L19 18ZM15 19L15 21L16 21L16 19ZM22 21L22 22L23 22L23 21ZM24 22L24 23L23 23L23 25L25 25L25 24L24 24L24 23L25 23L25 22ZM14 23L14 24L15 24L15 23ZM20 23L20 24L21 24L21 23ZM0 0L0 7L7 7L7 0ZM1 1L1 6L6 6L6 1ZM2 2L2 5L5 5L5 2ZM18 0L18 7L25 7L25 0ZM19 1L19 6L24 6L24 1ZM20 2L20 5L23 5L23 2ZM0 18L0 25L7 25L7 18ZM1 19L1 24L6 24L6 19ZM2 20L2 23L5 23L5 20Z" fill="#282828"/></g></g></svg>
