<?xml version="1.0" encoding="UTF-8"?>
<svg xmlns="http://www.w3.org/2000/svg" version="1.1" width="90" height="90" viewBox="0 0 90 90"><rect x="0" y="0" width="90" height="90" fill="#ffffff"/><g transform="scale(2.903)"><g transform="translate(1,1)"><path fill-rule="evenodd" d="M11 0L11 1L9 1L9 2L11 2L11 1L15 1L15 0ZM17 0L17 2L18 2L18 3L17 3L17 4L16 4L16 7L15 7L15 6L14 6L14 5L15 5L15 3L16 3L16 2L14 2L14 3L13 3L13 2L12 2L12 4L14 4L14 5L11 5L11 6L10 6L10 8L9 8L9 9L8 9L8 8L5 8L5 9L3 9L3 10L2 10L2 12L1 12L1 9L2 9L2 8L0 8L0 12L1 12L1 14L2 14L2 16L3 16L3 13L4 13L4 14L5 14L5 15L4 15L4 17L2 17L2 18L1 18L1 15L0 15L0 21L1 21L1 19L2 19L2 21L3 21L3 20L4 20L4 19L5 19L5 20L6 20L6 21L7 21L7 20L6 20L6 19L7 19L7 18L4 18L4 17L5 17L5 16L6 16L6 17L8 17L8 14L6 14L6 13L9 13L9 15L10 15L10 16L11 16L11 17L9 17L9 18L8 18L8 19L9 19L9 20L10 20L10 21L8 21L8 24L9 24L9 27L8 27L8 29L9 29L9 28L11 28L11 24L12 24L12 23L13 23L13 22L11 22L11 20L10 20L10 18L11 18L11 19L12 19L12 21L13 21L13 20L14 20L14 22L15 22L15 23L14 23L14 24L13 24L13 25L12 25L12 26L13 26L13 27L12 27L12 29L13 29L13 28L14 28L14 29L16 29L16 28L17 28L17 29L20 29L20 28L21 28L21 29L22 29L22 28L23 28L23 27L25 27L25 28L24 28L24 29L27 29L27 27L28 27L28 28L29 28L29 27L28 27L28 26L29 26L29 25L28 25L28 24L26 24L26 23L25 23L25 20L22 20L22 19L23 19L23 18L24 18L24 19L26 19L26 18L25 18L25 17L27 17L27 19L28 19L28 20L26 20L26 22L27 22L27 23L28 23L28 20L29 20L29 17L27 17L27 15L28 15L28 16L29 16L29 15L28 15L28 14L29 14L29 13L28 13L28 11L27 11L27 10L29 10L29 9L27 9L27 10L26 10L26 8L24 8L24 9L23 9L23 10L21 10L21 9L19 9L19 10L14 10L14 11L15 11L15 12L14 12L14 13L13 13L13 11L12 11L12 12L11 12L11 13L13 13L13 14L10 14L10 11L11 11L11 10L10 10L10 8L11 8L11 9L12 9L12 10L13 10L13 9L14 9L14 8L13 8L13 9L12 9L12 7L13 7L13 6L14 6L14 7L15 7L15 8L16 8L16 9L18 9L18 8L17 8L17 5L18 5L18 7L19 7L19 4L18 4L18 3L19 3L19 1L18 1L18 0ZM20 1L20 2L21 2L21 1ZM8 3L8 5L10 5L10 4L9 4L9 3ZM20 3L20 5L21 5L21 3ZM8 6L8 7L9 7L9 6ZM11 6L11 7L12 7L12 6ZM20 6L20 7L21 7L21 6ZM5 9L5 11L3 11L3 12L4 12L4 13L5 13L5 12L9 12L9 11L10 11L10 10L9 10L9 11L6 11L6 10L7 10L7 9ZM19 10L19 11L16 11L16 12L17 12L17 16L16 16L16 15L15 15L15 14L13 14L13 15L12 15L12 17L11 17L11 18L12 18L12 19L14 19L14 20L15 20L15 17L17 17L17 16L18 16L18 17L19 17L19 16L20 16L20 17L21 17L21 19L20 19L20 20L19 20L19 19L16 19L16 20L18 20L18 21L16 21L16 22L17 22L17 26L16 26L16 25L15 25L15 26L16 26L16 27L15 27L15 28L16 28L16 27L17 27L17 28L20 28L20 27L21 27L21 28L22 28L22 27L21 27L21 26L26 26L26 27L27 27L27 26L28 26L28 25L20 25L20 27L19 27L19 26L18 26L18 25L19 25L19 24L18 24L18 23L19 23L19 22L18 22L18 21L20 21L20 20L21 20L21 19L22 19L22 17L23 17L23 16L24 16L24 17L25 17L25 16L24 16L24 15L27 15L27 13L26 13L26 14L24 14L24 15L23 15L23 14L22 14L22 12L23 12L23 13L25 13L25 12L23 12L23 11L24 11L24 10L23 10L23 11L22 11L22 12L21 12L21 11L20 11L20 10ZM19 11L19 14L20 14L20 16L21 16L21 12L20 12L20 11ZM26 11L26 12L27 12L27 11ZM6 15L6 16L7 16L7 15ZM18 15L18 16L19 16L19 15ZM22 15L22 16L23 16L23 15ZM12 17L12 18L14 18L14 17ZM3 18L3 19L4 19L4 18ZM21 21L21 24L24 24L24 21ZM9 22L9 24L11 24L11 23L10 23L10 22ZM22 22L22 23L23 23L23 22ZM15 23L15 24L16 24L16 23ZM0 0L0 7L7 7L7 0ZM1 1L1 6L6 6L6 1ZM2 2L2 5L5 5L5 2ZM22 0L22 7L29 7L29 0ZM23 1L23 6L28 6L28 1ZM24 2L24 5L27 5L27 2ZM0 22L0 29L7 29L7 22ZM1 23L1 28L6 28L6 23ZM2 24L2 27L5 27L5 24Z" fill="#282828"/></g></g></svg>
