<?xml version="1.0" encoding="UTF-8"?>
<svg xmlns="http://www.w3.org/2000/svg" version="1.1" width="90" height="90" viewBox="0 0 90 90"><rect x="0" y="0" width="90" height="90" fill="#ffffff"/><g transform="scale(2.903)"><g transform="translate(1,1)"><path fill-rule="evenodd" d="M8 0L8 1L10 1L10 0ZM15 0L15 1L14 1L14 2L11 2L11 4L10 4L10 3L9 3L9 2L8 2L8 5L9 5L9 6L8 6L8 7L9 7L9 8L8 8L8 9L7 9L7 8L6 8L6 9L4 9L4 8L0 8L0 10L1 10L1 9L2 9L2 11L1 11L1 12L0 12L0 15L1 15L1 14L2 14L2 13L3 13L3 14L4 14L4 15L2 15L2 16L4 16L4 17L3 17L3 18L6 18L6 19L2 19L2 20L1 20L1 21L2 21L2 20L3 20L3 21L4 21L4 20L6 20L6 21L7 21L7 20L8 20L8 22L9 22L9 25L8 25L8 29L10 29L10 28L9 28L9 25L10 25L10 26L11 26L11 28L12 28L12 29L13 29L13 28L12 28L12 26L13 26L13 27L14 27L14 29L25 29L25 28L26 28L26 29L28 29L28 27L29 27L29 25L28 25L28 23L27 23L27 22L26 22L26 23L27 23L27 25L26 25L26 24L25 24L25 21L27 21L27 19L28 19L28 22L29 22L29 19L28 19L28 16L27 16L27 18L26 18L26 14L28 14L28 15L29 15L29 13L28 13L28 12L29 12L29 11L28 11L28 10L27 10L27 8L24 8L24 9L23 9L23 11L22 11L22 8L21 8L21 4L19 4L19 3L20 3L20 2L21 2L21 0L20 0L20 2L19 2L19 0ZM16 1L16 3L12 3L12 5L10 5L10 6L9 6L9 7L10 7L10 8L9 8L9 9L8 9L8 11L9 11L9 12L7 12L7 11L6 11L6 12L7 12L7 13L4 13L4 14L7 14L7 13L9 13L9 12L10 12L10 13L11 13L11 11L14 11L14 10L15 10L15 12L12 12L12 14L11 14L11 16L12 16L12 17L10 17L10 14L8 14L8 15L6 15L6 16L7 16L7 17L6 17L6 18L7 18L7 19L6 19L6 20L7 20L7 19L8 19L8 18L9 18L9 19L11 19L11 20L12 20L12 19L11 19L11 18L12 18L12 17L14 17L14 18L13 18L13 20L14 20L14 21L15 21L15 22L14 22L14 23L11 23L11 22L12 22L12 21L11 21L11 22L10 22L10 21L9 21L9 22L10 22L10 23L11 23L11 24L10 24L10 25L12 25L12 24L13 24L13 26L14 26L14 27L15 27L15 28L16 28L16 27L17 27L17 28L21 28L21 26L20 26L20 27L19 27L19 25L20 25L20 20L21 20L21 19L22 19L22 20L23 20L23 19L22 19L22 18L23 18L23 17L24 17L24 18L25 18L25 20L26 20L26 18L25 18L25 16L23 16L23 15L25 15L25 13L27 13L27 10L26 10L26 11L25 11L25 13L24 13L24 12L21 12L21 11L20 11L20 6L19 6L19 7L18 7L18 6L17 6L17 5L19 5L19 4L17 4L17 3L18 3L18 2L17 2L17 1ZM13 4L13 5L12 5L12 7L11 7L11 6L10 6L10 7L11 7L11 8L12 8L12 7L13 7L13 9L15 9L15 5L14 5L14 4ZM13 5L13 7L14 7L14 5ZM16 6L16 7L17 7L17 9L18 9L18 10L16 10L16 11L18 11L18 10L19 10L19 9L18 9L18 7L17 7L17 6ZM28 8L28 9L29 9L29 8ZM6 9L6 10L7 10L7 9ZM9 9L9 10L10 10L10 9ZM3 10L3 11L5 11L5 10ZM15 12L15 14L14 14L14 13L13 13L13 14L12 14L12 16L14 16L14 15L15 15L15 14L16 14L16 15L17 15L17 14L18 14L18 13L17 13L17 12ZM20 12L20 13L21 13L21 14L22 14L22 13L21 13L21 12ZM16 13L16 14L17 14L17 13ZM13 14L13 15L14 15L14 14ZM19 14L19 15L20 15L20 17L19 17L19 16L16 16L16 17L15 17L15 19L17 19L17 20L16 20L16 22L17 22L17 23L16 23L16 24L14 24L14 26L18 26L18 25L17 25L17 23L18 23L18 22L19 22L19 20L20 20L20 19L19 19L19 18L21 18L21 15L20 15L20 14ZM4 15L4 16L5 16L5 15ZM7 17L7 18L8 18L8 17ZM17 17L17 18L19 18L19 17ZM0 18L0 19L1 19L1 18ZM17 20L17 21L18 21L18 20ZM21 21L21 24L24 24L24 21ZM22 22L22 23L23 23L23 22ZM22 25L22 26L23 26L23 25ZM24 25L24 27L22 27L22 28L24 28L24 27L26 27L26 28L27 28L27 27L28 27L28 25L27 25L27 27L26 27L26 26L25 26L25 25ZM0 0L0 7L7 7L7 0ZM1 1L1 6L6 6L6 1ZM2 2L2 5L5 5L5 2ZM22 0L22 7L29 7L29 0ZM23 1L23 6L28 6L28 1ZM24 2L24 5L27 5L27 2ZM0 22L0 29L7 29L7 22ZM1 23L1 28L6 28L6 23ZM2 24L2 27L5 27L5 24Z" fill="#282828"/></g></g></svg>
