<?xml version="1.0" encoding="UTF-8"?>
<svg xmlns="http://www.w3.org/2000/svg" version="1.1" width="90" height="90" viewBox="0 0 90 90"><rect x="0" y="0" width="90" height="90" fill="#ffffff"/><g transform="scale(2.903)"><g transform="translate(1,1)"><path fill-rule="evenodd" d="M9 0L9 1L8 1L8 2L9 2L9 3L8 3L8 4L10 4L10 7L11 7L11 4L12 4L12 5L13 5L13 4L14 4L14 8L13 8L13 6L12 6L12 9L14 9L14 10L11 10L11 11L10 11L10 9L11 9L11 8L6 8L6 9L5 9L5 8L0 8L0 9L1 9L1 10L6 10L6 11L5 11L5 14L6 14L6 15L2 15L2 13L3 13L3 14L4 14L4 11L3 11L3 12L2 12L2 13L1 13L1 12L0 12L0 14L1 14L1 15L2 15L2 16L5 16L5 17L4 17L4 18L3 18L3 17L0 17L0 21L1 21L1 18L2 18L2 21L4 21L4 20L5 20L5 21L8 21L8 23L10 23L10 24L8 24L8 29L12 29L12 27L13 27L13 26L11 26L11 28L10 28L10 24L11 24L11 22L9 22L9 21L12 21L12 22L13 22L13 23L12 23L12 25L13 25L13 24L14 24L14 25L15 25L15 24L14 24L14 23L16 23L16 24L17 24L17 23L16 23L16 22L19 22L19 24L20 24L20 25L16 25L16 26L15 26L15 27L14 27L14 28L15 28L15 29L16 29L16 28L17 28L17 29L18 29L18 28L17 28L17 26L20 26L20 25L21 25L21 29L22 29L22 27L23 27L23 29L24 29L24 28L26 28L26 29L27 29L27 28L28 28L28 26L29 26L29 25L27 25L27 28L26 28L26 25L25 25L25 24L26 24L26 23L25 23L25 20L24 20L24 19L25 19L25 18L26 18L26 19L27 19L27 20L26 20L26 21L28 21L28 22L27 22L27 23L28 23L28 24L29 24L29 23L28 23L28 22L29 22L29 21L28 21L28 20L29 20L29 19L28 19L28 18L29 18L29 17L28 17L28 18L27 18L27 16L26 16L26 17L20 17L20 16L21 16L21 14L23 14L23 15L24 15L24 16L25 16L25 15L26 15L26 14L27 14L27 15L28 15L28 14L29 14L29 13L28 13L28 12L29 12L29 11L27 11L27 9L28 9L28 8L27 8L27 9L26 9L26 8L25 8L25 9L24 9L24 8L23 8L23 9L22 9L22 8L21 8L21 6L20 6L20 7L19 7L19 6L18 6L18 7L19 7L19 9L18 9L18 8L16 8L16 7L17 7L17 6L16 6L16 5L17 5L17 4L16 4L16 2L17 2L17 1L15 1L15 0L14 0L14 1L11 1L11 2L10 2L10 0ZM18 0L18 3L19 3L19 1L20 1L20 0ZM14 1L14 2L12 2L12 4L13 4L13 3L14 3L14 4L15 4L15 5L16 5L16 4L15 4L15 1ZM20 2L20 3L21 3L21 2ZM10 3L10 4L11 4L11 3ZM18 4L18 5L21 5L21 4ZM8 5L8 7L9 7L9 5ZM15 6L15 7L16 7L16 6ZM14 8L14 9L15 9L15 10L14 10L14 11L12 11L12 13L11 13L11 12L10 12L10 13L9 13L9 12L8 12L8 11L9 11L9 10L8 10L8 9L6 9L6 10L7 10L7 11L6 11L6 12L8 12L8 15L9 15L9 14L10 14L10 15L11 15L11 18L10 18L10 20L11 20L11 18L13 18L13 19L12 19L12 21L15 21L15 22L16 22L16 20L19 20L19 21L20 21L20 20L21 20L21 19L22 19L22 20L23 20L23 19L22 19L22 18L19 18L19 19L18 19L18 17L19 17L19 16L20 16L20 14L17 14L17 16L16 16L16 17L14 17L14 16L15 16L15 15L14 15L14 16L13 16L13 17L12 17L12 15L13 15L13 14L12 14L12 13L14 13L14 14L15 14L15 13L16 13L16 11L15 11L15 10L16 10L16 9L15 9L15 8ZM20 8L20 9L21 9L21 11L20 11L20 10L17 10L17 12L18 12L18 13L27 13L27 14L28 14L28 13L27 13L27 11L26 11L26 12L25 12L25 10L22 10L22 9L21 9L21 8ZM18 11L18 12L19 12L19 11ZM23 11L23 12L24 12L24 11ZM6 13L6 14L7 14L7 13ZM10 13L10 14L11 14L11 13ZM6 15L6 16L7 16L7 17L5 17L5 18L4 18L4 19L5 19L5 20L8 20L8 19L9 19L9 18L8 18L8 16L7 16L7 15ZM18 15L18 16L17 16L17 17L16 17L16 18L15 18L15 19L14 19L14 20L16 20L16 19L17 19L17 17L18 17L18 16L19 16L19 15ZM9 16L9 17L10 17L10 16ZM6 18L6 19L7 19L7 18ZM19 19L19 20L20 20L20 19ZM21 21L21 24L24 24L24 21ZM22 22L22 23L23 23L23 22ZM22 25L22 26L25 26L25 25ZM19 28L19 29L20 29L20 28ZM0 0L0 7L7 7L7 0ZM1 1L1 6L6 6L6 1ZM2 2L2 5L5 5L5 2ZM22 0L22 7L29 7L29 0ZM23 1L23 6L28 6L28 1ZM24 2L24 5L27 5L27 2ZM0 22L0 29L7 29L7 22ZM1 23L1 28L6 28L6 23ZM2 24L2 27L5 27L5 24Z" fill="#282828"/></g></g></svg>
