<?xml version="1.0" encoding="UTF-8"?>
<svg xmlns="http://www.w3.org/2000/svg" version="1.1" width="90" height="90" viewBox="0 0 90 90"><rect x="0" y="0" width="90" height="90" fill="#ffffff"/><g transform="scale(3.333)"><g transform="translate(1,1)"><path fill-rule="evenodd" d="M8 0L8 1L9 1L9 2L8 2L8 5L9 5L9 2L10 2L10 3L11 3L11 2L13 2L13 3L12 3L12 5L13 5L13 6L12 6L12 7L11 7L11 6L10 6L10 8L8 8L8 9L7 9L7 8L6 8L6 9L4 9L4 8L0 8L0 10L1 10L1 9L2 9L2 11L1 11L1 12L0 12L0 13L2 13L2 12L5 12L5 11L8 11L8 12L9 12L9 13L8 13L8 14L6 14L6 13L7 13L7 12L6 12L6 13L4 13L4 14L3 14L3 15L2 15L2 14L1 14L1 15L0 15L0 16L1 16L1 15L2 15L2 17L3 17L3 15L4 15L4 17L5 17L5 16L6 16L6 17L8 17L8 18L10 18L10 19L9 19L9 20L10 20L10 21L8 21L8 25L9 25L9 23L10 23L10 24L11 24L11 25L13 25L13 24L14 24L14 25L15 25L15 22L13 22L13 24L11 24L11 23L12 23L12 22L10 22L10 21L12 21L12 20L13 20L13 21L15 21L15 20L16 20L16 21L17 21L17 22L19 22L19 24L18 24L18 25L19 25L19 24L20 24L20 23L21 23L21 22L22 22L22 24L21 24L21 25L25 25L25 24L23 24L23 23L24 23L24 22L22 22L22 18L24 18L24 19L23 19L23 20L24 20L24 19L25 19L25 17L24 17L24 16L23 16L23 17L21 17L21 15L22 15L22 14L23 14L23 13L24 13L24 14L25 14L25 12L24 12L24 9L25 9L25 8L24 8L24 9L23 9L23 8L20 8L20 9L19 9L19 10L15 10L15 9L18 9L18 8L15 8L15 6L14 6L14 5L17 5L17 4L14 4L14 3L15 3L15 1L14 1L14 2L13 2L13 0ZM16 0L16 1L17 1L17 0ZM10 1L10 2L11 2L11 1ZM10 4L10 5L11 5L11 4ZM13 4L13 5L14 5L14 4ZM8 6L8 7L9 7L9 6ZM13 6L13 7L12 7L12 8L11 8L11 9L12 9L12 10L13 10L13 11L14 11L14 12L12 12L12 13L13 13L13 14L16 14L16 15L17 15L17 14L16 14L16 13L18 13L18 12L19 12L19 13L20 13L20 12L21 12L21 13L23 13L23 12L21 12L21 11L23 11L23 9L20 9L20 10L21 10L21 11L20 11L20 12L19 12L19 11L18 11L18 12L16 12L16 13L14 13L14 12L15 12L15 10L14 10L14 9L12 9L12 8L14 8L14 6ZM16 6L16 7L17 7L17 6ZM6 9L6 10L7 10L7 9ZM3 10L3 11L5 11L5 10ZM8 10L8 11L9 11L9 12L10 12L10 14L9 14L9 15L8 15L8 16L10 16L10 15L11 15L11 16L13 16L13 18L12 18L12 17L11 17L11 19L10 19L10 20L12 20L12 19L13 19L13 20L15 20L15 19L16 19L16 17L15 17L15 16L14 16L14 15L12 15L12 14L11 14L11 12L10 12L10 10ZM19 14L19 15L21 15L21 14ZM6 15L6 16L7 16L7 15ZM17 17L17 20L20 20L20 17ZM14 18L14 19L15 19L15 18ZM18 18L18 19L19 19L19 18ZM19 21L19 22L21 22L21 21ZM0 0L0 7L7 7L7 0ZM1 1L1 6L6 6L6 1ZM2 2L2 5L5 5L5 2ZM18 0L18 7L25 7L25 0ZM19 1L19 6L24 6L24 1ZM20 2L20 5L23 5L23 2ZM0 18L0 25L7 25L7 18ZM1 19L1 24L6 24L6 19ZM2 20L2 23L5 23L5 20Z" fill="#282828"/></g></g></svg>
