<?xml version="1.0" encoding="UTF-8"?>
<svg xmlns="http://www.w3.org/2000/svg" version="1.1" width="90" height="90" viewBox="0 0 90 90"><rect x="0" y="0" width="90" height="90" fill="#ffffff"/><g transform="scale(2.903)"><g transform="translate(1,1)"><path fill-rule="evenodd" d="M8 0L8 4L10 4L10 3L11 3L11 4L12 4L12 2L11 2L11 0ZM12 0L12 1L13 1L13 0ZM14 0L14 1L15 1L15 0ZM17 0L17 1L16 1L16 2L15 2L15 3L14 3L14 2L13 2L13 3L14 3L14 4L13 4L13 5L11 5L11 6L10 6L10 7L9 7L9 5L8 5L8 7L9 7L9 8L10 8L10 7L11 7L11 6L12 6L12 8L11 8L11 9L8 9L8 10L11 10L11 11L10 11L10 13L11 13L11 12L12 12L12 13L13 13L13 14L15 14L15 15L14 15L14 16L13 16L13 15L12 15L12 16L11 16L11 14L9 14L9 15L10 15L10 16L11 16L11 17L10 17L10 18L8 18L8 14L6 14L6 15L5 15L5 13L8 13L8 12L9 12L9 11L7 11L7 10L6 10L6 11L4 11L4 9L7 9L7 8L4 8L4 9L3 9L3 10L2 10L2 8L0 8L0 11L4 11L4 13L3 13L3 14L4 14L4 15L5 15L5 16L3 16L3 15L2 15L2 12L0 12L0 13L1 13L1 15L0 15L0 18L1 18L1 17L2 17L2 18L3 18L3 19L2 19L2 20L0 20L0 21L2 21L2 20L4 20L4 21L8 21L8 22L10 22L10 20L12 20L12 21L13 21L13 22L15 22L15 23L14 23L14 24L13 24L13 23L12 23L12 24L11 24L11 23L10 23L10 24L11 24L11 25L12 25L12 26L10 26L10 25L9 25L9 23L8 23L8 25L9 25L9 27L8 27L8 29L10 29L10 28L9 28L9 27L11 27L11 28L12 28L12 29L14 29L14 27L15 27L15 28L18 28L18 27L19 27L19 26L21 26L21 27L20 27L20 28L19 28L19 29L22 29L22 28L23 28L23 27L22 27L22 25L25 25L25 24L26 24L26 27L25 27L25 29L26 29L26 27L27 27L27 29L28 29L28 28L29 28L29 25L28 25L28 24L29 24L29 21L26 21L26 20L24 20L24 19L25 19L25 18L26 18L26 19L27 19L27 20L28 20L28 19L29 19L29 17L28 17L28 16L29 16L29 13L28 13L28 12L29 12L29 10L28 10L28 9L29 9L29 8L25 8L25 9L24 9L24 8L23 8L23 9L21 9L21 5L20 5L20 3L21 3L21 2L20 2L20 0ZM17 1L17 2L16 2L16 5L15 5L15 7L16 7L16 8L15 8L15 9L13 9L13 8L14 8L14 6L13 6L13 8L12 8L12 9L11 9L11 10L12 10L12 9L13 9L13 10L15 10L15 9L16 9L16 10L18 10L18 12L17 12L17 13L16 13L16 11L14 11L14 13L16 13L16 15L18 15L18 16L15 16L15 17L13 17L13 16L12 16L12 17L11 17L11 18L10 18L10 19L11 19L11 18L12 18L12 17L13 17L13 18L15 18L15 17L18 17L18 18L17 18L17 19L18 19L18 20L17 20L17 22L16 22L16 23L15 23L15 24L17 24L17 25L19 25L19 24L17 24L17 22L18 22L18 23L20 23L20 22L18 22L18 21L19 21L19 19L20 19L20 20L21 20L21 19L22 19L22 20L23 20L23 19L24 19L24 18L22 18L22 17L23 17L23 16L24 16L24 17L27 17L27 16L28 16L28 15L27 15L27 14L26 14L26 13L25 13L25 12L24 12L24 10L23 10L23 11L22 11L22 13L20 13L20 12L19 12L19 11L21 11L21 9L20 9L20 10L18 10L18 9L16 9L16 8L17 8L17 7L18 7L18 6L19 6L19 8L20 8L20 6L19 6L19 5L18 5L18 6L17 6L17 7L16 7L16 5L17 5L17 2L18 2L18 3L19 3L19 1ZM9 2L9 3L10 3L10 2ZM25 9L25 10L27 10L27 11L26 11L26 12L28 12L28 10L27 10L27 9ZM6 11L6 12L7 12L7 11ZM12 11L12 12L13 12L13 11ZM17 13L17 14L18 14L18 15L19 15L19 14L20 14L20 15L22 15L22 16L19 16L19 18L20 18L20 17L22 17L22 16L23 16L23 15L24 15L24 14L25 14L25 13L22 13L22 14L20 14L20 13ZM22 14L22 15L23 15L23 14ZM6 15L6 16L5 16L5 17L6 17L6 18L7 18L7 19L5 19L5 18L4 18L4 17L3 17L3 16L2 16L2 17L3 17L3 18L4 18L4 19L5 19L5 20L8 20L8 18L7 18L7 17L6 17L6 16L7 16L7 15ZM25 15L25 16L26 16L26 15ZM12 19L12 20L13 20L13 19ZM14 19L14 21L16 21L16 20L15 20L15 19ZM21 21L21 24L24 24L24 21ZM22 22L22 23L23 23L23 22ZM25 22L25 23L26 23L26 24L27 24L27 22ZM12 24L12 25L13 25L13 26L16 26L16 27L18 27L18 26L16 26L16 25L13 25L13 24ZM27 25L27 26L28 26L28 25ZM12 27L12 28L13 28L13 27ZM21 27L21 28L22 28L22 27ZM0 0L0 7L7 7L7 0ZM1 1L1 6L6 6L6 1ZM2 2L2 5L5 5L5 2ZM22 0L22 7L29 7L29 0ZM23 1L23 6L28 6L28 1ZM24 2L24 5L27 5L27 2ZM0 22L0 29L7 29L7 22ZM1 23L1 28L6 28L6 23ZM2 24L2 27L5 27L5 24Z" fill="#282828"/></g></g></svg>
