<?xml version="1.0" encoding="UTF-8"?>
<svg xmlns="http://www.w3.org/2000/svg" version="1.1" width="90" height="90" viewBox="0 0 90 90"><rect x="0" y="0" width="90" height="90" fill="#ffffff"/><g transform="scale(3.333)"><g transform="translate(1,1)"><path fill-rule="evenodd" d="M12 0L12 2L11 2L11 1L10 1L10 2L11 2L11 3L8 3L8 4L9 4L9 5L8 5L8 7L9 7L9 8L6 8L6 9L8 9L8 10L5 10L5 8L0 8L0 10L1 10L1 9L3 9L3 10L2 10L2 11L3 11L3 12L5 12L5 13L4 13L4 14L3 14L3 13L2 13L2 12L1 12L1 11L0 11L0 17L1 17L1 14L2 14L2 15L4 15L4 17L7 17L7 16L8 16L8 15L9 15L9 16L10 16L10 19L11 19L11 18L12 18L12 20L13 20L13 18L12 18L12 17L13 17L13 15L14 15L14 14L13 14L13 13L11 13L11 12L13 12L13 9L14 9L14 8L13 8L13 9L10 9L10 8L11 8L11 6L10 6L10 4L11 4L11 5L13 5L13 6L12 6L12 7L13 7L13 6L14 6L14 7L15 7L15 8L16 8L16 7L17 7L17 2L16 2L16 1L17 1L17 0L16 0L16 1L15 1L15 2L14 2L14 3L13 3L13 4L11 4L11 3L12 3L12 2L13 2L13 1L14 1L14 0ZM8 1L8 2L9 2L9 1ZM15 2L15 3L16 3L16 2ZM14 4L14 5L16 5L16 4ZM9 6L9 7L10 7L10 6ZM15 6L15 7L16 7L16 6ZM17 8L17 9L18 9L18 8ZM19 8L19 10L20 10L20 11L23 11L23 13L22 13L22 15L23 15L23 14L24 14L24 15L25 15L25 14L24 14L24 13L25 13L25 10L24 10L24 8L23 8L23 10L20 10L20 8ZM21 8L21 9L22 9L22 8ZM9 9L9 11L8 11L8 13L6 13L6 14L9 14L9 15L11 15L11 17L12 17L12 15L13 15L13 14L11 14L11 13L10 13L10 14L9 14L9 12L11 12L11 11L12 11L12 10L11 10L11 11L10 11L10 9ZM3 10L3 11L4 11L4 10ZM16 10L16 11L17 11L17 13L16 13L16 12L14 12L14 13L15 13L15 14L16 14L16 15L17 15L17 16L16 16L16 17L15 17L15 16L14 16L14 17L15 17L15 19L14 19L14 21L15 21L15 22L14 22L14 23L15 23L15 24L14 24L14 25L16 25L16 24L17 24L17 25L19 25L19 23L20 23L20 22L19 22L19 21L22 21L22 22L21 22L21 25L25 25L25 21L24 21L24 20L25 20L25 18L24 18L24 17L25 17L25 16L24 16L24 17L22 17L22 16L18 16L18 15L19 15L19 14L20 14L20 15L21 15L21 14L20 14L20 13L21 13L21 12L19 12L19 11L17 11L17 10ZM23 10L23 11L24 11L24 10ZM6 11L6 12L7 12L7 11ZM17 13L17 15L18 15L18 14L19 14L19 13ZM4 14L4 15L5 15L5 14ZM6 15L6 16L7 16L7 15ZM8 17L8 19L9 19L9 17ZM17 17L17 20L20 20L20 17ZM21 17L21 19L22 19L22 20L23 20L23 19L24 19L24 18L22 18L22 17ZM18 18L18 19L19 19L19 18ZM15 19L15 20L16 20L16 19ZM8 20L8 25L9 25L9 22L10 22L10 21L11 21L11 22L12 22L12 21L11 21L11 20ZM16 21L16 23L19 23L19 22L17 22L17 21ZM23 22L23 23L22 23L22 24L24 24L24 22ZM11 23L11 24L10 24L10 25L12 25L12 23ZM0 0L0 7L7 7L7 0ZM1 1L1 6L6 6L6 1ZM2 2L2 5L5 5L5 2ZM18 0L18 7L25 7L25 0ZM19 1L19 6L24 6L24 1ZM20 2L20 5L23 5L23 2ZM0 18L0 25L7 25L7 18ZM1 19L1 24L6 24L6 19ZM2 20L2 23L5 23L5 20Z" fill="#282828"/></g></g></svg>
