<?xml version="1.0" encoding="UTF-8"?>
<svg xmlns="http://www.w3.org/2000/svg" version="1.1" width="90" height="90" viewBox="0 0 90 90"><rect x="0" y="0" width="90" height="90" fill="#ffffff"/><g transform="scale(2.903)"><g transform="translate(1,1)"><path fill-rule="evenodd" d="M8 0L8 4L10 4L10 3L11 3L11 4L12 4L12 2L11 2L11 0ZM12 0L12 1L13 1L13 2L14 2L14 3L13 3L13 5L11 5L11 6L10 6L10 7L9 7L9 5L8 5L8 7L9 7L9 8L10 8L10 7L11 7L11 6L12 6L12 8L11 8L11 9L9 9L9 10L11 10L11 11L10 11L10 13L9 13L9 14L8 14L8 13L7 13L7 12L8 12L8 11L7 11L7 10L8 10L8 9L7 9L7 8L4 8L4 9L3 9L3 10L1 10L1 9L2 9L2 8L0 8L0 10L1 10L1 11L0 11L0 14L1 14L1 16L2 16L2 15L3 15L3 14L4 14L4 16L3 16L3 18L2 18L2 17L0 17L0 18L2 18L2 19L4 19L4 17L5 17L5 15L7 15L7 16L6 16L6 17L7 17L7 18L5 18L5 19L7 19L7 18L8 18L8 17L7 17L7 16L8 16L8 15L10 15L10 17L9 17L9 18L10 18L10 19L8 19L8 20L9 20L9 21L8 21L8 22L9 22L9 23L8 23L8 25L9 25L9 27L8 27L8 29L10 29L10 28L12 28L12 29L14 29L14 27L15 27L15 28L16 28L16 27L17 27L17 28L18 28L18 26L21 26L21 27L20 27L20 28L19 28L19 29L22 29L22 28L24 28L24 29L26 29L26 28L24 28L24 27L22 27L22 25L24 25L24 26L25 26L25 27L26 27L26 26L27 26L27 29L28 29L28 28L29 28L29 21L27 21L27 24L28 24L28 26L27 26L27 25L26 25L26 23L25 23L25 21L26 21L26 19L24 19L24 20L23 20L23 19L21 19L21 18L20 18L20 19L17 19L17 20L19 20L19 21L18 21L18 22L17 22L17 21L16 21L16 20L15 20L15 21L14 21L14 19L16 19L16 18L17 18L17 17L16 17L16 16L19 16L19 17L20 17L20 15L16 15L16 14L17 14L17 13L16 13L16 12L15 12L15 11L16 11L16 10L17 10L17 12L19 12L19 13L22 13L22 16L21 16L21 17L22 17L22 18L25 18L25 17L26 17L26 14L25 14L25 13L27 13L27 15L28 15L28 16L27 16L27 20L28 20L28 19L29 19L29 17L28 17L28 16L29 16L29 13L28 13L28 12L26 12L26 11L27 11L27 10L28 10L28 11L29 11L29 10L28 10L28 9L29 9L29 8L25 8L25 9L24 9L24 8L23 8L23 9L21 9L21 8L20 8L20 7L21 7L21 6L20 6L20 5L19 5L19 3L18 3L18 2L20 2L20 3L21 3L21 2L20 2L20 1L21 1L21 0L20 0L20 1L19 1L19 0L18 0L18 2L15 2L15 1L17 1L17 0ZM9 2L9 3L10 3L10 2ZM14 3L14 5L13 5L13 8L12 8L12 9L11 9L11 10L12 10L12 9L14 9L14 10L13 10L13 11L12 11L12 12L11 12L11 13L10 13L10 15L11 15L11 16L12 16L12 17L11 17L11 18L12 18L12 17L13 17L13 18L14 18L14 17L13 17L13 16L14 16L14 15L13 15L13 13L14 13L14 14L16 14L16 13L14 13L14 10L16 10L16 9L14 9L14 8L17 8L17 10L18 10L18 11L19 11L19 12L22 12L22 13L25 13L25 12L24 12L24 11L23 11L23 12L22 12L22 10L21 10L21 9L19 9L19 8L17 8L17 7L18 7L18 6L19 6L19 7L20 7L20 6L19 6L19 5L17 5L17 7L16 7L16 5L15 5L15 3ZM16 3L16 4L17 4L17 3ZM14 5L14 7L15 7L15 5ZM5 9L5 11L6 11L6 12L5 12L5 13L4 13L4 14L5 14L5 13L6 13L6 14L7 14L7 13L6 13L6 12L7 12L7 11L6 11L6 10L7 10L7 9ZM18 9L18 10L19 10L19 9ZM25 9L25 10L27 10L27 9ZM20 10L20 11L21 11L21 10ZM1 11L1 13L2 13L2 14L3 14L3 13L2 13L2 11ZM12 12L12 13L13 13L13 12ZM23 14L23 15L24 15L24 16L22 16L22 17L25 17L25 14ZM12 15L12 16L13 16L13 15ZM15 15L15 16L16 16L16 15ZM15 17L15 18L16 18L16 17ZM10 19L10 20L11 20L11 21L9 21L9 22L10 22L10 23L9 23L9 24L10 24L10 23L11 23L11 24L12 24L12 25L11 25L11 26L10 26L10 27L9 27L9 28L10 28L10 27L11 27L11 26L12 26L12 25L13 25L13 26L16 26L16 25L17 25L17 26L18 26L18 25L17 25L17 24L16 24L16 23L15 23L15 22L16 22L16 21L15 21L15 22L13 22L13 21L12 21L12 20L13 20L13 19L12 19L12 20L11 20L11 19ZM0 20L0 21L2 21L2 20ZM4 20L4 21L5 21L5 20ZM6 20L6 21L7 21L7 20ZM21 21L21 24L24 24L24 21ZM18 22L18 23L20 23L20 22ZM22 22L22 23L23 23L23 22ZM12 23L12 24L13 24L13 25L16 25L16 24L15 24L15 23L14 23L14 24L13 24L13 23ZM25 25L25 26L26 26L26 25ZM12 27L12 28L13 28L13 27ZM0 0L0 7L7 7L7 0ZM1 1L1 6L6 6L6 1ZM2 2L2 5L5 5L5 2ZM22 0L22 7L29 7L29 0ZM23 1L23 6L28 6L28 1ZM24 2L24 5L27 5L27 2ZM0 22L0 29L7 29L7 22ZM1 23L1 28L6 28L6 23ZM2 24L2 27L5 27L5 24Z" fill="#282828"/></g></g></svg>
