<?xml version="1.0" encoding="UTF-8"?>
<svg xmlns="http://www.w3.org/2000/svg" version="1.1" width="90" height="90" viewBox="0 0 90 90"><rect x="0" y="0" width="90" height="90" fill="#ffffff"/><g transform="scale(3.333)"><g transform="translate(1,1)"><path fill-rule="evenodd" d="M9 0L9 1L8 1L8 2L9 2L9 3L8 3L8 4L10 4L10 7L11 7L11 4L12 4L12 8L6 8L6 9L8 9L8 10L5 10L5 8L0 8L0 10L1 10L1 11L0 11L0 17L1 17L1 13L2 13L2 12L1 12L1 11L2 11L2 10L1 10L1 9L4 9L4 10L3 10L3 13L4 13L4 14L2 14L2 17L4 17L4 16L3 16L3 15L4 15L4 14L6 14L6 15L5 15L5 17L7 17L7 16L6 16L6 15L9 15L9 16L10 16L10 15L9 15L9 14L12 14L12 15L11 15L11 16L13 16L13 17L8 17L8 19L9 19L9 20L8 20L8 25L11 25L11 24L9 24L9 23L10 23L10 22L12 22L12 24L13 24L13 25L15 25L15 24L17 24L17 25L19 25L19 23L20 23L20 22L19 22L19 21L21 21L21 25L25 25L25 21L24 21L24 20L25 20L25 18L24 18L24 17L25 17L25 16L24 16L24 17L23 17L23 18L24 18L24 20L22 20L22 21L21 21L21 19L22 19L22 18L21 18L21 17L22 17L22 16L21 16L21 14L20 14L20 13L21 13L21 11L22 11L22 10L24 10L24 11L23 11L23 13L22 13L22 15L23 15L23 14L24 14L24 15L25 15L25 14L24 14L24 13L25 13L25 10L24 10L24 8L23 8L23 9L22 9L22 8L21 8L21 10L20 10L20 8L19 8L19 11L18 11L18 10L17 10L17 9L18 9L18 8L17 8L17 6L16 6L16 5L17 5L17 4L16 4L16 5L15 5L15 3L12 3L12 2L13 2L13 1L14 1L14 2L16 2L16 3L17 3L17 0L16 0L16 1L14 1L14 0L13 0L13 1L11 1L11 2L10 2L10 0ZM10 3L10 4L11 4L11 3ZM13 4L13 5L14 5L14 4ZM8 5L8 7L9 7L9 5ZM13 6L13 8L12 8L12 9L13 9L13 10L11 10L11 9L10 9L10 11L11 11L11 12L10 12L10 13L13 13L13 12L14 12L14 10L15 10L15 9L17 9L17 8L16 8L16 6L15 6L15 9L13 9L13 8L14 8L14 6ZM4 10L4 12L7 12L7 11L5 11L5 10ZM8 10L8 14L9 14L9 10ZM16 10L16 13L14 13L14 14L16 14L16 15L13 15L13 16L15 16L15 17L14 17L14 18L15 18L15 19L13 19L13 18L9 18L9 19L11 19L11 21L12 21L12 22L13 22L13 21L14 21L14 20L16 20L16 18L15 18L15 17L16 17L16 15L17 15L17 12L18 12L18 11L17 11L17 10ZM19 12L19 13L18 13L18 14L19 14L19 15L18 15L18 16L19 16L19 15L20 15L20 14L19 14L19 13L20 13L20 12ZM6 13L6 14L7 14L7 13ZM17 17L17 20L20 20L20 17ZM18 18L18 19L19 19L19 18ZM12 19L12 21L13 21L13 19ZM9 21L9 22L10 22L10 21ZM22 21L22 22L23 22L23 23L22 23L22 24L24 24L24 22L23 22L23 21ZM15 22L15 23L16 23L16 22ZM17 22L17 23L19 23L19 22ZM13 23L13 24L14 24L14 23ZM0 0L0 7L7 7L7 0ZM1 1L1 6L6 6L6 1ZM2 2L2 5L5 5L5 2ZM18 0L18 7L25 7L25 0ZM19 1L19 6L24 6L24 1ZM20 2L20 5L23 5L23 2ZM0 18L0 25L7 25L7 18ZM1 19L1 24L6 24L6 19ZM2 20L2 23L5 23L5 20Z" fill="#282828"/></g></g></svg>
