<?xml version="1.0" encoding="UTF-8"?>
<svg xmlns="http://www.w3.org/2000/svg" version="1.1" width="90" height="90" viewBox="0 0 90 90"><rect x="0" y="0" width="90" height="90" fill="#ffffff"/><g transform="scale(2.903)"><g transform="translate(1,1)"><path fill-rule="evenodd" d="M9 0L9 1L8 1L8 2L9 2L9 3L8 3L8 4L9 4L9 3L13 3L13 4L10 4L10 5L8 5L8 7L9 7L9 8L6 8L6 9L7 9L7 10L5 10L5 11L8 11L8 9L10 9L10 8L11 8L11 6L10 6L10 5L13 5L13 4L14 4L14 7L15 7L15 8L13 8L13 6L12 6L12 9L11 9L11 10L10 10L10 11L11 11L11 10L12 10L12 12L13 12L13 13L14 13L14 12L15 12L15 13L16 13L16 14L15 14L15 16L14 16L14 17L13 17L13 18L14 18L14 20L12 20L12 19L11 19L11 20L10 20L10 19L8 19L8 17L7 17L7 16L6 16L6 15L8 15L8 16L9 16L9 17L10 17L10 15L8 15L8 13L9 13L9 14L10 14L10 13L11 13L11 14L12 14L12 13L11 13L11 12L8 12L8 13L7 13L7 12L6 12L6 13L4 13L4 14L6 14L6 15L5 15L5 16L4 16L4 17L1 17L1 16L3 16L3 15L0 15L0 21L1 21L1 18L3 18L3 19L2 19L2 20L3 20L3 21L4 21L4 20L3 20L3 19L5 19L5 18L6 18L6 19L7 19L7 20L5 20L5 21L8 21L8 23L10 23L10 25L9 25L9 24L8 24L8 29L11 29L11 28L9 28L9 27L10 27L10 25L11 25L11 26L12 26L12 25L14 25L14 26L13 26L13 27L12 27L12 29L16 29L16 28L17 28L17 29L18 29L18 28L19 28L19 29L20 29L20 28L24 28L24 29L25 29L25 28L26 28L26 29L27 29L27 28L28 28L28 26L29 26L29 25L28 25L28 26L26 26L26 27L25 27L25 26L24 26L24 25L25 25L25 24L26 24L26 23L25 23L25 17L27 17L27 16L26 16L26 15L25 15L25 17L23 17L23 16L24 16L24 14L26 14L26 13L22 13L22 12L23 12L23 11L24 11L24 10L25 10L25 12L26 12L26 11L27 11L27 9L28 9L28 8L27 8L27 9L26 9L26 8L25 8L25 9L24 9L24 8L23 8L23 9L22 9L22 8L21 8L21 5L20 5L20 4L18 4L18 3L19 3L19 0L18 0L18 1L17 1L17 0L16 0L16 1L15 1L15 0L14 0L14 2L15 2L15 3L13 3L13 0ZM20 0L20 1L21 1L21 0ZM11 1L11 2L12 2L12 1ZM17 2L17 3L16 3L16 4L15 4L15 5L16 5L16 4L17 4L17 7L16 7L16 6L15 6L15 7L16 7L16 8L15 8L15 9L12 9L12 10L13 10L13 12L14 12L14 10L16 10L16 11L15 11L15 12L18 12L18 13L17 13L17 15L16 15L16 17L14 17L14 18L16 18L16 17L17 17L17 18L18 18L18 17L20 17L20 14L18 14L18 13L20 13L20 12L22 12L22 10L21 10L21 11L20 11L20 10L19 10L19 9L21 9L21 8L20 8L20 5L19 5L19 7L18 7L18 4L17 4L17 3L18 3L18 2ZM9 6L9 7L10 7L10 6ZM0 8L0 9L1 9L1 12L2 12L2 11L3 11L3 12L4 12L4 11L3 11L3 10L2 10L2 9L5 9L5 8ZM17 8L17 9L16 9L16 10L18 10L18 11L19 11L19 12L20 12L20 11L19 11L19 10L18 10L18 8ZM27 12L27 13L28 13L28 14L27 14L27 15L28 15L28 14L29 14L29 12ZM0 13L0 14L1 14L1 13ZM2 13L2 14L3 14L3 13ZM6 13L6 14L7 14L7 13ZM22 14L22 16L21 16L21 17L22 17L22 19L21 19L21 20L22 20L22 19L24 19L24 18L23 18L23 17L22 17L22 16L23 16L23 14ZM11 15L11 17L12 17L12 15ZM17 16L17 17L18 17L18 16ZM4 17L4 18L5 18L5 17ZM6 17L6 18L7 18L7 17ZM28 17L28 18L26 18L26 19L27 19L27 20L26 20L26 21L28 21L28 22L27 22L27 24L28 24L28 22L29 22L29 21L28 21L28 20L29 20L29 19L28 19L28 18L29 18L29 17ZM19 18L19 19L20 19L20 18ZM17 19L17 20L15 20L15 21L12 21L12 20L11 20L11 21L10 21L10 20L9 20L9 21L10 21L10 22L11 22L11 23L12 23L12 24L14 24L14 23L15 23L15 21L17 21L17 22L16 22L16 25L15 25L15 26L14 26L14 27L13 27L13 28L14 28L14 27L15 27L15 26L17 26L17 24L18 24L18 25L19 25L19 26L18 26L18 27L17 27L17 28L18 28L18 27L21 27L21 25L20 25L20 24L19 24L19 23L18 23L18 21L19 21L19 22L20 22L20 21L19 21L19 20L18 20L18 19ZM17 20L17 21L18 21L18 20ZM11 21L11 22L12 22L12 23L13 23L13 22L12 22L12 21ZM21 21L21 24L24 24L24 21ZM22 22L22 23L23 23L23 22ZM26 27L26 28L27 28L27 27ZM0 0L0 7L7 7L7 0ZM1 1L1 6L6 6L6 1ZM2 2L2 5L5 5L5 2ZM22 0L22 7L29 7L29 0ZM23 1L23 6L28 6L28 1ZM24 2L24 5L27 5L27 2ZM0 22L0 29L7 29L7 22ZM1 23L1 28L6 28L6 23ZM2 24L2 27L5 27L5 24Z" fill="#282828"/></g></g></svg>
