<?xml version="1.0" encoding="UTF-8"?>
<svg xmlns="http://www.w3.org/2000/svg" version="1.1" width="90" height="90" viewBox="0 0 90 90"><rect x="0" y="0" width="90" height="90" fill="#ffffff"/><g transform="scale(2.903)"><g transform="translate(1,1)"><path fill-rule="evenodd" d="M8 0L8 1L10 1L10 0ZM15 0L15 1L14 1L14 2L11 2L11 4L10 4L10 3L9 3L9 2L8 2L8 5L9 5L9 6L8 6L8 7L9 7L9 8L8 8L8 9L7 9L7 8L6 8L6 9L7 9L7 10L4 10L4 11L5 11L5 12L1 12L1 11L3 11L3 9L4 9L4 8L0 8L0 12L1 12L1 13L0 13L0 15L1 15L1 16L2 16L2 17L3 17L3 18L2 18L2 20L1 20L1 21L2 21L2 20L4 20L4 19L5 19L5 21L7 21L7 20L8 20L8 22L10 22L10 24L9 24L9 25L8 25L8 29L9 29L9 28L12 28L12 29L13 29L13 28L12 28L12 26L13 26L13 27L14 27L14 29L15 29L15 28L16 28L16 27L14 27L14 26L15 26L15 24L16 24L16 26L17 26L17 24L16 24L16 23L17 23L17 22L18 22L18 24L19 24L19 21L20 21L20 27L21 27L21 26L22 26L22 28L23 28L23 29L25 29L25 28L26 28L26 29L28 29L28 27L29 27L29 25L28 25L28 23L27 23L27 21L26 21L26 20L27 20L27 19L28 19L28 22L29 22L29 19L28 19L28 16L27 16L27 19L25 19L25 18L26 18L26 17L25 17L25 18L24 18L24 17L22 17L22 16L21 16L21 15L23 15L23 14L24 14L24 16L25 16L25 15L29 15L29 14L28 14L28 13L29 13L29 12L28 12L28 9L29 9L29 8L28 8L28 9L27 9L27 8L24 8L24 9L23 9L23 11L24 11L24 10L25 10L25 12L26 12L26 13L25 13L25 14L24 14L24 13L23 13L23 14L22 14L22 13L19 13L19 12L20 12L20 11L21 11L21 12L22 12L22 8L21 8L21 9L20 9L20 7L21 7L21 6L20 6L20 5L19 5L19 6L18 6L18 7L17 7L17 6L16 6L16 8L18 8L18 9L20 9L20 11L19 11L19 10L17 10L17 11L15 11L15 10L14 10L14 11L11 11L11 13L10 13L10 12L8 12L8 13L9 13L9 14L6 14L6 15L8 15L8 16L6 16L6 17L7 17L7 18L6 18L6 19L5 19L5 18L4 18L4 17L3 17L3 16L2 16L2 14L1 14L1 13L3 13L3 14L5 14L5 13L7 13L7 12L6 12L6 11L7 11L7 10L8 10L8 9L9 9L9 10L10 10L10 9L9 9L9 8L10 8L10 7L11 7L11 8L12 8L12 7L13 7L13 9L15 9L15 5L14 5L14 4L13 4L13 5L12 5L12 3L16 3L16 1L17 1L17 2L18 2L18 3L19 3L19 4L20 4L20 3L21 3L21 2L20 2L20 3L19 3L19 0ZM20 0L20 1L21 1L21 0ZM17 4L17 5L18 5L18 4ZM10 5L10 6L9 6L9 7L10 7L10 6L11 6L11 7L12 7L12 5ZM13 5L13 7L14 7L14 5ZM19 6L19 7L20 7L20 6ZM1 9L1 10L2 10L2 9ZM17 11L17 12L19 12L19 11ZM26 11L26 12L27 12L27 13L26 13L26 14L27 14L27 13L28 13L28 12L27 12L27 11ZM12 12L12 14L11 14L11 15L10 15L10 14L9 14L9 16L10 16L10 17L9 17L9 18L10 18L10 17L11 17L11 18L12 18L12 17L14 17L14 18L13 18L13 20L14 20L14 21L15 21L15 22L14 22L14 23L11 23L11 24L10 24L10 26L11 26L11 25L12 25L12 24L13 24L13 26L14 26L14 24L15 24L15 23L16 23L16 21L18 21L18 20L21 20L21 19L20 19L20 18L19 18L19 17L17 17L17 16L18 16L18 15L19 15L19 16L20 16L20 15L21 15L21 14L20 14L20 15L19 15L19 13L18 13L18 14L17 14L17 13L16 13L16 14L15 14L15 12ZM13 13L13 14L12 14L12 16L11 16L11 17L12 17L12 16L14 16L14 15L15 15L15 16L16 16L16 15L15 15L15 14L14 14L14 13ZM13 14L13 15L14 15L14 14ZM15 17L15 19L16 19L16 17ZM21 17L21 18L22 18L22 20L25 20L25 19L23 19L23 18L22 18L22 17ZM0 18L0 19L1 19L1 18ZM7 18L7 19L6 19L6 20L7 20L7 19L8 19L8 20L12 20L12 19L8 19L8 18ZM17 18L17 20L18 20L18 18ZM11 21L11 22L12 22L12 21ZM21 21L21 24L24 24L24 21ZM22 22L22 23L23 23L23 22ZM25 23L25 25L24 25L24 28L25 28L25 27L26 27L26 28L27 28L27 27L28 27L28 25L27 25L27 23ZM22 25L22 26L23 26L23 25ZM26 25L26 26L27 26L27 25ZM18 26L18 28L17 28L17 29L21 29L21 28L19 28L19 26ZM0 0L0 7L7 7L7 0ZM1 1L1 6L6 6L6 1ZM2 2L2 5L5 5L5 2ZM22 0L22 7L29 7L29 0ZM23 1L23 6L28 6L28 1ZM24 2L24 5L27 5L27 2ZM0 22L0 29L7 29L7 22ZM1 23L1 28L6 28L6 23ZM2 24L2 27L5 27L5 24Z" fill="#282828"/></g></g></svg>
