<?xml version="1.0" encoding="UTF-8"?>
<svg xmlns="http://www.w3.org/2000/svg" version="1.1" width="90" height="90" viewBox="0 0 90 90"><rect x="0" y="0" width="90" height="90" fill="#ffffff"/><g transform="scale(3.333)"><g transform="translate(1,1)"><path fill-rule="evenodd" d="M8 0L8 1L10 1L10 0ZM13 0L13 2L11 2L11 4L10 4L10 3L9 3L9 2L8 2L8 5L9 5L9 6L8 6L8 7L9 7L9 8L8 8L8 9L9 9L9 10L10 10L10 9L9 9L9 8L10 8L10 7L11 7L11 8L12 8L12 7L13 7L13 6L14 6L14 7L15 7L15 5L12 5L12 3L14 3L14 4L16 4L16 5L17 5L17 4L16 4L16 3L17 3L17 0L15 0L15 1L16 1L16 2L14 2L14 0ZM10 5L10 6L9 6L9 7L10 7L10 6L11 6L11 7L12 7L12 5ZM16 6L16 7L17 7L17 6ZM0 8L0 9L2 9L2 10L3 10L3 12L4 12L4 13L2 13L2 11L1 11L1 12L0 12L0 13L2 13L2 14L1 14L1 15L0 15L0 16L1 16L1 15L2 15L2 14L3 14L3 16L2 16L2 17L5 17L5 16L4 16L4 15L7 15L7 14L4 14L4 13L5 13L5 12L4 12L4 10L3 10L3 9L4 9L4 8ZM6 8L6 9L7 9L7 8ZM13 8L13 9L15 9L15 10L13 10L13 11L11 11L11 13L10 13L10 12L9 12L9 11L8 11L8 14L9 14L9 13L10 13L10 14L12 14L12 16L11 16L11 15L8 15L8 18L10 18L10 20L9 20L9 21L8 21L8 25L11 25L11 24L12 24L12 22L13 22L13 18L15 18L15 17L14 17L14 16L16 16L16 21L17 21L17 23L16 23L16 24L20 24L20 23L21 23L21 22L22 22L22 24L21 24L21 25L25 25L25 24L23 24L23 23L24 23L24 22L25 22L25 17L24 17L24 16L23 16L23 17L21 17L21 15L22 15L22 14L23 14L23 13L24 13L24 14L25 14L25 11L24 11L24 9L25 9L25 8L24 8L24 9L23 9L23 8L20 8L20 9L18 9L18 8L16 8L16 9L15 9L15 8ZM20 9L20 10L17 10L17 12L19 12L19 13L18 13L18 15L19 15L19 14L20 14L20 12L21 12L21 13L23 13L23 12L24 12L24 11L23 11L23 9L22 9L22 11L23 11L23 12L21 12L21 11L20 11L20 10L21 10L21 9ZM5 10L5 11L7 11L7 10ZM15 10L15 11L14 11L14 12L13 12L13 13L12 13L12 14L13 14L13 16L14 16L14 14L15 14L15 15L16 15L16 16L17 16L17 15L16 15L16 10ZM19 11L19 12L20 12L20 11ZM6 12L6 13L7 13L7 12ZM14 12L14 13L13 13L13 14L14 14L14 13L15 13L15 12ZM6 16L6 17L7 17L7 16ZM10 17L10 18L11 18L11 20L10 20L10 22L9 22L9 24L10 24L10 22L11 22L11 21L12 21L12 18L13 18L13 17L12 17L12 18L11 18L11 17ZM17 17L17 20L20 20L20 17ZM18 18L18 19L19 19L19 18ZM22 18L22 22L23 22L23 21L24 21L24 20L23 20L23 19L24 19L24 18ZM14 19L14 21L15 21L15 19ZM19 21L19 22L18 22L18 23L20 23L20 21ZM14 22L14 23L13 23L13 25L14 25L14 24L15 24L15 22ZM0 0L0 7L7 7L7 0ZM1 1L1 6L6 6L6 1ZM2 2L2 5L5 5L5 2ZM18 0L18 7L25 7L25 0ZM19 1L19 6L24 6L24 1ZM20 2L20 5L23 5L23 2ZM0 18L0 25L7 25L7 18ZM1 19L1 24L6 24L6 19ZM2 20L2 23L5 23L5 20Z" fill="#282828"/></g></g></svg>
