<?xml version="1.0" encoding="UTF-8"?>
<svg xmlns="http://www.w3.org/2000/svg" version="1.1" width="90" height="90" viewBox="0 0 90 90"><rect x="0" y="0" width="90" height="90" fill="#ffffff"/><g transform="scale(3.333)"><g transform="translate(1,1)"><path fill-rule="evenodd" d="M8 0L8 4L10 4L10 3L11 3L11 4L12 4L12 2L11 2L11 0ZM12 0L12 1L16 1L16 2L17 2L17 0ZM9 2L9 3L10 3L10 2ZM14 2L14 3L13 3L13 5L11 5L11 6L10 6L10 7L9 7L9 5L8 5L8 7L9 7L9 8L10 8L10 7L11 7L11 6L12 6L12 8L11 8L11 9L7 9L7 8L4 8L4 9L5 9L5 10L6 10L6 11L4 11L4 10L2 10L2 8L0 8L0 9L1 9L1 10L2 10L2 11L1 11L1 12L0 12L0 14L2 14L2 15L3 15L3 13L4 13L4 14L5 14L5 13L4 13L4 12L6 12L6 13L7 13L7 14L6 14L6 15L4 15L4 16L0 16L0 17L4 17L4 16L6 16L6 17L8 17L8 18L9 18L9 19L8 19L8 21L9 21L9 22L10 22L10 21L11 21L11 23L12 23L12 24L13 24L13 23L14 23L14 21L15 21L15 20L16 20L16 21L17 21L17 23L18 23L18 25L21 25L21 24L22 24L22 25L25 25L25 24L24 24L24 22L25 22L25 21L23 21L23 19L24 19L24 17L25 17L25 15L24 15L24 13L25 13L25 11L24 11L24 9L25 9L25 8L21 8L21 9L20 9L20 8L19 8L19 9L20 9L20 10L19 10L19 11L18 11L18 9L16 9L16 7L17 7L17 6L16 6L16 7L15 7L15 5L17 5L17 3L16 3L16 4L15 4L15 2ZM13 6L13 8L12 8L12 9L11 9L11 10L9 10L9 11L8 11L8 12L7 12L7 11L6 11L6 12L7 12L7 13L9 13L9 15L8 15L8 14L7 14L7 15L6 15L6 16L9 16L9 17L10 17L10 19L9 19L9 20L11 20L11 21L14 21L14 19L16 19L16 16L15 16L15 14L16 14L16 13L17 13L17 11L15 11L15 12L14 12L14 11L12 11L12 12L11 12L11 13L10 13L10 11L11 11L11 10L12 10L12 9L13 9L13 10L15 10L15 8L14 8L14 6ZM13 8L13 9L14 9L14 8ZM6 9L6 10L7 10L7 9ZM21 9L21 10L20 10L20 11L19 11L19 12L20 12L20 13L18 13L18 14L19 14L19 15L17 15L17 16L19 16L19 15L20 15L20 16L21 16L21 17L22 17L22 18L23 18L23 17L24 17L24 16L22 16L22 15L23 15L23 14L20 14L20 13L21 13L21 12L22 12L22 13L23 13L23 12L22 12L22 11L23 11L23 9ZM21 10L21 11L22 11L22 10ZM2 11L2 12L1 12L1 13L2 13L2 12L3 12L3 11ZM12 12L12 13L13 13L13 14L14 14L14 13L13 13L13 12ZM15 12L15 13L16 13L16 12ZM10 14L10 16L11 16L11 17L12 17L12 18L11 18L11 19L12 19L12 18L15 18L15 17L13 17L13 15L12 15L12 16L11 16L11 14ZM17 17L17 20L20 20L20 17ZM18 18L18 19L19 19L19 18ZM21 19L21 20L22 20L22 19ZM21 21L21 22L20 22L20 23L19 23L19 24L21 24L21 22L22 22L22 23L23 23L23 21ZM12 22L12 23L13 23L13 22ZM8 23L8 25L9 25L9 23ZM15 23L15 24L14 24L14 25L16 25L16 23ZM10 24L10 25L11 25L11 24ZM0 0L0 7L7 7L7 0ZM1 1L1 6L6 6L6 1ZM2 2L2 5L5 5L5 2ZM18 0L18 7L25 7L25 0ZM19 1L19 6L24 6L24 1ZM20 2L20 5L23 5L23 2ZM0 18L0 25L7 25L7 18ZM1 19L1 24L6 24L6 19ZM2 20L2 23L5 23L5 20Z" fill="#282828"/></g></g></svg>
