<?xml version="1.0" encoding="UTF-8"?>
<svg xmlns="http://www.w3.org/2000/svg" version="1.1" width="90" height="90" viewBox="0 0 90 90"><rect x="0" y="0" width="90" height="90" fill="#ffffff"/><g transform="scale(3.333)"><g transform="translate(1,1)"><path fill-rule="evenodd" d="M8 0L8 1L10 1L10 0ZM14 0L14 2L11 2L11 4L10 4L10 3L9 3L9 2L8 2L8 5L9 5L9 6L8 6L8 7L9 7L9 8L8 8L8 9L9 9L9 10L6 10L6 11L8 11L8 12L9 12L9 14L10 14L10 15L7 15L7 14L8 14L8 13L7 13L7 12L6 12L6 13L5 13L5 12L3 12L3 10L4 10L4 11L5 11L5 10L4 10L4 8L0 8L0 10L1 10L1 12L0 12L0 13L1 13L1 12L2 12L2 14L1 14L1 15L0 15L0 16L1 16L1 15L2 15L2 16L4 16L4 15L5 15L5 17L8 17L8 18L9 18L9 20L10 20L10 21L8 21L8 25L9 25L9 24L10 24L10 23L9 23L9 22L11 22L11 23L14 23L14 20L13 20L13 19L14 19L14 18L15 18L15 20L16 20L16 21L15 21L15 22L16 22L16 24L17 24L17 23L19 23L19 24L18 24L18 25L19 25L19 24L20 24L20 23L21 23L21 22L22 22L22 24L21 24L21 25L25 25L25 24L23 24L23 23L24 23L24 22L25 22L25 21L24 21L24 20L25 20L25 17L24 17L24 16L23 16L23 17L21 17L21 15L22 15L22 14L23 14L23 13L24 13L24 14L25 14L25 11L24 11L24 9L25 9L25 8L24 8L24 9L23 9L23 8L20 8L20 9L18 9L18 8L17 8L17 3L16 3L16 2L17 2L17 0L16 0L16 2L15 2L15 0ZM14 2L14 3L15 3L15 5L14 5L14 4L13 4L13 3L12 3L12 5L10 5L10 6L9 6L9 7L10 7L10 8L9 8L9 9L10 9L10 10L9 10L9 12L10 12L10 13L11 13L11 11L13 11L13 10L14 10L14 9L15 9L15 8L16 8L16 3L15 3L15 2ZM12 5L12 7L11 7L11 6L10 6L10 7L11 7L11 8L12 8L12 7L13 7L13 6L14 6L14 7L15 7L15 6L14 6L14 5ZM6 8L6 9L7 9L7 8ZM17 9L17 11L16 11L16 10L15 10L15 11L14 11L14 13L13 13L13 12L12 12L12 14L11 14L11 15L10 15L10 16L12 16L12 17L10 17L10 18L12 18L12 17L13 17L13 16L16 16L16 15L17 15L17 16L18 16L18 15L17 15L17 14L16 14L16 13L17 13L17 11L18 11L18 12L19 12L19 13L18 13L18 14L19 14L19 13L23 13L23 12L24 12L24 11L23 11L23 12L20 12L20 11L21 11L21 9L20 9L20 11L19 11L19 10L18 10L18 9ZM22 9L22 10L23 10L23 9ZM15 12L15 13L16 13L16 12ZM4 13L4 14L2 14L2 15L4 15L4 14L5 14L5 13ZM6 13L6 14L7 14L7 13ZM12 14L12 16L13 16L13 14ZM14 14L14 15L15 15L15 14ZM6 15L6 16L7 16L7 15ZM19 15L19 16L20 16L20 15ZM8 16L8 17L9 17L9 16ZM15 17L15 18L16 18L16 17ZM17 17L17 20L20 20L20 17ZM18 18L18 19L19 19L19 18ZM22 18L22 22L23 22L23 19L24 19L24 18ZM10 19L10 20L12 20L12 19ZM11 21L11 22L12 22L12 21ZM17 21L17 22L18 22L18 21ZM19 21L19 22L21 22L21 21ZM12 24L12 25L13 25L13 24ZM14 24L14 25L15 25L15 24ZM0 0L0 7L7 7L7 0ZM1 1L1 6L6 6L6 1ZM2 2L2 5L5 5L5 2ZM18 0L18 7L25 7L25 0ZM19 1L19 6L24 6L24 1ZM20 2L20 5L23 5L23 2ZM0 18L0 25L7 25L7 18ZM1 19L1 24L6 24L6 19ZM2 20L2 23L5 23L5 20Z" fill="#282828"/></g></g></svg>
