<?xml version="1.0" encoding="UTF-8"?>
<svg xmlns="http://www.w3.org/2000/svg" version="1.1" width="90" height="90" viewBox="0 0 90 90"><rect x="0" y="0" width="90" height="90" fill="#ffffff"/><g transform="scale(2.903)"><g transform="translate(1,1)"><path fill-rule="evenodd" d="M9 0L9 1L8 1L8 2L9 2L9 3L8 3L8 4L10 4L10 7L11 7L11 4L12 4L12 5L13 5L13 4L15 4L15 6L14 6L14 8L13 8L13 6L12 6L12 9L14 9L14 10L11 10L11 11L10 11L10 9L11 9L11 8L6 8L6 9L9 9L9 10L6 10L6 11L7 11L7 12L5 12L5 11L4 11L4 10L3 10L3 9L5 9L5 8L0 8L0 10L1 10L1 11L0 11L0 14L1 14L1 16L0 16L0 21L1 21L1 16L2 16L2 18L4 18L4 17L5 17L5 16L6 16L6 17L7 17L7 18L6 18L6 19L7 19L7 18L8 18L8 17L9 17L9 18L10 18L10 21L8 21L8 20L9 20L9 19L8 19L8 20L5 20L5 19L3 19L3 20L2 20L2 21L3 21L3 20L4 20L4 21L8 21L8 23L10 23L10 24L8 24L8 29L9 29L9 26L10 26L10 25L11 25L11 23L10 23L10 21L12 21L12 22L13 22L13 23L12 23L12 25L13 25L13 24L14 24L14 25L15 25L15 27L14 27L14 28L17 28L17 25L18 25L18 28L19 28L19 29L20 29L20 28L21 28L21 29L22 29L22 28L23 28L23 27L24 27L24 29L25 29L25 27L26 27L26 25L27 25L27 28L26 28L26 29L27 29L27 28L28 28L28 26L29 26L29 24L26 24L26 23L25 23L25 22L27 22L27 23L28 23L28 22L29 22L29 21L28 21L28 20L29 20L29 19L28 19L28 18L29 18L29 17L28 17L28 18L27 18L27 16L29 16L29 15L28 15L28 14L29 14L29 13L28 13L28 14L27 14L27 13L21 13L21 12L23 12L23 11L24 11L24 12L26 12L26 11L27 11L27 12L28 12L28 11L27 11L27 9L28 9L28 8L27 8L27 9L26 9L26 8L25 8L25 9L24 9L24 8L23 8L23 9L22 9L22 8L21 8L21 6L20 6L20 7L19 7L19 5L21 5L21 4L19 4L19 5L18 5L18 4L17 4L17 0L16 0L16 1L15 1L15 0L14 0L14 1L15 1L15 2L16 2L16 4L15 4L15 3L13 3L13 4L12 4L12 2L13 2L13 1L11 1L11 2L10 2L10 0ZM18 0L18 3L19 3L19 1L20 1L20 3L21 3L21 1L20 1L20 0ZM10 3L10 4L11 4L11 3ZM8 5L8 7L9 7L9 5ZM15 6L15 8L14 8L14 9L17 9L17 10L16 10L16 11L15 11L15 10L14 10L14 11L12 11L12 13L11 13L11 12L10 12L10 13L9 13L9 15L8 15L8 12L9 12L9 11L8 11L8 12L7 12L7 13L5 13L5 12L3 12L3 10L2 10L2 11L1 11L1 13L4 13L4 14L5 14L5 15L2 15L2 16L3 16L3 17L4 17L4 16L5 16L5 15L6 15L6 16L7 16L7 17L8 17L8 16L9 16L9 17L10 17L10 18L13 18L13 19L12 19L12 21L14 21L14 22L15 22L15 21L19 21L19 22L18 22L18 23L17 23L17 22L16 22L16 24L19 24L19 25L20 25L20 27L19 27L19 28L20 28L20 27L21 27L21 28L22 28L22 27L21 27L21 26L24 26L24 25L20 25L20 23L19 23L19 22L20 22L20 20L21 20L21 19L22 19L22 20L25 20L25 21L26 21L26 20L27 20L27 18L25 18L25 19L22 19L22 18L19 18L19 20L18 20L18 19L17 19L17 18L18 18L18 17L19 17L19 16L20 16L20 17L23 17L23 16L24 16L24 17L26 17L26 16L27 16L27 14L26 14L26 16L24 16L24 15L25 15L25 14L24 14L24 15L23 15L23 14L17 14L17 16L16 16L16 15L13 15L13 14L14 14L14 13L19 13L19 12L21 12L21 11L20 11L20 10L19 10L19 11L18 11L18 9L19 9L19 8L18 8L18 6L17 6L17 8L16 8L16 6ZM20 8L20 9L21 9L21 8ZM22 10L22 11L23 11L23 10ZM16 11L16 12L17 12L17 11ZM13 12L13 13L12 13L12 14L13 14L13 13L14 13L14 12ZM10 13L10 15L9 15L9 16L10 16L10 15L11 15L11 13ZM6 14L6 15L7 15L7 14ZM12 15L12 17L14 17L14 19L15 19L15 20L16 20L16 18L17 18L17 17L14 17L14 16L13 16L13 15ZM20 15L20 16L21 16L21 15ZM25 19L25 20L26 20L26 19ZM21 21L21 24L24 24L24 21ZM27 21L27 22L28 22L28 21ZM22 22L22 23L23 23L23 22ZM14 23L14 24L15 24L15 23ZM25 24L25 25L26 25L26 24ZM11 26L11 28L10 28L10 29L12 29L12 27L13 27L13 26ZM0 0L0 7L7 7L7 0ZM1 1L1 6L6 6L6 1ZM2 2L2 5L5 5L5 2ZM22 0L22 7L29 7L29 0ZM23 1L23 6L28 6L28 1ZM24 2L24 5L27 5L27 2ZM0 22L0 29L7 29L7 22ZM1 23L1 28L6 28L6 23ZM2 24L2 27L5 27L5 24Z" fill="#282828"/></g></g></svg>
