<?xml version="1.0" encoding="UTF-8"?>
<svg xmlns="http://www.w3.org/2000/svg" version="1.1" width="90" height="90" viewBox="0 0 90 90"><rect x="0" y="0" width="90" height="90" fill="#ffffff"/><g transform="scale(3.333)"><g transform="translate(1,1)"><path fill-rule="evenodd" d="M11 0L11 2L12 2L12 1L13 1L13 0ZM15 0L15 3L14 3L14 5L13 5L13 3L11 3L11 5L10 5L10 3L9 3L9 2L10 2L10 1L8 1L8 3L9 3L9 4L8 4L8 8L6 8L6 9L7 9L7 10L6 10L6 11L7 11L7 10L8 10L8 11L9 11L9 12L10 12L10 13L11 13L11 11L9 11L9 10L10 10L10 9L9 9L9 10L8 10L8 8L9 8L9 5L10 5L10 8L11 8L11 9L12 9L12 8L11 8L11 5L13 5L13 6L12 6L12 7L13 7L13 8L14 8L14 9L13 9L13 10L14 10L14 11L15 11L15 12L12 12L12 14L11 14L11 16L10 16L10 14L9 14L9 13L8 13L8 12L4 12L4 11L5 11L5 10L4 10L4 8L3 8L3 10L2 10L2 8L0 8L0 10L2 10L2 11L1 11L1 13L2 13L2 14L3 14L3 16L2 16L2 15L1 15L1 14L0 14L0 15L1 15L1 16L0 16L0 17L4 17L4 16L5 16L5 17L7 17L7 16L9 16L9 17L8 17L8 19L9 19L9 21L8 21L8 22L9 22L9 21L10 21L10 20L11 20L11 18L13 18L13 17L11 17L11 16L12 16L12 15L13 15L13 16L15 16L15 17L14 17L14 18L15 18L15 19L16 19L16 21L15 21L15 20L13 20L13 19L12 19L12 20L13 20L13 21L11 21L11 22L10 22L10 24L11 24L11 22L13 22L13 23L12 23L12 25L14 25L14 23L15 23L15 25L19 25L19 24L20 24L20 25L21 25L21 24L22 24L22 23L23 23L23 22L22 22L22 20L25 20L25 9L24 9L24 8L22 8L22 9L24 9L24 12L21 12L21 11L22 11L22 10L19 10L19 9L21 9L21 8L18 8L18 9L17 9L17 6L16 6L16 5L17 5L17 4L16 4L16 5L15 5L15 3L16 3L16 0ZM13 6L13 7L14 7L14 8L15 8L15 9L14 9L14 10L15 10L15 11L16 11L16 10L17 10L17 12L18 12L18 14L19 14L19 10L17 10L17 9L16 9L16 8L15 8L15 7L16 7L16 6L15 6L15 7L14 7L14 6ZM3 10L3 11L4 11L4 10ZM2 12L2 13L3 13L3 12ZM15 12L15 13L14 13L14 14L13 14L13 15L16 15L16 16L18 16L18 15L17 15L17 13L16 13L16 12ZM20 12L20 14L22 14L22 15L21 15L21 20L22 20L22 18L23 18L23 19L24 19L24 18L23 18L23 17L24 17L24 16L23 16L23 14L24 14L24 13L21 13L21 12ZM4 13L4 14L5 14L5 15L6 15L6 16L7 16L7 15L9 15L9 14L7 14L7 13ZM6 14L6 15L7 15L7 14ZM19 15L19 16L20 16L20 15ZM9 17L9 18L11 18L11 17ZM17 17L17 20L20 20L20 17ZM18 18L18 19L19 19L19 18ZM13 21L13 22L15 22L15 21ZM16 21L16 22L17 22L17 24L18 24L18 23L20 23L20 22L21 22L21 23L22 23L22 22L21 22L21 21L20 21L20 22L17 22L17 21ZM24 22L24 23L25 23L25 22ZM8 23L8 25L9 25L9 23ZM23 24L23 25L25 25L25 24ZM0 0L0 7L7 7L7 0ZM1 1L1 6L6 6L6 1ZM2 2L2 5L5 5L5 2ZM18 0L18 7L25 7L25 0ZM19 1L19 6L24 6L24 1ZM20 2L20 5L23 5L23 2ZM0 18L0 25L7 25L7 18ZM1 19L1 24L6 24L6 19ZM2 20L2 23L5 23L5 20Z" fill="#282828"/></g></g></svg>
