<?xml version="1.0" encoding="UTF-8"?>
<svg xmlns="http://www.w3.org/2000/svg" version="1.1" width="90" height="90" viewBox="0 0 90 90"><rect x="0" y="0" width="90" height="90" fill="#ffffff"/><g transform="scale(2.903)"><g transform="translate(1,1)"><path fill-rule="evenodd" d="M10 0L10 1L9 1L9 2L8 2L8 3L9 3L9 5L10 5L10 7L11 7L11 8L12 8L12 9L11 9L11 10L10 10L10 9L9 9L9 6L8 6L8 8L4 8L4 10L3 10L3 11L4 11L4 13L3 13L3 12L2 12L2 13L1 13L1 12L0 12L0 14L1 14L1 15L0 15L0 17L1 17L1 18L0 18L0 19L1 19L1 20L0 20L0 21L1 21L1 20L2 20L2 19L3 19L3 18L5 18L5 19L8 19L8 25L9 25L9 26L8 26L8 29L12 29L12 28L14 28L14 29L15 29L15 28L16 28L16 29L18 29L18 27L19 27L19 29L21 29L21 28L20 28L20 27L26 27L26 26L28 26L28 27L27 27L27 29L29 29L29 28L28 28L28 27L29 27L29 24L28 24L28 25L27 25L27 24L26 24L26 25L25 25L25 22L26 22L26 23L27 23L27 22L26 22L26 21L25 21L25 20L26 20L26 19L25 19L25 20L24 20L24 19L22 19L22 17L23 17L23 16L21 16L21 15L22 15L22 13L23 13L23 12L22 12L22 11L23 11L23 10L24 10L24 12L25 12L25 11L26 11L26 10L27 10L27 12L26 12L26 13L28 13L28 15L27 15L27 14L26 14L26 15L27 15L27 17L28 17L28 19L27 19L27 20L28 20L28 23L29 23L29 10L27 10L27 8L26 8L26 10L24 10L24 9L23 9L23 8L21 8L21 4L20 4L20 3L21 3L21 2L20 2L20 1L19 1L19 0L18 0L18 1L17 1L17 2L18 2L18 1L19 1L19 2L20 2L20 3L16 3L16 2L15 2L15 3L16 3L16 5L14 5L14 3L12 3L12 2L11 2L11 3L12 3L12 5L10 5L10 3L9 3L9 2L10 2L10 1L11 1L11 0ZM14 0L14 1L13 1L13 2L14 2L14 1L15 1L15 0ZM17 4L17 7L16 7L16 6L15 6L15 7L14 7L14 5L13 5L13 7L12 7L12 6L11 6L11 7L12 7L12 8L13 8L13 9L14 9L14 10L13 10L13 11L14 11L14 10L15 10L15 9L16 9L16 8L17 8L17 10L18 10L18 11L20 11L20 13L21 13L21 11L22 11L22 10L19 10L19 8L20 8L20 6L19 6L19 5L18 5L18 4ZM18 6L18 7L17 7L17 8L18 8L18 7L19 7L19 6ZM15 7L15 8L16 8L16 7ZM0 8L0 11L1 11L1 9L3 9L3 8ZM5 9L5 10L4 10L4 11L5 11L5 13L4 13L4 14L5 14L5 15L6 15L6 16L5 16L5 18L8 18L8 19L10 19L10 20L12 20L12 22L11 22L11 21L10 21L10 22L9 22L9 23L10 23L10 24L11 24L11 25L12 25L12 24L13 24L13 25L14 25L14 26L13 26L13 27L14 27L14 26L15 26L15 27L16 27L16 28L17 28L17 27L18 27L18 26L17 26L17 23L16 23L16 22L18 22L18 23L19 23L19 24L18 24L18 25L19 25L19 27L20 27L20 22L18 22L18 21L19 21L19 20L16 20L16 18L18 18L18 19L20 19L20 20L22 20L22 19L20 19L20 18L19 18L19 17L20 17L20 16L16 16L16 14L17 14L17 15L21 15L21 14L19 14L19 12L17 12L17 13L16 13L16 14L14 14L14 12L12 12L12 11L11 11L11 12L12 12L12 14L10 14L10 12L9 12L9 11L10 11L10 10L9 10L9 11L8 11L8 10L7 10L7 9ZM5 10L5 11L7 11L7 12L6 12L6 13L5 13L5 14L6 14L6 15L7 15L7 16L6 16L6 17L7 17L7 16L8 16L8 17L9 17L9 16L10 16L10 18L11 18L11 19L12 19L12 20L14 20L14 22L13 22L13 23L14 23L14 22L15 22L15 18L14 18L14 17L13 17L13 16L12 16L12 15L11 15L11 16L10 16L10 15L9 15L9 13L8 13L8 11L7 11L7 10ZM15 11L15 12L16 12L16 11ZM6 13L6 14L7 14L7 13ZM2 14L2 15L1 15L1 16L3 16L3 17L4 17L4 15L3 15L3 14ZM13 14L13 15L14 15L14 14ZM23 14L23 15L25 15L25 14ZM8 15L8 16L9 16L9 15ZM11 16L11 17L12 17L12 16ZM25 16L25 18L26 18L26 16ZM1 18L1 19L2 19L2 18ZM13 18L13 19L14 19L14 18ZM3 20L3 21L4 21L4 20ZM6 20L6 21L7 21L7 20ZM21 21L21 24L24 24L24 21ZM10 22L10 23L11 23L11 24L12 24L12 23L11 23L11 22ZM22 22L22 23L23 23L23 22ZM21 25L21 26L24 26L24 25ZM10 26L10 27L9 27L9 28L12 28L12 27L11 27L11 26ZM22 28L22 29L23 29L23 28ZM24 28L24 29L25 29L25 28ZM0 0L0 7L7 7L7 0ZM1 1L1 6L6 6L6 1ZM2 2L2 5L5 5L5 2ZM22 0L22 7L29 7L29 0ZM23 1L23 6L28 6L28 1ZM24 2L24 5L27 5L27 2ZM0 22L0 29L7 29L7 22ZM1 23L1 28L6 28L6 23ZM2 24L2 27L5 27L5 24Z" fill="#282828"/></g></g></svg>
