<?xml version="1.0" encoding="UTF-8"?>
<svg xmlns="http://www.w3.org/2000/svg" version="1.1" width="90" height="90" viewBox="0 0 90 90"><rect x="0" y="0" width="90" height="90" fill="#ffffff"/><g transform="scale(2.903)"><g transform="translate(1,1)"><path fill-rule="evenodd" d="M9 0L9 1L10 1L10 2L8 2L8 3L9 3L9 4L10 4L10 5L9 5L9 6L8 6L8 8L4 8L4 9L3 9L3 8L0 8L0 10L1 10L1 9L2 9L2 10L5 10L5 9L9 9L9 8L10 8L10 10L9 10L9 11L10 11L10 10L12 10L12 8L14 8L14 10L13 10L13 11L14 11L14 10L16 10L16 9L17 9L17 10L18 10L18 12L20 12L20 16L19 16L19 14L18 14L18 13L17 13L17 14L16 14L16 16L17 16L17 17L19 17L19 18L16 18L16 19L17 19L17 21L18 21L18 20L20 20L20 21L19 21L19 24L20 24L20 25L18 25L18 26L17 26L17 24L18 24L18 23L17 23L17 24L16 24L16 23L15 23L15 22L14 22L14 21L13 21L13 20L12 20L12 19L11 19L11 18L12 18L12 16L14 16L14 18L13 18L13 19L14 19L14 18L15 18L15 14L14 14L14 13L13 13L13 12L12 12L12 11L11 11L11 12L12 12L12 13L11 13L11 14L10 14L10 13L9 13L9 14L8 14L8 12L6 12L6 11L8 11L8 10L6 10L6 11L4 11L4 12L3 12L3 11L1 11L1 12L0 12L0 14L3 14L3 15L0 15L0 17L1 17L1 18L0 18L0 19L1 19L1 20L0 20L0 21L1 21L1 20L4 20L4 21L5 21L5 20L6 20L6 21L7 21L7 20L6 20L6 19L7 19L7 18L6 18L6 19L3 19L3 18L5 18L5 17L10 17L10 19L9 19L9 18L8 18L8 19L9 19L9 20L12 20L12 21L11 21L11 22L10 22L10 23L12 23L12 24L11 24L11 26L12 26L12 24L14 24L14 26L13 26L13 27L14 27L14 26L15 26L15 24L16 24L16 27L15 27L15 28L16 28L16 27L17 27L17 29L18 29L18 28L19 28L19 29L22 29L22 28L23 28L23 27L25 27L25 22L26 22L26 23L27 23L27 24L26 24L26 26L28 26L28 27L27 27L27 29L29 29L29 28L28 28L28 27L29 27L29 10L27 10L27 8L26 8L26 10L23 10L23 8L21 8L21 6L20 6L20 4L19 4L19 3L18 3L18 4L17 4L17 5L18 5L18 7L17 7L17 6L16 6L16 8L15 8L15 6L14 6L14 5L15 5L15 4L16 4L16 3L17 3L17 2L18 2L18 1L19 1L19 2L20 2L20 3L21 3L21 2L20 2L20 0L18 0L18 1L17 1L17 0L16 0L16 1L14 1L14 0L12 0L12 1L10 1L10 0ZM13 1L13 2L14 2L14 1ZM11 2L11 3L12 3L12 4L11 4L11 5L10 5L10 6L9 6L9 7L10 7L10 6L11 6L11 8L12 8L12 6L13 6L13 7L14 7L14 6L13 6L13 5L14 5L14 4L13 4L13 3L12 3L12 2ZM15 2L15 3L16 3L16 2ZM19 6L19 7L18 7L18 10L19 10L19 11L20 11L20 12L21 12L21 10L20 10L20 9L21 9L21 8L19 8L19 7L20 7L20 6ZM22 10L22 11L23 11L23 10ZM26 10L26 11L24 11L24 12L23 12L23 15L22 15L22 14L21 14L21 16L22 16L22 18L21 18L21 19L20 19L20 18L19 18L19 19L20 19L20 20L22 20L22 18L23 18L23 20L25 20L25 21L26 21L26 22L27 22L27 23L28 23L28 20L27 20L27 19L28 19L28 17L27 17L27 15L28 15L28 13L26 13L26 12L28 12L28 11L27 11L27 10ZM16 11L16 12L17 12L17 11ZM1 12L1 13L3 13L3 14L4 14L4 15L5 15L5 16L7 16L7 15L6 15L6 14L7 14L7 13L6 13L6 12L4 12L4 13L3 13L3 12ZM9 14L9 15L8 15L8 16L10 16L10 14ZM13 14L13 15L14 15L14 14ZM24 14L24 15L23 15L23 16L25 16L25 18L24 18L24 19L25 19L25 20L26 20L26 19L25 19L25 18L26 18L26 16L25 16L25 14ZM26 14L26 15L27 15L27 14ZM11 15L11 16L12 16L12 15ZM17 15L17 16L18 16L18 15ZM1 16L1 17L2 17L2 18L1 18L1 19L2 19L2 18L3 18L3 17L2 17L2 16ZM8 21L8 25L9 25L9 26L8 26L8 29L9 29L9 28L10 28L10 29L11 29L11 28L12 28L12 29L13 29L13 28L12 28L12 27L9 27L9 26L10 26L10 25L9 25L9 21ZM21 21L21 24L24 24L24 21ZM13 22L13 23L14 23L14 22ZM22 22L22 23L23 23L23 22ZM27 24L27 25L28 25L28 24ZM20 25L20 27L23 27L23 26L24 26L24 25L23 25L23 26L21 26L21 25ZM18 26L18 27L19 27L19 26ZM24 28L24 29L25 29L25 28ZM0 0L0 7L7 7L7 0ZM1 1L1 6L6 6L6 1ZM2 2L2 5L5 5L5 2ZM22 0L22 7L29 7L29 0ZM23 1L23 6L28 6L28 1ZM24 2L24 5L27 5L27 2ZM0 22L0 29L7 29L7 22ZM1 23L1 28L6 28L6 23ZM2 24L2 27L5 27L5 24Z" fill="#282828"/></g></g></svg>
