<?xml version="1.0" encoding="UTF-8"?>
<svg xmlns="http://www.w3.org/2000/svg" version="1.1" width="90" height="90" viewBox="0 0 90 90"><rect x="0" y="0" width="90" height="90" fill="#ffffff"/><g transform="scale(2.903)"><g transform="translate(1,1)"><path fill-rule="evenodd" d="M8 0L8 1L9 1L9 2L8 2L8 5L9 5L9 4L11 4L11 5L10 5L10 10L9 10L9 8L8 8L8 9L7 9L7 8L6 8L6 9L4 9L4 8L0 8L0 10L1 10L1 11L2 11L2 12L1 12L1 14L0 14L0 17L1 17L1 18L0 18L0 19L1 19L1 18L2 18L2 16L1 16L1 15L2 15L2 14L3 14L3 16L4 16L4 14L5 14L5 15L8 15L8 16L6 16L6 17L7 17L7 18L6 18L6 19L7 19L7 20L6 20L6 21L7 21L7 20L8 20L8 22L9 22L9 23L10 23L10 24L9 24L9 25L8 25L8 29L9 29L9 28L10 28L10 29L12 29L12 28L14 28L14 27L15 27L15 28L16 28L16 27L17 27L17 26L18 26L18 27L19 27L19 26L20 26L20 28L19 28L19 29L23 29L23 28L24 28L24 29L25 29L25 28L26 28L26 27L27 27L27 29L28 29L28 27L29 27L29 24L27 24L27 25L25 25L25 21L27 21L27 19L28 19L28 22L29 22L29 19L28 19L28 16L29 16L29 11L28 11L28 10L27 10L27 8L24 8L24 9L22 9L22 8L21 8L21 9L19 9L19 6L20 6L20 7L21 7L21 4L19 4L19 5L17 5L17 4L18 4L18 3L20 3L20 2L21 2L21 0L20 0L20 2L19 2L19 0L18 0L18 3L17 3L17 4L15 4L15 2L14 2L14 1L16 1L16 2L17 2L17 0L12 0L12 1L11 1L11 0L10 0L10 1L9 1L9 0ZM11 2L11 4L12 4L12 3L13 3L13 2ZM13 4L13 5L12 5L12 6L11 6L11 8L12 8L12 6L13 6L13 11L11 11L11 13L10 13L10 14L9 14L9 15L10 15L10 16L8 16L8 17L9 17L9 18L8 18L8 20L9 20L9 22L10 22L10 16L11 16L11 19L12 19L12 20L11 20L11 23L14 23L14 24L12 24L12 26L11 26L11 27L10 27L10 25L11 25L11 24L10 24L10 25L9 25L9 27L10 27L10 28L12 28L12 26L13 26L13 27L14 27L14 26L13 26L13 25L15 25L15 27L16 27L16 25L17 25L17 24L18 24L18 26L19 26L19 25L20 25L20 26L21 26L21 27L22 27L22 26L23 26L23 25L22 25L22 26L21 26L21 25L20 25L20 23L18 23L18 22L20 22L20 20L26 20L26 18L27 18L27 15L28 15L28 14L26 14L26 18L25 18L25 17L24 17L24 18L23 18L23 15L24 15L24 16L25 16L25 13L27 13L27 12L28 12L28 11L27 11L27 10L26 10L26 11L25 11L25 12L23 12L23 11L24 11L24 10L22 10L22 9L21 9L21 10L19 10L19 11L17 11L17 10L18 10L18 9L17 9L17 10L16 10L16 9L14 9L14 6L15 6L15 8L17 8L17 7L18 7L18 6L17 6L17 5L15 5L15 4ZM13 5L13 6L14 6L14 5ZM8 6L8 7L9 7L9 6ZM16 6L16 7L17 7L17 6ZM28 8L28 9L29 9L29 8ZM2 9L2 10L3 10L3 9ZM6 9L6 10L7 10L7 11L3 11L3 12L2 12L2 13L3 13L3 14L4 14L4 13L5 13L5 12L7 12L7 11L8 11L8 10L7 10L7 9ZM11 9L11 10L12 10L12 9ZM14 10L14 11L13 11L13 12L12 12L12 13L11 13L11 16L12 16L12 17L13 17L13 19L14 19L14 20L15 20L15 21L13 21L13 22L14 22L14 23L15 23L15 24L17 24L17 21L19 21L19 20L20 20L20 19L18 19L18 17L19 17L19 15L20 15L20 16L21 16L21 15L23 15L23 13L22 13L22 14L21 14L21 15L20 15L20 11L19 11L19 14L18 14L18 17L17 17L17 18L16 18L16 16L17 16L17 13L18 13L18 12L15 12L15 10ZM21 10L21 11L22 11L22 10ZM3 12L3 13L4 13L4 12ZM14 12L14 13L13 13L13 14L12 14L12 16L16 16L16 14L15 14L15 12ZM6 13L6 14L7 14L7 13ZM4 17L4 18L3 18L3 19L2 19L2 20L1 20L1 21L5 21L5 20L3 20L3 19L5 19L5 17ZM20 17L20 18L21 18L21 19L22 19L22 18L21 18L21 17ZM24 18L24 19L25 19L25 18ZM15 21L15 23L16 23L16 21ZM21 21L21 24L24 24L24 21ZM22 22L22 23L23 23L23 22ZM26 22L26 23L27 23L27 22ZM27 25L27 27L28 27L28 25ZM24 26L24 28L25 28L25 27L26 27L26 26ZM0 0L0 7L7 7L7 0ZM1 1L1 6L6 6L6 1ZM2 2L2 5L5 5L5 2ZM22 0L22 7L29 7L29 0ZM23 1L23 6L28 6L28 1ZM24 2L24 5L27 5L27 2ZM0 22L0 29L7 29L7 22ZM1 23L1 28L6 28L6 23ZM2 24L2 27L5 27L5 24Z" fill="#282828"/></g></g></svg>
