<?xml version="1.0" encoding="UTF-8"?>
<svg xmlns="http://www.w3.org/2000/svg" version="1.1" width="90" height="90" viewBox="0 0 90 90"><rect x="0" y="0" width="90" height="90" fill="#ffffff"/><g transform="scale(2.903)"><g transform="translate(1,1)"><path fill-rule="evenodd" d="M8 0L8 1L10 1L10 0ZM15 0L15 1L14 1L14 2L11 2L11 4L10 4L10 3L9 3L9 2L8 2L8 5L9 5L9 6L8 6L8 7L9 7L9 8L8 8L8 9L9 9L9 10L10 10L10 9L9 9L9 8L10 8L10 7L11 7L11 8L12 8L12 7L13 7L13 9L15 9L15 10L14 10L14 11L11 11L11 13L10 13L10 12L9 12L9 13L8 13L8 10L6 10L6 9L7 9L7 8L6 8L6 9L4 9L4 8L0 8L0 9L2 9L2 10L1 10L1 11L0 11L0 17L3 17L3 18L2 18L2 20L1 20L1 21L2 21L2 20L3 20L3 21L4 21L4 20L3 20L3 18L4 18L4 19L5 19L5 21L8 21L8 22L9 22L9 24L11 24L11 23L14 23L14 22L15 22L15 21L14 21L14 20L13 20L13 18L14 18L14 17L12 17L12 16L14 16L14 15L15 15L15 20L18 20L18 21L17 21L17 22L18 22L18 24L17 24L17 23L15 23L15 24L14 24L14 26L13 26L13 24L12 24L12 25L11 25L11 26L10 26L10 25L8 25L8 29L10 29L10 28L9 28L9 26L10 26L10 27L11 27L11 28L12 28L12 29L13 29L13 28L12 28L12 26L13 26L13 27L14 27L14 29L15 29L15 28L16 28L16 27L14 27L14 26L16 26L16 25L17 25L17 26L20 26L20 28L19 28L19 27L18 27L18 29L23 29L23 28L24 28L24 29L25 29L25 28L26 28L26 27L27 27L27 29L28 29L28 27L29 27L29 25L28 25L28 24L29 24L29 23L27 23L27 22L26 22L26 23L27 23L27 25L25 25L25 21L27 21L27 19L28 19L28 22L29 22L29 19L28 19L28 16L29 16L29 11L28 11L28 10L27 10L27 8L24 8L24 9L22 9L22 8L21 8L21 9L19 9L19 6L20 6L20 7L21 7L21 4L19 4L19 6L18 6L18 7L17 7L17 6L16 6L16 7L17 7L17 8L16 8L16 9L15 9L15 5L14 5L14 4L13 4L13 5L12 5L12 3L16 3L16 4L17 4L17 5L18 5L18 3L16 3L16 1L19 1L19 0ZM20 0L20 2L19 2L19 3L20 3L20 2L21 2L21 0ZM10 5L10 6L9 6L9 7L10 7L10 6L11 6L11 7L12 7L12 5ZM13 5L13 7L14 7L14 5ZM28 8L28 9L29 9L29 8ZM3 9L3 10L2 10L2 11L3 11L3 12L1 12L1 13L2 13L2 14L1 14L1 16L3 16L3 17L5 17L5 19L6 19L6 20L7 20L7 19L8 19L8 21L10 21L10 23L11 23L11 22L12 22L12 21L11 21L11 20L12 20L12 19L11 19L11 20L10 20L10 19L8 19L8 18L12 18L12 17L11 17L11 16L12 16L12 14L13 14L13 15L14 15L14 14L15 14L15 15L16 15L16 16L17 16L17 18L16 18L16 19L17 19L17 18L18 18L18 16L19 16L19 19L18 19L18 20L19 20L19 21L18 21L18 22L20 22L20 20L26 20L26 18L27 18L27 15L28 15L28 14L26 14L26 18L25 18L25 17L24 17L24 18L23 18L23 15L24 15L24 16L25 16L25 13L27 13L27 12L28 12L28 11L27 11L27 10L26 10L26 11L25 11L25 12L23 12L23 11L24 11L24 10L22 10L22 9L21 9L21 10L19 10L19 9L17 9L17 10L16 10L16 12L12 12L12 14L11 14L11 16L9 16L9 15L10 15L10 14L9 14L9 15L8 15L8 13L5 13L5 14L4 14L4 13L3 13L3 12L5 12L5 11L3 11L3 10L4 10L4 9ZM17 10L17 11L19 11L19 14L16 14L16 15L20 15L20 16L21 16L21 15L23 15L23 13L22 13L22 14L21 14L21 15L20 15L20 11L19 11L19 10ZM21 10L21 11L22 11L22 10ZM6 11L6 12L7 12L7 11ZM17 12L17 13L18 13L18 12ZM13 13L13 14L14 14L14 13ZM2 14L2 15L3 15L3 14ZM6 14L6 15L7 15L7 14ZM4 15L4 16L5 16L5 17L9 17L9 16L5 16L5 15ZM20 17L20 18L21 18L21 19L22 19L22 18L21 18L21 17ZM0 18L0 19L1 19L1 18ZM6 18L6 19L7 19L7 18ZM24 18L24 19L25 19L25 18ZM19 19L19 20L20 20L20 19ZM21 21L21 24L24 24L24 21ZM22 22L22 23L23 23L23 22ZM19 23L19 24L18 24L18 25L20 25L20 26L21 26L21 27L22 27L22 26L23 26L23 25L22 25L22 26L21 26L21 25L20 25L20 23ZM27 25L27 27L28 27L28 25ZM24 26L24 28L25 28L25 27L26 27L26 26ZM0 0L0 7L7 7L7 0ZM1 1L1 6L6 6L6 1ZM2 2L2 5L5 5L5 2ZM22 0L22 7L29 7L29 0ZM23 1L23 6L28 6L28 1ZM24 2L24 5L27 5L27 2ZM0 22L0 29L7 29L7 22ZM1 23L1 28L6 28L6 23ZM2 24L2 27L5 27L5 24Z" fill="#282828"/></g></g></svg>
