<?xml version="1.0" encoding="UTF-8"?>
<svg xmlns="http://www.w3.org/2000/svg" version="1.1" width="90" height="90" viewBox="0 0 90 90"><rect x="0" y="0" width="90" height="90" fill="#ffffff"/><g transform="scale(2.903)"><g transform="translate(1,1)"><path fill-rule="evenodd" d="M9 0L9 1L10 1L10 2L8 2L8 3L9 3L9 4L10 4L10 5L9 5L9 6L8 6L8 8L4 8L4 9L3 9L3 8L0 8L0 11L1 11L1 10L2 10L2 11L4 11L4 12L3 12L3 14L2 14L2 13L1 13L1 12L0 12L0 13L1 13L1 14L2 14L2 15L0 15L0 16L1 16L1 18L0 18L0 19L1 19L1 20L0 20L0 21L1 21L1 20L2 20L2 21L4 21L4 20L2 20L2 19L1 19L1 18L3 18L3 19L4 19L4 18L3 18L3 17L10 17L10 18L12 18L12 16L14 16L14 17L15 17L15 18L17 18L17 20L16 20L16 19L15 19L15 20L16 20L16 21L15 21L15 22L14 22L14 21L13 21L13 20L12 20L12 19L9 19L9 18L5 18L5 19L9 19L9 21L8 21L8 25L9 25L9 26L8 26L8 29L9 29L9 28L10 28L10 29L11 29L11 28L12 28L12 29L13 29L13 28L12 28L12 27L9 27L9 26L12 26L12 24L14 24L14 26L13 26L13 27L14 27L14 26L16 26L16 27L15 27L15 28L16 28L16 29L21 29L21 28L22 28L22 26L21 26L21 27L17 27L17 26L19 26L19 25L17 25L17 24L19 24L19 23L20 23L20 25L23 25L23 26L25 26L25 22L26 22L26 23L27 23L27 24L26 24L26 29L29 29L29 28L28 28L28 27L29 27L29 25L27 25L27 24L28 24L28 23L29 23L29 12L28 12L28 11L29 11L29 10L27 10L27 8L26 8L26 10L25 10L25 11L24 11L24 12L25 12L25 11L26 11L26 10L27 10L27 12L26 12L26 13L27 13L27 12L28 12L28 16L27 16L27 17L28 17L28 19L27 19L27 20L28 20L28 23L27 23L27 22L26 22L26 21L25 21L25 20L26 20L26 19L25 19L25 18L26 18L26 16L25 16L25 18L23 18L23 19L22 19L22 17L23 17L23 16L24 16L24 15L25 15L25 14L23 14L23 12L22 12L22 13L21 13L21 11L19 11L19 12L20 12L20 16L19 16L19 17L20 17L20 18L21 18L21 19L22 19L22 20L20 20L20 19L19 19L19 18L17 18L17 17L15 17L15 16L16 16L16 15L17 15L17 16L18 16L18 15L17 15L17 14L18 14L18 13L17 13L17 12L18 12L18 10L17 10L17 9L16 9L16 8L20 8L20 9L21 9L21 10L22 10L22 11L23 11L23 8L20 8L20 7L21 7L21 6L20 6L20 5L19 5L19 4L20 4L20 3L21 3L21 1L19 1L19 0L17 0L17 2L16 2L16 0L14 0L14 1L13 1L13 0L12 0L12 1L10 1L10 0ZM14 1L14 2L13 2L13 3L12 3L12 2L11 2L11 3L12 3L12 4L11 4L11 5L10 5L10 6L9 6L9 7L10 7L10 6L11 6L11 8L12 8L12 10L10 10L10 8L9 8L9 10L10 10L10 11L9 11L9 12L7 12L7 11L6 11L6 12L7 12L7 13L6 13L6 14L5 14L5 15L4 15L4 16L5 16L5 15L6 15L6 16L10 16L10 17L11 17L11 16L12 16L12 15L11 15L11 16L10 16L10 15L6 15L6 14L7 14L7 13L8 13L8 14L9 14L9 13L10 13L10 14L11 14L11 13L12 13L12 12L13 12L13 8L12 8L12 6L13 6L13 7L14 7L14 8L16 8L16 6L15 6L15 3L16 3L16 2L15 2L15 1ZM18 1L18 2L17 2L17 3L18 3L18 2L19 2L19 1ZM16 4L16 5L18 5L18 4ZM14 6L14 7L15 7L15 6ZM17 6L17 7L18 7L18 6ZM19 6L19 7L20 7L20 6ZM2 9L2 10L3 10L3 9ZM4 9L4 11L5 11L5 9ZM6 9L6 10L8 10L8 9ZM14 10L14 11L16 11L16 12L17 12L17 10ZM11 11L11 12L12 12L12 11ZM4 12L4 13L5 13L5 12ZM13 14L13 15L14 15L14 16L15 16L15 15L16 15L16 14L15 14L15 15L14 15L14 14ZM21 14L21 15L22 15L22 16L23 16L23 15L22 15L22 14ZM26 14L26 15L27 15L27 14ZM2 15L2 16L3 16L3 15ZM13 18L13 19L14 19L14 18ZM18 19L18 20L17 20L17 22L15 22L15 24L17 24L17 22L18 22L18 23L19 23L19 21L20 21L20 20L19 20L19 19ZM6 20L6 21L7 21L7 20ZM10 20L10 21L9 21L9 23L10 23L10 25L11 25L11 24L12 24L12 23L10 23L10 21L12 21L12 20ZM21 21L21 24L24 24L24 21ZM13 22L13 23L14 23L14 22ZM22 22L22 23L23 23L23 22ZM27 26L27 27L28 27L28 26ZM16 27L16 28L17 28L17 27ZM24 27L24 29L25 29L25 27ZM0 0L0 7L7 7L7 0ZM1 1L1 6L6 6L6 1ZM2 2L2 5L5 5L5 2ZM22 0L22 7L29 7L29 0ZM23 1L23 6L28 6L28 1ZM24 2L24 5L27 5L27 2ZM0 22L0 29L7 29L7 22ZM1 23L1 28L6 28L6 23ZM2 24L2 27L5 27L5 24Z" fill="#282828"/></g></g></svg>
