<?xml version="1.0" encoding="UTF-8"?>
<svg xmlns="http://www.w3.org/2000/svg" version="1.1" width="90" height="90" viewBox="0 0 90 90"><rect x="0" y="0" width="90" height="90" fill="#ffffff"/><g transform="scale(2.903)"><g transform="translate(1,1)"><path fill-rule="evenodd" d="M10 0L10 2L11 2L11 0ZM12 0L12 1L13 1L13 0ZM16 0L16 1L15 1L15 2L14 2L14 3L13 3L13 2L12 2L12 4L14 4L14 5L11 5L11 6L10 6L10 4L11 4L11 3L8 3L8 4L9 4L9 5L8 5L8 7L9 7L9 8L6 8L6 9L7 9L7 10L5 10L5 8L0 8L0 11L2 11L2 12L3 12L3 11L5 11L5 12L6 12L6 13L2 13L2 14L3 14L3 15L4 15L4 16L3 16L3 17L2 17L2 18L3 18L3 19L2 19L2 20L6 20L6 21L8 21L8 23L9 23L9 20L10 20L10 21L11 21L11 17L12 17L12 18L13 18L13 19L12 19L12 21L13 21L13 20L14 20L14 21L16 21L16 22L15 22L15 23L14 23L14 24L16 24L16 23L17 23L17 21L18 21L18 24L20 24L20 25L16 25L16 26L15 26L15 25L12 25L12 23L13 23L13 22L10 22L10 24L8 24L8 29L9 29L9 26L10 26L10 28L11 28L11 25L12 25L12 26L13 26L13 27L12 27L12 29L13 29L13 28L14 28L14 29L18 29L18 28L14 28L14 27L16 27L16 26L17 26L17 27L18 27L18 26L20 26L20 28L19 28L19 29L20 29L20 28L21 28L21 29L23 29L23 28L24 28L24 29L25 29L25 28L28 28L28 26L29 26L29 24L28 24L28 22L29 22L29 21L28 21L28 20L29 20L29 19L28 19L28 18L29 18L29 17L28 17L28 18L26 18L26 19L27 19L27 20L26 20L26 21L28 21L28 22L27 22L27 25L25 25L25 24L26 24L26 23L25 23L25 20L23 20L23 19L25 19L25 17L27 17L27 16L26 16L26 15L25 15L25 14L26 14L26 13L22 13L22 12L21 12L21 11L22 11L22 10L25 10L25 12L26 12L26 11L27 11L27 13L28 13L28 14L27 14L27 15L28 15L28 16L29 16L29 15L28 15L28 14L29 14L29 13L28 13L28 11L27 11L27 9L28 9L28 8L27 8L27 9L26 9L26 8L25 8L25 9L24 9L24 8L23 8L23 9L22 9L22 8L21 8L21 10L20 10L20 9L18 9L18 8L17 8L17 5L18 5L18 7L19 7L19 4L20 4L20 5L21 5L21 4L20 4L20 3L21 3L21 2L20 2L20 1L21 1L21 0L20 0L20 1L19 1L19 0L18 0L18 1L17 1L17 0ZM8 1L8 2L9 2L9 1ZM16 1L16 3L17 3L17 1ZM18 2L18 3L20 3L20 2ZM14 3L14 4L15 4L15 5L14 5L14 6L13 6L13 7L12 7L12 6L11 6L11 7L12 7L12 9L11 9L11 8L10 8L10 9L9 9L9 11L8 11L8 10L7 10L7 11L6 11L6 12L7 12L7 13L6 13L6 14L7 14L7 15L6 15L6 16L8 16L8 17L10 17L10 16L8 16L8 14L9 14L9 13L8 13L8 12L11 12L11 13L10 13L10 14L13 14L13 15L12 15L12 17L14 17L14 18L16 18L16 17L17 17L17 19L16 19L16 21L17 21L17 20L19 20L19 22L20 22L20 20L22 20L22 18L23 18L23 17L25 17L25 16L24 16L24 15L23 15L23 14L22 14L22 16L20 16L20 17L22 17L22 18L21 18L21 19L20 19L20 18L19 18L19 19L18 19L18 17L19 17L19 16L18 16L18 15L21 15L21 14L18 14L18 15L17 15L17 14L16 14L16 13L17 13L17 12L18 12L18 13L21 13L21 12L20 12L20 10L19 10L19 11L18 11L18 9L17 9L17 12L16 12L16 13L15 13L15 12L14 12L14 11L13 11L13 10L14 10L14 9L16 9L16 6L15 6L15 5L16 5L16 4L15 4L15 3ZM9 6L9 7L10 7L10 6ZM14 6L14 7L15 7L15 6ZM20 6L20 7L21 7L21 6ZM13 8L13 9L12 9L12 10L13 10L13 9L14 9L14 8ZM2 9L2 10L4 10L4 9ZM10 9L10 11L11 11L11 9ZM7 11L7 12L8 12L8 11ZM12 11L12 13L14 13L14 14L15 14L15 15L16 15L16 16L17 16L17 17L18 17L18 16L17 16L17 15L16 15L16 14L15 14L15 13L14 13L14 12L13 12L13 11ZM23 11L23 12L24 12L24 11ZM0 12L0 14L1 14L1 12ZM1 15L1 16L2 16L2 15ZM4 16L4 17L3 17L3 18L4 18L4 19L6 19L6 20L7 20L7 19L8 19L8 18L7 18L7 17L5 17L5 16ZM0 17L0 21L1 21L1 17ZM4 17L4 18L5 18L5 17ZM6 18L6 19L7 19L7 18ZM9 18L9 19L10 19L10 18ZM14 19L14 20L15 20L15 19ZM21 21L21 24L24 24L24 21ZM22 22L22 23L23 23L23 22ZM10 24L10 25L11 25L11 24ZM20 25L20 26L21 26L21 27L22 27L22 28L23 28L23 27L24 27L24 28L25 28L25 27L27 27L27 26L25 26L25 25ZM22 26L22 27L23 27L23 26ZM0 0L0 7L7 7L7 0ZM1 1L1 6L6 6L6 1ZM2 2L2 5L5 5L5 2ZM22 0L22 7L29 7L29 0ZM23 1L23 6L28 6L28 1ZM24 2L24 5L27 5L27 2ZM0 22L0 29L7 29L7 22ZM1 23L1 28L6 28L6 23ZM2 24L2 27L5 27L5 24Z" fill="#282828"/></g></g></svg>
