<?xml version="1.0" encoding="UTF-8"?>
<svg xmlns="http://www.w3.org/2000/svg" version="1.1" width="90" height="90" viewBox="0 0 90 90"><rect x="0" y="0" width="90" height="90" fill="#ffffff"/><g transform="scale(2.903)"><g transform="translate(1,1)"><path fill-rule="evenodd" d="M10 0L10 2L11 2L11 0ZM12 0L12 1L13 1L13 0ZM16 0L16 1L15 1L15 2L14 2L14 3L13 3L13 2L12 2L12 4L14 4L14 5L11 5L11 6L10 6L10 4L11 4L11 3L8 3L8 4L9 4L9 5L8 5L8 7L9 7L9 8L6 8L6 9L5 9L5 8L0 8L0 9L2 9L2 10L3 10L3 9L4 9L4 10L6 10L6 11L7 11L7 12L5 12L5 11L3 11L3 12L1 12L1 13L2 13L2 15L4 15L4 13L7 13L7 14L6 14L6 15L7 15L7 16L5 16L5 17L4 17L4 16L3 16L3 17L2 17L2 16L1 16L1 14L0 14L0 16L1 16L1 17L0 17L0 21L1 21L1 18L4 18L4 19L3 19L3 20L2 20L2 21L8 21L8 23L9 23L9 24L8 24L8 29L11 29L11 27L10 27L10 24L11 24L11 25L12 25L12 26L13 26L13 27L12 27L12 29L13 29L13 28L14 28L14 29L16 29L16 26L17 26L17 27L18 27L18 26L19 26L19 28L17 28L17 29L20 29L20 28L21 28L21 29L25 29L25 28L26 28L26 29L27 29L27 28L28 28L28 26L29 26L29 24L28 24L28 22L29 22L29 21L28 21L28 20L29 20L29 19L28 19L28 18L29 18L29 17L28 17L28 18L27 18L27 16L26 16L26 17L22 17L22 15L21 15L21 14L25 14L25 15L26 15L26 14L27 14L27 15L28 15L28 16L29 16L29 15L28 15L28 14L29 14L29 13L28 13L28 12L27 12L27 13L20 13L20 12L23 12L23 11L24 11L24 12L26 12L26 11L27 11L27 9L28 9L28 8L27 8L27 9L26 9L26 8L25 8L25 9L24 9L24 8L23 8L23 9L22 9L22 8L20 8L20 7L21 7L21 6L20 6L20 7L19 7L19 6L18 6L18 5L20 5L20 4L17 4L17 3L16 3L16 1L17 1L17 2L18 2L18 3L19 3L19 2L18 2L18 1L19 1L19 0L18 0L18 1L17 1L17 0ZM20 0L20 1L21 1L21 0ZM8 1L8 2L9 2L9 1ZM14 3L14 4L15 4L15 5L14 5L14 6L13 6L13 7L12 7L12 6L11 6L11 7L12 7L12 9L11 9L11 8L10 8L10 9L9 9L9 10L8 10L8 12L7 12L7 13L9 13L9 12L11 12L11 13L10 13L10 14L9 14L9 15L10 15L10 14L13 14L13 15L12 15L12 17L11 17L11 16L9 16L9 18L7 18L7 17L8 17L8 16L7 16L7 17L6 17L6 18L5 18L5 19L6 19L6 20L10 20L10 21L11 21L11 22L9 22L9 23L11 23L11 22L13 22L13 23L12 23L12 25L17 25L17 26L18 26L18 25L20 25L20 27L21 27L21 26L22 26L22 27L23 27L23 25L20 25L20 24L18 24L18 23L19 23L19 22L20 22L20 21L19 21L19 19L21 19L21 18L18 18L18 17L19 17L19 16L20 16L20 17L21 17L21 15L20 15L20 14L19 14L19 11L20 11L20 10L18 10L18 9L20 9L20 8L19 8L19 7L18 7L18 6L17 6L17 10L16 10L16 12L14 12L14 11L13 11L13 10L14 10L14 9L16 9L16 6L15 6L15 5L16 5L16 4L15 4L15 3ZM9 6L9 7L10 7L10 6ZM14 6L14 7L15 7L15 6ZM13 8L13 9L12 9L12 10L13 10L13 9L14 9L14 8ZM6 9L6 10L7 10L7 9ZM10 9L10 11L11 11L11 9ZM21 9L21 10L22 10L22 11L23 11L23 10L22 10L22 9ZM17 10L17 11L18 11L18 10ZM12 11L12 13L14 13L14 14L15 14L15 15L14 15L14 16L15 16L15 18L14 18L14 17L12 17L12 18L13 18L13 19L12 19L12 21L13 21L13 20L14 20L14 21L15 21L15 23L14 23L14 24L15 24L15 23L16 23L16 24L17 24L17 23L18 23L18 22L19 22L19 21L15 21L15 20L14 20L14 19L16 19L16 20L17 20L17 17L16 17L16 15L17 15L17 13L14 13L14 12L13 12L13 11ZM3 12L3 13L4 13L4 12ZM27 13L27 14L28 14L28 13ZM7 14L7 15L8 15L8 14ZM23 15L23 16L24 16L24 15ZM10 17L10 18L11 18L11 17ZM6 18L6 19L7 19L7 18ZM22 18L22 20L24 20L24 19L25 19L25 23L26 23L26 24L25 24L25 25L24 25L24 26L25 26L25 27L26 27L26 28L27 28L27 27L26 27L26 26L27 26L27 22L28 22L28 21L26 21L26 20L27 20L27 19L26 19L26 18ZM10 19L10 20L11 20L11 19ZM21 21L21 24L24 24L24 21ZM16 22L16 23L17 23L17 22ZM22 22L22 23L23 23L23 22ZM9 27L9 28L10 28L10 27ZM14 27L14 28L15 28L15 27ZM0 0L0 7L7 7L7 0ZM1 1L1 6L6 6L6 1ZM2 2L2 5L5 5L5 2ZM22 0L22 7L29 7L29 0ZM23 1L23 6L28 6L28 1ZM24 2L24 5L27 5L27 2ZM0 22L0 29L7 29L7 22ZM1 23L1 28L6 28L6 23ZM2 24L2 27L5 27L5 24Z" fill="#282828"/></g></g></svg>
