<?xml version="1.0" encoding="UTF-8"?>
<svg xmlns="http://www.w3.org/2000/svg" version="1.1" width="90" height="90" viewBox="0 0 90 90"><rect x="0" y="0" width="90" height="90" fill="#ffffff"/><g transform="scale(2.903)"><g transform="translate(1,1)"><path fill-rule="evenodd" d="M9 0L9 1L8 1L8 2L9 2L9 3L8 3L8 4L10 4L10 7L11 7L11 4L12 4L12 5L14 5L14 4L15 4L15 2L16 2L16 3L17 3L17 4L16 4L16 5L15 5L15 6L14 6L14 7L15 7L15 8L13 8L13 6L12 6L12 9L15 9L15 8L16 8L16 10L15 10L15 11L14 11L14 13L12 13L12 11L13 11L13 10L11 10L11 11L10 11L10 9L11 9L11 8L6 8L6 9L5 9L5 8L0 8L0 9L3 9L3 10L2 10L2 11L4 11L4 9L5 9L5 10L6 10L6 11L5 11L5 12L4 12L4 14L3 14L3 13L2 13L2 12L0 12L0 13L1 13L1 15L0 15L0 16L1 16L1 17L0 17L0 21L1 21L1 17L2 17L2 18L3 18L3 19L4 19L4 16L5 16L5 18L6 18L6 19L5 19L5 20L4 20L4 21L7 21L7 20L8 20L8 23L9 23L9 24L8 24L8 29L10 29L10 28L12 28L12 27L10 27L10 26L13 26L13 27L14 27L14 26L15 26L15 28L16 28L16 27L20 27L20 28L19 28L19 29L20 29L20 28L21 28L21 27L22 27L22 29L23 29L23 27L24 27L24 29L25 29L25 27L26 27L26 25L27 25L27 28L26 28L26 29L27 29L27 28L28 28L28 26L29 26L29 24L28 24L28 25L27 25L27 24L26 24L26 23L25 23L25 22L27 22L27 23L28 23L28 22L29 22L29 21L28 21L28 20L29 20L29 19L28 19L28 18L29 18L29 17L28 17L28 18L27 18L27 16L26 16L26 14L27 14L27 15L28 15L28 16L29 16L29 15L28 15L28 14L29 14L29 13L28 13L28 12L29 12L29 11L27 11L27 9L28 9L28 8L27 8L27 9L26 9L26 8L25 8L25 9L24 9L24 8L23 8L23 9L22 9L22 8L21 8L21 9L19 9L19 8L16 8L16 7L17 7L17 4L18 4L18 5L20 5L20 7L21 7L21 4L18 4L18 3L17 3L17 2L16 2L16 1L17 1L17 0L16 0L16 1L15 1L15 2L14 2L14 1L11 1L11 2L10 2L10 0ZM19 0L19 1L20 1L20 2L19 2L19 3L21 3L21 0ZM12 2L12 4L13 4L13 3L14 3L14 2ZM10 3L10 4L11 4L11 3ZM8 5L8 7L9 7L9 5ZM15 6L15 7L16 7L16 6ZM18 6L18 7L19 7L19 6ZM6 9L6 10L7 10L7 11L6 11L6 12L5 12L5 13L6 13L6 14L7 14L7 15L6 15L6 16L7 16L7 17L6 17L6 18L7 18L7 19L6 19L6 20L7 20L7 19L9 19L9 21L10 21L10 18L13 18L13 19L12 19L12 20L15 20L15 18L17 18L17 19L16 19L16 21L13 21L13 24L9 24L9 25L13 25L13 26L14 26L14 25L15 25L15 26L16 26L16 25L17 25L17 26L23 26L23 25L20 25L20 24L19 24L19 23L15 23L15 22L16 22L16 21L17 21L17 22L20 22L20 20L22 20L22 19L23 19L23 20L25 20L25 21L26 21L26 20L27 20L27 18L22 18L22 17L26 17L26 16L22 16L22 15L23 15L23 14L24 14L24 13L27 13L27 14L28 14L28 13L27 13L27 11L26 11L26 12L24 12L24 10L21 10L21 11L20 11L20 10L19 10L19 12L18 12L18 9L17 9L17 10L16 10L16 11L17 11L17 12L15 12L15 14L16 14L16 17L15 17L15 18L14 18L14 17L12 17L12 15L13 15L13 16L14 16L14 15L13 15L13 14L12 14L12 13L11 13L11 12L10 12L10 13L11 13L11 15L10 15L10 14L9 14L9 13L8 13L8 12L9 12L9 9ZM0 10L0 11L1 11L1 10ZM7 11L7 12L6 12L6 13L7 13L7 14L8 14L8 13L7 13L7 12L8 12L8 11ZM19 12L19 13L18 13L18 14L17 14L17 13L16 13L16 14L17 14L17 15L18 15L18 14L21 14L21 15L22 15L22 14L23 14L23 13L22 13L22 14L21 14L21 12ZM2 15L2 17L3 17L3 16L4 16L4 15ZM8 16L8 17L7 17L7 18L9 18L9 17L11 17L11 16ZM17 16L17 17L18 17L18 18L20 18L20 19L22 19L22 18L20 18L20 17L18 17L18 16ZM25 19L25 20L26 20L26 19ZM2 20L2 21L3 21L3 20ZM17 20L17 21L18 21L18 20ZM11 21L11 23L12 23L12 21ZM21 21L21 24L24 24L24 21ZM27 21L27 22L28 22L28 21ZM9 22L9 23L10 23L10 22ZM22 22L22 23L23 23L23 22ZM14 23L14 24L13 24L13 25L14 25L14 24L15 24L15 25L16 25L16 24L15 24L15 23ZM17 24L17 25L18 25L18 24ZM25 24L25 25L26 25L26 24ZM13 28L13 29L14 29L14 28ZM17 28L17 29L18 29L18 28ZM0 0L0 7L7 7L7 0ZM1 1L1 6L6 6L6 1ZM2 2L2 5L5 5L5 2ZM22 0L22 7L29 7L29 0ZM23 1L23 6L28 6L28 1ZM24 2L24 5L27 5L27 2ZM0 22L0 29L7 29L7 22ZM1 23L1 28L6 28L6 23ZM2 24L2 27L5 27L5 24Z" fill="#282828"/></g></g></svg>
