<?xml version="1.0" encoding="UTF-8"?>
<svg xmlns="http://www.w3.org/2000/svg" version="1.1" width="90" height="90" viewBox="0 0 90 90"><rect x="0" y="0" width="90" height="90" fill="#ffffff"/><g transform="scale(2.903)"><g transform="translate(1,1)"><path fill-rule="evenodd" d="M10 0L10 2L11 2L11 0ZM12 0L12 1L13 1L13 0ZM16 0L16 1L15 1L15 2L14 2L14 3L13 3L13 2L12 2L12 4L14 4L14 5L11 5L11 6L10 6L10 4L11 4L11 3L8 3L8 4L9 4L9 5L8 5L8 7L9 7L9 8L6 8L6 9L10 9L10 11L11 11L11 9L12 9L12 10L13 10L13 11L12 11L12 13L14 13L14 14L10 14L10 15L9 15L9 16L6 16L6 15L8 15L8 13L11 13L11 12L8 12L8 11L9 11L9 10L8 10L8 11L7 11L7 10L5 10L5 11L3 11L3 12L2 12L2 9L3 9L3 10L4 10L4 9L5 9L5 8L0 8L0 9L1 9L1 11L0 11L0 21L1 21L1 17L2 17L2 18L3 18L3 19L4 19L4 18L3 18L3 17L5 17L5 18L6 18L6 19L5 19L5 20L6 20L6 21L7 21L7 20L6 20L6 19L8 19L8 20L9 20L9 19L8 19L8 17L9 17L9 18L10 18L10 21L8 21L8 23L9 23L9 22L10 22L10 21L11 21L11 17L12 17L12 18L13 18L13 19L12 19L12 21L13 21L13 20L14 20L14 21L15 21L15 20L14 20L14 19L16 19L16 20L17 20L17 19L16 19L16 18L17 18L17 17L18 17L18 20L19 20L19 21L16 21L16 22L15 22L15 23L14 23L14 24L15 24L15 23L16 23L16 24L17 24L17 25L16 25L16 26L15 26L15 25L12 25L12 23L13 23L13 22L11 22L11 23L10 23L10 24L11 24L11 25L12 25L12 26L13 26L13 27L12 27L12 29L13 29L13 28L14 28L14 29L15 29L15 28L14 28L14 27L17 27L17 25L18 25L18 26L19 26L19 25L18 25L18 24L17 24L17 22L19 22L19 24L20 24L20 26L21 26L21 27L19 27L19 29L20 29L20 28L22 28L22 27L23 27L23 29L24 29L24 27L25 27L25 28L26 28L26 29L27 29L27 28L28 28L28 26L29 26L29 24L28 24L28 22L29 22L29 21L28 21L28 20L29 20L29 19L28 19L28 18L29 18L29 17L28 17L28 18L26 18L26 19L27 19L27 20L26 20L26 21L28 21L28 22L27 22L27 26L24 26L24 25L26 25L26 23L25 23L25 17L27 17L27 16L26 16L26 15L25 15L25 14L26 14L26 13L22 13L22 12L21 12L21 10L23 10L23 11L25 11L25 12L26 12L26 11L27 11L27 9L28 9L28 8L27 8L27 9L26 9L26 8L25 8L25 9L24 9L24 8L23 8L23 9L22 9L22 8L21 8L21 10L20 10L20 9L18 9L18 8L17 8L17 4L18 4L18 5L19 5L19 4L20 4L20 5L21 5L21 4L20 4L20 3L21 3L21 0L18 0L18 1L17 1L17 0ZM8 1L8 2L9 2L9 1ZM16 1L16 3L18 3L18 4L19 4L19 3L20 3L20 1L19 1L19 3L18 3L18 2L17 2L17 1ZM14 3L14 4L15 4L15 5L14 5L14 6L13 6L13 7L12 7L12 6L11 6L11 7L12 7L12 9L13 9L13 10L14 10L14 9L16 9L16 6L15 6L15 5L16 5L16 4L15 4L15 3ZM9 6L9 7L10 7L10 6ZM14 6L14 7L15 7L15 6ZM18 6L18 7L19 7L19 6ZM20 6L20 7L21 7L21 6ZM10 8L10 9L11 9L11 8ZM13 8L13 9L14 9L14 8ZM17 9L17 12L16 12L16 11L15 11L15 12L14 12L14 11L13 11L13 12L14 12L14 13L15 13L15 14L14 14L14 15L12 15L12 17L14 17L14 18L16 18L16 17L17 17L17 16L20 16L20 17L25 17L25 15L24 15L24 14L22 14L22 16L20 16L20 15L21 15L21 14L18 14L18 13L21 13L21 12L20 12L20 10L18 10L18 9ZM5 11L5 12L3 12L3 14L1 14L1 15L3 15L3 16L2 16L2 17L3 17L3 16L5 16L5 17L6 17L6 18L7 18L7 17L6 17L6 16L5 16L5 15L6 15L6 14L7 14L7 13L5 13L5 12L7 12L7 11ZM18 11L18 12L17 12L17 13L16 13L16 14L15 14L15 15L14 15L14 16L15 16L15 17L16 17L16 16L17 16L17 13L18 13L18 12L19 12L19 11ZM28 11L28 12L27 12L27 13L28 13L28 14L27 14L27 15L28 15L28 16L29 16L29 15L28 15L28 14L29 14L29 13L28 13L28 12L29 12L29 11ZM3 14L3 15L5 15L5 14ZM10 15L10 16L11 16L11 15ZM15 15L15 16L16 16L16 15ZM19 18L19 19L20 19L20 18ZM22 18L22 19L21 19L21 20L22 20L22 19L23 19L23 20L24 20L24 18ZM2 20L2 21L4 21L4 20ZM19 21L19 22L20 22L20 21ZM21 21L21 24L24 24L24 21ZM22 22L22 23L23 23L23 22ZM8 24L8 29L10 29L10 27L11 27L11 26L9 26L9 24ZM21 25L21 26L23 26L23 25ZM26 27L26 28L27 28L27 27ZM17 28L17 29L18 29L18 28ZM0 0L0 7L7 7L7 0ZM1 1L1 6L6 6L6 1ZM2 2L2 5L5 5L5 2ZM22 0L22 7L29 7L29 0ZM23 1L23 6L28 6L28 1ZM24 2L24 5L27 5L27 2ZM0 22L0 29L7 29L7 22ZM1 23L1 28L6 28L6 23ZM2 24L2 27L5 27L5 24Z" fill="#282828"/></g></g></svg>
