<?xml version="1.0" encoding="UTF-8"?>
<svg xmlns="http://www.w3.org/2000/svg" version="1.1" width="90" height="90" viewBox="0 0 90 90"><rect x="0" y="0" width="90" height="90" fill="#ffffff"/><g transform="scale(2.903)"><g transform="translate(1,1)"><path fill-rule="evenodd" d="M9 0L9 1L8 1L8 2L9 2L9 3L8 3L8 4L10 4L10 7L11 7L11 4L12 4L12 5L13 5L13 6L12 6L12 9L13 9L13 8L14 8L14 9L18 9L18 12L19 12L19 13L18 13L18 14L20 14L20 15L21 15L21 16L22 16L22 15L24 15L24 17L18 17L18 16L19 16L19 15L18 15L18 16L16 16L16 14L17 14L17 13L16 13L16 11L17 11L17 10L15 10L15 11L14 11L14 12L15 12L15 13L12 13L12 11L13 11L13 10L11 10L11 11L10 11L10 9L11 9L11 8L6 8L6 9L5 9L5 8L0 8L0 9L1 9L1 10L2 10L2 11L1 11L1 12L2 12L2 13L0 13L0 14L1 14L1 15L3 15L3 16L4 16L4 17L5 17L5 16L6 16L6 17L9 17L9 18L5 18L5 19L9 19L9 18L10 18L10 20L11 20L11 21L10 21L10 22L11 22L11 21L12 21L12 22L13 22L13 23L12 23L12 25L13 25L13 24L14 24L14 25L15 25L15 24L14 24L14 23L16 23L16 24L17 24L17 25L16 25L16 26L15 26L15 27L14 27L14 28L15 28L15 29L16 29L16 28L17 28L17 29L18 29L18 28L17 28L17 27L18 27L18 26L19 26L19 27L20 27L20 26L21 26L21 29L22 29L22 27L23 27L23 29L25 29L25 28L26 28L26 27L25 27L25 26L22 26L22 25L25 25L25 23L26 23L26 21L28 21L28 22L27 22L27 23L28 23L28 22L29 22L29 21L28 21L28 20L29 20L29 19L28 19L28 18L29 18L29 17L28 17L28 18L27 18L27 16L26 16L26 14L27 14L27 15L28 15L28 16L29 16L29 15L28 15L28 14L29 14L29 13L28 13L28 14L27 14L27 13L25 13L25 15L24 15L24 14L23 14L23 13L20 13L20 12L22 12L22 11L24 11L24 10L25 10L25 12L26 12L26 11L27 11L27 12L28 12L28 11L27 11L27 9L28 9L28 8L27 8L27 9L26 9L26 8L25 8L25 9L24 9L24 8L23 8L23 9L22 9L22 8L21 8L21 9L19 9L19 8L20 8L20 7L21 7L21 4L20 4L20 3L19 3L19 2L18 2L18 1L20 1L20 2L21 2L21 0L17 0L17 1L15 1L15 0L14 0L14 2L16 2L16 3L15 3L15 4L18 4L18 5L20 5L20 7L19 7L19 6L18 6L18 7L19 7L19 8L14 8L14 7L15 7L15 6L16 6L16 7L17 7L17 6L16 6L16 5L14 5L14 4L12 4L12 2L13 2L13 1L11 1L11 2L10 2L10 0ZM17 2L17 3L18 3L18 4L19 4L19 3L18 3L18 2ZM10 3L10 4L11 4L11 3ZM8 5L8 7L9 7L9 5ZM13 6L13 7L14 7L14 6ZM2 9L2 10L4 10L4 9ZM6 9L6 10L7 10L7 11L6 11L6 12L7 12L7 11L8 11L8 13L6 13L6 14L4 14L4 12L5 12L5 11L4 11L4 12L3 12L3 11L2 11L2 12L3 12L3 14L4 14L4 15L6 15L6 16L7 16L7 15L8 15L8 16L9 16L9 17L10 17L10 18L13 18L13 19L12 19L12 21L16 21L16 19L15 19L15 18L16 18L16 17L14 17L14 16L15 16L15 15L14 15L14 16L13 16L13 17L12 17L12 15L13 15L13 14L12 14L12 13L11 13L11 12L10 12L10 13L9 13L9 9L8 9L8 10L7 10L7 9ZM19 10L19 11L22 11L22 10ZM8 13L8 14L9 14L9 15L10 15L10 17L11 17L11 15L10 15L10 14L11 14L11 13L10 13L10 14L9 14L9 13ZM15 13L15 14L16 14L16 13ZM6 14L6 15L7 15L7 14ZM21 14L21 15L22 15L22 14ZM0 16L0 21L1 21L1 16ZM25 16L25 17L24 17L24 18L25 18L25 17L26 17L26 16ZM2 18L2 19L3 19L3 20L2 20L2 21L3 21L3 20L4 20L4 19L3 19L3 18ZM19 18L19 19L20 19L20 20L18 20L18 19L17 19L17 20L18 20L18 21L20 21L20 20L24 20L24 19L23 19L23 18ZM26 18L26 20L25 20L25 21L26 21L26 20L27 20L27 18ZM14 19L14 20L15 20L15 19ZM6 20L6 21L8 21L8 23L9 23L9 21L8 21L8 20ZM21 21L21 24L24 24L24 21ZM17 22L17 24L18 24L18 25L19 25L19 26L20 26L20 24L19 24L19 23L18 23L18 22ZM22 22L22 23L23 23L23 22ZM8 24L8 29L10 29L10 28L11 28L11 29L12 29L12 27L13 27L13 26L11 26L11 24ZM26 24L26 25L27 25L27 28L28 28L28 26L29 26L29 25L27 25L27 24ZM9 26L9 27L10 27L10 26ZM15 27L15 28L16 28L16 27ZM24 27L24 28L25 28L25 27ZM19 28L19 29L20 29L20 28ZM0 0L0 7L7 7L7 0ZM1 1L1 6L6 6L6 1ZM2 2L2 5L5 5L5 2ZM22 0L22 7L29 7L29 0ZM23 1L23 6L28 6L28 1ZM24 2L24 5L27 5L27 2ZM0 22L0 29L7 29L7 22ZM1 23L1 28L6 28L6 23ZM2 24L2 27L5 27L5 24Z" fill="#282828"/></g></g></svg>
