<?xml version="1.0" encoding="UTF-8"?>
<svg xmlns="http://www.w3.org/2000/svg" version="1.1" width="90" height="90" viewBox="0 0 90 90"><rect x="0" y="0" width="90" height="90" fill="#ffffff"/><g transform="scale(3.333)"><g transform="translate(1,1)"><path fill-rule="evenodd" d="M8 0L8 1L10 1L10 0ZM16 0L16 2L17 2L17 0ZM14 1L14 2L11 2L11 4L10 4L10 3L9 3L9 2L8 2L8 5L9 5L9 6L8 6L8 7L9 7L9 8L8 8L8 9L9 9L9 10L10 10L10 9L9 9L9 8L10 8L10 7L11 7L11 8L12 8L12 7L13 7L13 5L14 5L14 7L15 7L15 8L14 8L14 11L11 11L11 13L10 13L10 12L8 12L8 13L10 13L10 14L12 14L12 16L11 16L11 15L9 15L9 14L6 14L6 15L4 15L4 14L3 14L3 15L2 15L2 13L4 13L4 10L5 10L5 9L4 9L4 8L0 8L0 9L1 9L1 15L0 15L0 16L1 16L1 15L2 15L2 17L4 17L4 16L6 16L6 17L8 17L8 18L10 18L10 17L9 17L9 16L11 16L11 17L12 17L12 18L11 18L11 19L12 19L12 20L10 20L10 21L12 21L12 22L10 22L10 24L11 24L11 23L12 23L12 24L13 24L13 25L14 25L14 24L15 24L15 23L16 23L16 22L15 22L15 21L14 21L14 22L13 22L13 21L12 21L12 20L13 20L13 19L14 19L14 20L15 20L15 19L14 19L14 18L15 18L15 16L16 16L16 21L17 21L17 24L19 24L19 25L25 25L25 24L23 24L23 23L24 23L24 22L25 22L25 20L24 20L24 19L25 19L25 17L24 17L24 16L23 16L23 18L24 18L24 19L23 19L23 20L24 20L24 21L22 21L22 22L23 22L23 23L21 23L21 20L22 20L22 19L21 19L21 18L22 18L22 17L21 17L21 16L20 16L20 15L19 15L19 12L20 12L20 14L21 14L21 15L22 15L22 14L23 14L23 13L24 13L24 14L25 14L25 11L24 11L24 9L25 9L25 8L24 8L24 9L23 9L23 8L20 8L20 9L18 9L18 8L17 8L17 6L16 6L16 7L15 7L15 5L17 5L17 3L15 3L15 1ZM12 3L12 5L10 5L10 6L9 6L9 7L10 7L10 6L11 6L11 7L12 7L12 5L13 5L13 4L14 4L14 5L15 5L15 4L14 4L14 3ZM6 8L6 9L7 9L7 8ZM2 9L2 11L3 11L3 9ZM15 9L15 11L14 11L14 12L15 12L15 14L14 14L14 13L13 13L13 12L12 12L12 14L14 14L14 15L13 15L13 16L12 16L12 17L13 17L13 16L14 16L14 15L16 15L16 16L19 16L19 15L16 15L16 12L15 12L15 11L17 11L17 10L18 10L18 12L19 12L19 11L20 11L20 12L21 12L21 13L23 13L23 12L21 12L21 11L20 11L20 10L22 10L22 11L23 11L23 9L20 9L20 10L18 10L18 9L17 9L17 10L16 10L16 9ZM6 10L6 11L8 11L8 10ZM5 12L5 13L7 13L7 12ZM3 15L3 16L4 16L4 15ZM6 15L6 16L7 16L7 15ZM8 15L8 16L9 16L9 15ZM17 17L17 20L20 20L20 17ZM18 18L18 19L19 19L19 18ZM8 21L8 25L9 25L9 21ZM19 21L19 22L20 22L20 21ZM14 22L14 23L15 23L15 22ZM20 23L20 24L21 24L21 23ZM0 0L0 7L7 7L7 0ZM1 1L1 6L6 6L6 1ZM2 2L2 5L5 5L5 2ZM18 0L18 7L25 7L25 0ZM19 1L19 6L24 6L24 1ZM20 2L20 5L23 5L23 2ZM0 18L0 25L7 25L7 18ZM1 19L1 24L6 24L6 19ZM2 20L2 23L5 23L5 20Z" fill="#282828"/></g></g></svg>
