<?xml version="1.0" encoding="UTF-8"?>
<svg xmlns="http://www.w3.org/2000/svg" version="1.1" width="90" height="90" viewBox="0 0 90 90"><rect x="0" y="0" width="90" height="90" fill="#ffffff"/><g transform="scale(2.903)"><g transform="translate(1,1)"><path fill-rule="evenodd" d="M8 0L8 4L10 4L10 3L11 3L11 4L12 4L12 2L11 2L11 0ZM12 0L12 1L15 1L15 0ZM16 0L16 1L18 1L18 2L17 2L17 3L14 3L14 4L13 4L13 5L11 5L11 6L10 6L10 7L9 7L9 5L8 5L8 7L9 7L9 8L10 8L10 7L11 7L11 6L12 6L12 8L11 8L11 9L7 9L7 8L4 8L4 9L3 9L3 11L4 11L4 12L6 12L6 13L7 13L7 12L6 12L6 11L8 11L8 15L7 15L7 14L6 14L6 15L3 15L3 14L2 14L2 13L3 13L3 12L2 12L2 13L1 13L1 11L0 11L0 13L1 13L1 14L0 14L0 15L1 15L1 14L2 14L2 15L3 15L3 16L4 16L4 17L3 17L3 18L2 18L2 20L0 20L0 21L4 21L4 20L5 20L5 21L7 21L7 20L5 20L5 19L10 19L10 21L11 21L11 20L12 20L12 21L13 21L13 23L12 23L12 24L11 24L11 22L9 22L9 21L8 21L8 22L9 22L9 23L8 23L8 25L10 25L10 26L11 26L11 27L10 27L10 29L11 29L11 27L12 27L12 28L13 28L13 27L14 27L14 29L16 29L16 28L15 28L15 27L17 27L17 28L19 28L19 27L21 27L21 28L20 28L20 29L21 29L21 28L24 28L24 29L26 29L26 28L24 28L24 27L22 27L22 26L21 26L21 25L24 25L24 26L25 26L25 27L26 27L26 26L27 26L27 29L28 29L28 28L29 28L29 21L27 21L27 25L26 25L26 23L25 23L25 21L26 21L26 19L24 19L24 18L25 18L25 17L26 17L26 14L25 14L25 13L27 13L27 15L29 15L29 13L28 13L28 12L26 12L26 11L27 11L27 10L28 10L28 11L29 11L29 10L28 10L28 9L29 9L29 8L25 8L25 9L24 9L24 8L23 8L23 9L22 9L22 10L24 10L24 11L21 11L21 10L20 10L20 11L18 11L18 10L19 10L19 9L20 9L20 8L21 8L21 6L20 6L20 5L19 5L19 3L20 3L20 4L21 4L21 3L20 3L20 1L19 1L19 0ZM9 2L9 3L10 3L10 2ZM18 2L18 3L17 3L17 4L18 4L18 3L19 3L19 2ZM15 4L15 7L16 7L16 8L14 8L14 6L13 6L13 8L12 8L12 9L11 9L11 10L9 10L9 13L10 13L10 14L11 14L11 15L9 15L9 16L12 16L12 17L10 17L10 19L11 19L11 18L12 18L12 17L15 17L15 18L13 18L13 19L12 19L12 20L13 20L13 21L14 21L14 23L13 23L13 25L14 25L14 26L16 26L16 25L17 25L17 26L18 26L18 25L19 25L19 26L20 26L20 25L19 25L19 23L18 23L18 24L17 24L17 22L18 22L18 21L19 21L19 20L22 20L22 17L25 17L25 14L22 14L22 13L23 13L23 12L22 12L22 13L20 13L20 12L19 12L19 14L18 14L18 13L17 13L17 12L14 12L14 11L12 11L12 12L11 12L11 13L10 13L10 11L11 11L11 10L12 10L12 9L13 9L13 10L16 10L16 9L17 9L17 10L18 10L18 9L19 9L19 8L20 8L20 6L19 6L19 8L18 8L18 9L17 9L17 7L18 7L18 6L17 6L17 7L16 7L16 4ZM0 8L0 9L2 9L2 8ZM13 8L13 9L14 9L14 8ZM6 9L6 10L7 10L7 9ZM25 9L25 10L27 10L27 9ZM4 10L4 11L5 11L5 10ZM24 11L24 13L25 13L25 11ZM12 12L12 13L13 13L13 14L14 14L14 13L13 13L13 12ZM15 13L15 16L16 16L16 13ZM17 14L17 16L18 16L18 14ZM21 14L21 15L22 15L22 16L21 16L21 17L22 17L22 16L23 16L23 15L22 15L22 14ZM6 15L6 16L5 16L5 18L4 18L4 19L5 19L5 18L9 18L9 17L8 17L8 16L7 16L7 15ZM12 15L12 16L13 16L13 15ZM19 15L19 17L16 17L16 18L15 18L15 19L14 19L14 21L15 21L15 20L16 20L16 22L15 22L15 23L16 23L16 22L17 22L17 20L18 20L18 19L19 19L19 17L20 17L20 15ZM6 16L6 17L7 17L7 16ZM27 16L27 20L28 20L28 19L29 19L29 17L28 17L28 16ZM0 17L0 18L1 18L1 17ZM16 18L16 20L17 20L17 19L18 19L18 18ZM20 18L20 19L21 19L21 18ZM23 19L23 20L24 20L24 19ZM21 21L21 24L24 24L24 21ZM22 22L22 23L23 23L23 22ZM9 23L9 24L10 24L10 25L11 25L11 26L12 26L12 25L11 25L11 24L10 24L10 23ZM14 24L14 25L15 25L15 24ZM25 25L25 26L26 26L26 25ZM27 25L27 26L28 26L28 25ZM8 27L8 29L9 29L9 27ZM0 0L0 7L7 7L7 0ZM1 1L1 6L6 6L6 1ZM2 2L2 5L5 5L5 2ZM22 0L22 7L29 7L29 0ZM23 1L23 6L28 6L28 1ZM24 2L24 5L27 5L27 2ZM0 22L0 29L7 29L7 22ZM1 23L1 28L6 28L6 23ZM2 24L2 27L5 27L5 24Z" fill="#282828"/></g></g></svg>
