<?xml version="1.0" encoding="UTF-8"?>
<svg xmlns="http://www.w3.org/2000/svg" version="1.1" width="90" height="90" viewBox="0 0 90 90"><rect x="0" y="0" width="90" height="90" fill="#ffffff"/><g transform="scale(3.333)"><g transform="translate(1,1)"><path fill-rule="evenodd" d="M10 0L10 2L11 2L11 0ZM12 0L12 1L14 1L14 2L15 2L15 3L14 3L14 4L13 4L13 2L12 2L12 4L13 4L13 5L11 5L11 6L10 6L10 4L11 4L11 3L8 3L8 4L9 4L9 5L8 5L8 7L9 7L9 8L6 8L6 9L7 9L7 10L6 10L6 11L7 11L7 10L9 10L9 9L10 9L10 11L11 11L11 9L12 9L12 10L13 10L13 11L12 11L12 13L14 13L14 14L15 14L15 16L12 16L12 15L13 15L13 14L10 14L10 16L9 16L9 15L8 15L8 13L11 13L11 12L9 12L9 11L8 11L8 12L6 12L6 13L7 13L7 14L6 14L6 15L7 15L7 16L6 16L6 17L8 17L8 19L9 19L9 20L8 20L8 25L11 25L11 24L12 24L12 23L10 23L10 24L9 24L9 20L11 20L11 21L10 21L10 22L13 22L13 23L14 23L14 22L16 22L16 23L15 23L15 24L17 24L17 25L19 25L19 23L20 23L20 22L19 22L19 21L21 21L21 25L25 25L25 21L23 21L23 20L25 20L25 18L24 18L24 17L25 17L25 16L24 16L24 17L23 17L23 18L24 18L24 19L23 19L23 20L22 20L22 21L21 21L21 19L22 19L22 18L21 18L21 17L22 17L22 16L20 16L20 15L17 15L17 16L16 16L16 14L17 14L17 13L19 13L19 14L20 14L20 13L21 13L21 12L20 12L20 13L19 13L19 12L17 12L17 13L15 13L15 11L18 11L18 10L17 10L17 9L18 9L18 8L17 8L17 4L15 4L15 3L17 3L17 2L16 2L16 1L17 1L17 0L15 0L15 1L14 1L14 0ZM8 1L8 2L9 2L9 1ZM14 4L14 5L15 5L15 4ZM9 6L9 7L10 7L10 6ZM11 6L11 7L12 7L12 9L14 9L14 6L13 6L13 7L12 7L12 6ZM15 6L15 9L17 9L17 8L16 8L16 6ZM0 8L0 10L1 10L1 11L3 11L3 13L5 13L5 11L4 11L4 9L5 9L5 8ZM10 8L10 9L11 9L11 8ZM19 8L19 11L20 11L20 8ZM21 8L21 11L22 11L22 10L24 10L24 11L23 11L23 13L22 13L22 15L23 15L23 14L24 14L24 15L25 15L25 14L24 14L24 13L25 13L25 12L24 12L24 11L25 11L25 10L24 10L24 8L23 8L23 9L22 9L22 8ZM2 9L2 10L3 10L3 9ZM13 11L13 12L14 12L14 11ZM0 13L0 17L1 17L1 14L2 14L2 15L4 15L4 16L3 16L3 17L5 17L5 15L4 15L4 14L2 14L2 13ZM10 16L10 17L9 17L9 19L10 19L10 17L11 17L11 20L12 20L12 21L13 21L13 22L14 22L14 21L15 21L15 20L14 20L14 19L16 19L16 18L15 18L15 17L13 17L13 20L12 20L12 17L11 17L11 16ZM17 17L17 20L20 20L20 17ZM18 18L18 19L19 19L19 18ZM13 20L13 21L14 21L14 20ZM16 21L16 22L17 22L17 23L19 23L19 22L17 22L17 21ZM22 21L22 22L23 22L23 23L22 23L22 24L24 24L24 22L23 22L23 21ZM13 24L13 25L14 25L14 24ZM0 0L0 7L7 7L7 0ZM1 1L1 6L6 6L6 1ZM2 2L2 5L5 5L5 2ZM18 0L18 7L25 7L25 0ZM19 1L19 6L24 6L24 1ZM20 2L20 5L23 5L23 2ZM0 18L0 25L7 25L7 18ZM1 19L1 24L6 24L6 19ZM2 20L2 23L5 23L5 20Z" fill="#282828"/></g></g></svg>
