<?xml version="1.0" encoding="UTF-8"?>
<svg xmlns="http://www.w3.org/2000/svg" version="1.1" width="90" height="90" viewBox="0 0 90 90"><rect x="0" y="0" width="90" height="90" fill="#ffffff"/><g transform="scale(2.903)"><g transform="translate(1,1)"><path fill-rule="evenodd" d="M9 0L9 1L8 1L8 2L9 2L9 3L8 3L8 4L10 4L10 7L11 7L11 4L12 4L12 5L13 5L13 4L14 4L14 8L13 8L13 6L12 6L12 9L16 9L16 7L17 7L17 6L16 6L16 5L18 5L18 8L17 8L17 9L18 9L18 10L19 10L19 9L18 9L18 8L19 8L19 5L20 5L20 8L21 8L21 9L20 9L20 10L21 10L21 11L22 11L22 12L21 12L21 14L20 14L20 13L19 13L19 14L17 14L17 13L18 13L18 12L17 12L17 10L14 10L14 12L12 12L12 11L13 11L13 10L11 10L11 11L10 11L10 9L11 9L11 8L6 8L6 9L9 9L9 11L8 11L8 10L4 10L4 9L5 9L5 8L0 8L0 9L3 9L3 10L2 10L2 11L5 11L5 13L7 13L7 12L9 12L9 13L8 13L8 14L6 14L6 15L5 15L5 14L4 14L4 12L2 12L2 13L1 13L1 12L0 12L0 13L1 13L1 14L0 14L0 15L1 15L1 16L2 16L2 15L3 15L3 17L0 17L0 21L1 21L1 18L3 18L3 17L4 17L4 15L5 15L5 18L4 18L4 19L5 19L5 21L7 21L7 20L6 20L6 19L7 19L7 18L6 18L6 17L7 17L7 16L8 16L8 15L9 15L9 14L11 14L11 13L12 13L12 14L15 14L15 15L14 15L14 16L13 16L13 15L12 15L12 16L11 16L11 17L10 17L10 16L9 16L9 17L10 17L10 18L13 18L13 19L14 19L14 21L11 21L11 20L12 20L12 19L11 19L11 20L10 20L10 19L9 19L9 20L10 20L10 21L11 21L11 22L10 22L10 23L11 23L11 24L13 24L13 25L10 25L10 24L8 24L8 29L9 29L9 25L10 25L10 27L11 27L11 26L13 26L13 25L14 25L14 26L15 26L15 28L13 28L13 27L12 27L12 29L15 29L15 28L17 28L17 29L18 29L18 28L17 28L17 25L18 25L18 26L19 26L19 27L20 27L20 28L19 28L19 29L20 29L20 28L22 28L22 27L24 27L24 29L25 29L25 27L26 27L26 25L27 25L27 28L26 28L26 29L27 29L27 28L28 28L28 26L29 26L29 23L28 23L28 22L29 22L29 21L28 21L28 20L29 20L29 19L28 19L28 18L29 18L29 17L28 17L28 18L27 18L27 16L26 16L26 14L27 14L27 15L28 15L28 16L29 16L29 15L28 15L28 14L29 14L29 12L27 12L27 13L24 13L24 12L26 12L26 11L27 11L27 9L28 9L28 8L27 8L27 9L26 9L26 8L25 8L25 10L24 10L24 8L23 8L23 10L24 10L24 12L23 12L23 11L22 11L22 8L21 8L21 3L20 3L20 2L21 2L21 0L19 0L19 1L20 1L20 2L18 2L18 3L17 3L17 2L16 2L16 1L17 1L17 0L16 0L16 1L11 1L11 2L10 2L10 0ZM12 2L12 4L13 4L13 3L14 3L14 2ZM15 2L15 4L17 4L17 3L16 3L16 2ZM10 3L10 4L11 4L11 3ZM18 3L18 4L20 4L20 3ZM8 5L8 7L9 7L9 5ZM15 6L15 7L16 7L16 6ZM0 10L0 11L1 11L1 10ZM6 11L6 12L7 12L7 11ZM10 12L10 13L11 13L11 12ZM16 12L16 13L15 13L15 14L16 14L16 13L17 13L17 12ZM2 13L2 14L1 14L1 15L2 15L2 14L3 14L3 15L4 15L4 14L3 14L3 13ZM27 13L27 14L28 14L28 13ZM19 14L19 17L21 17L21 18L22 18L22 19L23 19L23 18L22 18L22 17L23 17L23 16L24 16L24 17L26 17L26 16L24 16L24 15L25 15L25 14L24 14L24 15L21 15L21 16L20 16L20 14ZM6 15L6 16L7 16L7 15ZM17 15L17 16L18 16L18 15ZM12 16L12 17L13 17L13 16ZM14 17L14 18L16 18L16 17ZM17 17L17 20L16 20L16 19L15 19L15 22L16 22L16 23L15 23L15 24L16 24L16 25L15 25L15 26L16 26L16 25L17 25L17 24L18 24L18 25L19 25L19 26L20 26L20 24L18 24L18 23L19 23L19 22L20 22L20 20L21 20L21 19L20 19L20 18L19 18L19 19L20 19L20 20L18 20L18 17ZM5 18L5 19L6 19L6 18ZM25 18L25 19L26 19L26 20L25 20L25 21L26 21L26 20L27 20L27 18ZM3 20L3 21L4 21L4 20ZM8 21L8 23L9 23L9 21ZM16 21L16 22L17 22L17 23L18 23L18 22L19 22L19 21ZM21 21L21 24L24 24L24 21ZM27 21L27 22L25 22L25 23L26 23L26 24L25 24L25 25L26 25L26 24L27 24L27 25L28 25L28 23L27 23L27 22L28 22L28 21ZM11 22L11 23L12 23L12 22ZM22 22L22 23L23 23L23 22ZM13 23L13 24L14 24L14 23ZM21 25L21 26L24 26L24 25ZM10 28L10 29L11 29L11 28ZM0 0L0 7L7 7L7 0ZM1 1L1 6L6 6L6 1ZM2 2L2 5L5 5L5 2ZM22 0L22 7L29 7L29 0ZM23 1L23 6L28 6L28 1ZM24 2L24 5L27 5L27 2ZM0 22L0 29L7 29L7 22ZM1 23L1 28L6 28L6 23ZM2 24L2 27L5 27L5 24Z" fill="#282828"/></g></g></svg>
