<?xml version="1.0" encoding="UTF-8"?>
<svg xmlns="http://www.w3.org/2000/svg" version="1.1" width="90" height="90" viewBox="0 0 90 90"><rect x="0" y="0" width="90" height="90" fill="#ffffff"/><g transform="scale(2.903)"><g transform="translate(1,1)"><path fill-rule="evenodd" d="M9 0L9 1L8 1L8 2L9 2L9 3L8 3L8 4L10 4L10 7L11 7L11 4L12 4L12 5L13 5L13 4L14 4L14 5L15 5L15 6L14 6L14 7L15 7L15 6L16 6L16 8L17 8L17 6L18 6L18 7L19 7L19 5L21 5L21 4L15 4L15 2L16 2L16 3L17 3L17 0L13 0L13 1L11 1L11 2L10 2L10 0ZM18 0L18 3L19 3L19 1L20 1L20 3L21 3L21 1L20 1L20 0ZM12 2L12 4L13 4L13 3L14 3L14 2ZM10 3L10 4L11 4L11 3ZM8 5L8 7L9 7L9 5ZM16 5L16 6L17 6L17 5ZM12 6L12 9L15 9L15 11L14 11L14 12L13 12L13 13L12 13L12 11L13 11L13 10L11 10L11 11L10 11L10 9L11 9L11 8L6 8L6 9L7 9L7 10L5 10L5 8L0 8L0 11L1 11L1 9L4 9L4 10L3 10L3 11L2 11L2 12L3 12L3 13L4 13L4 14L3 14L3 15L2 15L2 18L3 18L3 21L4 21L4 18L6 18L6 19L5 19L5 21L8 21L8 23L10 23L10 25L11 25L11 22L10 22L10 21L12 21L12 22L13 22L13 23L12 23L12 25L13 25L13 24L14 24L14 25L15 25L15 27L14 27L14 28L15 28L15 27L16 27L16 28L17 28L17 27L16 27L16 26L18 26L18 27L19 27L19 29L20 29L20 28L23 28L23 29L24 29L24 28L26 28L26 27L25 27L25 26L24 26L24 25L25 25L25 23L26 23L26 21L28 21L28 22L27 22L27 23L28 23L28 22L29 22L29 21L28 21L28 20L29 20L29 19L28 19L28 18L29 18L29 17L28 17L28 18L27 18L27 16L26 16L26 15L24 15L24 14L27 14L27 12L26 12L26 10L28 10L28 8L27 8L27 9L26 9L26 8L25 8L25 9L24 9L24 8L23 8L23 9L22 9L22 8L21 8L21 6L20 6L20 9L18 9L18 11L19 11L19 10L23 10L23 11L25 11L25 12L26 12L26 13L22 13L22 12L21 12L21 11L20 11L20 13L14 13L14 12L15 12L15 11L16 11L16 12L17 12L17 9L15 9L15 8L13 8L13 6ZM8 9L8 10L7 10L7 11L6 11L6 12L7 12L7 11L8 11L8 13L9 13L9 9ZM4 10L4 11L3 11L3 12L4 12L4 13L5 13L5 14L4 14L4 15L3 15L3 16L4 16L4 17L6 17L6 18L7 18L7 17L10 17L10 18L14 18L14 17L17 17L17 18L16 18L16 21L15 21L15 20L14 20L14 19L12 19L12 21L14 21L14 22L17 22L17 24L16 24L16 23L14 23L14 24L16 24L16 25L20 25L20 24L19 24L19 23L18 23L18 21L19 21L19 22L20 22L20 21L19 21L19 20L20 20L20 19L22 19L22 20L25 20L25 21L26 21L26 20L27 20L27 18L25 18L25 19L22 19L22 18L23 18L23 16L24 16L24 17L26 17L26 16L24 16L24 15L23 15L23 14L22 14L22 16L20 16L20 17L22 17L22 18L18 18L18 17L19 17L19 15L20 15L20 14L16 14L16 15L15 15L15 14L14 14L14 13L13 13L13 14L12 14L12 13L11 13L11 12L10 12L10 13L11 13L11 15L10 15L10 14L8 14L8 15L10 15L10 16L7 16L7 15L6 15L6 14L7 14L7 13L5 13L5 12L4 12L4 11L5 11L5 10ZM28 11L28 13L29 13L29 11ZM0 12L0 14L1 14L1 12ZM13 14L13 15L12 15L12 17L14 17L14 16L13 16L13 15L14 15L14 14ZM5 15L5 16L6 16L6 17L7 17L7 16L6 16L6 15ZM16 15L16 16L17 16L17 15ZM28 15L28 16L29 16L29 15ZM10 16L10 17L11 17L11 16ZM0 17L0 21L1 21L1 17ZM8 18L8 19L6 19L6 20L8 20L8 21L9 21L9 20L11 20L11 19L9 19L9 18ZM17 18L17 19L18 19L18 18ZM8 19L8 20L9 20L9 19ZM25 19L25 20L26 20L26 19ZM21 21L21 24L24 24L24 21ZM22 22L22 23L23 23L23 22ZM8 24L8 29L10 29L10 28L11 28L11 29L12 29L12 27L13 27L13 26L10 26L10 28L9 28L9 24ZM26 24L26 25L27 25L27 28L28 28L28 26L29 26L29 24ZM21 25L21 26L19 26L19 27L22 27L22 26L23 26L23 25ZM23 27L23 28L24 28L24 27ZM0 0L0 7L7 7L7 0ZM1 1L1 6L6 6L6 1ZM2 2L2 5L5 5L5 2ZM22 0L22 7L29 7L29 0ZM23 1L23 6L28 6L28 1ZM24 2L24 5L27 5L27 2ZM0 22L0 29L7 29L7 22ZM1 23L1 28L6 28L6 23ZM2 24L2 27L5 27L5 24Z" fill="#282828"/></g></g></svg>
