<?xml version="1.0" encoding="UTF-8"?>
<svg xmlns="http://www.w3.org/2000/svg" version="1.1" width="90" height="90" viewBox="0 0 90 90"><rect x="0" y="0" width="90" height="90" fill="#ffffff"/><g transform="scale(3.333)"><g transform="translate(1,1)"><path fill-rule="evenodd" d="M10 0L10 1L9 1L9 2L8 2L8 3L9 3L9 5L10 5L10 7L11 7L11 8L12 8L12 9L11 9L11 10L10 10L10 9L9 9L9 6L8 6L8 8L4 8L4 9L5 9L5 10L4 10L4 11L7 11L7 10L10 10L10 11L9 11L9 12L8 12L8 13L7 13L7 12L6 12L6 13L7 13L7 14L6 14L6 15L5 15L5 14L4 14L4 13L3 13L3 12L1 12L1 14L0 14L0 15L1 15L1 16L0 16L0 17L1 17L1 16L2 16L2 15L3 15L3 17L8 17L8 21L9 21L9 22L8 22L8 25L9 25L9 23L10 23L10 24L11 24L11 23L10 23L10 22L11 22L11 21L12 21L12 19L13 19L13 22L12 22L12 23L13 23L13 25L17 25L17 24L16 24L16 23L15 23L15 22L14 22L14 19L15 19L15 20L16 20L16 21L19 21L19 22L18 22L18 24L20 24L20 25L21 25L21 24L22 24L22 23L21 23L21 22L22 22L22 20L21 20L21 16L19 16L19 15L18 15L18 13L17 13L17 10L18 10L18 12L20 12L20 13L22 13L22 14L20 14L20 15L22 15L22 14L23 14L23 12L24 12L24 11L25 11L25 9L24 9L24 11L23 11L23 10L22 10L22 9L23 9L23 8L22 8L22 9L20 9L20 10L18 10L18 9L19 9L19 8L16 8L16 7L17 7L17 5L16 5L16 7L15 7L15 4L16 4L16 3L17 3L17 0L16 0L16 2L15 2L15 0L13 0L13 1L14 1L14 2L15 2L15 3L12 3L12 2L11 2L11 3L12 3L12 5L10 5L10 3L9 3L9 2L10 2L10 1L11 1L11 0ZM13 5L13 7L12 7L12 6L11 6L11 7L12 7L12 8L13 8L13 11L14 11L14 10L15 10L15 11L16 11L16 10L15 10L15 9L16 9L16 8L15 8L15 7L14 7L14 5ZM13 7L13 8L14 8L14 7ZM0 8L0 10L1 10L1 9L2 9L2 10L3 10L3 8ZM6 9L6 10L7 10L7 9ZM21 10L21 11L20 11L20 12L23 12L23 11L22 11L22 10ZM11 11L11 12L12 12L12 11ZM9 12L9 13L8 13L8 14L7 14L7 15L6 15L6 16L8 16L8 17L9 17L9 16L8 16L8 14L10 14L10 15L12 15L12 16L10 16L10 17L11 17L11 19L10 19L10 18L9 18L9 20L10 20L10 21L11 21L11 19L12 19L12 18L13 18L13 19L14 19L14 18L13 18L13 15L12 15L12 14L14 14L14 15L16 15L16 16L14 16L14 17L16 17L16 16L18 16L18 15L16 15L16 14L14 14L14 13L16 13L16 12L13 12L13 13L12 13L12 14L10 14L10 12ZM2 13L2 14L1 14L1 15L2 15L2 14L3 14L3 13ZM24 13L24 15L23 15L23 16L22 16L22 17L23 17L23 16L24 16L24 19L23 19L23 18L22 18L22 19L23 19L23 20L25 20L25 13ZM4 15L4 16L5 16L5 15ZM17 17L17 20L20 20L20 17ZM18 18L18 19L19 19L19 18ZM20 21L20 22L21 22L21 21ZM13 22L13 23L14 23L14 22ZM24 22L24 23L23 23L23 25L25 25L25 24L24 24L24 23L25 23L25 22ZM20 23L20 24L21 24L21 23ZM0 0L0 7L7 7L7 0ZM1 1L1 6L6 6L6 1ZM2 2L2 5L5 5L5 2ZM18 0L18 7L25 7L25 0ZM19 1L19 6L24 6L24 1ZM20 2L20 5L23 5L23 2ZM0 18L0 25L7 25L7 18ZM1 19L1 24L6 24L6 19ZM2 20L2 23L5 23L5 20Z" fill="#282828"/></g></g></svg>
