<?xml version="1.0" encoding="UTF-8"?>
<svg xmlns="http://www.w3.org/2000/svg" version="1.1" width="90" height="90" viewBox="0 0 90 90"><rect x="0" y="0" width="90" height="90" fill="#ffffff"/><g transform="scale(2.903)"><g transform="translate(1,1)"><path fill-rule="evenodd" d="M8 0L8 4L10 4L10 3L11 3L11 4L12 4L12 2L11 2L11 0ZM12 0L12 1L13 1L13 2L14 2L14 3L13 3L13 5L11 5L11 6L10 6L10 7L9 7L9 5L8 5L8 7L9 7L9 8L10 8L10 7L11 7L11 6L12 6L12 8L11 8L11 9L7 9L7 8L4 8L4 10L3 10L3 9L2 9L2 8L0 8L0 10L1 10L1 12L0 12L0 13L1 13L1 15L0 15L0 16L2 16L2 17L0 17L0 18L2 18L2 20L0 20L0 21L2 21L2 20L3 20L3 21L5 21L5 20L3 20L3 18L6 18L6 19L7 19L7 20L6 20L6 21L7 21L7 20L9 20L9 21L8 21L8 22L9 22L9 21L10 21L10 23L8 23L8 25L9 25L9 27L8 27L8 29L10 29L10 27L11 27L11 28L12 28L12 29L14 29L14 27L15 27L15 28L18 28L18 26L19 26L19 27L23 27L23 26L22 26L22 25L24 25L24 26L25 26L25 28L23 28L23 29L28 29L28 28L29 28L29 21L26 21L26 20L24 20L24 19L25 19L25 18L26 18L26 19L27 19L27 20L28 20L28 19L29 19L29 13L27 13L27 12L26 12L26 11L27 11L27 10L28 10L28 12L29 12L29 10L28 10L28 9L29 9L29 8L25 8L25 9L24 9L24 8L23 8L23 10L22 10L22 12L23 12L23 11L24 11L24 13L22 13L22 14L20 14L20 13L21 13L21 11L19 11L19 10L20 10L20 9L21 9L21 8L20 8L20 7L21 7L21 6L20 6L20 4L19 4L19 3L18 3L18 2L20 2L20 3L21 3L21 2L20 2L20 1L21 1L21 0L20 0L20 1L19 1L19 0L18 0L18 2L15 2L15 1L17 1L17 0ZM9 2L9 3L10 3L10 2ZM14 3L14 5L13 5L13 8L12 8L12 9L11 9L11 10L8 10L8 11L6 11L6 10L7 10L7 9L5 9L5 11L6 11L6 12L7 12L7 13L5 13L5 17L6 17L6 18L7 18L7 19L9 19L9 17L10 17L10 14L11 14L11 16L12 16L12 17L11 17L11 18L12 18L12 17L13 17L13 18L14 18L14 17L13 17L13 16L14 16L14 15L15 15L15 16L16 16L16 17L15 17L15 18L16 18L16 19L17 19L17 18L16 18L16 17L19 17L19 16L20 16L20 14L19 14L19 16L17 16L17 14L18 14L18 13L20 13L20 12L19 12L19 11L18 11L18 12L15 12L15 10L16 10L16 11L17 11L17 10L19 10L19 8L17 8L17 7L18 7L18 6L19 6L19 7L20 7L20 6L19 6L19 5L18 5L18 4L17 4L17 3L16 3L16 4L17 4L17 7L16 7L16 5L15 5L15 3ZM14 5L14 7L15 7L15 5ZM14 8L14 9L16 9L16 10L17 10L17 8ZM1 9L1 10L2 10L2 9ZM12 9L12 10L11 10L11 11L10 11L10 13L9 13L9 12L8 12L8 13L9 13L9 14L6 14L6 15L9 15L9 14L10 14L10 13L11 13L11 12L12 12L12 13L13 13L13 14L14 14L14 13L15 13L15 12L14 12L14 13L13 13L13 12L12 12L12 11L13 11L13 9ZM25 9L25 10L24 10L24 11L25 11L25 10L27 10L27 9ZM3 11L3 12L1 12L1 13L3 13L3 14L2 14L2 15L3 15L3 17L2 17L2 18L3 18L3 17L4 17L4 15L3 15L3 14L4 14L4 11ZM16 13L16 14L15 14L15 15L16 15L16 14L17 14L17 13ZM25 13L25 14L23 14L23 15L26 15L26 16L25 16L25 17L28 17L28 16L27 16L27 14L26 14L26 13ZM12 15L12 16L13 16L13 15ZM6 16L6 17L8 17L8 16ZM22 16L22 17L20 17L20 18L19 18L19 19L20 19L20 20L21 20L21 19L22 19L22 20L23 20L23 19L24 19L24 18L23 18L23 17L24 17L24 16ZM22 18L22 19L23 19L23 18ZM10 19L10 21L11 21L11 24L10 24L10 26L12 26L12 25L13 25L13 26L16 26L16 27L17 27L17 26L18 26L18 25L17 25L17 23L15 23L15 22L16 22L16 21L15 21L15 19L14 19L14 21L15 21L15 22L13 22L13 21L12 21L12 20L13 20L13 19L12 19L12 20L11 20L11 19ZM17 20L17 22L18 22L18 21L19 21L19 23L20 23L20 21L19 21L19 20ZM21 21L21 24L24 24L24 21ZM22 22L22 23L23 23L23 22ZM25 22L25 23L26 23L26 24L27 24L27 26L28 26L28 24L27 24L27 22ZM12 23L12 24L11 24L11 25L12 25L12 24L13 24L13 25L16 25L16 26L17 26L17 25L16 25L16 24L15 24L15 23L14 23L14 24L13 24L13 23ZM19 25L19 26L21 26L21 25ZM12 27L12 28L13 28L13 27ZM26 27L26 28L27 28L27 27ZM20 28L20 29L21 29L21 28ZM0 0L0 7L7 7L7 0ZM1 1L1 6L6 6L6 1ZM2 2L2 5L5 5L5 2ZM22 0L22 7L29 7L29 0ZM23 1L23 6L28 6L28 1ZM24 2L24 5L27 5L27 2ZM0 22L0 29L7 29L7 22ZM1 23L1 28L6 28L6 23ZM2 24L2 27L5 27L5 24Z" fill="#282828"/></g></g></svg>
