<?xml version="1.0" encoding="UTF-8"?>
<svg xmlns="http://www.w3.org/2000/svg" version="1.1" width="90" height="90" viewBox="0 0 90 90"><rect x="0" y="0" width="90" height="90" fill="#ffffff"/><g transform="scale(2.903)"><g transform="translate(1,1)"><path fill-rule="evenodd" d="M9 0L9 1L8 1L8 2L9 2L9 3L8 3L8 4L10 4L10 7L11 7L11 4L12 4L12 5L13 5L13 4L15 4L15 6L14 6L14 8L13 8L13 6L12 6L12 9L14 9L14 10L11 10L11 11L10 11L10 9L11 9L11 8L6 8L6 9L8 9L8 10L5 10L5 11L4 11L4 9L5 9L5 8L0 8L0 15L1 15L1 14L2 14L2 15L4 15L4 19L3 19L3 17L2 17L2 16L0 16L0 21L1 21L1 18L2 18L2 20L4 20L4 21L5 21L5 20L6 20L6 21L7 21L7 20L8 20L8 23L9 23L9 20L11 20L11 21L12 21L12 22L13 22L13 23L12 23L12 25L13 25L13 24L14 24L14 25L16 25L16 26L15 26L15 27L14 27L14 28L15 28L15 29L18 29L18 28L17 28L17 27L18 27L18 26L20 26L20 28L19 28L19 29L20 29L20 28L21 28L21 29L25 29L25 28L26 28L26 29L27 29L27 28L28 28L28 26L29 26L29 24L27 24L27 25L26 25L26 27L25 27L25 26L24 26L24 25L25 25L25 24L26 24L26 23L25 23L25 19L24 19L24 18L25 18L25 17L28 17L28 18L26 18L26 19L27 19L27 20L26 20L26 21L28 21L28 22L27 22L27 23L28 23L28 22L29 22L29 21L28 21L28 20L29 20L29 19L28 19L28 18L29 18L29 16L28 16L28 14L29 14L29 13L28 13L28 12L29 12L29 11L28 11L28 12L27 12L27 13L28 13L28 14L27 14L27 16L26 16L26 15L24 15L24 14L26 14L26 13L24 13L24 12L23 12L23 15L20 15L20 16L19 16L19 14L22 14L22 13L19 13L19 14L18 14L18 16L17 16L17 17L16 17L16 18L15 18L15 17L14 17L14 16L13 16L13 15L12 15L12 17L14 17L14 18L11 18L11 17L9 17L9 16L10 16L10 15L11 15L11 13L12 13L12 14L15 14L15 15L17 15L17 13L18 13L18 12L17 12L17 13L16 13L16 11L17 11L17 9L18 9L18 11L19 11L19 10L20 10L20 11L21 11L21 12L22 12L22 10L23 10L23 11L25 11L25 12L26 12L26 11L27 11L27 9L28 9L28 8L27 8L27 9L26 9L26 8L25 8L25 9L24 9L24 8L23 8L23 9L22 9L22 8L21 8L21 10L20 10L20 9L18 9L18 8L17 8L17 6L18 6L18 7L19 7L19 4L20 4L20 5L21 5L21 3L19 3L19 4L18 4L18 3L17 3L17 0L16 0L16 1L15 1L15 0L14 0L14 1L15 1L15 2L16 2L16 4L15 4L15 3L13 3L13 4L12 4L12 2L13 2L13 1L11 1L11 2L10 2L10 0ZM18 0L18 2L19 2L19 1L20 1L20 2L21 2L21 0ZM10 3L10 4L11 4L11 3ZM8 5L8 7L9 7L9 5ZM15 6L15 7L16 7L16 6ZM20 6L20 7L21 7L21 6ZM14 8L14 9L15 9L15 10L14 10L14 11L12 11L12 13L13 13L13 12L14 12L14 13L15 13L15 14L16 14L16 13L15 13L15 10L16 10L16 9L17 9L17 8ZM23 9L23 10L24 10L24 9ZM1 10L1 11L2 11L2 10ZM8 10L8 12L9 12L9 10ZM6 11L6 12L5 12L5 13L2 13L2 14L4 14L4 15L5 15L5 17L6 17L6 18L7 18L7 19L6 19L6 20L7 20L7 19L10 19L10 18L9 18L9 17L6 17L6 16L7 16L7 15L9 15L9 14L7 14L7 13L6 13L6 12L7 12L7 11ZM10 12L10 13L11 13L11 12ZM5 13L5 14L6 14L6 15L7 15L7 14L6 14L6 13ZM23 15L23 16L20 16L20 17L23 17L23 16L24 16L24 17L25 17L25 16L24 16L24 15ZM17 17L17 21L19 21L19 22L18 22L18 23L17 23L17 24L16 24L16 25L17 25L17 26L18 26L18 25L20 25L20 26L23 26L23 25L20 25L20 24L18 24L18 23L19 23L19 22L20 22L20 21L19 21L19 20L18 20L18 17ZM14 18L14 19L12 19L12 21L14 21L14 22L16 22L16 21L15 21L15 20L14 20L14 19L15 19L15 18ZM19 18L19 19L20 19L20 18ZM22 18L22 19L21 19L21 20L24 20L24 19L23 19L23 18ZM4 19L4 20L5 20L5 19ZM21 21L21 24L24 24L24 21ZM22 22L22 23L23 23L23 22ZM14 23L14 24L15 24L15 23ZM8 24L8 29L10 29L10 27L11 27L11 29L12 29L12 27L13 27L13 26L10 26L10 25L11 25L11 24L10 24L10 25L9 25L9 24ZM17 24L17 25L18 25L18 24ZM9 26L9 27L10 27L10 26ZM22 27L22 28L23 28L23 27ZM26 27L26 28L27 28L27 27ZM0 0L0 7L7 7L7 0ZM1 1L1 6L6 6L6 1ZM2 2L2 5L5 5L5 2ZM22 0L22 7L29 7L29 0ZM23 1L23 6L28 6L28 1ZM24 2L24 5L27 5L27 2ZM0 22L0 29L7 29L7 22ZM1 23L1 28L6 28L6 23ZM2 24L2 27L5 27L5 24Z" fill="#282828"/></g></g></svg>
