<?xml version="1.0" encoding="UTF-8"?>
<svg xmlns="http://www.w3.org/2000/svg" version="1.1" width="90" height="90" viewBox="0 0 90 90"><rect x="0" y="0" width="90" height="90" fill="#ffffff"/><g transform="scale(2.903)"><g transform="translate(1,1)"><path fill-rule="evenodd" d="M8 0L8 1L10 1L10 0ZM13 0L13 2L11 2L11 4L10 4L10 3L9 3L9 2L8 2L8 5L9 5L9 6L8 6L8 7L9 7L9 8L8 8L8 9L7 9L7 8L6 8L6 9L7 9L7 10L5 10L5 9L4 9L4 8L0 8L0 11L1 11L1 12L2 12L2 13L1 13L1 14L2 14L2 16L3 16L3 18L2 18L2 19L4 19L4 21L8 21L8 22L9 22L9 21L8 21L8 20L6 20L6 19L8 19L8 17L7 17L7 16L8 16L8 15L9 15L9 14L6 14L6 15L5 15L5 13L8 13L8 11L7 11L7 10L8 10L8 9L9 9L9 10L10 10L10 9L9 9L9 8L10 8L10 7L11 7L11 8L12 8L12 7L13 7L13 5L12 5L12 3L14 3L14 7L15 7L15 4L16 4L16 5L18 5L18 3L17 3L17 4L16 4L16 3L14 3L14 0ZM15 0L15 1L16 1L16 2L17 2L17 0ZM19 0L19 1L21 1L21 0ZM19 2L19 3L20 3L20 4L19 4L19 6L18 6L18 7L17 7L17 6L16 6L16 7L17 7L17 9L16 9L16 8L13 8L13 9L15 9L15 10L14 10L14 11L11 11L11 13L10 13L10 12L9 12L9 13L10 13L10 15L11 15L11 14L12 14L12 16L10 16L10 17L9 17L9 19L12 19L12 20L10 20L10 24L9 24L9 25L8 25L8 29L9 29L9 28L10 28L10 29L11 29L11 28L10 28L10 26L9 26L9 25L10 25L10 24L11 24L11 23L12 23L12 24L13 24L13 25L14 25L14 24L16 24L16 23L17 23L17 22L18 22L18 24L19 24L19 23L20 23L20 26L22 26L22 25L23 25L23 27L24 27L24 28L23 28L23 29L24 29L24 28L25 28L25 27L24 27L24 25L25 25L25 26L27 26L27 24L28 24L28 27L27 27L27 29L28 29L28 27L29 27L29 23L27 23L27 19L28 19L28 22L29 22L29 19L28 19L28 17L29 17L29 16L28 16L28 15L29 15L29 13L27 13L27 14L28 14L28 15L27 15L27 16L28 16L28 17L26 17L26 18L27 18L27 19L25 19L25 18L24 18L24 17L25 17L25 16L26 16L26 15L25 15L25 16L24 16L24 15L23 15L23 13L22 13L22 15L23 15L23 19L22 19L22 18L21 18L21 19L20 19L20 22L19 22L19 20L18 20L18 19L19 19L19 18L17 18L17 17L19 17L19 16L17 16L17 17L14 17L14 16L16 16L16 15L17 15L17 14L18 14L18 15L20 15L20 14L18 14L18 13L16 13L16 12L15 12L15 10L16 10L16 11L18 11L18 10L20 10L20 11L19 11L19 13L20 13L20 12L22 12L22 11L21 11L21 9L22 9L22 10L25 10L25 11L24 11L24 12L25 12L25 11L26 11L26 10L27 10L27 12L29 12L29 11L28 11L28 10L27 10L27 8L24 8L24 9L22 9L22 8L21 8L21 5L20 5L20 4L21 4L21 2ZM10 5L10 6L9 6L9 7L10 7L10 6L11 6L11 7L12 7L12 5ZM19 6L19 8L18 8L18 9L17 9L17 10L18 10L18 9L19 9L19 8L20 8L20 9L21 9L21 8L20 8L20 6ZM28 8L28 9L29 9L29 8ZM2 9L2 12L3 12L3 13L4 13L4 12L5 12L5 10L4 10L4 12L3 12L3 9ZM6 11L6 12L7 12L7 11ZM12 12L12 14L13 14L13 16L12 16L12 17L11 17L11 18L12 18L12 17L13 17L13 16L14 16L14 14L15 14L15 15L16 15L16 13L14 13L14 12ZM13 13L13 14L14 14L14 13ZM25 13L25 14L26 14L26 13ZM3 15L3 16L5 16L5 15ZM6 15L6 16L7 16L7 15ZM20 16L20 17L22 17L22 16ZM5 17L5 19L6 19L6 18L7 18L7 17ZM0 18L0 19L1 19L1 18ZM13 18L13 20L12 20L12 21L11 21L11 22L12 22L12 21L13 21L13 23L14 23L14 22L15 22L15 23L16 23L16 22L15 22L15 21L18 21L18 20L16 20L16 19L15 19L15 18ZM14 19L14 21L15 21L15 19ZM21 19L21 20L22 20L22 19ZM23 19L23 20L25 20L25 19ZM1 20L1 21L2 21L2 20ZM21 21L21 24L24 24L24 21ZM22 22L22 23L23 23L23 22ZM25 22L25 25L26 25L26 24L27 24L27 23L26 23L26 22ZM16 25L16 27L15 27L15 28L13 28L13 27L12 27L12 29L16 29L16 28L17 28L17 29L22 29L22 28L21 28L21 27L19 27L19 25ZM17 26L17 28L19 28L19 27L18 27L18 26ZM0 0L0 7L7 7L7 0ZM1 1L1 6L6 6L6 1ZM2 2L2 5L5 5L5 2ZM22 0L22 7L29 7L29 0ZM23 1L23 6L28 6L28 1ZM24 2L24 5L27 5L27 2ZM0 22L0 29L7 29L7 22ZM1 23L1 28L6 28L6 23ZM2 24L2 27L5 27L5 24Z" fill="#282828"/></g></g></svg>
