<?xml version="1.0" encoding="UTF-8"?>
<svg xmlns="http://www.w3.org/2000/svg" version="1.1" width="90" height="90" viewBox="0 0 90 90"><rect x="0" y="0" width="90" height="90" fill="#ffffff"/><g transform="scale(2.903)"><g transform="translate(1,1)"><path fill-rule="evenodd" d="M9 0L9 1L11 1L11 2L9 2L9 3L8 3L8 5L9 5L9 6L8 6L8 7L9 7L9 9L10 9L10 10L9 10L9 11L8 11L8 10L6 10L6 9L8 9L8 8L5 8L5 9L4 9L4 10L3 10L3 9L2 9L2 8L0 8L0 13L1 13L1 14L2 14L2 15L1 15L1 16L3 16L3 17L4 17L4 18L3 18L3 20L2 20L2 21L4 21L4 20L5 20L5 19L8 19L8 20L6 20L6 21L8 21L8 24L10 24L10 25L9 25L9 26L10 26L10 27L11 27L11 29L13 29L13 28L12 28L12 27L14 27L14 28L15 28L15 29L17 29L17 28L15 28L15 27L16 27L16 25L18 25L18 26L19 26L19 27L20 27L20 28L19 28L19 29L20 29L20 28L22 28L22 29L24 29L24 27L25 27L25 28L27 28L27 27L28 27L28 28L29 28L29 27L28 27L28 26L29 26L29 25L28 25L28 24L29 24L29 23L28 23L28 20L29 20L29 15L28 15L28 14L29 14L29 11L28 11L28 13L27 13L27 12L26 12L26 11L27 11L27 10L29 10L29 9L27 9L27 10L26 10L26 8L24 8L24 9L22 9L22 10L21 10L21 11L23 11L23 10L24 10L24 13L23 13L23 12L21 12L21 13L20 13L20 11L19 11L19 9L17 9L17 10L18 10L18 12L17 12L17 11L16 11L16 10L15 10L15 12L16 12L16 14L15 14L15 15L16 15L16 16L15 16L15 17L14 17L14 16L13 16L13 15L12 15L12 17L14 17L14 19L15 19L15 21L17 21L17 19L18 19L18 18L17 18L17 17L16 17L16 16L17 16L17 15L18 15L18 14L19 14L19 13L20 13L20 16L19 16L19 17L20 17L20 18L19 18L19 19L20 19L20 18L21 18L21 19L23 19L23 18L25 18L25 19L24 19L24 20L20 20L20 23L19 23L19 21L18 21L18 22L17 22L17 23L18 23L18 24L14 24L14 26L10 26L10 25L13 25L13 23L12 23L12 24L10 24L10 23L11 23L11 21L12 21L12 22L14 22L14 20L13 20L13 21L12 21L12 19L13 19L13 18L12 18L12 19L10 19L10 20L9 20L9 18L10 18L10 17L7 17L7 16L9 16L9 15L10 15L10 16L11 16L11 12L12 12L12 11L13 11L13 10L11 10L11 8L10 8L10 7L11 7L11 4L12 4L12 5L13 5L13 6L12 6L12 9L16 9L16 8L17 8L17 6L18 6L18 7L19 7L19 5L20 5L20 8L21 8L21 5L20 5L20 4L21 4L21 3L20 3L20 4L18 4L18 5L17 5L17 3L15 3L15 2L14 2L14 3L15 3L15 4L12 4L12 2L13 2L13 1L12 1L12 0ZM14 0L14 1L16 1L16 0ZM17 0L17 1L18 1L18 0ZM19 0L19 1L20 1L20 0ZM18 2L18 3L19 3L19 2ZM9 3L9 5L10 5L10 3ZM15 5L15 8L16 8L16 6L17 6L17 5ZM9 6L9 7L10 7L10 6ZM13 6L13 8L14 8L14 6ZM1 9L1 10L2 10L2 11L1 11L1 13L2 13L2 14L3 14L3 15L4 15L4 16L5 16L5 17L6 17L6 18L7 18L7 17L6 17L6 16L7 16L7 15L4 15L4 14L5 14L5 13L4 13L4 11L6 11L6 12L7 12L7 11L6 11L6 10L4 10L4 11L3 11L3 10L2 10L2 9ZM10 10L10 11L9 11L9 12L10 12L10 11L11 11L11 10ZM2 11L2 12L3 12L3 11ZM18 12L18 13L19 13L19 12ZM6 13L6 14L7 14L7 13ZM12 13L12 14L13 14L13 13ZM21 13L21 14L22 14L22 15L21 15L21 16L20 16L20 17L22 17L22 18L23 18L23 17L24 17L24 16L22 16L22 15L23 15L23 14L22 14L22 13ZM26 13L26 14L25 14L25 15L27 15L27 16L28 16L28 15L27 15L27 13ZM8 14L8 15L9 15L9 14ZM0 17L0 21L1 21L1 19L2 19L2 18L1 18L1 17ZM15 17L15 18L16 18L16 19L17 19L17 18L16 18L16 17ZM25 17L25 18L26 18L26 19L25 19L25 23L26 23L26 24L27 24L27 22L26 22L26 20L28 20L28 19L27 19L27 17ZM8 20L8 21L9 21L9 20ZM10 20L10 21L11 21L11 20ZM21 21L21 24L24 24L24 21ZM9 22L9 23L10 23L10 22ZM15 22L15 23L16 23L16 22ZM22 22L22 23L23 23L23 22ZM18 24L18 25L19 25L19 26L21 26L21 25L19 25L19 24ZM22 25L22 28L23 28L23 25ZM25 25L25 27L26 27L26 25ZM27 25L27 26L28 26L28 25ZM8 27L8 29L10 29L10 28L9 28L9 27ZM0 0L0 7L7 7L7 0ZM1 1L1 6L6 6L6 1ZM2 2L2 5L5 5L5 2ZM22 0L22 7L29 7L29 0ZM23 1L23 6L28 6L28 1ZM24 2L24 5L27 5L27 2ZM0 22L0 29L7 29L7 22ZM1 23L1 28L6 28L6 23ZM2 24L2 27L5 27L5 24Z" fill="#282828"/></g></g></svg>
