<?xml version="1.0" encoding="UTF-8"?>
<svg xmlns="http://www.w3.org/2000/svg" version="1.1" width="90" height="90" viewBox="0 0 90 90"><rect x="0" y="0" width="90" height="90" fill="#ffffff"/><g transform="scale(2.903)"><g transform="translate(1,1)"><path fill-rule="evenodd" d="M10 0L10 1L9 1L9 2L8 2L8 3L9 3L9 5L10 5L10 7L11 7L11 8L12 8L12 9L11 9L11 10L10 10L10 9L9 9L9 6L8 6L8 8L4 8L4 9L7 9L7 10L2 10L2 11L1 11L1 10L0 10L0 11L1 11L1 12L0 12L0 13L1 13L1 15L2 15L2 14L3 14L3 13L4 13L4 17L2 17L2 16L0 16L0 17L1 17L1 18L0 18L0 19L1 19L1 20L0 20L0 21L1 21L1 20L2 20L2 19L1 19L1 18L3 18L3 19L5 19L5 20L3 20L3 21L5 21L5 20L6 20L6 21L8 21L8 25L9 25L9 24L12 24L12 25L10 25L10 26L8 26L8 29L9 29L9 27L10 27L10 26L11 26L11 27L12 27L12 28L11 28L11 29L12 29L12 28L14 28L14 29L16 29L16 28L19 28L19 29L21 29L21 28L22 28L22 29L23 29L23 28L22 28L22 27L21 27L21 26L22 26L22 25L23 25L23 27L27 27L27 29L29 29L29 28L28 28L28 27L29 27L29 17L28 17L28 19L27 19L27 20L28 20L28 25L27 25L27 24L26 24L26 26L25 26L25 22L26 22L26 23L27 23L27 22L26 22L26 21L25 21L25 20L26 20L26 19L25 19L25 20L24 20L24 18L23 18L23 16L25 16L25 18L26 18L26 16L25 16L25 12L24 12L24 10L25 10L25 11L26 11L26 10L27 10L27 12L26 12L26 13L27 13L27 12L28 12L28 11L29 11L29 10L27 10L27 8L26 8L26 10L25 10L25 9L23 9L23 8L21 8L21 9L19 9L19 10L18 10L18 9L17 9L17 10L16 10L16 11L15 11L15 10L14 10L14 9L13 9L13 8L12 8L12 7L13 7L13 5L14 5L14 7L15 7L15 9L16 9L16 7L17 7L17 8L19 8L19 6L20 6L20 7L21 7L21 5L19 5L19 4L20 4L20 3L19 3L19 2L21 2L21 0L18 0L18 1L17 1L17 2L18 2L18 3L17 3L17 4L16 4L16 5L14 5L14 3L12 3L12 2L11 2L11 3L12 3L12 5L10 5L10 3L9 3L9 2L10 2L10 1L11 1L11 0ZM14 0L14 1L13 1L13 2L14 2L14 1L15 1L15 0ZM18 1L18 2L19 2L19 1ZM15 2L15 3L16 3L16 2ZM16 5L16 6L15 6L15 7L16 7L16 6L17 6L17 7L18 7L18 6L17 6L17 5ZM11 6L11 7L12 7L12 6ZM0 8L0 9L3 9L3 8ZM8 10L8 11L10 11L10 10ZM13 10L13 11L14 11L14 10ZM17 10L17 11L16 11L16 13L15 13L15 14L14 14L14 12L12 12L12 11L11 11L11 12L12 12L12 14L11 14L11 15L10 15L10 12L7 12L7 11L6 11L6 12L7 12L7 13L5 13L5 11L2 11L2 12L4 12L4 13L5 13L5 15L6 15L6 16L5 16L5 19L6 19L6 20L7 20L7 19L6 19L6 18L7 18L7 17L8 17L8 19L9 19L9 18L10 18L10 17L12 17L12 16L13 16L13 17L14 17L14 18L13 18L13 19L14 19L14 18L15 18L15 19L16 19L16 20L15 20L15 22L14 22L14 20L12 20L12 19L11 19L11 20L8 20L8 21L9 21L9 22L11 22L11 23L12 23L12 24L13 24L13 25L14 25L14 26L13 26L13 27L14 27L14 26L15 26L15 28L16 28L16 27L19 27L19 28L21 28L21 27L19 27L19 25L20 25L20 26L21 26L21 25L20 25L20 22L19 22L19 20L20 20L20 19L21 19L21 20L23 20L23 19L21 19L21 18L19 18L19 17L21 17L21 16L19 16L19 15L21 15L21 14L17 14L17 13L21 13L21 11L22 11L22 12L23 12L23 14L22 14L22 16L23 16L23 15L24 15L24 12L23 12L23 10L19 10L19 12L17 12L17 11L18 11L18 10ZM28 13L28 15L27 15L27 14L26 14L26 15L27 15L27 16L28 16L28 15L29 15L29 13ZM6 14L6 15L9 15L9 16L8 16L8 17L10 17L10 15L9 15L9 14ZM13 14L13 15L14 15L14 14ZM16 14L16 15L17 15L17 16L18 16L18 15L17 15L17 14ZM11 15L11 16L12 16L12 15ZM6 16L6 17L7 17L7 16ZM17 17L17 18L18 18L18 19L17 19L17 20L16 20L16 23L15 23L15 24L16 24L16 23L17 23L17 24L18 24L18 22L17 22L17 20L19 20L19 18L18 18L18 17ZM11 20L11 22L12 22L12 20ZM21 21L21 24L24 24L24 21ZM13 22L13 23L14 23L14 22ZM22 22L22 23L23 23L23 22ZM16 25L16 26L18 26L18 25ZM27 26L27 27L28 27L28 26ZM0 0L0 7L7 7L7 0ZM1 1L1 6L6 6L6 1ZM2 2L2 5L5 5L5 2ZM22 0L22 7L29 7L29 0ZM23 1L23 6L28 6L28 1ZM24 2L24 5L27 5L27 2ZM0 22L0 29L7 29L7 22ZM1 23L1 28L6 28L6 23ZM2 24L2 27L5 27L5 24Z" fill="#282828"/></g></g></svg>
