<?xml version="1.0" encoding="UTF-8"?>
<svg xmlns="http://www.w3.org/2000/svg" version="1.1" width="90" height="90" viewBox="0 0 90 90"><rect x="0" y="0" width="90" height="90" fill="#ffffff"/><g transform="scale(2.903)"><g transform="translate(1,1)"><path fill-rule="evenodd" d="M8 0L8 1L9 1L9 2L8 2L8 5L9 5L9 4L12 4L12 3L11 3L11 2L13 2L13 4L14 4L14 5L13 5L13 6L12 6L12 7L11 7L11 5L10 5L10 10L8 10L8 9L9 9L9 8L8 8L8 9L7 9L7 8L6 8L6 9L7 9L7 10L6 10L6 11L4 11L4 8L0 8L0 9L1 9L1 10L2 10L2 11L1 11L1 12L0 12L0 13L3 13L3 12L2 12L2 11L4 11L4 12L6 12L6 13L7 13L7 14L5 14L5 13L4 13L4 15L3 15L3 14L1 14L1 15L3 15L3 18L4 18L4 19L3 19L3 20L1 20L1 21L3 21L3 20L4 20L4 19L7 19L7 20L5 20L5 21L7 21L7 20L8 20L8 22L11 22L11 24L9 24L9 25L8 25L8 29L10 29L10 28L11 28L11 29L12 29L12 28L13 28L13 29L14 29L14 28L13 28L13 25L15 25L15 26L16 26L16 24L17 24L17 23L16 23L16 24L14 24L14 23L13 23L13 22L12 22L12 21L13 21L13 20L12 20L12 19L14 19L14 21L15 21L15 22L17 22L17 20L18 20L18 21L19 21L19 20L20 20L20 22L19 22L19 23L18 23L18 24L19 24L19 23L20 23L20 25L19 25L19 26L18 26L18 25L17 25L17 26L18 26L18 27L20 27L20 28L17 28L17 27L15 27L15 28L16 28L16 29L23 29L23 28L24 28L24 29L25 29L25 28L26 28L26 29L28 29L28 27L29 27L29 25L28 25L28 24L26 24L26 23L27 23L27 22L26 22L26 21L27 21L27 19L28 19L28 22L29 22L29 19L28 19L28 17L29 17L29 16L28 16L28 15L29 15L29 11L28 11L28 10L27 10L27 8L24 8L24 9L22 9L22 8L21 8L21 4L19 4L19 6L18 6L18 7L17 7L17 6L16 6L16 7L17 7L17 8L15 8L15 6L14 6L14 5L15 5L15 4L16 4L16 5L17 5L17 4L16 4L16 3L17 3L17 0L15 0L15 1L16 1L16 3L15 3L15 2L13 2L13 1L14 1L14 0L12 0L12 1L9 1L9 0ZM18 0L18 1L19 1L19 0ZM20 0L20 2L18 2L18 3L20 3L20 2L21 2L21 0ZM14 3L14 4L15 4L15 3ZM8 6L8 7L9 7L9 6ZM13 6L13 7L12 7L12 8L14 8L14 6ZM19 6L19 7L18 7L18 8L17 8L17 9L18 9L18 8L20 8L20 9L21 9L21 8L20 8L20 6ZM28 8L28 9L29 9L29 8ZM2 9L2 10L3 10L3 9ZM13 9L13 10L12 10L12 12L11 12L11 13L8 13L8 12L9 12L9 11L8 11L8 10L7 10L7 11L6 11L6 12L7 12L7 13L8 13L8 14L7 14L7 15L6 15L6 16L5 16L5 17L4 17L4 18L7 18L7 19L8 19L8 16L9 16L9 15L10 15L10 14L11 14L11 16L12 16L12 17L13 17L13 18L18 18L18 17L15 17L15 16L14 16L14 15L16 15L16 16L19 16L19 19L20 19L20 20L23 20L23 17L24 17L24 18L26 18L26 19L27 19L27 18L26 18L26 17L28 17L28 16L27 16L27 15L28 15L28 14L27 14L27 10L26 10L26 11L25 11L25 10L21 10L21 11L20 11L20 10L18 10L18 11L17 11L17 10L15 10L15 11L17 11L17 13L18 13L18 14L16 14L16 13L15 13L15 14L14 14L14 13L13 13L13 10L14 10L14 9ZM18 11L18 12L19 12L19 11ZM21 11L21 12L20 12L20 13L19 13L19 14L18 14L18 15L20 15L20 18L21 18L21 19L22 19L22 18L21 18L21 15L22 15L22 14L23 14L23 13L22 13L22 14L21 14L21 15L20 15L20 13L21 13L21 12L23 12L23 11ZM24 11L24 12L25 12L25 11ZM25 13L25 14L24 14L24 17L25 17L25 16L26 16L26 15L25 15L25 14L26 14L26 13ZM8 14L8 15L9 15L9 14ZM12 14L12 16L13 16L13 17L14 17L14 16L13 16L13 15L14 15L14 14ZM0 16L0 17L1 17L1 18L0 18L0 19L1 19L1 18L2 18L2 16ZM6 16L6 17L7 17L7 16ZM9 17L9 18L10 18L10 19L9 19L9 21L10 21L10 20L11 20L11 21L12 21L12 20L11 20L11 19L12 19L12 18L11 18L11 17ZM15 19L15 20L16 20L16 19ZM21 21L21 24L24 24L24 21ZM22 22L22 23L23 23L23 22ZM12 24L12 25L13 25L13 24ZM25 24L25 26L24 26L24 25L22 25L22 26L24 26L24 27L25 27L25 26L26 26L26 28L27 28L27 27L28 27L28 26L26 26L26 24ZM10 25L10 26L9 26L9 27L11 27L11 28L12 28L12 26L11 26L11 25ZM20 26L20 27L21 27L21 26ZM22 27L22 28L23 28L23 27ZM0 0L0 7L7 7L7 0ZM1 1L1 6L6 6L6 1ZM2 2L2 5L5 5L5 2ZM22 0L22 7L29 7L29 0ZM23 1L23 6L28 6L28 1ZM24 2L24 5L27 5L27 2ZM0 22L0 29L7 29L7 22ZM1 23L1 28L6 28L6 23ZM2 24L2 27L5 27L5 24Z" fill="#282828"/></g></g></svg>
