<?xml version="1.0" encoding="UTF-8"?>
<svg xmlns="http://www.w3.org/2000/svg" version="1.1" width="90" height="90" viewBox="0 0 90 90"><rect x="0" y="0" width="90" height="90" fill="#ffffff"/><g transform="scale(3.333)"><g transform="translate(1,1)"><path fill-rule="evenodd" d="M10 0L10 1L9 1L9 2L8 2L8 3L9 3L9 5L10 5L10 7L11 7L11 8L12 8L12 9L11 9L11 10L10 10L10 9L9 9L9 6L8 6L8 8L4 8L4 9L3 9L3 8L0 8L0 9L1 9L1 11L2 11L2 13L1 13L1 14L0 14L0 15L1 15L1 16L0 16L0 17L1 17L1 16L4 16L4 17L8 17L8 21L9 21L9 22L8 22L8 25L9 25L9 23L10 23L10 24L11 24L11 25L12 25L12 23L13 23L13 25L15 25L15 24L16 24L16 25L20 25L20 24L18 24L18 23L17 23L17 22L16 22L16 21L19 21L19 23L21 23L21 22L22 22L22 23L23 23L23 24L22 24L22 25L25 25L25 24L24 24L24 23L25 23L25 22L24 22L24 23L23 23L23 22L22 22L22 21L21 21L21 20L22 20L22 19L21 19L21 18L22 18L22 16L20 16L20 15L21 15L21 14L19 14L19 12L21 12L21 11L22 11L22 10L23 10L23 12L22 12L22 13L23 13L23 12L24 12L24 11L25 11L25 10L23 10L23 8L22 8L22 10L20 10L20 11L18 11L18 10L19 10L19 8L17 8L17 9L16 9L16 10L17 10L17 11L18 11L18 12L16 12L16 11L14 11L14 10L15 10L15 9L14 9L14 10L13 10L13 8L15 8L15 6L16 6L16 7L17 7L17 5L16 5L16 4L17 4L17 1L16 1L16 2L15 2L15 4L13 4L13 3L14 3L14 2L13 2L13 3L12 3L12 2L11 2L11 3L12 3L12 5L10 5L10 3L9 3L9 2L10 2L10 1L11 1L11 0ZM14 0L14 1L15 1L15 0ZM14 5L14 6L13 6L13 7L12 7L12 6L11 6L11 7L12 7L12 8L13 8L13 7L14 7L14 6L15 6L15 5ZM5 9L5 10L7 10L7 9ZM8 9L8 11L5 11L5 12L4 12L4 10L3 10L3 13L4 13L4 14L1 14L1 15L4 15L4 16L7 16L7 15L6 15L6 14L8 14L8 12L9 12L9 14L10 14L10 15L8 15L8 17L10 17L10 21L11 21L11 20L12 20L12 19L11 19L11 17L12 17L12 16L13 16L13 15L14 15L14 18L13 18L13 19L14 19L14 18L15 18L15 21L16 21L16 18L15 18L15 17L16 17L16 16L19 16L19 15L17 15L17 14L18 14L18 13L17 13L17 14L16 14L16 13L15 13L15 12L14 12L14 13L15 13L15 15L14 15L14 14L13 14L13 12L12 12L12 11L11 11L11 12L12 12L12 14L10 14L10 12L9 12L9 11L10 11L10 10L9 10L9 9ZM6 12L6 13L7 13L7 12ZM24 13L24 15L23 15L23 14L22 14L22 15L23 15L23 16L24 16L24 19L23 19L23 20L24 20L24 19L25 19L25 13ZM10 15L10 16L12 16L12 15ZM17 17L17 20L20 20L20 17ZM18 18L18 19L19 19L19 18ZM12 21L12 22L11 22L11 23L12 23L12 22L13 22L13 21ZM15 22L15 23L14 23L14 24L15 24L15 23L16 23L16 22ZM0 0L0 7L7 7L7 0ZM1 1L1 6L6 6L6 1ZM2 2L2 5L5 5L5 2ZM18 0L18 7L25 7L25 0ZM19 1L19 6L24 6L24 1ZM20 2L20 5L23 5L23 2ZM0 18L0 25L7 25L7 18ZM1 19L1 24L6 24L6 19ZM2 20L2 23L5 23L5 20Z" fill="#282828"/></g></g></svg>
