<?xml version="1.0" encoding="UTF-8"?>
<svg xmlns="http://www.w3.org/2000/svg" version="1.1" width="90" height="90" viewBox="0 0 90 90"><rect x="0" y="0" width="90" height="90" fill="#ffffff"/><g transform="scale(2.903)"><g transform="translate(1,1)"><path fill-rule="evenodd" d="M8 0L8 4L9 4L9 5L8 5L8 7L9 7L9 6L10 6L10 9L11 9L11 8L12 8L12 9L13 9L13 10L15 10L15 11L14 11L14 12L13 12L13 11L12 11L12 12L11 12L11 13L10 13L10 14L6 14L6 13L9 13L9 12L10 12L10 11L11 11L11 10L8 10L8 9L7 9L7 8L4 8L4 9L5 9L5 10L6 10L6 11L7 11L7 10L8 10L8 12L6 12L6 13L5 13L5 15L4 15L4 12L5 12L5 11L4 11L4 10L3 10L3 12L2 12L2 14L3 14L3 15L4 15L4 16L5 16L5 15L9 15L9 16L8 16L8 17L7 17L7 16L6 16L6 17L5 17L5 18L4 18L4 17L3 17L3 16L2 16L2 15L1 15L1 14L0 14L0 15L1 15L1 16L0 16L0 18L1 18L1 17L3 17L3 18L2 18L2 19L3 19L3 18L4 18L4 20L3 20L3 21L4 21L4 20L5 20L5 21L7 21L7 20L5 20L5 19L7 19L7 18L8 18L8 17L10 17L10 19L11 19L11 16L12 16L12 17L13 17L13 18L15 18L15 19L14 19L14 20L13 20L13 19L12 19L12 20L10 20L10 21L9 21L9 19L8 19L8 22L10 22L10 23L11 23L11 24L12 24L12 25L13 25L13 26L15 26L15 27L14 27L14 28L13 28L13 27L12 27L12 28L11 28L11 26L10 26L10 25L9 25L9 23L8 23L8 25L9 25L9 26L10 26L10 29L12 29L12 28L13 28L13 29L17 29L17 28L19 28L19 27L18 27L18 26L19 26L19 25L18 25L18 26L17 26L17 24L18 24L18 22L19 22L19 23L20 23L20 25L21 25L21 27L22 27L22 25L25 25L25 29L26 29L26 26L27 26L27 29L28 29L28 28L29 28L29 25L28 25L28 26L27 26L27 24L26 24L26 23L25 23L25 22L27 22L27 23L29 23L29 21L26 21L26 20L24 20L24 19L23 19L23 20L20 20L20 21L19 21L19 18L17 18L17 19L16 19L16 17L17 17L17 16L20 16L20 17L22 17L22 18L25 18L25 17L26 17L26 16L25 16L25 15L26 15L26 14L25 14L25 13L27 13L27 15L28 15L28 17L27 17L27 18L26 18L26 19L27 19L27 20L28 20L28 19L29 19L29 13L27 13L27 12L29 12L29 10L28 10L28 9L29 9L29 8L25 8L25 9L24 9L24 8L23 8L23 9L22 9L22 10L21 10L21 12L19 12L19 11L16 11L16 9L17 9L17 8L18 8L18 7L19 7L19 10L20 10L20 9L21 9L21 5L20 5L20 4L19 4L19 2L20 2L20 3L21 3L21 2L20 2L20 0L19 0L19 2L17 2L17 3L16 3L16 4L19 4L19 6L18 6L18 7L17 7L17 6L16 6L16 7L15 7L15 6L14 6L14 7L13 7L13 6L12 6L12 7L11 7L11 3L10 3L10 2L9 2L9 0ZM13 0L13 1L11 1L11 2L12 2L12 5L13 5L13 2L14 2L14 3L15 3L15 2L16 2L16 1L17 1L17 0L16 0L16 1L15 1L15 0ZM19 6L19 7L20 7L20 6ZM12 7L12 8L13 8L13 7ZM14 7L14 9L16 9L16 8L15 8L15 7ZM0 8L0 10L1 10L1 11L2 11L2 10L1 10L1 9L2 9L2 8ZM6 9L6 10L7 10L7 9ZM23 9L23 10L24 10L24 9ZM25 9L25 10L27 10L27 11L26 11L26 12L27 12L27 11L28 11L28 10L27 10L27 9ZM23 11L23 12L22 12L22 14L23 14L23 15L22 15L22 17L25 17L25 16L23 16L23 15L25 15L25 14L23 14L23 13L25 13L25 12L24 12L24 11ZM0 12L0 13L1 13L1 12ZM12 12L12 13L11 13L11 14L10 14L10 16L11 16L11 14L12 14L12 13L13 13L13 14L15 14L15 13L13 13L13 12ZM17 12L17 13L16 13L16 14L18 14L18 13L19 13L19 15L20 15L20 13L19 13L19 12ZM12 15L12 16L13 16L13 15ZM14 15L14 17L16 17L16 15ZM6 17L6 18L7 18L7 17ZM20 18L20 19L21 19L21 18ZM0 20L0 21L2 21L2 20ZM12 20L12 21L10 21L10 22L12 22L12 21L13 21L13 22L15 22L15 21L17 21L17 22L18 22L18 21L17 21L17 20L15 20L15 21L13 21L13 20ZM21 21L21 24L24 24L24 21ZM22 22L22 23L23 23L23 22ZM12 23L12 24L13 24L13 23ZM14 23L14 25L16 25L16 24L15 24L15 23ZM16 26L16 27L15 27L15 28L17 28L17 26ZM8 27L8 29L9 29L9 27ZM23 27L23 29L24 29L24 27ZM21 28L21 29L22 29L22 28ZM0 0L0 7L7 7L7 0ZM1 1L1 6L6 6L6 1ZM2 2L2 5L5 5L5 2ZM22 0L22 7L29 7L29 0ZM23 1L23 6L28 6L28 1ZM24 2L24 5L27 5L27 2ZM0 22L0 29L7 29L7 22ZM1 23L1 28L6 28L6 23ZM2 24L2 27L5 27L5 24Z" fill="#282828"/></g></g></svg>
