<?xml version="1.0" encoding="UTF-8"?>
<svg xmlns="http://www.w3.org/2000/svg" version="1.1" width="90" height="90" viewBox="0 0 90 90"><rect x="0" y="0" width="90" height="90" fill="#ffffff"/><g transform="scale(2.903)"><g transform="translate(1,1)"><path fill-rule="evenodd" d="M9 0L9 1L8 1L8 2L9 2L9 3L8 3L8 4L10 4L10 7L11 7L11 4L12 4L12 5L13 5L13 6L12 6L12 9L13 9L13 8L14 8L14 9L15 9L15 10L17 10L17 11L16 11L16 12L17 12L17 11L18 11L18 10L19 10L19 9L16 9L16 7L17 7L17 6L18 6L18 7L19 7L19 8L20 8L20 10L21 10L21 11L22 11L22 12L23 12L23 11L22 11L22 10L25 10L25 11L24 11L24 12L26 12L26 11L27 11L27 9L28 9L28 8L27 8L27 9L26 9L26 8L25 8L25 9L24 9L24 8L23 8L23 9L22 9L22 8L20 8L20 7L21 7L21 4L20 4L20 3L21 3L21 0L20 0L20 2L18 2L18 1L19 1L19 0L15 0L15 1L17 1L17 2L16 2L16 4L12 4L12 2L13 2L13 1L11 1L11 2L10 2L10 0ZM14 2L14 3L15 3L15 2ZM17 2L17 4L16 4L16 5L18 5L18 6L19 6L19 7L20 7L20 4L19 4L19 3L18 3L18 2ZM10 3L10 4L11 4L11 3ZM18 4L18 5L19 5L19 4ZM8 5L8 7L9 7L9 5ZM13 6L13 7L14 7L14 8L15 8L15 7L16 7L16 6L15 6L15 7L14 7L14 6ZM0 8L0 16L1 16L1 17L0 17L0 21L1 21L1 17L2 17L2 19L3 19L3 21L5 21L5 20L6 20L6 21L7 21L7 20L6 20L6 19L10 19L10 18L11 18L11 21L12 21L12 22L13 22L13 23L12 23L12 25L13 25L13 24L14 24L14 25L18 25L18 24L14 24L14 23L16 23L16 22L15 22L15 21L12 21L12 19L13 19L13 18L11 18L11 15L10 15L10 17L9 17L9 16L8 16L8 15L9 15L9 13L10 13L10 14L11 14L11 13L12 13L12 14L13 14L13 15L12 15L12 17L13 17L13 16L14 16L14 17L17 17L17 16L16 16L16 15L17 15L17 14L16 14L16 13L12 13L12 11L13 11L13 10L11 10L11 11L10 11L10 9L11 9L11 8L6 8L6 9L5 9L5 8ZM1 9L1 10L2 10L2 9ZM3 9L3 11L6 11L6 12L4 12L4 18L5 18L5 19L6 19L6 18L7 18L7 17L8 17L8 18L9 18L9 17L8 17L8 16L7 16L7 15L8 15L8 13L9 13L9 12L7 12L7 11L6 11L6 10L8 10L8 11L9 11L9 9L6 9L6 10L4 10L4 9ZM14 11L14 12L15 12L15 11ZM2 12L2 13L1 13L1 16L2 16L2 17L3 17L3 16L2 16L2 15L3 15L3 12ZM6 12L6 13L7 13L7 12ZM10 12L10 13L11 13L11 12ZM27 12L27 13L25 13L25 15L24 15L24 14L23 14L23 13L21 13L21 14L20 14L20 13L19 13L19 14L20 14L20 15L21 15L21 14L23 14L23 15L24 15L24 17L22 17L22 16L21 16L21 17L18 17L18 19L19 19L19 18L20 18L20 19L21 19L21 20L19 20L19 21L20 21L20 22L19 22L19 23L20 23L20 24L19 24L19 26L18 26L18 28L17 28L17 29L18 29L18 28L19 28L19 29L22 29L22 28L23 28L23 29L25 29L25 28L26 28L26 27L25 27L25 26L24 26L24 25L25 25L25 23L26 23L26 21L28 21L28 22L27 22L27 23L28 23L28 22L29 22L29 21L28 21L28 20L29 20L29 19L28 19L28 18L29 18L29 16L26 16L26 14L27 14L27 15L28 15L28 14L29 14L29 13L28 13L28 12ZM27 13L27 14L28 14L28 13ZM6 14L6 15L5 15L5 17L7 17L7 16L6 16L6 15L7 15L7 14ZM14 15L14 16L15 16L15 15ZM25 16L25 17L24 17L24 18L22 18L22 20L24 20L24 19L25 19L25 17L26 17L26 16ZM27 17L27 18L26 18L26 20L25 20L25 21L26 21L26 20L27 20L27 18L28 18L28 17ZM15 18L15 19L14 19L14 20L16 20L16 21L17 21L17 23L18 23L18 21L17 21L17 20L16 20L16 19L17 19L17 18ZM9 20L9 21L8 21L8 23L9 23L9 22L10 22L10 26L9 26L9 24L8 24L8 29L9 29L9 27L10 27L10 29L12 29L12 27L13 27L13 26L11 26L11 22L10 22L10 20ZM21 21L21 24L24 24L24 21ZM22 22L22 23L23 23L23 22ZM26 24L26 25L27 25L27 28L28 28L28 26L29 26L29 25L28 25L28 24ZM21 25L21 26L19 26L19 28L22 28L22 27L23 27L23 25ZM15 26L15 27L14 27L14 28L15 28L15 29L16 29L16 27L17 27L17 26ZM21 26L21 27L22 27L22 26ZM24 27L24 28L25 28L25 27ZM0 0L0 7L7 7L7 0ZM1 1L1 6L6 6L6 1ZM2 2L2 5L5 5L5 2ZM22 0L22 7L29 7L29 0ZM23 1L23 6L28 6L28 1ZM24 2L24 5L27 5L27 2ZM0 22L0 29L7 29L7 22ZM1 23L1 28L6 28L6 23ZM2 24L2 27L5 27L5 24Z" fill="#282828"/></g></g></svg>
