<?xml version="1.0" encoding="UTF-8"?>
<svg xmlns="http://www.w3.org/2000/svg" version="1.1" width="90" height="90" viewBox="0 0 90 90"><rect x="0" y="0" width="90" height="90" fill="#ffffff"/><g transform="scale(2.903)"><g transform="translate(1,1)"><path fill-rule="evenodd" d="M10 0L10 2L11 2L11 0ZM12 0L12 1L13 1L13 2L12 2L12 4L13 4L13 3L14 3L14 4L15 4L15 5L17 5L17 6L16 6L16 8L17 8L17 10L18 10L18 11L19 11L19 10L20 10L20 11L21 11L21 12L23 12L23 11L24 11L24 12L26 12L26 11L27 11L27 13L28 13L28 14L27 14L27 15L28 15L28 14L29 14L29 13L28 13L28 12L29 12L29 11L27 11L27 9L28 9L28 8L27 8L27 9L26 9L26 8L25 8L25 9L24 9L24 8L23 8L23 9L22 9L22 8L21 8L21 6L20 6L20 8L19 8L19 5L21 5L21 4L20 4L20 3L21 3L21 2L20 2L20 3L19 3L19 5L17 5L17 4L18 4L18 3L17 3L17 4L16 4L16 2L17 2L17 1L16 1L16 0ZM18 0L18 2L19 2L19 1L21 1L21 0ZM8 1L8 2L9 2L9 1ZM14 2L14 3L15 3L15 2ZM8 3L8 4L9 4L9 5L8 5L8 7L9 7L9 8L6 8L6 9L5 9L5 8L0 8L0 10L2 10L2 11L0 11L0 12L2 12L2 14L1 14L1 16L0 16L0 21L1 21L1 18L3 18L3 19L2 19L2 21L3 21L3 19L4 19L4 16L3 16L3 17L2 17L2 15L5 15L5 17L7 17L7 16L6 16L6 15L7 15L7 14L6 14L6 13L7 13L7 12L6 12L6 11L8 11L8 15L9 15L9 17L8 17L8 18L9 18L9 19L10 19L10 20L11 20L11 19L10 19L10 17L12 17L12 18L13 18L13 19L12 19L12 21L13 21L13 20L14 20L14 21L17 21L17 22L15 22L15 23L14 23L14 24L15 24L15 25L12 25L12 23L13 23L13 22L11 22L11 21L8 21L8 20L6 20L6 19L7 19L7 18L6 18L6 19L5 19L5 21L8 21L8 23L9 23L9 24L8 24L8 29L11 29L11 28L9 28L9 26L10 26L10 27L11 27L11 26L10 26L10 25L9 25L9 24L11 24L11 25L12 25L12 26L13 26L13 27L12 27L12 29L13 29L13 28L14 28L14 29L18 29L18 28L16 28L16 26L17 26L17 27L18 27L18 25L16 25L16 23L18 23L18 24L19 24L19 23L20 23L20 26L19 26L19 27L20 27L20 28L21 28L21 29L22 29L22 28L26 28L26 29L27 29L27 28L28 28L28 26L29 26L29 25L28 25L28 24L29 24L29 23L28 23L28 22L29 22L29 21L28 21L28 20L29 20L29 19L28 19L28 18L29 18L29 16L26 16L26 15L25 15L25 14L26 14L26 13L22 13L22 14L21 14L21 13L20 13L20 12L14 12L14 11L16 11L16 9L12 9L12 7L13 7L13 5L11 5L11 6L10 6L10 4L11 4L11 3ZM9 6L9 7L10 7L10 6ZM11 6L11 7L12 7L12 6ZM14 6L14 8L15 8L15 6ZM17 6L17 8L18 8L18 10L19 10L19 8L18 8L18 6ZM10 8L10 9L9 9L9 10L8 10L8 11L9 11L9 12L11 12L11 13L9 13L9 14L10 14L10 16L11 16L11 14L13 14L13 15L12 15L12 17L15 17L15 18L16 18L16 19L14 19L14 20L18 20L18 19L19 19L19 22L18 22L18 23L19 23L19 22L20 22L20 20L21 20L21 18L20 18L20 17L21 17L21 16L22 16L22 17L25 17L25 19L24 19L24 18L22 18L22 20L23 20L23 19L24 19L24 20L25 20L25 23L26 23L26 24L25 24L25 25L21 25L21 26L22 26L22 27L21 27L21 28L22 28L22 27L23 27L23 26L25 26L25 27L26 27L26 28L27 28L27 26L26 26L26 25L27 25L27 22L28 22L28 21L26 21L26 20L27 20L27 19L26 19L26 18L28 18L28 17L25 17L25 15L24 15L24 14L23 14L23 15L21 15L21 14L19 14L19 16L18 16L18 13L14 13L14 12L13 12L13 13L12 13L12 11L13 11L13 10L12 10L12 9L11 9L11 8ZM20 8L20 9L21 9L21 10L22 10L22 11L23 11L23 10L22 10L22 9L21 9L21 8ZM3 9L3 10L5 10L5 9ZM6 9L6 10L7 10L7 9ZM10 9L10 11L11 11L11 9ZM4 11L4 12L5 12L5 11ZM15 14L15 15L14 15L14 16L16 16L16 17L17 17L17 18L19 18L19 17L20 17L20 16L19 16L19 17L17 17L17 16L16 16L16 15L17 15L17 14ZM23 15L23 16L24 16L24 15ZM21 21L21 24L24 24L24 21ZM9 22L9 23L10 23L10 22ZM22 22L22 23L23 23L23 22ZM15 25L15 26L16 26L16 25ZM14 27L14 28L15 28L15 27ZM0 0L0 7L7 7L7 0ZM1 1L1 6L6 6L6 1ZM2 2L2 5L5 5L5 2ZM22 0L22 7L29 7L29 0ZM23 1L23 6L28 6L28 1ZM24 2L24 5L27 5L27 2ZM0 22L0 29L7 29L7 22ZM1 23L1 28L6 28L6 23ZM2 24L2 27L5 27L5 24Z" fill="#282828"/></g></g></svg>
