<?xml version="1.0" encoding="UTF-8"?>
<svg xmlns="http://www.w3.org/2000/svg" version="1.1" width="90" height="90" viewBox="0 0 90 90"><rect x="0" y="0" width="90" height="90" fill="#ffffff"/><g transform="scale(2.903)"><g transform="translate(1,1)"><path fill-rule="evenodd" d="M8 0L8 4L10 4L10 3L11 3L11 4L12 4L12 2L11 2L11 0ZM12 0L12 1L13 1L13 2L14 2L14 3L13 3L13 5L11 5L11 6L10 6L10 7L9 7L9 5L8 5L8 7L9 7L9 8L10 8L10 7L11 7L11 6L12 6L12 8L11 8L11 9L9 9L9 10L8 10L8 9L7 9L7 8L4 8L4 9L2 9L2 8L0 8L0 10L1 10L1 11L3 11L3 12L0 12L0 13L1 13L1 14L0 14L0 15L1 15L1 16L2 16L2 17L0 17L0 18L2 18L2 20L0 20L0 21L2 21L2 20L3 20L3 21L4 21L4 20L5 20L5 21L7 21L7 20L8 20L8 22L9 22L9 23L8 23L8 25L9 25L9 27L8 27L8 29L9 29L9 28L12 28L12 29L14 29L14 27L16 27L16 26L17 26L17 29L19 29L19 27L20 27L20 29L23 29L23 27L22 27L22 25L28 25L28 26L27 26L27 29L28 29L28 28L29 28L29 25L28 25L28 23L29 23L29 21L26 21L26 20L25 20L25 18L26 18L26 19L27 19L27 20L28 20L28 19L29 19L29 13L27 13L27 12L26 12L26 11L27 11L27 10L28 10L28 11L29 11L29 10L28 10L28 9L29 9L29 8L25 8L25 9L24 9L24 8L23 8L23 9L22 9L22 10L20 10L20 9L21 9L21 8L20 8L20 7L21 7L21 6L20 6L20 3L21 3L21 2L20 2L20 0L19 0L19 2L16 2L16 3L15 3L15 1L16 1L16 0L15 0L15 1L13 1L13 0ZM9 2L9 3L10 3L10 2ZM14 3L14 5L13 5L13 8L12 8L12 9L11 9L11 10L9 10L9 12L7 12L7 11L8 11L8 10L7 10L7 9L6 9L6 10L7 10L7 11L6 11L6 12L5 12L5 11L4 11L4 10L3 10L3 11L4 11L4 12L3 12L3 13L2 13L2 14L1 14L1 15L3 15L3 16L7 16L7 15L6 15L6 14L7 14L7 13L9 13L9 14L10 14L10 15L8 15L8 17L9 17L9 18L8 18L8 20L9 20L9 21L10 21L10 22L11 22L11 24L12 24L12 25L10 25L10 24L9 24L9 25L10 25L10 27L11 27L11 26L12 26L12 25L13 25L13 26L16 26L16 25L17 25L17 26L18 26L18 27L19 27L19 26L20 26L20 27L21 27L21 28L22 28L22 27L21 27L21 26L20 26L20 25L19 25L19 24L20 24L20 23L19 23L19 20L21 20L21 19L22 19L22 20L23 20L23 19L24 19L24 18L22 18L22 17L28 17L28 15L27 15L27 14L26 14L26 13L25 13L25 12L24 12L24 11L25 11L25 10L27 10L27 9L25 9L25 10L24 10L24 9L23 9L23 10L24 10L24 11L23 11L23 12L22 12L22 13L20 13L20 14L19 14L19 17L20 17L20 18L18 18L18 17L17 17L17 18L18 18L18 20L16 20L16 21L15 21L15 19L14 19L14 21L15 21L15 22L13 22L13 21L12 21L12 20L13 20L13 19L12 19L12 20L11 20L11 19L10 19L10 18L12 18L12 17L13 17L13 18L16 18L16 17L13 17L13 16L14 16L14 15L15 15L15 16L17 16L17 15L18 15L18 14L16 14L16 15L15 15L15 14L13 14L13 13L12 13L12 12L13 12L13 11L12 11L12 12L11 12L11 13L10 13L10 11L11 11L11 10L12 10L12 9L13 9L13 10L14 10L14 9L13 9L13 8L14 8L14 5L15 5L15 7L16 7L16 5L17 5L17 7L18 7L18 6L19 6L19 7L20 7L20 6L19 6L19 5L17 5L17 3L16 3L16 5L15 5L15 3ZM15 8L15 9L17 9L17 10L18 10L18 12L17 12L17 13L19 13L19 12L21 12L21 11L20 11L20 10L19 10L19 9L20 9L20 8ZM1 9L1 10L2 10L2 9ZM14 11L14 13L16 13L16 12L15 12L15 11ZM6 12L6 13L5 13L5 14L4 14L4 15L5 15L5 14L6 14L6 13L7 13L7 12ZM23 13L23 14L20 14L20 17L22 17L22 16L24 16L24 15L23 15L23 14L25 14L25 13ZM12 15L12 16L11 16L11 17L12 17L12 16L13 16L13 15ZM21 15L21 16L22 16L22 15ZM25 15L25 16L26 16L26 15ZM9 16L9 17L10 17L10 16ZM3 17L3 20L4 20L4 19L5 19L5 20L7 20L7 19L6 19L6 18L7 18L7 17L6 17L6 18L5 18L5 17ZM10 20L10 21L11 21L11 20ZM16 21L16 22L15 22L15 23L14 23L14 24L13 24L13 23L12 23L12 24L13 24L13 25L15 25L15 24L19 24L19 23L16 23L16 22L17 22L17 21ZM21 21L21 24L24 24L24 21ZM22 22L22 23L23 23L23 22ZM25 22L25 23L26 23L26 24L27 24L27 22ZM18 25L18 26L19 26L19 25ZM25 26L25 29L26 29L26 26ZM12 27L12 28L13 28L13 27ZM0 0L0 7L7 7L7 0ZM1 1L1 6L6 6L6 1ZM2 2L2 5L5 5L5 2ZM22 0L22 7L29 7L29 0ZM23 1L23 6L28 6L28 1ZM24 2L24 5L27 5L27 2ZM0 22L0 29L7 29L7 22ZM1 23L1 28L6 28L6 23ZM2 24L2 27L5 27L5 24Z" fill="#282828"/></g></g></svg>
