<?xml version="1.0" encoding="UTF-8"?>
<svg xmlns="http://www.w3.org/2000/svg" version="1.1" width="90" height="90" viewBox="0 0 90 90"><rect x="0" y="0" width="90" height="90" fill="#ffffff"/><g transform="scale(3.333)"><g transform="translate(1,1)"><path fill-rule="evenodd" d="M9 0L9 1L8 1L8 2L9 2L9 3L8 3L8 4L10 4L10 2L11 2L11 1L14 1L14 0ZM16 0L16 1L15 1L15 2L14 2L14 3L13 3L13 2L12 2L12 3L11 3L11 5L10 5L10 7L11 7L11 8L6 8L6 9L5 9L5 8L0 8L0 10L1 10L1 11L0 11L0 12L1 12L1 13L0 13L0 17L1 17L1 14L2 14L2 17L3 17L3 16L4 16L4 15L5 15L5 16L6 16L6 17L8 17L8 19L11 19L11 21L12 21L12 19L11 19L11 18L12 18L12 17L10 17L10 18L9 18L9 17L8 17L8 16L9 16L9 15L10 15L10 16L11 16L11 14L12 14L12 16L13 16L13 18L14 18L14 19L15 19L15 18L14 18L14 17L15 17L15 16L16 16L16 20L13 20L13 22L14 22L14 23L15 23L15 24L12 24L12 25L15 25L15 24L17 24L17 25L20 25L20 23L19 23L19 24L18 24L18 23L15 23L15 22L14 22L14 21L17 21L17 22L19 22L19 21L20 21L20 22L21 22L21 21L22 21L22 22L24 22L24 24L21 24L21 25L25 25L25 21L24 21L24 20L21 20L21 17L22 17L22 18L24 18L24 19L25 19L25 18L24 18L24 17L25 17L25 16L24 16L24 17L22 17L22 16L19 16L19 15L17 15L17 13L19 13L19 14L20 14L20 13L19 13L19 12L20 12L20 11L22 11L22 10L20 10L20 8L19 8L19 10L18 10L18 8L17 8L17 10L15 10L15 12L13 12L13 11L12 11L12 13L10 13L10 12L11 12L11 11L10 11L10 9L11 9L11 10L14 10L14 9L16 9L16 7L17 7L17 6L16 6L16 5L17 5L17 4L16 4L16 5L15 5L15 6L14 6L14 5L13 5L13 4L15 4L15 3L17 3L17 0ZM12 3L12 4L13 4L13 3ZM8 5L8 7L9 7L9 5ZM11 5L11 7L12 7L12 5ZM13 6L13 8L11 8L11 9L13 9L13 8L14 8L14 6ZM15 6L15 7L16 7L16 6ZM21 8L21 9L22 9L22 8ZM23 8L23 10L24 10L24 11L23 11L23 12L25 12L25 10L24 10L24 8ZM2 9L2 12L4 12L4 13L3 13L3 14L4 14L4 13L6 13L6 14L5 14L5 15L6 15L6 16L8 16L8 14L10 14L10 13L6 13L6 12L9 12L9 10L8 10L8 9L6 9L6 10L5 10L5 9L4 9L4 10L5 10L5 11L3 11L3 9ZM6 10L6 11L8 11L8 10ZM16 11L16 13L12 13L12 14L13 14L13 16L14 16L14 14L16 14L16 13L17 13L17 11ZM22 13L22 15L23 15L23 14L24 14L24 15L25 15L25 14L24 14L24 13ZM6 14L6 15L7 15L7 14ZM16 15L16 16L17 16L17 15ZM17 17L17 20L20 20L20 17ZM18 18L18 19L19 19L19 18ZM8 20L8 25L10 25L10 24L11 24L11 23L10 23L10 22L9 22L9 20ZM9 23L9 24L10 24L10 23ZM0 0L0 7L7 7L7 0ZM1 1L1 6L6 6L6 1ZM2 2L2 5L5 5L5 2ZM18 0L18 7L25 7L25 0ZM19 1L19 6L24 6L24 1ZM20 2L20 5L23 5L23 2ZM0 18L0 25L7 25L7 18ZM1 19L1 24L6 24L6 19ZM2 20L2 23L5 23L5 20Z" fill="#282828"/></g></g></svg>
