<?xml version="1.0" encoding="UTF-8"?>
<svg xmlns="http://www.w3.org/2000/svg" version="1.1" width="90" height="90" viewBox="0 0 90 90"><rect x="0" y="0" width="90" height="90" fill="#ffffff"/><g transform="scale(3.333)"><g transform="translate(1,1)"><path fill-rule="evenodd" d="M8 0L8 4L9 4L9 5L8 5L8 7L9 7L9 9L7 9L7 8L4 8L4 9L3 9L3 10L1 10L1 9L2 9L2 8L0 8L0 10L1 10L1 11L0 11L0 14L2 14L2 16L0 16L0 17L2 17L2 16L3 16L3 17L8 17L8 18L9 18L9 19L8 19L8 21L9 21L9 22L10 22L10 23L8 23L8 25L9 25L9 24L10 24L10 25L11 25L11 24L12 24L12 25L14 25L14 24L13 24L13 23L14 23L14 22L15 22L15 25L16 25L16 24L17 24L17 25L21 25L21 24L22 24L22 25L25 25L25 24L24 24L24 22L23 22L23 23L22 23L22 22L21 22L21 21L23 21L23 20L24 20L24 21L25 21L25 20L24 20L24 17L25 17L25 15L24 15L24 13L22 13L22 12L23 12L23 11L24 11L24 9L25 9L25 8L21 8L21 9L20 9L20 8L19 8L19 9L18 9L18 10L17 10L17 9L16 9L16 8L17 8L17 6L16 6L16 7L15 7L15 6L14 6L14 5L16 5L16 4L17 4L17 2L14 2L14 1L15 1L15 0L10 0L10 1L9 1L9 0ZM16 0L16 1L17 1L17 0ZM10 1L10 2L12 2L12 5L9 5L9 7L10 7L10 9L9 9L9 10L8 10L8 11L4 11L4 13L5 13L5 12L8 12L8 11L9 11L9 10L10 10L10 12L9 12L9 13L10 13L10 15L11 15L11 14L12 14L12 16L14 16L14 17L15 17L15 18L13 18L13 17L9 17L9 16L8 16L8 17L9 17L9 18L12 18L12 19L13 19L13 20L11 20L11 19L9 19L9 20L10 20L10 22L13 22L13 20L14 20L14 21L15 21L15 22L16 22L16 19L15 19L15 18L16 18L16 16L18 16L18 15L19 15L19 14L20 14L20 16L21 16L21 17L22 17L22 18L23 18L23 17L24 17L24 16L22 16L22 15L23 15L23 14L20 14L20 13L19 13L19 14L18 14L18 15L17 15L17 14L16 14L16 12L19 12L19 11L21 11L21 12L22 12L22 10L23 10L23 9L22 9L22 10L20 10L20 9L19 9L19 11L16 11L16 12L14 12L14 11L15 11L15 10L16 10L16 9L15 9L15 7L14 7L14 6L13 6L13 7L12 7L12 5L14 5L14 2L13 2L13 1ZM9 3L9 4L10 4L10 3ZM10 6L10 7L11 7L11 8L12 8L12 7L11 7L11 6ZM13 8L13 9L14 9L14 10L15 10L15 9L14 9L14 8ZM4 9L4 10L5 10L5 9ZM6 9L6 10L7 10L7 9ZM10 9L10 10L11 10L11 11L12 11L12 12L11 12L11 13L12 13L12 12L13 12L13 15L14 15L14 16L16 16L16 14L15 14L15 15L14 15L14 12L13 12L13 10L12 10L12 9ZM2 11L2 12L3 12L3 11ZM2 13L2 14L3 14L3 15L4 15L4 16L7 16L7 15L4 15L4 14L3 14L3 13ZM6 13L6 14L8 14L8 13ZM17 17L17 20L20 20L20 17ZM18 18L18 19L19 19L19 18ZM14 19L14 20L15 20L15 19ZM21 19L21 20L22 20L22 19ZM18 22L18 24L21 24L21 22L20 22L20 23L19 23L19 22ZM10 23L10 24L11 24L11 23ZM0 0L0 7L7 7L7 0ZM1 1L1 6L6 6L6 1ZM2 2L2 5L5 5L5 2ZM18 0L18 7L25 7L25 0ZM19 1L19 6L24 6L24 1ZM20 2L20 5L23 5L23 2ZM0 18L0 25L7 25L7 18ZM1 19L1 24L6 24L6 19ZM2 20L2 23L5 23L5 20Z" fill="#282828"/></g></g></svg>
