<?xml version="1.0" encoding="UTF-8"?>
<svg xmlns="http://www.w3.org/2000/svg" version="1.1" width="90" height="90" viewBox="0 0 90 90"><rect x="0" y="0" width="90" height="90" fill="#ffffff"/><g transform="scale(2.903)"><g transform="translate(1,1)"><path fill-rule="evenodd" d="M8 0L8 4L9 4L9 5L8 5L8 7L9 7L9 6L10 6L10 9L11 9L11 8L12 8L12 9L13 9L13 10L14 10L14 9L13 9L13 8L12 8L12 7L13 7L13 6L12 6L12 7L11 7L11 3L10 3L10 2L9 2L9 0ZM14 0L14 1L11 1L11 2L12 2L12 5L13 5L13 2L14 2L14 4L16 4L16 10L15 10L15 12L19 12L19 13L16 13L16 14L15 14L15 13L12 13L12 12L13 12L13 11L12 11L12 12L11 12L11 13L10 13L10 14L9 14L9 12L10 12L10 11L11 11L11 10L9 10L9 9L7 9L7 8L4 8L4 9L2 9L2 8L0 8L0 10L1 10L1 11L0 11L0 14L1 14L1 15L0 15L0 18L2 18L2 17L3 17L3 16L4 16L4 17L5 17L5 18L6 18L6 19L7 19L7 20L6 20L6 21L7 21L7 20L9 20L9 21L8 21L8 22L9 22L9 23L8 23L8 25L9 25L9 24L10 24L10 23L11 23L11 24L12 24L12 25L13 25L13 27L12 27L12 28L11 28L11 26L9 26L9 27L8 27L8 29L15 29L15 28L17 28L17 29L19 29L19 28L20 28L20 29L21 29L21 28L23 28L23 29L28 29L28 28L29 28L29 24L28 24L28 26L27 26L27 24L26 24L26 23L25 23L25 22L27 22L27 23L29 23L29 21L26 21L26 20L25 20L25 19L24 19L24 18L26 18L26 19L27 19L27 20L28 20L28 19L29 19L29 13L28 13L28 11L29 11L29 10L28 10L28 9L29 9L29 8L25 8L25 9L24 9L24 8L23 8L23 10L21 10L21 11L22 11L22 12L19 12L19 10L20 10L20 9L21 9L21 5L20 5L20 4L19 4L19 3L18 3L18 2L20 2L20 3L21 3L21 1L20 1L20 0L16 0L16 3L15 3L15 0ZM16 3L16 4L17 4L17 7L18 7L18 6L19 6L19 7L20 7L20 6L19 6L19 5L18 5L18 4L17 4L17 3ZM14 6L14 8L15 8L15 6ZM17 8L17 10L16 10L16 11L17 11L17 10L19 10L19 9L20 9L20 8ZM4 9L4 10L5 10L5 11L4 11L4 12L3 12L3 10L2 10L2 13L3 13L3 15L2 15L2 16L3 16L3 15L4 15L4 16L5 16L5 17L6 17L6 18L7 18L7 19L8 19L8 18L9 18L9 20L12 20L12 21L10 21L10 22L12 22L12 21L13 21L13 23L12 23L12 24L13 24L13 25L14 25L14 26L16 26L16 25L17 25L17 26L18 26L18 27L20 27L20 28L21 28L21 26L22 26L22 27L23 27L23 28L25 28L25 27L26 27L26 28L27 28L27 26L26 26L26 25L25 25L25 26L24 26L24 25L20 25L20 26L18 26L18 25L19 25L19 24L16 24L16 23L17 23L17 22L19 22L19 23L20 23L20 22L19 22L19 21L20 21L20 20L17 20L17 19L18 19L18 18L16 18L16 17L20 17L20 18L19 18L19 19L20 19L20 18L21 18L21 15L22 15L22 19L21 19L21 20L22 20L22 19L23 19L23 20L24 20L24 19L23 19L23 13L24 13L24 12L22 12L22 13L21 13L21 15L20 15L20 13L19 13L19 14L16 14L16 17L14 17L14 15L15 15L15 14L13 14L13 15L12 15L12 16L11 16L11 14L12 14L12 13L11 13L11 14L10 14L10 15L9 15L9 14L8 14L8 13L5 13L5 11L6 11L6 12L8 12L8 11L9 11L9 10L7 10L7 9ZM25 9L25 10L24 10L24 11L25 11L25 10L27 10L27 11L26 11L26 12L27 12L27 11L28 11L28 10L27 10L27 9ZM6 10L6 11L7 11L7 10ZM4 13L4 15L5 15L5 16L6 16L6 17L7 17L7 18L8 18L8 17L9 17L9 15L8 15L8 14L5 14L5 13ZM25 13L25 14L24 14L24 16L25 16L25 17L28 17L28 15L27 15L27 14L26 14L26 13ZM6 15L6 16L7 16L7 17L8 17L8 16L7 16L7 15ZM17 15L17 16L19 16L19 15ZM25 15L25 16L26 16L26 15ZM10 16L10 18L11 18L11 16ZM12 16L12 17L13 17L13 19L12 19L12 20L13 20L13 19L14 19L14 17L13 17L13 16ZM15 18L15 20L14 20L14 21L15 21L15 20L16 20L16 18ZM2 19L2 20L0 20L0 21L3 21L3 19ZM4 19L4 21L5 21L5 19ZM16 21L16 22L15 22L15 23L14 23L14 25L16 25L16 24L15 24L15 23L16 23L16 22L17 22L17 21ZM21 21L21 24L24 24L24 21ZM22 22L22 23L23 23L23 22ZM9 27L9 28L10 28L10 27ZM13 27L13 28L15 28L15 27ZM0 0L0 7L7 7L7 0ZM1 1L1 6L6 6L6 1ZM2 2L2 5L5 5L5 2ZM22 0L22 7L29 7L29 0ZM23 1L23 6L28 6L28 1ZM24 2L24 5L27 5L27 2ZM0 22L0 29L7 29L7 22ZM1 23L1 28L6 28L6 23ZM2 24L2 27L5 27L5 24Z" fill="#282828"/></g></g></svg>
