<?xml version="1.0" encoding="UTF-8"?>
<svg xmlns="http://www.w3.org/2000/svg" version="1.1" width="90" height="90" viewBox="0 0 90 90"><rect x="0" y="0" width="90" height="90" fill="#ffffff"/><g transform="scale(3.333)"><g transform="translate(1,1)"><path fill-rule="evenodd" d="M11 0L11 1L9 1L9 2L11 2L11 1L13 1L13 0ZM14 0L14 1L16 1L16 0ZM12 2L12 4L13 4L13 2ZM14 2L14 3L15 3L15 4L14 4L14 5L11 5L11 6L10 6L10 8L9 8L9 10L8 10L8 8L5 8L5 9L3 9L3 10L2 10L2 11L1 11L1 12L0 12L0 17L1 17L1 14L2 14L2 17L5 17L5 16L6 16L6 17L8 17L8 20L10 20L10 19L11 19L11 20L13 20L13 21L9 21L9 23L8 23L8 25L9 25L9 24L10 24L10 25L13 25L13 23L12 23L12 24L10 24L10 22L13 22L13 21L17 21L17 22L16 22L16 23L17 23L17 24L16 24L16 25L17 25L17 24L18 24L18 23L20 23L20 22L21 22L21 23L23 23L23 22L24 22L24 25L25 25L25 21L23 21L23 20L24 20L24 19L25 19L25 18L24 18L24 17L25 17L25 16L24 16L24 17L23 17L23 18L22 18L22 16L23 16L23 14L24 14L24 15L25 15L25 14L24 14L24 12L25 12L25 10L24 10L24 9L22 9L22 8L20 8L20 9L17 9L17 12L15 12L15 11L16 11L16 10L15 10L15 9L16 9L16 8L15 8L15 6L14 6L14 5L16 5L16 7L17 7L17 4L16 4L16 3L15 3L15 2ZM8 3L8 5L10 5L10 4L9 4L9 3ZM8 6L8 7L9 7L9 6ZM11 6L11 7L12 7L12 8L13 8L13 10L12 10L12 9L11 9L11 8L10 8L10 10L9 10L9 11L10 11L10 13L9 13L9 12L8 12L8 11L6 11L6 10L7 10L7 9L6 9L6 10L4 10L4 11L3 11L3 12L1 12L1 13L3 13L3 12L4 12L4 13L6 13L6 14L9 14L9 15L8 15L8 16L12 16L12 17L14 17L14 15L15 15L15 12L14 12L14 6L13 6L13 7L12 7L12 6ZM0 8L0 9L2 9L2 8ZM10 10L10 11L11 11L11 14L10 14L10 15L11 15L11 14L14 14L14 12L13 12L13 13L12 13L12 11L11 11L11 10ZM19 10L19 12L20 12L20 11L22 11L22 12L21 12L21 13L20 13L20 14L21 14L21 15L22 15L22 14L21 14L21 13L22 13L22 12L23 12L23 11L24 11L24 10L23 10L23 11L22 11L22 10ZM5 11L5 12L6 12L6 13L8 13L8 12L6 12L6 11ZM17 12L17 13L16 13L16 14L17 14L17 15L16 15L16 16L18 16L18 14L17 14L17 13L18 13L18 12ZM4 14L4 15L3 15L3 16L4 16L4 15L5 15L5 14ZM6 15L6 16L7 16L7 15ZM12 15L12 16L13 16L13 15ZM19 15L19 16L20 16L20 15ZM9 17L9 19L10 19L10 17ZM15 17L15 18L13 18L13 20L14 20L14 19L15 19L15 18L16 18L16 17ZM17 17L17 20L20 20L20 17ZM18 18L18 19L19 19L19 18ZM22 19L22 20L21 20L21 22L22 22L22 20L23 20L23 19ZM17 22L17 23L18 23L18 22ZM19 24L19 25L22 25L22 24ZM0 0L0 7L7 7L7 0ZM1 1L1 6L6 6L6 1ZM2 2L2 5L5 5L5 2ZM18 0L18 7L25 7L25 0ZM19 1L19 6L24 6L24 1ZM20 2L20 5L23 5L23 2ZM0 18L0 25L7 25L7 18ZM1 19L1 24L6 24L6 19ZM2 20L2 23L5 23L5 20Z" fill="#282828"/></g></g></svg>
