<?xml version="1.0" encoding="UTF-8"?>
<svg xmlns="http://www.w3.org/2000/svg" version="1.1" width="90" height="90" viewBox="0 0 90 90"><rect x="0" y="0" width="90" height="90" fill="#ffffff"/><g transform="scale(3.333)"><g transform="translate(1,1)"><path fill-rule="evenodd" d="M10 0L10 1L9 1L9 2L8 2L8 3L9 3L9 5L10 5L10 7L11 7L11 9L12 9L12 7L13 7L13 10L14 10L14 11L13 11L13 13L14 13L14 12L16 12L16 13L17 13L17 16L15 16L15 19L14 19L14 14L12 14L12 15L13 15L13 20L12 20L12 19L11 19L11 17L10 17L10 16L9 16L9 15L11 15L11 13L12 13L12 11L11 11L11 10L10 10L10 9L9 9L9 6L8 6L8 8L4 8L4 10L3 10L3 8L0 8L0 10L1 10L1 12L0 12L0 13L1 13L1 14L0 14L0 15L1 15L1 16L0 16L0 17L1 17L1 16L2 16L2 15L3 15L3 14L4 14L4 12L5 12L5 13L9 13L9 12L10 12L10 14L9 14L9 15L8 15L8 14L5 14L5 15L4 15L4 16L3 16L3 17L5 17L5 15L7 15L7 16L6 16L6 17L7 17L7 16L9 16L9 17L8 17L8 21L9 21L9 22L8 22L8 25L10 25L10 24L12 24L12 23L13 23L13 25L14 25L14 24L15 24L15 25L19 25L19 24L20 24L20 25L21 25L21 24L22 24L22 23L21 23L21 22L19 22L19 23L17 23L17 21L21 21L21 20L22 20L22 19L23 19L23 21L22 21L22 22L23 22L23 21L24 21L24 19L25 19L25 13L24 13L24 15L23 15L23 16L22 16L22 18L21 18L21 15L22 15L22 14L23 14L23 12L21 12L21 13L22 13L22 14L19 14L19 12L20 12L20 11L21 11L21 10L22 10L22 11L23 11L23 8L22 8L22 9L21 9L21 10L19 10L19 8L17 8L17 9L15 9L15 10L14 10L14 8L15 8L15 6L16 6L16 7L17 7L17 5L16 5L16 3L17 3L17 1L16 1L16 0L13 0L13 1L14 1L14 7L13 7L13 6L12 6L12 5L13 5L13 4L12 4L12 5L10 5L10 3L9 3L9 2L10 2L10 1L11 1L11 0ZM11 2L11 3L12 3L12 2ZM15 2L15 3L16 3L16 2ZM11 6L11 7L12 7L12 6ZM1 9L1 10L2 10L2 9ZM5 9L5 11L6 11L6 12L8 12L8 11L10 11L10 10L9 10L9 9L8 9L8 10L7 10L7 9ZM24 9L24 11L25 11L25 9ZM6 10L6 11L7 11L7 10ZM15 10L15 11L16 11L16 12L17 12L17 11L16 11L16 10ZM18 10L18 11L19 11L19 10ZM3 11L3 12L4 12L4 11ZM2 13L2 14L1 14L1 15L2 15L2 14L3 14L3 13ZM18 14L18 15L19 15L19 14ZM23 16L23 19L24 19L24 16ZM9 17L9 18L10 18L10 17ZM17 17L17 20L20 20L20 17ZM18 18L18 19L19 19L19 18ZM9 19L9 21L10 21L10 19ZM15 19L15 20L13 20L13 22L14 22L14 23L16 23L16 19ZM11 20L11 23L12 23L12 20ZM14 21L14 22L15 22L15 21ZM9 22L9 24L10 24L10 22ZM24 22L24 23L23 23L23 25L25 25L25 24L24 24L24 23L25 23L25 22ZM20 23L20 24L21 24L21 23ZM0 0L0 7L7 7L7 0ZM1 1L1 6L6 6L6 1ZM2 2L2 5L5 5L5 2ZM18 0L18 7L25 7L25 0ZM19 1L19 6L24 6L24 1ZM20 2L20 5L23 5L23 2ZM0 18L0 25L7 25L7 18ZM1 19L1 24L6 24L6 19ZM2 20L2 23L5 23L5 20Z" fill="#282828"/></g></g></svg>
