<?xml version="1.0" encoding="UTF-8"?>
<svg xmlns="http://www.w3.org/2000/svg" version="1.1" width="90" height="90" viewBox="0 0 90 90"><rect x="0" y="0" width="90" height="90" fill="#ffffff"/><g transform="scale(3.333)"><g transform="translate(1,1)"><path fill-rule="evenodd" d="M10 0L10 1L8 1L8 2L9 2L9 3L8 3L8 4L10 4L10 3L13 3L13 4L11 4L11 5L10 5L10 7L11 7L11 5L13 5L13 4L14 4L14 3L13 3L13 2L14 2L14 1L15 1L15 4L16 4L16 5L15 5L15 6L14 6L14 7L15 7L15 8L14 8L14 9L13 9L13 6L12 6L12 9L11 9L11 8L6 8L6 9L5 9L5 8L0 8L0 12L1 12L1 9L3 9L3 10L2 10L2 13L0 13L0 17L1 17L1 14L2 14L2 13L3 13L3 14L4 14L4 13L3 13L3 12L4 12L4 11L3 11L3 10L4 10L4 9L5 9L5 11L7 11L7 12L6 12L6 13L7 13L7 12L9 12L9 14L5 14L5 15L7 15L7 16L6 16L6 17L8 17L8 19L9 19L9 18L10 18L10 19L11 19L11 17L12 17L12 15L9 15L9 14L12 14L12 13L10 13L10 12L11 12L11 11L10 11L10 9L11 9L11 10L12 10L12 12L13 12L13 11L14 11L14 13L13 13L13 14L14 14L14 15L16 15L16 14L17 14L17 13L19 13L19 15L17 15L17 16L14 16L14 17L13 17L13 19L12 19L12 20L11 20L11 21L13 21L13 19L14 19L14 25L15 25L15 24L16 24L16 22L15 22L15 21L18 21L18 22L19 22L19 23L18 23L18 25L19 25L19 24L20 24L20 25L22 25L22 24L21 24L21 23L22 23L22 21L23 21L23 22L24 22L24 24L23 24L23 25L25 25L25 21L24 21L24 20L22 20L22 19L23 19L23 18L24 18L24 19L25 19L25 18L24 18L24 17L25 17L25 16L24 16L24 17L23 17L23 16L22 16L22 17L21 17L21 15L22 15L22 14L20 14L20 13L22 13L22 12L20 12L20 11L21 11L21 10L20 10L20 8L19 8L19 10L17 10L17 9L18 9L18 8L17 8L17 9L16 9L16 10L15 10L15 11L14 11L14 9L15 9L15 8L16 8L16 7L17 7L17 6L16 6L16 5L17 5L17 0L16 0L16 1L15 1L15 0L14 0L14 1L13 1L13 0ZM10 1L10 2L12 2L12 1ZM8 5L8 7L9 7L9 5ZM15 6L15 7L16 7L16 6ZM21 8L21 9L22 9L22 11L23 11L23 12L25 12L25 9L24 9L24 8L23 8L23 9L22 9L22 8ZM6 9L6 10L7 10L7 11L9 11L9 9L8 9L8 10L7 10L7 9ZM12 9L12 10L13 10L13 9ZM16 10L16 11L17 11L17 12L19 12L19 13L20 13L20 12L19 12L19 11L20 11L20 10L19 10L19 11L17 11L17 10ZM14 13L14 14L16 14L16 13ZM23 13L23 14L24 14L24 15L25 15L25 14L24 14L24 13ZM2 16L2 17L4 17L4 16ZM8 16L8 17L10 17L10 16ZM14 17L14 18L15 18L15 20L16 20L16 17ZM17 17L17 20L20 20L20 17ZM22 17L22 18L23 18L23 17ZM18 18L18 19L19 19L19 18ZM8 20L8 25L11 25L11 24L12 24L12 23L13 23L13 22L12 22L12 23L11 23L11 22L10 22L10 23L9 23L9 21L10 21L10 20ZM19 21L19 22L20 22L20 23L21 23L21 22L20 22L20 21ZM0 0L0 7L7 7L7 0ZM1 1L1 6L6 6L6 1ZM2 2L2 5L5 5L5 2ZM18 0L18 7L25 7L25 0ZM19 1L19 6L24 6L24 1ZM20 2L20 5L23 5L23 2ZM0 18L0 25L7 25L7 18ZM1 19L1 24L6 24L6 19ZM2 20L2 23L5 23L5 20Z" fill="#282828"/></g></g></svg>
