<?xml version="1.0" encoding="UTF-8"?>
<svg xmlns="http://www.w3.org/2000/svg" version="1.1" width="90" height="90" viewBox="0 0 90 90"><rect x="0" y="0" width="90" height="90" fill="#ffffff"/><g transform="scale(2.903)"><g transform="translate(1,1)"><path fill-rule="evenodd" d="M8 0L8 4L9 4L9 5L8 5L8 7L9 7L9 6L10 6L10 9L11 9L11 8L12 8L12 9L13 9L13 10L15 10L15 9L14 9L14 7L15 7L15 8L20 8L20 9L16 9L16 11L17 11L17 12L19 12L19 13L18 13L18 14L13 14L13 13L16 13L16 12L15 12L15 11L14 11L14 12L13 12L13 11L12 11L12 12L11 12L11 13L10 13L10 14L9 14L9 13L8 13L8 12L10 12L10 11L11 11L11 10L9 10L9 9L7 9L7 8L4 8L4 10L3 10L3 9L2 9L2 8L0 8L0 11L1 11L1 9L2 9L2 10L3 10L3 12L1 12L1 13L0 13L0 14L2 14L2 13L3 13L3 12L4 12L4 13L5 13L5 12L6 12L6 13L7 13L7 14L5 14L5 15L4 15L4 14L3 14L3 15L0 15L0 16L4 16L4 19L3 19L3 17L2 17L2 19L3 19L3 20L0 20L0 21L3 21L3 20L4 20L4 21L8 21L8 22L9 22L9 21L8 21L8 20L11 20L11 21L10 21L10 23L8 23L8 25L10 25L10 26L9 26L9 27L8 27L8 29L10 29L10 28L11 28L11 29L12 29L12 28L13 28L13 29L17 29L17 28L19 28L19 25L24 25L24 26L25 26L25 27L26 27L26 25L25 25L25 24L26 24L26 22L27 22L27 23L28 23L28 24L29 24L29 21L26 21L26 22L25 22L25 20L26 20L26 19L27 19L27 20L28 20L28 19L29 19L29 18L28 18L28 17L29 17L29 16L26 16L26 15L25 15L25 17L22 17L22 16L23 16L23 15L22 15L22 14L27 14L27 13L28 13L28 12L29 12L29 8L25 8L25 9L24 9L24 8L23 8L23 9L22 9L22 10L23 10L23 11L21 11L21 12L19 12L19 10L20 10L20 9L21 9L21 8L20 8L20 7L21 7L21 6L20 6L20 3L21 3L21 2L20 2L20 0L19 0L19 2L17 2L17 5L16 5L16 7L15 7L15 6L14 6L14 7L13 7L13 6L12 6L12 7L11 7L11 3L10 3L10 2L9 2L9 0ZM13 0L13 1L11 1L11 2L12 2L12 5L13 5L13 2L14 2L14 3L15 3L15 2L16 2L16 1L17 1L17 0L16 0L16 1L15 1L15 0ZM18 5L18 6L17 6L17 7L18 7L18 6L19 6L19 7L20 7L20 6L19 6L19 5ZM12 7L12 8L13 8L13 7ZM6 9L6 10L4 10L4 11L6 11L6 12L8 12L8 11L9 11L9 10L8 10L8 11L6 11L6 10L7 10L7 9ZM25 10L25 11L24 11L24 13L25 13L25 12L26 12L26 13L27 13L27 11L28 11L28 10L27 10L27 11L26 11L26 10ZM12 12L12 13L11 13L11 14L12 14L12 13L13 13L13 12ZM22 12L22 13L21 13L21 14L22 14L22 13L23 13L23 12ZM19 13L19 16L17 16L17 17L16 17L16 15L14 15L14 17L16 17L16 19L18 19L18 17L20 17L20 18L19 18L19 20L15 20L15 21L13 21L13 20L14 20L14 19L15 19L15 18L13 18L13 17L12 17L12 16L13 16L13 15L12 15L12 16L11 16L11 17L10 17L10 16L8 16L8 14L7 14L7 15L6 15L6 16L8 16L8 17L5 17L5 19L6 19L6 20L7 20L7 19L9 19L9 18L8 18L8 17L10 17L10 19L11 19L11 20L12 20L12 21L11 21L11 22L12 22L12 21L13 21L13 22L15 22L15 21L19 21L19 20L21 20L21 19L22 19L22 20L24 20L24 19L25 19L25 18L26 18L26 17L25 17L25 18L22 18L22 17L20 17L20 13ZM28 14L28 15L29 15L29 14ZM21 15L21 16L22 16L22 15ZM0 17L0 18L1 18L1 17ZM6 18L6 19L7 19L7 18ZM20 18L20 19L21 19L21 18ZM27 18L27 19L28 19L28 18ZM12 19L12 20L13 20L13 19ZM21 21L21 24L24 24L24 21ZM17 22L17 23L18 23L18 24L17 24L17 26L16 26L16 27L15 27L15 26L13 26L13 25L12 25L12 24L13 24L13 23L12 23L12 24L11 24L11 26L10 26L10 27L9 27L9 28L10 28L10 27L11 27L11 28L12 28L12 27L13 27L13 28L14 28L14 27L15 27L15 28L17 28L17 26L18 26L18 25L19 25L19 23L20 23L20 22L19 22L19 23L18 23L18 22ZM22 22L22 23L23 23L23 22ZM14 23L14 25L16 25L16 24L15 24L15 23ZM28 25L28 26L27 26L27 29L28 29L28 28L29 28L29 25ZM20 26L20 27L21 27L21 28L20 28L20 29L21 29L21 28L24 28L24 29L26 29L26 28L24 28L24 27L22 27L22 26ZM0 0L0 7L7 7L7 0ZM1 1L1 6L6 6L6 1ZM2 2L2 5L5 5L5 2ZM22 0L22 7L29 7L29 0ZM23 1L23 6L28 6L28 1ZM24 2L24 5L27 5L27 2ZM0 22L0 29L7 29L7 22ZM1 23L1 28L6 28L6 23ZM2 24L2 27L5 27L5 24Z" fill="#282828"/></g></g></svg>
