<?xml version="1.0" encoding="UTF-8"?>
<svg xmlns="http://www.w3.org/2000/svg" version="1.1" width="90" height="90" viewBox="0 0 90 90"><rect x="0" y="0" width="90" height="90" fill="#ffffff"/><g transform="scale(2.903)"><g transform="translate(1,1)"><path fill-rule="evenodd" d="M10 0L10 1L9 1L9 2L8 2L8 3L9 3L9 5L10 5L10 7L11 7L11 8L12 8L12 9L11 9L11 10L10 10L10 9L9 9L9 6L8 6L8 8L4 8L4 9L3 9L3 8L0 8L0 9L3 9L3 10L2 10L2 11L0 11L0 13L1 13L1 12L3 12L3 11L8 11L8 10L10 10L10 11L9 11L9 12L6 12L6 13L5 13L5 12L4 12L4 13L2 13L2 15L0 15L0 16L1 16L1 17L3 17L3 18L4 18L4 17L3 17L3 16L5 16L5 18L6 18L6 19L7 19L7 18L6 18L6 17L7 17L7 16L10 16L10 17L11 17L11 18L9 18L9 17L8 17L8 18L9 18L9 19L8 19L8 20L5 20L5 19L4 19L4 20L3 20L3 19L1 19L1 18L0 18L0 19L1 19L1 20L0 20L0 21L1 21L1 20L2 20L2 21L4 21L4 20L5 20L5 21L8 21L8 25L9 25L9 26L8 26L8 29L10 29L10 28L9 28L9 27L12 27L12 28L11 28L11 29L12 29L12 28L14 28L14 29L16 29L16 28L18 28L18 26L17 26L17 25L18 25L18 24L19 24L19 22L20 22L20 25L19 25L19 29L22 29L22 28L20 28L20 26L21 26L21 25L23 25L23 26L22 26L22 27L23 27L23 28L24 28L24 29L25 29L25 28L26 28L26 27L27 27L27 29L29 29L29 28L28 28L28 27L29 27L29 24L28 24L28 25L27 25L27 24L26 24L26 26L24 26L24 25L25 25L25 23L27 23L27 22L26 22L26 21L27 21L27 20L28 20L28 23L29 23L29 18L27 18L27 17L28 17L28 16L29 16L29 14L28 14L28 13L29 13L29 12L28 12L28 11L29 11L29 9L28 9L28 10L27 10L27 14L26 14L26 13L25 13L25 12L26 12L26 11L25 11L25 10L26 10L26 9L27 9L27 8L26 8L26 9L25 9L25 10L23 10L23 11L22 11L22 9L23 9L23 8L21 8L21 5L20 5L20 4L21 4L21 0L18 0L18 1L17 1L17 2L18 2L18 3L16 3L16 2L15 2L15 3L16 3L16 5L14 5L14 3L12 3L12 2L11 2L11 3L12 3L12 5L10 5L10 3L9 3L9 2L10 2L10 1L11 1L11 0ZM14 0L14 1L13 1L13 2L14 2L14 1L15 1L15 0ZM18 1L18 2L19 2L19 4L20 4L20 2L19 2L19 1ZM13 5L13 7L12 7L12 6L11 6L11 7L12 7L12 8L13 8L13 9L14 9L14 10L13 10L13 11L14 11L14 10L15 10L15 9L16 9L16 8L17 8L17 7L18 7L18 6L17 6L17 7L16 7L16 6L15 6L15 7L14 7L14 5ZM19 6L19 7L20 7L20 6ZM15 7L15 8L16 8L16 7ZM18 8L18 10L17 10L17 11L19 11L19 12L18 12L18 13L20 13L20 11L21 11L21 12L22 12L22 11L21 11L21 10L20 10L20 9L21 9L21 8ZM4 9L4 10L5 10L5 9ZM6 9L6 10L7 10L7 9ZM11 11L11 12L12 12L12 14L10 14L10 15L12 15L12 16L11 16L11 17L12 17L12 16L13 16L13 17L14 17L14 18L13 18L13 19L14 19L14 18L15 18L15 19L16 19L16 20L15 20L15 22L14 22L14 20L12 20L12 19L11 19L11 20L10 20L10 19L9 19L9 20L10 20L10 21L9 21L9 23L10 23L10 22L11 22L11 23L12 23L12 24L11 24L11 25L12 25L12 24L13 24L13 25L14 25L14 26L13 26L13 27L14 27L14 26L15 26L15 28L16 28L16 27L17 27L17 26L16 26L16 25L17 25L17 23L18 23L18 22L19 22L19 21L20 21L20 20L19 20L19 19L21 19L21 20L23 20L23 19L21 19L21 17L20 17L20 16L23 16L23 17L22 17L22 18L24 18L24 19L25 19L25 21L26 21L26 20L27 20L27 18L26 18L26 19L25 19L25 17L26 17L26 16L28 16L28 15L26 15L26 14L25 14L25 13L22 13L22 15L20 15L20 14L19 14L19 15L18 15L18 17L17 17L17 15L16 15L16 14L17 14L17 13L16 13L16 14L14 14L14 12L12 12L12 11ZM15 11L15 12L16 12L16 11ZM23 11L23 12L25 12L25 11ZM9 12L9 13L6 13L6 14L7 14L7 15L5 15L5 16L7 16L7 15L8 15L8 14L9 14L9 13L10 13L10 12ZM3 14L3 15L2 15L2 16L3 16L3 15L4 15L4 14ZM13 14L13 15L14 15L14 14ZM23 14L23 15L24 15L24 17L25 17L25 15L24 15L24 14ZM19 15L19 16L20 16L20 15ZM17 19L17 20L16 20L16 23L15 23L15 24L16 24L16 23L17 23L17 21L18 21L18 19ZM11 20L11 22L12 22L12 20ZM21 21L21 24L24 24L24 21ZM13 22L13 23L14 23L14 22ZM22 22L22 23L23 23L23 22ZM27 26L27 27L28 27L28 26ZM24 27L24 28L25 28L25 27ZM0 0L0 7L7 7L7 0ZM1 1L1 6L6 6L6 1ZM2 2L2 5L5 5L5 2ZM22 0L22 7L29 7L29 0ZM23 1L23 6L28 6L28 1ZM24 2L24 5L27 5L27 2ZM0 22L0 29L7 29L7 22ZM1 23L1 28L6 28L6 23ZM2 24L2 27L5 27L5 24Z" fill="#282828"/></g></g></svg>
