<?xml version="1.0" encoding="UTF-8"?>
<svg xmlns="http://www.w3.org/2000/svg" version="1.1" width="100" height="100" viewBox="0 0 100 100"><rect x="0" y="0" width="100" height="100" fill="#ffffff"/><g transform="scale(3.704)"><g transform="translate(1,1)"><path fill-rule="evenodd" d="M8 0L8 4L10 4L10 3L11 3L11 4L12 4L12 2L11 2L11 0ZM12 0L12 1L14 1L14 2L15 2L15 0ZM16 0L16 2L17 2L17 0ZM9 2L9 3L10 3L10 2ZM14 3L14 4L13 4L13 5L11 5L11 6L10 6L10 7L9 7L9 5L8 5L8 7L9 7L9 8L10 8L10 7L11 7L11 6L12 6L12 8L11 8L11 9L7 9L7 8L4 8L4 9L7 9L7 10L5 10L5 11L4 11L4 10L3 10L3 9L2 9L2 8L0 8L0 12L2 12L2 11L4 11L4 12L3 12L3 13L0 13L0 14L2 14L2 15L3 15L3 16L4 16L4 17L8 17L8 18L9 18L9 19L8 19L8 21L9 21L9 20L10 20L10 22L9 22L9 23L8 23L8 25L10 25L10 24L11 24L11 25L15 25L15 24L16 24L16 23L18 23L18 22L19 22L19 24L17 24L17 25L19 25L19 24L21 24L21 23L20 23L20 22L21 22L21 19L22 19L22 20L23 20L23 21L22 21L22 22L23 22L23 23L22 23L22 24L23 24L23 25L25 25L25 24L24 24L24 22L25 22L25 19L24 19L24 17L25 17L25 15L22 15L22 14L21 14L21 13L23 13L23 14L25 14L25 13L24 13L24 12L25 12L25 11L24 11L24 12L23 12L23 10L22 10L22 9L24 9L24 10L25 10L25 8L21 8L21 9L20 9L20 8L19 8L19 9L18 9L18 10L17 10L17 9L16 9L16 7L17 7L17 3L16 3L16 7L15 7L15 6L14 6L14 5L15 5L15 3ZM13 6L13 8L12 8L12 9L11 9L11 10L8 10L8 11L9 11L9 12L8 12L8 13L5 13L5 14L8 14L8 15L5 15L5 16L8 16L8 17L10 17L10 16L12 16L12 17L11 17L11 18L12 18L12 17L15 17L15 18L13 18L13 19L12 19L12 20L11 20L11 19L10 19L10 20L11 20L11 24L12 24L12 23L13 23L13 24L15 24L15 22L17 22L17 21L16 21L16 19L15 19L15 18L16 18L16 16L17 16L17 15L18 15L18 16L19 16L19 14L20 14L20 15L21 15L21 14L20 14L20 13L19 13L19 14L17 14L17 15L16 15L16 16L15 16L15 14L16 14L16 13L17 13L17 12L22 12L22 11L20 11L20 9L19 9L19 10L18 10L18 11L17 11L17 10L16 10L16 9L15 9L15 8L14 8L14 6ZM13 8L13 9L12 9L12 10L11 10L11 11L10 11L10 13L11 13L11 12L12 12L12 13L13 13L13 14L14 14L14 13L13 13L13 12L12 12L12 11L14 11L14 12L17 12L17 11L16 11L16 10L13 10L13 9L14 9L14 8ZM1 9L1 11L2 11L2 9ZM6 11L6 12L7 12L7 11ZM8 13L8 14L9 14L9 13ZM3 14L3 15L4 15L4 14ZM10 14L10 15L9 15L9 16L10 16L10 15L11 15L11 14ZM12 15L12 16L13 16L13 15ZM0 16L0 17L2 17L2 16ZM21 16L21 18L23 18L23 17L24 17L24 16L23 16L23 17L22 17L22 16ZM17 17L17 20L20 20L20 17ZM18 18L18 19L19 19L19 18ZM14 19L14 21L13 21L13 20L12 20L12 21L13 21L13 23L14 23L14 21L15 21L15 19ZM23 19L23 20L24 20L24 19ZM0 0L0 7L7 7L7 0ZM1 1L1 6L6 6L6 1ZM2 2L2 5L5 5L5 2ZM18 0L18 7L25 7L25 0ZM19 1L19 6L24 6L24 1ZM20 2L20 5L23 5L23 2ZM0 18L0 25L7 25L7 18ZM1 19L1 24L6 24L6 19ZM2 20L2 23L5 23L5 20Z" fill="#282828"/></g></g></svg>
