<?xml version="1.0" encoding="UTF-8"?>
<svg xmlns="http://www.w3.org/2000/svg" version="1.1" width="90" height="90" viewBox="0 0 90 90"><rect x="0" y="0" width="90" height="90" fill="#ffffff"/><g transform="scale(2.903)"><g transform="translate(1,1)"><path fill-rule="evenodd" d="M8 0L8 4L9 4L9 5L8 5L8 7L9 7L9 6L10 6L10 9L11 9L11 8L12 8L12 9L13 9L13 11L12 11L12 12L11 12L11 13L7 13L7 12L10 12L10 11L11 11L11 10L9 10L9 9L7 9L7 8L4 8L4 9L2 9L2 8L0 8L0 9L2 9L2 10L4 10L4 13L5 13L5 14L3 14L3 15L2 15L2 14L1 14L1 15L0 15L0 16L4 16L4 15L5 15L5 17L2 17L2 18L5 18L5 19L4 19L4 20L3 20L3 21L5 21L5 19L7 19L7 18L6 18L6 17L8 17L8 16L6 16L6 15L10 15L10 16L12 16L12 17L13 17L13 18L14 18L14 17L16 17L16 18L15 18L15 19L17 19L17 21L16 21L16 20L13 20L13 19L12 19L12 20L10 20L10 21L9 21L9 19L11 19L11 18L10 18L10 17L9 17L9 19L8 19L8 22L10 22L10 23L11 23L11 24L9 24L9 23L8 23L8 25L11 25L11 24L12 24L12 25L13 25L13 26L15 26L15 27L14 27L14 28L13 28L13 27L12 27L12 28L11 28L11 26L9 26L9 27L8 27L8 29L9 29L9 28L11 28L11 29L12 29L12 28L13 28L13 29L16 29L16 28L18 28L18 27L19 27L19 25L20 25L20 26L22 26L22 27L20 27L20 29L21 29L21 28L22 28L22 29L23 29L23 26L22 26L22 25L25 25L25 28L26 28L26 27L27 27L27 29L28 29L28 28L29 28L29 21L26 21L26 20L25 20L25 19L24 19L24 18L26 18L26 19L29 19L29 17L24 17L24 16L23 16L23 17L22 17L22 18L20 18L20 19L18 19L18 18L19 18L19 17L20 17L20 16L22 16L22 15L21 15L21 14L20 14L20 16L19 16L19 17L16 17L16 16L14 16L14 17L13 17L13 16L12 16L12 15L13 15L13 14L14 14L14 13L16 13L16 14L15 14L15 15L17 15L17 16L18 16L18 15L19 15L19 13L16 13L16 12L15 12L15 11L16 11L16 10L17 10L17 12L19 12L19 9L20 9L20 10L21 10L21 11L20 11L20 13L22 13L22 14L23 14L23 15L25 15L25 16L26 16L26 15L25 15L25 13L26 13L26 14L27 14L27 16L29 16L29 13L27 13L27 12L29 12L29 10L28 10L28 9L29 9L29 8L25 8L25 9L24 9L24 8L23 8L23 9L22 9L22 10L21 10L21 8L19 8L19 6L20 6L20 7L21 7L21 5L20 5L20 4L21 4L21 3L20 3L20 0L15 0L15 1L14 1L14 0L13 0L13 1L11 1L11 2L12 2L12 5L13 5L13 6L12 6L12 7L11 7L11 3L10 3L10 2L9 2L9 0ZM15 1L15 2L13 2L13 3L15 3L15 7L16 7L16 8L15 8L15 9L14 9L14 6L13 6L13 7L12 7L12 8L13 8L13 9L14 9L14 11L13 11L13 12L12 12L12 13L11 13L11 14L12 14L12 13L14 13L14 11L15 11L15 10L16 10L16 8L17 8L17 10L18 10L18 9L19 9L19 8L17 8L17 7L18 7L18 6L19 6L19 5L17 5L17 7L16 7L16 4L17 4L17 2L18 2L18 1L17 1L17 2L16 2L16 1ZM19 3L19 4L20 4L20 3ZM4 9L4 10L5 10L5 11L6 11L6 12L7 12L7 11L8 11L8 10L7 10L7 9L6 9L6 10L5 10L5 9ZM25 9L25 10L22 10L22 11L21 11L21 12L22 12L22 13L25 13L25 10L27 10L27 11L26 11L26 12L27 12L27 11L28 11L28 10L27 10L27 9ZM0 10L0 11L1 11L1 12L0 12L0 13L1 13L1 12L3 12L3 11L1 11L1 10ZM6 10L6 11L7 11L7 10ZM22 11L22 12L24 12L24 11ZM6 13L6 14L5 14L5 15L6 15L6 14L7 14L7 13ZM17 14L17 15L18 15L18 14ZM0 17L0 18L1 18L1 17ZM23 19L23 20L24 20L24 19ZM0 20L0 21L2 21L2 20ZM6 20L6 21L7 21L7 20ZM12 20L12 21L10 21L10 22L12 22L12 21L13 21L13 22L14 22L14 21L13 21L13 20ZM19 20L19 21L20 21L20 20ZM15 21L15 22L16 22L16 23L14 23L14 25L15 25L15 26L16 26L16 25L19 25L19 22L18 22L18 21L17 21L17 22L16 22L16 21ZM21 21L21 24L24 24L24 21ZM17 22L17 24L18 24L18 22ZM22 22L22 23L23 23L23 22ZM25 22L25 23L26 23L26 24L25 24L25 25L26 25L26 24L27 24L27 26L28 26L28 23L27 23L27 22ZM12 23L12 24L13 24L13 23ZM15 24L15 25L16 25L16 24ZM17 26L17 27L18 27L18 26ZM15 27L15 28L16 28L16 27ZM0 0L0 7L7 7L7 0ZM1 1L1 6L6 6L6 1ZM2 2L2 5L5 5L5 2ZM22 0L22 7L29 7L29 0ZM23 1L23 6L28 6L28 1ZM24 2L24 5L27 5L27 2ZM0 22L0 29L7 29L7 22ZM1 23L1 28L6 28L6 23ZM2 24L2 27L5 27L5 24Z" fill="#282828"/></g></g></svg>
