<?xml version="1.0" encoding="UTF-8"?>
<svg xmlns="http://www.w3.org/2000/svg" version="1.1" width="90" height="90" viewBox="0 0 90 90"><rect x="0" y="0" width="90" height="90" fill="#ffffff"/><g transform="scale(2.903)"><g transform="translate(1,1)"><path fill-rule="evenodd" d="M8 0L8 1L9 1L9 2L8 2L8 5L9 5L9 4L11 4L11 5L10 5L10 10L9 10L9 8L8 8L8 9L7 9L7 8L6 8L6 9L5 9L5 10L4 10L4 11L3 11L3 12L2 12L2 13L0 13L0 14L1 14L1 15L0 15L0 16L1 16L1 17L2 17L2 18L3 18L3 19L2 19L2 20L1 20L1 21L2 21L2 20L3 20L3 21L4 21L4 20L5 20L5 21L7 21L7 20L8 20L8 22L10 22L10 24L9 24L9 25L8 25L8 29L12 29L12 28L14 28L14 27L15 27L15 28L16 28L16 29L17 29L17 28L16 28L16 27L19 27L19 26L20 26L20 28L18 28L18 29L21 29L21 28L22 28L22 29L24 29L24 28L26 28L26 27L27 27L27 29L28 29L28 27L29 27L29 25L28 25L28 24L27 24L27 25L25 25L25 21L27 21L27 20L28 20L28 22L29 22L29 19L28 19L28 17L27 17L27 18L26 18L26 14L28 14L28 15L27 15L27 16L28 16L28 15L29 15L29 13L28 13L28 12L27 12L27 13L25 13L25 15L23 15L23 13L22 13L22 12L21 12L21 11L23 11L23 10L25 10L25 11L26 11L26 10L27 10L27 11L28 11L28 10L27 10L27 8L24 8L24 9L22 9L22 8L21 8L21 9L19 9L19 8L20 8L20 7L21 7L21 6L20 6L20 4L18 4L18 5L17 5L17 4L16 4L16 3L17 3L17 2L18 2L18 1L20 1L20 0L18 0L18 1L16 1L16 0L12 0L12 1L11 1L11 0L10 0L10 1L9 1L9 0ZM14 1L14 2L11 2L11 4L12 4L12 3L13 3L13 5L12 5L12 6L11 6L11 8L12 8L12 6L13 6L13 8L14 8L14 9L15 9L15 7L16 7L16 6L15 6L15 5L16 5L16 4L15 4L15 5L14 5L14 3L16 3L16 1ZM20 2L20 3L21 3L21 2ZM13 5L13 6L14 6L14 7L15 7L15 6L14 6L14 5ZM18 5L18 6L17 6L17 7L18 7L18 8L19 8L19 7L20 7L20 6L19 6L19 5ZM8 6L8 7L9 7L9 6ZM18 6L18 7L19 7L19 6ZM0 8L0 11L1 11L1 9L4 9L4 8ZM28 8L28 9L29 9L29 8ZM6 9L6 10L5 10L5 11L4 11L4 12L3 12L3 13L2 13L2 14L3 14L3 16L2 16L2 15L1 15L1 16L2 16L2 17L4 17L4 19L3 19L3 20L4 20L4 19L5 19L5 20L7 20L7 19L8 19L8 17L9 17L9 16L10 16L10 14L11 14L11 13L12 13L12 12L13 12L13 14L12 14L12 16L11 16L11 17L10 17L10 18L9 18L9 21L10 21L10 22L11 22L11 23L14 23L14 22L15 22L15 24L12 24L12 26L11 26L11 24L10 24L10 25L9 25L9 26L11 26L11 27L9 27L9 28L12 28L12 26L13 26L13 27L14 27L14 26L15 26L15 27L16 27L16 26L15 26L15 24L16 24L16 25L17 25L17 26L18 26L18 25L20 25L20 26L21 26L21 27L23 27L23 25L22 25L22 26L21 26L21 25L20 25L20 23L19 23L19 24L18 24L18 22L17 22L17 19L16 19L16 20L15 20L15 21L13 21L13 18L14 18L14 15L16 15L16 16L15 16L15 17L16 17L16 16L17 16L17 17L18 17L18 18L19 18L19 20L26 20L26 18L25 18L25 17L24 17L24 16L23 16L23 15L22 15L22 13L21 13L21 12L18 12L18 11L17 11L17 10L18 10L18 9L16 9L16 10L14 10L14 11L11 11L11 13L9 13L9 11L6 11L6 10L7 10L7 9ZM11 9L11 10L12 10L12 9ZM19 10L19 11L21 11L21 10ZM5 11L5 12L4 12L4 13L5 13L5 14L6 14L6 15L8 15L8 16L9 16L9 15L8 15L8 12L6 12L6 11ZM15 11L15 12L14 12L14 14L13 14L13 15L14 15L14 14L16 14L16 15L17 15L17 14L16 14L16 13L18 13L18 12L17 12L17 11ZM6 13L6 14L7 14L7 13ZM19 13L19 14L18 14L18 15L19 15L19 16L18 16L18 17L20 17L20 19L21 19L21 17L22 17L22 18L23 18L23 19L25 19L25 18L24 18L24 17L22 17L22 15L21 15L21 14L20 14L20 13ZM4 15L4 17L5 17L5 15ZM20 15L20 16L21 16L21 15ZM6 16L6 17L7 17L7 16ZM12 16L12 17L13 17L13 16ZM0 18L0 19L1 19L1 18ZM6 18L6 19L7 19L7 18ZM11 19L11 20L10 20L10 21L11 21L11 20L12 20L12 19ZM21 21L21 24L24 24L24 21ZM16 22L16 24L17 24L17 22ZM22 22L22 23L23 23L23 22ZM26 22L26 23L27 23L27 22ZM13 25L13 26L14 26L14 25ZM27 25L27 27L28 27L28 25ZM24 26L24 27L26 27L26 26ZM0 0L0 7L7 7L7 0ZM1 1L1 6L6 6L6 1ZM2 2L2 5L5 5L5 2ZM22 0L22 7L29 7L29 0ZM23 1L23 6L28 6L28 1ZM24 2L24 5L27 5L27 2ZM0 22L0 29L7 29L7 22ZM1 23L1 28L6 28L6 23ZM2 24L2 27L5 27L5 24Z" fill="#282828"/></g></g></svg>
