<?xml version="1.0" encoding="UTF-8"?>
<svg xmlns="http://www.w3.org/2000/svg" version="1.1" width="90" height="90" viewBox="0 0 90 90"><rect x="0" y="0" width="90" height="90" fill="#ffffff"/><g transform="scale(2.903)"><g transform="translate(1,1)"><path fill-rule="evenodd" d="M8 0L8 1L10 1L10 0ZM14 0L14 1L13 1L13 2L11 2L11 4L10 4L10 3L9 3L9 2L8 2L8 5L9 5L9 6L8 6L8 7L9 7L9 8L8 8L8 9L7 9L7 8L6 8L6 9L7 9L7 10L5 10L5 9L4 9L4 8L0 8L0 10L1 10L1 11L0 11L0 13L1 13L1 14L0 14L0 15L1 15L1 16L0 16L0 17L1 17L1 16L2 16L2 15L3 15L3 17L2 17L2 20L1 20L1 21L2 21L2 20L4 20L4 21L5 21L5 20L6 20L6 21L7 21L7 20L8 20L8 22L9 22L9 25L8 25L8 29L10 29L10 27L11 27L11 28L12 28L12 29L13 29L13 28L12 28L12 26L13 26L13 27L14 27L14 29L16 29L16 28L15 28L15 27L14 27L14 26L15 26L15 24L16 24L16 23L17 23L17 22L18 22L18 24L17 24L17 25L16 25L16 26L18 26L18 25L19 25L19 21L20 21L20 26L19 26L19 27L18 27L18 28L17 28L17 29L21 29L21 28L19 28L19 27L23 27L23 29L24 29L24 28L26 28L26 29L28 29L28 27L29 27L29 25L28 25L28 27L27 27L27 28L26 28L26 27L24 27L24 26L22 26L22 25L25 25L25 26L26 26L26 25L25 25L25 21L27 21L27 20L28 20L28 22L29 22L29 19L28 19L28 17L27 17L27 18L26 18L26 14L28 14L28 15L27 15L27 16L28 16L28 15L29 15L29 13L28 13L28 10L27 10L27 8L24 8L24 9L23 9L23 10L25 10L25 11L24 11L24 13L25 13L25 14L24 14L24 16L25 16L25 18L24 18L24 17L23 17L23 19L25 19L25 18L26 18L26 20L18 20L18 19L17 19L17 18L15 18L15 19L16 19L16 20L18 20L18 21L14 21L14 20L13 20L13 18L14 18L14 17L12 17L12 16L14 16L14 15L15 15L15 17L16 17L16 16L17 16L17 17L18 17L18 18L20 18L20 19L22 19L22 18L21 18L21 15L23 15L23 14L18 14L18 13L17 13L17 12L16 12L16 11L18 11L18 10L19 10L19 9L18 9L18 8L19 8L19 6L20 6L20 8L21 8L21 9L20 9L20 11L19 11L19 12L20 12L20 13L21 13L21 12L22 12L22 11L21 11L21 10L22 10L22 8L21 8L21 6L20 6L20 5L18 5L18 4L16 4L16 3L17 3L17 2L19 2L19 4L20 4L20 2L19 2L19 0L17 0L17 1L16 1L16 3L15 3L15 0ZM20 0L20 1L21 1L21 0ZM12 3L12 5L10 5L10 6L9 6L9 7L10 7L10 8L9 8L9 9L8 9L8 10L7 10L7 11L5 11L5 10L4 10L4 9L3 9L3 10L2 10L2 9L1 9L1 10L2 10L2 11L1 11L1 13L2 13L2 11L4 11L4 12L7 12L7 11L8 11L8 12L10 12L10 13L11 13L11 11L13 11L13 10L14 10L14 9L15 9L15 11L16 11L16 9L17 9L17 10L18 10L18 9L17 9L17 7L18 7L18 5L17 5L17 7L16 7L16 5L15 5L15 3L14 3L14 4L13 4L13 3ZM12 5L12 7L11 7L11 6L10 6L10 7L11 7L11 8L12 8L12 7L13 7L13 6L14 6L14 8L15 8L15 6L14 6L14 5ZM28 8L28 9L29 9L29 8ZM9 9L9 10L10 10L10 9ZM26 10L26 11L25 11L25 13L27 13L27 10ZM20 11L20 12L21 12L21 11ZM12 12L12 14L11 14L11 16L12 16L12 14L13 14L13 15L14 15L14 14L13 14L13 13L15 13L15 15L17 15L17 16L19 16L19 15L18 15L18 14L16 14L16 12ZM4 13L4 14L7 14L7 13ZM1 14L1 15L2 15L2 14ZM8 14L8 15L6 15L6 16L7 16L7 17L6 17L6 18L7 18L7 17L8 17L8 19L9 19L9 18L10 18L10 19L11 19L11 20L10 20L10 21L9 21L9 22L12 22L12 21L11 21L11 20L12 20L12 19L11 19L11 18L12 18L12 17L10 17L10 16L8 16L8 15L9 15L9 14ZM4 15L4 20L5 20L5 15ZM0 18L0 19L1 19L1 18ZM6 19L6 20L7 20L7 19ZM21 21L21 24L24 24L24 21ZM14 22L14 23L11 23L11 24L10 24L10 25L9 25L9 27L10 27L10 26L11 26L11 25L12 25L12 24L13 24L13 26L14 26L14 24L15 24L15 23L16 23L16 22ZM22 22L22 23L23 23L23 22ZM26 22L26 23L27 23L27 24L28 24L28 23L27 23L27 22ZM0 0L0 7L7 7L7 0ZM1 1L1 6L6 6L6 1ZM2 2L2 5L5 5L5 2ZM22 0L22 7L29 7L29 0ZM23 1L23 6L28 6L28 1ZM24 2L24 5L27 5L27 2ZM0 22L0 29L7 29L7 22ZM1 23L1 28L6 28L6 23ZM2 24L2 27L5 27L5 24Z" fill="#282828"/></g></g></svg>
