<?xml version="1.0" encoding="UTF-8"?>
<svg xmlns="http://www.w3.org/2000/svg" version="1.1" width="90" height="90" viewBox="0 0 90 90"><rect x="0" y="0" width="90" height="90" fill="#ffffff"/><g transform="scale(3.333)"><g transform="translate(1,1)"><path fill-rule="evenodd" d="M8 0L8 1L10 1L10 0ZM13 0L13 1L14 1L14 2L11 2L11 4L10 4L10 3L9 3L9 2L8 2L8 5L9 5L9 6L8 6L8 7L9 7L9 8L8 8L8 9L9 9L9 10L10 10L10 9L9 9L9 8L10 8L10 7L11 7L11 8L12 8L12 7L13 7L13 5L14 5L14 7L15 7L15 5L17 5L17 4L15 4L15 3L16 3L16 2L15 2L15 1L14 1L14 0ZM16 0L16 1L17 1L17 0ZM12 3L12 5L10 5L10 6L9 6L9 7L10 7L10 6L11 6L11 7L12 7L12 5L13 5L13 4L14 4L14 5L15 5L15 4L14 4L14 3ZM16 6L16 7L17 7L17 6ZM0 8L0 9L2 9L2 11L1 11L1 10L0 10L0 11L1 11L1 12L2 12L2 13L3 13L3 12L4 12L4 14L1 14L1 15L0 15L0 16L1 16L1 15L2 15L2 17L4 17L4 16L5 16L5 17L8 17L8 18L9 18L9 20L10 20L10 21L8 21L8 25L9 25L9 22L10 22L10 24L11 24L11 23L12 23L12 24L13 24L13 25L14 25L14 23L15 23L15 22L16 22L16 21L17 21L17 23L18 23L18 24L17 24L17 25L19 25L19 24L20 24L20 23L21 23L21 22L22 22L22 24L21 24L21 25L25 25L25 24L23 24L23 23L24 23L24 22L25 22L25 20L24 20L24 19L25 19L25 17L24 17L24 15L23 15L23 17L21 17L21 16L16 16L16 17L15 17L15 15L14 15L14 14L17 14L17 15L19 15L19 14L20 14L20 15L22 15L22 14L23 14L23 13L21 13L21 12L23 12L23 11L24 11L24 9L25 9L25 8L24 8L24 9L23 9L23 8L20 8L20 9L19 9L19 12L18 12L18 10L17 10L17 9L18 9L18 8L16 8L16 12L17 12L17 13L15 13L15 12L14 12L14 11L15 11L15 8L14 8L14 11L11 11L11 13L10 13L10 12L9 12L9 13L8 13L8 14L9 14L9 13L10 13L10 15L8 15L8 16L5 16L5 15L4 15L4 14L5 14L5 12L6 12L6 13L7 13L7 12L8 12L8 10L5 10L5 9L4 9L4 8ZM6 8L6 9L7 9L7 8ZM20 9L20 10L21 10L21 11L23 11L23 9ZM4 10L4 12L5 12L5 10ZM2 11L2 12L3 12L3 11ZM6 11L6 12L7 12L7 11ZM12 12L12 14L11 14L11 16L9 16L9 18L12 18L12 17L13 17L13 16L14 16L14 15L13 15L13 16L12 16L12 14L14 14L14 13L13 13L13 12ZM19 12L19 13L20 13L20 12ZM24 12L24 14L25 14L25 12ZM6 14L6 15L7 15L7 14ZM11 16L11 17L12 17L12 16ZM17 17L17 20L20 20L20 17ZM14 18L14 19L13 19L13 20L12 20L12 19L10 19L10 20L12 20L12 21L11 21L11 22L12 22L12 23L14 23L14 21L16 21L16 20L15 20L15 18ZM18 18L18 19L19 19L19 18ZM22 18L22 22L23 22L23 21L24 21L24 20L23 20L23 19L24 19L24 18ZM12 21L12 22L13 22L13 21ZM20 21L20 22L21 22L21 21ZM15 24L15 25L16 25L16 24ZM0 0L0 7L7 7L7 0ZM1 1L1 6L6 6L6 1ZM2 2L2 5L5 5L5 2ZM18 0L18 7L25 7L25 0ZM19 1L19 6L24 6L24 1ZM20 2L20 5L23 5L23 2ZM0 18L0 25L7 25L7 18ZM1 19L1 24L6 24L6 19ZM2 20L2 23L5 23L5 20Z" fill="#282828"/></g></g></svg>
