<?xml version="1.0" encoding="UTF-8"?>
<svg xmlns="http://www.w3.org/2000/svg" version="1.1" width="90" height="90" viewBox="0 0 90 90"><rect x="0" y="0" width="90" height="90" fill="#ffffff"/><g transform="scale(3.333)"><g transform="translate(1,1)"><path fill-rule="evenodd" d="M9 0L9 1L8 1L8 2L9 2L9 3L8 3L8 4L10 4L10 7L11 7L11 8L6 8L6 9L5 9L5 8L0 8L0 10L1 10L1 9L2 9L2 10L3 10L3 9L5 9L5 10L4 10L4 11L7 11L7 12L6 12L6 13L4 13L4 12L3 12L3 13L2 13L2 11L0 11L0 17L1 17L1 14L3 14L3 15L2 15L2 17L7 17L7 16L8 16L8 19L9 19L9 20L8 20L8 25L9 25L9 20L10 20L10 21L11 21L11 22L12 22L12 24L13 24L13 25L15 25L15 24L17 24L17 25L19 25L19 23L20 23L20 22L19 22L19 21L21 21L21 25L25 25L25 21L24 21L24 20L25 20L25 18L24 18L24 17L25 17L25 16L24 16L24 15L25 15L25 14L24 14L24 13L25 13L25 10L24 10L24 8L23 8L23 10L21 10L21 11L23 11L23 10L24 10L24 13L22 13L22 15L23 15L23 16L24 16L24 17L23 17L23 18L24 18L24 20L22 20L22 21L21 21L21 19L22 19L22 18L21 18L21 17L22 17L22 16L21 16L21 15L20 15L20 13L21 13L21 12L20 12L20 13L19 13L19 11L20 11L20 8L19 8L19 11L18 11L18 12L17 12L17 15L16 15L16 14L14 14L14 13L16 13L16 10L18 10L18 8L17 8L17 4L16 4L16 2L17 2L17 0L16 0L16 1L15 1L15 0L13 0L13 1L11 1L11 2L10 2L10 0ZM13 1L13 2L12 2L12 3L15 3L15 1ZM10 3L10 4L11 4L11 7L12 7L12 8L11 8L11 9L10 9L10 11L11 11L11 12L10 12L10 13L9 13L9 12L8 12L8 13L6 13L6 14L5 14L5 15L6 15L6 16L7 16L7 15L6 15L6 14L10 14L10 15L9 15L9 17L10 17L10 16L11 16L11 17L13 17L13 16L15 16L15 17L14 17L14 18L11 18L11 19L10 19L10 20L11 20L11 21L12 21L12 22L13 22L13 21L14 21L14 20L16 20L16 18L15 18L15 17L16 17L16 16L15 16L15 15L14 15L14 14L10 14L10 13L13 13L13 12L14 12L14 10L15 10L15 9L17 9L17 8L15 8L15 9L13 9L13 8L14 8L14 6L13 6L13 7L12 7L12 4L11 4L11 3ZM13 4L13 5L14 5L14 4ZM15 4L15 5L16 5L16 4ZM8 5L8 7L9 7L9 5ZM15 6L15 7L16 7L16 6ZM21 8L21 9L22 9L22 8ZM6 9L6 10L7 10L7 11L8 11L8 10L7 10L7 9ZM11 9L11 10L12 10L12 12L13 12L13 9ZM18 13L18 14L19 14L19 13ZM23 14L23 15L24 15L24 14ZM11 15L11 16L13 16L13 15ZM18 15L18 16L19 16L19 15ZM17 17L17 20L20 20L20 17ZM14 18L14 19L15 19L15 18ZM18 18L18 19L19 19L19 18ZM12 19L12 21L13 21L13 19ZM16 21L16 22L15 22L15 23L16 23L16 22L17 22L17 23L19 23L19 22L17 22L17 21ZM22 21L22 22L23 22L23 23L22 23L22 24L24 24L24 22L23 22L23 21ZM13 23L13 24L14 24L14 23ZM0 0L0 7L7 7L7 0ZM1 1L1 6L6 6L6 1ZM2 2L2 5L5 5L5 2ZM18 0L18 7L25 7L25 0ZM19 1L19 6L24 6L24 1ZM20 2L20 5L23 5L23 2ZM0 18L0 25L7 25L7 18ZM1 19L1 24L6 24L6 19ZM2 20L2 23L5 23L5 20Z" fill="#282828"/></g></g></svg>
