<?xml version="1.0" encoding="UTF-8"?>
<svg xmlns="http://www.w3.org/2000/svg" version="1.1" width="90" height="90" viewBox="0 0 90 90"><rect x="0" y="0" width="90" height="90" fill="#ffffff"/><g transform="scale(3.333)"><g transform="translate(1,1)"><path fill-rule="evenodd" d="M10 0L10 1L8 1L8 3L9 3L9 4L8 4L8 8L6 8L6 9L8 9L8 10L6 10L6 11L8 11L8 12L10 12L10 13L11 13L11 11L8 11L8 10L10 10L10 9L8 9L8 8L9 8L9 5L10 5L10 8L11 8L11 9L12 9L12 8L13 8L13 9L14 9L14 10L12 10L12 11L13 11L13 13L14 13L14 14L13 14L13 16L16 16L16 17L13 17L13 18L15 18L15 19L14 19L14 22L15 22L15 19L16 19L16 22L17 22L17 23L16 23L16 24L15 24L15 25L19 25L19 24L20 24L20 25L21 25L21 24L22 24L22 23L23 23L23 22L22 22L22 20L24 20L24 19L25 19L25 12L24 12L24 14L23 14L23 15L24 15L24 17L23 17L23 18L22 18L22 20L21 20L21 15L22 15L22 14L21 14L21 15L20 15L20 13L19 13L19 12L21 12L21 13L23 13L23 12L21 12L21 11L23 11L23 10L20 10L20 11L19 11L19 9L21 9L21 8L18 8L18 12L16 12L16 11L15 11L15 10L17 10L17 8L16 8L16 7L17 7L17 4L16 4L16 3L17 3L17 2L16 2L16 0L15 0L15 2L16 2L16 3L14 3L14 5L13 5L13 4L12 4L12 8L11 8L11 4L10 4L10 3L9 3L9 2L11 2L11 0ZM13 1L13 2L14 2L14 1ZM14 5L14 6L13 6L13 8L15 8L15 7L16 7L16 6L15 6L15 5ZM14 6L14 7L15 7L15 6ZM0 8L0 9L2 9L2 10L0 10L0 12L1 12L1 14L0 14L0 15L1 15L1 16L0 16L0 17L3 17L3 16L2 16L2 15L1 15L1 14L3 14L3 15L4 15L4 14L3 14L3 13L7 13L7 12L5 12L5 11L2 11L2 10L4 10L4 8L3 8L3 9L2 9L2 8ZM22 8L22 9L24 9L24 11L25 11L25 9L24 9L24 8ZM1 11L1 12L2 12L2 13L3 13L3 12L2 12L2 11ZM14 11L14 13L15 13L15 14L14 14L14 15L18 15L18 16L20 16L20 15L19 15L19 14L16 14L16 12L15 12L15 11ZM8 13L8 14L5 14L5 15L8 15L8 14L9 14L9 15L10 15L10 16L8 16L8 19L9 19L9 20L10 20L10 21L8 21L8 22L9 22L9 23L8 23L8 25L11 25L11 24L9 24L9 23L11 23L11 21L12 21L12 23L13 23L13 25L14 25L14 23L13 23L13 20L12 20L12 19L9 19L9 17L11 17L11 18L12 18L12 17L11 17L11 15L12 15L12 14L9 14L9 13ZM4 16L4 17L5 17L5 16ZM6 16L6 17L7 17L7 16ZM17 17L17 20L20 20L20 17ZM18 18L18 19L19 19L19 18ZM23 18L23 19L24 19L24 18ZM17 21L17 22L18 22L18 23L17 23L17 24L18 24L18 23L20 23L20 22L21 22L21 23L22 23L22 22L21 22L21 21L20 21L20 22L19 22L19 21ZM24 22L24 23L25 23L25 22ZM23 24L23 25L25 25L25 24ZM0 0L0 7L7 7L7 0ZM1 1L1 6L6 6L6 1ZM2 2L2 5L5 5L5 2ZM18 0L18 7L25 7L25 0ZM19 1L19 6L24 6L24 1ZM20 2L20 5L23 5L23 2ZM0 18L0 25L7 25L7 18ZM1 19L1 24L6 24L6 19ZM2 20L2 23L5 23L5 20Z" fill="#282828"/></g></g></svg>
