<?xml version="1.0" encoding="UTF-8"?>
<svg xmlns="http://www.w3.org/2000/svg" version="1.1" width="90" height="90" viewBox="0 0 90 90"><rect x="0" y="0" width="90" height="90" fill="#ffffff"/><g transform="scale(3.333)"><g transform="translate(1,1)"><path fill-rule="evenodd" d="M10 0L10 1L8 1L8 3L9 3L9 4L8 4L8 8L6 8L6 9L4 9L4 8L3 8L3 9L2 9L2 8L0 8L0 9L2 9L2 10L1 10L1 12L2 12L2 11L3 11L3 13L2 13L2 14L3 14L3 15L1 15L1 14L0 14L0 15L1 15L1 16L0 16L0 17L2 17L2 16L5 16L5 14L3 14L3 13L4 13L4 12L5 12L5 13L7 13L7 12L5 12L5 11L3 11L3 10L6 10L6 11L7 11L7 10L6 10L6 9L8 9L8 8L9 8L9 5L10 5L10 8L12 8L12 7L13 7L13 6L14 6L14 8L13 8L13 9L15 9L15 10L17 10L17 11L18 11L18 12L16 12L16 11L14 11L14 10L12 10L12 11L13 11L13 14L14 14L14 15L13 15L13 16L14 16L14 15L15 15L15 16L16 16L16 17L13 17L13 18L14 18L14 22L15 22L15 25L17 25L17 24L18 24L18 25L19 25L19 24L20 24L20 25L21 25L21 24L22 24L22 23L23 23L23 22L22 22L22 20L24 20L24 19L25 19L25 12L24 12L24 14L23 14L23 15L24 15L24 17L23 17L23 18L22 18L22 20L21 20L21 15L22 15L22 14L20 14L20 12L21 12L21 13L23 13L23 12L21 12L21 11L20 11L20 10L19 10L19 9L21 9L21 10L23 10L23 9L24 9L24 11L25 11L25 9L24 9L24 8L22 8L22 9L21 9L21 8L18 8L18 9L17 9L17 8L15 8L15 6L16 6L16 7L17 7L17 1L16 1L16 0L13 0L13 2L15 2L15 3L14 3L14 4L12 4L12 5L13 5L13 6L12 6L12 7L11 7L11 4L10 4L10 3L9 3L9 2L11 2L11 0ZM14 5L14 6L15 6L15 5ZM9 9L9 10L10 10L10 9ZM18 10L18 11L19 11L19 10ZM9 11L9 12L10 12L10 13L11 13L11 11ZM14 12L14 14L15 14L15 15L16 15L16 16L20 16L20 15L18 15L18 14L16 14L16 12ZM6 14L6 15L7 15L7 14ZM10 14L10 15L8 15L8 19L10 19L10 20L9 20L9 21L8 21L8 22L9 22L9 23L8 23L8 25L9 25L9 24L11 24L11 23L10 23L10 22L9 22L9 21L12 21L12 23L13 23L13 25L14 25L14 23L13 23L13 20L12 20L12 19L11 19L11 18L12 18L12 17L11 17L11 15L12 15L12 14ZM6 16L6 17L7 17L7 16ZM17 17L17 20L20 20L20 17ZM18 18L18 19L19 19L19 18ZM23 18L23 19L24 19L24 18ZM15 19L15 21L16 21L16 22L17 22L17 23L20 23L20 22L21 22L21 23L22 23L22 22L21 22L21 21L20 21L20 22L19 22L19 21L16 21L16 19ZM24 22L24 23L25 23L25 22ZM23 24L23 25L25 25L25 24ZM0 0L0 7L7 7L7 0ZM1 1L1 6L6 6L6 1ZM2 2L2 5L5 5L5 2ZM18 0L18 7L25 7L25 0ZM19 1L19 6L24 6L24 1ZM20 2L20 5L23 5L23 2ZM0 18L0 25L7 25L7 18ZM1 19L1 24L6 24L6 19ZM2 20L2 23L5 23L5 20Z" fill="#282828"/></g></g></svg>
