<?xml version="1.0" encoding="UTF-8"?>
<svg xmlns="http://www.w3.org/2000/svg" version="1.1" width="90" height="90" viewBox="0 0 90 90"><rect x="0" y="0" width="90" height="90" fill="#ffffff"/><g transform="scale(3.333)"><g transform="translate(1,1)"><path fill-rule="evenodd" d="M9 0L9 1L8 1L8 3L9 3L9 4L8 4L8 8L6 8L6 9L4 9L4 8L3 8L3 9L2 9L2 8L0 8L0 10L1 10L1 9L2 9L2 10L3 10L3 11L2 11L2 12L4 12L4 13L7 13L7 14L6 14L6 15L5 15L5 14L4 14L4 15L3 15L3 16L2 16L2 15L1 15L1 14L2 14L2 13L1 13L1 12L0 12L0 13L1 13L1 14L0 14L0 15L1 15L1 16L0 16L0 17L4 17L4 15L5 15L5 16L6 16L6 17L7 17L7 16L6 16L6 15L8 15L8 16L10 16L10 19L9 19L9 17L8 17L8 19L9 19L9 21L8 21L8 22L9 22L9 23L8 23L8 25L9 25L9 23L10 23L10 25L11 25L11 22L14 22L14 23L12 23L12 25L14 25L14 23L15 23L15 19L16 19L16 22L17 22L17 21L19 21L19 22L20 22L20 23L18 23L18 24L17 24L17 23L16 23L16 24L15 24L15 25L19 25L19 24L20 24L20 25L21 25L21 24L22 24L22 23L23 23L23 22L22 22L22 20L25 20L25 12L24 12L24 14L23 14L23 15L24 15L24 17L23 17L23 18L22 18L22 20L21 20L21 15L22 15L22 14L20 14L20 13L19 13L19 12L21 12L21 13L23 13L23 12L21 12L21 11L22 11L22 10L23 10L23 9L24 9L24 11L25 11L25 9L24 9L24 8L22 8L22 9L21 9L21 8L18 8L18 12L17 12L17 10L16 10L16 11L15 11L15 10L14 10L14 9L15 9L15 8L16 8L16 9L17 9L17 6L16 6L16 5L17 5L17 4L16 4L16 5L14 5L14 4L15 4L15 3L16 3L16 2L17 2L17 1L16 1L16 0L14 0L14 1L15 1L15 2L14 2L14 4L13 4L13 2L12 2L12 1L13 1L13 0L11 0L11 1L10 1L10 0ZM9 2L9 3L10 3L10 5L9 5L9 8L8 8L8 9L10 9L10 10L7 10L7 9L6 9L6 10L7 10L7 11L6 11L6 12L7 12L7 13L8 13L8 14L9 14L9 13L10 13L10 14L12 14L12 12L13 12L13 11L14 11L14 14L13 14L13 15L12 15L12 16L11 16L11 17L14 17L14 18L16 18L16 16L18 16L18 15L17 15L17 13L16 13L16 12L15 12L15 11L14 11L14 10L13 10L13 8L15 8L15 7L16 7L16 6L15 6L15 7L14 7L14 5L13 5L13 7L12 7L12 5L11 5L11 2ZM10 5L10 8L11 8L11 9L12 9L12 8L11 8L11 5ZM19 9L19 11L20 11L20 10L21 10L21 9ZM4 10L4 11L5 11L5 10ZM9 11L9 12L10 12L10 13L11 13L11 11ZM19 14L19 16L20 16L20 14ZM13 15L13 16L15 16L15 15ZM17 17L17 20L20 20L20 17ZM11 18L11 19L10 19L10 21L13 21L13 20L14 20L14 19L13 19L13 18ZM18 18L18 19L19 19L19 18ZM23 18L23 19L24 19L24 18ZM12 19L12 20L13 20L13 19ZM20 21L20 22L21 22L21 23L22 23L22 22L21 22L21 21ZM24 22L24 23L25 23L25 22ZM23 24L23 25L25 25L25 24ZM0 0L0 7L7 7L7 0ZM1 1L1 6L6 6L6 1ZM2 2L2 5L5 5L5 2ZM18 0L18 7L25 7L25 0ZM19 1L19 6L24 6L24 1ZM20 2L20 5L23 5L23 2ZM0 18L0 25L7 25L7 18ZM1 19L1 24L6 24L6 19ZM2 20L2 23L5 23L5 20Z" fill="#282828"/></g></g></svg>
