<?xml version="1.0" encoding="UTF-8"?>
<svg xmlns="http://www.w3.org/2000/svg" version="1.1" width="90" height="90" viewBox="0 0 90 90"><rect x="0" y="0" width="90" height="90" fill="#ffffff"/><g transform="scale(3.333)"><g transform="translate(1,1)"><path fill-rule="evenodd" d="M10 0L10 2L11 2L11 0ZM12 0L12 1L13 1L13 2L12 2L12 4L16 4L16 5L15 5L15 6L14 6L14 5L11 5L11 6L10 6L10 4L11 4L11 3L8 3L8 4L9 4L9 5L8 5L8 7L9 7L9 8L6 8L6 9L5 9L5 8L0 8L0 9L2 9L2 11L1 11L1 12L3 12L3 13L2 13L2 14L3 14L3 15L2 15L2 17L8 17L8 19L9 19L9 17L8 17L8 16L10 16L10 17L11 17L11 18L13 18L13 17L15 17L15 18L14 18L14 21L13 21L13 19L12 19L12 21L11 21L11 20L8 20L8 25L9 25L9 23L11 23L11 22L12 22L12 24L13 24L13 25L15 25L15 24L16 24L16 23L15 23L15 21L17 21L17 22L18 22L18 23L17 23L17 24L18 24L18 23L19 23L19 25L22 25L22 24L20 24L20 22L19 22L19 21L21 21L21 23L22 23L22 21L23 21L23 22L24 22L24 24L23 24L23 25L25 25L25 21L23 21L23 20L24 20L24 19L25 19L25 18L24 18L24 17L25 17L25 16L24 16L24 15L25 15L25 14L24 14L24 13L25 13L25 9L24 9L24 8L23 8L23 9L22 9L22 8L21 8L21 9L22 9L22 11L24 11L24 13L23 13L23 14L24 14L24 15L23 15L23 16L22 16L22 17L21 17L21 16L20 16L20 13L19 13L19 12L21 12L21 13L22 13L22 12L21 12L21 10L20 10L20 8L19 8L19 9L18 9L18 8L15 8L15 6L16 6L16 7L17 7L17 6L16 6L16 5L17 5L17 4L16 4L16 2L17 2L17 0L16 0L16 1L14 1L14 0ZM8 1L8 2L9 2L9 1ZM13 2L13 3L15 3L15 2ZM9 6L9 7L10 7L10 6ZM11 6L11 7L12 7L12 8L14 8L14 6L13 6L13 7L12 7L12 6ZM10 8L10 9L9 9L9 10L8 10L8 9L6 9L6 10L3 10L3 11L5 11L5 12L4 12L4 13L3 13L3 14L8 14L8 15L9 15L9 12L11 12L11 13L10 13L10 16L11 16L11 17L13 17L13 16L15 16L15 15L13 15L13 14L11 14L11 13L13 13L13 12L14 12L14 11L15 11L15 12L16 12L16 13L17 13L17 14L16 14L16 16L17 16L17 15L18 15L18 13L17 13L17 12L18 12L18 11L17 11L17 10L18 10L18 9L17 9L17 10L16 10L16 9L14 9L14 10L13 10L13 12L12 12L12 9L11 9L11 8ZM10 9L10 11L11 11L11 9ZM6 10L6 11L8 11L8 12L9 12L9 11L8 11L8 10ZM15 10L15 11L16 11L16 12L17 12L17 11L16 11L16 10ZM19 10L19 11L20 11L20 10ZM6 12L6 13L7 13L7 12ZM0 13L0 17L1 17L1 13ZM14 13L14 14L15 14L15 13ZM21 14L21 15L22 15L22 14ZM3 15L3 16L7 16L7 15ZM11 15L11 16L13 16L13 15ZM23 16L23 17L22 17L22 18L23 18L23 19L22 19L22 20L23 20L23 19L24 19L24 18L23 18L23 17L24 17L24 16ZM17 17L17 20L20 20L20 17ZM15 18L15 19L16 19L16 18ZM18 18L18 19L19 19L19 18ZM9 21L9 22L10 22L10 21ZM12 21L12 22L13 22L13 21ZM13 23L13 24L14 24L14 23ZM10 24L10 25L11 25L11 24ZM0 0L0 7L7 7L7 0ZM1 1L1 6L6 6L6 1ZM2 2L2 5L5 5L5 2ZM18 0L18 7L25 7L25 0ZM19 1L19 6L24 6L24 1ZM20 2L20 5L23 5L23 2ZM0 18L0 25L7 25L7 18ZM1 19L1 24L6 24L6 19ZM2 20L2 23L5 23L5 20Z" fill="#282828"/></g></g></svg>
