<?xml version="1.0" encoding="UTF-8"?>
<svg xmlns="http://www.w3.org/2000/svg" version="1.1" width="90" height="90" viewBox="0 0 90 90"><rect x="0" y="0" width="90" height="90" fill="#ffffff"/><g transform="scale(3.333)"><g transform="translate(1,1)"><path fill-rule="evenodd" d="M8 0L8 4L10 4L10 3L11 3L11 4L12 4L12 2L11 2L11 0ZM12 0L12 1L13 1L13 0ZM14 0L14 1L15 1L15 0ZM16 0L16 2L15 2L15 3L14 3L14 4L13 4L13 5L11 5L11 6L10 6L10 7L9 7L9 5L8 5L8 7L9 7L9 8L10 8L10 7L11 7L11 6L12 6L12 8L11 8L11 9L8 9L8 10L5 10L5 11L4 11L4 9L7 9L7 8L4 8L4 9L2 9L2 8L0 8L0 11L1 11L1 12L0 12L0 14L1 14L1 12L2 12L2 15L3 15L3 17L4 17L4 16L5 16L5 14L6 14L6 15L7 15L7 14L6 14L6 13L7 13L7 12L6 12L6 13L4 13L4 14L3 14L3 11L4 11L4 12L5 12L5 11L9 11L9 10L11 10L11 11L10 11L10 13L9 13L9 12L8 12L8 13L9 13L9 14L8 14L8 15L9 15L9 17L8 17L8 18L9 18L9 19L8 19L8 21L9 21L9 23L8 23L8 25L9 25L9 24L10 24L10 21L11 21L11 24L12 24L12 21L14 21L14 20L15 20L15 17L14 17L14 16L13 16L13 17L11 17L11 19L10 19L10 18L9 18L9 17L10 17L10 16L11 16L11 15L15 15L15 16L16 16L16 22L17 22L17 25L19 25L19 23L20 23L20 25L21 25L21 23L22 23L22 24L23 24L23 25L25 25L25 24L24 24L24 22L25 22L25 21L23 21L23 19L24 19L24 20L25 20L25 19L24 19L24 17L25 17L25 15L24 15L24 13L25 13L25 12L24 12L24 11L22 11L22 12L24 12L24 13L23 13L23 14L22 14L22 13L20 13L20 12L19 12L19 11L20 11L20 10L25 10L25 8L21 8L21 9L20 9L20 8L19 8L19 9L20 9L20 10L18 10L18 11L17 11L17 9L16 9L16 7L17 7L17 3L16 3L16 2L17 2L17 0ZM9 2L9 3L10 3L10 2ZM15 4L15 5L14 5L14 6L13 6L13 8L14 8L14 9L15 9L15 10L12 10L12 9L11 9L11 10L12 10L12 12L11 12L11 13L10 13L10 14L9 14L9 15L11 15L11 13L13 13L13 14L14 14L14 13L16 13L16 16L18 16L18 15L19 15L19 16L22 16L22 15L20 15L20 13L17 13L17 12L14 12L14 11L15 11L15 10L16 10L16 9L15 9L15 7L16 7L16 4ZM14 6L14 7L15 7L15 6ZM1 10L1 11L2 11L2 10ZM13 12L13 13L14 13L14 12ZM17 14L17 15L18 15L18 14ZM23 15L23 17L21 17L21 18L22 18L22 19L23 19L23 17L24 17L24 15ZM0 16L0 17L2 17L2 16ZM6 16L6 17L7 17L7 16ZM17 17L17 20L20 20L20 17ZM13 18L13 19L12 19L12 20L11 20L11 21L12 21L12 20L14 20L14 18ZM18 18L18 19L19 19L19 18ZM21 20L21 21L19 21L19 22L20 22L20 23L21 23L21 22L23 22L23 21L22 21L22 20ZM13 22L13 23L14 23L14 24L15 24L15 25L16 25L16 23L15 23L15 22ZM0 0L0 7L7 7L7 0ZM1 1L1 6L6 6L6 1ZM2 2L2 5L5 5L5 2ZM18 0L18 7L25 7L25 0ZM19 1L19 6L24 6L24 1ZM20 2L20 5L23 5L23 2ZM0 18L0 25L7 25L7 18ZM1 19L1 24L6 24L6 19ZM2 20L2 23L5 23L5 20Z" fill="#282828"/></g></g></svg>
