<?xml version="1.0" encoding="UTF-8"?>
<svg xmlns="http://www.w3.org/2000/svg" version="1.1" width="90" height="90" viewBox="0 0 90 90"><rect x="0" y="0" width="90" height="90" fill="#ffffff"/><g transform="scale(2.903)"><g transform="translate(1,1)"><path fill-rule="evenodd" d="M8 0L8 1L9 1L9 2L10 2L10 3L11 3L11 1L13 1L13 0L11 0L11 1L9 1L9 0ZM14 0L14 1L16 1L16 2L15 2L15 3L16 3L16 4L13 4L13 3L14 3L14 2L12 2L12 4L11 4L11 5L10 5L10 4L9 4L9 5L10 5L10 8L9 8L9 6L8 6L8 8L9 8L9 10L8 10L8 11L7 11L7 10L6 10L6 9L7 9L7 8L6 8L6 9L5 9L5 8L3 8L3 10L2 10L2 8L0 8L0 11L1 11L1 13L2 13L2 16L1 16L1 15L0 15L0 16L1 16L1 17L0 17L0 21L2 21L2 19L3 19L3 18L4 18L4 19L5 19L5 20L3 20L3 21L7 21L7 20L8 20L8 22L9 22L9 24L8 24L8 26L9 26L9 27L8 27L8 29L10 29L10 26L9 26L9 24L10 24L10 25L11 25L11 26L13 26L13 27L11 27L11 29L12 29L12 28L13 28L13 29L18 29L18 28L13 28L13 27L14 27L14 26L15 26L15 27L16 27L16 26L17 26L17 27L18 27L18 26L20 26L20 28L19 28L19 29L22 29L22 28L23 28L23 29L26 29L26 28L27 28L27 27L28 27L28 28L29 28L29 25L28 25L28 26L27 26L27 24L26 24L26 23L28 23L28 21L29 21L29 18L28 18L28 16L29 16L29 11L28 11L28 12L26 12L26 9L23 9L23 8L22 8L22 9L23 9L23 10L21 10L21 11L16 11L16 10L15 10L15 8L16 8L16 9L17 9L17 10L20 10L20 8L21 8L21 3L20 3L20 2L21 2L21 1L20 1L20 0L18 0L18 1L16 1L16 0ZM18 1L18 2L17 2L17 4L20 4L20 3L18 3L18 2L19 2L19 1ZM12 4L12 5L11 5L11 7L12 7L12 9L10 9L10 10L9 10L9 11L8 11L8 12L7 12L7 11L6 11L6 10L5 10L5 9L4 9L4 10L5 10L5 11L6 11L6 12L7 12L7 13L6 13L6 14L4 14L4 13L3 13L3 14L4 14L4 15L3 15L3 16L2 16L2 17L4 17L4 18L5 18L5 17L6 17L6 18L8 18L8 19L9 19L9 21L13 21L13 22L12 22L12 23L13 23L13 24L12 24L12 25L15 25L15 26L16 26L16 25L15 25L15 24L16 24L16 23L14 23L14 22L17 22L17 21L19 21L19 22L20 22L20 20L21 20L21 19L22 19L22 20L25 20L25 19L24 19L24 17L27 17L27 16L26 16L26 15L27 15L27 13L25 13L25 12L24 12L24 11L23 11L23 13L25 13L25 14L24 14L24 15L23 15L23 16L22 16L22 12L21 12L21 18L20 18L20 16L18 16L18 15L20 15L20 12L18 12L18 13L16 13L16 17L15 17L15 15L12 15L12 16L11 16L11 15L10 15L10 14L14 14L14 13L15 13L15 12L16 12L16 11L15 11L15 12L14 12L14 9L13 9L13 7L14 7L14 8L15 8L15 7L16 7L16 5L14 5L14 6L13 6L13 7L12 7L12 5L13 5L13 4ZM19 5L19 7L18 7L18 6L17 6L17 9L19 9L19 8L20 8L20 5ZM14 6L14 7L15 7L15 6ZM28 8L28 9L27 9L27 10L29 10L29 8ZM12 9L12 10L10 10L10 11L9 11L9 12L8 12L8 13L7 13L7 14L6 14L6 15L5 15L5 16L6 16L6 17L10 17L10 18L9 18L9 19L10 19L10 20L11 20L11 19L12 19L12 20L14 20L14 21L15 21L15 20L16 20L16 21L17 21L17 18L18 18L18 19L19 19L19 17L18 17L18 16L17 16L17 18L15 18L15 17L13 17L13 16L12 16L12 17L10 17L10 15L9 15L9 14L8 14L8 13L10 13L10 12L11 12L11 13L14 13L14 12L13 12L13 11L12 11L12 10L13 10L13 9ZM1 10L1 11L2 11L2 10ZM3 11L3 12L4 12L4 11ZM6 15L6 16L8 16L8 15ZM24 15L24 16L25 16L25 15ZM10 18L10 19L11 19L11 18ZM13 18L13 19L14 19L14 20L15 20L15 18ZM22 18L22 19L23 19L23 18ZM26 18L26 19L27 19L27 18ZM6 19L6 20L7 20L7 19ZM21 21L21 24L24 24L24 21ZM25 21L25 23L26 23L26 21ZM10 22L10 24L11 24L11 22ZM22 22L22 23L23 23L23 22ZM18 24L18 25L19 25L19 24ZM21 25L21 26L22 26L22 27L21 27L21 28L22 28L22 27L23 27L23 28L25 28L25 27L27 27L27 26L25 26L25 25ZM23 26L23 27L25 27L25 26ZM0 0L0 7L7 7L7 0ZM1 1L1 6L6 6L6 1ZM2 2L2 5L5 5L5 2ZM22 0L22 7L29 7L29 0ZM23 1L23 6L28 6L28 1ZM24 2L24 5L27 5L27 2ZM0 22L0 29L7 29L7 22ZM1 23L1 28L6 28L6 23ZM2 24L2 27L5 27L5 24Z" fill="#282828"/></g></g></svg>
