<?xml version="1.0" encoding="UTF-8"?>
<svg xmlns="http://www.w3.org/2000/svg" version="1.1" width="90" height="90" viewBox="0 0 90 90"><rect x="0" y="0" width="90" height="90" fill="#ffffff"/><g transform="scale(2.903)"><g transform="translate(1,1)"><path fill-rule="evenodd" d="M8 0L8 2L9 2L9 3L10 3L10 2L9 2L9 1L11 1L11 2L12 2L12 0ZM13 0L13 3L11 3L11 5L9 5L9 4L8 4L8 9L10 9L10 7L11 7L11 5L12 5L12 7L13 7L13 6L14 6L14 8L15 8L15 9L14 9L14 10L13 10L13 8L11 8L11 9L12 9L12 11L11 11L11 10L9 10L9 11L7 11L7 10L6 10L6 11L7 11L7 12L5 12L5 10L4 10L4 9L3 9L3 8L0 8L0 9L2 9L2 10L0 10L0 11L3 11L3 12L2 12L2 13L0 13L0 16L1 16L1 15L2 15L2 17L3 17L3 15L4 15L4 16L5 16L5 17L4 17L4 19L2 19L2 18L0 18L0 19L2 19L2 20L0 20L0 21L2 21L2 20L3 20L3 21L4 21L4 20L5 20L5 21L7 21L7 20L5 20L5 19L8 19L8 20L10 20L10 21L8 21L8 22L10 22L10 23L12 23L12 22L10 22L10 21L11 21L11 20L13 20L13 16L11 16L11 15L12 15L12 14L11 14L11 12L13 12L13 11L15 11L15 14L13 14L13 15L14 15L14 22L13 22L13 23L14 23L14 26L13 26L13 24L11 24L11 25L10 25L10 24L9 24L9 23L8 23L8 24L9 24L9 25L10 25L10 26L8 26L8 29L10 29L10 28L9 28L9 27L11 27L11 28L12 28L12 29L17 29L17 27L22 27L22 26L21 26L21 25L23 25L23 26L24 26L24 27L23 27L23 28L20 28L20 29L27 29L27 28L26 28L26 27L29 27L29 25L28 25L28 24L29 24L29 16L28 16L28 15L29 15L29 12L28 12L28 11L29 11L29 10L28 10L28 9L29 9L29 8L27 8L27 9L25 9L25 8L21 8L21 6L20 6L20 7L19 7L19 4L20 4L20 3L21 3L21 1L20 1L20 2L19 2L19 3L18 3L18 1L19 1L19 0L17 0L17 5L16 5L16 7L17 7L17 5L18 5L18 9L19 9L19 10L17 10L17 8L15 8L15 5L13 5L13 3L14 3L14 4L16 4L16 3L14 3L14 2L15 2L15 0ZM9 6L9 7L10 7L10 6ZM5 8L5 9L7 9L7 8ZM19 8L19 9L20 9L20 8ZM21 9L21 10L20 10L20 11L17 11L17 12L18 12L18 15L17 15L17 14L16 14L16 15L15 15L15 16L16 16L16 15L17 15L17 18L18 18L18 19L17 19L17 20L16 20L16 19L15 19L15 20L16 20L16 21L15 21L15 22L16 22L16 21L17 21L17 23L15 23L15 24L17 24L17 25L16 25L16 27L15 27L15 28L16 28L16 27L17 27L17 25L18 25L18 26L20 26L20 25L19 25L19 24L18 24L18 22L19 22L19 23L20 23L20 21L19 21L19 20L20 20L20 19L22 19L22 20L23 20L23 19L24 19L24 20L25 20L25 19L26 19L26 22L25 22L25 24L26 24L26 25L25 25L25 26L28 26L28 25L27 25L27 23L26 23L26 22L27 22L27 19L26 19L26 18L25 18L25 15L26 15L26 17L27 17L27 15L26 15L26 14L25 14L25 11L26 11L26 12L27 12L27 11L28 11L28 10L25 10L25 9L24 9L24 10L22 10L22 9ZM24 10L24 11L20 11L20 12L19 12L19 15L18 15L18 16L19 16L19 19L18 19L18 20L19 20L19 19L20 19L20 18L21 18L21 17L20 17L20 15L21 15L21 12L22 12L22 14L23 14L23 15L24 15L24 11L25 11L25 10ZM9 11L9 12L8 12L8 13L9 13L9 12L10 12L10 11ZM2 13L2 15L3 15L3 14L4 14L4 15L5 15L5 14L4 14L4 13ZM6 13L6 14L7 14L7 15L6 15L6 16L7 16L7 15L8 15L8 16L10 16L10 15L11 15L11 14L10 14L10 15L9 15L9 14L7 14L7 13ZM22 16L22 19L23 19L23 18L24 18L24 19L25 19L25 18L24 18L24 17L23 17L23 16ZM6 17L6 18L10 18L10 17ZM11 17L11 19L10 19L10 20L11 20L11 19L12 19L12 17ZM21 21L21 24L24 24L24 21ZM22 22L22 23L23 23L23 22ZM11 25L11 27L12 27L12 25ZM13 27L13 28L14 28L14 27ZM24 27L24 28L25 28L25 27ZM28 28L28 29L29 29L29 28ZM0 0L0 7L7 7L7 0ZM1 1L1 6L6 6L6 1ZM2 2L2 5L5 5L5 2ZM22 0L22 7L29 7L29 0ZM23 1L23 6L28 6L28 1ZM24 2L24 5L27 5L27 2ZM0 22L0 29L7 29L7 22ZM1 23L1 28L6 28L6 23ZM2 24L2 27L5 27L5 24Z" fill="#282828"/></g></g></svg>
