<?xml version="1.0" encoding="UTF-8"?>
<svg xmlns="http://www.w3.org/2000/svg" version="1.1" width="90" height="90" viewBox="0 0 90 90"><rect x="0" y="0" width="90" height="90" fill="#ffffff"/><g transform="scale(2.903)"><g transform="translate(1,1)"><path fill-rule="evenodd" d="M8 0L8 4L9 4L9 5L8 5L8 7L9 7L9 6L10 6L10 9L11 9L11 8L12 8L12 9L13 9L13 11L12 11L12 12L11 12L11 13L10 13L10 14L9 14L9 16L6 16L6 15L8 15L8 14L5 14L5 13L4 13L4 12L5 12L5 11L7 11L7 10L6 10L6 9L7 9L7 8L4 8L4 9L2 9L2 8L0 8L0 9L1 9L1 10L2 10L2 11L0 11L0 14L1 14L1 13L2 13L2 14L3 14L3 16L4 16L4 17L5 17L5 18L6 18L6 19L5 19L5 20L6 20L6 21L8 21L8 22L11 22L11 24L12 24L12 25L13 25L13 26L15 26L15 27L14 27L14 28L13 28L13 27L12 27L12 28L11 28L11 29L12 29L12 28L13 28L13 29L15 29L15 28L16 28L16 29L17 29L17 28L18 28L18 26L19 26L19 27L20 27L20 26L21 26L21 28L20 28L20 29L21 29L21 28L22 28L22 29L23 29L23 26L24 26L24 25L25 25L25 26L27 26L27 29L28 29L28 28L29 28L29 21L26 21L26 20L23 20L23 18L26 18L26 19L29 19L29 17L23 17L23 18L22 18L22 20L20 20L20 19L19 19L19 18L20 18L20 16L21 16L21 17L22 17L22 16L23 16L23 15L24 15L24 16L26 16L26 15L24 15L24 14L25 14L25 13L26 13L26 14L27 14L27 15L28 15L28 16L29 16L29 13L27 13L27 12L26 12L26 11L27 11L27 10L28 10L28 11L29 11L29 10L28 10L28 9L29 9L29 8L25 8L25 9L24 9L24 8L23 8L23 10L21 10L21 11L23 11L23 12L24 12L24 10L25 10L25 13L24 13L24 14L23 14L23 15L20 15L20 16L19 16L19 17L18 17L18 18L17 18L17 17L16 17L16 18L15 18L15 19L14 19L14 17L15 17L15 16L18 16L18 15L19 15L19 13L20 13L20 14L21 14L21 13L22 13L22 12L19 12L19 11L18 11L18 10L20 10L20 9L21 9L21 5L20 5L20 2L21 2L21 1L20 1L20 0L15 0L15 1L14 1L14 0L13 0L13 1L11 1L11 2L12 2L12 5L13 5L13 6L12 6L12 7L11 7L11 3L10 3L10 2L9 2L9 0ZM15 1L15 2L13 2L13 3L15 3L15 8L16 8L16 9L14 9L14 6L13 6L13 7L12 7L12 8L13 8L13 9L14 9L14 11L13 11L13 12L12 12L12 13L11 13L11 14L10 14L10 15L11 15L11 14L12 14L12 13L14 13L14 14L13 14L13 15L12 15L12 16L11 16L11 20L9 20L9 19L6 19L6 20L8 20L8 21L11 21L11 22L12 22L12 21L13 21L13 22L14 22L14 21L13 21L13 20L14 20L14 19L13 19L13 17L14 17L14 15L15 15L15 14L16 14L16 15L17 15L17 14L16 14L16 13L19 13L19 12L16 12L16 11L17 11L17 10L18 10L18 9L19 9L19 8L20 8L20 6L19 6L19 5L17 5L17 7L16 7L16 4L17 4L17 2L16 2L16 1ZM18 1L18 2L19 2L19 1ZM18 6L18 7L17 7L17 8L19 8L19 6ZM4 9L4 10L3 10L3 12L4 12L4 11L5 11L5 9ZM8 9L8 12L6 12L6 13L9 13L9 12L10 12L10 11L11 11L11 10L9 10L9 9ZM16 9L16 10L15 10L15 11L14 11L14 13L16 13L16 12L15 12L15 11L16 11L16 10L17 10L17 9ZM25 9L25 10L27 10L27 9ZM3 13L3 14L4 14L4 16L5 16L5 17L6 17L6 18L9 18L9 17L10 17L10 16L9 16L9 17L6 17L6 16L5 16L5 14L4 14L4 13ZM0 15L0 16L2 16L2 15ZM12 16L12 17L13 17L13 16ZM0 17L0 18L3 18L3 19L2 19L2 20L0 20L0 21L3 21L3 19L4 19L4 18L3 18L3 17ZM12 19L12 20L11 20L11 21L12 21L12 20L13 20L13 19ZM16 20L16 21L15 21L15 22L16 22L16 23L14 23L14 25L15 25L15 26L16 26L16 25L17 25L17 26L18 26L18 25L17 25L17 24L16 24L16 23L17 23L17 22L19 22L19 23L20 23L20 21L19 21L19 20ZM16 21L16 22L17 22L17 21ZM21 21L21 24L24 24L24 21ZM22 22L22 23L23 23L23 22ZM25 22L25 23L26 23L26 24L25 24L25 25L26 25L26 24L27 24L27 26L28 26L28 23L27 23L27 22ZM8 23L8 25L9 25L9 26L10 26L10 27L11 27L11 25L9 25L9 24L10 24L10 23ZM12 23L12 24L13 24L13 23ZM19 25L19 26L20 26L20 25ZM22 25L22 26L23 26L23 25ZM8 27L8 29L9 29L9 27ZM16 27L16 28L17 28L17 27ZM25 27L25 28L24 28L24 29L26 29L26 27ZM0 0L0 7L7 7L7 0ZM1 1L1 6L6 6L6 1ZM2 2L2 5L5 5L5 2ZM22 0L22 7L29 7L29 0ZM23 1L23 6L28 6L28 1ZM24 2L24 5L27 5L27 2ZM0 22L0 29L7 29L7 22ZM1 23L1 28L6 28L6 23ZM2 24L2 27L5 27L5 24Z" fill="#282828"/></g></g></svg>
