<?xml version="1.0" encoding="UTF-8"?>
<svg xmlns="http://www.w3.org/2000/svg" version="1.1" width="90" height="90" viewBox="0 0 90 90"><rect x="0" y="0" width="90" height="90" fill="#ffffff"/><g transform="scale(2.903)"><g transform="translate(1,1)"><path fill-rule="evenodd" d="M9 0L9 1L8 1L8 2L9 2L9 3L8 3L8 4L10 4L10 7L11 7L11 4L12 4L12 5L13 5L13 6L12 6L12 9L14 9L14 10L15 10L15 11L16 11L16 12L13 12L13 13L12 13L12 11L13 11L13 10L11 10L11 11L10 11L10 9L11 9L11 8L6 8L6 9L7 9L7 10L6 10L6 11L5 11L5 10L4 10L4 11L3 11L3 9L5 9L5 8L0 8L0 10L1 10L1 9L2 9L2 11L0 11L0 13L1 13L1 16L2 16L2 14L5 14L5 15L7 15L7 14L8 14L8 15L9 15L9 14L10 14L10 16L11 16L11 13L12 13L12 14L13 14L13 13L16 13L16 14L15 14L15 15L14 15L14 16L13 16L13 15L12 15L12 17L14 17L14 18L10 18L10 17L8 17L8 18L6 18L6 17L7 17L7 16L6 16L6 17L5 17L5 16L3 16L3 17L4 17L4 18L3 18L3 20L2 20L2 21L5 21L5 20L4 20L4 18L6 18L6 19L7 19L7 20L6 20L6 21L8 21L8 23L9 23L9 24L8 24L8 29L13 29L13 28L12 28L12 27L13 27L13 26L11 26L11 28L9 28L9 26L10 26L10 25L11 25L11 24L10 24L10 23L11 23L11 21L12 21L12 22L13 22L13 21L14 21L14 22L15 22L15 23L14 23L14 24L13 24L13 23L12 23L12 25L14 25L14 28L16 28L16 26L17 26L17 27L20 27L20 28L19 28L19 29L20 29L20 28L21 28L21 29L22 29L22 28L23 28L23 27L24 27L24 29L25 29L25 27L26 27L26 25L27 25L27 28L26 28L26 29L27 29L27 28L28 28L28 26L29 26L29 23L28 23L28 22L29 22L29 21L28 21L28 20L29 20L29 19L28 19L28 18L29 18L29 17L28 17L28 16L26 16L26 14L27 14L27 15L28 15L28 14L29 14L29 13L28 13L28 14L27 14L27 13L21 13L21 12L23 12L23 11L24 11L24 12L26 12L26 11L27 11L27 9L28 9L28 8L27 8L27 9L26 9L26 8L25 8L25 9L24 9L24 8L23 8L23 9L22 9L22 8L21 8L21 9L19 9L19 10L17 10L17 9L18 9L18 8L17 8L17 9L16 9L16 7L17 7L17 6L18 6L18 7L19 7L19 6L20 6L20 7L21 7L21 4L20 4L20 5L17 5L17 4L18 4L18 3L17 3L17 2L18 2L18 1L19 1L19 3L20 3L20 2L21 2L21 1L20 1L20 0L16 0L16 1L11 1L11 2L10 2L10 0ZM16 1L16 2L15 2L15 5L16 5L16 4L17 4L17 3L16 3L16 2L17 2L17 1ZM12 2L12 4L14 4L14 2ZM10 3L10 4L11 4L11 3ZM8 5L8 7L9 7L9 5ZM13 6L13 8L14 8L14 6ZM15 6L15 7L16 7L16 6ZM15 9L15 10L16 10L16 9ZM21 9L21 10L19 10L19 11L17 11L17 12L18 12L18 13L17 13L17 16L16 16L16 15L15 15L15 16L14 16L14 17L15 17L15 18L14 18L14 19L12 19L12 21L13 21L13 20L14 20L14 21L15 21L15 22L16 22L16 21L17 21L17 24L16 24L16 23L15 23L15 24L14 24L14 25L15 25L15 26L16 26L16 25L17 25L17 26L18 26L18 25L19 25L19 26L20 26L20 24L18 24L18 23L19 23L19 22L20 22L20 18L21 18L21 17L22 17L22 19L21 19L21 20L22 20L22 19L23 19L23 20L24 20L24 19L26 19L26 20L25 20L25 21L26 21L26 20L28 20L28 19L27 19L27 18L28 18L28 17L27 17L27 18L24 18L24 19L23 19L23 17L26 17L26 16L25 16L25 15L24 15L24 14L23 14L23 15L22 15L22 14L20 14L20 12L21 12L21 10L22 10L22 11L23 11L23 10L22 10L22 9ZM7 10L7 11L6 11L6 12L5 12L5 11L4 11L4 12L5 12L5 13L6 13L6 14L7 14L7 13L6 13L6 12L7 12L7 11L8 11L8 14L9 14L9 10ZM2 11L2 12L1 12L1 13L3 13L3 11ZM19 11L19 12L20 12L20 11ZM10 12L10 13L11 13L11 12ZM18 13L18 15L19 15L19 13ZM21 15L21 16L22 16L22 17L23 17L23 16L22 16L22 15ZM15 16L15 17L16 17L16 18L15 18L15 19L14 19L14 20L15 20L15 19L16 19L16 20L17 20L17 19L16 19L16 18L17 18L17 17L18 17L18 20L19 20L19 18L20 18L20 17L19 17L19 16L17 16L17 17L16 17L16 16ZM0 17L0 21L1 21L1 17ZM8 18L8 19L9 19L9 18ZM10 19L10 20L11 20L11 19ZM8 20L8 21L9 21L9 20ZM21 21L21 24L24 24L24 21ZM27 21L27 22L25 22L25 23L26 23L26 24L25 24L25 25L26 25L26 24L28 24L28 23L27 23L27 22L28 22L28 21ZM9 22L9 23L10 23L10 22ZM22 22L22 23L23 23L23 22ZM9 24L9 25L10 25L10 24ZM17 24L17 25L18 25L18 24ZM23 25L23 26L24 26L24 25ZM17 28L17 29L18 29L18 28ZM0 0L0 7L7 7L7 0ZM1 1L1 6L6 6L6 1ZM2 2L2 5L5 5L5 2ZM22 0L22 7L29 7L29 0ZM23 1L23 6L28 6L28 1ZM24 2L24 5L27 5L27 2ZM0 22L0 29L7 29L7 22ZM1 23L1 28L6 28L6 23ZM2 24L2 27L5 27L5 24Z" fill="#282828"/></g></g></svg>
