<?xml version="1.0" encoding="UTF-8"?>
<svg xmlns="http://www.w3.org/2000/svg" version="1.1" width="90" height="90" viewBox="0 0 90 90"><rect x="0" y="0" width="90" height="90" fill="#ffffff"/><g transform="scale(2.903)"><g transform="translate(1,1)"><path fill-rule="evenodd" d="M12 0L12 1L13 1L13 0ZM17 0L17 1L15 1L15 3L14 3L14 5L13 5L13 4L11 4L11 3L8 3L8 4L9 4L9 5L8 5L8 7L9 7L9 8L6 8L6 9L7 9L7 10L6 10L6 11L7 11L7 12L6 12L6 13L5 13L5 12L4 12L4 14L6 14L6 15L8 15L8 16L10 16L10 17L9 17L9 18L8 18L8 17L7 17L7 16L6 16L6 17L5 17L5 18L4 18L4 16L3 16L3 18L2 18L2 20L3 20L3 21L8 21L8 23L9 23L9 24L8 24L8 29L11 29L11 28L9 28L9 25L12 25L12 23L11 23L11 22L12 22L12 21L11 21L11 18L12 18L12 20L13 20L13 21L14 21L14 22L13 22L13 23L14 23L14 24L13 24L13 25L14 25L14 26L13 26L13 27L12 27L12 29L16 29L16 27L17 27L17 26L18 26L18 28L17 28L17 29L18 29L18 28L19 28L19 29L20 29L20 28L21 28L21 29L22 29L22 28L23 28L23 27L24 27L24 29L25 29L25 27L26 27L26 25L28 25L28 26L27 26L27 28L26 28L26 29L27 29L27 28L28 28L28 26L29 26L29 25L28 25L28 24L29 24L29 23L28 23L28 22L29 22L29 21L28 21L28 20L29 20L29 19L28 19L28 18L29 18L29 17L28 17L28 16L26 16L26 14L27 14L27 15L28 15L28 14L29 14L29 13L28 13L28 14L27 14L27 13L21 13L21 12L23 12L23 11L24 11L24 12L26 12L26 11L27 11L27 9L28 9L28 8L27 8L27 9L26 9L26 8L25 8L25 9L24 9L24 8L23 8L23 9L22 9L22 8L21 8L21 9L19 9L19 10L17 10L17 9L18 9L18 8L17 8L17 6L18 6L18 7L19 7L19 6L20 6L20 7L21 7L21 4L20 4L20 5L17 5L17 4L18 4L18 3L17 3L17 2L18 2L18 1L19 1L19 3L20 3L20 2L21 2L21 1L20 1L20 0ZM8 1L8 2L9 2L9 1ZM10 1L10 2L11 2L11 1ZM16 3L16 4L15 4L15 5L14 5L14 6L13 6L13 5L11 5L11 4L10 4L10 6L9 6L9 7L10 7L10 6L11 6L11 8L10 8L10 9L9 9L9 10L8 10L8 12L7 12L7 13L6 13L6 14L8 14L8 15L10 15L10 16L11 16L11 17L12 17L12 18L13 18L13 17L12 17L12 15L13 15L13 14L14 14L14 15L15 15L15 16L14 16L14 18L15 18L15 19L17 19L17 20L15 20L15 22L14 22L14 23L15 23L15 24L18 24L18 25L19 25L19 26L20 26L20 24L19 24L19 23L17 23L17 22L18 22L18 21L19 21L19 22L20 22L20 18L21 18L21 17L22 17L22 19L21 19L21 20L22 20L22 19L23 19L23 20L24 20L24 19L26 19L26 20L25 20L25 21L26 21L26 20L28 20L28 19L27 19L27 18L28 18L28 17L27 17L27 18L24 18L24 19L23 19L23 17L26 17L26 16L25 16L25 15L24 15L24 14L23 14L23 15L22 15L22 14L20 14L20 12L21 12L21 10L22 10L22 11L23 11L23 10L22 10L22 9L21 9L21 10L19 10L19 11L17 11L17 10L16 10L16 9L17 9L17 8L16 8L16 6L17 6L17 5L16 5L16 4L17 4L17 3ZM15 5L15 6L14 6L14 7L15 7L15 6L16 6L16 5ZM12 6L12 8L13 8L13 9L10 9L10 11L11 11L11 12L9 12L9 13L8 13L8 14L10 14L10 15L11 15L11 14L13 14L13 13L11 13L11 12L14 12L14 13L15 13L15 12L16 12L16 10L15 10L15 11L11 11L11 10L13 10L13 9L15 9L15 8L13 8L13 6ZM0 8L0 13L1 13L1 12L2 12L2 14L0 14L0 15L1 15L1 17L0 17L0 21L1 21L1 17L2 17L2 14L3 14L3 11L4 11L4 10L3 10L3 9L5 9L5 8ZM2 10L2 11L3 11L3 10ZM19 11L19 12L20 12L20 11ZM17 12L17 13L18 13L18 15L19 15L19 13L18 13L18 12ZM10 13L10 14L11 14L11 13ZM16 14L16 15L17 15L17 14ZM21 15L21 16L22 16L22 17L23 17L23 16L22 16L22 15ZM15 16L15 18L17 18L17 17L18 17L18 20L19 20L19 18L20 18L20 17L19 17L19 16L17 16L17 17L16 17L16 16ZM6 17L6 18L5 18L5 19L4 19L4 18L3 18L3 19L4 19L4 20L7 20L7 19L8 19L8 20L10 20L10 19L8 19L8 18L7 18L7 17ZM6 18L6 19L7 19L7 18ZM13 19L13 20L14 20L14 19ZM16 21L16 22L15 22L15 23L16 23L16 22L17 22L17 21ZM21 21L21 24L24 24L24 21ZM27 21L27 22L25 22L25 23L26 23L26 24L25 24L25 25L26 25L26 24L27 24L27 22L28 22L28 21ZM22 22L22 23L23 23L23 22ZM10 23L10 24L11 24L11 23ZM15 25L15 26L14 26L14 27L13 27L13 28L14 28L14 27L15 27L15 26L16 26L16 25ZM23 25L23 26L24 26L24 25ZM10 26L10 27L11 27L11 26ZM19 27L19 28L20 28L20 27ZM0 0L0 7L7 7L7 0ZM1 1L1 6L6 6L6 1ZM2 2L2 5L5 5L5 2ZM22 0L22 7L29 7L29 0ZM23 1L23 6L28 6L28 1ZM24 2L24 5L27 5L27 2ZM0 22L0 29L7 29L7 22ZM1 23L1 28L6 28L6 23ZM2 24L2 27L5 27L5 24Z" fill="#282828"/></g></g></svg>
