<?xml version="1.0" encoding="UTF-8"?>
<svg xmlns="http://www.w3.org/2000/svg" version="1.1" width="90" height="90" viewBox="0 0 90 90"><rect x="0" y="0" width="90" height="90" fill="#ffffff"/><g transform="scale(2.903)"><g transform="translate(1,1)"><path fill-rule="evenodd" d="M10 0L10 2L11 2L11 0ZM12 0L12 1L13 1L13 2L12 2L12 4L13 4L13 3L14 3L14 4L15 4L15 5L17 5L17 6L16 6L16 8L17 8L17 6L18 6L18 8L19 8L19 6L18 6L18 5L19 5L19 4L16 4L16 2L17 2L17 1L16 1L16 0ZM18 0L18 2L19 2L19 0ZM20 0L20 1L21 1L21 0ZM8 1L8 2L9 2L9 1ZM14 2L14 3L15 3L15 2ZM20 2L20 7L21 7L21 2ZM8 3L8 4L9 4L9 5L8 5L8 7L9 7L9 8L6 8L6 9L5 9L5 8L0 8L0 11L1 11L1 12L3 12L3 13L7 13L7 14L3 14L3 16L2 16L2 15L1 15L1 14L2 14L2 13L0 13L0 21L1 21L1 16L2 16L2 17L4 17L4 18L5 18L5 21L7 21L7 20L8 20L8 19L10 19L10 20L9 20L9 21L8 21L8 23L10 23L10 24L8 24L8 29L9 29L9 26L10 26L10 27L11 27L11 25L12 25L12 26L13 26L13 27L12 27L12 29L13 29L13 28L14 28L14 29L18 29L18 28L16 28L16 26L17 26L17 27L18 27L18 25L16 25L16 23L17 23L17 22L15 22L15 23L14 23L14 24L15 24L15 25L12 25L12 23L13 23L13 22L11 22L11 23L10 23L10 22L9 22L9 21L11 21L11 19L10 19L10 18L8 18L8 17L9 17L9 16L10 16L10 17L12 17L12 18L13 18L13 19L12 19L12 21L13 21L13 20L14 20L14 21L17 21L17 20L14 20L14 19L18 19L18 20L20 20L20 22L19 22L19 21L18 21L18 23L19 23L19 24L20 24L20 25L19 25L19 26L20 26L20 28L19 28L19 29L20 29L20 28L21 28L21 29L27 29L27 28L28 28L28 26L29 26L29 25L28 25L28 24L29 24L29 23L28 23L28 22L29 22L29 21L28 21L28 20L29 20L29 19L28 19L28 18L29 18L29 17L28 17L28 16L26 16L26 17L22 17L22 18L23 18L23 19L24 19L24 20L20 20L20 19L21 19L21 17L17 17L17 16L16 16L16 15L17 15L17 14L15 14L15 15L14 15L14 16L15 16L15 17L12 17L12 15L13 15L13 14L11 14L11 16L10 16L10 14L8 14L8 13L11 13L11 12L9 12L9 9L10 9L10 11L11 11L11 9L12 9L12 10L13 10L13 11L12 11L12 13L13 13L13 12L14 12L14 13L17 13L17 11L18 11L18 10L19 10L19 9L18 9L18 10L17 10L17 11L16 11L16 9L12 9L12 7L13 7L13 5L11 5L11 6L10 6L10 4L11 4L11 3ZM9 6L9 7L10 7L10 6ZM11 6L11 7L12 7L12 6ZM14 6L14 8L15 8L15 6ZM10 8L10 9L11 9L11 8ZM21 8L21 9L20 9L20 10L22 10L22 11L23 11L23 10L24 10L24 12L26 12L26 11L27 11L27 12L29 12L29 11L27 11L27 9L28 9L28 8L27 8L27 9L26 9L26 8L25 8L25 9L24 9L24 8L23 8L23 10L22 10L22 8ZM2 9L2 10L1 10L1 11L2 11L2 10L3 10L3 11L4 11L4 10L3 10L3 9ZM6 9L6 10L7 10L7 11L6 11L6 12L7 12L7 13L8 13L8 12L7 12L7 11L8 11L8 9ZM14 11L14 12L16 12L16 11ZM18 13L18 15L19 15L19 14L20 14L20 16L21 16L21 15L22 15L22 14L23 14L23 13L21 13L21 14L20 14L20 13ZM24 13L24 14L25 14L25 15L26 15L26 14L27 14L27 15L28 15L28 14L29 14L29 13L28 13L28 14L27 14L27 13ZM6 15L6 16L7 16L7 15ZM8 15L8 16L9 16L9 15ZM23 15L23 16L24 16L24 15ZM4 16L4 17L5 17L5 16ZM6 17L6 18L7 18L7 19L6 19L6 20L7 20L7 19L8 19L8 18L7 18L7 17ZM15 17L15 18L17 18L17 17ZM27 17L27 18L28 18L28 17ZM18 18L18 19L20 19L20 18ZM25 18L25 23L26 23L26 24L25 24L25 25L20 25L20 26L21 26L21 27L22 27L22 28L25 28L25 27L22 27L22 26L26 26L26 28L27 28L27 26L26 26L26 25L27 25L27 22L28 22L28 21L26 21L26 20L28 20L28 19L26 19L26 18ZM2 20L2 21L3 21L3 20ZM21 21L21 24L24 24L24 21ZM22 22L22 23L23 23L23 22ZM10 24L10 25L11 25L11 24ZM15 25L15 26L16 26L16 25ZM14 27L14 28L15 28L15 27ZM0 0L0 7L7 7L7 0ZM1 1L1 6L6 6L6 1ZM2 2L2 5L5 5L5 2ZM22 0L22 7L29 7L29 0ZM23 1L23 6L28 6L28 1ZM24 2L24 5L27 5L27 2ZM0 22L0 29L7 29L7 22ZM1 23L1 28L6 28L6 23ZM2 24L2 27L5 27L5 24Z" fill="#282828"/></g></g></svg>
