<?xml version="1.0" encoding="UTF-8"?>
<svg xmlns="http://www.w3.org/2000/svg" version="1.1" width="90" height="90" viewBox="0 0 90 90"><rect x="0" y="0" width="90" height="90" fill="#ffffff"/><g transform="scale(2.903)"><g transform="translate(1,1)"><path fill-rule="evenodd" d="M9 0L9 1L8 1L8 2L9 2L9 3L8 3L8 4L10 4L10 7L11 7L11 4L12 4L12 5L13 5L13 4L15 4L15 6L14 6L14 8L13 8L13 6L12 6L12 9L14 9L14 10L11 10L11 11L10 11L10 9L11 9L11 8L6 8L6 9L5 9L5 8L0 8L0 11L1 11L1 12L2 12L2 13L1 13L1 14L0 14L0 16L1 16L1 17L0 17L0 21L1 21L1 18L2 18L2 16L1 16L1 14L2 14L2 15L3 15L3 14L4 14L4 16L6 16L6 17L7 17L7 16L6 16L6 15L7 15L7 14L6 14L6 13L7 13L7 12L6 12L6 11L8 11L8 18L5 18L5 20L4 20L4 19L3 19L3 20L4 20L4 21L5 21L5 20L6 20L6 21L8 21L8 23L9 23L9 24L8 24L8 29L9 29L9 25L11 25L11 22L9 22L9 21L8 21L8 18L9 18L9 20L10 20L10 18L11 18L11 21L12 21L12 22L13 22L13 23L12 23L12 25L13 25L13 24L14 24L14 25L16 25L16 26L15 26L15 27L14 27L14 28L15 28L15 29L16 29L16 27L17 27L17 26L19 26L19 27L20 27L20 28L19 28L19 29L20 29L20 28L21 28L21 27L24 27L24 29L25 29L25 27L26 27L26 25L27 25L27 28L26 28L26 29L27 29L27 28L28 28L28 26L29 26L29 24L26 24L26 23L25 23L25 22L27 22L27 23L28 23L28 22L29 22L29 21L28 21L28 20L29 20L29 19L28 19L28 18L29 18L29 17L28 17L28 16L26 16L26 14L27 14L27 15L28 15L28 14L29 14L29 12L28 12L28 11L27 11L27 9L28 9L28 8L27 8L27 9L26 9L26 8L25 8L25 9L24 9L24 8L23 8L23 9L22 9L22 8L21 8L21 6L20 6L20 7L19 7L19 6L18 6L18 5L19 5L19 4L20 4L20 5L21 5L21 4L20 4L20 3L21 3L21 0L20 0L20 2L18 2L18 1L19 1L19 0L16 0L16 1L15 1L15 0L14 0L14 1L15 1L15 2L16 2L16 4L15 4L15 3L13 3L13 4L12 4L12 2L13 2L13 1L11 1L11 2L10 2L10 0ZM17 2L17 5L18 5L18 4L19 4L19 3L18 3L18 2ZM10 3L10 4L11 4L11 3ZM8 5L8 7L9 7L9 5ZM15 6L15 7L16 7L16 6ZM17 6L17 12L16 12L16 11L15 11L15 10L16 10L16 9L15 9L15 8L14 8L14 9L15 9L15 10L14 10L14 11L12 11L12 13L11 13L11 12L10 12L10 13L9 13L9 16L10 16L10 17L9 17L9 18L10 18L10 17L11 17L11 18L13 18L13 19L12 19L12 21L14 21L14 22L16 22L16 21L17 21L17 24L16 24L16 23L14 23L14 24L16 24L16 25L19 25L19 26L24 26L24 25L20 25L20 24L18 24L18 21L17 21L17 20L20 20L20 19L22 19L22 20L24 20L24 19L26 19L26 20L25 20L25 21L26 21L26 20L28 20L28 19L27 19L27 18L28 18L28 17L27 17L27 18L24 18L24 19L23 19L23 18L22 18L22 17L26 17L26 16L25 16L25 15L24 15L24 14L22 14L22 13L23 13L23 12L24 12L24 13L27 13L27 14L28 14L28 13L27 13L27 11L26 11L26 12L24 12L24 11L25 11L25 10L23 10L23 11L21 11L21 10L20 10L20 9L21 9L21 8L19 8L19 7L18 7L18 6ZM1 9L1 11L4 11L4 10L5 10L5 11L6 11L6 10L9 10L9 9L6 9L6 10L5 10L5 9L4 9L4 10L3 10L3 9ZM18 9L18 11L19 11L19 9ZM14 11L14 12L13 12L13 13L12 13L12 14L13 14L13 13L14 13L14 14L15 14L15 15L14 15L14 16L13 16L13 15L12 15L12 17L13 17L13 18L15 18L15 21L16 21L16 19L18 19L18 18L21 18L21 17L18 17L18 18L17 18L17 17L16 17L16 18L15 18L15 17L14 17L14 16L15 16L15 15L18 15L18 16L19 16L19 15L18 15L18 14L20 14L20 16L21 16L21 15L22 15L22 16L23 16L23 15L22 15L22 14L20 14L20 13L16 13L16 14L15 14L15 13L14 13L14 12L15 12L15 11ZM2 13L2 14L3 14L3 13ZM10 13L10 15L11 15L11 13ZM5 14L5 15L6 15L6 14ZM3 17L3 18L4 18L4 17ZM6 19L6 20L7 20L7 19ZM19 21L19 22L20 22L20 21ZM21 21L21 24L24 24L24 21ZM27 21L27 22L28 22L28 21ZM22 22L22 23L23 23L23 22ZM25 24L25 25L26 25L26 24ZM11 26L11 28L10 28L10 29L12 29L12 27L13 27L13 26ZM17 28L17 29L18 29L18 28ZM0 0L0 7L7 7L7 0ZM1 1L1 6L6 6L6 1ZM2 2L2 5L5 5L5 2ZM22 0L22 7L29 7L29 0ZM23 1L23 6L28 6L28 1ZM24 2L24 5L27 5L27 2ZM0 22L0 29L7 29L7 22ZM1 23L1 28L6 28L6 23ZM2 24L2 27L5 27L5 24Z" fill="#282828"/></g></g></svg>
