<?xml version="1.0" encoding="UTF-8"?>
<svg xmlns="http://www.w3.org/2000/svg" version="1.1" width="90" height="90" viewBox="0 0 90 90"><rect x="0" y="0" width="90" height="90" fill="#ffffff"/><g transform="scale(3.333)"><g transform="translate(1,1)"><path fill-rule="evenodd" d="M9 0L9 1L8 1L8 2L9 2L9 3L8 3L8 4L9 4L9 5L8 5L8 7L9 7L9 8L6 8L6 9L8 9L8 11L7 11L7 10L4 10L4 9L5 9L5 8L0 8L0 9L2 9L2 11L4 11L4 12L2 12L2 13L1 13L1 10L0 10L0 17L1 17L1 14L3 14L3 16L2 16L2 17L3 17L3 16L4 16L4 15L5 15L5 17L7 17L7 16L6 16L6 15L7 15L7 14L8 14L8 15L9 15L9 14L10 14L10 15L11 15L11 16L9 16L9 17L8 17L8 19L9 19L9 18L10 18L10 20L8 20L8 25L10 25L10 23L9 23L9 22L10 22L10 21L11 21L11 20L12 20L12 21L13 21L13 20L12 20L12 19L11 19L11 18L10 18L10 17L13 17L13 19L14 19L14 21L15 21L15 23L14 23L14 25L16 25L16 24L17 24L17 25L19 25L19 24L20 24L20 22L21 22L21 23L22 23L22 21L23 21L23 20L22 20L22 19L23 19L23 18L24 18L24 21L25 21L25 18L24 18L24 17L25 17L25 16L24 16L24 15L25 15L25 14L24 14L24 13L25 13L25 9L24 9L24 8L23 8L23 9L22 9L22 8L21 8L21 9L22 9L22 11L23 11L23 12L24 12L24 13L23 13L23 14L24 14L24 15L23 15L23 16L22 16L22 17L21 17L21 16L14 16L14 17L13 17L13 16L12 16L12 15L18 15L18 14L17 14L17 13L19 13L19 14L20 14L20 15L22 15L22 14L20 14L20 13L22 13L22 12L21 12L21 11L20 11L20 8L19 8L19 10L18 10L18 11L17 11L17 9L18 9L18 8L15 8L15 6L16 6L16 7L17 7L17 6L16 6L16 5L17 5L17 4L16 4L16 5L14 5L14 8L13 8L13 9L14 9L14 8L15 8L15 9L16 9L16 10L15 10L15 12L14 12L14 13L13 13L13 11L12 11L12 13L13 13L13 14L12 14L12 15L11 15L11 14L10 14L10 12L11 12L11 11L10 11L10 10L11 10L11 9L12 9L12 7L13 7L13 6L12 6L12 7L11 7L11 6L10 6L10 7L9 7L9 5L12 5L12 4L9 4L9 3L11 3L11 2L10 2L10 0ZM11 0L11 1L12 1L12 3L13 3L13 4L15 4L15 3L13 3L13 1L14 1L14 2L16 2L16 3L17 3L17 0L16 0L16 1L14 1L14 0L13 0L13 1L12 1L12 0ZM9 8L9 9L11 9L11 8ZM5 11L5 12L4 12L4 14L5 14L5 15L6 15L6 14L7 14L7 13L6 13L6 12L7 12L7 11ZM16 11L16 13L14 13L14 14L16 14L16 13L17 13L17 11ZM19 11L19 13L20 13L20 11ZM8 12L8 13L9 13L9 12ZM23 16L23 17L22 17L22 18L23 18L23 17L24 17L24 16ZM14 17L14 19L15 19L15 20L16 20L16 19L15 19L15 17ZM17 17L17 20L20 20L20 17ZM18 18L18 19L19 19L19 18ZM16 21L16 23L19 23L19 22L17 22L17 21ZM24 22L24 24L23 24L23 25L25 25L25 22ZM11 24L11 25L13 25L13 24ZM21 24L21 25L22 25L22 24ZM0 0L0 7L7 7L7 0ZM1 1L1 6L6 6L6 1ZM2 2L2 5L5 5L5 2ZM18 0L18 7L25 7L25 0ZM19 1L19 6L24 6L24 1ZM20 2L20 5L23 5L23 2ZM0 18L0 25L7 25L7 18ZM1 19L1 24L6 24L6 19ZM2 20L2 23L5 23L5 20Z" fill="#282828"/></g></g></svg>
