<?xml version="1.0" encoding="UTF-8"?>
<svg xmlns="http://www.w3.org/2000/svg" version="1.1" width="100" height="100" viewBox="0 0 100 100"><rect x="0" y="0" width="100" height="100" fill="#ffffff"/><g transform="scale(3.226)"><g transform="translate(1,1)"><path fill-rule="evenodd" d="M9 0L9 1L8 1L8 2L9 2L9 3L8 3L8 4L10 4L10 7L11 7L11 4L12 4L12 5L13 5L13 6L12 6L12 9L13 9L13 8L14 8L14 9L15 9L15 10L17 10L17 9L18 9L18 11L19 11L19 10L20 10L20 9L18 9L18 8L19 8L19 4L20 4L20 5L21 5L21 4L20 4L20 3L21 3L21 0L15 0L15 1L17 1L17 2L16 2L16 4L12 4L12 2L13 2L13 1L11 1L11 2L10 2L10 0ZM18 1L18 2L17 2L17 3L18 3L18 4L19 4L19 3L20 3L20 1ZM14 2L14 3L15 3L15 2ZM10 3L10 4L11 4L11 3ZM16 4L16 5L17 5L17 7L16 7L16 6L15 6L15 7L14 7L14 6L13 6L13 7L14 7L14 8L15 8L15 7L16 7L16 9L17 9L17 8L18 8L18 5L17 5L17 4ZM8 5L8 7L9 7L9 5ZM20 6L20 7L21 7L21 6ZM0 8L0 9L1 9L1 11L0 11L0 14L1 14L1 11L2 11L2 9L3 9L3 10L6 10L6 11L5 11L5 13L4 13L4 14L3 14L3 13L2 13L2 15L0 15L0 16L2 16L2 15L4 15L4 14L5 14L5 13L7 13L7 12L6 12L6 11L7 11L7 10L6 10L6 9L9 9L9 11L8 11L8 12L9 12L9 13L10 13L10 14L9 14L9 15L8 15L8 14L6 14L6 15L5 15L5 16L3 16L3 17L4 17L4 18L3 18L3 20L2 20L2 21L5 21L5 20L6 20L6 21L7 21L7 20L8 20L8 23L9 23L9 24L8 24L8 29L9 29L9 27L10 27L10 29L12 29L12 27L13 27L13 26L11 26L11 25L9 25L9 24L11 24L11 23L9 23L9 21L10 21L10 20L8 20L8 19L7 19L7 18L5 18L5 16L6 16L6 17L8 17L8 18L9 18L9 19L11 19L11 21L12 21L12 22L13 22L13 23L12 23L12 25L13 25L13 24L14 24L14 25L16 25L16 26L15 26L15 27L14 27L14 28L15 28L15 29L18 29L18 28L16 28L16 26L17 26L17 27L18 27L18 25L16 25L16 23L17 23L17 22L15 22L15 21L18 21L18 22L19 22L19 23L18 23L18 24L20 24L20 25L23 25L23 27L24 27L24 28L26 28L26 29L27 29L27 28L28 28L28 26L29 26L29 25L28 25L28 24L26 24L26 23L25 23L25 22L27 22L27 23L28 23L28 22L29 22L29 21L28 21L28 20L29 20L29 19L28 19L28 18L29 18L29 17L28 17L28 16L26 16L26 17L28 17L28 18L27 18L27 19L28 19L28 20L27 20L27 21L25 21L25 20L26 20L26 19L24 19L24 18L25 18L25 17L22 17L22 16L21 16L21 14L23 14L23 16L25 16L25 13L27 13L27 12L26 12L26 11L25 11L25 10L26 10L26 8L25 8L25 9L24 9L24 8L23 8L23 9L22 9L22 8L21 8L21 11L20 11L20 12L23 12L23 11L25 11L25 13L18 13L18 12L17 12L17 11L16 11L16 12L17 12L17 14L16 14L16 13L12 13L12 11L13 11L13 10L11 10L11 11L10 11L10 9L11 9L11 8L6 8L6 9L5 9L5 8ZM27 8L27 10L28 10L28 8ZM14 11L14 12L15 12L15 11ZM28 11L28 13L29 13L29 11ZM10 12L10 13L11 13L11 15L10 15L10 16L11 16L11 17L10 17L10 18L13 18L13 19L12 19L12 21L15 21L15 20L18 20L18 21L19 21L19 22L20 22L20 21L19 21L19 20L20 20L20 18L18 18L18 17L21 17L21 16L20 16L20 14L17 14L17 15L16 15L16 16L18 16L18 17L14 17L14 16L15 16L15 15L14 15L14 16L13 16L13 17L12 17L12 15L13 15L13 14L12 14L12 13L11 13L11 12ZM26 14L26 15L27 15L27 14ZM6 15L6 16L8 16L8 15ZM0 17L0 21L1 21L1 18L2 18L2 17ZM4 18L4 20L5 20L5 18ZM15 18L15 19L14 19L14 20L15 20L15 19L17 19L17 18ZM22 18L22 20L23 20L23 18ZM6 19L6 20L7 20L7 19ZM21 21L21 24L24 24L24 21ZM27 21L27 22L28 22L28 21ZM22 22L22 23L23 23L23 22ZM14 23L14 24L15 24L15 23ZM25 24L25 25L24 25L24 26L25 26L25 25L26 25L26 28L27 28L27 25L26 25L26 24ZM20 26L20 28L19 28L19 29L20 29L20 28L22 28L22 26ZM0 0L0 7L7 7L7 0ZM1 1L1 6L6 6L6 1ZM2 2L2 5L5 5L5 2ZM22 0L22 7L29 7L29 0ZM23 1L23 6L28 6L28 1ZM24 2L24 5L27 5L27 2ZM0 22L0 29L7 29L7 22ZM1 23L1 28L6 28L6 23ZM2 24L2 27L5 27L5 24Z" fill="#282828"/></g></g></svg>
