<?xml version="1.0" encoding="UTF-8"?>
<svg xmlns="http://www.w3.org/2000/svg" version="1.1" width="90" height="90" viewBox="0 0 90 90"><rect x="0" y="0" width="90" height="90" fill="#ffffff"/><g transform="scale(2.903)"><g transform="translate(1,1)"><path fill-rule="evenodd" d="M8 0L8 4L9 4L9 5L8 5L8 7L9 7L9 6L10 6L10 9L11 9L11 8L12 8L12 9L13 9L13 10L15 10L15 11L14 11L14 12L13 12L13 11L12 11L12 12L11 12L11 13L10 13L10 14L9 14L9 13L7 13L7 12L6 12L6 13L3 13L3 14L1 14L1 13L2 13L2 12L4 12L4 11L3 11L3 10L5 10L5 9L7 9L7 8L4 8L4 9L2 9L2 8L0 8L0 9L2 9L2 10L1 10L1 11L0 11L0 15L3 15L3 18L2 18L2 17L0 17L0 18L2 18L2 20L0 20L0 21L2 21L2 20L5 20L5 19L3 19L3 18L6 18L6 19L7 19L7 20L6 20L6 21L8 21L8 22L9 22L9 23L8 23L8 25L9 25L9 27L8 27L8 29L10 29L10 22L11 22L11 24L12 24L12 25L13 25L13 26L15 26L15 27L14 27L14 28L13 28L13 27L12 27L12 28L11 28L11 29L12 29L12 28L13 28L13 29L15 29L15 28L16 28L16 29L17 29L17 28L19 28L19 27L20 27L20 29L23 29L23 28L24 28L24 29L26 29L26 28L24 28L24 27L23 27L23 26L22 26L22 25L24 25L24 26L25 26L25 27L26 27L26 26L27 26L27 29L28 29L28 28L29 28L29 25L28 25L28 24L29 24L29 21L27 21L27 23L28 23L28 24L27 24L27 25L26 25L26 23L25 23L25 21L26 21L26 19L25 19L25 17L26 17L26 14L25 14L25 13L27 13L27 16L28 16L28 15L29 15L29 13L27 13L27 12L29 12L29 10L28 10L28 9L29 9L29 8L25 8L25 9L24 9L24 8L23 8L23 9L22 9L22 10L20 10L20 11L22 11L22 12L20 12L20 13L22 13L22 14L21 14L21 15L20 15L20 16L19 16L19 15L18 15L18 14L19 14L19 13L18 13L18 14L17 14L17 13L15 13L15 12L19 12L19 9L21 9L21 8L20 8L20 7L21 7L21 6L20 6L20 5L19 5L19 3L18 3L18 2L20 2L20 3L21 3L21 2L20 2L20 1L21 1L21 0L20 0L20 1L19 1L19 0L18 0L18 2L16 2L16 3L15 3L15 4L14 4L14 5L16 5L16 9L14 9L14 7L15 7L15 6L14 6L14 7L13 7L13 6L12 6L12 7L11 7L11 3L10 3L10 2L9 2L9 0ZM13 0L13 1L11 1L11 2L12 2L12 5L13 5L13 2L15 2L15 1L16 1L16 0L15 0L15 1L14 1L14 0ZM16 3L16 5L17 5L17 3ZM18 5L18 6L17 6L17 7L18 7L18 8L17 8L17 9L16 9L16 11L18 11L18 9L19 9L19 7L20 7L20 6L19 6L19 5ZM18 6L18 7L19 7L19 6ZM12 7L12 8L13 8L13 7ZM8 9L8 11L9 11L9 12L10 12L10 11L11 11L11 10L9 10L9 9ZM25 9L25 10L24 10L24 11L23 11L23 10L22 10L22 11L23 11L23 12L22 12L22 13L25 13L25 10L27 10L27 11L26 11L26 12L27 12L27 11L28 11L28 10L27 10L27 9ZM6 10L6 11L7 11L7 10ZM12 12L12 13L11 13L11 14L12 14L12 13L13 13L13 14L15 14L15 13L13 13L13 12ZM6 13L6 14L7 14L7 13ZM3 14L3 15L4 15L4 14ZM8 14L8 15L9 15L9 16L7 16L7 15L5 15L5 16L4 16L4 17L5 17L5 16L7 16L7 17L6 17L6 18L7 18L7 19L8 19L8 21L11 21L11 22L12 22L12 21L13 21L13 22L16 22L16 23L18 23L18 21L19 21L19 20L21 20L21 19L20 19L20 18L22 18L22 17L25 17L25 14L23 14L23 15L24 15L24 16L22 16L22 15L21 15L21 17L19 17L19 16L17 16L17 17L19 17L19 19L18 19L18 18L16 18L16 19L15 19L15 18L13 18L13 17L12 17L12 16L13 16L13 15L12 15L12 16L10 16L10 15L9 15L9 14ZM14 15L14 17L16 17L16 16L15 16L15 15ZM9 17L9 18L11 18L11 17ZM27 17L27 19L29 19L29 17ZM10 19L10 20L11 20L11 21L12 21L12 20L13 20L13 21L16 21L16 22L17 22L17 20L18 20L18 19L17 19L17 20L15 20L15 19L14 19L14 20L13 20L13 19L12 19L12 20L11 20L11 19ZM23 19L23 20L24 20L24 19ZM21 21L21 24L24 24L24 21ZM22 22L22 23L23 23L23 22ZM12 23L12 24L13 24L13 23ZM14 23L14 25L15 25L15 26L16 26L16 28L17 28L17 27L18 27L18 26L16 26L16 25L19 25L19 24L15 24L15 23ZM25 25L25 26L26 26L26 25ZM27 25L27 26L28 26L28 25ZM21 27L21 28L22 28L22 27ZM0 0L0 7L7 7L7 0ZM1 1L1 6L6 6L6 1ZM2 2L2 5L5 5L5 2ZM22 0L22 7L29 7L29 0ZM23 1L23 6L28 6L28 1ZM24 2L24 5L27 5L27 2ZM0 22L0 29L7 29L7 22ZM1 23L1 28L6 28L6 23ZM2 24L2 27L5 27L5 24Z" fill="#282828"/></g></g></svg>
