<?xml version="1.0" encoding="UTF-8"?>
<svg xmlns="http://www.w3.org/2000/svg" version="1.1" width="90" height="90" viewBox="0 0 90 90"><rect x="0" y="0" width="90" height="90" fill="#ffffff"/><g transform="scale(2.903)"><g transform="translate(1,1)"><path fill-rule="evenodd" d="M8 0L8 4L9 4L9 5L8 5L8 7L9 7L9 6L10 6L10 9L11 9L11 8L12 8L12 9L13 9L13 11L12 11L12 12L11 12L11 13L10 13L10 14L11 14L11 16L12 16L12 17L13 17L13 18L15 18L15 19L14 19L14 20L13 20L13 19L12 19L12 20L11 20L11 19L10 19L10 18L11 18L11 17L10 17L10 16L9 16L9 17L8 17L8 16L6 16L6 15L9 15L9 14L3 14L3 13L4 13L4 11L7 11L7 10L6 10L6 9L7 9L7 8L4 8L4 9L5 9L5 10L3 10L3 9L2 9L2 8L0 8L0 10L3 10L3 11L2 11L2 12L1 12L1 13L0 13L0 14L1 14L1 15L0 15L0 18L2 18L2 17L3 17L3 16L5 16L5 17L4 17L4 18L6 18L6 19L8 19L8 18L9 18L9 19L10 19L10 20L9 20L9 21L8 21L8 20L6 20L6 21L8 21L8 22L9 22L9 23L8 23L8 25L9 25L9 24L10 24L10 26L9 26L9 27L8 27L8 29L12 29L12 28L13 28L13 29L16 29L16 28L15 28L15 27L17 27L17 28L18 28L18 26L19 26L19 27L21 27L21 28L20 28L20 29L21 29L21 28L24 28L24 29L26 29L26 28L24 28L24 27L22 27L22 26L21 26L21 25L24 25L24 26L25 26L25 27L26 27L26 26L27 26L27 29L28 29L28 28L29 28L29 25L28 25L28 24L27 24L27 25L26 25L26 23L25 23L25 21L26 21L26 19L25 19L25 17L26 17L26 14L25 14L25 13L27 13L27 16L28 16L28 15L29 15L29 13L27 13L27 12L28 12L28 11L29 11L29 10L28 10L28 9L29 9L29 8L25 8L25 9L24 9L24 8L23 8L23 9L22 9L22 10L21 10L21 11L22 11L22 12L21 12L21 13L22 13L22 14L25 14L25 17L22 17L22 16L23 16L23 15L21 15L21 14L20 14L20 16L19 16L19 15L18 15L18 14L19 14L19 13L20 13L20 11L19 11L19 13L17 13L17 12L18 12L18 11L17 11L17 12L13 12L13 11L14 11L14 9L15 9L15 11L16 11L16 10L19 10L19 9L21 9L21 6L20 6L20 5L21 5L21 4L20 4L20 5L19 5L19 3L18 3L18 1L19 1L19 2L21 2L21 1L20 1L20 0L17 0L17 1L16 1L16 0L15 0L15 1L14 1L14 0L13 0L13 1L11 1L11 2L12 2L12 5L14 5L14 7L15 7L15 8L14 8L14 9L13 9L13 8L12 8L12 7L13 7L13 6L12 6L12 7L11 7L11 3L10 3L10 2L9 2L9 0ZM13 1L13 3L14 3L14 5L15 5L15 7L16 7L16 6L17 6L17 7L18 7L18 8L17 8L17 9L19 9L19 8L20 8L20 6L19 6L19 5L18 5L18 4L17 4L17 5L15 5L15 3L14 3L14 1ZM15 1L15 2L16 2L16 1ZM18 6L18 7L19 7L19 6ZM15 8L15 9L16 9L16 8ZM8 9L8 12L5 12L5 13L8 13L8 12L10 12L10 11L11 11L11 10L9 10L9 9ZM25 9L25 10L27 10L27 11L26 11L26 12L27 12L27 11L28 11L28 10L27 10L27 9ZM22 10L22 11L24 11L24 12L22 12L22 13L25 13L25 11L24 11L24 10ZM2 12L2 13L3 13L3 12ZM12 12L12 13L11 13L11 14L12 14L12 13L13 13L13 14L14 14L14 13L13 13L13 12ZM15 13L15 14L16 14L16 13ZM2 15L2 16L1 16L1 17L2 17L2 16L3 16L3 15ZM12 15L12 16L13 16L13 15ZM14 15L14 17L15 17L15 18L16 18L16 20L15 20L15 21L13 21L13 20L12 20L12 21L11 21L11 20L10 20L10 21L11 21L11 22L12 22L12 21L13 21L13 22L16 22L16 21L19 21L19 20L22 20L22 17L21 17L21 16L20 16L20 17L19 17L19 16L17 16L17 15ZM15 16L15 17L16 17L16 18L19 18L19 17L16 17L16 16ZM6 17L6 18L8 18L8 17ZM9 17L9 18L10 18L10 17ZM27 17L27 19L29 19L29 17ZM20 18L20 19L21 19L21 18ZM23 18L23 19L24 19L24 20L25 20L25 19L24 19L24 18ZM17 19L17 20L19 20L19 19ZM0 20L0 21L5 21L5 20ZM21 21L21 24L24 24L24 21ZM27 21L27 23L29 23L29 21ZM18 22L18 23L19 23L19 22ZM22 22L22 23L23 23L23 22ZM12 23L12 24L11 24L11 28L12 28L12 27L13 27L13 28L14 28L14 27L15 27L15 26L16 26L16 25L17 25L17 26L18 26L18 25L17 25L17 24L16 24L16 23L14 23L14 25L15 25L15 26L13 26L13 25L12 25L12 24L13 24L13 23ZM15 24L15 25L16 25L16 24ZM25 25L25 26L26 26L26 25ZM27 25L27 26L28 26L28 25ZM9 27L9 28L10 28L10 27ZM0 0L0 7L7 7L7 0ZM1 1L1 6L6 6L6 1ZM2 2L2 5L5 5L5 2ZM22 0L22 7L29 7L29 0ZM23 1L23 6L28 6L28 1ZM24 2L24 5L27 5L27 2ZM0 22L0 29L7 29L7 22ZM1 23L1 28L6 28L6 23ZM2 24L2 27L5 27L5 24Z" fill="#282828"/></g></g></svg>
