<?xml version="1.0" encoding="UTF-8"?>
<svg xmlns="http://www.w3.org/2000/svg" version="1.1" width="90" height="90" viewBox="0 0 90 90"><rect x="0" y="0" width="90" height="90" fill="#ffffff"/><g transform="scale(2.903)"><g transform="translate(1,1)"><path fill-rule="evenodd" d="M9 0L9 1L8 1L8 2L9 2L9 3L8 3L8 4L10 4L10 7L11 7L11 4L12 4L12 5L13 5L13 6L12 6L12 9L13 9L13 8L14 8L14 9L17 9L17 11L19 11L19 9L17 9L17 6L16 6L16 4L12 4L12 2L13 2L13 1L11 1L11 2L10 2L10 0ZM15 0L15 1L17 1L17 2L16 2L16 3L17 3L17 2L18 2L18 1L19 1L19 0ZM20 0L20 1L21 1L21 0ZM14 2L14 3L15 3L15 2ZM19 2L19 4L20 4L20 7L19 7L19 6L18 6L18 7L19 7L19 8L21 8L21 9L20 9L20 10L21 10L21 12L22 12L22 11L23 11L23 10L24 10L24 12L26 12L26 11L27 11L27 12L28 12L28 11L27 11L27 9L28 9L28 8L27 8L27 9L26 9L26 8L25 8L25 9L24 9L24 8L23 8L23 10L22 10L22 8L21 8L21 4L20 4L20 3L21 3L21 2ZM10 3L10 4L11 4L11 3ZM8 5L8 7L9 7L9 5ZM13 6L13 7L14 7L14 8L15 8L15 7L16 7L16 6L15 6L15 7L14 7L14 6ZM0 8L0 14L1 14L1 15L0 15L0 16L1 16L1 17L0 17L0 21L1 21L1 18L2 18L2 17L3 17L3 16L5 16L5 17L4 17L4 18L3 18L3 20L4 20L4 21L5 21L5 20L6 20L6 21L7 21L7 20L6 20L6 19L9 19L9 20L8 20L8 23L9 23L9 24L8 24L8 29L9 29L9 28L10 28L10 29L12 29L12 27L13 27L13 26L11 26L11 25L10 25L10 23L9 23L9 21L10 21L10 22L11 22L11 21L12 21L12 22L13 22L13 23L12 23L12 25L13 25L13 24L14 24L14 25L16 25L16 26L15 26L15 27L14 27L14 28L15 28L15 27L16 27L16 29L17 29L17 27L18 27L18 26L20 26L20 25L25 25L25 24L26 24L26 23L25 23L25 19L24 19L24 18L26 18L26 19L28 19L28 20L26 20L26 21L28 21L28 22L27 22L27 23L28 23L28 24L27 24L27 28L26 28L26 26L21 26L21 27L20 27L20 28L19 28L19 29L20 29L20 28L21 28L21 27L22 27L22 28L23 28L23 29L24 29L24 28L23 28L23 27L25 27L25 28L26 28L26 29L27 29L27 28L28 28L28 26L29 26L29 25L28 25L28 24L29 24L29 23L28 23L28 22L29 22L29 21L28 21L28 20L29 20L29 19L28 19L28 18L29 18L29 17L28 17L28 16L29 16L29 15L28 15L28 14L29 14L29 13L28 13L28 14L27 14L27 13L24 13L24 14L23 14L23 13L21 13L21 14L23 14L23 16L25 16L25 15L26 15L26 14L27 14L27 16L26 16L26 17L22 17L22 18L21 18L21 17L20 17L20 16L21 16L21 15L19 15L19 14L20 14L20 13L19 13L19 14L18 14L18 16L19 16L19 17L17 17L17 16L14 16L14 15L17 15L17 14L15 14L15 13L17 13L17 12L15 12L15 11L16 11L16 10L15 10L15 11L14 11L14 12L15 12L15 13L12 13L12 11L13 11L13 10L11 10L11 11L10 11L10 9L11 9L11 8L6 8L6 9L8 9L8 10L9 10L9 11L8 11L8 12L6 12L6 11L7 11L7 10L6 10L6 11L5 11L5 10L4 10L4 9L5 9L5 8ZM1 10L1 11L2 11L2 12L1 12L1 13L2 13L2 15L1 15L1 16L3 16L3 15L4 15L4 14L7 14L7 15L5 15L5 16L7 16L7 17L6 17L6 18L7 18L7 17L8 17L8 16L7 16L7 15L11 15L11 17L10 17L10 16L9 16L9 17L10 17L10 18L9 18L9 19L10 19L10 20L11 20L11 19L10 19L10 18L13 18L13 19L12 19L12 21L15 21L15 22L16 22L16 24L17 24L17 25L20 25L20 24L18 24L18 22L16 22L16 21L19 21L19 22L20 22L20 21L19 21L19 19L21 19L21 18L18 18L18 19L16 19L16 21L15 21L15 20L14 20L14 19L15 19L15 18L17 18L17 17L14 17L14 16L13 16L13 17L12 17L12 15L13 15L13 14L12 14L12 13L11 13L11 12L10 12L10 13L11 13L11 14L8 14L8 13L9 13L9 12L8 12L8 13L6 13L6 12L5 12L5 11L4 11L4 10L3 10L3 11L2 11L2 10ZM3 11L3 12L4 12L4 11ZM27 17L27 18L28 18L28 17ZM4 18L4 20L5 20L5 18ZM22 18L22 19L23 19L23 18ZM21 21L21 24L24 24L24 21ZM22 22L22 23L23 23L23 22ZM14 23L14 24L15 24L15 23ZM9 26L9 27L10 27L10 26ZM0 0L0 7L7 7L7 0ZM1 1L1 6L6 6L6 1ZM2 2L2 5L5 5L5 2ZM22 0L22 7L29 7L29 0ZM23 1L23 6L28 6L28 1ZM24 2L24 5L27 5L27 2ZM0 22L0 29L7 29L7 22ZM1 23L1 28L6 28L6 23ZM2 24L2 27L5 27L5 24Z" fill="#282828"/></g></g></svg>
