<?xml version="1.0" encoding="UTF-8"?>
<svg xmlns="http://www.w3.org/2000/svg" version="1.1" width="90" height="90" viewBox="0 0 90 90"><rect x="0" y="0" width="90" height="90" fill="#ffffff"/><g transform="scale(2.903)"><g transform="translate(1,1)"><path fill-rule="evenodd" d="M8 0L8 4L9 4L9 5L8 5L8 7L9 7L9 6L10 6L10 9L11 9L11 8L12 8L12 9L13 9L13 10L14 10L14 12L13 12L13 11L12 11L12 12L11 12L11 13L10 13L10 15L9 15L9 13L8 13L8 12L10 12L10 11L11 11L11 10L8 10L8 12L5 12L5 14L2 14L2 13L4 13L4 11L7 11L7 10L4 10L4 9L7 9L7 8L4 8L4 9L2 9L2 8L0 8L0 9L1 9L1 10L0 10L0 12L1 12L1 14L2 14L2 15L1 15L1 17L0 17L0 18L1 18L1 17L2 17L2 19L3 19L3 20L0 20L0 21L3 21L3 20L6 20L6 21L8 21L8 22L9 22L9 21L10 21L10 20L11 20L11 21L12 21L12 22L10 22L10 23L8 23L8 25L9 25L9 27L8 27L8 29L12 29L12 28L13 28L13 29L16 29L16 28L15 28L15 27L17 27L17 28L19 28L19 29L21 29L21 27L22 27L22 25L23 25L23 26L24 26L24 25L25 25L25 29L26 29L26 27L27 27L27 29L28 29L28 28L29 28L29 25L28 25L28 24L26 24L26 23L25 23L25 22L27 22L27 23L29 23L29 21L26 21L26 20L24 20L24 19L25 19L25 18L26 18L26 19L29 19L29 17L22 17L22 16L26 16L26 15L22 15L22 14L25 14L25 13L26 13L26 14L27 14L27 16L28 16L28 15L29 15L29 13L28 13L28 12L29 12L29 10L28 10L28 9L29 9L29 8L25 8L25 9L24 9L24 8L23 8L23 9L21 9L21 5L20 5L20 4L19 4L19 3L21 3L21 2L20 2L20 0L18 0L18 2L17 2L17 1L16 1L16 0L15 0L15 1L14 1L14 0L13 0L13 1L11 1L11 2L12 2L12 5L14 5L14 7L15 7L15 8L14 8L14 9L13 9L13 8L12 8L12 7L13 7L13 6L12 6L12 7L11 7L11 3L10 3L10 2L9 2L9 0ZM13 1L13 3L14 3L14 5L15 5L15 7L16 7L16 6L17 6L17 7L18 7L18 8L17 8L17 10L16 10L16 11L15 11L15 12L17 12L17 11L18 11L18 9L20 9L20 10L19 10L19 11L20 11L20 10L21 10L21 11L22 11L22 10L21 10L21 9L20 9L20 8L19 8L19 7L20 7L20 6L19 6L19 5L18 5L18 6L17 6L17 5L15 5L15 3L14 3L14 1ZM15 1L15 2L16 2L16 1ZM18 6L18 7L19 7L19 6ZM15 8L15 9L14 9L14 10L15 10L15 9L16 9L16 8ZM25 9L25 10L27 10L27 11L26 11L26 12L28 12L28 10L27 10L27 9ZM1 10L1 12L2 12L2 11L4 11L4 10ZM23 10L23 11L24 11L24 13L25 13L25 11L24 11L24 10ZM12 12L12 13L11 13L11 14L12 14L12 13L13 13L13 14L14 14L14 13L13 13L13 12ZM19 12L19 13L20 13L20 14L18 14L18 13L17 13L17 14L16 14L16 13L15 13L15 14L16 14L16 16L15 16L15 15L14 15L14 17L15 17L15 18L13 18L13 17L12 17L12 16L13 16L13 15L12 15L12 16L11 16L11 20L12 20L12 21L13 21L13 22L16 22L16 23L14 23L14 25L15 25L15 26L13 26L13 25L12 25L12 24L13 24L13 23L12 23L12 24L10 24L10 26L11 26L11 28L12 28L12 27L13 27L13 28L14 28L14 27L15 27L15 26L16 26L16 25L17 25L17 26L18 26L18 27L19 27L19 28L20 28L20 27L21 27L21 26L18 26L18 25L19 25L19 24L16 24L16 23L17 23L17 22L19 22L19 23L20 23L20 22L19 22L19 21L20 21L20 20L17 20L17 19L18 19L18 18L16 18L16 16L17 16L17 17L19 17L19 15L20 15L20 14L22 14L22 13L23 13L23 12L22 12L22 13L20 13L20 12ZM6 13L6 14L5 14L5 15L3 15L3 17L4 17L4 16L7 16L7 17L6 17L6 18L3 18L3 19L6 19L6 20L8 20L8 19L9 19L9 20L10 20L10 19L9 19L9 18L10 18L10 17L9 17L9 18L8 18L8 13ZM6 14L6 15L7 15L7 14ZM17 14L17 16L18 16L18 14ZM21 15L21 16L22 16L22 15ZM20 17L20 18L19 18L19 19L21 19L21 20L22 20L22 19L21 19L21 18L22 18L22 17ZM6 18L6 19L8 19L8 18ZM15 18L15 19L14 19L14 20L13 20L13 19L12 19L12 20L13 20L13 21L16 21L16 22L17 22L17 21L16 21L16 20L15 20L15 19L16 19L16 18ZM21 21L21 24L24 24L24 21ZM22 22L22 23L23 23L23 22ZM15 24L15 25L16 25L16 24ZM27 25L27 26L28 26L28 25ZM23 27L23 28L22 28L22 29L23 29L23 28L24 28L24 27ZM0 0L0 7L7 7L7 0ZM1 1L1 6L6 6L6 1ZM2 2L2 5L5 5L5 2ZM22 0L22 7L29 7L29 0ZM23 1L23 6L28 6L28 1ZM24 2L24 5L27 5L27 2ZM0 22L0 29L7 29L7 22ZM1 23L1 28L6 28L6 23ZM2 24L2 27L5 27L5 24Z" fill="#282828"/></g></g></svg>
