<?xml version="1.0" encoding="UTF-8"?>
<svg xmlns="http://www.w3.org/2000/svg" version="1.1" width="90" height="90" viewBox="0 0 90 90"><rect x="0" y="0" width="90" height="90" fill="#ffffff"/><g transform="scale(2.903)"><g transform="translate(1,1)"><path fill-rule="evenodd" d="M9 0L9 1L8 1L8 2L9 2L9 3L8 3L8 4L10 4L10 7L11 7L11 4L12 4L12 5L13 5L13 4L15 4L15 2L16 2L16 1L17 1L17 0L16 0L16 1L14 1L14 0L13 0L13 1L11 1L11 2L10 2L10 0ZM19 0L19 1L20 1L20 2L21 2L21 0ZM12 2L12 4L13 4L13 3L14 3L14 2ZM10 3L10 4L11 4L11 3ZM17 3L17 4L16 4L16 5L14 5L14 7L15 7L15 8L13 8L13 6L12 6L12 9L13 9L13 10L11 10L11 11L10 11L10 9L11 9L11 8L6 8L6 9L7 9L7 10L5 10L5 8L0 8L0 10L1 10L1 9L3 9L3 10L2 10L2 12L1 12L1 13L2 13L2 12L3 12L3 13L4 13L4 14L5 14L5 15L2 15L2 14L1 14L1 15L2 15L2 16L0 16L0 21L1 21L1 17L4 17L4 18L6 18L6 19L7 19L7 20L6 20L6 21L7 21L7 20L8 20L8 23L9 23L9 24L8 24L8 29L11 29L11 28L13 28L13 29L14 29L14 28L15 28L15 29L16 29L16 28L17 28L17 29L18 29L18 28L19 28L19 29L20 29L20 28L21 28L21 29L22 29L22 28L21 28L21 27L22 27L22 26L21 26L21 25L23 25L23 28L24 28L24 29L25 29L25 28L26 28L26 29L27 29L27 28L28 28L28 26L29 26L29 24L28 24L28 25L25 25L25 24L26 24L26 23L25 23L25 19L24 19L24 20L22 20L22 18L25 18L25 17L28 17L28 18L26 18L26 19L28 19L28 20L26 20L26 21L28 21L28 22L27 22L27 23L28 23L28 22L29 22L29 21L28 21L28 20L29 20L29 19L28 19L28 18L29 18L29 17L28 17L28 16L29 16L29 15L28 15L28 14L29 14L29 13L28 13L28 14L27 14L27 16L26 16L26 15L25 15L25 14L26 14L26 13L20 13L20 12L23 12L23 11L25 11L25 12L26 12L26 11L27 11L27 12L29 12L29 11L27 11L27 9L28 9L28 8L27 8L27 9L26 9L26 8L25 8L25 9L24 9L24 8L23 8L23 9L22 9L22 8L21 8L21 9L20 9L20 8L17 8L17 6L16 6L16 5L17 5L17 4L18 4L18 5L20 5L20 7L21 7L21 3L20 3L20 4L18 4L18 3ZM8 5L8 7L9 7L9 5ZM15 6L15 7L16 7L16 6ZM18 6L18 7L19 7L19 6ZM16 8L16 9L14 9L14 10L16 10L16 11L15 11L15 13L17 13L17 14L16 14L16 17L15 17L15 18L14 18L14 17L12 17L12 15L13 15L13 16L14 16L14 15L13 15L13 14L12 14L12 13L14 13L14 11L12 11L12 13L11 13L11 12L10 12L10 13L8 13L8 12L9 12L9 10L8 10L8 11L6 11L6 12L7 12L7 13L5 13L5 14L7 14L7 13L8 13L8 15L9 15L9 14L10 14L10 13L11 13L11 15L10 15L10 16L8 16L8 17L9 17L9 18L13 18L13 19L12 19L12 20L15 20L15 21L13 21L13 23L12 23L12 21L10 21L10 19L9 19L9 22L10 22L10 24L9 24L9 26L10 26L10 24L11 24L11 25L13 25L13 26L14 26L14 27L13 27L13 28L14 28L14 27L15 27L15 28L16 28L16 27L15 27L15 26L16 26L16 25L17 25L17 24L18 24L18 25L20 25L20 24L19 24L19 22L20 22L20 21L19 21L19 20L20 20L20 18L19 18L19 19L17 19L17 20L16 20L16 19L15 19L15 18L17 18L17 16L18 16L18 17L19 17L19 16L20 16L20 17L21 17L21 16L22 16L22 17L23 17L23 15L24 15L24 14L21 14L21 15L20 15L20 14L18 14L18 13L19 13L19 12L18 12L18 9L17 9L17 8ZM16 9L16 10L17 10L17 9ZM3 10L3 12L4 12L4 10ZM19 10L19 11L22 11L22 10ZM16 11L16 12L17 12L17 11ZM5 15L5 16L4 16L4 17L5 17L5 16L7 16L7 15ZM24 16L24 17L25 17L25 16ZM6 17L6 18L7 18L7 17ZM2 18L2 19L3 19L3 20L2 20L2 21L5 21L5 20L4 20L4 19L3 19L3 18ZM17 20L17 21L16 21L16 22L15 22L15 23L14 23L14 24L13 24L13 25L14 25L14 26L15 26L15 25L16 25L16 24L15 24L15 23L16 23L16 22L17 22L17 23L18 23L18 22L19 22L19 21L18 21L18 20ZM21 21L21 24L24 24L24 21ZM22 22L22 23L23 23L23 22ZM11 23L11 24L12 24L12 23ZM14 24L14 25L15 25L15 24ZM24 25L24 26L25 26L25 25ZM11 26L11 27L10 27L10 28L11 28L11 27L12 27L12 26ZM18 26L18 27L17 27L17 28L18 28L18 27L19 27L19 28L20 28L20 27L19 27L19 26ZM26 26L26 28L27 28L27 26ZM0 0L0 7L7 7L7 0ZM1 1L1 6L6 6L6 1ZM2 2L2 5L5 5L5 2ZM22 0L22 7L29 7L29 0ZM23 1L23 6L28 6L28 1ZM24 2L24 5L27 5L27 2ZM0 22L0 29L7 29L7 22ZM1 23L1 28L6 28L6 23ZM2 24L2 27L5 27L5 24Z" fill="#282828"/></g></g></svg>
