<?xml version="1.0" encoding="UTF-8"?>
<svg xmlns="http://www.w3.org/2000/svg" version="1.1" width="90" height="90" viewBox="0 0 90 90"><rect x="0" y="0" width="90" height="90" fill="#ffffff"/><g transform="scale(3.333)"><g transform="translate(1,1)"><path fill-rule="evenodd" d="M9 0L9 1L8 1L8 3L9 3L9 4L8 4L8 8L6 8L6 9L8 9L8 10L10 10L10 9L8 9L8 8L9 8L9 5L10 5L10 8L11 8L11 9L12 9L12 8L11 8L11 5L12 5L12 7L13 7L13 6L14 6L14 8L13 8L13 12L12 12L12 14L10 14L10 16L9 16L9 15L8 15L8 14L9 14L9 13L8 13L8 14L4 14L4 13L7 13L7 12L10 12L10 13L11 13L11 11L7 11L7 10L4 10L4 8L3 8L3 9L2 9L2 8L0 8L0 9L2 9L2 10L4 10L4 11L3 11L3 12L4 12L4 13L3 13L3 14L4 14L4 15L7 15L7 16L5 16L5 17L8 17L8 19L9 19L9 18L10 18L10 19L11 19L11 18L15 18L15 19L14 19L14 21L10 21L10 20L9 20L9 21L8 21L8 22L14 22L14 23L13 23L13 24L12 24L12 25L13 25L13 24L15 24L15 25L18 25L18 24L20 24L20 25L21 25L21 24L22 24L22 23L23 23L23 22L22 22L22 20L25 20L25 9L24 9L24 8L22 8L22 9L21 9L21 8L18 8L18 9L17 9L17 1L15 1L15 3L13 3L13 2L14 2L14 1L13 1L13 0L11 0L11 1L10 1L10 0ZM12 1L12 2L9 2L9 3L10 3L10 5L11 5L11 3L12 3L12 2L13 2L13 1ZM13 4L13 5L14 5L14 4ZM15 4L15 5L16 5L16 4ZM15 6L15 7L16 7L16 6ZM14 8L14 10L15 10L15 12L13 12L13 13L14 13L14 14L15 14L15 15L14 15L14 17L16 17L16 16L17 16L17 15L16 15L16 14L19 14L19 13L20 13L20 14L22 14L22 15L20 15L20 16L21 16L21 20L22 20L22 18L23 18L23 19L24 19L24 18L23 18L23 17L24 17L24 15L23 15L23 14L24 14L24 9L23 9L23 10L22 10L22 11L20 11L20 12L19 12L19 11L18 11L18 10L21 10L21 9L18 9L18 10L17 10L17 11L16 11L16 10L15 10L15 8ZM0 11L0 12L1 12L1 13L2 13L2 11ZM4 11L4 12L5 12L5 11ZM6 11L6 12L7 12L7 11ZM17 11L17 13L19 13L19 12L18 12L18 11ZM20 12L20 13L23 13L23 12ZM15 13L15 14L16 14L16 13ZM0 14L0 15L1 15L1 16L0 16L0 17L2 17L2 16L3 16L3 17L4 17L4 16L3 16L3 15L1 15L1 14ZM12 15L12 16L11 16L11 17L10 17L10 18L11 18L11 17L13 17L13 15ZM15 15L15 16L16 16L16 15ZM8 16L8 17L9 17L9 16ZM17 17L17 20L20 20L20 17ZM18 18L18 19L19 19L19 18ZM12 19L12 20L13 20L13 19ZM15 20L15 21L14 21L14 22L15 22L15 21L16 21L16 20ZM17 21L17 23L16 23L16 24L17 24L17 23L18 23L18 22L19 22L19 23L20 23L20 22L21 22L21 23L22 23L22 22L21 22L21 21ZM24 22L24 23L25 23L25 22ZM8 23L8 25L10 25L10 24L11 24L11 23L10 23L10 24L9 24L9 23ZM23 24L23 25L25 25L25 24ZM0 0L0 7L7 7L7 0ZM1 1L1 6L6 6L6 1ZM2 2L2 5L5 5L5 2ZM18 0L18 7L25 7L25 0ZM19 1L19 6L24 6L24 1ZM20 2L20 5L23 5L23 2ZM0 18L0 25L7 25L7 18ZM1 19L1 24L6 24L6 19ZM2 20L2 23L5 23L5 20Z" fill="#282828"/></g></g></svg>
