<?xml version="1.0" encoding="UTF-8"?>
<svg xmlns="http://www.w3.org/2000/svg" version="1.1" width="90" height="90" viewBox="0 0 90 90"><rect x="0" y="0" width="90" height="90" fill="#ffffff"/><g transform="scale(3.333)"><g transform="translate(1,1)"><path fill-rule="evenodd" d="M9 0L9 1L8 1L8 2L9 2L9 3L8 3L8 4L10 4L10 7L11 7L11 4L12 4L12 5L13 5L13 4L14 4L14 5L15 5L15 6L14 6L14 7L15 7L15 6L16 6L16 8L13 8L13 6L12 6L12 9L16 9L16 10L15 10L15 11L14 11L14 12L13 12L13 13L12 13L12 11L13 11L13 10L11 10L11 11L10 11L10 9L11 9L11 8L6 8L6 9L9 9L9 12L8 12L8 11L7 11L7 10L5 10L5 8L0 8L0 9L1 9L1 10L2 10L2 11L1 11L1 12L0 12L0 17L1 17L1 12L2 12L2 11L3 11L3 12L4 12L4 10L5 10L5 12L6 12L6 13L5 13L5 14L3 14L3 13L2 13L2 16L3 16L3 15L5 15L5 16L4 16L4 17L5 17L5 16L6 16L6 17L7 17L7 16L6 16L6 15L9 15L9 16L11 16L11 15L9 15L9 14L8 14L8 13L10 13L10 14L11 14L11 13L12 13L12 14L13 14L13 15L12 15L12 17L14 17L14 18L11 18L11 17L10 17L10 18L11 18L11 21L12 21L12 22L13 22L13 23L12 23L12 25L13 25L13 24L14 24L14 25L15 25L15 24L14 24L14 23L16 23L16 22L17 22L17 21L18 21L18 22L19 22L19 23L18 23L18 25L20 25L20 24L21 24L21 23L22 23L22 21L23 21L23 22L24 22L24 24L23 24L23 25L25 25L25 20L22 20L22 19L23 19L23 18L24 18L24 19L25 19L25 18L24 18L24 17L25 17L25 16L24 16L24 15L25 15L25 14L24 14L24 13L25 13L25 12L24 12L24 13L22 13L22 12L19 12L19 11L16 11L16 10L17 10L17 9L18 9L18 8L17 8L17 4L16 4L16 5L15 5L15 3L16 3L16 1L17 1L17 0L13 0L13 1L11 1L11 2L10 2L10 0ZM12 2L12 4L13 4L13 3L14 3L14 2ZM10 3L10 4L11 4L11 3ZM8 5L8 7L9 7L9 5ZM16 8L16 9L17 9L17 8ZM19 8L19 10L20 10L20 8ZM21 8L21 9L22 9L22 11L25 11L25 9L24 9L24 8L23 8L23 9L22 9L22 8ZM2 9L2 10L3 10L3 9ZM6 11L6 12L7 12L7 11ZM15 11L15 12L14 12L14 13L13 13L13 14L14 14L14 15L13 15L13 16L14 16L14 17L16 17L16 16L20 16L20 15L22 15L22 16L23 16L23 17L24 17L24 16L23 16L23 15L24 15L24 14L22 14L22 13L20 13L20 15L19 15L19 13L17 13L17 12L16 12L16 11ZM10 12L10 13L11 13L11 12ZM6 13L6 14L7 14L7 13ZM14 13L14 14L15 14L15 15L14 15L14 16L16 16L16 15L18 15L18 14L17 14L17 13L16 13L16 14L15 14L15 13ZM8 17L8 19L9 19L9 20L8 20L8 25L11 25L11 23L10 23L10 21L9 21L9 20L10 20L10 19L9 19L9 17ZM17 17L17 20L20 20L20 17ZM21 17L21 18L22 18L22 17ZM14 18L14 19L12 19L12 21L14 21L14 22L16 22L16 21L15 21L15 20L16 20L16 18ZM18 18L18 19L19 19L19 18ZM19 21L19 22L20 22L20 23L19 23L19 24L20 24L20 23L21 23L21 22L20 22L20 21ZM9 23L9 24L10 24L10 23ZM0 0L0 7L7 7L7 0ZM1 1L1 6L6 6L6 1ZM2 2L2 5L5 5L5 2ZM18 0L18 7L25 7L25 0ZM19 1L19 6L24 6L24 1ZM20 2L20 5L23 5L23 2ZM0 18L0 25L7 25L7 18ZM1 19L1 24L6 24L6 19ZM2 20L2 23L5 23L5 20Z" fill="#282828"/></g></g></svg>
