<?xml version="1.0" encoding="UTF-8"?>
<svg xmlns="http://www.w3.org/2000/svg" version="1.1" width="90" height="90" viewBox="0 0 90 90"><rect x="0" y="0" width="90" height="90" fill="#ffffff"/><g transform="scale(3.333)"><g transform="translate(1,1)"><path fill-rule="evenodd" d="M8 0L8 1L10 1L10 0ZM13 0L13 2L11 2L11 4L10 4L10 3L9 3L9 2L8 2L8 5L9 5L9 6L8 6L8 7L9 7L9 8L8 8L8 9L7 9L7 8L6 8L6 9L4 9L4 8L0 8L0 9L1 9L1 10L0 10L0 11L1 11L1 10L2 10L2 12L3 12L3 13L2 13L2 14L1 14L1 15L0 15L0 16L1 16L1 15L3 15L3 13L5 13L5 14L4 14L4 16L3 16L3 17L4 17L4 16L5 16L5 17L8 17L8 18L11 18L11 19L10 19L10 20L9 20L9 21L8 21L8 25L9 25L9 22L10 22L10 24L11 24L11 23L14 23L14 20L16 20L16 21L15 21L15 24L14 24L14 25L15 25L15 24L17 24L17 23L19 23L19 24L18 24L18 25L20 25L20 24L23 24L23 25L25 25L25 24L23 24L23 23L24 23L24 22L25 22L25 21L24 21L24 20L25 20L25 17L24 17L24 15L23 15L23 13L22 13L22 12L23 12L23 10L25 10L25 8L24 8L24 9L23 9L23 8L20 8L20 9L19 9L19 10L17 10L17 9L18 9L18 8L15 8L15 6L14 6L14 5L12 5L12 3L13 3L13 4L15 4L15 5L17 5L17 4L15 4L15 3L16 3L16 2L14 2L14 1L17 1L17 0ZM10 5L10 6L9 6L9 7L10 7L10 8L9 8L9 9L8 9L8 10L7 10L7 9L6 9L6 10L7 10L7 11L6 11L6 12L5 12L5 13L6 13L6 14L5 14L5 15L6 15L6 16L7 16L7 15L8 15L8 16L9 16L9 17L10 17L10 16L9 16L9 15L10 15L10 14L9 14L9 12L10 12L10 13L11 13L11 11L14 11L14 10L15 10L15 12L14 12L14 13L13 13L13 12L12 12L12 14L11 14L11 16L12 16L12 17L11 17L11 18L12 18L12 17L13 17L13 16L14 16L14 15L16 15L16 16L20 16L20 15L21 15L21 14L19 14L19 15L17 15L17 14L15 14L15 12L16 12L16 11L17 11L17 10L16 10L16 9L14 9L14 6L13 6L13 7L12 7L12 5ZM10 6L10 7L11 7L11 8L12 8L12 7L11 7L11 6ZM16 6L16 7L17 7L17 6ZM9 9L9 10L10 10L10 9ZM20 9L20 10L19 10L19 11L18 11L18 12L19 12L19 11L20 11L20 12L21 12L21 11L20 11L20 10L22 10L22 9ZM3 10L3 12L4 12L4 11L5 11L5 10ZM8 11L8 12L6 12L6 13L8 13L8 12L9 12L9 11ZM24 11L24 14L25 14L25 11ZM0 12L0 13L1 13L1 12ZM6 14L6 15L7 15L7 14ZM8 14L8 15L9 15L9 14ZM12 14L12 16L13 16L13 14ZM22 15L22 16L21 16L21 17L22 17L22 18L23 18L23 19L21 19L21 21L22 21L22 22L21 22L21 23L23 23L23 19L24 19L24 18L23 18L23 17L22 17L22 16L23 16L23 15ZM15 17L15 18L14 18L14 19L13 19L13 20L14 20L14 19L16 19L16 17ZM17 17L17 20L20 20L20 17ZM18 18L18 19L19 19L19 18ZM11 19L11 20L12 20L12 19ZM10 21L10 22L12 22L12 21ZM17 21L17 22L16 22L16 23L17 23L17 22L18 22L18 21ZM19 21L19 22L20 22L20 21ZM12 24L12 25L13 25L13 24ZM0 0L0 7L7 7L7 0ZM1 1L1 6L6 6L6 1ZM2 2L2 5L5 5L5 2ZM18 0L18 7L25 7L25 0ZM19 1L19 6L24 6L24 1ZM20 2L20 5L23 5L23 2ZM0 18L0 25L7 25L7 18ZM1 19L1 24L6 24L6 19ZM2 20L2 23L5 23L5 20Z" fill="#282828"/></g></g></svg>
