<?xml version="1.0" encoding="UTF-8"?>
<svg xmlns="http://www.w3.org/2000/svg" version="1.1" width="90" height="90" viewBox="0 0 90 90"><rect x="0" y="0" width="90" height="90" fill="#ffffff"/><g transform="scale(3.333)"><g transform="translate(1,1)"><path fill-rule="evenodd" d="M9 0L9 1L8 1L8 3L9 3L9 4L8 4L8 8L6 8L6 9L4 9L4 8L3 8L3 9L4 9L4 10L6 10L6 11L3 11L3 12L2 12L2 11L1 11L1 10L2 10L2 8L0 8L0 11L1 11L1 12L0 12L0 13L1 13L1 12L2 12L2 14L3 14L3 15L4 15L4 14L5 14L5 15L8 15L8 19L9 19L9 20L11 20L11 21L8 21L8 22L9 22L9 23L8 23L8 25L9 25L9 24L10 24L10 25L11 25L11 21L12 21L12 20L11 20L11 19L10 19L10 18L9 18L9 17L11 17L11 18L12 18L12 17L11 17L11 16L9 16L9 15L12 15L12 14L11 14L11 13L10 13L10 14L9 14L9 12L6 12L6 11L7 11L7 10L6 10L6 9L8 9L8 11L11 11L11 10L12 10L12 9L13 9L13 14L14 14L14 10L15 10L15 8L16 8L16 9L17 9L17 11L19 11L19 12L16 12L16 11L15 11L15 13L17 13L17 15L19 15L19 16L16 16L16 15L15 15L15 16L16 16L16 17L15 17L15 19L14 19L14 18L13 18L13 19L14 19L14 20L13 20L13 24L12 24L12 25L14 25L14 24L15 24L15 25L17 25L17 24L18 24L18 25L19 25L19 24L20 24L20 25L21 25L21 24L22 24L22 23L23 23L23 22L22 22L22 20L23 20L23 21L24 21L24 20L25 20L25 9L24 9L24 8L22 8L22 9L21 9L21 8L18 8L18 9L17 9L17 6L16 6L16 5L17 5L17 4L16 4L16 5L15 5L15 2L16 2L16 0L12 0L12 1L11 1L11 2L9 2L9 1L10 1L10 0ZM13 2L13 3L12 3L12 4L9 4L9 5L10 5L10 6L9 6L9 7L10 7L10 8L8 8L8 9L9 9L9 10L10 10L10 8L11 8L11 9L12 9L12 6L13 6L13 8L15 8L15 7L16 7L16 6L15 6L15 5L14 5L14 2ZM11 5L11 6L10 6L10 7L11 7L11 6L12 6L12 5ZM13 5L13 6L14 6L14 7L15 7L15 6L14 6L14 5ZM19 9L19 10L20 10L20 11L21 11L21 12L19 12L19 13L20 13L20 16L21 16L21 20L22 20L22 18L23 18L23 20L24 20L24 18L23 18L23 17L24 17L24 15L23 15L23 14L24 14L24 12L23 12L23 11L24 11L24 9L22 9L22 11L21 11L21 9ZM4 12L4 13L5 13L5 14L7 14L7 13L5 13L5 12ZM21 12L21 13L23 13L23 12ZM0 14L0 15L1 15L1 16L0 16L0 17L2 17L2 15L1 15L1 14ZM8 14L8 15L9 15L9 14ZM21 14L21 15L22 15L22 14ZM13 15L13 17L14 17L14 15ZM3 16L3 17L5 17L5 16ZM6 16L6 17L7 17L7 16ZM17 17L17 20L20 20L20 17ZM18 18L18 19L19 19L19 18ZM15 19L15 21L16 21L16 22L17 22L17 23L20 23L20 22L21 22L21 23L22 23L22 22L21 22L21 21L20 21L20 22L19 22L19 21L16 21L16 19ZM24 22L24 23L25 23L25 22ZM23 24L23 25L25 25L25 24ZM0 0L0 7L7 7L7 0ZM1 1L1 6L6 6L6 1ZM2 2L2 5L5 5L5 2ZM18 0L18 7L25 7L25 0ZM19 1L19 6L24 6L24 1ZM20 2L20 5L23 5L23 2ZM0 18L0 25L7 25L7 18ZM1 19L1 24L6 24L6 19ZM2 20L2 23L5 23L5 20Z" fill="#282828"/></g></g></svg>
