<?xml version="1.0" encoding="UTF-8"?>
<svg xmlns="http://www.w3.org/2000/svg" version="1.1" width="90" height="90" viewBox="0 0 90 90"><rect x="0" y="0" width="90" height="90" fill="#ffffff"/><g transform="scale(2.903)"><g transform="translate(1,1)"><path fill-rule="evenodd" d="M9 0L9 1L8 1L8 2L9 2L9 3L8 3L8 4L9 4L9 5L8 5L8 7L9 7L9 8L6 8L6 9L5 9L5 8L0 8L0 9L2 9L2 11L0 11L0 12L2 12L2 13L3 13L3 12L4 12L4 11L8 11L8 12L9 12L9 13L8 13L8 15L11 15L11 16L8 16L8 18L9 18L9 17L10 17L10 18L11 18L11 17L12 17L12 15L11 15L11 14L12 14L12 13L11 13L11 12L9 12L9 11L8 11L8 10L6 10L6 9L10 9L10 7L11 7L11 6L10 6L10 7L9 7L9 5L13 5L13 4L16 4L16 5L14 5L14 8L13 8L13 6L12 6L12 9L11 9L11 10L10 10L10 11L11 11L11 10L12 10L12 12L13 12L13 13L14 13L14 14L13 14L13 15L14 15L14 16L13 16L13 17L15 17L15 15L16 15L16 16L17 16L17 13L18 13L18 16L19 16L19 17L18 17L18 18L19 18L19 20L20 20L20 23L18 23L18 24L17 24L17 25L18 25L18 26L19 26L19 29L20 29L20 28L22 28L22 29L23 29L23 28L24 28L24 29L25 29L25 28L26 28L26 27L25 27L25 26L24 26L24 25L25 25L25 23L26 23L26 21L28 21L28 22L27 22L27 24L26 24L26 25L27 25L27 24L28 24L28 22L29 22L29 21L28 21L28 20L29 20L29 19L28 19L28 18L29 18L29 17L28 17L28 16L29 16L29 15L28 15L28 14L29 14L29 13L28 13L28 12L29 12L29 11L27 11L27 9L28 9L28 8L27 8L27 9L26 9L26 8L25 8L25 9L24 9L24 8L23 8L23 9L22 9L22 8L21 8L21 9L20 9L20 8L19 8L19 9L18 9L18 8L17 8L17 5L18 5L18 7L19 7L19 5L21 5L21 4L18 4L18 3L19 3L19 2L18 2L18 1L20 1L20 2L21 2L21 0L17 0L17 1L15 1L15 3L13 3L13 2L9 2L9 1L13 1L13 0ZM17 2L17 3L16 3L16 4L17 4L17 3L18 3L18 2ZM9 3L9 4L13 4L13 3ZM15 6L15 7L16 7L16 6ZM20 6L20 7L21 7L21 6ZM15 8L15 10L14 10L14 9L12 9L12 10L13 10L13 12L15 12L15 10L16 10L16 9L17 9L17 12L19 12L19 13L20 13L20 12L21 12L21 13L27 13L27 14L26 14L26 16L25 16L25 15L23 15L23 14L21 14L21 15L20 15L20 14L19 14L19 16L20 16L20 18L21 18L21 16L22 16L22 17L26 17L26 16L28 16L28 15L27 15L27 14L28 14L28 13L27 13L27 11L26 11L26 12L24 12L24 11L23 11L23 12L21 12L21 11L22 11L22 10L18 10L18 9L17 9L17 8ZM3 9L3 10L5 10L5 9ZM6 12L6 13L4 13L4 14L0 14L0 15L2 15L2 16L3 16L3 17L4 17L4 18L2 18L2 17L0 17L0 21L1 21L1 18L2 18L2 19L3 19L3 20L2 20L2 21L4 21L4 19L7 19L7 18L6 18L6 17L7 17L7 16L6 16L6 15L7 15L7 14L6 14L6 13L7 13L7 12ZM9 13L9 14L11 14L11 13ZM15 13L15 14L14 14L14 15L15 15L15 14L16 14L16 13ZM5 14L5 15L3 15L3 16L5 16L5 17L6 17L6 16L5 16L5 15L6 15L6 14ZM16 17L16 18L14 18L14 20L13 20L13 19L12 19L12 20L11 20L11 19L8 19L8 20L9 20L9 21L8 21L8 23L11 23L11 22L12 22L12 23L13 23L13 22L12 22L12 21L14 21L14 20L17 20L17 21L15 21L15 24L14 24L14 25L16 25L16 22L19 22L19 21L18 21L18 20L17 20L17 17ZM27 17L27 18L26 18L26 20L25 20L25 21L26 21L26 20L28 20L28 19L27 19L27 18L28 18L28 17ZM22 18L22 20L24 20L24 19L25 19L25 18ZM20 19L20 20L21 20L21 19ZM5 20L5 21L7 21L7 20ZM10 20L10 21L11 21L11 20ZM21 21L21 24L24 24L24 21ZM22 22L22 23L23 23L23 22ZM8 24L8 29L9 29L9 28L10 28L10 26L9 26L9 24ZM10 24L10 25L11 25L11 26L12 26L12 25L11 25L11 24ZM18 24L18 25L19 25L19 26L20 26L20 27L22 27L22 28L23 28L23 25L19 25L19 24ZM28 25L28 26L27 26L27 28L28 28L28 26L29 26L29 25ZM13 26L13 27L14 27L14 26ZM15 26L15 28L12 28L12 29L15 29L15 28L17 28L17 29L18 29L18 28L17 28L17 27L16 27L16 26ZM0 0L0 7L7 7L7 0ZM1 1L1 6L6 6L6 1ZM2 2L2 5L5 5L5 2ZM22 0L22 7L29 7L29 0ZM23 1L23 6L28 6L28 1ZM24 2L24 5L27 5L27 2ZM0 22L0 29L7 29L7 22ZM1 23L1 28L6 28L6 23ZM2 24L2 27L5 27L5 24Z" fill="#282828"/></g></g></svg>
