<?xml version="1.0" encoding="UTF-8"?>
<svg xmlns="http://www.w3.org/2000/svg" version="1.1" width="90" height="90" viewBox="0 0 90 90"><rect x="0" y="0" width="90" height="90" fill="#ffffff"/><g transform="scale(2.903)"><g transform="translate(1,1)"><path fill-rule="evenodd" d="M9 0L9 1L8 1L8 2L9 2L9 3L8 3L8 4L10 4L10 7L11 7L11 4L12 4L12 5L13 5L13 6L12 6L12 9L14 9L14 10L15 10L15 11L16 11L16 12L17 12L17 13L16 13L16 14L15 14L15 15L14 15L14 16L13 16L13 15L12 15L12 17L14 17L14 18L11 18L11 17L10 17L10 16L11 16L11 15L10 15L10 16L9 16L9 15L8 15L8 16L6 16L6 15L7 15L7 14L6 14L6 13L8 13L8 14L9 14L9 13L10 13L10 14L11 14L11 13L12 13L12 14L13 14L13 13L15 13L15 12L13 12L13 13L12 13L12 11L13 11L13 10L11 10L11 11L10 11L10 9L11 9L11 8L6 8L6 9L7 9L7 10L6 10L6 11L4 11L4 12L6 12L6 13L5 13L5 14L4 14L4 15L3 15L3 17L2 17L2 15L1 15L1 14L3 14L3 13L2 13L2 11L3 11L3 10L4 10L4 9L5 9L5 8L0 8L0 12L1 12L1 14L0 14L0 21L1 21L1 18L4 18L4 17L8 17L8 18L5 18L5 19L8 19L8 18L10 18L10 19L9 19L9 20L10 20L10 19L11 19L11 21L10 21L10 22L11 22L11 21L12 21L12 22L13 22L13 23L12 23L12 25L14 25L14 26L11 26L11 29L13 29L13 28L12 28L12 27L14 27L14 28L15 28L15 29L16 29L16 28L17 28L17 25L18 25L18 28L19 28L19 29L20 29L20 28L19 28L19 27L20 27L20 26L19 26L19 24L20 24L20 25L21 25L21 29L22 29L22 27L23 27L23 29L24 29L24 27L25 27L25 28L26 28L26 29L27 29L27 28L28 28L28 26L29 26L29 23L28 23L28 22L29 22L29 21L28 21L28 20L29 20L29 19L28 19L28 18L29 18L29 17L28 17L28 16L29 16L29 15L28 15L28 14L29 14L29 13L28 13L28 12L29 12L29 11L28 11L28 12L27 12L27 13L28 13L28 14L27 14L27 15L28 15L28 16L26 16L26 15L25 15L25 14L26 14L26 13L25 13L25 12L26 12L26 11L27 11L27 9L28 9L28 8L27 8L27 9L26 9L26 8L25 8L25 9L24 9L24 8L23 8L23 9L22 9L22 8L21 8L21 4L20 4L20 3L21 3L21 2L20 2L20 3L19 3L19 1L20 1L20 0L18 0L18 3L19 3L19 4L18 4L18 5L20 5L20 8L21 8L21 9L18 9L18 8L17 8L17 0L16 0L16 1L14 1L14 4L12 4L12 2L13 2L13 1L11 1L11 2L10 2L10 0ZM10 3L10 4L11 4L11 3ZM15 4L15 5L16 5L16 4ZM8 5L8 7L9 7L9 5ZM13 6L13 8L14 8L14 6ZM15 6L15 8L16 8L16 9L15 9L15 10L16 10L16 11L17 11L17 12L18 12L18 13L19 13L19 12L20 12L20 13L24 13L24 12L25 12L25 11L23 11L23 10L22 10L22 9L21 9L21 11L20 11L20 10L18 10L18 11L17 11L17 10L16 10L16 9L17 9L17 8L16 8L16 6ZM18 6L18 7L19 7L19 6ZM2 9L2 10L1 10L1 11L2 11L2 10L3 10L3 9ZM8 9L8 13L9 13L9 9ZM6 11L6 12L7 12L7 11ZM18 11L18 12L19 12L19 11ZM21 11L21 12L23 12L23 11ZM10 12L10 13L11 13L11 12ZM18 14L18 15L16 15L16 17L15 17L15 16L14 16L14 17L15 17L15 18L14 18L14 19L12 19L12 21L13 21L13 22L14 22L14 23L13 23L13 24L14 24L14 25L15 25L15 26L14 26L14 27L15 27L15 26L16 26L16 25L17 25L17 24L19 24L19 22L20 22L20 20L21 20L21 19L22 19L22 18L21 18L21 19L20 19L20 18L18 18L18 19L17 19L17 18L16 18L16 17L17 17L17 16L18 16L18 17L19 17L19 15L21 15L21 16L20 16L20 17L23 17L23 18L24 18L24 17L25 17L25 19L23 19L23 20L25 20L25 23L26 23L26 25L24 25L24 26L25 26L25 27L26 27L26 28L27 28L27 27L26 27L26 26L27 26L27 24L28 24L28 23L27 23L27 22L28 22L28 21L26 21L26 20L28 20L28 19L26 19L26 18L28 18L28 17L25 17L25 16L24 16L24 14L22 14L22 15L21 15L21 14ZM4 15L4 16L5 16L5 15ZM15 18L15 19L14 19L14 20L13 20L13 21L14 21L14 22L15 22L15 23L14 23L14 24L15 24L15 25L16 25L16 24L17 24L17 23L16 23L16 22L17 22L17 21L18 21L18 22L19 22L19 21L18 21L18 20L19 20L19 19L18 19L18 20L17 20L17 21L16 21L16 22L15 22L15 21L14 21L14 20L15 20L15 19L16 19L16 18ZM3 19L3 20L4 20L4 21L5 21L5 20L4 20L4 19ZM6 20L6 21L7 21L7 20ZM8 21L8 23L9 23L9 24L8 24L8 29L9 29L9 28L10 28L10 27L9 27L9 25L11 25L11 24L10 24L10 23L9 23L9 21ZM21 21L21 24L24 24L24 21ZM22 22L22 23L23 23L23 22ZM22 25L22 26L23 26L23 25ZM0 0L0 7L7 7L7 0ZM1 1L1 6L6 6L6 1ZM2 2L2 5L5 5L5 2ZM22 0L22 7L29 7L29 0ZM23 1L23 6L28 6L28 1ZM24 2L24 5L27 5L27 2ZM0 22L0 29L7 29L7 22ZM1 23L1 28L6 28L6 23ZM2 24L2 27L5 27L5 24Z" fill="#282828"/></g></g></svg>
