<?xml version="1.0" encoding="UTF-8"?>
<svg xmlns="http://www.w3.org/2000/svg" version="1.1" width="90" height="90" viewBox="0 0 90 90"><rect x="0" y="0" width="90" height="90" fill="#ffffff"/><g transform="scale(2.903)"><g transform="translate(1,1)"><path fill-rule="evenodd" d="M8 0L8 4L10 4L10 3L11 3L11 4L12 4L12 2L11 2L11 0ZM12 0L12 1L14 1L14 3L13 3L13 5L11 5L11 6L10 6L10 7L9 7L9 5L8 5L8 7L9 7L9 8L10 8L10 7L11 7L11 6L12 6L12 8L11 8L11 9L8 9L8 10L6 10L6 11L5 11L5 9L7 9L7 8L4 8L4 9L2 9L2 8L0 8L0 10L4 10L4 11L3 11L3 12L6 12L6 13L7 13L7 14L6 14L6 15L4 15L4 14L5 14L5 13L4 13L4 14L3 14L3 15L2 15L2 13L1 13L1 12L2 12L2 11L0 11L0 16L3 16L3 17L4 17L4 19L5 19L5 17L7 17L7 18L6 18L6 19L8 19L8 20L6 20L6 21L8 21L8 22L9 22L9 21L11 21L11 20L12 20L12 21L13 21L13 22L15 22L15 23L14 23L14 24L13 24L13 23L12 23L12 24L11 24L11 25L12 25L12 26L11 26L11 28L12 28L12 29L14 29L14 27L15 27L15 29L16 29L16 27L17 27L17 28L19 28L19 27L21 27L21 28L20 28L20 29L22 29L22 28L23 28L23 26L22 26L22 25L24 25L24 26L25 26L25 29L28 29L28 28L29 28L29 25L28 25L28 23L29 23L29 21L26 21L26 20L25 20L25 19L24 19L24 20L22 20L22 19L23 19L23 18L25 18L25 17L26 17L26 16L25 16L25 15L26 15L26 14L25 14L25 13L27 13L27 15L29 15L29 13L28 13L28 12L29 12L29 10L28 10L28 9L29 9L29 8L25 8L25 9L24 9L24 8L23 8L23 9L22 9L22 10L21 10L21 11L19 11L19 10L20 10L20 9L15 9L15 8L18 8L18 7L19 7L19 6L20 6L20 7L21 7L21 6L20 6L20 3L21 3L21 2L20 2L20 0L19 0L19 2L17 2L17 1L16 1L16 0L15 0L15 1L14 1L14 0ZM15 1L15 3L14 3L14 6L13 6L13 8L12 8L12 9L11 9L11 10L8 10L8 11L9 11L9 12L8 12L8 13L9 13L9 14L11 14L11 16L10 16L10 15L8 15L8 16L7 16L7 15L6 15L6 16L7 16L7 17L8 17L8 19L9 19L9 18L10 18L10 17L11 17L11 18L12 18L12 17L13 17L13 18L16 18L16 19L18 19L18 18L16 18L16 17L13 17L13 16L14 16L14 15L15 15L15 16L17 16L17 17L19 17L19 16L22 16L22 18L21 18L21 17L20 17L20 18L19 18L19 20L21 20L21 19L22 19L22 18L23 18L23 17L24 17L24 14L23 14L23 13L24 13L24 11L23 11L23 12L22 12L22 15L20 15L20 14L21 14L21 13L20 13L20 12L19 12L19 13L20 13L20 14L19 14L19 16L17 16L17 15L18 15L18 13L17 13L17 14L16 14L16 15L15 15L15 14L13 14L13 13L12 13L12 12L13 12L13 11L12 11L12 12L11 12L11 13L10 13L10 11L11 11L11 10L12 10L12 9L13 9L13 10L14 10L14 9L13 9L13 8L15 8L15 7L16 7L16 5L17 5L17 3L16 3L16 1ZM9 2L9 3L10 3L10 2ZM15 3L15 5L16 5L16 3ZM18 4L18 5L19 5L19 4ZM14 6L14 7L15 7L15 6ZM17 6L17 7L18 7L18 6ZM23 9L23 10L24 10L24 9ZM25 9L25 10L27 10L27 11L26 11L26 12L27 12L27 11L28 11L28 10L27 10L27 9ZM17 10L17 11L18 11L18 10ZM6 11L6 12L7 12L7 11ZM14 11L14 13L16 13L16 12L15 12L15 11ZM12 15L12 16L11 16L11 17L12 17L12 16L13 16L13 15ZM22 15L22 16L23 16L23 15ZM8 16L8 17L9 17L9 16ZM0 17L0 18L2 18L2 17ZM27 17L27 18L26 18L26 19L29 19L29 17ZM2 19L2 20L0 20L0 21L2 21L2 20L3 20L3 21L4 21L4 20L3 20L3 19ZM12 19L12 20L13 20L13 19ZM14 19L14 21L15 21L15 22L16 22L16 21L17 21L17 22L18 22L18 24L17 24L17 23L16 23L16 25L13 25L13 24L12 24L12 25L13 25L13 26L16 26L16 25L17 25L17 26L18 26L18 25L19 25L19 24L20 24L20 23L19 23L19 22L18 22L18 21L17 21L17 20L15 20L15 19ZM21 21L21 24L24 24L24 21ZM10 22L10 23L11 23L11 22ZM22 22L22 23L23 23L23 22ZM25 22L25 23L26 23L26 24L25 24L25 25L26 25L26 24L27 24L27 22ZM8 23L8 25L9 25L9 27L8 27L8 29L9 29L9 28L10 28L10 24L9 24L9 23ZM20 25L20 26L21 26L21 25ZM27 25L27 26L28 26L28 25ZM12 27L12 28L13 28L13 27ZM26 27L26 28L27 28L27 27ZM0 0L0 7L7 7L7 0ZM1 1L1 6L6 6L6 1ZM2 2L2 5L5 5L5 2ZM22 0L22 7L29 7L29 0ZM23 1L23 6L28 6L28 1ZM24 2L24 5L27 5L27 2ZM0 22L0 29L7 29L7 22ZM1 23L1 28L6 28L6 23ZM2 24L2 27L5 27L5 24Z" fill="#282828"/></g></g></svg>
