<?xml version="1.0" encoding="UTF-8"?>
<svg xmlns="http://www.w3.org/2000/svg" version="1.1" width="90" height="90" viewBox="0 0 90 90"><rect x="0" y="0" width="90" height="90" fill="#ffffff"/><g transform="scale(2.903)"><g transform="translate(1,1)"><path fill-rule="evenodd" d="M9 0L9 1L8 1L8 2L9 2L9 3L8 3L8 4L10 4L10 7L11 7L11 4L12 4L12 5L13 5L13 6L12 6L12 9L13 9L13 8L14 8L14 9L15 9L15 10L17 10L17 11L16 11L16 12L17 12L17 11L19 11L19 13L18 13L18 15L19 15L19 17L17 17L17 14L16 14L16 13L12 13L12 11L13 11L13 10L11 10L11 11L10 11L10 9L11 9L11 8L6 8L6 9L5 9L5 8L0 8L0 13L2 13L2 12L3 12L3 10L4 10L4 13L3 13L3 17L2 17L2 14L0 14L0 15L1 15L1 17L0 17L0 21L1 21L1 18L2 18L2 21L4 21L4 20L5 20L5 18L6 18L6 19L7 19L7 20L6 20L6 21L7 21L7 20L8 20L8 23L9 23L9 24L8 24L8 29L9 29L9 25L11 25L11 22L10 22L10 16L11 16L11 15L10 15L10 14L11 14L11 13L12 13L12 14L13 14L13 15L12 15L12 17L13 17L13 16L14 16L14 17L17 17L17 18L15 18L15 19L14 19L14 20L15 20L15 21L12 21L12 19L13 19L13 18L11 18L11 21L12 21L12 22L13 22L13 23L12 23L12 25L13 25L13 24L14 24L14 25L18 25L18 24L14 24L14 23L18 23L18 21L17 21L17 20L15 20L15 19L17 19L17 18L18 18L18 20L19 20L19 17L20 17L20 19L21 19L21 20L20 20L20 23L19 23L19 24L20 24L20 26L18 26L18 28L17 28L17 29L18 29L18 28L19 28L19 29L20 29L20 28L19 28L19 27L22 27L22 29L23 29L23 27L24 27L24 28L26 28L26 27L27 27L27 28L28 28L28 26L29 26L29 25L28 25L28 24L27 24L27 26L26 26L26 25L25 25L25 24L26 24L26 23L25 23L25 17L28 17L28 18L26 18L26 19L28 19L28 20L26 20L26 21L28 21L28 22L27 22L27 23L28 23L28 22L29 22L29 21L28 21L28 20L29 20L29 19L28 19L28 18L29 18L29 17L28 17L28 16L29 16L29 15L28 15L28 14L29 14L29 13L28 13L28 14L27 14L27 15L28 15L28 16L26 16L26 15L25 15L25 16L24 16L24 15L23 15L23 16L24 16L24 17L23 17L23 19L21 19L21 18L22 18L22 17L20 17L20 15L19 15L19 13L20 13L20 14L21 14L21 16L22 16L22 14L26 14L26 13L25 13L25 12L26 12L26 11L27 11L27 9L28 9L28 8L27 8L27 9L26 9L26 8L25 8L25 9L24 9L24 8L23 8L23 10L22 10L22 8L21 8L21 6L20 6L20 7L19 7L19 4L18 4L18 7L19 7L19 9L16 9L16 7L17 7L17 5L16 5L16 4L17 4L17 2L16 2L16 4L12 4L12 2L13 2L13 1L11 1L11 2L10 2L10 0ZM15 0L15 1L17 1L17 0ZM18 0L18 3L21 3L21 1L20 1L20 0ZM19 1L19 2L20 2L20 1ZM14 2L14 3L15 3L15 2ZM10 3L10 4L11 4L11 3ZM20 4L20 5L21 5L21 4ZM8 5L8 7L9 7L9 5ZM13 6L13 7L14 7L14 8L15 8L15 7L16 7L16 6L15 6L15 7L14 7L14 6ZM20 8L20 9L19 9L19 11L20 11L20 9L21 9L21 8ZM6 9L6 10L5 10L5 12L8 12L8 14L7 14L7 13L6 13L6 14L4 14L4 15L5 15L5 16L4 16L4 18L3 18L3 19L4 19L4 18L5 18L5 17L6 17L6 18L9 18L9 17L6 17L6 16L7 16L7 15L9 15L9 16L10 16L10 15L9 15L9 14L10 14L10 13L11 13L11 12L10 12L10 13L9 13L9 9L8 9L8 11L6 11L6 10L7 10L7 9ZM23 10L23 11L21 11L21 12L20 12L20 13L21 13L21 12L22 12L22 13L24 13L24 12L23 12L23 11L24 11L24 10ZM1 11L1 12L2 12L2 11ZM14 11L14 12L15 12L15 11ZM6 14L6 15L7 15L7 14ZM14 15L14 16L15 16L15 15ZM8 19L8 20L9 20L9 19ZM23 19L23 20L24 20L24 19ZM15 21L15 22L17 22L17 21ZM21 21L21 24L24 24L24 21ZM22 22L22 23L23 23L23 22ZM21 25L21 26L22 26L22 27L23 27L23 26L24 26L24 25ZM11 26L11 29L12 29L12 27L13 27L13 26ZM15 26L15 27L14 27L14 28L15 28L15 29L16 29L16 27L17 27L17 26ZM0 0L0 7L7 7L7 0ZM1 1L1 6L6 6L6 1ZM2 2L2 5L5 5L5 2ZM22 0L22 7L29 7L29 0ZM23 1L23 6L28 6L28 1ZM24 2L24 5L27 5L27 2ZM0 22L0 29L7 29L7 22ZM1 23L1 28L6 28L6 23ZM2 24L2 27L5 27L5 24Z" fill="#282828"/></g></g></svg>
