<?xml version="1.0" encoding="UTF-8"?>
<svg xmlns="http://www.w3.org/2000/svg" version="1.1" width="90" height="90" viewBox="0 0 90 90"><rect x="0" y="0" width="90" height="90" fill="#ffffff"/><g transform="scale(3.333)"><g transform="translate(1,1)"><path fill-rule="evenodd" d="M8 0L8 1L11 1L11 3L10 3L10 2L9 2L9 3L10 3L10 5L9 5L9 6L8 6L8 8L9 8L9 9L7 9L7 8L6 8L6 9L5 9L5 8L3 8L3 9L2 9L2 8L0 8L0 9L1 9L1 10L2 10L2 11L3 11L3 12L2 12L2 13L1 13L1 11L0 11L0 17L1 17L1 15L2 15L2 14L4 14L4 15L3 15L3 16L2 16L2 17L3 17L3 16L4 16L4 15L5 15L5 14L6 14L6 15L7 15L7 14L8 14L8 12L6 12L6 13L5 13L5 12L4 12L4 11L3 11L3 10L5 10L5 11L10 11L10 10L11 10L11 11L12 11L12 12L9 12L9 15L8 15L8 18L9 18L9 17L10 17L10 16L9 16L9 15L10 15L10 14L13 14L13 15L11 15L11 17L12 17L12 18L10 18L10 19L9 19L9 20L8 20L8 22L9 22L9 21L11 21L11 22L10 22L10 23L8 23L8 25L9 25L9 24L10 24L10 23L11 23L11 25L12 25L12 24L13 24L13 23L14 23L14 24L15 24L15 23L17 23L17 22L19 22L19 21L21 21L21 22L20 22L20 23L18 23L18 24L20 24L20 25L22 25L22 24L24 24L24 25L25 25L25 21L24 21L24 20L25 20L25 18L22 18L22 16L23 16L23 17L25 17L25 16L24 16L24 15L25 15L25 14L24 14L24 13L25 13L25 12L23 12L23 11L25 11L25 10L24 10L24 9L25 9L25 8L24 8L24 9L19 9L19 8L18 8L18 9L19 9L19 10L20 10L20 11L18 11L18 10L17 10L17 8L15 8L15 5L16 5L16 7L17 7L17 3L15 3L15 1L16 1L16 0L14 0L14 1L12 1L12 0ZM12 2L12 3L13 3L13 4L15 4L15 3L13 3L13 2ZM10 5L10 6L9 6L9 7L10 7L10 9L9 9L9 10L10 10L10 9L13 9L13 10L12 10L12 11L13 11L13 12L12 12L12 13L13 13L13 14L14 14L14 15L13 15L13 16L12 16L12 17L13 17L13 18L12 18L12 19L10 19L10 20L11 20L11 21L12 21L12 22L13 22L13 21L12 21L12 19L13 19L13 18L14 18L14 20L15 20L15 19L16 19L16 16L18 16L18 15L16 15L16 16L15 16L15 14L14 14L14 13L15 13L15 12L17 12L17 14L20 14L20 15L19 15L19 16L20 16L20 15L24 15L24 14L20 14L20 13L18 13L18 11L15 11L15 10L14 10L14 9L13 9L13 7L14 7L14 6L13 6L13 7L12 7L12 6L11 6L11 5ZM10 6L10 7L11 7L11 8L12 8L12 7L11 7L11 6ZM6 9L6 10L7 10L7 9ZM13 12L13 13L14 13L14 12ZM21 12L21 13L22 13L22 12ZM6 13L6 14L7 14L7 13ZM5 16L5 17L7 17L7 16ZM17 17L17 20L20 20L20 17ZM18 18L18 19L19 19L19 18ZM21 18L21 19L22 19L22 22L21 22L21 23L20 23L20 24L21 24L21 23L23 23L23 20L24 20L24 19L22 19L22 18ZM14 21L14 23L15 23L15 21ZM16 24L16 25L17 25L17 24ZM0 0L0 7L7 7L7 0ZM1 1L1 6L6 6L6 1ZM2 2L2 5L5 5L5 2ZM18 0L18 7L25 7L25 0ZM19 1L19 6L24 6L24 1ZM20 2L20 5L23 5L23 2ZM0 18L0 25L7 25L7 18ZM1 19L1 24L6 24L6 19ZM2 20L2 23L5 23L5 20Z" fill="#282828"/></g></g></svg>
