<?xml version="1.0" encoding="UTF-8"?>
<svg xmlns="http://www.w3.org/2000/svg" version="1.1" width="90" height="90" viewBox="0 0 90 90"><rect x="0" y="0" width="90" height="90" fill="#ffffff"/><g transform="scale(2.903)"><g transform="translate(1,1)"><path fill-rule="evenodd" d="M9 0L9 1L8 1L8 2L9 2L9 3L8 3L8 4L10 4L10 7L11 7L11 4L12 4L12 5L13 5L13 4L14 4L14 5L15 5L15 6L14 6L14 7L15 7L15 8L13 8L13 6L12 6L12 9L15 9L15 11L14 11L14 12L13 12L13 13L12 13L12 11L13 11L13 10L11 10L11 11L10 11L10 9L11 9L11 8L6 8L6 9L8 9L8 11L7 11L7 10L6 10L6 11L7 11L7 12L6 12L6 13L5 13L5 8L0 8L0 9L2 9L2 10L0 10L0 11L2 11L2 12L1 12L1 13L2 13L2 14L3 14L3 13L4 13L4 15L1 15L1 14L0 14L0 21L1 21L1 17L3 17L3 16L6 16L6 17L5 17L5 18L4 18L4 19L5 19L5 21L7 21L7 20L6 20L6 19L7 19L7 18L8 18L8 17L7 17L7 16L6 16L6 15L7 15L7 14L6 14L6 13L8 13L8 15L10 15L10 14L11 14L11 13L12 13L12 14L13 14L13 15L12 15L12 17L14 17L14 18L11 18L11 19L10 19L10 16L9 16L9 19L8 19L8 23L9 23L9 24L8 24L8 29L9 29L9 28L11 28L11 29L12 29L12 27L13 27L13 26L11 26L11 23L9 23L9 22L11 22L11 21L12 21L12 22L13 22L13 23L12 23L12 25L13 25L13 24L14 24L14 25L16 25L16 26L15 26L15 27L14 27L14 28L15 28L15 29L18 29L18 28L15 28L15 27L17 27L17 25L18 25L18 24L17 24L17 23L18 23L18 22L19 22L19 24L20 24L20 25L25 25L25 26L21 26L21 27L20 27L20 26L19 26L19 27L20 27L20 28L19 28L19 29L20 29L20 28L23 28L23 29L27 29L27 28L28 28L28 26L29 26L29 24L26 24L26 23L25 23L25 22L27 22L27 23L28 23L28 22L29 22L29 21L28 21L28 20L29 20L29 19L28 19L28 18L29 18L29 17L28 17L28 16L29 16L29 15L28 15L28 16L26 16L26 17L28 17L28 18L27 18L27 19L28 19L28 20L27 20L27 21L25 21L25 20L26 20L26 19L25 19L25 17L24 17L24 16L25 16L25 15L24 15L24 14L25 14L25 13L27 13L27 12L26 12L26 11L25 11L25 10L26 10L26 8L25 8L25 9L24 9L24 8L23 8L23 9L22 9L22 8L21 8L21 9L20 9L20 12L18 12L18 11L19 11L19 9L18 9L18 10L17 10L17 9L15 9L15 8L16 8L16 7L17 7L17 8L19 8L19 3L20 3L20 7L21 7L21 0L20 0L20 2L19 2L19 3L17 3L17 4L15 4L15 3L16 3L16 2L18 2L18 1L19 1L19 0L13 0L13 1L11 1L11 2L10 2L10 0ZM12 2L12 4L13 4L13 3L14 3L14 2ZM10 3L10 4L11 4L11 3ZM17 4L17 5L16 5L16 6L15 6L15 7L16 7L16 6L17 6L17 7L18 7L18 4ZM8 5L8 7L9 7L9 5ZM27 8L27 10L28 10L28 8ZM3 9L3 10L2 10L2 11L4 11L4 9ZM23 9L23 10L22 10L22 12L20 12L20 13L19 13L19 15L18 15L18 14L17 14L17 16L14 16L14 15L15 15L15 14L14 14L14 13L15 13L15 12L14 12L14 13L13 13L13 14L14 14L14 15L13 15L13 16L14 16L14 17L17 17L17 18L16 18L16 21L15 21L15 20L14 20L14 19L15 19L15 18L14 18L14 19L12 19L12 21L14 21L14 22L17 22L17 20L18 20L18 21L19 21L19 22L20 22L20 20L21 20L21 19L22 19L22 20L25 20L25 19L22 19L22 18L21 18L21 17L23 17L23 16L24 16L24 15L23 15L23 14L22 14L22 15L21 15L21 14L20 14L20 13L25 13L25 12L23 12L23 10L24 10L24 9ZM8 11L8 12L9 12L9 11ZM16 11L16 13L17 13L17 11ZM28 11L28 13L29 13L29 11ZM2 12L2 13L3 13L3 12ZM10 12L10 13L9 13L9 14L10 14L10 13L11 13L11 12ZM5 14L5 15L6 15L6 14ZM26 14L26 15L27 15L27 14ZM17 16L17 17L18 17L18 16ZM6 17L6 18L5 18L5 19L6 19L6 18L7 18L7 17ZM19 17L19 18L18 18L18 20L19 20L19 18L20 18L20 19L21 19L21 18L20 18L20 17ZM2 18L2 21L3 21L3 18ZM9 19L9 20L10 20L10 21L11 21L11 20L10 20L10 19ZM21 21L21 24L24 24L24 21ZM27 21L27 22L28 22L28 21ZM22 22L22 23L23 23L23 22ZM14 23L14 24L15 24L15 23ZM9 24L9 26L10 26L10 27L11 27L11 26L10 26L10 24ZM16 24L16 25L17 25L17 24ZM25 24L25 25L26 25L26 24ZM26 27L26 28L27 28L27 27ZM0 0L0 7L7 7L7 0ZM1 1L1 6L6 6L6 1ZM2 2L2 5L5 5L5 2ZM22 0L22 7L29 7L29 0ZM23 1L23 6L28 6L28 1ZM24 2L24 5L27 5L27 2ZM0 22L0 29L7 29L7 22ZM1 23L1 28L6 28L6 23ZM2 24L2 27L5 27L5 24Z" fill="#282828"/></g></g></svg>
