<?xml version="1.0" encoding="UTF-8"?>
<svg xmlns="http://www.w3.org/2000/svg" version="1.1" width="100" height="100" viewBox="0 0 100 100"><rect x="0" y="0" width="100" height="100" fill="#ffffff"/><g transform="scale(3.226)"><g transform="translate(1,1)"><path fill-rule="evenodd" d="M8 0L8 1L9 1L9 2L10 2L10 3L11 3L11 1L13 1L13 0L11 0L11 1L9 1L9 0ZM14 0L14 2L12 2L12 4L11 4L11 5L10 5L10 4L9 4L9 5L10 5L10 8L9 8L9 6L8 6L8 8L9 8L9 9L8 9L8 10L6 10L6 9L7 9L7 8L6 8L6 9L5 9L5 8L3 8L3 9L2 9L2 8L0 8L0 11L1 11L1 12L0 12L0 14L2 14L2 15L0 15L0 16L1 16L1 17L0 17L0 21L2 21L2 20L3 20L3 21L4 21L4 19L2 19L2 18L1 18L1 17L3 17L3 16L4 16L4 17L5 17L5 19L7 19L7 20L5 20L5 21L7 21L7 20L10 20L10 21L8 21L8 22L10 22L10 23L11 23L11 22L10 22L10 21L11 21L11 19L12 19L12 21L13 21L13 20L14 20L14 19L15 19L15 17L16 17L16 16L17 16L17 18L16 18L16 20L15 20L15 22L12 22L12 23L14 23L14 24L13 24L13 25L12 25L12 26L13 26L13 25L14 25L14 27L12 27L12 28L9 28L9 27L10 27L10 26L9 26L9 24L8 24L8 26L9 26L9 27L8 27L8 29L13 29L13 28L15 28L15 29L16 29L16 28L17 28L17 29L18 29L18 28L19 28L19 29L21 29L21 28L23 28L23 29L24 29L24 28L26 28L26 29L27 29L27 27L28 27L28 28L29 28L29 25L28 25L28 24L26 24L26 23L28 23L28 21L29 21L29 18L28 18L28 15L29 15L29 14L28 14L28 13L25 13L25 12L26 12L26 11L27 11L27 12L28 12L28 11L27 11L27 9L23 9L23 8L22 8L22 9L23 9L23 10L24 10L24 11L25 11L25 12L23 12L23 11L22 11L22 10L21 10L21 12L18 12L18 11L17 11L17 10L20 10L20 9L21 9L21 6L20 6L20 8L19 8L19 6L18 6L18 8L16 8L16 7L17 7L17 6L16 6L16 5L17 5L17 4L18 4L18 5L20 5L20 4L21 4L21 3L20 3L20 1L19 1L19 0L16 0L16 1L15 1L15 0ZM17 1L17 3L18 3L18 4L19 4L19 2L18 2L18 1ZM14 2L14 3L13 3L13 4L12 4L12 5L11 5L11 7L12 7L12 9L10 9L10 10L9 10L9 11L10 11L10 10L12 10L12 11L13 11L13 13L11 13L11 12L10 12L10 13L9 13L9 12L8 12L8 15L5 15L5 14L4 14L4 13L2 13L2 12L1 12L1 13L2 13L2 14L4 14L4 15L5 15L5 17L6 17L6 18L7 18L7 17L6 17L6 16L9 16L9 17L8 17L8 18L9 18L9 19L10 19L10 18L9 18L9 17L10 17L10 16L11 16L11 17L13 17L13 18L12 18L12 19L14 19L14 17L13 17L13 16L15 16L15 15L17 15L17 16L18 16L18 19L17 19L17 20L18 20L18 21L16 21L16 23L18 23L18 24L17 24L17 25L16 25L16 24L15 24L15 25L16 25L16 26L15 26L15 27L18 27L18 26L17 26L17 25L19 25L19 26L20 26L20 28L21 28L21 27L23 27L23 26L24 26L24 25L22 25L22 26L21 26L21 25L19 25L19 24L20 24L20 23L18 23L18 21L19 21L19 22L20 22L20 21L19 21L19 20L18 20L18 19L19 19L19 18L20 18L20 17L19 17L19 16L21 16L21 18L22 18L22 20L23 20L23 19L24 19L24 20L26 20L26 21L27 21L27 20L26 20L26 19L25 19L25 18L27 18L27 16L26 16L26 15L25 15L25 16L24 16L24 14L23 14L23 15L19 15L19 16L18 16L18 12L17 12L17 13L16 13L16 11L14 11L14 10L15 10L15 9L16 9L16 10L17 10L17 9L16 9L16 8L15 8L15 7L16 7L16 6L15 6L15 7L14 7L14 6L13 6L13 7L12 7L12 5L13 5L13 4L14 4L14 5L15 5L15 4L16 4L16 2ZM13 7L13 8L14 8L14 9L15 9L15 8L14 8L14 7ZM18 8L18 9L19 9L19 8ZM28 8L28 10L29 10L29 8ZM12 9L12 10L13 10L13 9ZM1 10L1 11L2 11L2 10ZM4 10L4 12L5 12L5 10ZM25 10L25 11L26 11L26 10ZM6 11L6 12L7 12L7 11ZM21 12L21 13L19 13L19 14L21 14L21 13L22 13L22 12ZM6 13L6 14L7 14L7 13ZM13 13L13 14L11 14L11 16L12 16L12 15L14 15L14 14L16 14L16 13ZM9 14L9 15L10 15L10 14ZM27 14L27 15L28 15L28 14ZM2 15L2 16L3 16L3 15ZM23 16L23 18L25 18L25 17L24 17L24 16ZM21 21L21 24L24 24L24 21ZM22 22L22 23L23 23L23 22ZM25 25L25 26L26 26L26 25ZM27 25L27 26L28 26L28 25ZM0 0L0 7L7 7L7 0ZM1 1L1 6L6 6L6 1ZM2 2L2 5L5 5L5 2ZM22 0L22 7L29 7L29 0ZM23 1L23 6L28 6L28 1ZM24 2L24 5L27 5L27 2ZM0 22L0 29L7 29L7 22ZM1 23L1 28L6 28L6 23ZM2 24L2 27L5 27L5 24Z" fill="#282828"/></g></g></svg>
