<?xml version="1.0" encoding="UTF-8"?>
<svg xmlns="http://www.w3.org/2000/svg" version="1.1" width="90" height="90" viewBox="0 0 90 90"><rect x="0" y="0" width="90" height="90" fill="#ffffff"/><g transform="scale(2.903)"><g transform="translate(1,1)"><path fill-rule="evenodd" d="M8 0L8 4L9 4L9 5L8 5L8 7L9 7L9 6L10 6L10 9L11 9L11 8L12 8L12 9L13 9L13 10L15 10L15 11L14 11L14 13L12 13L12 12L13 12L13 11L12 11L12 12L11 12L11 13L10 13L10 15L8 15L8 20L5 20L5 18L6 18L6 19L7 19L7 18L6 18L6 17L7 17L7 16L6 16L6 15L7 15L7 14L8 14L8 12L6 12L6 11L8 11L8 10L9 10L9 12L10 12L10 11L11 11L11 10L9 10L9 9L7 9L7 8L4 8L4 10L3 10L3 9L2 9L2 8L0 8L0 10L1 10L1 11L2 11L2 13L4 13L4 14L2 14L2 15L0 15L0 18L1 18L1 16L2 16L2 17L4 17L4 19L2 19L2 20L0 20L0 21L3 21L3 20L5 20L5 21L8 21L8 22L11 22L11 24L10 24L10 23L8 23L8 25L9 25L9 26L10 26L10 29L12 29L12 28L13 28L13 29L15 29L15 28L16 28L16 25L14 25L14 23L15 23L15 24L17 24L17 25L18 25L18 24L19 24L19 25L21 25L21 26L22 26L22 25L24 25L24 26L25 26L25 27L24 27L24 28L23 28L23 27L22 27L22 28L21 28L21 27L17 27L17 29L18 29L18 28L20 28L20 29L22 29L22 28L23 28L23 29L25 29L25 28L26 28L26 29L28 29L28 28L29 28L29 21L27 21L27 20L26 20L26 19L25 19L25 18L27 18L27 19L29 19L29 17L26 17L26 16L25 16L25 17L24 17L24 20L21 20L21 17L22 17L22 18L23 18L23 17L22 17L22 16L24 16L24 13L25 13L25 14L26 14L26 15L27 15L27 14L28 14L28 15L29 15L29 14L28 14L28 13L29 13L29 12L27 12L27 13L25 13L25 12L26 12L26 11L25 11L25 10L24 10L24 11L22 11L22 10L23 10L23 9L24 9L24 8L23 8L23 9L22 9L22 10L20 10L20 9L21 9L21 8L19 8L19 9L13 9L13 8L12 8L12 7L13 7L13 6L14 6L14 7L15 7L15 8L16 8L16 7L17 7L17 8L18 8L18 7L19 7L19 6L20 6L20 7L21 7L21 6L20 6L20 3L19 3L19 2L21 2L21 1L20 1L20 0L16 0L16 2L14 2L14 3L13 3L13 1L11 1L11 2L12 2L12 5L13 5L13 6L12 6L12 7L11 7L11 3L10 3L10 2L9 2L9 0ZM17 1L17 2L18 2L18 1ZM17 3L17 5L15 5L15 4L14 4L14 5L15 5L15 7L16 7L16 6L17 6L17 7L18 7L18 4L19 4L19 3ZM25 8L25 9L26 9L26 10L27 10L27 9L29 9L29 8ZM1 9L1 10L2 10L2 11L3 11L3 12L4 12L4 11L5 11L5 10L7 10L7 9L5 9L5 10L4 10L4 11L3 11L3 10L2 10L2 9ZM16 10L16 11L17 11L17 10ZM19 10L19 11L18 11L18 13L20 13L20 14L19 14L19 16L18 16L18 17L17 17L17 15L18 15L18 14L17 14L17 15L16 15L16 17L17 17L17 18L16 18L16 19L17 19L17 18L19 18L19 20L18 20L18 21L19 21L19 20L20 20L20 17L19 17L19 16L21 16L21 13L20 13L20 10ZM28 10L28 11L29 11L29 10ZM21 11L21 12L22 12L22 13L24 13L24 12L25 12L25 11L24 11L24 12L22 12L22 11ZM5 12L5 13L6 13L6 14L4 14L4 17L6 17L6 16L5 16L5 15L6 15L6 14L7 14L7 13L6 13L6 12ZM16 12L16 13L17 13L17 12ZM0 13L0 14L1 14L1 13ZM11 13L11 14L12 14L12 13ZM14 13L14 15L12 15L12 16L11 16L11 15L10 15L10 16L9 16L9 17L10 17L10 16L11 16L11 19L9 19L9 20L8 20L8 21L11 21L11 22L12 22L12 21L13 21L13 22L14 22L14 21L13 21L13 20L14 20L14 19L15 19L15 17L14 17L14 15L15 15L15 13ZM12 16L12 17L13 17L13 19L12 19L12 20L11 20L11 21L12 21L12 20L13 20L13 19L14 19L14 17L13 17L13 16ZM15 20L15 21L17 21L17 20ZM21 21L21 24L24 24L24 21ZM25 21L25 22L26 22L26 24L27 24L27 26L26 26L26 28L27 28L27 26L28 26L28 23L27 23L27 21ZM18 22L18 23L19 23L19 22ZM22 22L22 23L23 23L23 22ZM12 23L12 24L11 24L11 28L12 28L12 27L13 27L13 28L14 28L14 27L15 27L15 26L13 26L13 25L12 25L12 24L13 24L13 23ZM9 24L9 25L10 25L10 24ZM8 27L8 29L9 29L9 27ZM0 0L0 7L7 7L7 0ZM1 1L1 6L6 6L6 1ZM2 2L2 5L5 5L5 2ZM22 0L22 7L29 7L29 0ZM23 1L23 6L28 6L28 1ZM24 2L24 5L27 5L27 2ZM0 22L0 29L7 29L7 22ZM1 23L1 28L6 28L6 23ZM2 24L2 27L5 27L5 24Z" fill="#282828"/></g></g></svg>
