<?xml version="1.0" encoding="UTF-8"?>
<svg xmlns="http://www.w3.org/2000/svg" version="1.1" width="90" height="90" viewBox="0 0 90 90"><rect x="0" y="0" width="90" height="90" fill="#ffffff"/><g transform="scale(3.333)"><g transform="translate(1,1)"><path fill-rule="evenodd" d="M12 0L12 2L11 2L11 1L10 1L10 2L11 2L11 3L8 3L8 4L9 4L9 5L8 5L8 7L9 7L9 8L6 8L6 9L7 9L7 10L6 10L6 11L4 11L4 12L3 12L3 11L2 11L2 10L1 10L1 9L3 9L3 10L4 10L4 9L5 9L5 8L0 8L0 17L1 17L1 14L2 14L2 13L1 13L1 11L2 11L2 12L3 12L3 15L2 15L2 17L3 17L3 16L4 16L4 17L5 17L5 16L6 16L6 17L8 17L8 19L9 19L9 20L8 20L8 25L10 25L10 23L9 23L9 20L10 20L10 22L12 22L12 21L11 21L11 18L12 18L12 20L13 20L13 21L17 21L17 22L19 22L19 21L20 21L20 22L21 22L21 21L22 21L22 22L24 22L24 24L21 24L21 25L25 25L25 21L24 21L24 20L25 20L25 18L24 18L24 17L25 17L25 16L24 16L24 15L25 15L25 14L24 14L24 13L25 13L25 10L24 10L24 8L23 8L23 10L22 10L22 8L21 8L21 10L20 10L20 8L19 8L19 10L20 10L20 11L17 11L17 10L15 10L15 11L14 11L14 12L13 12L13 11L11 11L11 10L14 10L14 9L16 9L16 7L17 7L17 6L16 6L16 5L17 5L17 2L16 2L16 1L17 1L17 0L16 0L16 1L15 1L15 2L14 2L14 3L13 3L13 1L14 1L14 0ZM8 1L8 2L9 2L9 1ZM15 2L15 3L16 3L16 2ZM11 3L11 4L10 4L10 6L9 6L9 7L10 7L10 6L11 6L11 8L10 8L10 9L9 9L9 10L7 10L7 11L6 11L6 12L8 12L8 13L4 13L4 14L9 14L9 15L10 15L10 14L11 14L11 16L10 16L10 17L9 17L9 16L8 16L8 17L9 17L9 18L11 18L11 17L12 17L12 18L13 18L13 17L12 17L12 15L13 15L13 16L14 16L14 15L15 15L15 17L14 17L14 18L15 18L15 19L13 19L13 20L16 20L16 18L15 18L15 17L16 17L16 15L17 15L17 16L22 16L22 17L21 17L21 20L23 20L23 19L24 19L24 18L22 18L22 17L24 17L24 16L23 16L23 15L24 15L24 14L23 14L23 15L22 15L22 13L23 13L23 12L24 12L24 10L23 10L23 11L20 11L20 14L19 14L19 13L18 13L18 14L19 14L19 15L17 15L17 14L16 14L16 13L17 13L17 12L16 12L16 13L13 13L13 12L11 12L11 11L10 11L10 9L13 9L13 8L15 8L15 7L16 7L16 6L15 6L15 7L14 7L14 6L13 6L13 7L12 7L12 5L11 5L11 4L13 4L13 5L14 5L14 4L13 4L13 3ZM17 8L17 9L18 9L18 8ZM8 11L8 12L9 12L9 14L10 14L10 13L11 13L11 14L13 14L13 13L11 13L11 12L9 12L9 11ZM15 14L15 15L16 15L16 14ZM4 15L4 16L5 16L5 15ZM6 15L6 16L7 16L7 15ZM17 17L17 20L20 20L20 17ZM18 18L18 19L19 19L19 18ZM14 22L14 25L15 25L15 24L17 24L17 25L20 25L20 23L19 23L19 24L17 24L17 23L16 23L16 22ZM11 23L11 25L12 25L12 23ZM0 0L0 7L7 7L7 0ZM1 1L1 6L6 6L6 1ZM2 2L2 5L5 5L5 2ZM18 0L18 7L25 7L25 0ZM19 1L19 6L24 6L24 1ZM20 2L20 5L23 5L23 2ZM0 18L0 25L7 25L7 18ZM1 19L1 24L6 24L6 19ZM2 20L2 23L5 23L5 20Z" fill="#282828"/></g></g></svg>
