<?xml version="1.0" encoding="UTF-8"?>
<svg xmlns="http://www.w3.org/2000/svg" version="1.1" width="90" height="90" viewBox="0 0 90 90"><rect x="0" y="0" width="90" height="90" fill="#ffffff"/><g transform="scale(2.903)"><g transform="translate(1,1)"><path fill-rule="evenodd" d="M9 0L9 1L8 1L8 3L9 3L9 4L8 4L8 8L6 8L6 9L5 9L5 10L4 10L4 8L3 8L3 10L2 10L2 8L0 8L0 10L2 10L2 11L5 11L5 10L6 10L6 11L7 11L7 12L3 12L3 13L1 13L1 11L0 11L0 14L3 14L3 15L0 15L0 17L1 17L1 18L0 18L0 19L1 19L1 18L2 18L2 17L1 17L1 16L3 16L3 19L5 19L5 18L4 18L4 17L5 17L5 16L6 16L6 17L7 17L7 18L6 18L6 19L7 19L7 20L4 20L4 21L7 21L7 20L9 20L9 21L8 21L8 23L10 23L10 24L11 24L11 25L10 25L10 26L9 26L9 25L8 25L8 26L9 26L9 27L8 27L8 29L11 29L11 28L12 28L12 29L14 29L14 28L12 28L12 24L14 24L14 25L13 25L13 27L15 27L15 29L17 29L17 28L18 28L18 27L19 27L19 28L20 28L20 29L23 29L23 26L24 26L24 27L25 27L25 26L26 26L26 27L27 27L27 28L25 28L25 29L28 29L28 27L29 27L29 26L28 26L28 25L27 25L27 24L29 24L29 23L27 23L27 22L26 22L26 21L27 21L27 20L26 20L26 21L25 21L25 20L23 20L23 19L22 19L22 20L20 20L20 21L19 21L19 23L18 23L18 24L17 24L17 22L18 22L18 19L17 19L17 18L18 18L18 17L15 17L15 16L16 16L16 15L14 15L14 14L16 14L16 13L17 13L17 16L19 16L19 15L18 15L18 13L17 13L17 11L16 11L16 12L14 12L14 11L15 11L15 10L18 10L18 8L19 8L19 6L20 6L20 8L21 8L21 6L20 6L20 5L21 5L21 4L20 4L20 3L19 3L19 0L18 0L18 2L17 2L17 4L16 4L16 3L15 3L15 2L16 2L16 1L14 1L14 0L12 0L12 1L11 1L11 2L9 2L9 1L10 1L10 0ZM13 2L13 3L12 3L12 4L9 4L9 5L10 5L10 6L9 6L9 7L10 7L10 8L8 8L8 9L9 9L9 10L10 10L10 8L11 8L11 9L12 9L12 10L11 10L11 11L9 11L9 15L8 15L8 14L7 14L7 13L8 13L8 12L7 12L7 13L6 13L6 14L5 14L5 13L3 13L3 14L4 14L4 15L6 15L6 16L7 16L7 15L8 15L8 16L9 16L9 17L8 17L8 18L9 18L9 17L11 17L11 19L9 19L9 20L11 20L11 19L12 19L12 20L14 20L14 21L15 21L15 19L16 19L16 20L17 20L17 19L16 19L16 18L15 18L15 17L14 17L14 16L12 16L12 14L10 14L10 13L12 13L12 12L13 12L13 8L15 8L15 9L14 9L14 10L15 10L15 9L16 9L16 8L17 8L17 7L18 7L18 6L19 6L19 5L20 5L20 4L19 4L19 5L16 5L16 4L14 4L14 2ZM13 4L13 6L12 6L12 5L11 5L11 6L10 6L10 7L11 7L11 6L12 6L12 8L13 8L13 6L14 6L14 7L15 7L15 8L16 8L16 7L17 7L17 6L16 6L16 5L14 5L14 4ZM15 6L15 7L16 7L16 6ZM22 8L22 9L19 9L19 12L20 12L20 14L22 14L22 15L20 15L20 17L19 17L19 18L20 18L20 17L22 17L22 15L23 15L23 14L22 14L22 13L23 13L23 12L24 12L24 13L25 13L25 14L24 14L24 15L25 15L25 14L26 14L26 13L29 13L29 12L28 12L28 10L27 10L27 9L28 9L28 8L26 8L26 10L27 10L27 11L26 11L26 13L25 13L25 10L24 10L24 11L23 11L23 12L22 12L22 13L21 13L21 12L20 12L20 11L22 11L22 9L25 9L25 8ZM6 9L6 10L7 10L7 11L8 11L8 10L7 10L7 9ZM13 13L13 14L14 14L14 13ZM6 14L6 15L7 15L7 14ZM28 14L28 15L27 15L27 17L25 17L25 16L24 16L24 17L23 17L23 18L24 18L24 19L25 19L25 18L27 18L27 17L28 17L28 19L29 19L29 17L28 17L28 15L29 15L29 14ZM10 15L10 16L11 16L11 17L12 17L12 16L11 16L11 15ZM13 17L13 18L14 18L14 17ZM24 17L24 18L25 18L25 17ZM0 20L0 21L1 21L1 20ZM28 20L28 22L29 22L29 20ZM21 21L21 24L24 24L24 21ZM14 22L14 23L15 23L15 24L16 24L16 22ZM22 22L22 23L23 23L23 22ZM19 23L19 25L18 25L18 26L21 26L21 27L20 27L20 28L22 28L22 25L20 25L20 23ZM25 23L25 25L24 25L24 26L25 26L25 25L26 25L26 26L27 26L27 27L28 27L28 26L27 26L27 25L26 25L26 23ZM14 25L14 26L15 26L15 27L16 27L16 28L17 28L17 25L16 25L16 26L15 26L15 25ZM10 26L10 27L11 27L11 26ZM0 0L0 7L7 7L7 0ZM1 1L1 6L6 6L6 1ZM2 2L2 5L5 5L5 2ZM22 0L22 7L29 7L29 0ZM23 1L23 6L28 6L28 1ZM24 2L24 5L27 5L27 2ZM0 22L0 29L7 29L7 22ZM1 23L1 28L6 28L6 23ZM2 24L2 27L5 27L5 24Z" fill="#282828"/></g></g></svg>
