<?xml version="1.0" encoding="UTF-8"?>
<svg xmlns="http://www.w3.org/2000/svg" version="1.1" width="90" height="90" viewBox="0 0 90 90"><rect x="0" y="0" width="90" height="90" fill="#ffffff"/><g transform="scale(3.333)"><g transform="translate(1,1)"><path fill-rule="evenodd" d="M8 0L8 1L10 1L10 0ZM14 0L14 1L13 1L13 2L11 2L11 4L10 4L10 3L9 3L9 2L8 2L8 5L9 5L9 6L8 6L8 7L9 7L9 8L8 8L8 9L7 9L7 8L6 8L6 9L5 9L5 10L3 10L3 9L4 9L4 8L0 8L0 9L2 9L2 10L1 10L1 11L0 11L0 13L1 13L1 12L2 12L2 14L1 14L1 15L0 15L0 16L1 16L1 15L2 15L2 14L3 14L3 13L4 13L4 15L3 15L3 16L2 16L2 17L3 17L3 16L4 16L4 15L5 15L5 16L6 16L6 17L8 17L8 18L9 18L9 21L8 21L8 25L11 25L11 24L12 24L12 23L13 23L13 25L14 25L14 24L15 24L15 23L16 23L16 24L17 24L17 25L19 25L19 24L20 24L20 23L21 23L21 22L22 22L22 24L21 24L21 25L25 25L25 24L23 24L23 23L24 23L24 22L25 22L25 17L24 17L24 15L23 15L23 17L21 17L21 16L20 16L20 15L22 15L22 14L23 14L23 13L24 13L24 14L25 14L25 12L23 12L23 11L24 11L24 9L25 9L25 8L24 8L24 9L23 9L23 8L20 8L20 9L18 9L18 8L17 8L17 4L16 4L16 3L17 3L17 0ZM14 1L14 3L12 3L12 5L10 5L10 6L9 6L9 7L10 7L10 8L9 8L9 9L8 9L8 10L9 10L9 12L7 12L7 11L5 11L5 12L4 12L4 13L5 13L5 12L7 12L7 13L6 13L6 14L5 14L5 15L6 15L6 16L8 16L8 13L9 13L9 12L10 12L10 13L11 13L11 11L16 11L16 13L14 13L14 12L13 12L13 13L12 13L12 14L10 14L10 15L9 15L9 17L10 17L10 18L11 18L11 19L12 19L12 18L13 18L13 23L14 23L14 22L16 22L16 23L17 23L17 24L18 24L18 23L19 23L19 22L21 22L21 21L19 21L19 22L18 22L18 23L17 23L17 21L16 21L16 16L19 16L19 13L23 13L23 12L20 12L20 10L22 10L22 11L23 11L23 9L20 9L20 10L18 10L18 9L17 9L17 10L15 10L15 9L13 9L13 8L16 8L16 4L15 4L15 5L14 5L14 6L13 6L13 7L12 7L12 5L13 5L13 4L14 4L14 3L16 3L16 1ZM10 6L10 7L11 7L11 8L12 8L12 7L11 7L11 6ZM14 6L14 7L15 7L15 6ZM6 9L6 10L7 10L7 9ZM9 9L9 10L10 10L10 9ZM17 10L17 13L16 13L16 15L15 15L15 14L14 14L14 13L13 13L13 14L12 14L12 15L13 15L13 14L14 14L14 16L11 16L11 18L12 18L12 17L13 17L13 18L15 18L15 17L14 17L14 16L16 16L16 15L18 15L18 14L17 14L17 13L19 13L19 12L18 12L18 10ZM6 14L6 15L7 15L7 14ZM17 17L17 20L20 20L20 17ZM18 18L18 19L19 19L19 18ZM22 18L22 22L23 22L23 21L24 21L24 20L23 20L23 19L24 19L24 18ZM14 19L14 21L15 21L15 19ZM10 20L10 22L9 22L9 24L10 24L10 22L11 22L11 21L12 21L12 20ZM0 0L0 7L7 7L7 0ZM1 1L1 6L6 6L6 1ZM2 2L2 5L5 5L5 2ZM18 0L18 7L25 7L25 0ZM19 1L19 6L24 6L24 1ZM20 2L20 5L23 5L23 2ZM0 18L0 25L7 25L7 18ZM1 19L1 24L6 24L6 19ZM2 20L2 23L5 23L5 20Z" fill="#282828"/></g></g></svg>
