<?xml version="1.0" encoding="UTF-8"?>
<svg xmlns="http://www.w3.org/2000/svg" version="1.1" width="90" height="90" viewBox="0 0 90 90"><rect x="0" y="0" width="90" height="90" fill="#ffffff"/><g transform="scale(3.333)"><g transform="translate(1,1)"><path fill-rule="evenodd" d="M8 0L8 1L9 1L9 2L8 2L8 5L9 5L9 4L11 4L11 5L10 5L10 10L9 10L9 8L8 8L8 9L7 9L7 8L6 8L6 9L7 9L7 10L4 10L4 8L0 8L0 13L2 13L2 12L3 12L3 14L1 14L1 15L0 15L0 16L1 16L1 15L2 15L2 17L5 17L5 15L8 15L8 16L10 16L10 18L11 18L11 16L12 16L12 14L13 14L13 15L14 15L14 14L13 14L13 13L16 13L16 15L15 15L15 16L16 16L16 21L17 21L17 23L16 23L16 22L15 22L15 21L14 21L14 22L13 22L13 18L14 18L14 16L13 16L13 18L12 18L12 21L11 21L11 20L10 20L10 22L11 22L11 23L12 23L12 24L13 24L13 25L14 25L14 24L15 24L15 23L16 23L16 24L18 24L18 25L20 25L20 24L19 24L19 23L18 23L18 22L19 22L19 21L20 21L20 23L21 23L21 25L25 25L25 24L23 24L23 23L24 23L24 22L25 22L25 20L24 20L24 21L22 21L22 22L21 22L21 20L22 20L22 19L21 19L21 18L22 18L22 17L21 17L21 16L19 16L19 15L20 15L20 14L21 14L21 15L22 15L22 14L23 14L23 13L24 13L24 14L25 14L25 12L23 12L23 11L24 11L24 9L25 9L25 8L24 8L24 9L23 9L23 8L20 8L20 9L18 9L18 8L16 8L16 9L15 9L15 8L13 8L13 6L14 6L14 7L15 7L15 4L16 4L16 5L17 5L17 3L14 3L14 2L13 2L13 1L14 1L14 0L12 0L12 1L11 1L11 0L10 0L10 1L9 1L9 0ZM15 0L15 1L16 1L16 2L17 2L17 0ZM11 2L11 4L12 4L12 3L13 3L13 5L12 5L12 6L11 6L11 8L12 8L12 6L13 6L13 5L14 5L14 3L13 3L13 2ZM8 6L8 7L9 7L9 6ZM16 6L16 7L17 7L17 6ZM1 9L1 11L2 11L2 9ZM11 9L11 10L12 10L12 9ZM17 9L17 10L14 10L14 11L15 11L15 12L16 12L16 11L17 11L17 10L18 10L18 12L19 12L19 11L20 11L20 13L23 13L23 12L21 12L21 11L22 11L22 10L23 10L23 9L20 9L20 10L18 10L18 9ZM20 10L20 11L21 11L21 10ZM6 11L6 12L7 12L7 11ZM8 11L8 12L9 12L9 11ZM11 11L11 13L8 13L8 14L9 14L9 15L10 15L10 16L11 16L11 15L10 15L10 14L11 14L11 13L12 13L12 12L13 12L13 11ZM4 12L4 13L5 13L5 14L3 14L3 16L4 16L4 15L5 15L5 14L7 14L7 13L5 13L5 12ZM17 13L17 14L18 14L18 15L19 15L19 13ZM16 15L16 16L17 16L17 15ZM23 15L23 18L24 18L24 19L25 19L25 17L24 17L24 15ZM6 16L6 17L7 17L7 16ZM8 17L8 18L9 18L9 17ZM17 17L17 20L20 20L20 17ZM18 18L18 19L19 19L19 18ZM8 21L8 25L9 25L9 21ZM12 22L12 23L13 23L13 22ZM22 22L22 23L23 23L23 22ZM0 0L0 7L7 7L7 0ZM1 1L1 6L6 6L6 1ZM2 2L2 5L5 5L5 2ZM18 0L18 7L25 7L25 0ZM19 1L19 6L24 6L24 1ZM20 2L20 5L23 5L23 2ZM0 18L0 25L7 25L7 18ZM1 19L1 24L6 24L6 19ZM2 20L2 23L5 23L5 20Z" fill="#282828"/></g></g></svg>
