<?xml version="1.0" encoding="UTF-8"?>
<svg xmlns="http://www.w3.org/2000/svg" version="1.1" width="90" height="90" viewBox="0 0 90 90"><rect x="0" y="0" width="90" height="90" fill="#ffffff"/><g transform="scale(3.333)"><g transform="translate(1,1)"><path fill-rule="evenodd" d="M8 0L8 1L9 1L9 2L8 2L8 5L9 5L9 2L10 2L10 1L11 1L11 2L13 2L13 3L12 3L12 5L13 5L13 3L14 3L14 4L16 4L16 7L17 7L17 4L16 4L16 3L17 3L17 0L15 0L15 1L16 1L16 3L14 3L14 0ZM10 4L10 5L11 5L11 4ZM14 5L14 7L15 7L15 5ZM8 6L8 7L9 7L9 6ZM10 6L10 7L11 7L11 8L8 8L8 11L7 11L7 10L6 10L6 9L7 9L7 8L6 8L6 9L5 9L5 10L4 10L4 11L3 11L3 9L4 9L4 8L0 8L0 9L2 9L2 11L1 11L1 12L5 12L5 10L6 10L6 11L7 11L7 12L6 12L6 13L7 13L7 12L8 12L8 14L9 14L9 15L8 15L8 18L9 18L9 19L11 19L11 17L10 17L10 16L9 16L9 15L11 15L11 14L13 14L13 15L12 15L12 16L13 16L13 15L14 15L14 14L15 14L15 13L16 13L16 15L15 15L15 16L16 16L16 21L15 21L15 17L12 17L12 18L14 18L14 20L13 20L13 19L12 19L12 20L9 20L9 21L8 21L8 25L9 25L9 24L10 24L10 25L11 25L11 24L10 24L10 21L12 21L12 20L13 20L13 22L14 22L14 23L12 23L12 22L11 22L11 23L12 23L12 25L13 25L13 24L14 24L14 25L15 25L15 22L16 22L16 23L19 23L19 24L20 24L20 23L21 23L21 22L22 22L22 24L21 24L21 25L25 25L25 24L23 24L23 23L24 23L24 22L22 22L22 18L24 18L24 19L23 19L23 20L24 20L24 19L25 19L25 17L24 17L24 15L23 15L23 17L21 17L21 16L20 16L20 15L19 15L19 14L21 14L21 15L22 15L22 14L23 14L23 13L24 13L24 14L25 14L25 12L23 12L23 11L24 11L24 9L25 9L25 8L24 8L24 9L23 9L23 8L20 8L20 9L19 9L19 10L20 10L20 13L19 13L19 11L18 11L18 8L12 8L12 7L13 7L13 6L12 6L12 7L11 7L11 6ZM11 8L11 9L12 9L12 10L13 10L13 11L14 11L14 10L15 10L15 11L16 11L16 10L15 10L15 9L12 9L12 8ZM20 9L20 10L23 10L23 9ZM9 11L9 12L10 12L10 13L9 13L9 14L11 14L11 11ZM17 11L17 12L16 12L16 13L17 13L17 12L18 12L18 11ZM12 12L12 13L13 13L13 14L14 14L14 13L15 13L15 12L14 12L14 13L13 13L13 12ZM21 12L21 13L23 13L23 12ZM1 13L1 15L0 15L0 16L1 16L1 15L2 15L2 16L3 16L3 17L5 17L5 16L6 16L6 17L7 17L7 16L6 16L6 15L7 15L7 14L5 14L5 13ZM3 14L3 16L5 16L5 15L4 15L4 14ZM17 14L17 15L16 15L16 16L17 16L17 15L18 15L18 14ZM17 17L17 20L20 20L20 17ZM18 18L18 19L19 19L19 18ZM14 21L14 22L15 22L15 21ZM16 21L16 22L17 22L17 21ZM20 21L20 22L21 22L21 21ZM17 24L17 25L18 25L18 24ZM0 0L0 7L7 7L7 0ZM1 1L1 6L6 6L6 1ZM2 2L2 5L5 5L5 2ZM18 0L18 7L25 7L25 0ZM19 1L19 6L24 6L24 1ZM20 2L20 5L23 5L23 2ZM0 18L0 25L7 25L7 18ZM1 19L1 24L6 24L6 19ZM2 20L2 23L5 23L5 20Z" fill="#282828"/></g></g></svg>
