<?xml version="1.0" encoding="UTF-8"?>
<svg xmlns="http://www.w3.org/2000/svg" version="1.1" width="90" height="90" viewBox="0 0 90 90"><rect x="0" y="0" width="90" height="90" fill="#ffffff"/><g transform="scale(2.903)"><g transform="translate(1,1)"><path fill-rule="evenodd" d="M9 0L9 1L8 1L8 2L9 2L9 3L8 3L8 4L10 4L10 7L11 7L11 4L12 4L12 5L13 5L13 4L14 4L14 7L15 7L15 9L14 9L14 8L13 8L13 6L12 6L12 9L13 9L13 10L11 10L11 11L10 11L10 9L11 9L11 8L6 8L6 9L5 9L5 8L0 8L0 9L2 9L2 10L0 10L0 11L2 11L2 12L3 12L3 13L1 13L1 12L0 12L0 14L2 14L2 16L1 16L1 15L0 15L0 21L1 21L1 17L4 17L4 16L3 16L3 15L4 15L4 14L5 14L5 15L7 15L7 14L6 14L6 13L7 13L7 12L6 12L6 11L7 11L7 10L6 10L6 9L8 9L8 11L9 11L9 14L11 14L11 13L12 13L12 14L13 14L13 15L12 15L12 17L13 17L13 16L14 16L14 17L16 17L16 18L15 18L15 19L14 19L14 20L15 20L15 19L16 19L16 20L17 20L17 21L16 21L16 22L15 22L15 21L12 21L12 19L13 19L13 18L10 18L10 17L9 17L9 16L8 16L8 17L7 17L7 16L5 16L5 17L7 17L7 18L5 18L5 19L7 19L7 20L4 20L4 21L7 21L7 20L9 20L9 19L10 19L10 20L11 20L11 21L10 21L10 22L9 22L9 21L8 21L8 23L9 23L9 24L8 24L8 29L12 29L12 27L13 27L13 26L10 26L10 28L9 28L9 24L10 24L10 25L11 25L11 23L10 23L10 22L11 22L11 21L12 21L12 22L13 22L13 23L12 23L12 25L13 25L13 24L14 24L14 25L16 25L16 26L15 26L15 27L14 27L14 28L16 28L16 27L17 27L17 25L16 25L16 23L17 23L17 21L18 21L18 24L20 24L20 25L18 25L18 26L20 26L20 28L19 28L19 27L18 27L18 28L17 28L17 29L18 29L18 28L19 28L19 29L20 29L20 28L21 28L21 29L22 29L22 28L21 28L21 27L22 27L22 26L20 26L20 25L25 25L25 23L26 23L26 21L28 21L28 22L27 22L27 23L28 23L28 24L29 24L29 23L28 23L28 22L29 22L29 21L28 21L28 20L29 20L29 19L28 19L28 18L29 18L29 17L28 17L28 18L27 18L27 16L28 16L28 14L29 14L29 12L28 12L28 11L27 11L27 9L28 9L28 8L27 8L27 9L26 9L26 8L25 8L25 9L24 9L24 8L23 8L23 9L22 9L22 8L21 8L21 9L22 9L22 10L20 10L20 9L18 9L18 8L19 8L19 6L18 6L18 8L16 8L16 7L17 7L17 6L16 6L16 5L17 5L17 4L18 4L18 5L19 5L19 4L20 4L20 5L21 5L21 4L20 4L20 3L19 3L19 2L18 2L18 1L20 1L20 2L21 2L21 0L17 0L17 1L15 1L15 0L14 0L14 1L11 1L11 2L10 2L10 0ZM14 1L14 2L12 2L12 4L13 4L13 3L14 3L14 4L15 4L15 5L16 5L16 4L17 4L17 3L18 3L18 4L19 4L19 3L18 3L18 2L16 2L16 4L15 4L15 3L14 3L14 2L15 2L15 1ZM10 3L10 4L11 4L11 3ZM8 5L8 7L9 7L9 5ZM15 6L15 7L16 7L16 6ZM20 6L20 7L21 7L21 6ZM3 9L3 10L4 10L4 9ZM15 9L15 10L13 10L13 11L12 11L12 13L14 13L14 14L15 14L15 13L16 13L16 11L15 11L15 10L16 10L16 9ZM17 10L17 12L18 12L18 13L17 13L17 14L19 14L19 15L21 15L21 16L20 16L20 17L21 17L21 16L22 16L22 17L26 17L26 16L27 16L27 14L28 14L28 13L27 13L27 11L26 11L26 12L25 12L25 11L23 11L23 10L22 10L22 11L23 11L23 12L21 12L21 11L20 11L20 10L19 10L19 11L18 11L18 10ZM3 11L3 12L4 12L4 13L3 13L3 14L4 14L4 13L5 13L5 12L4 12L4 11ZM10 12L10 13L11 13L11 12ZM19 13L19 14L21 14L21 15L22 15L22 14L24 14L24 15L23 15L23 16L26 16L26 14L27 14L27 13ZM14 15L14 16L15 16L15 15ZM16 15L16 17L17 17L17 18L16 18L16 19L17 19L17 20L19 20L19 22L20 22L20 20L21 20L21 19L20 19L20 18L19 18L19 19L18 19L18 17L19 17L19 16L18 16L18 15ZM17 16L17 17L18 17L18 16ZM8 17L8 18L9 18L9 17ZM2 18L2 21L3 21L3 19L4 19L4 18ZM22 18L22 20L23 20L23 19L24 19L24 20L25 20L25 21L26 21L26 20L28 20L28 19L27 19L27 18L26 18L26 20L25 20L25 18ZM21 21L21 24L24 24L24 21ZM22 22L22 23L23 23L23 22ZM14 23L14 24L15 24L15 23ZM26 24L26 25L27 25L27 28L28 28L28 26L29 26L29 25L27 25L27 24ZM23 26L23 28L26 28L26 27L25 27L25 26ZM0 0L0 7L7 7L7 0ZM1 1L1 6L6 6L6 1ZM2 2L2 5L5 5L5 2ZM22 0L22 7L29 7L29 0ZM23 1L23 6L28 6L28 1ZM24 2L24 5L27 5L27 2ZM0 22L0 29L7 29L7 22ZM1 23L1 28L6 28L6 23ZM2 24L2 27L5 27L5 24Z" fill="#282828"/></g></g></svg>
