<?xml version="1.0" encoding="UTF-8"?>
<svg xmlns="http://www.w3.org/2000/svg" version="1.1" width="90" height="90" viewBox="0 0 90 90"><rect x="0" y="0" width="90" height="90" fill="#ffffff"/><g transform="scale(3.333)"><g transform="translate(1,1)"><path fill-rule="evenodd" d="M10 0L10 2L11 2L11 0ZM12 0L12 1L13 1L13 2L12 2L12 4L14 4L14 5L15 5L15 6L14 6L14 7L15 7L15 8L13 8L13 9L12 9L12 7L13 7L13 5L11 5L11 6L10 6L10 4L11 4L11 3L8 3L8 4L9 4L9 5L8 5L8 7L9 7L9 8L6 8L6 9L5 9L5 8L0 8L0 10L1 10L1 11L3 11L3 10L4 10L4 12L3 12L3 13L4 13L4 12L5 12L5 10L6 10L6 11L7 11L7 12L6 12L6 13L7 13L7 12L9 12L9 13L8 13L8 14L9 14L9 15L10 15L10 16L5 16L5 14L2 14L2 13L0 13L0 17L1 17L1 14L2 14L2 16L3 16L3 17L8 17L8 19L9 19L9 20L8 20L8 25L9 25L9 24L10 24L10 25L13 25L13 24L12 24L12 23L13 23L13 22L15 22L15 23L14 23L14 24L17 24L17 23L18 23L18 24L20 24L20 22L21 22L21 23L23 23L23 22L24 22L24 24L21 24L21 25L25 25L25 20L24 20L24 19L25 19L25 18L24 18L24 17L25 17L25 16L24 16L24 15L25 15L25 14L24 14L24 13L25 13L25 10L24 10L24 8L23 8L23 9L22 9L22 8L21 8L21 10L20 10L20 8L19 8L19 10L18 10L18 11L17 11L17 9L18 9L18 8L17 8L17 9L16 9L16 10L15 10L15 11L14 11L14 12L13 12L13 11L12 11L12 13L14 13L14 14L11 14L11 15L10 15L10 14L9 14L9 13L11 13L11 12L9 12L9 9L10 9L10 11L11 11L11 9L12 9L12 10L13 10L13 9L15 9L15 8L16 8L16 7L17 7L17 6L16 6L16 5L17 5L17 4L16 4L16 2L17 2L17 0ZM8 1L8 2L9 2L9 1ZM13 2L13 3L14 3L14 2ZM15 4L15 5L16 5L16 4ZM9 6L9 7L10 7L10 6ZM11 6L11 7L12 7L12 6ZM15 6L15 7L16 7L16 6ZM10 8L10 9L11 9L11 8ZM1 9L1 10L2 10L2 9ZM4 9L4 10L5 10L5 9ZM6 9L6 10L8 10L8 9ZM19 10L19 13L18 13L18 12L17 12L17 11L15 11L15 12L14 12L14 13L15 13L15 14L14 14L14 15L12 15L12 17L11 17L11 16L10 16L10 17L11 17L11 22L10 22L10 20L9 20L9 23L11 23L11 22L13 22L13 21L12 21L12 19L13 19L13 20L14 20L14 21L15 21L15 22L16 22L16 23L17 23L17 21L15 21L15 20L16 20L16 18L15 18L15 19L14 19L14 17L16 17L16 16L18 16L18 14L19 14L19 13L20 13L20 15L22 15L22 16L23 16L23 17L22 17L22 19L21 19L21 20L22 20L22 21L21 21L21 22L22 22L22 21L23 21L23 19L24 19L24 18L23 18L23 17L24 17L24 16L23 16L23 15L24 15L24 14L23 14L23 15L22 15L22 13L23 13L23 12L24 12L24 10L21 10L21 11L20 11L20 10ZM15 12L15 13L16 13L16 14L15 14L15 15L14 15L14 16L13 16L13 17L12 17L12 18L13 18L13 17L14 17L14 16L16 16L16 15L17 15L17 13L16 13L16 12ZM20 12L20 13L21 13L21 12ZM6 14L6 15L7 15L7 14ZM3 15L3 16L4 16L4 15ZM17 17L17 20L20 20L20 17ZM18 18L18 19L19 19L19 18ZM19 21L19 22L20 22L20 21ZM0 0L0 7L7 7L7 0ZM1 1L1 6L6 6L6 1ZM2 2L2 5L5 5L5 2ZM18 0L18 7L25 7L25 0ZM19 1L19 6L24 6L24 1ZM20 2L20 5L23 5L23 2ZM0 18L0 25L7 25L7 18ZM1 19L1 24L6 24L6 19ZM2 20L2 23L5 23L5 20Z" fill="#282828"/></g></g></svg>
