<?xml version="1.0" encoding="UTF-8"?>
<svg xmlns="http://www.w3.org/2000/svg" version="1.1" width="90" height="90" viewBox="0 0 90 90"><rect x="0" y="0" width="90" height="90" fill="#ffffff"/><g transform="scale(3.333)"><g transform="translate(1,1)"><path fill-rule="evenodd" d="M8 0L8 1L10 1L10 0ZM11 0L11 2L12 2L12 0ZM14 1L14 2L13 2L13 3L14 3L14 5L15 5L15 4L16 4L16 7L15 7L15 6L14 6L14 9L15 9L15 10L16 10L16 11L17 11L17 9L18 9L18 12L17 12L17 13L16 13L16 12L15 12L15 11L13 11L13 10L11 10L11 9L13 9L13 4L12 4L12 8L11 8L11 4L10 4L10 5L9 5L9 2L8 2L8 5L9 5L9 6L8 6L8 7L9 7L9 6L10 6L10 8L8 8L8 9L7 9L7 8L6 8L6 9L7 9L7 10L5 10L5 9L4 9L4 8L0 8L0 10L1 10L1 12L2 12L2 11L3 11L3 13L2 13L2 14L1 14L1 15L0 15L0 16L1 16L1 15L2 15L2 17L4 17L4 16L5 16L5 17L7 17L7 16L6 16L6 15L7 15L7 14L5 14L5 12L6 12L6 13L7 13L7 12L6 12L6 11L7 11L7 10L10 10L10 12L9 12L9 11L8 11L8 18L10 18L10 19L9 19L9 21L8 21L8 25L9 25L9 21L11 21L11 22L10 22L10 23L13 23L13 24L11 24L11 25L15 25L15 24L14 24L14 23L13 23L13 22L12 22L12 21L11 21L11 18L14 18L14 19L15 19L15 18L14 18L14 16L11 16L11 14L9 14L9 13L10 13L10 12L11 12L11 11L12 11L12 14L14 14L14 15L15 15L15 16L16 16L16 21L17 21L17 22L19 22L19 24L18 24L18 23L16 23L16 22L15 22L15 23L16 23L16 24L17 24L17 25L19 25L19 24L20 24L20 23L22 23L22 24L21 24L21 25L25 25L25 24L23 24L23 23L24 23L24 22L23 22L23 23L22 23L22 22L19 22L19 21L21 21L21 20L22 20L22 19L21 19L21 18L22 18L22 17L23 17L23 18L24 18L24 19L23 19L23 20L24 20L24 19L25 19L25 17L24 17L24 15L23 15L23 13L24 13L24 14L25 14L25 12L23 12L23 10L25 10L25 8L24 8L24 9L23 9L23 8L20 8L20 9L18 9L18 8L16 8L16 7L17 7L17 4L16 4L16 3L17 3L17 1L16 1L16 3L14 3L14 2L15 2L15 1ZM15 8L15 9L16 9L16 8ZM2 9L2 10L3 10L3 9ZM20 9L20 10L22 10L22 9ZM19 11L19 13L18 13L18 16L19 16L19 15L21 15L21 17L22 17L22 16L23 16L23 15L21 15L21 14L19 14L19 13L21 13L21 11ZM22 12L22 13L23 13L23 12ZM3 13L3 14L2 14L2 15L5 15L5 14L4 14L4 13ZM15 13L15 15L16 15L16 16L17 16L17 15L16 15L16 13ZM9 15L9 16L10 16L10 18L11 18L11 16L10 16L10 15ZM17 17L17 20L20 20L20 17ZM18 18L18 19L19 19L19 18ZM14 20L14 21L15 21L15 20ZM0 0L0 7L7 7L7 0ZM1 1L1 6L6 6L6 1ZM2 2L2 5L5 5L5 2ZM18 0L18 7L25 7L25 0ZM19 1L19 6L24 6L24 1ZM20 2L20 5L23 5L23 2ZM0 18L0 25L7 25L7 18ZM1 19L1 24L6 24L6 19ZM2 20L2 23L5 23L5 20Z" fill="#282828"/></g></g></svg>
