<?xml version="1.0" encoding="UTF-8"?>
<svg xmlns="http://www.w3.org/2000/svg" version="1.1" width="90" height="90" viewBox="0 0 90 90"><rect x="0" y="0" width="90" height="90" fill="#ffffff"/><g transform="scale(3.333)"><g transform="translate(1,1)"><path fill-rule="evenodd" d="M8 0L8 4L9 4L9 3L10 3L10 5L8 5L8 7L9 7L9 9L10 9L10 10L8 10L8 11L7 11L7 10L5 10L5 9L7 9L7 8L4 8L4 10L3 10L3 9L2 9L2 8L0 8L0 9L2 9L2 10L0 10L0 14L1 14L1 13L2 13L2 11L7 11L7 12L3 12L3 13L4 13L4 14L2 14L2 15L4 15L4 16L5 16L5 15L7 15L7 16L6 16L6 17L7 17L7 16L8 16L8 15L7 15L7 14L6 14L6 13L7 13L7 12L8 12L8 11L9 11L9 12L12 12L12 13L13 13L13 15L14 15L14 16L12 16L12 17L13 17L13 18L11 18L11 17L10 17L10 18L9 18L9 17L8 17L8 18L9 18L9 19L8 19L8 21L10 21L10 20L9 20L9 19L10 19L10 18L11 18L11 20L12 20L12 21L13 21L13 22L14 22L14 25L16 25L16 21L17 21L17 23L20 23L20 22L22 22L22 23L21 23L21 24L18 24L18 25L21 25L21 24L22 24L22 25L25 25L25 24L24 24L24 22L22 22L22 21L23 21L23 20L24 20L24 21L25 21L25 20L24 20L24 17L25 17L25 15L24 15L24 13L25 13L25 12L24 12L24 11L22 11L22 12L23 12L23 13L20 13L20 10L25 10L25 8L21 8L21 9L20 9L20 8L19 8L19 9L20 9L20 10L18 10L18 11L17 11L17 9L14 9L14 8L16 8L16 7L17 7L17 5L16 5L16 4L17 4L17 2L14 2L14 1L15 1L15 0L14 0L14 1L12 1L12 0L11 0L11 1L12 1L12 2L11 2L11 3L10 3L10 2L9 2L9 0ZM16 0L16 1L17 1L17 0ZM12 2L12 3L13 3L13 4L12 4L12 5L10 5L10 6L9 6L9 7L10 7L10 9L11 9L11 10L10 10L10 11L11 11L11 10L14 10L14 9L13 9L13 8L14 8L14 6L15 6L15 7L16 7L16 5L14 5L14 6L13 6L13 4L14 4L14 2ZM10 6L10 7L11 7L11 6ZM12 6L12 8L11 8L11 9L12 9L12 8L13 8L13 6ZM12 11L12 12L14 12L14 13L16 13L16 12L17 12L17 11L16 11L16 12L15 12L15 11ZM8 13L8 14L9 14L9 16L11 16L11 15L12 15L12 14L11 14L11 15L10 15L10 14L9 14L9 13ZM17 13L17 14L16 14L16 15L15 15L15 16L14 16L14 18L13 18L13 20L14 20L14 21L16 21L16 15L17 15L17 16L21 16L21 17L22 17L22 14L21 14L21 15L20 15L20 13ZM23 15L23 17L24 17L24 15ZM0 16L0 17L3 17L3 16ZM17 17L17 20L20 20L20 17ZM14 18L14 20L15 20L15 18ZM18 18L18 19L19 19L19 18ZM21 18L21 21L22 21L22 18ZM10 22L10 23L11 23L11 24L9 24L9 23L8 23L8 25L11 25L11 24L12 24L12 25L13 25L13 24L12 24L12 22ZM0 0L0 7L7 7L7 0ZM1 1L1 6L6 6L6 1ZM2 2L2 5L5 5L5 2ZM18 0L18 7L25 7L25 0ZM19 1L19 6L24 6L24 1ZM20 2L20 5L23 5L23 2ZM0 18L0 25L7 25L7 18ZM1 19L1 24L6 24L6 19ZM2 20L2 23L5 23L5 20Z" fill="#282828"/></g></g></svg>
