<?xml version="1.0" encoding="UTF-8"?>
<svg xmlns="http://www.w3.org/2000/svg" version="1.1" width="90" height="90" viewBox="0 0 90 90"><rect x="0" y="0" width="90" height="90" fill="#ffffff"/><g transform="scale(2.903)"><g transform="translate(1,1)"><path fill-rule="evenodd" d="M8 0L8 1L9 1L9 2L8 2L8 5L9 5L9 4L11 4L11 5L10 5L10 10L9 10L9 8L8 8L8 13L7 13L7 12L5 12L5 11L7 11L7 10L5 10L5 11L4 11L4 8L0 8L0 11L1 11L1 13L0 13L0 14L1 14L1 13L2 13L2 14L3 14L3 15L4 15L4 14L5 14L5 16L4 16L4 17L3 17L3 16L0 16L0 17L1 17L1 18L0 18L0 19L1 19L1 18L2 18L2 20L1 20L1 21L2 21L2 20L4 20L4 21L5 21L5 20L4 20L4 19L5 19L5 18L4 18L4 17L7 17L7 18L6 18L6 19L9 19L9 21L8 21L8 20L6 20L6 21L8 21L8 22L10 22L10 23L9 23L9 25L8 25L8 29L12 29L12 28L14 28L14 27L15 27L15 26L16 26L16 27L17 27L17 26L18 26L18 25L19 25L19 27L18 27L18 28L16 28L16 29L23 29L23 28L25 28L25 29L26 29L26 27L24 27L24 26L27 26L27 25L28 25L28 27L27 27L27 29L28 29L28 27L29 27L29 24L27 24L27 25L25 25L25 21L27 21L27 20L28 20L28 22L29 22L29 19L28 19L28 16L27 16L27 18L26 18L26 14L28 14L28 15L29 15L29 13L28 13L28 12L29 12L29 11L28 11L28 10L27 10L27 8L24 8L24 9L22 9L22 8L21 8L21 9L20 9L20 8L19 8L19 6L20 6L20 7L21 7L21 4L18 4L18 3L20 3L20 2L21 2L21 0L20 0L20 2L19 2L19 0L18 0L18 1L17 1L17 0L12 0L12 1L11 1L11 0L10 0L10 1L9 1L9 0ZM14 1L14 2L15 2L15 3L16 3L16 4L17 4L17 3L18 3L18 2L16 2L16 1ZM11 2L11 4L12 4L12 3L13 3L13 2ZM13 4L13 5L12 5L12 6L11 6L11 8L12 8L12 6L13 6L13 11L11 11L11 13L10 13L10 15L9 15L9 14L8 14L8 15L6 15L6 16L7 16L7 17L8 17L8 18L9 18L9 19L10 19L10 18L11 18L11 19L12 19L12 20L10 20L10 21L11 21L11 23L10 23L10 24L11 24L11 23L14 23L14 21L15 21L15 23L16 23L16 24L12 24L12 26L10 26L10 25L9 25L9 28L10 28L10 27L11 27L11 28L12 28L12 26L13 26L13 27L14 27L14 26L13 26L13 25L17 25L17 24L18 24L18 23L16 23L16 21L17 21L17 22L18 22L18 21L17 21L17 19L16 19L16 20L15 20L15 19L14 19L14 18L13 18L13 17L12 17L12 16L14 16L14 15L17 15L17 16L15 16L15 17L16 17L16 18L19 18L19 20L22 20L22 19L23 19L23 20L24 20L24 19L25 19L25 20L26 20L26 18L25 18L25 17L24 17L24 18L22 18L22 19L20 19L20 17L21 17L21 16L19 16L19 11L20 11L20 15L22 15L22 17L23 17L23 16L25 16L25 13L27 13L27 10L26 10L26 11L24 11L24 10L22 10L22 11L23 11L23 12L22 12L22 13L21 13L21 10L19 10L19 11L18 11L18 10L16 10L16 9L14 9L14 6L15 6L15 8L17 8L17 7L18 7L18 5L15 5L15 4ZM13 5L13 6L14 6L14 5ZM8 6L8 7L9 7L9 6ZM16 6L16 7L17 7L17 6ZM6 8L6 9L7 9L7 8ZM28 8L28 9L29 9L29 8ZM11 9L11 10L12 10L12 9ZM1 10L1 11L2 11L2 12L3 12L3 13L5 13L5 12L3 12L3 10ZM14 10L14 11L13 11L13 12L12 12L12 13L11 13L11 15L10 15L10 16L9 16L9 15L8 15L8 16L9 16L9 17L11 17L11 16L12 16L12 14L13 14L13 13L14 13L14 12L15 12L15 14L17 14L17 13L18 13L18 12L16 12L16 11L15 11L15 10ZM6 13L6 14L7 14L7 13ZM22 13L22 15L24 15L24 14L23 14L23 13ZM18 16L18 17L19 17L19 16ZM2 17L2 18L3 18L3 19L4 19L4 18L3 18L3 17ZM19 21L19 22L20 22L20 21ZM21 21L21 24L24 24L24 21ZM22 22L22 23L23 23L23 22ZM26 22L26 23L27 23L27 22ZM19 23L19 25L20 25L20 27L21 27L21 28L22 28L22 27L23 27L23 25L22 25L22 26L21 26L21 25L20 25L20 23ZM0 0L0 7L7 7L7 0ZM1 1L1 6L6 6L6 1ZM2 2L2 5L5 5L5 2ZM22 0L22 7L29 7L29 0ZM23 1L23 6L28 6L28 1ZM24 2L24 5L27 5L27 2ZM0 22L0 29L7 29L7 22ZM1 23L1 28L6 28L6 23ZM2 24L2 27L5 27L5 24Z" fill="#282828"/></g></g></svg>
