<?xml version="1.0" encoding="UTF-8"?>
<svg xmlns="http://www.w3.org/2000/svg" version="1.1" width="90" height="90" viewBox="0 0 90 90"><rect x="0" y="0" width="90" height="90" fill="#ffffff"/><g transform="scale(3.333)"><g transform="translate(1,1)"><path fill-rule="evenodd" d="M10 0L10 1L8 1L8 3L9 3L9 4L8 4L8 8L6 8L6 9L8 9L8 8L9 8L9 5L10 5L10 8L11 8L11 9L12 9L12 8L11 8L11 4L10 4L10 3L9 3L9 2L11 2L11 0ZM13 0L13 1L14 1L14 2L13 2L13 4L12 4L12 5L14 5L14 7L13 7L13 6L12 6L12 7L13 7L13 9L14 9L14 8L15 8L15 10L13 10L13 11L12 11L12 12L13 12L13 16L14 16L14 15L15 15L15 16L16 16L16 17L13 17L13 18L15 18L15 19L14 19L14 22L15 22L15 25L17 25L17 22L20 22L20 23L18 23L18 25L19 25L19 24L20 24L20 25L21 25L21 24L22 24L22 23L23 23L23 22L22 22L22 20L24 20L24 19L25 19L25 12L24 12L24 11L25 11L25 9L24 9L24 8L22 8L22 9L21 9L21 8L18 8L18 9L17 9L17 8L16 8L16 7L17 7L17 2L16 2L16 0ZM14 2L14 3L15 3L15 4L16 4L16 2ZM15 6L15 7L16 7L16 6ZM0 8L0 9L2 9L2 10L1 10L1 13L2 13L2 15L1 15L1 14L0 14L0 15L1 15L1 16L0 16L0 17L5 17L5 16L6 16L6 17L7 17L7 16L8 16L8 19L9 19L9 20L11 20L11 21L12 21L12 23L13 23L13 25L14 25L14 23L13 23L13 20L12 20L12 19L11 19L11 18L12 18L12 17L11 17L11 15L12 15L12 14L10 14L10 13L11 13L11 11L8 11L8 13L7 13L7 12L6 12L6 11L7 11L7 10L6 10L6 11L5 11L5 9L4 9L4 8L3 8L3 9L2 9L2 8ZM3 9L3 11L2 11L2 13L3 13L3 12L4 12L4 14L3 14L3 15L2 15L2 16L3 16L3 15L4 15L4 14L7 14L7 13L6 13L6 12L5 12L5 11L4 11L4 9ZM9 9L9 10L10 10L10 9ZM19 9L19 10L18 10L18 11L17 11L17 10L15 10L15 11L16 11L16 12L14 12L14 14L15 14L15 15L17 15L17 16L18 16L18 15L17 15L17 14L16 14L16 12L18 12L18 14L19 14L19 11L20 11L20 15L19 15L19 16L20 16L20 15L21 15L21 20L22 20L22 18L23 18L23 19L24 19L24 18L23 18L23 17L24 17L24 15L23 15L23 14L24 14L24 13L21 13L21 12L23 12L23 11L24 11L24 9L22 9L22 10L21 10L21 9ZM20 10L20 11L21 11L21 10ZM22 10L22 11L23 11L23 10ZM9 12L9 13L8 13L8 14L9 14L9 13L10 13L10 12ZM21 14L21 15L22 15L22 14ZM6 15L6 16L7 16L7 15ZM9 15L9 17L10 17L10 18L9 18L9 19L10 19L10 18L11 18L11 17L10 17L10 15ZM17 17L17 20L20 20L20 17ZM18 18L18 19L19 19L19 18ZM15 19L15 21L16 21L16 19ZM8 21L8 22L9 22L9 21ZM20 21L20 22L21 22L21 23L22 23L22 22L21 22L21 21ZM10 22L10 25L11 25L11 22ZM24 22L24 23L25 23L25 22ZM8 23L8 25L9 25L9 23ZM23 24L23 25L25 25L25 24ZM0 0L0 7L7 7L7 0ZM1 1L1 6L6 6L6 1ZM2 2L2 5L5 5L5 2ZM18 0L18 7L25 7L25 0ZM19 1L19 6L24 6L24 1ZM20 2L20 5L23 5L23 2ZM0 18L0 25L7 25L7 18ZM1 19L1 24L6 24L6 19ZM2 20L2 23L5 23L5 20Z" fill="#282828"/></g></g></svg>
