<?xml version="1.0" encoding="UTF-8"?>
<svg xmlns="http://www.w3.org/2000/svg" version="1.1" width="90" height="90" viewBox="0 0 90 90"><rect x="0" y="0" width="90" height="90" fill="#ffffff"/><g transform="scale(2.903)"><g transform="translate(1,1)"><path fill-rule="evenodd" d="M10 0L10 2L11 2L11 0ZM12 0L12 1L13 1L13 2L12 2L12 4L14 4L14 5L15 5L15 6L14 6L14 7L15 7L15 6L16 6L16 8L19 8L19 5L20 5L20 8L21 8L21 9L20 9L20 10L22 10L22 8L21 8L21 5L20 5L20 4L19 4L19 5L17 5L17 4L16 4L16 3L17 3L17 1L18 1L18 2L19 2L19 0ZM20 0L20 1L21 1L21 0ZM8 1L8 2L9 2L9 1ZM13 2L13 3L14 3L14 2ZM8 3L8 4L9 4L9 5L8 5L8 7L9 7L9 8L6 8L6 9L8 9L8 11L7 11L7 10L6 10L6 11L7 11L7 12L6 12L6 13L7 13L7 14L4 14L4 13L5 13L5 11L4 11L4 10L3 10L3 11L4 11L4 12L2 12L2 13L1 13L1 12L0 12L0 14L1 14L1 15L0 15L0 16L4 16L4 15L5 15L5 17L8 17L8 18L9 18L9 17L10 17L10 16L9 16L9 14L10 14L10 15L11 15L11 17L12 17L12 18L13 18L13 17L14 17L14 20L13 20L13 19L12 19L12 21L14 21L14 22L9 22L9 20L8 20L8 19L7 19L7 18L6 18L6 19L5 19L5 18L4 18L4 17L3 17L3 18L2 18L2 17L0 17L0 21L1 21L1 18L2 18L2 20L3 20L3 21L4 21L4 20L6 20L6 21L8 21L8 23L9 23L9 24L8 24L8 29L11 29L11 25L12 25L12 26L13 26L13 27L12 27L12 29L13 29L13 28L14 28L14 29L15 29L15 28L14 28L14 27L16 27L16 26L17 26L17 25L18 25L18 28L19 28L19 29L20 29L20 27L19 27L19 26L21 26L21 28L22 28L22 26L21 26L21 25L24 25L24 26L23 26L23 27L24 27L24 26L25 26L25 28L24 28L24 29L26 29L26 26L27 26L27 28L28 28L28 26L29 26L29 23L28 23L28 22L29 22L29 21L28 21L28 20L29 20L29 19L28 19L28 18L29 18L29 17L28 17L28 18L26 18L26 19L28 19L28 20L26 20L26 21L28 21L28 22L27 22L27 25L26 25L26 26L25 26L25 24L26 24L26 23L25 23L25 19L24 19L24 18L22 18L22 17L20 17L20 16L19 16L19 13L20 13L20 15L21 15L21 16L22 16L22 14L24 14L24 15L25 15L25 16L24 16L24 17L27 17L27 16L26 16L26 15L25 15L25 14L26 14L26 13L25 13L25 12L26 12L26 11L27 11L27 9L28 9L28 8L27 8L27 9L26 9L26 8L25 8L25 9L24 9L24 8L23 8L23 10L25 10L25 12L24 12L24 11L23 11L23 12L24 12L24 13L22 13L22 12L21 12L21 11L19 11L19 9L18 9L18 10L17 10L17 9L15 9L15 8L13 8L13 9L12 9L12 7L13 7L13 5L11 5L11 6L10 6L10 4L11 4L11 3ZM16 5L16 6L17 6L17 7L18 7L18 6L17 6L17 5ZM9 6L9 7L10 7L10 6ZM11 6L11 7L12 7L12 6ZM0 8L0 9L5 9L5 8ZM10 8L10 9L9 9L9 12L7 12L7 13L8 13L8 14L7 14L7 15L6 15L6 16L8 16L8 17L9 17L9 16L8 16L8 14L9 14L9 12L11 12L11 13L10 13L10 14L14 14L14 15L12 15L12 17L13 17L13 16L14 16L14 17L19 17L19 18L18 18L18 19L15 19L15 20L14 20L14 21L15 21L15 20L17 20L17 23L16 23L16 25L17 25L17 24L19 24L19 25L20 25L20 24L19 24L19 23L20 23L20 21L19 21L19 20L20 20L20 17L19 17L19 16L18 16L18 14L17 14L17 16L14 16L14 15L15 15L15 14L14 14L14 13L18 13L18 12L19 12L19 11L18 11L18 12L17 12L17 11L16 11L16 12L14 12L14 11L15 11L15 9L13 9L13 10L12 10L12 9L11 9L11 8ZM10 9L10 11L11 11L11 9ZM1 10L1 11L2 11L2 10ZM12 11L12 13L14 13L14 12L13 12L13 11ZM28 11L28 12L27 12L27 13L28 13L28 14L27 14L27 15L28 15L28 14L29 14L29 13L28 13L28 12L29 12L29 11ZM20 12L20 13L21 13L21 12ZM2 13L2 15L3 15L3 13ZM10 18L10 19L11 19L11 18ZM6 19L6 20L7 20L7 19ZM18 19L18 20L19 20L19 19ZM23 19L23 20L24 20L24 19ZM18 21L18 22L19 22L19 21ZM21 21L21 24L24 24L24 21ZM14 22L14 23L12 23L12 25L14 25L14 26L15 26L15 24L14 24L14 23L15 23L15 22ZM22 22L22 23L23 23L23 22ZM10 23L10 24L11 24L11 23ZM9 25L9 26L10 26L10 25ZM0 0L0 7L7 7L7 0ZM1 1L1 6L6 6L6 1ZM2 2L2 5L5 5L5 2ZM22 0L22 7L29 7L29 0ZM23 1L23 6L28 6L28 1ZM24 2L24 5L27 5L27 2ZM0 22L0 29L7 29L7 22ZM1 23L1 28L6 28L6 23ZM2 24L2 27L5 27L5 24Z" fill="#282828"/></g></g></svg>
