<?xml version="1.0" encoding="UTF-8"?>
<svg xmlns="http://www.w3.org/2000/svg" version="1.1" width="90" height="90" viewBox="0 0 90 90"><rect x="0" y="0" width="90" height="90" fill="#ffffff"/><g transform="scale(2.903)"><g transform="translate(1,1)"><path fill-rule="evenodd" d="M9 0L9 1L8 1L8 2L9 2L9 3L8 3L8 4L10 4L10 7L11 7L11 4L12 4L12 5L13 5L13 4L15 4L15 6L14 6L14 8L13 8L13 6L12 6L12 9L14 9L14 10L11 10L11 11L10 11L10 9L11 9L11 8L6 8L6 9L5 9L5 8L0 8L0 10L2 10L2 13L1 13L1 12L0 12L0 14L1 14L1 15L0 15L0 21L1 21L1 18L2 18L2 19L3 19L3 20L2 20L2 21L4 21L4 20L5 20L5 21L7 21L7 20L8 20L8 23L9 23L9 21L12 21L12 22L13 22L13 23L12 23L12 25L13 25L13 24L14 24L14 25L15 25L15 24L14 24L14 23L16 23L16 24L17 24L17 21L18 21L18 24L20 24L20 25L18 25L18 26L19 26L19 27L20 27L20 28L19 28L19 29L20 29L20 28L22 28L22 29L23 29L23 28L22 28L22 27L20 27L20 25L24 25L24 26L23 26L23 27L24 27L24 29L25 29L25 27L26 27L26 25L27 25L27 28L26 28L26 29L27 29L27 28L28 28L28 26L29 26L29 24L26 24L26 23L25 23L25 22L27 22L27 23L28 23L28 22L29 22L29 21L28 21L28 20L29 20L29 19L28 19L28 18L29 18L29 17L28 17L28 18L27 18L27 16L26 16L26 14L27 14L27 15L28 15L28 14L29 14L29 13L28 13L28 14L27 14L27 13L24 13L24 12L26 12L26 11L27 11L27 12L28 12L28 11L27 11L27 9L28 9L28 8L27 8L27 9L26 9L26 8L25 8L25 9L24 9L24 8L23 8L23 9L22 9L22 8L21 8L21 9L18 9L18 8L17 8L17 9L16 9L16 7L17 7L17 5L18 5L18 7L19 7L19 5L20 5L20 7L21 7L21 5L20 5L20 4L18 4L18 3L19 3L19 0L18 0L18 1L17 1L17 0L16 0L16 1L15 1L15 0L14 0L14 1L15 1L15 2L16 2L16 4L15 4L15 3L13 3L13 4L12 4L12 2L13 2L13 1L11 1L11 2L10 2L10 0ZM20 0L20 1L21 1L21 0ZM17 2L17 3L18 3L18 2ZM10 3L10 4L11 4L11 3ZM8 5L8 7L9 7L9 5ZM15 6L15 7L16 7L16 6ZM14 8L14 9L15 9L15 10L14 10L14 11L12 11L12 13L11 13L11 12L10 12L10 13L9 13L9 11L8 11L8 10L9 10L9 9L6 9L6 10L7 10L7 11L6 11L6 12L8 12L8 13L9 13L9 14L7 14L7 13L5 13L5 10L4 10L4 9L3 9L3 12L4 12L4 13L2 13L2 15L1 15L1 17L2 17L2 15L3 15L3 14L4 14L4 18L5 18L5 19L6 19L6 20L7 20L7 19L6 19L6 18L7 18L7 17L6 17L6 18L5 18L5 16L8 16L8 17L9 17L9 14L10 14L10 16L11 16L11 18L13 18L13 19L12 19L12 21L14 21L14 22L16 22L16 21L17 21L17 20L19 20L19 21L20 21L20 20L21 20L21 18L18 18L18 17L21 17L21 16L22 16L22 17L26 17L26 16L24 16L24 15L23 15L23 14L21 14L21 16L20 16L20 14L19 14L19 15L18 15L18 14L17 14L17 16L16 16L16 17L15 17L15 16L14 16L14 13L15 13L15 14L16 14L16 13L17 13L17 12L18 12L18 13L19 13L19 11L21 11L21 12L20 12L20 13L23 13L23 12L24 12L24 11L25 11L25 10L23 10L23 11L21 11L21 10L19 10L19 11L17 11L17 10L16 10L16 9L15 9L15 8ZM15 10L15 11L14 11L14 12L13 12L13 13L12 13L12 14L13 14L13 13L14 13L14 12L15 12L15 11L16 11L16 12L17 12L17 11L16 11L16 10ZM4 13L4 14L5 14L5 13ZM10 13L10 14L11 14L11 13ZM6 14L6 15L7 15L7 14ZM12 15L12 17L14 17L14 19L16 19L16 18L17 18L17 17L18 17L18 16L17 16L17 17L16 17L16 18L15 18L15 17L14 17L14 16L13 16L13 15ZM8 18L8 19L9 19L9 20L10 20L10 18ZM22 18L22 20L23 20L23 18ZM25 18L25 19L24 19L24 20L25 20L25 21L26 21L26 20L28 20L28 19L27 19L27 18ZM19 19L19 20L20 20L20 19ZM25 19L25 20L26 20L26 19ZM15 20L15 21L16 21L16 20ZM21 21L21 24L24 24L24 21ZM27 21L27 22L28 22L28 21ZM22 22L22 23L23 23L23 22ZM10 23L10 24L8 24L8 29L9 29L9 27L10 27L10 29L12 29L12 27L13 27L13 26L11 26L11 23ZM25 24L25 25L26 25L26 24ZM16 25L16 26L15 26L15 27L14 27L14 28L15 28L15 27L17 27L17 25ZM10 26L10 27L11 27L11 26ZM17 28L17 29L18 29L18 28ZM0 0L0 7L7 7L7 0ZM1 1L1 6L6 6L6 1ZM2 2L2 5L5 5L5 2ZM22 0L22 7L29 7L29 0ZM23 1L23 6L28 6L28 1ZM24 2L24 5L27 5L27 2ZM0 22L0 29L7 29L7 22ZM1 23L1 28L6 28L6 23ZM2 24L2 27L5 27L5 24Z" fill="#282828"/></g></g></svg>
