<?xml version="1.0" encoding="UTF-8"?>
<svg xmlns="http://www.w3.org/2000/svg" version="1.1" width="90" height="90" viewBox="0 0 90 90"><rect x="0" y="0" width="90" height="90" fill="#ffffff"/><g transform="scale(2.903)"><g transform="translate(1,1)"><path fill-rule="evenodd" d="M9 0L9 1L8 1L8 2L9 2L9 3L8 3L8 4L10 4L10 7L11 7L11 4L12 4L12 5L13 5L13 6L12 6L12 9L14 9L14 10L15 10L15 12L13 12L13 13L12 13L12 11L13 11L13 10L11 10L11 11L10 11L10 9L11 9L11 8L6 8L6 9L5 9L5 8L0 8L0 11L1 11L1 12L0 12L0 13L1 13L1 12L2 12L2 13L3 13L3 14L4 14L4 15L2 15L2 14L1 14L1 17L0 17L0 21L1 21L1 18L3 18L3 20L2 20L2 21L3 21L3 20L5 20L5 21L7 21L7 20L8 20L8 23L11 23L11 21L12 21L12 22L13 22L13 21L14 21L14 24L13 24L13 23L12 23L12 25L14 25L14 26L11 26L11 25L10 25L10 26L9 26L9 24L8 24L8 29L13 29L13 28L12 28L12 27L14 27L14 28L17 28L17 29L18 29L18 28L17 28L17 27L18 27L18 26L19 26L19 27L20 27L20 28L19 28L19 29L20 29L20 28L21 28L21 29L22 29L22 28L21 28L21 27L22 27L22 26L21 26L21 25L24 25L24 26L23 26L23 27L24 27L24 29L25 29L25 27L26 27L26 25L27 25L27 28L26 28L26 29L27 29L27 28L28 28L28 26L29 26L29 23L28 23L28 22L29 22L29 21L28 21L28 20L29 20L29 19L28 19L28 18L29 18L29 17L28 17L28 18L27 18L27 16L26 16L26 14L27 14L27 15L28 15L28 14L29 14L29 13L28 13L28 14L27 14L27 13L24 13L24 12L26 12L26 11L27 11L27 9L28 9L28 8L27 8L27 9L26 9L26 8L25 8L25 9L24 9L24 8L23 8L23 9L22 9L22 8L21 8L21 3L20 3L20 2L19 2L19 1L21 1L21 0L16 0L16 1L15 1L15 2L14 2L14 4L12 4L12 2L13 2L13 1L11 1L11 2L10 2L10 0ZM17 1L17 3L16 3L16 2L15 2L15 3L16 3L16 4L15 4L15 5L16 5L16 6L15 6L15 10L16 10L16 9L17 9L17 11L16 11L16 13L13 13L13 14L12 14L12 13L11 13L11 12L10 12L10 13L11 13L11 15L8 15L8 14L9 14L9 13L8 13L8 12L7 12L7 11L9 11L9 9L6 9L6 10L7 10L7 11L6 11L6 12L7 12L7 13L4 13L4 14L7 14L7 15L4 15L4 16L9 16L9 18L7 18L7 17L6 17L6 18L4 18L4 17L3 17L3 16L2 16L2 17L3 17L3 18L4 18L4 19L5 19L5 20L7 20L7 19L8 19L8 20L9 20L9 19L10 19L10 20L11 20L11 19L10 19L10 17L11 17L11 18L14 18L14 19L12 19L12 21L13 21L13 20L14 20L14 21L15 21L15 22L17 22L17 20L18 20L18 21L20 21L20 20L21 20L21 18L18 18L18 19L17 19L17 18L16 18L16 21L15 21L15 20L14 20L14 19L15 19L15 18L14 18L14 17L16 17L16 16L17 16L17 17L21 17L21 16L22 16L22 17L26 17L26 16L24 16L24 15L20 15L20 14L22 14L22 13L23 13L23 11L24 11L24 10L22 10L22 9L21 9L21 8L20 8L20 5L19 5L19 7L18 7L18 6L17 6L17 5L16 5L16 4L17 4L17 3L18 3L18 4L20 4L20 3L19 3L19 2L18 2L18 1ZM10 3L10 4L11 4L11 3ZM8 5L8 7L9 7L9 5ZM13 6L13 8L14 8L14 6ZM16 6L16 8L17 8L17 9L18 9L18 11L19 11L19 9L18 9L18 8L17 8L17 6ZM1 9L1 10L2 10L2 9ZM3 9L3 11L2 11L2 12L3 12L3 11L4 11L4 12L5 12L5 11L4 11L4 9ZM20 9L20 10L21 10L21 9ZM21 11L21 12L22 12L22 11ZM28 11L28 12L29 12L29 11ZM17 12L17 13L16 13L16 14L15 14L15 15L14 15L14 16L13 16L13 15L12 15L12 17L14 17L14 16L15 16L15 15L16 15L16 14L17 14L17 13L18 13L18 16L19 16L19 14L20 14L20 13L19 13L19 12ZM6 18L6 19L7 19L7 18ZM22 18L22 20L23 20L23 18ZM25 18L25 19L24 19L24 20L25 20L25 21L26 21L26 20L28 20L28 19L27 19L27 18ZM18 19L18 20L20 20L20 19ZM25 19L25 20L26 20L26 19ZM9 21L9 22L10 22L10 21ZM21 21L21 24L24 24L24 21ZM27 21L27 22L25 22L25 23L26 23L26 24L25 24L25 25L26 25L26 24L28 24L28 23L27 23L27 22L28 22L28 21ZM18 22L18 23L17 23L17 24L16 24L16 23L15 23L15 24L14 24L14 25L15 25L15 26L16 26L16 25L17 25L17 24L18 24L18 25L20 25L20 24L18 24L18 23L19 23L19 22ZM22 22L22 23L23 23L23 22ZM9 27L9 28L11 28L11 27ZM0 0L0 7L7 7L7 0ZM1 1L1 6L6 6L6 1ZM2 2L2 5L5 5L5 2ZM22 0L22 7L29 7L29 0ZM23 1L23 6L28 6L28 1ZM24 2L24 5L27 5L27 2ZM0 22L0 29L7 29L7 22ZM1 23L1 28L6 28L6 23ZM2 24L2 27L5 27L5 24Z" fill="#282828"/></g></g></svg>
