<?xml version="1.0" encoding="UTF-8"?>
<svg xmlns="http://www.w3.org/2000/svg" version="1.1" width="90" height="90" viewBox="0 0 90 90"><rect x="0" y="0" width="90" height="90" fill="#ffffff"/><g transform="scale(3.333)"><g transform="translate(1,1)"><path fill-rule="evenodd" d="M10 0L10 2L11 2L11 0ZM12 0L12 1L13 1L13 0ZM16 0L16 1L14 1L14 3L13 3L13 2L12 2L12 4L13 4L13 5L11 5L11 6L10 6L10 4L11 4L11 3L8 3L8 4L9 4L9 5L8 5L8 7L9 7L9 8L6 8L6 9L5 9L5 8L0 8L0 10L1 10L1 11L0 11L0 17L1 17L1 12L2 12L2 10L3 10L3 12L4 12L4 13L3 13L3 14L2 14L2 17L4 17L4 16L3 16L3 15L7 15L7 14L8 14L8 15L10 15L10 17L9 17L9 16L8 16L8 19L9 19L9 18L10 18L10 20L13 20L13 21L11 21L11 22L10 22L10 21L9 21L9 20L8 20L8 25L9 25L9 22L10 22L10 24L11 24L11 22L13 22L13 21L14 21L14 22L16 22L16 23L15 23L15 24L13 24L13 23L12 23L12 25L15 25L15 24L18 24L18 25L19 25L19 24L18 24L18 23L17 23L17 22L19 22L19 23L20 23L20 22L19 22L19 21L21 21L21 25L25 25L25 21L23 21L23 20L24 20L24 19L25 19L25 18L24 18L24 17L25 17L25 16L24 16L24 15L25 15L25 14L24 14L24 13L25 13L25 10L24 10L24 8L23 8L23 9L22 9L22 8L21 8L21 10L20 10L20 8L19 8L19 10L18 10L18 8L17 8L17 6L16 6L16 5L17 5L17 4L16 4L16 5L14 5L14 4L15 4L15 3L16 3L16 2L17 2L17 0ZM8 1L8 2L9 2L9 1ZM9 6L9 7L10 7L10 6ZM11 6L11 7L12 7L12 8L15 8L15 9L14 9L14 10L15 10L15 9L17 9L17 8L15 8L15 7L16 7L16 6L15 6L15 7L14 7L14 6L13 6L13 7L12 7L12 6ZM10 8L10 9L6 9L6 10L7 10L7 11L6 11L6 12L7 12L7 13L6 13L6 14L7 14L7 13L8 13L8 14L9 14L9 12L12 12L12 13L13 13L13 14L11 14L11 13L10 13L10 14L11 14L11 17L14 17L14 13L13 13L13 12L14 12L14 11L13 11L13 12L12 12L12 9L11 9L11 8ZM3 9L3 10L4 10L4 11L5 11L5 10L4 10L4 9ZM10 9L10 11L11 11L11 9ZM16 10L16 13L15 13L15 14L19 14L19 13L17 13L17 12L18 12L18 11L17 11L17 10ZM22 10L22 11L19 11L19 12L21 12L21 13L20 13L20 16L22 16L22 17L21 17L21 18L22 18L22 19L21 19L21 21L22 21L22 22L23 22L23 23L22 23L22 24L24 24L24 22L23 22L23 21L22 21L22 20L23 20L23 19L24 19L24 18L23 18L23 17L24 17L24 16L23 16L23 15L24 15L24 14L23 14L23 15L22 15L22 13L23 13L23 11L24 11L24 10ZM7 11L7 12L9 12L9 11ZM4 13L4 14L5 14L5 13ZM5 16L5 17L7 17L7 16ZM17 17L17 20L20 20L20 17ZM11 18L11 19L13 19L13 20L14 20L14 19L13 19L13 18ZM15 18L15 20L16 20L16 18ZM18 18L18 19L19 19L19 18ZM16 21L16 22L17 22L17 21ZM0 0L0 7L7 7L7 0ZM1 1L1 6L6 6L6 1ZM2 2L2 5L5 5L5 2ZM18 0L18 7L25 7L25 0ZM19 1L19 6L24 6L24 1ZM20 2L20 5L23 5L23 2ZM0 18L0 25L7 25L7 18ZM1 19L1 24L6 24L6 19ZM2 20L2 23L5 23L5 20Z" fill="#282828"/></g></g></svg>
