<?xml version="1.0" encoding="UTF-8"?>
<svg xmlns="http://www.w3.org/2000/svg" version="1.1" width="90" height="90" viewBox="0 0 90 90"><rect x="0" y="0" width="90" height="90" fill="#ffffff"/><g transform="scale(2.903)"><g transform="translate(1,1)"><path fill-rule="evenodd" d="M10 0L10 2L11 2L11 0ZM12 0L12 1L13 1L13 2L12 2L12 4L14 4L14 5L15 5L15 6L14 6L14 7L15 7L15 8L13 8L13 9L12 9L12 7L13 7L13 5L11 5L11 6L10 6L10 4L11 4L11 3L8 3L8 4L9 4L9 5L8 5L8 7L9 7L9 8L6 8L6 9L5 9L5 8L0 8L0 9L1 9L1 10L0 10L0 11L1 11L1 12L2 12L2 9L3 9L3 10L5 10L5 11L7 11L7 12L4 12L4 11L3 11L3 12L4 12L4 13L2 13L2 14L0 14L0 16L1 16L1 15L2 15L2 16L3 16L3 17L0 17L0 21L1 21L1 18L3 18L3 20L4 20L4 21L5 21L5 20L6 20L6 21L8 21L8 23L9 23L9 24L8 24L8 29L9 29L9 27L10 27L10 25L12 25L12 26L13 26L13 27L12 27L12 29L13 29L13 28L14 28L14 29L16 29L16 28L14 28L14 27L17 27L17 25L18 25L18 28L19 28L19 29L20 29L20 28L22 28L22 27L23 27L23 28L24 28L24 29L25 29L25 28L26 28L26 29L27 29L27 28L28 28L28 26L29 26L29 23L28 23L28 22L29 22L29 21L28 21L28 20L29 20L29 19L28 19L28 18L29 18L29 17L28 17L28 18L27 18L27 16L26 16L26 17L23 17L23 19L22 19L22 17L20 17L20 16L22 16L22 14L24 14L24 15L23 15L23 16L24 16L24 15L26 15L26 14L27 14L27 15L28 15L28 14L29 14L29 12L27 12L27 13L22 13L22 12L23 12L23 11L25 11L25 12L26 12L26 11L27 11L27 9L28 9L28 8L27 8L27 9L26 9L26 8L25 8L25 9L24 9L24 8L23 8L23 9L22 9L22 8L20 8L20 7L21 7L21 6L20 6L20 7L19 7L19 5L20 5L20 4L18 4L18 3L19 3L19 1L18 1L18 3L15 3L15 2L16 2L16 1L17 1L17 0ZM20 0L20 1L21 1L21 0ZM8 1L8 2L9 2L9 1ZM13 2L13 3L14 3L14 2ZM15 4L15 5L16 5L16 4ZM17 4L17 7L16 7L16 6L15 6L15 7L16 7L16 8L15 8L15 9L13 9L13 10L12 10L12 9L11 9L11 8L10 8L10 9L8 9L8 13L9 13L9 12L11 12L11 13L10 13L10 15L6 15L6 16L7 16L7 17L6 17L6 18L4 18L4 20L5 20L5 19L6 19L6 20L8 20L8 21L9 21L9 20L8 20L8 19L6 19L6 18L7 18L7 17L8 17L8 18L11 18L11 20L10 20L10 23L11 23L11 22L13 22L13 23L12 23L12 25L14 25L14 26L16 26L16 25L17 25L17 24L18 24L18 23L19 23L19 22L20 22L20 21L19 21L19 20L22 20L22 19L20 19L20 18L19 18L19 19L18 19L18 18L17 18L17 19L15 19L15 20L14 20L14 17L15 17L15 18L16 18L16 17L17 17L17 16L18 16L18 17L19 17L19 16L20 16L20 14L17 14L17 15L16 15L16 16L14 16L14 15L15 15L15 14L16 14L16 13L17 13L17 12L18 12L18 13L19 13L19 12L20 12L20 13L21 13L21 11L22 11L22 10L21 10L21 11L20 11L20 10L19 10L19 9L20 9L20 8L19 8L19 7L18 7L18 4ZM9 6L9 7L10 7L10 6ZM11 6L11 7L12 7L12 6ZM17 8L17 9L16 9L16 10L15 10L15 11L14 11L14 12L13 12L13 11L12 11L12 13L14 13L14 14L11 14L11 17L12 17L12 18L13 18L13 17L14 17L14 16L13 16L13 17L12 17L12 15L14 15L14 14L15 14L15 13L14 13L14 12L17 12L17 9L18 9L18 8ZM6 9L6 10L7 10L7 9ZM10 9L10 11L11 11L11 9ZM4 13L4 14L2 14L2 15L3 15L3 16L4 16L4 17L5 17L5 13ZM6 13L6 14L7 14L7 13ZM27 13L27 14L28 14L28 13ZM18 15L18 16L19 16L19 15ZM8 16L8 17L10 17L10 16ZM25 18L25 23L26 23L26 25L24 25L24 26L25 26L25 27L26 27L26 28L27 28L27 22L28 22L28 21L26 21L26 20L28 20L28 19L26 19L26 18ZM12 19L12 21L13 21L13 22L15 22L15 23L14 23L14 24L15 24L15 25L16 25L16 23L18 23L18 22L19 22L19 21L18 21L18 20L15 20L15 21L14 21L14 20L13 20L13 19ZM15 21L15 22L16 22L16 21ZM21 21L21 24L24 24L24 21ZM22 22L22 23L23 23L23 22ZM19 24L19 25L20 25L20 24ZM21 25L21 26L19 26L19 27L21 27L21 26L23 26L23 25ZM10 28L10 29L11 29L11 28ZM0 0L0 7L7 7L7 0ZM1 1L1 6L6 6L6 1ZM2 2L2 5L5 5L5 2ZM22 0L22 7L29 7L29 0ZM23 1L23 6L28 6L28 1ZM24 2L24 5L27 5L27 2ZM0 22L0 29L7 29L7 22ZM1 23L1 28L6 28L6 23ZM2 24L2 27L5 27L5 24Z" fill="#282828"/></g></g></svg>
