<?xml version="1.0" encoding="UTF-8"?>
<svg xmlns="http://www.w3.org/2000/svg" version="1.1" width="90" height="90" viewBox="0 0 90 90"><rect x="0" y="0" width="90" height="90" fill="#ffffff"/><g transform="scale(2.903)"><g transform="translate(1,1)"><path fill-rule="evenodd" d="M9 0L9 1L8 1L8 2L9 2L9 3L8 3L8 4L10 4L10 7L11 7L11 4L12 4L12 5L13 5L13 6L12 6L12 9L13 9L13 8L14 8L14 9L15 9L15 10L17 10L17 11L16 11L16 12L17 12L17 13L18 13L18 12L17 12L17 11L19 11L19 10L20 10L20 11L21 11L21 10L25 10L25 12L26 12L26 13L22 13L22 12L21 12L21 13L19 13L19 14L16 14L16 13L12 13L12 11L13 11L13 10L11 10L11 11L10 11L10 9L11 9L11 8L6 8L6 9L9 9L9 10L5 10L5 8L0 8L0 9L1 9L1 10L0 10L0 11L2 11L2 10L4 10L4 11L3 11L3 13L1 13L1 14L0 14L0 15L1 15L1 14L2 14L2 16L5 16L5 17L4 17L4 19L3 19L3 18L2 18L2 17L1 17L1 16L0 16L0 21L1 21L1 18L2 18L2 19L3 19L3 21L4 21L4 20L6 20L6 21L7 21L7 20L8 20L8 23L9 23L9 24L8 24L8 29L9 29L9 25L10 25L10 23L9 23L9 22L11 22L11 21L12 21L12 22L13 22L13 23L12 23L12 25L13 25L13 24L14 24L14 25L16 25L16 26L15 26L15 27L14 27L14 28L15 28L15 29L18 29L18 28L16 28L16 26L17 26L17 27L18 27L18 25L16 25L16 23L17 23L17 22L19 22L19 24L20 24L20 25L19 25L19 27L20 27L20 28L19 28L19 29L20 29L20 28L21 28L21 29L22 29L22 28L21 28L21 27L20 27L20 25L25 25L25 26L22 26L22 27L24 27L24 28L23 28L23 29L24 29L24 28L26 28L26 29L27 29L27 28L28 28L28 26L29 26L29 25L28 25L28 24L27 24L27 28L26 28L26 25L25 25L25 24L26 24L26 23L25 23L25 20L23 20L23 19L26 19L26 17L27 17L27 16L26 16L26 14L27 14L27 12L26 12L26 10L28 10L28 8L27 8L27 9L26 9L26 8L25 8L25 9L24 9L24 8L23 8L23 9L22 9L22 8L21 8L21 10L20 10L20 9L19 9L19 10L17 10L17 9L18 9L18 8L17 8L17 9L16 9L16 7L17 7L17 5L16 5L16 4L18 4L18 7L19 7L19 4L20 4L20 5L21 5L21 4L20 4L20 3L21 3L21 2L19 2L19 4L18 4L18 3L17 3L17 2L18 2L18 1L21 1L21 0L18 0L18 1L17 1L17 0L15 0L15 1L17 1L17 2L16 2L16 4L12 4L12 2L13 2L13 1L11 1L11 2L10 2L10 0ZM14 2L14 3L15 3L15 2ZM10 3L10 4L11 4L11 3ZM8 5L8 7L9 7L9 5ZM13 6L13 7L14 7L14 8L15 8L15 7L16 7L16 6L15 6L15 7L14 7L14 6ZM20 6L20 7L21 7L21 6ZM6 11L6 12L7 12L7 13L5 13L5 14L7 14L7 13L9 13L9 14L10 14L10 16L11 16L11 18L9 18L9 17L8 17L8 15L5 15L5 16L7 16L7 17L6 17L6 18L9 18L9 19L8 19L8 20L10 20L10 21L11 21L11 20L10 20L10 19L11 19L11 18L13 18L13 19L12 19L12 21L15 21L15 22L17 22L17 21L15 21L15 20L18 20L18 21L19 21L19 22L20 22L20 21L19 21L19 20L20 20L20 19L21 19L21 20L22 20L22 19L23 19L23 17L26 17L26 16L24 16L24 15L23 15L23 14L22 14L22 16L20 16L20 15L21 15L21 14L19 14L19 15L17 15L17 16L18 16L18 17L14 17L14 16L15 16L15 15L14 15L14 16L13 16L13 17L12 17L12 15L13 15L13 14L12 14L12 13L11 13L11 12L10 12L10 13L9 13L9 11ZM14 11L14 12L15 12L15 11ZM23 11L23 12L24 12L24 11ZM28 11L28 13L29 13L29 11ZM10 13L10 14L11 14L11 13ZM19 16L19 17L18 17L18 19L19 19L19 18L21 18L21 19L22 19L22 18L21 18L21 17L20 17L20 16ZM28 17L28 18L27 18L27 19L28 19L28 20L26 20L26 21L28 21L28 22L27 22L27 23L28 23L28 22L29 22L29 21L28 21L28 20L29 20L29 19L28 19L28 18L29 18L29 17ZM15 18L15 19L14 19L14 20L15 20L15 19L17 19L17 18ZM6 19L6 20L7 20L7 19ZM21 21L21 24L24 24L24 21ZM22 22L22 23L23 23L23 22ZM14 23L14 24L15 24L15 23ZM11 26L11 28L10 28L10 29L12 29L12 27L13 27L13 26ZM0 0L0 7L7 7L7 0ZM1 1L1 6L6 6L6 1ZM2 2L2 5L5 5L5 2ZM22 0L22 7L29 7L29 0ZM23 1L23 6L28 6L28 1ZM24 2L24 5L27 5L27 2ZM0 22L0 29L7 29L7 22ZM1 23L1 28L6 28L6 23ZM2 24L2 27L5 27L5 24Z" fill="#282828"/></g></g></svg>
