<?xml version="1.0" encoding="UTF-8"?>
<svg xmlns="http://www.w3.org/2000/svg" version="1.1" width="90" height="90" viewBox="0 0 90 90"><rect x="0" y="0" width="90" height="90" fill="#ffffff"/><g transform="scale(2.903)"><g transform="translate(1,1)"><path fill-rule="evenodd" d="M8 0L8 1L11 1L11 3L10 3L10 2L9 2L9 3L10 3L10 5L9 5L9 6L8 6L8 8L9 8L9 9L8 9L8 10L6 10L6 9L7 9L7 8L6 8L6 9L5 9L5 8L3 8L3 9L4 9L4 10L5 10L5 11L4 11L4 12L3 12L3 14L2 14L2 17L0 17L0 21L2 21L2 20L4 20L4 21L5 21L5 20L6 20L6 21L8 21L8 22L9 22L9 19L10 19L10 18L12 18L12 19L11 19L11 20L10 20L10 21L12 21L12 22L11 22L11 23L9 23L9 24L8 24L8 26L9 26L9 27L8 27L8 29L11 29L11 28L12 28L12 27L14 27L14 26L15 26L15 27L16 27L16 28L14 28L14 29L17 29L17 27L18 27L18 23L19 23L19 26L20 26L20 27L21 27L21 28L19 28L19 29L21 29L21 28L24 28L24 29L25 29L25 28L27 28L27 27L28 27L28 28L29 28L29 23L28 23L28 21L29 21L29 18L28 18L28 17L27 17L27 18L26 18L26 17L24 17L24 20L21 20L21 19L23 19L23 18L21 18L21 17L22 17L22 16L23 16L23 15L24 15L24 16L29 16L29 14L28 14L28 13L27 13L27 14L28 14L28 15L24 15L24 14L25 14L25 13L26 13L26 11L27 11L27 12L28 12L28 11L27 11L27 10L26 10L26 9L23 9L23 8L22 8L22 9L23 9L23 10L25 10L25 11L22 11L22 10L20 10L20 7L21 7L21 3L20 3L20 2L21 2L21 1L20 1L20 0L19 0L19 1L18 1L18 0L17 0L17 2L19 2L19 3L20 3L20 4L19 4L19 5L20 5L20 7L19 7L19 6L18 6L18 3L17 3L17 6L16 6L16 7L17 7L17 6L18 6L18 8L15 8L15 5L16 5L16 3L15 3L15 2L16 2L16 0L13 0L13 1L12 1L12 0ZM12 2L12 4L14 4L14 5L15 5L15 4L14 4L14 3L13 3L13 2ZM10 5L10 6L9 6L9 7L10 7L10 9L9 9L9 10L8 10L8 12L11 12L11 15L10 15L10 14L9 14L9 13L4 13L4 14L5 14L5 15L6 15L6 16L5 16L5 17L6 17L6 18L8 18L8 19L9 19L9 18L10 18L10 16L12 16L12 15L14 15L14 14L16 14L16 15L15 15L15 16L13 16L13 17L12 17L12 18L15 18L15 16L17 16L17 18L16 18L16 21L17 21L17 22L18 22L18 21L19 21L19 22L20 22L20 20L18 20L18 19L19 19L19 18L18 18L18 17L20 17L20 15L19 15L19 14L21 14L21 15L23 15L23 14L22 14L22 12L21 12L21 13L20 13L20 12L19 12L19 11L20 11L20 10L18 10L18 9L19 9L19 8L18 8L18 9L15 9L15 11L16 11L16 12L15 12L15 13L13 13L13 12L14 12L14 9L12 9L12 6L13 6L13 8L14 8L14 6L13 6L13 5L12 5L12 6L11 6L11 5ZM10 6L10 7L11 7L11 6ZM0 8L0 9L1 9L1 10L0 10L0 12L1 12L1 13L0 13L0 16L1 16L1 13L2 13L2 11L3 11L3 10L2 10L2 8ZM28 8L28 10L29 10L29 8ZM10 9L10 10L9 10L9 11L10 11L10 10L11 10L11 9ZM12 10L12 11L13 11L13 10ZM17 10L17 12L16 12L16 13L17 13L17 14L19 14L19 13L17 13L17 12L18 12L18 10ZM5 11L5 12L7 12L7 11ZM23 12L23 13L25 13L25 12ZM12 13L12 14L13 14L13 13ZM6 14L6 15L7 15L7 14ZM18 15L18 16L19 16L19 15ZM3 16L3 19L4 19L4 20L5 20L5 18L4 18L4 16ZM6 16L6 17L7 17L7 16ZM8 16L8 18L9 18L9 16ZM17 18L17 19L18 19L18 18ZM20 18L20 19L21 19L21 18ZM25 18L25 19L26 19L26 18ZM6 19L6 20L7 20L7 19ZM12 19L12 21L13 21L13 19ZM14 19L14 25L15 25L15 24L16 24L16 23L15 23L15 19ZM17 20L17 21L18 21L18 20ZM21 21L21 24L24 24L24 21ZM25 21L25 23L26 23L26 24L27 24L27 23L26 23L26 21ZM12 22L12 23L13 23L13 22ZM22 22L22 23L23 23L23 22ZM9 24L9 26L10 26L10 27L9 27L9 28L11 28L11 26L13 26L13 25L11 25L11 26L10 26L10 24ZM22 25L22 26L28 26L28 25ZM24 27L24 28L25 28L25 27ZM0 0L0 7L7 7L7 0ZM1 1L1 6L6 6L6 1ZM2 2L2 5L5 5L5 2ZM22 0L22 7L29 7L29 0ZM23 1L23 6L28 6L28 1ZM24 2L24 5L27 5L27 2ZM0 22L0 29L7 29L7 22ZM1 23L1 28L6 28L6 23ZM2 24L2 27L5 27L5 24Z" fill="#282828"/></g></g></svg>
