<?xml version="1.0" encoding="UTF-8"?>
<svg xmlns="http://www.w3.org/2000/svg" version="1.1" width="90" height="90" viewBox="0 0 90 90"><rect x="0" y="0" width="90" height="90" fill="#ffffff"/><g transform="scale(3.333)"><g transform="translate(1,1)"><path fill-rule="evenodd" d="M9 0L9 1L8 1L8 2L9 2L9 3L8 3L8 4L9 4L9 5L8 5L8 7L9 7L9 8L6 8L6 9L8 9L8 10L5 10L5 8L0 8L0 12L1 12L1 13L0 13L0 17L1 17L1 13L2 13L2 14L4 14L4 16L2 16L2 17L5 17L5 13L7 13L7 12L6 12L6 11L8 11L8 10L9 10L9 12L8 12L8 15L7 15L7 14L6 14L6 15L7 15L7 16L6 16L6 17L7 17L7 16L8 16L8 15L9 15L9 17L8 17L8 19L9 19L9 20L8 20L8 25L9 25L9 24L10 24L10 23L11 23L11 25L15 25L15 24L13 24L13 22L12 22L12 21L15 21L15 22L14 22L14 23L16 23L16 24L17 24L17 25L25 25L25 22L24 22L24 24L19 24L19 23L20 23L20 22L21 22L21 23L22 23L22 22L23 22L23 20L21 20L21 17L22 17L22 18L24 18L24 21L25 21L25 18L24 18L24 17L25 17L25 16L24 16L24 15L25 15L25 14L24 14L24 13L25 13L25 12L23 12L23 13L22 13L22 15L23 15L23 16L24 16L24 17L22 17L22 16L20 16L20 14L19 14L19 15L18 15L18 16L17 16L17 15L16 15L16 14L17 14L17 13L19 13L19 12L18 12L18 11L19 11L19 10L20 10L20 8L19 8L19 9L18 9L18 8L17 8L17 6L16 6L16 5L17 5L17 2L16 2L16 1L17 1L17 0L16 0L16 1L14 1L14 3L13 3L13 2L12 2L12 4L9 4L9 3L11 3L11 2L9 2L9 1L13 1L13 0ZM14 3L14 4L12 4L12 5L11 5L11 7L10 7L10 5L9 5L9 7L10 7L10 8L9 8L9 9L12 9L12 10L10 10L10 13L9 13L9 15L10 15L10 18L9 18L9 19L10 19L10 18L11 18L11 19L12 19L12 20L16 20L16 18L15 18L15 17L16 17L16 16L15 16L15 17L14 17L14 18L13 18L13 17L12 17L12 16L11 16L11 15L12 15L12 14L13 14L13 16L14 16L14 15L15 15L15 14L16 14L16 13L17 13L17 12L16 12L16 11L15 11L15 10L16 10L16 9L14 9L14 8L15 8L15 7L16 7L16 6L15 6L15 5L16 5L16 4L15 4L15 3ZM12 5L12 8L13 8L13 5ZM14 6L14 7L15 7L15 6ZM21 8L21 11L22 11L22 8ZM23 8L23 10L24 10L24 11L25 11L25 10L24 10L24 8ZM2 9L2 10L1 10L1 11L4 11L4 12L2 12L2 13L5 13L5 10L3 10L3 9ZM13 9L13 11L14 11L14 12L13 12L13 13L15 13L15 11L14 11L14 9ZM17 9L17 11L18 11L18 9ZM11 11L11 13L12 13L12 11ZM20 12L20 13L21 13L21 12ZM10 14L10 15L11 15L11 14ZM23 14L23 15L24 15L24 14ZM11 17L11 18L12 18L12 17ZM17 17L17 20L20 20L20 17ZM14 18L14 19L15 19L15 18ZM18 18L18 19L19 19L19 18ZM10 20L10 21L11 21L11 20ZM19 21L19 22L16 22L16 23L17 23L17 24L18 24L18 23L19 23L19 22L20 22L20 21ZM21 21L21 22L22 22L22 21ZM11 22L11 23L12 23L12 22ZM0 0L0 7L7 7L7 0ZM1 1L1 6L6 6L6 1ZM2 2L2 5L5 5L5 2ZM18 0L18 7L25 7L25 0ZM19 1L19 6L24 6L24 1ZM20 2L20 5L23 5L23 2ZM0 18L0 25L7 25L7 18ZM1 19L1 24L6 24L6 19ZM2 20L2 23L5 23L5 20Z" fill="#282828"/></g></g></svg>
