<?xml version="1.0" encoding="UTF-8"?>
<svg xmlns="http://www.w3.org/2000/svg" version="1.1" width="90" height="90" viewBox="0 0 90 90"><rect x="0" y="0" width="90" height="90" fill="#ffffff"/><g transform="scale(2.903)"><g transform="translate(1,1)"><path fill-rule="evenodd" d="M10 0L10 2L11 2L11 0ZM12 0L12 1L13 1L13 0ZM16 0L16 1L15 1L15 2L14 2L14 3L13 3L13 2L12 2L12 4L14 4L14 5L11 5L11 6L10 6L10 4L11 4L11 3L8 3L8 4L9 4L9 5L8 5L8 7L9 7L9 8L6 8L6 9L5 9L5 8L0 8L0 11L1 11L1 10L2 10L2 9L3 9L3 12L2 12L2 13L1 13L1 14L0 14L0 21L1 21L1 17L2 17L2 21L7 21L7 20L9 20L9 21L8 21L8 23L9 23L9 21L11 21L11 17L12 17L12 18L13 18L13 19L12 19L12 21L13 21L13 20L14 20L14 21L15 21L15 23L14 23L14 24L17 24L17 23L18 23L18 22L19 22L19 23L20 23L20 25L12 25L12 23L13 23L13 22L10 22L10 23L11 23L11 24L10 24L10 25L9 25L9 24L8 24L8 29L9 29L9 26L10 26L10 25L12 25L12 26L13 26L13 27L12 27L12 29L13 29L13 28L14 28L14 29L16 29L16 26L17 26L17 27L18 27L18 26L19 26L19 27L20 27L20 28L17 28L17 29L20 29L20 28L21 28L21 29L22 29L22 28L23 28L23 27L24 27L24 29L25 29L25 27L26 27L26 25L27 25L27 28L26 28L26 29L27 29L27 28L28 28L28 26L29 26L29 24L28 24L28 22L29 22L29 21L28 21L28 20L29 20L29 19L28 19L28 18L29 18L29 17L28 17L28 18L27 18L27 16L29 16L29 15L28 15L28 14L29 14L29 13L28 13L28 12L27 12L27 13L19 13L19 12L17 12L17 9L18 9L18 11L19 11L19 10L20 10L20 12L21 12L21 11L23 11L23 12L24 12L24 11L23 11L23 10L25 10L25 12L26 12L26 11L27 11L27 9L28 9L28 8L27 8L27 9L26 9L26 8L25 8L25 9L24 9L24 8L23 8L23 9L22 9L22 8L20 8L20 7L21 7L21 3L20 3L20 2L21 2L21 0ZM8 1L8 2L9 2L9 1ZM16 1L16 3L18 3L18 4L17 4L17 5L18 5L18 4L20 4L20 3L19 3L19 2L20 2L20 1L19 1L19 2L18 2L18 1ZM14 3L14 4L15 4L15 5L14 5L14 6L13 6L13 7L12 7L12 6L11 6L11 7L12 7L12 9L11 9L11 8L10 8L10 9L9 9L9 11L5 11L5 10L4 10L4 11L5 11L5 12L7 12L7 13L5 13L5 15L3 15L3 17L4 17L4 16L5 16L5 19L4 19L4 18L3 18L3 19L4 19L4 20L7 20L7 19L6 19L6 18L7 18L7 17L6 17L6 16L8 16L8 17L9 17L9 16L8 16L8 15L10 15L10 14L13 14L13 15L12 15L12 17L14 17L14 18L15 18L15 17L19 17L19 18L18 18L18 19L17 19L17 18L16 18L16 19L14 19L14 20L16 20L16 21L17 21L17 22L18 22L18 21L19 21L19 22L20 22L20 20L21 20L21 19L22 19L22 20L23 20L23 19L24 19L24 18L23 18L23 19L22 19L22 18L20 18L20 17L26 17L26 16L27 16L27 14L28 14L28 13L27 13L27 14L26 14L26 16L24 16L24 15L23 15L23 14L19 14L19 15L20 15L20 17L19 17L19 16L18 16L18 13L17 13L17 12L16 12L16 11L13 11L13 10L14 10L14 9L16 9L16 6L15 6L15 5L16 5L16 4L15 4L15 3ZM19 5L19 7L18 7L18 6L17 6L17 8L18 8L18 9L20 9L20 8L19 8L19 7L20 7L20 5ZM9 6L9 7L10 7L10 6ZM14 6L14 8L13 8L13 9L12 9L12 10L13 10L13 9L14 9L14 8L15 8L15 6ZM6 9L6 10L8 10L8 9ZM10 9L10 11L11 11L11 9ZM12 11L12 13L14 13L14 14L15 14L15 15L14 15L14 16L15 16L15 15L16 15L16 16L17 16L17 13L16 13L16 12L15 12L15 13L14 13L14 12L13 12L13 11ZM9 12L9 13L7 13L7 14L6 14L6 15L5 15L5 16L6 16L6 15L8 15L8 14L10 14L10 13L11 13L11 12ZM2 13L2 14L1 14L1 16L2 16L2 14L3 14L3 13ZM10 16L10 17L11 17L11 16ZM8 18L8 19L9 19L9 18ZM25 18L25 19L26 19L26 20L25 20L25 21L26 21L26 20L28 20L28 19L27 19L27 18ZM18 19L18 20L19 20L19 19ZM21 21L21 24L24 24L24 21ZM27 21L27 22L25 22L25 23L26 23L26 24L25 24L25 25L26 25L26 24L27 24L27 22L28 22L28 21ZM22 22L22 23L23 23L23 22ZM20 25L20 27L21 27L21 28L22 28L22 27L21 27L21 26L24 26L24 25ZM10 27L10 29L11 29L11 27ZM14 27L14 28L15 28L15 27ZM0 0L0 7L7 7L7 0ZM1 1L1 6L6 6L6 1ZM2 2L2 5L5 5L5 2ZM22 0L22 7L29 7L29 0ZM23 1L23 6L28 6L28 1ZM24 2L24 5L27 5L27 2ZM0 22L0 29L7 29L7 22ZM1 23L1 28L6 28L6 23ZM2 24L2 27L5 27L5 24Z" fill="#282828"/></g></g></svg>
