<?xml version="1.0" encoding="UTF-8"?>
<svg xmlns="http://www.w3.org/2000/svg" version="1.1" width="90" height="90" viewBox="0 0 90 90"><rect x="0" y="0" width="90" height="90" fill="#ffffff"/><g transform="scale(2.903)"><g transform="translate(1,1)"><path fill-rule="evenodd" d="M9 0L9 1L10 1L10 2L8 2L8 3L9 3L9 4L10 4L10 5L9 5L9 6L8 6L8 8L4 8L4 9L7 9L7 10L5 10L5 11L4 11L4 10L3 10L3 8L0 8L0 9L1 9L1 11L3 11L3 12L2 12L2 16L4 16L4 17L5 17L5 18L3 18L3 17L2 17L2 18L3 18L3 20L2 20L2 19L1 19L1 18L0 18L0 19L1 19L1 20L0 20L0 21L1 21L1 20L2 20L2 21L3 21L3 20L6 20L6 21L7 21L7 20L6 20L6 19L8 19L8 25L9 25L9 26L8 26L8 29L10 29L10 27L9 27L9 26L10 26L10 24L9 24L9 22L10 22L10 23L12 23L12 24L11 24L11 26L12 26L12 24L14 24L14 26L13 26L13 27L14 27L14 26L15 26L15 25L16 25L16 27L15 27L15 28L16 28L16 27L17 27L17 29L18 29L18 28L19 28L19 29L21 29L21 28L22 28L22 29L24 29L24 27L27 27L27 29L29 29L29 28L28 28L28 27L29 27L29 25L27 25L27 24L28 24L28 23L29 23L29 10L27 10L27 8L26 8L26 10L24 10L24 11L23 11L23 10L22 10L22 12L21 12L21 11L19 11L19 9L18 9L18 8L20 8L20 9L23 9L23 8L20 8L20 7L21 7L21 6L20 6L20 5L19 5L19 4L20 4L20 3L21 3L21 1L20 1L20 0L17 0L17 2L16 2L16 0L14 0L14 1L13 1L13 0L12 0L12 1L10 1L10 0ZM14 1L14 2L13 2L13 3L12 3L12 2L11 2L11 3L12 3L12 4L11 4L11 5L10 5L10 6L9 6L9 7L10 7L10 6L11 6L11 8L12 8L12 10L10 10L10 8L9 8L9 10L10 10L10 11L9 11L9 13L6 13L6 12L8 12L8 11L6 11L6 12L4 12L4 13L3 13L3 15L4 15L4 16L5 16L5 17L6 17L6 18L8 18L8 19L9 19L9 21L12 21L12 20L13 20L13 21L14 21L14 22L13 22L13 23L14 23L14 22L15 22L15 23L16 23L16 24L17 24L17 23L18 23L18 21L19 21L19 20L20 20L20 19L21 19L21 20L23 20L23 18L25 18L25 19L26 19L26 20L25 20L25 21L26 21L26 22L25 22L25 25L26 25L26 26L27 26L27 27L28 27L28 26L27 26L27 25L26 25L26 24L27 24L27 23L28 23L28 17L27 17L27 15L28 15L28 12L27 12L27 10L26 10L26 11L24 11L24 12L23 12L23 13L24 13L24 14L22 14L22 13L21 13L21 15L20 15L20 12L19 12L19 11L18 11L18 9L17 9L17 8L16 8L16 6L15 6L15 3L16 3L16 2L15 2L15 1ZM17 2L17 4L16 4L16 5L17 5L17 4L18 4L18 2ZM19 2L19 3L20 3L20 2ZM18 5L18 6L17 6L17 7L18 7L18 6L19 6L19 7L20 7L20 6L19 6L19 5ZM12 6L12 8L13 8L13 12L12 12L12 11L11 11L11 12L12 12L12 13L11 13L11 14L10 14L10 16L8 16L8 15L9 15L9 14L6 14L6 13L4 13L4 15L5 15L5 14L6 14L6 15L7 15L7 16L6 16L6 17L7 17L7 16L8 16L8 18L9 18L9 17L10 17L10 18L12 18L12 16L14 16L14 17L15 17L15 16L14 16L14 15L15 15L15 12L16 12L16 15L17 15L17 16L18 16L18 15L19 15L19 14L18 14L18 13L19 13L19 12L18 12L18 11L15 11L15 12L14 12L14 10L17 10L17 9L16 9L16 8L15 8L15 6L14 6L14 7L13 7L13 6ZM0 12L0 14L1 14L1 12ZM26 12L26 13L27 13L27 12ZM17 14L17 15L18 15L18 14ZM24 14L24 15L23 15L23 16L21 16L21 17L20 17L20 18L21 18L21 19L22 19L22 18L23 18L23 17L24 17L24 16L25 16L25 18L26 18L26 16L25 16L25 14ZM26 14L26 15L27 15L27 14ZM11 15L11 16L10 16L10 17L11 17L11 16L12 16L12 15ZM0 16L0 17L1 17L1 16ZM16 17L16 18L17 18L17 19L16 19L16 20L15 20L15 21L16 21L16 23L17 23L17 21L18 21L18 20L19 20L19 17ZM13 18L13 19L14 19L14 18ZM11 19L11 20L12 20L12 19ZM21 21L21 24L24 24L24 21ZM22 22L22 23L23 23L23 22ZM26 22L26 23L27 23L27 22ZM19 23L19 24L18 24L18 25L17 25L17 27L21 27L21 26L22 26L22 28L23 28L23 25L20 25L20 23ZM19 25L19 26L20 26L20 25ZM11 27L11 28L12 28L12 29L13 29L13 28L12 28L12 27ZM0 0L0 7L7 7L7 0ZM1 1L1 6L6 6L6 1ZM2 2L2 5L5 5L5 2ZM22 0L22 7L29 7L29 0ZM23 1L23 6L28 6L28 1ZM24 2L24 5L27 5L27 2ZM0 22L0 29L7 29L7 22ZM1 23L1 28L6 28L6 23ZM2 24L2 27L5 27L5 24Z" fill="#282828"/></g></g></svg>
