<?xml version="1.0" encoding="UTF-8"?>
<svg xmlns="http://www.w3.org/2000/svg" version="1.1" width="90" height="90" viewBox="0 0 90 90"><rect x="0" y="0" width="90" height="90" fill="#ffffff"/><g transform="scale(2.903)"><g transform="translate(1,1)"><path fill-rule="evenodd" d="M8 0L8 4L10 4L10 3L11 3L11 4L12 4L12 2L11 2L11 0ZM12 0L12 1L14 1L14 0ZM15 0L15 1L16 1L16 3L15 3L15 5L16 5L16 7L15 7L15 6L14 6L14 3L13 3L13 5L11 5L11 6L10 6L10 7L9 7L9 5L8 5L8 7L9 7L9 8L10 8L10 7L11 7L11 6L12 6L12 8L11 8L11 9L9 9L9 10L8 10L8 11L7 11L7 10L4 10L4 9L7 9L7 8L4 8L4 9L3 9L3 10L2 10L2 11L3 11L3 12L1 12L1 13L2 13L2 14L1 14L1 15L3 15L3 16L4 16L4 17L2 17L2 16L1 16L1 17L0 17L0 18L2 18L2 19L3 19L3 20L4 20L4 21L5 21L5 19L7 19L7 20L6 20L6 21L8 21L8 22L9 22L9 23L8 23L8 25L9 25L9 27L8 27L8 29L11 29L11 28L12 28L12 29L14 29L14 27L15 27L15 28L16 28L16 29L18 29L18 28L19 28L19 27L20 27L20 29L22 29L22 28L24 28L24 29L26 29L26 28L24 28L24 27L22 27L22 25L24 25L24 26L25 26L25 27L26 27L26 26L27 26L27 29L28 29L28 28L29 28L29 25L28 25L28 23L29 23L29 21L27 21L27 25L26 25L26 23L25 23L25 21L26 21L26 19L24 19L24 20L23 20L23 19L22 19L22 20L19 20L19 19L18 19L18 18L20 18L20 17L18 17L18 15L19 15L19 13L22 13L22 14L20 14L20 15L22 15L22 16L21 16L21 17L22 17L22 18L25 18L25 17L26 17L26 14L25 14L25 13L27 13L27 19L29 19L29 17L28 17L28 15L29 15L29 13L28 13L28 12L29 12L29 10L28 10L28 9L29 9L29 8L25 8L25 9L24 9L24 8L23 8L23 9L22 9L22 10L20 10L20 11L21 11L21 12L19 12L19 11L18 11L18 10L19 10L19 9L20 9L20 7L21 7L21 5L19 5L19 4L20 4L20 3L21 3L21 2L20 2L20 1L21 1L21 0L20 0L20 1L19 1L19 0L18 0L18 2L17 2L17 1L16 1L16 0ZM9 2L9 3L10 3L10 2ZM18 2L18 3L19 3L19 2ZM16 3L16 5L17 5L17 7L18 7L18 9L17 9L17 8L15 8L15 7L14 7L14 6L13 6L13 8L12 8L12 9L11 9L11 10L9 10L9 11L8 11L8 12L7 12L7 11L6 11L6 12L4 12L4 13L6 13L6 14L8 14L8 13L10 13L10 14L9 14L9 16L8 16L8 18L12 18L12 17L13 17L13 18L16 18L16 20L15 20L15 19L14 19L14 21L16 21L16 20L17 20L17 18L16 18L16 17L13 17L13 16L14 16L14 15L15 15L15 16L17 16L17 14L16 14L16 15L15 15L15 14L13 14L13 13L12 13L12 12L13 12L13 11L12 11L12 12L11 12L11 13L10 13L10 11L11 11L11 10L12 10L12 9L13 9L13 10L14 10L14 9L13 9L13 8L15 8L15 9L17 9L17 10L18 10L18 9L19 9L19 7L20 7L20 6L19 6L19 7L18 7L18 5L17 5L17 3ZM0 8L0 11L1 11L1 9L2 9L2 8ZM25 9L25 10L22 10L22 11L23 11L23 12L22 12L22 13L23 13L23 12L24 12L24 13L25 13L25 10L27 10L27 11L26 11L26 12L27 12L27 11L28 11L28 10L27 10L27 9ZM3 10L3 11L4 11L4 10ZM14 11L14 13L16 13L16 12L15 12L15 11ZM6 12L6 13L7 13L7 12ZM18 12L18 13L19 13L19 12ZM10 14L10 15L11 15L11 14ZM23 14L23 16L22 16L22 17L25 17L25 16L24 16L24 14ZM4 15L4 16L7 16L7 15ZM12 15L12 16L11 16L11 17L12 17L12 16L13 16L13 15ZM9 16L9 17L10 17L10 16ZM5 17L5 18L3 18L3 19L5 19L5 18L7 18L7 17ZM9 19L9 20L8 20L8 21L9 21L9 20L10 20L10 19ZM12 19L12 20L11 20L11 21L10 21L10 23L9 23L9 24L12 24L12 25L10 25L10 27L9 27L9 28L10 28L10 27L11 27L11 26L12 26L12 25L13 25L13 26L15 26L15 25L13 25L13 24L14 24L14 23L15 23L15 24L16 24L16 25L17 25L17 26L18 26L18 27L19 27L19 26L18 26L18 25L19 25L19 24L20 24L20 23L19 23L19 24L18 24L18 25L17 25L17 22L16 22L16 23L15 23L15 22L13 22L13 21L12 21L12 20L13 20L13 19ZM0 20L0 21L2 21L2 20ZM18 20L18 21L19 21L19 20ZM21 21L21 24L24 24L24 21ZM22 22L22 23L23 23L23 22ZM12 23L12 24L13 24L13 23ZM20 25L20 26L21 26L21 25ZM25 25L25 26L26 26L26 25ZM27 25L27 26L28 26L28 25ZM12 27L12 28L13 28L13 27ZM16 27L16 28L17 28L17 27ZM0 0L0 7L7 7L7 0ZM1 1L1 6L6 6L6 1ZM2 2L2 5L5 5L5 2ZM22 0L22 7L29 7L29 0ZM23 1L23 6L28 6L28 1ZM24 2L24 5L27 5L27 2ZM0 22L0 29L7 29L7 22ZM1 23L1 28L6 28L6 23ZM2 24L2 27L5 27L5 24Z" fill="#282828"/></g></g></svg>
