<?xml version="1.0" encoding="UTF-8"?>
<svg xmlns="http://www.w3.org/2000/svg" version="1.1" width="90" height="90" viewBox="0 0 90 90"><rect x="0" y="0" width="90" height="90" fill="#ffffff"/><g transform="scale(2.903)"><g transform="translate(1,1)"><path fill-rule="evenodd" d="M8 0L8 1L9 1L9 2L8 2L8 5L9 5L9 4L11 4L11 5L10 5L10 10L9 10L9 8L8 8L8 10L9 10L9 11L7 11L7 10L6 10L6 11L5 11L5 9L4 9L4 8L0 8L0 10L1 10L1 9L4 9L4 10L2 10L2 11L1 11L1 12L0 12L0 13L2 13L2 11L3 11L3 12L4 12L4 11L5 11L5 12L6 12L6 13L5 13L5 15L4 15L4 13L3 13L3 14L0 14L0 17L1 17L1 16L2 16L2 15L3 15L3 17L2 17L2 19L3 19L3 20L1 20L1 21L5 21L5 20L4 20L4 19L5 19L5 18L6 18L6 19L7 19L7 18L6 18L6 17L7 17L7 16L5 16L5 15L10 15L10 16L8 16L8 20L6 20L6 21L8 21L8 22L11 22L11 20L12 20L12 19L11 19L11 17L10 17L10 16L12 16L12 17L13 17L13 16L12 16L12 14L13 14L13 15L14 15L14 18L13 18L13 21L15 21L15 20L16 20L16 19L17 19L17 21L20 21L20 22L16 22L16 24L15 24L15 22L14 22L14 23L11 23L11 25L8 25L8 29L9 29L9 26L10 26L10 27L11 27L11 26L12 26L12 28L10 28L10 29L12 29L12 28L14 28L14 27L15 27L15 28L16 28L16 29L17 29L17 28L16 28L16 27L20 27L20 28L18 28L18 29L22 29L22 28L21 28L21 27L22 27L22 25L24 25L24 26L23 26L23 27L24 27L24 26L25 26L25 28L23 28L23 29L28 29L28 27L29 27L29 25L28 25L28 24L26 24L26 23L27 23L27 22L26 22L26 21L27 21L27 20L28 20L28 22L29 22L29 19L28 19L28 16L29 16L29 13L27 13L27 14L28 14L28 15L27 15L27 17L26 17L26 18L25 18L25 20L24 20L24 19L23 19L23 18L24 18L24 17L25 17L25 16L26 16L26 15L24 15L24 13L22 13L22 15L24 15L24 16L23 16L23 18L22 18L22 19L21 19L21 18L20 18L20 20L19 20L19 19L18 19L18 17L19 17L19 15L20 15L20 14L19 14L19 13L20 13L20 12L23 12L23 11L24 11L24 10L25 10L25 11L26 11L26 10L27 10L27 12L29 12L29 11L28 11L28 10L27 10L27 8L24 8L24 9L22 9L22 8L21 8L21 5L20 5L20 4L21 4L21 0L17 0L17 1L16 1L16 0L12 0L12 1L11 1L11 0L10 0L10 1L9 1L9 0ZM14 1L14 2L11 2L11 4L12 4L12 3L13 3L13 5L12 5L12 6L11 6L11 8L12 8L12 6L13 6L13 8L14 8L14 9L15 9L15 7L16 7L16 6L15 6L15 5L16 5L16 4L17 4L17 3L18 3L18 5L19 5L19 4L20 4L20 3L18 3L18 2L20 2L20 1L18 1L18 2L17 2L17 3L16 3L16 1ZM14 3L14 5L13 5L13 6L14 6L14 7L15 7L15 6L14 6L14 5L15 5L15 4L16 4L16 3ZM8 6L8 7L9 7L9 6ZM17 6L17 7L18 7L18 8L20 8L20 9L21 9L21 11L22 11L22 9L21 9L21 8L20 8L20 6L19 6L19 7L18 7L18 6ZM6 8L6 9L7 9L7 8ZM28 8L28 9L29 9L29 8ZM11 9L11 10L12 10L12 9ZM16 9L16 10L14 10L14 11L11 11L11 13L10 13L10 14L11 14L11 13L12 13L12 12L13 12L13 14L14 14L14 15L15 15L15 17L16 17L16 14L17 14L17 17L18 17L18 14L17 14L17 13L16 13L16 14L14 14L14 12L18 12L18 13L19 13L19 12L18 12L18 11L20 11L20 10L18 10L18 9ZM16 10L16 11L18 11L18 10ZM6 11L6 12L7 12L7 11ZM6 13L6 14L8 14L8 13ZM25 13L25 14L26 14L26 13ZM4 16L4 18L3 18L3 19L4 19L4 18L5 18L5 16ZM20 16L20 17L22 17L22 16ZM0 18L0 19L1 19L1 18ZM9 18L9 21L10 21L10 18ZM26 18L26 19L27 19L27 18ZM21 21L21 24L24 24L24 21ZM22 22L22 23L23 23L23 22ZM17 23L17 24L16 24L16 25L17 25L17 26L18 26L18 25L19 25L19 26L20 26L20 27L21 27L21 25L20 25L20 23L19 23L19 24L18 24L18 23ZM12 24L12 26L13 26L13 27L14 27L14 26L15 26L15 27L16 27L16 26L15 26L15 24ZM25 24L25 26L26 26L26 28L27 28L27 27L28 27L28 25L27 25L27 26L26 26L26 24ZM13 25L13 26L14 26L14 25ZM0 0L0 7L7 7L7 0ZM1 1L1 6L6 6L6 1ZM2 2L2 5L5 5L5 2ZM22 0L22 7L29 7L29 0ZM23 1L23 6L28 6L28 1ZM24 2L24 5L27 5L27 2ZM0 22L0 29L7 29L7 22ZM1 23L1 28L6 28L6 23ZM2 24L2 27L5 27L5 24Z" fill="#282828"/></g></g></svg>
