<?xml version="1.0" encoding="UTF-8"?>
<svg xmlns="http://www.w3.org/2000/svg" version="1.1" width="90" height="90" viewBox="0 0 90 90"><rect x="0" y="0" width="90" height="90" fill="#ffffff"/><g transform="scale(2.903)"><g transform="translate(1,1)"><path fill-rule="evenodd" d="M8 0L8 4L9 4L9 5L8 5L8 7L9 7L9 6L10 6L10 9L11 9L11 8L12 8L12 9L13 9L13 10L14 10L14 9L13 9L13 8L12 8L12 7L13 7L13 6L12 6L12 7L11 7L11 3L10 3L10 2L9 2L9 0ZM13 0L13 1L11 1L11 2L12 2L12 5L13 5L13 2L14 2L14 4L15 4L15 5L16 5L16 7L15 7L15 6L14 6L14 8L15 8L15 12L16 12L16 10L17 10L17 13L12 13L12 12L13 12L13 11L12 11L12 12L11 12L11 13L7 13L7 12L8 12L8 11L9 11L9 12L10 12L10 11L11 11L11 10L9 10L9 9L8 9L8 10L6 10L6 9L7 9L7 8L4 8L4 9L5 9L5 10L6 10L6 11L5 11L5 13L4 13L4 12L3 12L3 10L2 10L2 8L0 8L0 9L1 9L1 10L0 10L0 12L1 12L1 11L2 11L2 13L0 13L0 14L1 14L1 15L0 15L0 18L1 18L1 17L2 17L2 20L0 20L0 21L5 21L5 19L7 19L7 20L6 20L6 21L8 21L8 22L9 22L9 19L10 19L10 20L11 20L11 21L10 21L10 23L11 23L11 24L10 24L10 25L11 25L11 24L12 24L12 25L13 25L13 27L12 27L12 28L9 28L9 27L11 27L11 26L9 26L9 27L8 27L8 29L16 29L16 28L13 28L13 27L16 27L16 26L17 26L17 29L18 29L18 26L19 26L19 25L20 25L20 26L22 26L22 25L23 25L23 26L25 26L25 27L26 27L26 26L27 26L27 29L28 29L28 28L29 28L29 24L28 24L28 26L27 26L27 25L26 25L26 23L25 23L25 21L26 21L26 19L25 19L25 20L23 20L23 19L24 19L24 18L25 18L25 17L26 17L26 14L25 14L25 13L27 13L27 19L29 19L29 17L28 17L28 15L29 15L29 13L28 13L28 11L29 11L29 10L28 10L28 9L29 9L29 8L25 8L25 9L24 9L24 8L23 8L23 9L22 9L22 10L20 10L20 11L19 11L19 9L18 9L18 8L19 8L19 6L20 6L20 7L21 7L21 5L19 5L19 2L20 2L20 1L19 1L19 0ZM15 1L15 4L16 4L16 3L17 3L17 7L18 7L18 3L17 3L17 2L19 2L19 1ZM16 8L16 9L17 9L17 10L18 10L18 9L17 9L17 8ZM20 8L20 9L21 9L21 8ZM25 9L25 10L23 10L23 11L24 11L24 12L22 12L22 11L21 11L21 12L22 12L22 13L20 13L20 12L19 12L19 11L18 11L18 13L19 13L19 16L18 16L18 17L17 17L17 18L16 18L16 19L15 19L15 17L16 17L16 15L18 15L18 14L16 14L16 15L15 15L15 14L13 14L13 15L12 15L12 16L11 16L11 15L10 15L10 14L9 14L9 15L8 15L8 14L7 14L7 13L5 13L5 14L4 14L4 13L3 13L3 14L2 14L2 15L3 15L3 16L2 16L2 17L3 17L3 18L4 18L4 17L5 17L5 16L7 16L7 15L8 15L8 16L9 16L9 17L10 17L10 18L11 18L11 20L12 20L12 21L11 21L11 22L12 22L12 21L14 21L14 22L15 22L15 21L16 21L16 19L17 19L17 18L19 18L19 20L22 20L22 19L23 19L23 18L22 18L22 17L25 17L25 16L22 16L22 17L20 17L20 14L22 14L22 15L23 15L23 14L22 14L22 13L25 13L25 10L27 10L27 11L26 11L26 12L27 12L27 11L28 11L28 10L27 10L27 9ZM6 11L6 12L7 12L7 11ZM11 13L11 14L12 14L12 13ZM6 14L6 15L7 15L7 14ZM24 14L24 15L25 15L25 14ZM4 15L4 16L3 16L3 17L4 17L4 16L5 16L5 15ZM9 15L9 16L10 16L10 15ZM14 15L14 17L13 17L13 16L12 16L12 17L13 17L13 19L12 19L12 20L13 20L13 19L14 19L14 21L15 21L15 19L14 19L14 17L15 17L15 15ZM6 17L6 18L7 18L7 19L8 19L8 17ZM19 17L19 18L20 18L20 17ZM21 18L21 19L22 19L22 18ZM17 21L17 22L16 22L16 24L15 24L15 23L12 23L12 24L13 24L13 25L14 25L14 26L15 26L15 25L16 25L16 24L17 24L17 25L19 25L19 24L20 24L20 23L19 23L19 22L18 22L18 21ZM21 21L21 24L24 24L24 21ZM27 21L27 23L29 23L29 21ZM17 22L17 24L18 24L18 22ZM22 22L22 23L23 23L23 22ZM8 23L8 25L9 25L9 23ZM14 24L14 25L15 25L15 24ZM25 25L25 26L26 26L26 25ZM20 27L20 29L21 29L21 28L22 28L22 29L23 29L23 28L24 28L24 29L26 29L26 28L24 28L24 27ZM0 0L0 7L7 7L7 0ZM1 1L1 6L6 6L6 1ZM2 2L2 5L5 5L5 2ZM22 0L22 7L29 7L29 0ZM23 1L23 6L28 6L28 1ZM24 2L24 5L27 5L27 2ZM0 22L0 29L7 29L7 22ZM1 23L1 28L6 28L6 23ZM2 24L2 27L5 27L5 24Z" fill="#282828"/></g></g></svg>
