<?xml version="1.0" encoding="UTF-8"?>
<svg xmlns="http://www.w3.org/2000/svg" version="1.1" width="90" height="90" viewBox="0 0 90 90"><rect x="0" y="0" width="90" height="90" fill="#ffffff"/><g transform="scale(2.903)"><g transform="translate(1,1)"><path fill-rule="evenodd" d="M8 0L8 4L9 4L9 5L8 5L8 7L9 7L9 6L10 6L10 9L11 9L11 10L8 10L8 11L7 11L7 10L6 10L6 9L7 9L7 8L4 8L4 9L2 9L2 8L0 8L0 10L2 10L2 11L5 11L5 13L4 13L4 16L5 16L5 18L6 18L6 19L7 19L7 20L6 20L6 21L7 21L7 20L8 20L8 22L9 22L9 21L10 21L10 23L11 23L11 24L12 24L12 21L13 21L13 20L12 20L12 19L13 19L13 17L11 17L11 16L10 16L10 15L9 15L9 16L8 16L8 17L7 17L7 16L5 16L5 14L6 14L6 15L7 15L7 14L6 14L6 13L7 13L7 12L8 12L8 13L9 13L9 14L11 14L11 15L13 15L13 16L14 16L14 18L15 18L15 20L16 20L16 18L19 18L19 17L20 17L20 20L19 20L19 21L18 21L18 19L17 19L17 21L14 21L14 23L15 23L15 24L16 24L16 25L13 25L13 26L12 26L12 25L11 25L11 27L10 27L10 26L9 26L9 27L8 27L8 29L9 29L9 27L10 27L10 28L11 28L11 29L12 29L12 28L13 28L13 29L14 29L14 28L16 28L16 29L18 29L18 28L19 28L19 27L20 27L20 29L22 29L22 25L25 25L25 26L27 26L27 28L26 28L26 27L23 27L23 28L25 28L25 29L28 29L28 28L29 28L29 25L26 25L26 24L25 24L25 23L26 23L26 22L27 22L27 23L28 23L28 24L29 24L29 21L26 21L26 18L25 18L25 17L26 17L26 14L25 14L25 13L27 13L27 19L29 19L29 17L28 17L28 15L29 15L29 13L28 13L28 12L26 12L26 11L27 11L27 10L28 10L28 11L29 11L29 10L28 10L28 9L29 9L29 8L25 8L25 9L24 9L24 8L23 8L23 9L21 9L21 5L20 5L20 4L19 4L19 3L20 3L20 2L19 2L19 0L17 0L17 1L16 1L16 0L13 0L13 1L11 1L11 2L12 2L12 3L13 3L13 2L15 2L15 3L14 3L14 4L12 4L12 5L13 5L13 6L12 6L12 8L13 8L13 6L14 6L14 8L15 8L15 9L11 9L11 3L10 3L10 2L9 2L9 0ZM20 0L20 1L21 1L21 0ZM15 1L15 2L16 2L16 3L17 3L17 4L18 4L18 3L19 3L19 2L18 2L18 1L17 1L17 2L16 2L16 1ZM17 2L17 3L18 3L18 2ZM15 5L15 8L16 8L16 9L17 9L17 10L16 10L16 11L17 11L17 10L18 10L18 9L19 9L19 12L22 12L22 13L20 13L20 14L18 14L18 13L17 13L17 12L16 12L16 13L17 13L17 14L18 14L18 16L17 16L17 15L16 15L16 17L19 17L19 16L22 16L22 17L21 17L21 19L24 19L24 20L25 20L25 18L22 18L22 17L25 17L25 15L24 15L24 14L23 14L23 15L24 15L24 16L22 16L22 13L23 13L23 12L22 12L22 10L21 10L21 9L19 9L19 8L20 8L20 5ZM16 6L16 7L17 7L17 9L18 9L18 7L19 7L19 6L18 6L18 7L17 7L17 6ZM4 9L4 10L5 10L5 11L6 11L6 12L7 12L7 11L6 11L6 10L5 10L5 9ZM25 9L25 10L23 10L23 11L24 11L24 13L25 13L25 10L27 10L27 9ZM12 10L12 11L10 11L10 12L9 12L9 11L8 11L8 12L9 12L9 13L13 13L13 12L12 12L12 11L14 11L14 13L15 13L15 11L14 11L14 10ZM20 10L20 11L21 11L21 10ZM0 11L0 13L2 13L2 14L0 14L0 15L3 15L3 13L2 13L2 12L1 12L1 11ZM14 14L14 15L15 15L15 14ZM9 16L9 17L8 17L8 18L7 18L7 17L6 17L6 18L7 18L7 19L8 19L8 20L10 20L10 21L12 21L12 20L11 20L11 18L10 18L10 19L8 19L8 18L9 18L9 17L10 17L10 16ZM0 17L0 18L1 18L1 17ZM2 17L2 18L4 18L4 17ZM0 20L0 21L2 21L2 20ZM3 20L3 21L5 21L5 20ZM17 21L17 22L16 22L16 24L17 24L17 22L18 22L18 23L19 23L19 22L18 22L18 21ZM21 21L21 24L24 24L24 21ZM25 21L25 22L26 22L26 21ZM22 22L22 23L23 23L23 22ZM8 23L8 25L9 25L9 23ZM18 24L18 25L17 25L17 26L16 26L16 27L19 27L19 26L18 26L18 25L19 25L19 24ZM20 25L20 26L21 26L21 25ZM13 26L13 28L14 28L14 26ZM11 27L11 28L12 28L12 27ZM0 0L0 7L7 7L7 0ZM1 1L1 6L6 6L6 1ZM2 2L2 5L5 5L5 2ZM22 0L22 7L29 7L29 0ZM23 1L23 6L28 6L28 1ZM24 2L24 5L27 5L27 2ZM0 22L0 29L7 29L7 22ZM1 23L1 28L6 28L6 23ZM2 24L2 27L5 27L5 24Z" fill="#282828"/></g></g></svg>
