<?xml version="1.0" encoding="UTF-8"?>
<svg xmlns="http://www.w3.org/2000/svg" version="1.1" width="90" height="90" viewBox="0 0 90 90"><rect x="0" y="0" width="90" height="90" fill="#ffffff"/><g transform="scale(3.333)"><g transform="translate(1,1)"><path fill-rule="evenodd" d="M10 0L10 1L8 1L8 2L9 2L9 3L8 3L8 4L10 4L10 1L12 1L12 2L11 2L11 3L12 3L12 2L13 2L13 1L14 1L14 0ZM16 0L16 1L15 1L15 2L14 2L14 3L13 3L13 4L11 4L11 5L10 5L10 7L11 7L11 8L6 8L6 9L5 9L5 8L0 8L0 10L1 10L1 11L0 11L0 12L1 12L1 11L3 11L3 12L5 12L5 13L3 13L3 14L2 14L2 13L0 13L0 17L1 17L1 14L2 14L2 16L3 16L3 17L5 17L5 16L6 16L6 17L8 17L8 19L11 19L11 20L10 20L10 21L12 21L12 19L11 19L11 18L12 18L12 17L11 17L11 16L10 16L10 17L11 17L11 18L9 18L9 15L10 15L10 14L12 14L12 16L13 16L13 18L14 18L14 19L15 19L15 18L16 18L16 20L13 20L13 22L14 22L14 23L15 23L15 24L12 24L12 25L15 25L15 24L17 24L17 25L19 25L19 23L20 23L20 22L19 22L19 21L21 21L21 25L25 25L25 21L24 21L24 20L22 20L22 21L21 21L21 19L22 19L22 18L21 18L21 17L22 17L22 16L21 16L21 15L20 15L20 13L21 13L21 11L22 11L22 10L24 10L24 11L25 11L25 10L24 10L24 8L23 8L23 9L22 9L22 8L21 8L21 11L20 11L20 8L19 8L19 10L18 10L18 11L17 11L17 10L15 10L15 12L13 12L13 11L12 11L12 13L10 13L10 12L11 12L11 11L10 11L10 9L11 9L11 10L14 10L14 9L16 9L16 7L17 7L17 6L16 6L16 5L17 5L17 4L15 4L15 3L17 3L17 0ZM13 4L13 5L11 5L11 7L12 7L12 6L13 6L13 8L11 8L11 9L13 9L13 8L14 8L14 6L15 6L15 7L16 7L16 6L15 6L15 4ZM8 5L8 7L9 7L9 5ZM13 5L13 6L14 6L14 5ZM17 8L17 9L18 9L18 8ZM2 9L2 10L3 10L3 11L5 11L5 12L7 12L7 13L5 13L5 14L4 14L4 15L3 15L3 16L5 16L5 15L6 15L6 16L8 16L8 14L7 14L7 13L8 13L8 12L7 12L7 11L8 11L8 10L9 10L9 9L8 9L8 10L7 10L7 9L6 9L6 10L5 10L5 9ZM6 10L6 11L7 11L7 10ZM18 11L18 12L19 12L19 13L17 13L17 12L16 12L16 13L12 13L12 14L13 14L13 16L14 16L14 14L16 14L16 15L17 15L17 16L18 16L18 15L19 15L19 13L20 13L20 11ZM23 12L23 13L22 13L22 15L23 15L23 16L24 16L24 17L23 17L23 18L24 18L24 19L25 19L25 18L24 18L24 17L25 17L25 16L24 16L24 15L25 15L25 14L24 14L24 13L25 13L25 12ZM16 13L16 14L17 14L17 13ZM6 14L6 15L7 15L7 14ZM23 14L23 15L24 15L24 14ZM15 16L15 17L14 17L14 18L15 18L15 17L16 17L16 16ZM17 17L17 20L20 20L20 17ZM18 18L18 19L19 19L19 18ZM8 20L8 25L9 25L9 24L10 24L10 23L11 23L11 22L9 22L9 20ZM14 21L14 22L15 22L15 23L16 23L16 22L17 22L17 23L19 23L19 22L17 22L17 21L16 21L16 22L15 22L15 21ZM22 21L22 22L23 22L23 23L22 23L22 24L24 24L24 22L23 22L23 21ZM0 0L0 7L7 7L7 0ZM1 1L1 6L6 6L6 1ZM2 2L2 5L5 5L5 2ZM18 0L18 7L25 7L25 0ZM19 1L19 6L24 6L24 1ZM20 2L20 5L23 5L23 2ZM0 18L0 25L7 25L7 18ZM1 19L1 24L6 24L6 19ZM2 20L2 23L5 23L5 20Z" fill="#282828"/></g></g></svg>
