<?xml version="1.0" encoding="UTF-8"?>
<svg xmlns="http://www.w3.org/2000/svg" version="1.1" width="90" height="90" viewBox="0 0 90 90"><rect x="0" y="0" width="90" height="90" fill="#ffffff"/><g transform="scale(2.571)"><g transform="translate(1,1)"><path fill-rule="evenodd" d="M9 0L9 1L8 1L8 2L9 2L9 3L8 3L8 4L10 4L10 7L11 7L11 4L12 4L12 5L13 5L13 6L12 6L12 9L13 9L13 8L14 8L14 9L15 9L15 10L17 10L17 11L16 11L16 13L12 13L12 11L13 11L13 10L11 10L11 11L10 11L10 9L11 9L11 8L6 8L6 9L9 9L9 10L8 10L8 12L6 12L6 13L7 13L7 14L6 14L6 15L5 15L5 17L4 17L4 16L2 16L2 15L4 15L4 14L5 14L5 11L4 11L4 13L3 13L3 10L0 10L0 11L1 11L1 12L0 12L0 14L1 14L1 16L0 16L0 20L2 20L2 21L0 21L0 25L1 25L1 22L3 22L3 23L2 23L2 25L4 25L4 24L3 24L3 23L4 23L4 22L5 22L5 23L8 23L8 24L5 24L5 25L8 25L8 27L9 27L9 28L8 28L8 33L9 33L9 32L10 32L10 33L11 33L11 32L10 32L10 30L11 30L11 29L12 29L12 30L13 30L13 31L12 31L12 33L13 33L13 32L14 32L14 33L19 33L19 32L20 32L20 31L21 31L21 33L26 33L26 32L27 32L27 33L29 33L29 32L31 32L31 33L32 33L32 32L31 32L31 31L29 31L29 32L27 32L27 30L30 30L30 29L29 29L29 28L31 28L31 30L33 30L33 29L32 29L32 28L33 28L33 27L32 27L32 28L31 28L31 26L33 26L33 25L30 25L30 26L29 26L29 24L33 24L33 23L31 23L31 22L33 22L33 21L32 21L32 20L33 20L33 19L32 19L32 20L31 20L31 18L33 18L33 16L32 16L32 13L33 13L33 11L32 11L32 10L31 10L31 9L32 9L32 8L31 8L31 9L30 9L30 8L29 8L29 9L28 9L28 8L27 8L27 9L28 9L28 11L25 11L25 10L24 10L24 9L26 9L26 8L25 8L25 6L24 6L24 8L22 8L22 7L23 7L23 5L24 5L24 4L25 4L25 3L24 3L24 2L25 2L25 0L23 0L23 1L24 1L24 2L23 2L23 3L22 3L22 0L20 0L20 1L21 1L21 5L20 5L20 4L19 4L19 5L20 5L20 7L19 7L19 6L18 6L18 7L19 7L19 8L20 8L20 7L21 7L21 8L22 8L22 9L18 9L18 8L17 8L17 9L16 9L16 7L17 7L17 5L16 5L16 4L18 4L18 3L17 3L17 2L16 2L16 4L12 4L12 2L13 2L13 1L11 1L11 2L10 2L10 0ZM15 0L15 1L17 1L17 0ZM18 0L18 2L19 2L19 0ZM14 2L14 3L15 3L15 2ZM10 3L10 4L11 4L11 3ZM22 4L22 5L23 5L23 4ZM8 5L8 7L9 7L9 5ZM13 6L13 7L14 7L14 8L15 8L15 7L16 7L16 6L15 6L15 7L14 7L14 6ZM21 6L21 7L22 7L22 6ZM0 8L0 9L4 9L4 10L5 10L5 8ZM17 9L17 10L18 10L18 9ZM22 9L22 11L24 11L24 10L23 10L23 9ZM6 10L6 11L7 11L7 10ZM19 10L19 12L18 12L18 11L17 11L17 12L18 12L18 13L19 13L19 12L20 12L20 13L21 13L21 14L19 14L19 15L18 15L18 14L17 14L17 13L16 13L16 14L17 14L17 15L16 15L16 17L17 17L17 16L18 16L18 17L20 17L20 16L21 16L21 18L18 18L18 19L17 19L17 18L15 18L15 17L14 17L14 16L15 16L15 15L14 15L14 16L13 16L13 17L12 17L12 15L13 15L13 14L12 14L12 13L11 13L11 12L10 12L10 13L11 13L11 17L10 17L10 18L9 18L9 19L10 19L10 18L13 18L13 19L12 19L12 21L10 21L10 20L8 20L8 19L6 19L6 20L5 20L5 19L4 19L4 18L3 18L3 17L1 17L1 18L2 18L2 20L3 20L3 21L4 21L4 20L5 20L5 21L6 21L6 22L7 22L7 21L10 21L10 22L9 22L9 23L10 23L10 24L9 24L9 26L10 26L10 24L11 24L11 26L13 26L13 27L12 27L12 29L15 29L15 30L17 30L17 31L14 31L14 32L19 32L19 31L18 31L18 29L19 29L19 30L20 30L20 29L22 29L22 32L26 32L26 30L27 30L27 29L26 29L26 30L25 30L25 29L24 29L24 27L22 27L22 28L21 28L21 27L20 27L20 28L18 28L18 26L19 26L19 24L20 24L20 26L24 26L24 22L25 22L25 24L26 24L26 23L27 23L27 24L29 24L29 23L30 23L30 22L29 22L29 21L30 21L30 20L29 20L29 21L27 21L27 20L28 20L28 19L30 19L30 17L32 17L32 16L30 16L30 15L31 15L31 14L30 14L30 13L31 13L31 12L30 12L30 13L29 13L29 11L30 11L30 10L29 10L29 11L28 11L28 13L27 13L27 14L28 14L28 16L29 16L29 17L28 17L28 19L27 19L27 18L26 18L26 17L27 17L27 15L26 15L26 12L25 12L25 13L24 13L24 12L23 12L23 13L22 13L22 12L21 12L21 11L20 11L20 10ZM14 11L14 12L15 12L15 11ZM1 12L1 13L2 13L2 14L3 14L3 13L2 13L2 12ZM8 12L8 13L9 13L9 12ZM23 13L23 14L22 14L22 15L21 15L21 16L22 16L22 17L23 17L23 18L24 18L24 17L23 17L23 16L22 16L22 15L23 15L23 14L24 14L24 13ZM8 14L8 15L6 15L6 16L7 16L7 17L6 17L6 18L8 18L8 17L9 17L9 16L8 16L8 15L9 15L9 14ZM19 15L19 16L20 16L20 15ZM25 15L25 17L26 17L26 15ZM21 18L21 19L20 19L20 20L22 20L22 21L19 21L19 22L20 22L20 23L21 23L21 24L22 24L22 25L23 25L23 22L22 22L22 21L23 21L23 19L22 19L22 18ZM25 18L25 19L24 19L24 21L25 21L25 22L27 22L27 21L26 21L26 20L25 20L25 19L26 19L26 18ZM14 19L14 20L15 20L15 19ZM16 19L16 20L17 20L17 19ZM18 19L18 20L19 20L19 19ZM6 20L6 21L7 21L7 20ZM12 21L12 22L13 22L13 23L12 23L12 25L13 25L13 24L14 24L14 25L15 25L15 24L16 24L16 25L18 25L18 24L16 24L16 23L18 23L18 21L17 21L17 22L16 22L16 21ZM10 22L10 23L11 23L11 22ZM14 23L14 24L15 24L15 23ZM25 25L25 28L28 28L28 25ZM15 26L15 27L14 27L14 28L15 28L15 29L18 29L18 28L17 28L17 27L16 27L16 26ZM26 26L26 27L27 27L27 26ZM15 27L15 28L16 28L16 27ZM9 28L9 29L10 29L10 28ZM23 29L23 30L24 30L24 31L25 31L25 30L24 30L24 29ZM0 0L0 7L7 7L7 0ZM1 1L1 6L6 6L6 1ZM2 2L2 5L5 5L5 2ZM26 0L26 7L33 7L33 0ZM27 1L27 6L32 6L32 1ZM28 2L28 5L31 5L31 2ZM0 26L0 33L7 33L7 26ZM1 27L1 32L6 32L6 27ZM2 28L2 31L5 31L5 28Z" fill="#282828"/></g></g></svg>
