<?xml version="1.0" encoding="UTF-8"?>
<svg xmlns="http://www.w3.org/2000/svg" version="1.1" width="90" height="90" viewBox="0 0 90 90"><rect x="0" y="0" width="90" height="90" fill="#ffffff"/><g transform="scale(2.903)"><g transform="translate(1,1)"><path fill-rule="evenodd" d="M10 0L10 1L9 1L9 2L8 2L8 3L9 3L9 5L10 5L10 7L11 7L11 8L12 8L12 9L11 9L11 10L10 10L10 9L9 9L9 6L8 6L8 8L4 8L4 9L3 9L3 8L0 8L0 9L3 9L3 10L6 10L6 11L4 11L4 12L3 12L3 11L2 11L2 10L0 10L0 12L1 12L1 13L0 13L0 15L2 15L2 16L0 16L0 17L2 17L2 18L3 18L3 19L1 19L1 18L0 18L0 19L1 19L1 20L0 20L0 21L1 21L1 20L2 20L2 21L3 21L3 19L5 19L5 20L4 20L4 21L5 21L5 20L6 20L6 21L7 21L7 20L9 20L9 21L8 21L8 25L9 25L9 23L10 23L10 22L9 22L9 21L11 21L11 22L12 22L12 20L14 20L14 22L13 22L13 23L14 23L14 22L15 22L15 18L18 18L18 19L17 19L17 20L18 20L18 19L19 19L19 22L20 22L20 25L19 25L19 26L20 26L20 27L18 27L18 26L17 26L17 25L18 25L18 23L17 23L17 24L16 24L16 23L15 23L15 25L16 25L16 27L17 27L17 29L18 29L18 28L19 28L19 29L23 29L23 27L24 27L24 29L29 29L29 28L28 28L28 27L29 27L29 24L26 24L26 25L27 25L27 26L22 26L22 27L21 27L21 25L25 25L25 22L26 22L26 23L27 23L27 22L26 22L26 21L25 21L25 20L26 20L26 19L27 19L27 18L25 18L25 20L24 20L24 18L22 18L22 17L23 17L23 16L24 16L24 17L25 17L25 16L24 16L24 15L27 15L27 17L28 17L28 23L29 23L29 14L27 14L27 13L28 13L28 12L29 12L29 10L28 10L28 9L27 9L27 8L26 8L26 10L22 10L22 9L23 9L23 8L21 8L21 5L20 5L20 4L21 4L21 2L20 2L20 0L18 0L18 1L17 1L17 0L15 0L15 1L14 1L14 3L12 3L12 2L11 2L11 3L12 3L12 5L10 5L10 3L9 3L9 2L10 2L10 1L11 1L11 0ZM18 1L18 2L17 2L17 4L18 4L18 3L19 3L19 4L20 4L20 3L19 3L19 1ZM14 3L14 4L15 4L15 3ZM13 5L13 7L12 7L12 6L11 6L11 7L12 7L12 8L13 8L13 9L14 9L14 10L13 10L13 11L14 11L14 10L15 10L15 11L16 11L16 12L15 12L15 14L14 14L14 12L12 12L12 11L11 11L11 12L12 12L12 14L11 14L11 15L10 15L10 12L9 12L9 11L10 11L10 10L9 10L9 9L6 9L6 10L9 10L9 11L6 11L6 12L4 12L4 13L3 13L3 14L2 14L2 13L1 13L1 14L2 14L2 15L3 15L3 14L5 14L5 15L6 15L6 16L4 16L4 17L3 17L3 16L2 16L2 17L3 17L3 18L5 18L5 19L6 19L6 20L7 20L7 19L8 19L8 17L6 17L6 16L11 16L11 17L12 17L12 16L13 16L13 17L14 17L14 18L13 18L13 19L14 19L14 18L15 18L15 16L16 16L16 17L17 17L17 16L16 16L16 15L20 15L20 16L19 16L19 17L18 17L18 18L19 18L19 19L20 19L20 20L21 20L21 19L22 19L22 18L21 18L21 17L20 17L20 16L21 16L21 15L22 15L22 16L23 16L23 15L22 15L22 14L21 14L21 15L20 15L20 14L19 14L19 13L22 13L22 12L23 12L23 14L26 14L26 13L27 13L27 12L28 12L28 11L25 11L25 13L24 13L24 11L22 11L22 10L20 10L20 9L21 9L21 8L19 8L19 7L20 7L20 6L19 6L19 7L18 7L18 5L17 5L17 7L16 7L16 6L15 6L15 7L14 7L14 5ZM15 7L15 8L16 8L16 11L17 11L17 13L16 13L16 14L18 14L18 10L17 10L17 9L18 9L18 7L17 7L17 8L16 8L16 7ZM6 12L6 13L7 13L7 12ZM8 12L8 15L9 15L9 12ZM6 14L6 15L7 15L7 14ZM13 14L13 15L14 15L14 14ZM11 15L11 16L12 16L12 15ZM9 17L9 18L10 18L10 19L9 19L9 20L10 20L10 19L11 19L11 20L12 20L12 19L11 19L11 18L10 18L10 17ZM6 18L6 19L7 19L7 18ZM16 21L16 22L18 22L18 21ZM21 21L21 24L24 24L24 21ZM22 22L22 23L23 23L23 22ZM11 23L11 24L12 24L12 25L10 25L10 26L8 26L8 29L12 29L12 28L14 28L14 29L15 29L15 26L14 26L14 25L13 25L13 24L12 24L12 23ZM13 26L13 27L14 27L14 26ZM27 26L27 27L25 27L25 28L27 28L27 27L28 27L28 26ZM10 27L10 28L12 28L12 27ZM20 27L20 28L21 28L21 27ZM0 0L0 7L7 7L7 0ZM1 1L1 6L6 6L6 1ZM2 2L2 5L5 5L5 2ZM22 0L22 7L29 7L29 0ZM23 1L23 6L28 6L28 1ZM24 2L24 5L27 5L27 2ZM0 22L0 29L7 29L7 22ZM1 23L1 28L6 28L6 23ZM2 24L2 27L5 27L5 24Z" fill="#282828"/></g></g></svg>
