<?xml version="1.0" encoding="UTF-8"?>
<svg xmlns="http://www.w3.org/2000/svg" version="1.1" width="90" height="90" viewBox="0 0 90 90"><rect x="0" y="0" width="90" height="90" fill="#ffffff"/><g transform="scale(2.903)"><g transform="translate(1,1)"><path fill-rule="evenodd" d="M8 0L8 4L9 4L9 5L8 5L8 7L9 7L9 6L10 6L10 9L11 9L11 8L12 8L12 9L13 9L13 10L15 10L15 11L14 11L14 12L13 12L13 11L12 11L12 12L11 12L11 13L10 13L10 14L8 14L8 15L9 15L9 17L10 17L10 18L6 18L6 17L8 17L8 16L6 16L6 15L7 15L7 14L6 14L6 13L7 13L7 12L6 12L6 11L7 11L7 10L5 10L5 9L7 9L7 8L4 8L4 9L2 9L2 8L0 8L0 11L1 11L1 10L5 10L5 12L6 12L6 13L5 13L5 16L6 16L6 17L5 17L5 18L4 18L4 15L3 15L3 14L2 14L2 13L4 13L4 12L3 12L3 11L2 11L2 13L1 13L1 14L0 14L0 15L2 15L2 16L0 16L0 18L1 18L1 17L2 17L2 16L3 16L3 18L2 18L2 19L3 19L3 18L4 18L4 19L5 19L5 20L0 20L0 21L7 21L7 20L8 20L8 22L9 22L9 23L8 23L8 25L9 25L9 27L8 27L8 29L12 29L12 28L13 28L13 29L16 29L16 28L18 28L18 27L16 27L16 26L17 26L17 25L16 25L16 26L15 26L15 25L14 25L14 23L16 23L16 24L18 24L18 22L19 22L19 25L18 25L18 26L19 26L19 27L20 27L20 29L21 29L21 27L22 27L22 28L23 28L23 29L25 29L25 28L26 28L26 27L27 27L27 29L28 29L28 28L29 28L29 25L28 25L28 24L29 24L29 21L26 21L26 20L25 20L25 19L26 19L26 18L27 18L27 19L29 19L29 17L28 17L28 15L29 15L29 14L28 14L28 13L29 13L29 12L27 12L27 14L28 14L28 15L27 15L27 17L26 17L26 14L25 14L25 13L26 13L26 10L25 10L25 9L29 9L29 8L25 8L25 9L24 9L24 8L23 8L23 9L22 9L22 10L23 10L23 11L24 11L24 12L25 12L25 13L22 13L22 11L21 11L21 8L19 8L19 6L20 6L20 7L21 7L21 5L20 5L20 4L19 4L19 2L20 2L20 3L21 3L21 2L20 2L20 0L19 0L19 1L16 1L16 0L15 0L15 1L16 1L16 3L15 3L15 4L14 4L14 5L16 5L16 7L15 7L15 6L14 6L14 7L13 7L13 6L12 6L12 7L11 7L11 3L10 3L10 2L9 2L9 0ZM13 0L13 1L11 1L11 2L12 2L12 5L13 5L13 1L14 1L14 0ZM16 3L16 5L19 5L19 4L17 4L17 3ZM17 6L17 7L18 7L18 6ZM12 7L12 8L13 8L13 7ZM14 7L14 9L17 9L17 10L18 10L18 11L20 11L20 13L19 13L19 12L17 12L17 13L19 13L19 16L17 16L17 14L16 14L16 15L14 15L14 17L15 17L15 18L13 18L13 17L12 17L12 16L13 16L13 15L12 15L12 16L11 16L11 14L12 14L12 13L13 13L13 14L15 14L15 13L16 13L16 12L15 12L15 13L13 13L13 12L12 12L12 13L11 13L11 14L10 14L10 17L11 17L11 18L10 18L10 20L9 20L9 22L10 22L10 24L9 24L9 25L10 25L10 26L11 26L11 27L10 27L10 28L12 28L12 27L13 27L13 28L14 28L14 27L15 27L15 26L13 26L13 25L12 25L12 24L13 24L13 23L12 23L12 24L11 24L11 22L12 22L12 21L13 21L13 22L16 22L16 21L17 21L17 22L18 22L18 21L17 21L17 20L16 20L16 21L13 21L13 20L14 20L14 19L15 19L15 18L16 18L16 19L17 19L17 18L18 18L18 19L20 19L20 20L21 20L21 18L22 18L22 17L25 17L25 18L26 18L26 17L25 17L25 14L23 14L23 15L24 15L24 16L22 16L22 13L21 13L21 11L20 11L20 9L19 9L19 8L15 8L15 7ZM18 9L18 10L19 10L19 9ZM8 10L8 11L9 11L9 12L10 12L10 11L11 11L11 10ZM28 10L28 11L29 11L29 10ZM20 14L20 15L21 15L21 14ZM15 16L15 17L16 17L16 18L17 18L17 16ZM20 16L20 17L21 17L21 16ZM18 17L18 18L19 18L19 17ZM6 19L6 20L7 20L7 19ZM12 19L12 20L10 20L10 22L11 22L11 21L12 21L12 20L13 20L13 19ZM19 21L19 22L20 22L20 21ZM21 21L21 24L24 24L24 21ZM22 22L22 23L23 23L23 22ZM25 22L25 23L26 23L26 24L25 24L25 25L24 25L24 26L23 26L23 25L22 25L22 26L23 26L23 28L25 28L25 25L26 25L26 24L28 24L28 23L27 23L27 22ZM19 25L19 26L21 26L21 25ZM27 25L27 26L28 26L28 25ZM0 0L0 7L7 7L7 0ZM1 1L1 6L6 6L6 1ZM2 2L2 5L5 5L5 2ZM22 0L22 7L29 7L29 0ZM23 1L23 6L28 6L28 1ZM24 2L24 5L27 5L27 2ZM0 22L0 29L7 29L7 22ZM1 23L1 28L6 28L6 23ZM2 24L2 27L5 27L5 24Z" fill="#282828"/></g></g></svg>
