<?xml version="1.0" encoding="UTF-8"?>
<svg xmlns="http://www.w3.org/2000/svg" version="1.1" width="90" height="90" viewBox="0 0 90 90"><rect x="0" y="0" width="90" height="90" fill="#ffffff"/><g transform="scale(3.333)"><g transform="translate(1,1)"><path fill-rule="evenodd" d="M10 0L10 1L8 1L8 3L9 3L9 4L8 4L8 8L6 8L6 9L7 9L7 10L6 10L6 11L8 11L8 10L10 10L10 9L8 9L8 8L9 8L9 5L10 5L10 8L11 8L11 9L12 9L12 7L13 7L13 6L14 6L14 7L15 7L15 8L13 8L13 10L14 10L14 11L9 11L9 12L8 12L8 13L7 13L7 12L5 12L5 13L7 13L7 14L6 14L6 15L5 15L5 14L4 14L4 12L3 12L3 14L2 14L2 15L1 15L1 14L0 14L0 15L1 15L1 16L0 16L0 17L8 17L8 19L9 19L9 18L10 18L10 19L11 19L11 20L10 20L10 21L8 21L8 22L9 22L9 23L8 23L8 25L9 25L9 23L10 23L10 25L11 25L11 21L12 21L12 23L13 23L13 25L14 25L14 23L13 23L13 20L12 20L12 19L11 19L11 18L12 18L12 17L11 17L11 16L10 16L10 17L9 17L9 15L8 15L8 14L9 14L9 12L10 12L10 13L11 13L11 12L13 12L13 13L14 13L14 12L15 12L15 13L16 13L16 11L17 11L17 13L18 13L18 15L20 15L20 14L19 14L19 12L21 12L21 13L24 13L24 14L23 14L23 15L24 15L24 17L22 17L22 18L21 18L21 16L17 16L17 15L15 15L15 14L14 14L14 15L13 15L13 16L16 16L16 17L15 17L15 18L14 18L14 22L17 22L17 21L19 21L19 22L20 22L20 23L19 23L19 24L18 24L18 23L16 23L16 24L15 24L15 25L17 25L17 24L18 24L18 25L20 25L20 24L21 24L21 19L22 19L22 20L24 20L24 19L25 19L25 9L24 9L24 8L22 8L22 9L21 9L21 8L18 8L18 9L17 9L17 6L16 6L16 5L17 5L17 4L16 4L16 3L17 3L17 2L16 2L16 0L15 0L15 1L14 1L14 4L12 4L12 5L13 5L13 6L12 6L12 7L11 7L11 4L10 4L10 3L9 3L9 2L11 2L11 0ZM15 2L15 3L16 3L16 2ZM15 4L15 5L14 5L14 6L15 6L15 7L16 7L16 6L15 6L15 5L16 5L16 4ZM0 8L0 10L1 10L1 12L0 12L0 13L2 13L2 11L5 11L5 10L4 10L4 8L3 8L3 10L1 10L1 9L2 9L2 8ZM15 8L15 11L16 11L16 10L17 10L17 11L18 11L18 12L19 12L19 11L18 11L18 10L21 10L21 12L23 12L23 11L24 11L24 9L22 9L22 10L21 10L21 9L18 9L18 10L17 10L17 9L16 9L16 8ZM10 14L10 15L12 15L12 14ZM21 14L21 15L22 15L22 14ZM3 15L3 16L4 16L4 15ZM6 15L6 16L7 16L7 15ZM10 17L10 18L11 18L11 17ZM17 17L17 20L20 20L20 17ZM18 18L18 19L19 19L19 18ZM23 18L23 19L24 19L24 18ZM15 19L15 21L16 21L16 19ZM22 21L22 22L23 22L23 21ZM24 22L24 23L25 23L25 22ZM23 24L23 25L25 25L25 24ZM0 0L0 7L7 7L7 0ZM1 1L1 6L6 6L6 1ZM2 2L2 5L5 5L5 2ZM18 0L18 7L25 7L25 0ZM19 1L19 6L24 6L24 1ZM20 2L20 5L23 5L23 2ZM0 18L0 25L7 25L7 18ZM1 19L1 24L6 24L6 19ZM2 20L2 23L5 23L5 20Z" fill="#282828"/></g></g></svg>
