<?xml version="1.0" encoding="UTF-8"?>
<svg xmlns="http://www.w3.org/2000/svg" version="1.1" width="90" height="90" viewBox="0 0 90 90"><rect x="0" y="0" width="90" height="90" fill="#ffffff"/><g transform="scale(3.333)"><g transform="translate(1,1)"><path fill-rule="evenodd" d="M9 0L9 1L8 1L8 2L9 2L9 3L8 3L8 4L10 4L10 7L11 7L11 8L6 8L6 9L5 9L5 8L0 8L0 10L2 10L2 11L0 11L0 17L1 17L1 14L2 14L2 17L3 17L3 16L4 16L4 17L5 17L5 16L4 16L4 15L3 15L3 14L2 14L2 13L1 13L1 12L3 12L3 13L4 13L4 14L6 14L6 15L7 15L7 16L6 16L6 17L7 17L7 16L8 16L8 19L9 19L9 20L8 20L8 25L11 25L11 23L9 23L9 20L10 20L10 22L12 22L12 24L13 24L13 25L15 25L15 24L18 24L18 25L19 25L19 24L18 24L18 23L17 23L17 22L19 22L19 23L20 23L20 22L19 22L19 21L22 21L22 22L21 22L21 25L25 25L25 21L24 21L24 20L25 20L25 18L24 18L24 17L25 17L25 16L24 16L24 15L25 15L25 14L24 14L24 13L25 13L25 12L24 12L24 11L25 11L25 10L24 10L24 8L23 8L23 10L22 10L22 8L21 8L21 10L20 10L20 8L19 8L19 11L18 11L18 12L17 12L17 13L19 13L19 15L17 15L17 14L14 14L14 13L16 13L16 10L17 10L17 9L18 9L18 8L17 8L17 9L16 9L16 7L17 7L17 4L16 4L16 3L12 3L12 2L13 2L13 1L14 1L14 0L13 0L13 1L11 1L11 2L10 2L10 0ZM16 0L16 1L15 1L15 2L17 2L17 0ZM10 3L10 4L11 4L11 7L12 7L12 4L11 4L11 3ZM14 4L14 5L13 5L13 8L11 8L11 9L10 9L10 11L12 11L12 12L10 12L10 13L9 13L9 12L8 12L8 13L9 13L9 14L10 14L10 15L9 15L9 16L11 16L11 17L13 17L13 18L11 18L11 19L10 19L10 18L9 18L9 19L10 19L10 20L11 20L11 21L12 21L12 22L13 22L13 21L14 21L14 18L15 18L15 20L16 20L16 18L15 18L15 17L13 17L13 16L15 16L15 15L14 15L14 14L10 14L10 13L13 13L13 12L15 12L15 11L14 11L14 10L15 10L15 9L14 9L14 10L11 10L11 9L13 9L13 8L14 8L14 6L15 6L15 7L16 7L16 6L15 6L15 5L16 5L16 4ZM8 5L8 7L9 7L9 5ZM4 9L4 13L6 13L6 14L7 14L7 13L6 13L6 12L7 12L7 11L8 11L8 10L9 10L9 9L8 9L8 10L7 10L7 9L6 9L6 10L7 10L7 11L6 11L6 12L5 12L5 9ZM23 10L23 11L19 11L19 13L20 13L20 15L19 15L19 16L22 16L22 17L21 17L21 19L22 19L22 20L24 20L24 18L22 18L22 17L24 17L24 16L23 16L23 15L24 15L24 14L23 14L23 15L22 15L22 13L23 13L23 11L24 11L24 10ZM20 12L20 13L21 13L21 12ZM11 15L11 16L13 16L13 15ZM17 17L17 20L20 20L20 17ZM18 18L18 19L19 19L19 18ZM12 19L12 21L13 21L13 19ZM16 21L16 22L15 22L15 23L16 23L16 22L17 22L17 21ZM23 22L23 23L22 23L22 24L24 24L24 22ZM13 23L13 24L14 24L14 23ZM0 0L0 7L7 7L7 0ZM1 1L1 6L6 6L6 1ZM2 2L2 5L5 5L5 2ZM18 0L18 7L25 7L25 0ZM19 1L19 6L24 6L24 1ZM20 2L20 5L23 5L23 2ZM0 18L0 25L7 25L7 18ZM1 19L1 24L6 24L6 19ZM2 20L2 23L5 23L5 20Z" fill="#282828"/></g></g></svg>
