<?xml version="1.0" encoding="UTF-8"?>
<svg xmlns="http://www.w3.org/2000/svg" version="1.1" width="90" height="90" viewBox="0 0 90 90"><rect x="0" y="0" width="90" height="90" fill="#ffffff"/><g transform="scale(2.903)"><g transform="translate(1,1)"><path fill-rule="evenodd" d="M10 0L10 2L11 2L11 0ZM12 0L12 1L13 1L13 2L12 2L12 4L13 4L13 3L14 3L14 4L15 4L15 5L17 5L17 4L18 4L18 8L20 8L20 7L21 7L21 4L20 4L20 7L19 7L19 3L20 3L20 2L21 2L21 0L20 0L20 2L19 2L19 3L17 3L17 4L16 4L16 2L18 2L18 1L19 1L19 0L17 0L17 1L16 1L16 0ZM8 1L8 2L9 2L9 1ZM14 2L14 3L15 3L15 2ZM8 3L8 4L9 4L9 5L8 5L8 7L9 7L9 8L6 8L6 9L7 9L7 10L5 10L5 8L0 8L0 11L1 11L1 12L0 12L0 14L1 14L1 15L2 15L2 17L7 17L7 18L3 18L3 19L4 19L4 20L3 20L3 21L5 21L5 19L7 19L7 18L9 18L9 20L6 20L6 21L8 21L8 23L9 23L9 24L8 24L8 29L9 29L9 28L11 28L11 27L9 27L9 26L10 26L10 25L9 25L9 24L10 24L10 23L11 23L11 25L12 25L12 26L13 26L13 27L12 27L12 29L13 29L13 28L14 28L14 29L18 29L18 28L16 28L16 26L17 26L17 27L18 27L18 25L16 25L16 23L18 23L18 22L19 22L19 23L20 23L20 25L19 25L19 27L22 27L22 28L21 28L21 29L23 29L23 28L26 28L26 27L27 27L27 28L28 28L28 26L29 26L29 25L28 25L28 24L29 24L29 23L28 23L28 22L29 22L29 21L28 21L28 20L29 20L29 19L28 19L28 18L29 18L29 17L28 17L28 18L26 18L26 19L28 19L28 20L26 20L26 21L28 21L28 22L27 22L27 26L26 26L26 27L25 27L25 25L26 25L26 23L25 23L25 19L24 19L24 18L25 18L25 17L27 17L27 16L26 16L26 15L24 15L24 14L26 14L26 13L25 13L25 12L26 12L26 11L27 11L27 9L28 9L28 8L27 8L27 9L26 9L26 8L25 8L25 9L24 9L24 8L23 8L23 9L22 9L22 8L21 8L21 9L20 9L20 11L21 11L21 12L22 12L22 10L23 10L23 12L24 12L24 13L23 13L23 15L22 15L22 14L21 14L21 13L20 13L20 12L19 12L19 10L16 10L16 9L12 9L12 7L13 7L13 5L11 5L11 6L10 6L10 4L11 4L11 3ZM9 6L9 7L10 7L10 6ZM11 6L11 7L12 7L12 6ZM14 6L14 8L15 8L15 6ZM16 6L16 8L17 8L17 6ZM10 8L10 9L9 9L9 12L11 12L11 13L10 13L10 14L13 14L13 15L12 15L12 17L9 17L9 16L11 16L11 15L9 15L9 16L8 16L8 15L6 15L6 14L7 14L7 13L6 13L6 12L7 12L7 11L8 11L8 10L7 10L7 11L6 11L6 12L5 12L5 10L4 10L4 12L3 12L3 13L2 13L2 12L1 12L1 13L2 13L2 14L3 14L3 13L4 13L4 12L5 12L5 15L4 15L4 16L7 16L7 17L9 17L9 18L11 18L11 20L10 20L10 21L9 21L9 23L10 23L10 21L11 21L11 22L13 22L13 23L12 23L12 25L15 25L15 26L16 26L16 25L15 25L15 24L14 24L14 23L15 23L15 22L17 22L17 21L19 21L19 22L20 22L20 20L24 20L24 19L21 19L21 18L23 18L23 17L24 17L24 15L23 15L23 16L21 16L21 14L20 14L20 13L19 13L19 12L18 12L18 11L14 11L14 12L13 12L13 13L12 13L12 11L13 11L13 10L12 10L12 9L11 9L11 8ZM1 9L1 10L2 10L2 11L3 11L3 9ZM10 9L10 11L11 11L11 9ZM23 9L23 10L24 10L24 12L25 12L25 10L24 10L24 9ZM28 11L28 12L27 12L27 13L28 13L28 14L27 14L27 15L28 15L28 16L29 16L29 15L28 15L28 14L29 14L29 13L28 13L28 12L29 12L29 11ZM14 12L14 13L17 13L17 14L15 14L15 15L14 15L14 16L15 16L15 17L12 17L12 18L13 18L13 19L12 19L12 21L13 21L13 20L14 20L14 21L17 21L17 20L14 20L14 19L18 19L18 20L19 20L19 19L18 19L18 18L19 18L19 17L17 17L17 14L18 14L18 15L19 15L19 16L20 16L20 18L21 18L21 16L20 16L20 15L19 15L19 14L18 14L18 13L17 13L17 12ZM15 15L15 16L16 16L16 15ZM0 16L0 21L1 21L1 16ZM15 17L15 18L17 18L17 17ZM21 21L21 24L24 24L24 21ZM22 22L22 23L23 23L23 22ZM21 25L21 26L22 26L22 27L23 27L23 26L24 26L24 25ZM14 27L14 28L15 28L15 27ZM19 28L19 29L20 29L20 28ZM0 0L0 7L7 7L7 0ZM1 1L1 6L6 6L6 1ZM2 2L2 5L5 5L5 2ZM22 0L22 7L29 7L29 0ZM23 1L23 6L28 6L28 1ZM24 2L24 5L27 5L27 2ZM0 22L0 29L7 29L7 22ZM1 23L1 28L6 28L6 23ZM2 24L2 27L5 27L5 24Z" fill="#282828"/></g></g></svg>
