<?xml version="1.0" encoding="UTF-8"?>
<svg xmlns="http://www.w3.org/2000/svg" version="1.1" width="90" height="90" viewBox="0 0 90 90"><rect x="0" y="0" width="90" height="90" fill="#ffffff"/><g transform="scale(3.333)"><g transform="translate(1,1)"><path fill-rule="evenodd" d="M9 0L9 1L8 1L8 2L9 2L9 3L8 3L8 4L9 4L9 5L8 5L8 7L9 7L9 8L6 8L6 9L5 9L5 8L0 8L0 11L1 11L1 12L0 12L0 17L1 17L1 14L2 14L2 15L4 15L4 14L2 14L2 11L1 11L1 10L3 10L3 11L4 11L4 10L6 10L6 11L5 11L5 12L3 12L3 13L5 13L5 14L6 14L6 15L7 15L7 14L8 14L8 15L9 15L9 16L10 16L10 17L8 17L8 19L9 19L9 20L8 20L8 25L18 25L18 24L19 24L19 23L20 23L20 22L18 22L18 21L21 21L21 25L25 25L25 22L24 22L24 24L22 24L22 23L23 23L23 22L22 22L22 21L23 21L23 20L22 20L22 21L21 21L21 19L22 19L22 18L21 18L21 17L22 17L22 16L20 16L20 15L21 15L21 14L20 14L20 13L21 13L21 12L19 12L19 10L20 10L20 11L22 11L22 10L20 10L20 8L19 8L19 10L18 10L18 11L17 11L17 9L18 9L18 8L13 8L13 6L14 6L14 7L15 7L15 6L16 6L16 7L17 7L17 5L15 5L15 4L16 4L16 1L17 1L17 0L15 0L15 1L13 1L13 0ZM9 1L9 2L11 2L11 3L9 3L9 4L12 4L12 5L11 5L11 8L9 8L9 9L8 9L8 10L7 10L7 9L6 9L6 10L7 10L7 11L6 11L6 12L5 12L5 13L6 13L6 14L7 14L7 13L8 13L8 11L9 11L9 9L12 9L12 10L11 10L11 11L10 11L10 13L9 13L9 15L10 15L10 16L11 16L11 17L12 17L12 18L11 18L11 19L10 19L10 20L12 20L12 19L13 19L13 18L14 18L14 19L15 19L15 20L14 20L14 21L12 21L12 22L11 22L11 21L10 21L10 24L11 24L11 23L12 23L12 24L14 24L14 23L13 23L13 22L15 22L15 23L17 23L17 24L18 24L18 22L16 22L16 21L15 21L15 20L16 20L16 18L15 18L15 17L16 17L16 15L14 15L14 16L11 16L11 15L13 15L13 12L14 12L14 11L15 11L15 10L16 10L16 9L13 9L13 8L12 8L12 5L14 5L14 6L15 6L15 5L14 5L14 4L12 4L12 2L13 2L13 3L15 3L15 2L13 2L13 1ZM9 5L9 7L10 7L10 5ZM21 8L21 9L22 9L22 8ZM23 8L23 10L24 10L24 11L23 11L23 13L22 13L22 15L23 15L23 16L24 16L24 17L23 17L23 18L24 18L24 21L25 21L25 18L24 18L24 17L25 17L25 16L24 16L24 15L25 15L25 14L24 14L24 13L25 13L25 12L24 12L24 11L25 11L25 10L24 10L24 8ZM11 11L11 13L12 13L12 11ZM16 11L16 12L15 12L15 13L14 13L14 14L16 14L16 13L17 13L17 14L18 14L18 15L17 15L17 16L19 16L19 15L20 15L20 14L19 14L19 13L17 13L17 11ZM6 12L6 13L7 13L7 12ZM23 14L23 15L24 15L24 14ZM3 16L3 17L5 17L5 16ZM6 16L6 17L7 17L7 16ZM14 16L14 17L15 17L15 16ZM17 17L17 20L20 20L20 17ZM18 18L18 19L19 19L19 18ZM0 0L0 7L7 7L7 0ZM1 1L1 6L6 6L6 1ZM2 2L2 5L5 5L5 2ZM18 0L18 7L25 7L25 0ZM19 1L19 6L24 6L24 1ZM20 2L20 5L23 5L23 2ZM0 18L0 25L7 25L7 18ZM1 19L1 24L6 24L6 19ZM2 20L2 23L5 23L5 20Z" fill="#282828"/></g></g></svg>
