<?xml version="1.0" encoding="UTF-8"?>
<svg xmlns="http://www.w3.org/2000/svg" version="1.1" width="90" height="90" viewBox="0 0 90 90"><rect x="0" y="0" width="90" height="90" fill="#ffffff"/><g transform="scale(2.903)"><g transform="translate(1,1)"><path fill-rule="evenodd" d="M9 0L9 1L8 1L8 2L9 2L9 3L8 3L8 4L10 4L10 7L11 7L11 4L12 4L12 5L13 5L13 6L12 6L12 9L14 9L14 12L15 12L15 11L16 11L16 13L15 13L15 14L14 14L14 13L12 13L12 11L13 11L13 10L11 10L11 11L10 11L10 9L11 9L11 8L6 8L6 9L5 9L5 8L0 8L0 14L1 14L1 9L2 9L2 12L3 12L3 13L2 13L2 15L0 15L0 16L1 16L1 17L0 17L0 21L1 21L1 18L3 18L3 19L2 19L2 20L3 20L3 21L5 21L5 20L6 20L6 21L8 21L8 23L9 23L9 21L8 21L8 20L6 20L6 19L7 19L7 18L6 18L6 19L5 19L5 18L3 18L3 17L4 17L4 16L5 16L5 17L8 17L8 16L5 16L5 15L8 15L8 14L11 14L11 13L12 13L12 14L13 14L13 15L12 15L12 17L13 17L13 16L14 16L14 17L15 17L15 16L17 16L17 17L16 17L16 18L15 18L15 19L14 19L14 20L15 20L15 21L12 21L12 19L13 19L13 18L11 18L11 19L10 19L10 17L11 17L11 16L9 16L9 18L8 18L8 19L9 19L9 20L10 20L10 21L12 21L12 22L13 22L13 23L12 23L12 25L13 25L13 24L14 24L14 25L15 25L15 24L16 24L16 22L17 22L17 21L18 21L18 23L19 23L19 24L20 24L20 25L25 25L25 26L19 26L19 27L18 27L18 28L17 28L17 29L18 29L18 28L19 28L19 29L20 29L20 28L21 28L21 29L24 29L24 28L26 28L26 29L27 29L27 28L28 28L28 26L29 26L29 25L27 25L27 28L26 28L26 25L25 25L25 24L26 24L26 23L25 23L25 20L24 20L24 19L25 19L25 17L27 17L27 16L26 16L26 15L25 15L25 14L26 14L26 13L18 13L18 12L19 12L19 11L18 11L18 12L17 12L17 9L18 9L18 8L16 8L16 7L17 7L17 6L16 6L16 5L17 5L17 4L18 4L18 3L17 3L17 4L16 4L16 2L17 2L17 1L15 1L15 0L14 0L14 1L11 1L11 2L10 2L10 0ZM18 0L18 1L20 1L20 2L19 2L19 5L21 5L21 4L20 4L20 2L21 2L21 0ZM14 1L14 2L12 2L12 4L13 4L13 5L14 5L14 4L15 4L15 5L16 5L16 4L15 4L15 3L14 3L14 2L15 2L15 1ZM10 3L10 4L11 4L11 3ZM13 3L13 4L14 4L14 3ZM8 5L8 7L9 7L9 5ZM13 6L13 8L14 8L14 9L15 9L15 10L16 10L16 9L15 9L15 8L14 8L14 6ZM15 6L15 7L16 7L16 6ZM18 6L18 7L19 7L19 6ZM20 6L20 7L21 7L21 6ZM21 8L21 10L20 10L20 9L19 9L19 10L20 10L20 12L21 12L21 11L23 11L23 12L24 12L24 11L25 11L25 12L26 12L26 11L27 11L27 9L28 9L28 8L27 8L27 9L26 9L26 8L25 8L25 9L24 9L24 8L23 8L23 9L22 9L22 8ZM4 9L4 10L3 10L3 12L5 12L5 9ZM6 9L6 10L7 10L7 9ZM8 10L8 11L6 11L6 12L9 12L9 10ZM23 10L23 11L24 11L24 10ZM10 12L10 13L11 13L11 12ZM4 13L4 15L5 15L5 14L7 14L7 13ZM17 13L17 14L18 14L18 13ZM28 13L28 14L27 14L27 15L28 15L28 16L29 16L29 15L28 15L28 14L29 14L29 13ZM19 14L19 15L17 15L17 16L18 16L18 17L20 17L20 16L22 16L22 17L25 17L25 15L23 15L23 14ZM14 15L14 16L15 16L15 15ZM19 15L19 16L20 16L20 15ZM2 16L2 17L3 17L3 16ZM28 17L28 18L26 18L26 19L28 19L28 20L26 20L26 21L28 21L28 22L27 22L27 23L28 23L28 24L29 24L29 23L28 23L28 22L29 22L29 21L28 21L28 20L29 20L29 19L28 19L28 18L29 18L29 17ZM17 18L17 19L16 19L16 21L15 21L15 22L16 22L16 21L17 21L17 20L18 20L18 21L19 21L19 22L20 22L20 21L19 21L19 20L18 20L18 18ZM19 18L19 19L20 19L20 18ZM22 18L22 20L23 20L23 18ZM21 21L21 24L24 24L24 21ZM22 22L22 23L23 23L23 22ZM10 23L10 24L11 24L11 23ZM14 23L14 24L15 24L15 23ZM8 24L8 29L12 29L12 27L13 27L13 26L10 26L10 25L9 25L9 24ZM17 24L17 25L16 25L16 26L15 26L15 27L14 27L14 28L15 28L15 29L16 29L16 28L15 28L15 27L17 27L17 25L18 25L18 24ZM9 27L9 28L11 28L11 27ZM19 27L19 28L20 28L20 27ZM21 27L21 28L23 28L23 27ZM0 0L0 7L7 7L7 0ZM1 1L1 6L6 6L6 1ZM2 2L2 5L5 5L5 2ZM22 0L22 7L29 7L29 0ZM23 1L23 6L28 6L28 1ZM24 2L24 5L27 5L27 2ZM0 22L0 29L7 29L7 22ZM1 23L1 28L6 28L6 23ZM2 24L2 27L5 27L5 24Z" fill="#282828"/></g></g></svg>
