<?xml version="1.0" encoding="UTF-8"?>
<svg xmlns="http://www.w3.org/2000/svg" version="1.1" width="90" height="90" viewBox="0 0 90 90"><rect x="0" y="0" width="90" height="90" fill="#ffffff"/><g transform="scale(2.903)"><g transform="translate(1,1)"><path fill-rule="evenodd" d="M9 0L9 1L10 1L10 2L8 2L8 3L9 3L9 4L10 4L10 5L9 5L9 6L8 6L8 8L4 8L4 9L3 9L3 8L0 8L0 9L3 9L3 10L2 10L2 11L3 11L3 12L2 12L2 14L1 14L1 18L0 18L0 19L1 19L1 20L0 20L0 21L1 21L1 20L2 20L2 21L4 21L4 20L6 20L6 21L7 21L7 20L6 20L6 19L8 19L8 20L9 20L9 19L10 19L10 17L11 17L11 18L12 18L12 16L14 16L14 18L13 18L13 19L14 19L14 18L15 18L15 14L14 14L14 13L13 13L13 12L12 12L12 11L11 11L11 12L12 12L12 13L11 13L11 14L9 14L9 13L8 13L8 12L9 12L9 11L10 11L10 10L12 10L12 8L14 8L14 10L13 10L13 11L14 11L14 10L16 10L16 12L17 12L17 13L18 13L18 12L19 12L19 13L20 13L20 14L21 14L21 17L20 17L20 18L22 18L22 19L23 19L23 17L24 17L24 16L25 16L25 18L26 18L26 16L25 16L25 14L21 14L21 13L24 13L24 12L22 12L22 11L26 11L26 10L27 10L27 12L26 12L26 13L28 13L28 16L27 16L27 17L28 17L28 23L27 23L27 22L26 22L26 21L25 21L25 20L26 20L26 19L24 19L24 20L20 20L20 19L19 19L19 17L18 17L18 14L17 14L17 15L16 15L16 16L17 16L17 17L18 17L18 19L17 19L17 22L19 22L19 23L17 23L17 24L16 24L16 23L15 23L15 22L14 22L14 21L13 21L13 20L12 20L12 19L11 19L11 20L12 20L12 21L8 21L8 25L10 25L10 26L8 26L8 29L11 29L11 28L12 28L12 29L13 29L13 28L12 28L12 27L11 27L11 26L12 26L12 24L14 24L14 26L13 26L13 27L14 27L14 26L15 26L15 24L16 24L16 27L15 27L15 28L16 28L16 27L17 27L17 29L18 29L18 28L19 28L19 29L21 29L21 28L22 28L22 26L21 26L21 27L20 27L20 25L23 25L23 27L27 27L27 29L29 29L29 28L28 28L28 27L29 27L29 10L27 10L27 8L26 8L26 10L24 10L24 9L23 9L23 8L20 8L20 7L21 7L21 4L20 4L20 3L21 3L21 2L20 2L20 1L19 1L19 0L16 0L16 1L14 1L14 0L12 0L12 1L10 1L10 0ZM13 1L13 2L14 2L14 1ZM17 1L17 3L16 3L16 2L15 2L15 3L16 3L16 4L15 4L15 5L14 5L14 4L13 4L13 3L12 3L12 2L11 2L11 3L12 3L12 4L11 4L11 5L10 5L10 6L9 6L9 7L10 7L10 6L11 6L11 8L12 8L12 6L13 6L13 7L14 7L14 6L15 6L15 8L16 8L16 6L17 6L17 7L18 7L18 9L16 9L16 10L18 10L18 11L20 11L20 12L21 12L21 11L22 11L22 10L21 10L21 11L20 11L20 9L19 9L19 7L20 7L20 6L19 6L19 5L17 5L17 4L18 4L18 1ZM19 2L19 3L20 3L20 2ZM13 5L13 6L14 6L14 5ZM18 6L18 7L19 7L19 6ZM9 8L9 9L4 9L4 11L5 11L5 12L4 12L4 13L3 13L3 14L4 14L4 15L3 15L3 16L5 16L5 18L4 18L4 19L3 19L3 18L1 18L1 19L3 19L3 20L4 20L4 19L5 19L5 18L8 18L8 19L9 19L9 18L8 18L8 17L10 17L10 16L12 16L12 15L10 15L10 16L7 16L7 15L9 15L9 14L8 14L8 13L5 13L5 12L8 12L8 10L10 10L10 8ZM6 10L6 11L7 11L7 10ZM4 13L4 14L5 14L5 16L6 16L6 17L7 17L7 16L6 16L6 15L7 15L7 14L5 14L5 13ZM13 14L13 15L14 15L14 14ZM26 14L26 15L27 15L27 14ZM22 15L22 16L23 16L23 15ZM18 20L18 21L19 21L19 20ZM21 21L21 24L24 24L24 21ZM10 22L10 23L9 23L9 24L10 24L10 25L11 25L11 24L12 24L12 23L11 23L11 22ZM13 22L13 23L14 23L14 22ZM22 22L22 23L23 23L23 22ZM25 22L25 24L27 24L27 25L28 25L28 24L27 24L27 23L26 23L26 22ZM10 23L10 24L11 24L11 23ZM19 23L19 24L17 24L17 26L18 26L18 27L19 27L19 26L18 26L18 25L20 25L20 23ZM27 26L27 27L28 27L28 26ZM0 0L0 7L7 7L7 0ZM1 1L1 6L6 6L6 1ZM2 2L2 5L5 5L5 2ZM22 0L22 7L29 7L29 0ZM23 1L23 6L28 6L28 1ZM24 2L24 5L27 5L27 2ZM0 22L0 29L7 29L7 22ZM1 23L1 28L6 28L6 23ZM2 24L2 27L5 27L5 24Z" fill="#282828"/></g></g></svg>
