<?xml version="1.0" encoding="UTF-8"?>
<svg xmlns="http://www.w3.org/2000/svg" version="1.1" width="90" height="90" viewBox="0 0 90 90"><rect x="0" y="0" width="90" height="90" fill="#ffffff"/><g transform="scale(3.333)"><g transform="translate(1,1)"><path fill-rule="evenodd" d="M12 0L12 1L13 1L13 0ZM16 0L16 1L15 1L15 2L14 2L14 3L13 3L13 4L11 4L11 3L12 3L12 2L11 2L11 1L10 1L10 2L11 2L11 3L8 3L8 4L9 4L9 5L8 5L8 7L9 7L9 8L6 8L6 9L7 9L7 10L6 10L6 11L5 11L5 10L4 10L4 9L5 9L5 8L0 8L0 10L1 10L1 12L0 12L0 17L1 17L1 13L2 13L2 12L3 12L3 13L4 13L4 14L3 14L3 15L2 15L2 16L3 16L3 17L8 17L8 19L10 19L10 20L11 20L11 19L10 19L10 18L12 18L12 20L13 20L13 21L16 21L16 22L15 22L15 23L14 23L14 25L15 25L15 23L16 23L16 24L17 24L17 25L20 25L20 23L16 23L16 22L19 22L19 21L20 21L20 22L21 22L21 21L22 21L22 22L24 22L24 24L21 24L21 25L25 25L25 21L24 21L24 20L25 20L25 18L24 18L24 17L25 17L25 16L24 16L24 15L25 15L25 14L24 14L24 13L25 13L25 12L24 12L24 11L25 11L25 10L24 10L24 8L23 8L23 10L22 10L22 11L23 11L23 13L22 13L22 15L23 15L23 16L24 16L24 17L22 17L22 16L15 16L15 15L18 15L18 14L17 14L17 13L19 13L19 14L20 14L20 11L21 11L21 10L20 10L20 8L19 8L19 10L18 10L18 11L17 11L17 10L14 10L14 12L13 12L13 11L11 11L11 10L13 10L13 9L16 9L16 7L17 7L17 6L16 6L16 5L17 5L17 2L16 2L16 1L17 1L17 0ZM8 1L8 2L9 2L9 1ZM15 2L15 3L16 3L16 2ZM10 4L10 6L9 6L9 7L10 7L10 6L11 6L11 7L12 7L12 8L10 8L10 9L9 9L9 11L6 11L6 12L5 12L5 14L7 14L7 15L4 15L4 16L7 16L7 15L9 15L9 16L10 16L10 17L12 17L12 18L14 18L14 19L13 19L13 20L14 20L14 19L15 19L15 20L16 20L16 17L15 17L15 18L14 18L14 17L12 17L12 15L13 15L13 16L14 16L14 15L15 15L15 14L16 14L16 13L17 13L17 11L16 11L16 13L15 13L15 14L14 14L14 13L13 13L13 12L11 12L11 11L10 11L10 9L13 9L13 8L15 8L15 7L16 7L16 6L15 6L15 7L14 7L14 6L13 6L13 5L11 5L11 4ZM14 4L14 5L15 5L15 4ZM12 6L12 7L13 7L13 6ZM17 8L17 9L18 9L18 8ZM21 8L21 9L22 9L22 8ZM2 9L2 10L3 10L3 12L4 12L4 10L3 10L3 9ZM19 10L19 11L20 11L20 10ZM23 10L23 11L24 11L24 10ZM6 12L6 13L8 13L8 14L9 14L9 13L11 13L11 14L13 14L13 15L14 15L14 14L13 14L13 13L11 13L11 12L9 12L9 13L8 13L8 12ZM23 14L23 15L24 15L24 14ZM10 15L10 16L11 16L11 15ZM17 17L17 20L20 20L20 17ZM21 17L21 20L23 20L23 19L24 19L24 18L22 18L22 17ZM18 18L18 19L19 19L19 18ZM8 20L8 25L10 25L10 23L11 23L11 25L12 25L12 23L11 23L11 22L12 22L12 21L11 21L11 22L10 22L10 23L9 23L9 20ZM0 0L0 7L7 7L7 0ZM1 1L1 6L6 6L6 1ZM2 2L2 5L5 5L5 2ZM18 0L18 7L25 7L25 0ZM19 1L19 6L24 6L24 1ZM20 2L20 5L23 5L23 2ZM0 18L0 25L7 25L7 18ZM1 19L1 24L6 24L6 19ZM2 20L2 23L5 23L5 20Z" fill="#282828"/></g></g></svg>
