<?xml version="1.0" encoding="UTF-8"?>
<svg xmlns="http://www.w3.org/2000/svg" version="1.1" width="90" height="90" viewBox="0 0 90 90"><rect x="0" y="0" width="90" height="90" fill="#ffffff"/><g transform="scale(3.333)"><g transform="translate(1,1)"><path fill-rule="evenodd" d="M9 0L9 1L8 1L8 2L9 2L9 3L8 3L8 4L10 4L10 7L11 7L11 4L12 4L12 5L13 5L13 4L15 4L15 6L14 6L14 8L13 8L13 6L12 6L12 9L14 9L14 10L11 10L11 11L10 11L10 9L11 9L11 8L6 8L6 9L8 9L8 11L7 11L7 10L6 10L6 11L7 11L7 12L5 12L5 11L2 11L2 10L4 10L4 9L5 9L5 8L0 8L0 11L1 11L1 12L0 12L0 17L1 17L1 12L2 12L2 13L3 13L3 14L5 14L5 15L4 15L4 17L5 17L5 15L7 15L7 16L6 16L6 17L7 17L7 16L8 16L8 19L9 19L9 20L8 20L8 25L9 25L9 24L10 24L10 25L11 25L11 24L10 24L10 23L11 23L11 21L12 21L12 22L13 22L13 23L12 23L12 25L13 25L13 24L14 24L14 25L15 25L15 24L16 24L16 23L15 23L15 22L16 22L16 21L18 21L18 22L19 22L19 23L18 23L18 25L19 25L19 23L20 23L20 22L19 22L19 21L21 21L21 25L25 25L25 20L22 20L22 21L21 21L21 19L22 19L22 18L21 18L21 17L22 17L22 16L21 16L21 14L20 14L20 13L21 13L21 12L20 12L20 8L19 8L19 10L18 10L18 11L17 11L17 9L18 9L18 8L17 8L17 9L16 9L16 8L15 8L15 6L16 6L16 7L17 7L17 6L16 6L16 5L17 5L17 0L16 0L16 1L15 1L15 0L14 0L14 1L15 1L15 2L16 2L16 4L15 4L15 3L13 3L13 4L12 4L12 2L13 2L13 1L11 1L11 2L10 2L10 0ZM10 3L10 4L11 4L11 3ZM8 5L8 7L9 7L9 5ZM14 8L14 9L15 9L15 10L14 10L14 11L12 11L12 13L11 13L11 12L10 12L10 13L11 13L11 15L10 15L10 16L9 16L9 15L8 15L8 14L9 14L9 13L8 13L8 14L7 14L7 13L5 13L5 12L4 12L4 13L5 13L5 14L7 14L7 15L8 15L8 16L9 16L9 17L10 17L10 16L11 16L11 18L9 18L9 19L11 19L11 18L13 18L13 19L12 19L12 21L14 21L14 22L15 22L15 20L16 20L16 18L13 18L13 17L12 17L12 15L13 15L13 16L14 16L14 17L16 17L16 15L15 15L15 16L14 16L14 15L13 15L13 14L14 14L14 13L15 13L15 14L16 14L16 13L15 13L15 12L14 12L14 11L15 11L15 10L16 10L16 9L15 9L15 8ZM21 8L21 11L22 11L22 10L24 10L24 11L23 11L23 13L22 13L22 15L23 15L23 16L24 16L24 17L23 17L23 18L24 18L24 19L25 19L25 18L24 18L24 17L25 17L25 16L24 16L24 15L25 15L25 14L24 14L24 13L25 13L25 12L24 12L24 11L25 11L25 10L24 10L24 8L23 8L23 9L22 9L22 8ZM1 9L1 10L2 10L2 9ZM8 11L8 12L9 12L9 11ZM13 12L13 13L12 13L12 14L13 14L13 13L14 13L14 12ZM19 12L19 13L17 13L17 14L18 14L18 15L17 15L17 16L20 16L20 14L19 14L19 13L20 13L20 12ZM23 14L23 15L24 15L24 14ZM2 16L2 17L3 17L3 16ZM17 17L17 20L20 20L20 17ZM18 18L18 19L19 19L19 18ZM22 21L22 22L23 22L23 23L22 23L22 24L24 24L24 22L23 22L23 21ZM9 22L9 23L10 23L10 22ZM14 23L14 24L15 24L15 23ZM0 0L0 7L7 7L7 0ZM1 1L1 6L6 6L6 1ZM2 2L2 5L5 5L5 2ZM18 0L18 7L25 7L25 0ZM19 1L19 6L24 6L24 1ZM20 2L20 5L23 5L23 2ZM0 18L0 25L7 25L7 18ZM1 19L1 24L6 24L6 19ZM2 20L2 23L5 23L5 20Z" fill="#282828"/></g></g></svg>
