<?xml version="1.0" encoding="UTF-8"?>
<svg xmlns="http://www.w3.org/2000/svg" version="1.1" width="90" height="90" viewBox="0 0 90 90"><rect x="0" y="0" width="90" height="90" fill="#ffffff"/><g transform="scale(2.903)"><g transform="translate(1,1)"><path fill-rule="evenodd" d="M8 0L8 4L10 4L10 3L11 3L11 4L12 4L12 2L11 2L11 0ZM12 0L12 1L13 1L13 2L15 2L15 1L16 1L16 2L17 2L17 4L16 4L16 7L15 7L15 3L13 3L13 5L11 5L11 6L10 6L10 7L9 7L9 5L8 5L8 7L9 7L9 8L10 8L10 7L11 7L11 6L12 6L12 8L11 8L11 9L9 9L9 10L8 10L8 9L7 9L7 8L4 8L4 9L3 9L3 10L4 10L4 9L5 9L5 10L6 10L6 11L2 11L2 10L0 10L0 12L2 12L2 13L0 13L0 15L1 15L1 14L2 14L2 13L3 13L3 14L4 14L4 13L5 13L5 16L3 16L3 15L2 15L2 16L0 16L0 18L1 18L1 17L2 17L2 16L3 16L3 17L4 17L4 18L2 18L2 19L4 19L4 21L5 21L5 19L4 19L4 18L5 18L5 16L6 16L6 17L8 17L8 15L9 15L9 14L8 14L8 15L7 15L7 14L6 14L6 13L7 13L7 12L6 12L6 11L7 11L7 10L8 10L8 12L9 12L9 10L11 10L11 11L10 11L10 13L11 13L11 12L12 12L12 13L13 13L13 15L12 15L12 16L10 16L10 17L9 17L9 18L6 18L6 19L8 19L8 20L6 20L6 21L8 21L8 22L11 22L11 20L12 20L12 21L13 21L13 22L15 22L15 23L14 23L14 24L13 24L13 23L12 23L12 24L9 24L9 23L8 23L8 25L9 25L9 27L8 27L8 29L11 29L11 28L12 28L12 29L14 29L14 27L15 27L15 29L16 29L16 26L17 26L17 28L19 28L19 27L20 27L20 29L22 29L22 25L26 25L26 23L27 23L27 24L28 24L28 26L25 26L25 29L26 29L26 27L27 27L27 29L28 29L28 28L29 28L29 21L27 21L27 20L26 20L26 19L24 19L24 18L27 18L27 19L29 19L29 17L28 17L28 16L27 16L27 17L26 17L26 16L25 16L25 15L23 15L23 13L22 13L22 10L21 10L21 11L20 11L20 13L16 13L16 14L14 14L14 13L15 13L15 11L16 11L16 12L18 12L18 11L19 11L19 10L20 10L20 9L21 9L21 6L20 6L20 4L21 4L21 2L20 2L20 0L19 0L19 1L18 1L18 0L15 0L15 1L14 1L14 0ZM9 2L9 3L10 3L10 2ZM18 2L18 3L19 3L19 4L20 4L20 2ZM18 5L18 6L17 6L17 7L16 7L16 8L15 8L15 9L14 9L14 6L13 6L13 8L12 8L12 9L11 9L11 10L12 10L12 9L14 9L14 11L12 11L12 12L13 12L13 13L14 13L14 11L15 11L15 10L16 10L16 9L20 9L20 8L17 8L17 7L18 7L18 6L19 6L19 7L20 7L20 6L19 6L19 5ZM0 8L0 9L2 9L2 8ZM23 8L23 12L24 12L24 10L25 10L25 11L26 11L26 10L25 10L25 9L29 9L29 8L25 8L25 9L24 9L24 8ZM6 9L6 10L7 10L7 9ZM28 10L28 11L29 11L29 10ZM5 12L5 13L6 13L6 12ZM25 12L25 13L24 13L24 14L25 14L25 13L26 13L26 12ZM27 12L27 14L26 14L26 15L27 15L27 14L28 14L28 15L29 15L29 14L28 14L28 13L29 13L29 12ZM20 13L20 14L19 14L19 16L22 16L22 17L21 17L21 18L20 18L20 17L19 17L19 19L20 19L20 20L21 20L21 19L22 19L22 20L24 20L24 19L23 19L23 18L22 18L22 17L23 17L23 16L22 16L22 14L21 14L21 13ZM16 14L16 17L15 17L15 18L16 18L16 20L15 20L15 19L14 19L14 21L15 21L15 22L16 22L16 21L19 21L19 22L17 22L17 23L19 23L19 22L20 22L20 21L19 21L19 20L17 20L17 18L16 18L16 17L17 17L17 15L18 15L18 14ZM6 15L6 16L7 16L7 15ZM13 15L13 16L12 16L12 17L11 17L11 18L12 18L12 17L13 17L13 18L14 18L14 17L13 17L13 16L14 16L14 15ZM24 16L24 17L25 17L25 16ZM9 18L9 19L10 19L10 20L8 20L8 21L10 21L10 20L11 20L11 19L10 19L10 18ZM12 19L12 20L13 20L13 19ZM0 20L0 21L3 21L3 20ZM25 20L25 21L26 21L26 20ZM21 21L21 24L24 24L24 21ZM22 22L22 23L23 23L23 22ZM25 22L25 23L26 23L26 22ZM15 23L15 25L13 25L13 24L12 24L12 25L10 25L10 26L12 26L12 25L13 25L13 26L16 26L16 25L19 25L19 26L18 26L18 27L19 27L19 26L21 26L21 25L19 25L19 24L16 24L16 23ZM9 27L9 28L10 28L10 27ZM12 27L12 28L13 28L13 27ZM23 27L23 29L24 29L24 27ZM0 0L0 7L7 7L7 0ZM1 1L1 6L6 6L6 1ZM2 2L2 5L5 5L5 2ZM22 0L22 7L29 7L29 0ZM23 1L23 6L28 6L28 1ZM24 2L24 5L27 5L27 2ZM0 22L0 29L7 29L7 22ZM1 23L1 28L6 28L6 23ZM2 24L2 27L5 27L5 24Z" fill="#282828"/></g></g></svg>
