<?xml version="1.0" encoding="UTF-8"?>
<svg xmlns="http://www.w3.org/2000/svg" version="1.1" width="90" height="90" viewBox="0 0 90 90"><rect x="0" y="0" width="90" height="90" fill="#ffffff"/><g transform="scale(2.903)"><g transform="translate(1,1)"><path fill-rule="evenodd" d="M8 0L8 1L9 1L9 2L8 2L8 5L9 5L9 4L11 4L11 5L10 5L10 10L9 10L9 8L8 8L8 10L6 10L6 9L7 9L7 8L6 8L6 9L4 9L4 8L0 8L0 10L1 10L1 11L0 11L0 12L1 12L1 11L2 11L2 14L1 14L1 13L0 13L0 17L2 17L2 16L5 16L5 17L4 17L4 21L8 21L8 22L9 22L9 23L10 23L10 24L11 24L11 26L10 26L10 27L11 27L11 26L12 26L12 28L11 28L11 29L12 29L12 28L14 28L14 27L15 27L15 26L17 26L17 27L16 27L16 28L15 28L15 29L16 29L16 28L17 28L17 27L18 27L18 29L21 29L21 26L22 26L22 25L23 25L23 27L22 27L22 29L23 29L23 27L24 27L24 28L25 28L25 29L26 29L26 27L27 27L27 29L28 29L28 27L29 27L29 25L28 25L28 27L27 27L27 25L26 25L26 24L25 24L25 21L27 21L27 20L28 20L28 22L29 22L29 19L28 19L28 17L29 17L29 16L28 16L28 15L29 15L29 13L28 13L28 12L29 12L29 11L28 11L28 10L27 10L27 8L24 8L24 10L25 10L25 11L26 11L26 10L27 10L27 14L28 14L28 15L27 15L27 16L28 16L28 17L26 17L26 20L23 20L23 19L25 19L25 18L24 18L24 17L25 17L25 14L26 14L26 13L25 13L25 14L24 14L24 15L23 15L23 14L22 14L22 15L23 15L23 16L24 16L24 17L23 17L23 19L22 19L22 16L21 16L21 15L20 15L20 14L21 14L21 13L19 13L19 12L20 12L20 11L21 11L21 10L23 10L23 9L22 9L22 8L21 8L21 5L20 5L20 4L21 4L21 0L18 0L18 1L16 1L16 2L15 2L15 0L12 0L12 1L11 1L11 0L10 0L10 1L9 1L9 0ZM13 1L13 2L11 2L11 4L12 4L12 3L13 3L13 2L14 2L14 4L13 4L13 5L12 5L12 6L11 6L11 8L12 8L12 6L13 6L13 8L14 8L14 11L11 11L11 13L10 13L10 14L9 14L9 13L5 13L5 12L7 12L7 11L5 11L5 10L4 10L4 9L3 9L3 10L2 10L2 9L1 9L1 10L2 10L2 11L3 11L3 10L4 10L4 12L3 12L3 13L4 13L4 14L2 14L2 15L1 15L1 16L2 16L2 15L6 15L6 16L8 16L8 14L9 14L9 15L10 15L10 16L9 16L9 17L6 17L6 18L5 18L5 20L8 20L8 21L9 21L9 22L10 22L10 23L14 23L14 22L15 22L15 24L12 24L12 26L13 26L13 27L14 27L14 26L15 26L15 25L17 25L17 26L19 26L19 28L20 28L20 26L21 26L21 25L20 25L20 23L19 23L19 22L20 22L20 20L22 20L22 19L21 19L21 18L20 18L20 15L19 15L19 13L18 13L18 14L14 14L14 12L16 12L16 11L17 11L17 12L18 12L18 11L17 11L17 10L18 10L18 9L17 9L17 10L16 10L16 8L17 8L17 7L18 7L18 8L19 8L19 7L20 7L20 6L19 6L19 7L18 7L18 6L17 6L17 4L16 4L16 5L15 5L15 2L14 2L14 1ZM19 1L19 2L20 2L20 1ZM17 2L17 3L18 3L18 4L20 4L20 3L18 3L18 2ZM13 5L13 6L14 6L14 7L15 7L15 6L14 6L14 5ZM8 6L8 7L9 7L9 6ZM16 6L16 7L17 7L17 6ZM28 8L28 9L29 9L29 8ZM11 9L11 10L12 10L12 9ZM19 9L19 11L20 11L20 9ZM22 11L22 12L24 12L24 11ZM12 12L12 13L11 13L11 14L10 14L10 15L11 15L11 16L10 16L10 18L9 18L9 19L8 19L8 20L9 20L9 19L10 19L10 20L12 20L12 19L10 19L10 18L11 18L11 16L12 16L12 17L13 17L13 16L12 16L12 14L13 14L13 15L14 15L14 18L13 18L13 21L15 21L15 19L16 19L16 22L17 22L17 21L19 21L19 18L18 18L18 19L16 19L16 18L15 18L15 17L19 17L19 15L18 15L18 16L17 16L17 15L16 15L16 16L15 16L15 15L14 15L14 14L13 14L13 12ZM6 14L6 15L7 15L7 14ZM0 18L0 19L1 19L1 18ZM6 18L6 19L7 19L7 18ZM2 19L2 20L1 20L1 21L2 21L2 20L3 20L3 19ZM21 21L21 24L24 24L24 21ZM22 22L22 23L23 23L23 22ZM26 22L26 23L27 23L27 22ZM17 24L17 25L18 25L18 24ZM8 25L8 29L10 29L10 28L9 28L9 25ZM13 25L13 26L14 26L14 25ZM19 25L19 26L20 26L20 25ZM25 25L25 26L24 26L24 27L26 27L26 25ZM0 0L0 7L7 7L7 0ZM1 1L1 6L6 6L6 1ZM2 2L2 5L5 5L5 2ZM22 0L22 7L29 7L29 0ZM23 1L23 6L28 6L28 1ZM24 2L24 5L27 5L27 2ZM0 22L0 29L7 29L7 22ZM1 23L1 28L6 28L6 23ZM2 24L2 27L5 27L5 24Z" fill="#282828"/></g></g></svg>
