<?xml version="1.0" encoding="UTF-8"?>
<svg xmlns="http://www.w3.org/2000/svg" version="1.1" width="90" height="90" viewBox="0 0 90 90"><rect x="0" y="0" width="90" height="90" fill="#ffffff"/><g transform="scale(3.333)"><g transform="translate(1,1)"><path fill-rule="evenodd" d="M9 0L9 1L8 1L8 2L9 2L9 3L8 3L8 4L9 4L9 3L11 3L11 2L9 2L9 1L13 1L13 2L12 2L12 4L10 4L10 5L8 5L8 7L9 7L9 8L6 8L6 9L5 9L5 8L0 8L0 9L3 9L3 10L0 10L0 11L3 11L3 12L1 12L1 13L0 13L0 17L1 17L1 13L3 13L3 16L2 16L2 17L8 17L8 19L9 19L9 20L8 20L8 25L10 25L10 23L11 23L11 22L12 22L12 21L13 21L13 22L14 22L14 21L15 21L15 24L13 24L13 23L12 23L12 24L11 24L11 25L15 25L15 24L17 24L17 23L18 23L18 25L19 25L19 23L20 23L20 22L19 22L19 21L21 21L21 25L25 25L25 22L24 22L24 24L22 24L22 23L23 23L23 22L22 22L22 21L23 21L23 20L22 20L22 21L21 21L21 19L22 19L22 18L21 18L21 17L22 17L22 16L21 16L21 14L20 14L20 13L21 13L21 11L23 11L23 10L24 10L24 12L25 12L25 10L24 10L24 8L23 8L23 10L22 10L22 8L21 8L21 10L20 10L20 8L19 8L19 10L18 10L18 8L17 8L17 5L14 5L14 4L16 4L16 1L17 1L17 0L15 0L15 3L13 3L13 2L14 2L14 0ZM12 4L12 5L10 5L10 6L9 6L9 7L10 7L10 8L9 8L9 9L6 9L6 10L7 10L7 11L6 11L6 12L5 12L5 13L6 13L6 14L5 14L5 15L6 15L6 16L7 16L7 15L6 15L6 14L8 14L8 15L9 15L9 16L8 16L8 17L9 17L9 19L10 19L10 20L9 20L9 22L11 22L11 21L10 21L10 20L11 20L11 19L12 19L12 20L16 20L16 18L14 18L14 17L12 17L12 16L14 16L14 14L16 14L16 13L17 13L17 14L19 14L19 16L20 16L20 14L19 14L19 13L20 13L20 12L19 12L19 11L18 11L18 10L16 10L16 9L17 9L17 8L16 8L16 9L15 9L15 10L14 10L14 9L13 9L13 8L14 8L14 6L13 6L13 8L12 8L12 5L13 5L13 4ZM10 6L10 7L11 7L11 6ZM15 6L15 7L16 7L16 6ZM9 9L9 10L12 10L12 9ZM3 10L3 11L5 11L5 10ZM13 10L13 11L14 11L14 12L13 12L13 13L15 13L15 11L16 11L16 12L17 12L17 13L19 13L19 12L18 12L18 11L16 11L16 10L15 10L15 11L14 11L14 10ZM9 11L9 13L8 13L8 12L6 12L6 13L8 13L8 14L9 14L9 15L10 15L10 14L9 14L9 13L10 13L10 11ZM11 11L11 13L12 13L12 11ZM22 13L22 15L23 15L23 16L24 16L24 17L23 17L23 18L24 18L24 21L25 21L25 18L24 18L24 17L25 17L25 16L24 16L24 15L25 15L25 14L24 14L24 13ZM23 14L23 15L24 15L24 14ZM16 15L16 16L15 16L15 17L16 17L16 16L17 16L17 15ZM9 16L9 17L10 17L10 16ZM11 17L11 18L12 18L12 19L13 19L13 18L12 18L12 17ZM17 17L17 20L20 20L20 17ZM18 18L18 19L19 19L19 18ZM16 21L16 22L17 22L17 21ZM18 22L18 23L19 23L19 22ZM0 0L0 7L7 7L7 0ZM1 1L1 6L6 6L6 1ZM2 2L2 5L5 5L5 2ZM18 0L18 7L25 7L25 0ZM19 1L19 6L24 6L24 1ZM20 2L20 5L23 5L23 2ZM0 18L0 25L7 25L7 18ZM1 19L1 24L6 24L6 19ZM2 20L2 23L5 23L5 20Z" fill="#282828"/></g></g></svg>
