<?xml version="1.0" encoding="UTF-8"?>
<svg xmlns="http://www.w3.org/2000/svg" version="1.1" width="90" height="90" viewBox="0 0 90 90"><rect x="0" y="0" width="90" height="90" fill="#ffffff"/><g transform="scale(2.903)"><g transform="translate(1,1)"><path fill-rule="evenodd" d="M9 0L9 1L8 1L8 3L9 3L9 4L8 4L8 8L6 8L6 9L8 9L8 10L6 10L6 11L7 11L7 12L6 12L6 13L7 13L7 14L6 14L6 15L5 15L5 17L4 17L4 16L1 16L1 15L2 15L2 14L4 14L4 13L5 13L5 12L3 12L3 13L2 13L2 12L1 12L1 11L3 11L3 10L4 10L4 11L5 11L5 10L4 10L4 8L3 8L3 10L0 10L0 12L1 12L1 13L0 13L0 14L1 14L1 15L0 15L0 17L2 17L2 19L4 19L4 20L3 20L3 21L4 21L4 20L5 20L5 19L7 19L7 20L6 20L6 21L8 21L8 23L10 23L10 26L9 26L9 25L8 25L8 26L9 26L9 27L8 27L8 29L10 29L10 27L12 27L12 26L11 26L11 25L12 25L12 24L11 24L11 23L10 23L10 22L11 22L11 21L12 21L12 20L11 20L11 17L14 17L14 16L16 16L16 15L17 15L17 16L20 16L20 17L19 17L19 18L20 18L20 19L21 19L21 20L20 20L20 21L19 21L19 22L20 22L20 23L18 23L18 20L19 20L19 19L17 19L17 20L16 20L16 21L15 21L15 19L14 19L14 18L13 18L13 19L14 19L14 20L13 20L13 22L12 22L12 23L13 23L13 25L14 25L14 24L15 24L15 26L16 26L16 25L17 25L17 28L20 28L20 29L22 29L22 28L24 28L24 29L26 29L26 25L25 25L25 23L26 23L26 24L27 24L27 26L28 26L28 27L27 27L27 29L28 29L28 27L29 27L29 26L28 26L28 24L29 24L29 23L27 23L27 20L26 20L26 19L27 19L27 18L26 18L26 19L25 19L25 18L24 18L24 17L22 17L22 16L20 16L20 15L19 15L19 14L22 14L22 13L23 13L23 12L24 12L24 11L25 11L25 10L23 10L23 9L25 9L25 8L22 8L22 10L21 10L21 9L20 9L20 8L21 8L21 5L19 5L19 4L20 4L20 3L21 3L21 2L20 2L20 3L19 3L19 4L18 4L18 5L19 5L19 6L18 6L18 7L17 7L17 4L16 4L16 5L15 5L15 3L16 3L16 2L17 2L17 3L18 3L18 1L20 1L20 0L18 0L18 1L15 1L15 0L14 0L14 1L13 1L13 0L12 0L12 1L11 1L11 2L9 2L9 1L10 1L10 0ZM13 2L13 3L12 3L12 4L9 4L9 5L10 5L10 6L9 6L9 7L10 7L10 8L8 8L8 9L9 9L9 10L8 10L8 12L7 12L7 13L8 13L8 12L9 12L9 13L12 13L12 12L13 12L13 15L14 15L14 14L15 14L15 15L16 15L16 14L19 14L19 12L18 12L18 9L19 9L19 10L20 10L20 11L21 11L21 10L20 10L20 9L19 9L19 8L20 8L20 6L19 6L19 7L18 7L18 9L17 9L17 13L16 13L16 14L15 14L15 12L13 12L13 10L14 10L14 11L16 11L16 10L15 10L15 9L16 9L16 8L15 8L15 9L14 9L14 6L15 6L15 7L16 7L16 6L15 6L15 5L14 5L14 6L13 6L13 3L14 3L14 2ZM11 5L11 6L10 6L10 7L11 7L11 6L12 6L12 8L13 8L13 6L12 6L12 5ZM0 8L0 9L2 9L2 8ZM10 8L10 10L9 10L9 11L11 11L11 10L12 10L12 9L11 9L11 8ZM26 8L26 10L27 10L27 11L26 11L26 13L25 13L25 14L24 14L24 15L23 15L23 16L24 16L24 15L26 15L26 14L27 14L27 11L28 11L28 13L29 13L29 11L28 11L28 10L27 10L27 9L28 9L28 8ZM22 10L22 12L23 12L23 10ZM7 14L7 15L6 15L6 16L7 16L7 15L8 15L8 18L7 18L7 17L6 17L6 18L7 18L7 19L9 19L9 20L10 20L10 21L9 21L9 22L10 22L10 21L11 21L11 20L10 20L10 16L12 16L12 14L11 14L11 15L10 15L10 16L9 16L9 14ZM28 14L28 15L27 15L27 16L28 16L28 19L29 19L29 16L28 16L28 15L29 15L29 14ZM25 16L25 17L26 17L26 16ZM17 17L17 18L18 18L18 17ZM20 17L20 18L22 18L22 17ZM0 18L0 19L1 19L1 18ZM23 18L23 20L24 20L24 18ZM0 20L0 21L1 21L1 20ZM25 20L25 22L26 22L26 20ZM28 20L28 22L29 22L29 20ZM21 21L21 24L24 24L24 21ZM15 22L15 24L16 24L16 23L17 23L17 25L18 25L18 26L19 26L19 27L24 27L24 28L25 28L25 27L24 27L24 26L25 26L25 25L24 25L24 26L22 26L22 25L20 25L20 24L18 24L18 23L17 23L17 22ZM22 22L22 23L23 23L23 22ZM19 25L19 26L20 26L20 25ZM13 27L13 28L14 28L14 29L16 29L16 27ZM0 0L0 7L7 7L7 0ZM1 1L1 6L6 6L6 1ZM2 2L2 5L5 5L5 2ZM22 0L22 7L29 7L29 0ZM23 1L23 6L28 6L28 1ZM24 2L24 5L27 5L27 2ZM0 22L0 29L7 29L7 22ZM1 23L1 28L6 28L6 23ZM2 24L2 27L5 27L5 24Z" fill="#282828"/></g></g></svg>
