<?xml version="1.0" encoding="UTF-8"?>
<svg xmlns="http://www.w3.org/2000/svg" version="1.1" width="90" height="90" viewBox="0 0 90 90"><rect x="0" y="0" width="90" height="90" fill="#ffffff"/><g transform="scale(2.903)"><g transform="translate(1,1)"><path fill-rule="evenodd" d="M8 0L8 4L10 4L10 3L11 3L11 4L12 4L12 2L11 2L11 0ZM12 0L12 1L13 1L13 2L15 2L15 1L16 1L16 3L15 3L15 5L16 5L16 7L15 7L15 6L14 6L14 3L13 3L13 5L11 5L11 6L10 6L10 7L9 7L9 5L8 5L8 7L9 7L9 8L10 8L10 7L11 7L11 6L12 6L12 8L11 8L11 9L7 9L7 8L4 8L4 9L3 9L3 11L4 11L4 12L5 12L5 13L4 13L4 14L5 14L5 15L4 15L4 17L1 17L1 16L3 16L3 15L1 15L1 13L2 13L2 12L1 12L1 10L2 10L2 8L0 8L0 9L1 9L1 10L0 10L0 18L2 18L2 20L0 20L0 21L3 21L3 20L4 20L4 21L5 21L5 20L6 20L6 21L7 21L7 20L8 20L8 22L11 22L11 20L12 20L12 21L13 21L13 22L15 22L15 23L14 23L14 24L13 24L13 23L12 23L12 24L10 24L10 23L8 23L8 25L9 25L9 26L10 26L10 27L11 27L11 28L10 28L10 29L11 29L11 28L12 28L12 29L14 29L14 27L15 27L15 28L16 28L16 29L17 29L17 28L19 28L19 27L18 27L18 26L19 26L19 25L20 25L20 29L22 29L22 28L24 28L24 29L26 29L26 28L24 28L24 27L23 27L23 26L22 26L22 25L24 25L24 26L25 26L25 27L26 27L26 26L27 26L27 29L28 29L28 28L29 28L29 25L28 25L28 23L29 23L29 21L27 21L27 25L26 25L26 23L25 23L25 21L26 21L26 19L25 19L25 17L26 17L26 14L25 14L25 13L27 13L27 16L28 16L28 17L27 17L27 19L29 19L29 13L28 13L28 12L29 12L29 10L28 10L28 9L29 9L29 8L25 8L25 9L24 9L24 8L23 8L23 9L21 9L21 6L20 6L20 5L21 5L21 4L20 4L20 5L19 5L19 2L21 2L21 1L20 1L20 0L19 0L19 1L16 1L16 0L15 0L15 1L13 1L13 0ZM9 2L9 3L10 3L10 2ZM16 3L16 5L17 5L17 7L18 7L18 4L17 4L17 3ZM13 6L13 8L12 8L12 9L11 9L11 10L8 10L8 11L5 11L5 12L8 12L8 11L9 11L9 13L10 13L10 14L11 14L11 15L9 15L9 14L8 14L8 13L5 13L5 14L7 14L7 15L5 15L5 18L3 18L3 19L5 19L5 18L7 18L7 17L6 17L6 16L7 16L7 15L8 15L8 17L9 17L9 19L8 19L8 20L10 20L10 17L11 17L11 18L12 18L12 17L13 17L13 18L16 18L16 19L17 19L17 18L18 18L18 20L15 20L15 19L14 19L14 21L15 21L15 22L16 22L16 23L15 23L15 25L13 25L13 24L12 24L12 25L10 25L10 26L12 26L12 25L13 25L13 26L16 26L16 23L17 23L17 22L19 22L19 21L20 21L20 19L19 19L19 18L18 18L18 17L17 17L17 18L16 18L16 17L13 17L13 16L14 16L14 15L15 15L15 16L17 16L17 14L16 14L16 15L15 15L15 14L13 14L13 13L12 13L12 12L13 12L13 11L12 11L12 12L11 12L11 13L10 13L10 11L11 11L11 10L12 10L12 9L13 9L13 10L14 10L14 9L13 9L13 8L15 8L15 9L19 9L19 11L18 11L18 10L17 10L17 11L18 11L18 12L17 12L17 13L19 13L19 14L18 14L18 15L19 15L19 14L20 14L20 12L21 12L21 11L20 11L20 10L21 10L21 9L19 9L19 8L20 8L20 6L19 6L19 8L15 8L15 7L14 7L14 6ZM4 9L4 10L5 10L5 9ZM6 9L6 10L7 10L7 9ZM25 9L25 10L23 10L23 11L22 11L22 13L21 13L21 14L22 14L22 13L25 13L25 10L27 10L27 11L26 11L26 12L27 12L27 11L28 11L28 10L27 10L27 9ZM14 11L14 13L16 13L16 12L15 12L15 11ZM23 11L23 12L24 12L24 11ZM24 14L24 15L23 15L23 16L22 16L22 15L20 15L20 16L21 16L21 17L20 17L20 18L22 18L22 17L25 17L25 16L24 16L24 15L25 15L25 14ZM12 15L12 16L11 16L11 17L12 17L12 16L13 16L13 15ZM9 16L9 17L10 17L10 16ZM23 18L23 19L24 19L24 20L25 20L25 19L24 19L24 18ZM6 19L6 20L7 20L7 19ZM12 19L12 20L13 20L13 19ZM16 21L16 22L17 22L17 21ZM21 21L21 24L24 24L24 21ZM22 22L22 23L23 23L23 22ZM18 23L18 24L17 24L17 26L18 26L18 25L19 25L19 23ZM25 25L25 26L26 26L26 25ZM27 25L27 26L28 26L28 25ZM8 27L8 29L9 29L9 27ZM12 27L12 28L13 28L13 27ZM16 27L16 28L17 28L17 27ZM0 0L0 7L7 7L7 0ZM1 1L1 6L6 6L6 1ZM2 2L2 5L5 5L5 2ZM22 0L22 7L29 7L29 0ZM23 1L23 6L28 6L28 1ZM24 2L24 5L27 5L27 2ZM0 22L0 29L7 29L7 22ZM1 23L1 28L6 28L6 23ZM2 24L2 27L5 27L5 24Z" fill="#282828"/></g></g></svg>
