<?xml version="1.0" encoding="UTF-8"?>
<svg xmlns="http://www.w3.org/2000/svg" version="1.1" width="90" height="90" viewBox="0 0 90 90"><rect x="0" y="0" width="90" height="90" fill="#ffffff"/><g transform="scale(3.333)"><g transform="translate(1,1)"><path fill-rule="evenodd" d="M8 0L8 4L9 4L9 5L8 5L8 7L9 7L9 6L10 6L10 9L11 9L11 10L9 10L9 12L10 12L10 11L11 11L11 12L12 12L12 13L10 13L10 14L8 14L8 18L9 18L9 19L8 19L8 21L9 21L9 22L10 22L10 23L8 23L8 25L10 25L10 24L12 24L12 25L13 25L13 22L10 22L10 21L12 21L12 20L13 20L13 18L12 18L12 17L11 17L11 16L12 16L12 13L13 13L13 14L14 14L14 16L15 16L15 17L14 17L14 19L15 19L15 17L16 17L16 21L17 21L17 23L20 23L20 22L21 22L21 24L17 24L17 25L21 25L21 24L22 24L22 25L25 25L25 24L24 24L24 22L25 22L25 21L24 21L24 20L25 20L25 19L24 19L24 17L25 17L25 15L24 15L24 13L22 13L22 12L24 12L24 9L25 9L25 8L21 8L21 9L20 9L20 8L19 8L19 9L20 9L20 10L18 10L18 11L17 11L17 13L13 13L13 12L12 12L12 11L13 11L13 9L11 9L11 5L13 5L13 4L14 4L14 5L15 5L15 4L16 4L16 5L17 5L17 3L16 3L16 2L15 2L15 1L17 1L17 0L10 0L10 2L9 2L9 0ZM11 1L11 2L10 2L10 3L11 3L11 4L10 4L10 5L11 5L11 4L12 4L12 3L14 3L14 2L12 2L12 1ZM11 2L11 3L12 3L12 2ZM12 6L12 7L13 7L13 6ZM14 6L14 7L15 7L15 8L17 8L17 6L16 6L16 7L15 7L15 6ZM0 8L0 11L1 11L1 9L2 9L2 12L1 12L1 13L0 13L0 14L1 14L1 13L2 13L2 12L3 12L3 10L4 10L4 11L5 11L5 12L4 12L4 13L5 13L5 12L6 12L6 13L8 13L8 11L7 11L7 10L8 10L8 9L7 9L7 8L4 8L4 9L2 9L2 8ZM5 9L5 10L7 10L7 9ZM14 9L14 10L15 10L15 11L14 11L14 12L16 12L16 9ZM22 9L22 10L20 10L20 11L19 11L19 12L20 12L20 13L17 13L17 14L19 14L19 15L16 15L16 16L19 16L19 15L20 15L20 16L21 16L21 17L22 17L22 18L23 18L23 17L24 17L24 15L23 15L23 14L20 14L20 13L21 13L21 12L22 12L22 10L23 10L23 9ZM6 11L6 12L7 12L7 11ZM2 14L2 16L0 16L0 17L2 17L2 16L3 16L3 15L5 15L5 14ZM6 14L6 15L7 15L7 14ZM9 15L9 16L11 16L11 15ZM22 15L22 16L23 16L23 15ZM4 16L4 17L5 17L5 16ZM6 16L6 17L7 17L7 16ZM17 17L17 20L20 20L20 17ZM18 18L18 19L19 19L19 18ZM11 19L11 20L12 20L12 19ZM21 19L21 20L22 20L22 19ZM9 20L9 21L10 21L10 20ZM14 21L14 23L15 23L15 25L16 25L16 23L15 23L15 21ZM21 21L21 22L22 22L22 23L23 23L23 21ZM0 0L0 7L7 7L7 0ZM1 1L1 6L6 6L6 1ZM2 2L2 5L5 5L5 2ZM18 0L18 7L25 7L25 0ZM19 1L19 6L24 6L24 1ZM20 2L20 5L23 5L23 2ZM0 18L0 25L7 25L7 18ZM1 19L1 24L6 24L6 19ZM2 20L2 23L5 23L5 20Z" fill="#282828"/></g></g></svg>
