<?xml version="1.0" encoding="UTF-8"?>
<svg xmlns="http://www.w3.org/2000/svg" version="1.1" width="90" height="90" viewBox="0 0 90 90"><rect x="0" y="0" width="90" height="90" fill="#ffffff"/><g transform="scale(3.333)"><g transform="translate(1,1)"><path fill-rule="evenodd" d="M8 0L8 4L9 4L9 5L8 5L8 7L9 7L9 6L10 6L10 9L11 9L11 8L12 8L12 9L13 9L13 11L12 11L12 12L11 12L11 13L10 13L10 14L9 14L9 15L10 15L10 16L11 16L11 15L12 15L12 16L13 16L13 15L14 15L14 16L16 16L16 19L15 19L15 20L16 20L16 21L12 21L12 18L14 18L14 17L8 17L8 18L9 18L9 19L8 19L8 21L9 21L9 22L10 22L10 23L8 23L8 25L9 25L9 24L10 24L10 25L11 25L11 24L10 24L10 23L13 23L13 22L15 22L15 23L14 23L14 25L16 25L16 24L15 24L15 23L20 23L20 22L21 22L21 24L17 24L17 25L21 25L21 24L22 24L22 25L25 25L25 24L24 24L24 22L25 22L25 21L23 21L23 20L25 20L25 19L24 19L24 17L25 17L25 15L24 15L24 13L22 13L22 12L24 12L24 9L25 9L25 8L21 8L21 9L20 9L20 8L19 8L19 9L20 9L20 10L17 10L17 9L16 9L16 7L17 7L17 0L14 0L14 1L11 1L11 2L12 2L12 5L13 5L13 6L12 6L12 7L11 7L11 3L10 3L10 2L9 2L9 0ZM14 1L14 2L13 2L13 3L15 3L15 4L16 4L16 3L15 3L15 2L16 2L16 1ZM14 5L14 6L13 6L13 7L12 7L12 8L13 8L13 9L14 9L14 11L13 11L13 12L14 12L14 13L13 13L13 14L12 14L12 13L11 13L11 14L10 14L10 15L11 15L11 14L12 14L12 15L13 15L13 14L16 14L16 11L17 11L17 12L19 12L19 11L17 11L17 10L16 10L16 11L15 11L15 8L14 8L14 6L15 6L15 7L16 7L16 5ZM0 8L0 10L1 10L1 11L2 11L2 10L3 10L3 9L2 9L2 8ZM4 8L4 9L5 9L5 10L4 10L4 11L3 11L3 12L4 12L4 11L5 11L5 10L6 10L6 11L7 11L7 12L5 12L5 13L7 13L7 14L4 14L4 13L3 13L3 14L2 14L2 16L0 16L0 17L2 17L2 16L3 16L3 17L5 17L5 15L7 15L7 14L8 14L8 13L7 13L7 12L8 12L8 11L9 11L9 12L10 12L10 11L11 11L11 10L9 10L9 9L7 9L7 8ZM1 9L1 10L2 10L2 9ZM6 9L6 10L7 10L7 9ZM22 9L22 11L21 11L21 10L20 10L20 11L21 11L21 12L20 12L20 13L17 13L17 15L18 15L18 16L21 16L21 17L22 17L22 18L23 18L23 17L24 17L24 15L23 15L23 14L21 14L21 15L18 15L18 14L20 14L20 13L21 13L21 12L22 12L22 11L23 11L23 9ZM14 11L14 12L15 12L15 11ZM0 13L0 14L1 14L1 13ZM3 14L3 16L4 16L4 14ZM22 15L22 16L23 16L23 15ZM6 16L6 17L7 17L7 16ZM17 17L17 20L20 20L20 17ZM10 18L10 19L9 19L9 21L11 21L11 20L10 20L10 19L11 19L11 18ZM18 18L18 19L19 19L19 18ZM21 19L21 20L22 20L22 19ZM19 21L19 22L20 22L20 21ZM21 21L21 22L22 22L22 23L23 23L23 21ZM0 0L0 7L7 7L7 0ZM1 1L1 6L6 6L6 1ZM2 2L2 5L5 5L5 2ZM18 0L18 7L25 7L25 0ZM19 1L19 6L24 6L24 1ZM20 2L20 5L23 5L23 2ZM0 18L0 25L7 25L7 18ZM1 19L1 24L6 24L6 19ZM2 20L2 23L5 23L5 20Z" fill="#282828"/></g></g></svg>
