<?xml version="1.0" encoding="UTF-8"?>
<svg xmlns="http://www.w3.org/2000/svg" version="1.1" width="90" height="90" viewBox="0 0 90 90"><rect x="0" y="0" width="90" height="90" fill="#ffffff"/><g transform="scale(2.903)"><g transform="translate(1,1)"><path fill-rule="evenodd" d="M8 0L8 1L10 1L10 0ZM13 0L13 1L14 1L14 2L11 2L11 4L10 4L10 3L9 3L9 2L8 2L8 5L9 5L9 6L8 6L8 7L9 7L9 8L8 8L8 9L7 9L7 8L6 8L6 9L4 9L4 8L0 8L0 9L4 9L4 10L5 10L5 11L3 11L3 10L0 10L0 15L1 15L1 11L3 11L3 12L4 12L4 13L3 13L3 14L2 14L2 15L4 15L4 16L5 16L5 17L7 17L7 16L6 16L6 15L8 15L8 13L9 13L9 17L8 17L8 18L9 18L9 20L8 20L8 22L9 22L9 24L10 24L10 25L8 25L8 29L10 29L10 28L12 28L12 29L13 29L13 28L12 28L12 26L13 26L13 27L14 27L14 29L16 29L16 28L17 28L17 29L21 29L21 26L22 26L22 25L23 25L23 27L22 27L22 29L23 29L23 28L26 28L26 27L27 27L27 29L28 29L28 27L29 27L29 25L28 25L28 27L27 27L27 25L26 25L26 24L25 24L25 21L27 21L27 20L28 20L28 22L29 22L29 19L28 19L28 17L29 17L29 16L28 16L28 15L29 15L29 11L28 11L28 10L27 10L27 8L24 8L24 10L25 10L25 11L24 11L24 12L25 12L25 11L26 11L26 10L27 10L27 11L28 11L28 12L27 12L27 13L23 13L23 15L21 15L21 17L20 17L20 19L19 19L19 18L16 18L16 17L19 17L19 16L20 16L20 14L21 14L21 13L19 13L19 12L20 12L20 11L21 11L21 10L23 10L23 9L22 9L22 8L21 8L21 6L20 6L20 5L17 5L17 6L16 6L16 7L15 7L15 5L16 5L16 4L17 4L17 2L16 2L16 4L13 4L13 5L12 5L12 3L14 3L14 2L15 2L15 0ZM17 0L17 1L19 1L19 0ZM20 0L20 1L21 1L21 0ZM18 2L18 3L19 3L19 4L20 4L20 2ZM10 5L10 6L9 6L9 7L10 7L10 8L9 8L9 9L10 9L10 10L7 10L7 9L6 9L6 10L7 10L7 11L5 11L5 13L4 13L4 15L6 15L6 14L7 14L7 13L6 13L6 12L8 12L8 11L9 11L9 12L10 12L10 13L11 13L11 11L14 11L14 10L15 10L15 12L12 12L12 14L11 14L11 15L10 15L10 17L9 17L9 18L10 18L10 17L11 17L11 18L12 18L12 17L14 17L14 18L13 18L13 20L14 20L14 21L15 21L15 17L16 17L16 16L18 16L18 15L19 15L19 13L18 13L18 14L17 14L17 15L16 15L16 14L15 14L15 12L16 12L16 13L17 13L17 12L18 12L18 11L20 11L20 9L21 9L21 8L20 8L20 9L18 9L18 8L17 8L17 7L18 7L18 6L17 6L17 7L16 7L16 8L15 8L15 9L13 9L13 7L14 7L14 5L13 5L13 7L12 7L12 5ZM10 6L10 7L11 7L11 8L12 8L12 7L11 7L11 6ZM19 6L19 7L20 7L20 6ZM28 8L28 9L29 9L29 8ZM17 9L17 10L16 10L16 12L17 12L17 11L18 11L18 9ZM22 11L22 12L23 12L23 11ZM13 13L13 14L12 14L12 16L11 16L11 17L12 17L12 16L14 16L14 15L15 15L15 16L16 16L16 15L15 15L15 14L14 14L14 13ZM13 14L13 15L14 15L14 14ZM26 14L26 18L23 18L23 16L24 16L24 17L25 17L25 16L24 16L24 15L23 15L23 16L22 16L22 18L21 18L21 19L20 19L20 20L19 20L19 19L18 19L18 20L16 20L16 21L18 21L18 20L19 20L19 22L18 22L18 23L17 23L17 26L16 26L16 22L14 22L14 23L11 23L11 22L12 22L12 21L10 21L10 20L12 20L12 19L10 19L10 20L9 20L9 22L10 22L10 24L11 24L11 25L12 25L12 24L13 24L13 26L14 26L14 27L15 27L15 28L16 28L16 27L17 27L17 28L20 28L20 27L19 27L19 25L20 25L20 23L19 23L19 22L20 22L20 20L21 20L21 19L22 19L22 20L24 20L24 19L25 19L25 20L26 20L26 18L27 18L27 17L28 17L28 16L27 16L27 15L28 15L28 14ZM0 16L0 17L2 17L2 18L4 18L4 17L2 17L2 16ZM0 18L0 19L1 19L1 18ZM5 18L5 19L7 19L7 18ZM2 19L2 20L1 20L1 21L2 21L2 20L3 20L3 21L5 21L5 20L3 20L3 19ZM6 20L6 21L7 21L7 20ZM21 21L21 24L24 24L24 21ZM22 22L22 23L23 23L23 22ZM26 22L26 23L27 23L27 24L29 24L29 23L27 23L27 22ZM18 23L18 24L19 24L19 23ZM14 24L14 26L15 26L15 24ZM25 25L25 26L24 26L24 27L25 27L25 26L26 26L26 25ZM9 26L9 27L10 27L10 26ZM17 26L17 27L18 27L18 26ZM0 0L0 7L7 7L7 0ZM1 1L1 6L6 6L6 1ZM2 2L2 5L5 5L5 2ZM22 0L22 7L29 7L29 0ZM23 1L23 6L28 6L28 1ZM24 2L24 5L27 5L27 2ZM0 22L0 29L7 29L7 22ZM1 23L1 28L6 28L6 23ZM2 24L2 27L5 27L5 24Z" fill="#282828"/></g></g></svg>
