<?xml version="1.0" encoding="UTF-8"?>
<svg xmlns="http://www.w3.org/2000/svg" version="1.1" width="90" height="90" viewBox="0 0 90 90"><rect x="0" y="0" width="90" height="90" fill="#ffffff"/><g transform="scale(2.903)"><g transform="translate(1,1)"><path fill-rule="evenodd" d="M9 0L9 1L8 1L8 3L9 3L9 4L8 4L8 8L6 8L6 9L5 9L5 10L4 10L4 8L3 8L3 11L7 11L7 10L8 10L8 12L6 12L6 13L8 13L8 14L3 14L3 13L0 13L0 14L1 14L1 15L0 15L0 16L1 16L1 17L2 17L2 14L3 14L3 19L2 19L2 20L3 20L3 19L4 19L4 21L5 21L5 20L6 20L6 21L7 21L7 20L6 20L6 19L7 19L7 18L8 18L8 20L9 20L9 18L8 18L8 17L7 17L7 16L8 16L8 14L9 14L9 16L10 16L10 17L12 17L12 16L13 16L13 17L14 17L14 18L13 18L13 20L12 20L12 19L11 19L11 18L10 18L10 20L11 20L11 21L10 21L10 22L9 22L9 21L8 21L8 23L9 23L9 25L8 25L8 26L11 26L11 27L10 27L10 29L11 29L11 28L12 28L12 29L14 29L14 28L12 28L12 24L14 24L14 25L13 25L13 27L15 27L15 24L17 24L17 26L16 26L16 27L17 27L17 28L18 28L18 27L19 27L19 28L20 28L20 29L22 29L22 28L23 28L23 29L25 29L25 28L23 28L23 25L25 25L25 26L24 26L24 27L27 27L27 28L26 28L26 29L28 29L28 27L29 27L29 26L28 26L28 25L27 25L27 24L28 24L28 23L27 23L27 21L26 21L26 22L25 22L25 20L26 20L26 19L27 19L27 17L26 17L26 15L27 15L27 16L28 16L28 19L29 19L29 16L28 16L28 15L29 15L29 13L28 13L28 12L29 12L29 11L28 11L28 8L26 8L26 11L25 11L25 10L24 10L24 11L23 11L23 10L22 10L22 9L25 9L25 8L22 8L22 9L19 9L19 11L18 11L18 10L17 10L17 9L16 9L16 12L14 12L14 11L15 11L15 9L14 9L14 8L15 8L15 6L16 6L16 8L18 8L18 7L19 7L19 8L20 8L20 7L21 7L21 5L20 5L20 3L21 3L21 0L18 0L18 1L17 1L17 3L16 3L16 0L15 0L15 3L14 3L14 4L13 4L13 6L12 6L12 5L11 5L11 6L10 6L10 5L9 5L9 4L12 4L12 3L13 3L13 0L12 0L12 1L11 1L11 2L9 2L9 1L10 1L10 0ZM18 1L18 2L19 2L19 3L20 3L20 1ZM15 3L15 5L16 5L16 6L17 6L17 7L18 7L18 6L19 6L19 7L20 7L20 6L19 6L19 4L17 4L17 5L16 5L16 3ZM17 5L17 6L18 6L18 5ZM9 6L9 7L10 7L10 8L8 8L8 9L9 9L9 10L10 10L10 8L11 8L11 9L12 9L12 10L11 10L11 11L9 11L9 13L12 13L12 12L13 12L13 11L14 11L14 10L13 10L13 8L14 8L14 6L13 6L13 8L12 8L12 6L11 6L11 7L10 7L10 6ZM0 8L0 12L2 12L2 11L1 11L1 10L2 10L2 8ZM6 9L6 10L7 10L7 9ZM20 10L20 12L21 12L21 13L22 13L22 15L21 15L21 16L22 16L22 18L21 18L21 17L20 17L20 18L19 18L19 15L20 15L20 13L19 13L19 12L18 12L18 11L17 11L17 12L18 12L18 13L15 13L15 14L13 14L13 15L14 15L14 16L15 16L15 15L16 15L16 17L15 17L15 18L14 18L14 20L13 20L13 21L14 21L14 22L15 22L15 23L14 23L14 24L15 24L15 23L16 23L16 21L14 21L14 20L17 20L17 24L18 24L18 21L20 21L20 20L23 20L23 19L26 19L26 18L25 18L25 17L24 17L24 15L26 15L26 14L25 14L25 13L27 13L27 14L28 14L28 13L27 13L27 12L28 12L28 11L27 11L27 12L25 12L25 13L24 13L24 12L23 12L23 13L22 13L22 11L21 11L21 10ZM4 12L4 13L5 13L5 12ZM10 14L10 16L12 16L12 14ZM17 14L17 17L16 17L16 19L17 19L17 20L18 20L18 19L17 19L17 18L18 18L18 14ZM5 15L5 16L4 16L4 18L5 18L5 19L6 19L6 18L7 18L7 17L6 17L6 16L7 16L7 15ZM5 17L5 18L6 18L6 17ZM23 17L23 18L24 18L24 17ZM0 18L0 19L1 19L1 18ZM20 18L20 19L19 19L19 20L20 20L20 19L21 19L21 18ZM0 20L0 21L1 21L1 20ZM28 20L28 22L29 22L29 20ZM21 21L21 24L24 24L24 21ZM22 22L22 23L23 23L23 22ZM19 23L19 25L18 25L18 26L19 26L19 25L20 25L20 26L21 26L21 27L20 27L20 28L21 28L21 27L22 27L22 25L20 25L20 23ZM25 23L25 25L26 25L26 23ZM27 26L27 27L28 27L28 26ZM8 27L8 29L9 29L9 27ZM15 28L15 29L16 29L16 28ZM0 0L0 7L7 7L7 0ZM1 1L1 6L6 6L6 1ZM2 2L2 5L5 5L5 2ZM22 0L22 7L29 7L29 0ZM23 1L23 6L28 6L28 1ZM24 2L24 5L27 5L27 2ZM0 22L0 29L7 29L7 22ZM1 23L1 28L6 28L6 23ZM2 24L2 27L5 27L5 24Z" fill="#282828"/></g></g></svg>
