<?xml version="1.0" encoding="UTF-8"?>
<svg xmlns="http://www.w3.org/2000/svg" version="1.1" width="90" height="90" viewBox="0 0 90 90"><rect x="0" y="0" width="90" height="90" fill="#ffffff"/><g transform="scale(2.571)"><g transform="translate(1,1)"><path fill-rule="evenodd" d="M9 0L9 1L8 1L8 2L9 2L9 3L8 3L8 4L10 4L10 7L11 7L11 4L12 4L12 5L13 5L13 6L12 6L12 9L13 9L13 8L14 8L14 9L15 9L15 10L17 10L17 9L18 9L18 8L17 8L17 9L16 9L16 7L17 7L17 5L18 5L18 7L19 7L19 5L20 5L20 7L21 7L21 8L22 8L22 9L23 9L23 10L24 10L24 9L23 9L23 8L22 8L22 7L23 7L23 5L24 5L24 4L25 4L25 3L24 3L24 4L23 4L23 3L22 3L22 0L19 0L19 1L20 1L20 2L18 2L18 3L17 3L17 2L16 2L16 4L12 4L12 2L13 2L13 1L11 1L11 2L10 2L10 0ZM15 0L15 1L17 1L17 0ZM23 0L23 1L25 1L25 0ZM14 2L14 3L15 3L15 2ZM20 2L20 3L18 3L18 4L20 4L20 3L21 3L21 2ZM10 3L10 4L11 4L11 3ZM16 4L16 5L17 5L17 4ZM22 4L22 5L21 5L21 7L22 7L22 5L23 5L23 4ZM8 5L8 7L9 7L9 5ZM13 6L13 7L14 7L14 8L15 8L15 7L16 7L16 6L15 6L15 7L14 7L14 6ZM24 6L24 7L25 7L25 6ZM0 8L0 9L3 9L3 10L0 10L0 15L1 15L1 16L2 16L2 15L3 15L3 12L4 12L4 15L5 15L5 14L6 14L6 15L7 15L7 16L6 16L6 17L7 17L7 18L6 18L6 19L7 19L7 20L5 20L5 21L4 21L4 19L5 19L5 18L4 18L4 17L3 17L3 18L4 18L4 19L2 19L2 21L0 21L0 25L1 25L1 22L2 22L2 21L4 21L4 22L5 22L5 23L7 23L7 24L5 24L5 25L7 25L7 24L8 24L8 27L9 27L9 28L8 28L8 33L9 33L9 32L10 32L10 31L11 31L11 30L9 30L9 29L10 29L10 28L11 28L11 29L12 29L12 30L13 30L13 31L12 31L12 33L13 33L13 32L14 32L14 33L19 33L19 32L14 32L14 31L17 31L17 30L15 30L15 29L12 29L12 27L13 27L13 26L11 26L11 27L10 27L10 26L9 26L9 25L11 25L11 24L10 24L10 23L9 23L9 24L8 24L8 22L11 22L11 21L12 21L12 22L13 22L13 23L12 23L12 25L13 25L13 24L14 24L14 25L18 25L18 24L16 24L16 21L12 21L12 19L13 19L13 18L9 18L9 17L11 17L11 16L9 16L9 15L11 15L11 13L12 13L12 14L13 14L13 15L12 15L12 17L13 17L13 16L14 16L14 17L15 17L15 18L17 18L17 17L18 17L18 18L21 18L21 20L22 20L22 21L23 21L23 22L21 22L21 21L20 21L20 20L19 20L19 22L20 22L20 23L19 23L19 24L20 24L20 23L21 23L21 24L22 24L22 25L23 25L23 27L22 27L22 26L21 26L21 25L19 25L19 26L18 26L18 28L16 28L16 27L17 27L17 26L15 26L15 27L14 27L14 28L16 28L16 29L18 29L18 31L19 31L19 29L18 29L18 28L20 28L20 30L21 30L21 32L23 32L23 33L25 33L25 32L27 32L27 30L30 30L30 31L29 31L29 32L31 32L31 33L32 33L32 32L31 32L31 30L33 30L33 29L32 29L32 28L33 28L33 27L32 27L32 28L31 28L31 26L33 26L33 25L31 25L31 26L29 26L29 24L33 24L33 23L28 23L28 22L27 22L27 21L29 21L29 22L33 22L33 20L32 20L32 19L31 19L31 18L33 18L33 17L30 17L30 19L27 19L27 17L29 17L29 16L27 16L27 15L24 15L24 16L22 16L22 15L23 15L23 14L24 14L24 13L23 13L23 11L22 11L22 10L21 10L21 9L19 9L19 10L18 10L18 11L19 11L19 10L21 10L21 11L20 11L20 12L19 12L19 14L20 14L20 15L19 15L19 17L18 17L18 16L17 16L17 17L16 17L16 15L17 15L17 14L16 14L16 13L18 13L18 12L17 12L17 11L16 11L16 13L12 13L12 11L13 11L13 10L11 10L11 11L10 11L10 9L11 9L11 8L6 8L6 9L5 9L5 8ZM25 8L25 10L26 10L26 8ZM27 8L27 9L28 9L28 8ZM29 8L29 10L30 10L30 11L29 11L29 12L28 12L28 10L27 10L27 11L24 11L24 12L25 12L25 13L26 13L26 14L28 14L28 13L30 13L30 14L31 14L31 15L30 15L30 16L31 16L31 15L32 15L32 13L33 13L33 11L32 11L32 10L31 10L31 9L32 9L32 8L31 8L31 9L30 9L30 8ZM4 9L4 10L3 10L3 11L5 11L5 12L7 12L7 13L6 13L6 14L8 14L8 15L9 15L9 14L10 14L10 13L11 13L11 12L10 12L10 13L9 13L9 11L8 11L8 10L9 10L9 9L8 9L8 10L7 10L7 9L6 9L6 10L7 10L7 11L5 11L5 9ZM1 11L1 14L2 14L2 11ZM14 11L14 12L15 12L15 11ZM20 12L20 13L22 13L22 14L23 14L23 13L22 13L22 12ZM26 12L26 13L27 13L27 12ZM30 12L30 13L31 13L31 12ZM14 15L14 16L15 16L15 15ZM8 16L8 17L9 17L9 16ZM20 16L20 17L22 17L22 18L23 18L23 21L24 21L24 22L23 22L23 23L22 23L22 24L23 24L23 25L24 25L24 24L23 24L23 23L25 23L25 22L26 22L26 21L27 21L27 19L26 19L26 17L27 17L27 16L26 16L26 17L24 17L24 18L23 18L23 17L22 17L22 16ZM0 17L0 18L1 18L1 17ZM24 18L24 19L25 19L25 18ZM8 19L8 20L9 20L9 21L10 21L10 19ZM14 19L14 20L15 20L15 19ZM16 19L16 20L17 20L17 19ZM25 20L25 21L26 21L26 20ZM29 20L29 21L30 21L30 20ZM31 20L31 21L32 21L32 20ZM5 21L5 22L8 22L8 21ZM17 21L17 23L18 23L18 21ZM2 23L2 25L3 25L3 24L4 24L4 23ZM14 23L14 24L15 24L15 23ZM27 23L27 24L28 24L28 23ZM25 25L25 28L28 28L28 25ZM19 26L19 27L20 27L20 28L21 28L21 29L22 29L22 30L23 30L23 32L25 32L25 31L26 31L26 30L27 30L27 29L26 29L26 30L25 30L25 31L24 31L24 30L23 30L23 29L24 29L24 28L23 28L23 29L22 29L22 28L21 28L21 27L20 27L20 26ZM26 26L26 27L27 27L27 26ZM29 28L29 29L31 29L31 28ZM0 0L0 7L7 7L7 0ZM1 1L1 6L6 6L6 1ZM2 2L2 5L5 5L5 2ZM26 0L26 7L33 7L33 0ZM27 1L27 6L32 6L32 1ZM28 2L28 5L31 5L31 2ZM0 26L0 33L7 33L7 26ZM1 27L1 32L6 32L6 27ZM2 28L2 31L5 31L5 28Z" fill="#282828"/></g></g></svg>
