<?xml version="1.0" encoding="UTF-8"?>
<svg xmlns="http://www.w3.org/2000/svg" version="1.1" width="90" height="90" viewBox="0 0 90 90"><rect x="0" y="0" width="90" height="90" fill="#ffffff"/><g transform="scale(3.333)"><g transform="translate(1,1)"><path fill-rule="evenodd" d="M9 0L9 1L8 1L8 2L9 2L9 3L8 3L8 4L10 4L10 7L11 7L11 4L12 4L12 5L13 5L13 4L16 4L16 5L14 5L14 8L13 8L13 6L12 6L12 8L13 8L13 9L11 9L11 8L6 8L6 9L5 9L5 8L0 8L0 10L1 10L1 11L0 11L0 17L1 17L1 11L2 11L2 10L1 10L1 9L3 9L3 11L4 11L4 12L2 12L2 15L3 15L3 16L2 16L2 17L3 17L3 16L4 16L4 17L8 17L8 19L9 19L9 20L8 20L8 25L9 25L9 23L10 23L10 25L11 25L11 22L12 22L12 24L13 24L13 25L15 25L15 24L18 24L18 23L17 23L17 22L19 22L19 23L20 23L20 22L19 22L19 21L21 21L21 25L25 25L25 21L24 21L24 20L25 20L25 18L24 18L24 17L25 17L25 16L24 16L24 15L25 15L25 14L24 14L24 13L22 13L22 15L23 15L23 16L24 16L24 17L23 17L23 18L24 18L24 20L22 20L22 21L21 21L21 19L22 19L22 18L21 18L21 17L22 17L22 16L19 16L19 14L20 14L20 15L21 15L21 14L20 14L20 13L21 13L21 12L20 12L20 8L19 8L19 10L18 10L18 8L17 8L17 9L16 9L16 8L15 8L15 6L16 6L16 7L17 7L17 6L16 6L16 5L17 5L17 4L16 4L16 3L17 3L17 0L16 0L16 1L15 1L15 0L14 0L14 1L11 1L11 2L10 2L10 0ZM14 1L14 2L12 2L12 3L15 3L15 1ZM10 3L10 4L11 4L11 3ZM8 5L8 7L9 7L9 5ZM21 8L21 10L22 10L22 8ZM23 8L23 10L24 10L24 11L23 11L23 12L25 12L25 10L24 10L24 8ZM4 9L4 10L5 10L5 9ZM6 9L6 10L7 10L7 11L6 11L6 12L4 12L4 13L3 13L3 15L5 15L5 16L7 16L7 15L6 15L6 14L7 14L7 13L6 13L6 12L8 12L8 14L10 14L10 13L11 13L11 12L12 12L12 13L13 13L13 12L15 12L15 11L13 11L13 10L11 10L11 9L10 9L10 11L11 11L11 12L10 12L10 13L9 13L9 12L8 12L8 11L9 11L9 10L7 10L7 9ZM14 9L14 10L15 10L15 9ZM16 10L16 13L14 13L14 14L11 14L11 15L13 15L13 16L11 16L11 17L10 17L10 20L11 20L11 21L9 21L9 22L11 22L11 21L12 21L12 22L13 22L13 21L14 21L14 19L15 19L15 20L16 20L16 17L15 17L15 18L14 18L14 17L13 17L13 16L14 16L14 15L15 15L15 16L17 16L17 15L15 15L15 14L19 14L19 13L20 13L20 12L19 12L19 11L18 11L18 10ZM12 11L12 12L13 12L13 11ZM17 12L17 13L19 13L19 12ZM4 13L4 14L6 14L6 13ZM23 14L23 15L24 15L24 14ZM9 15L9 16L8 16L8 17L9 17L9 16L10 16L10 15ZM11 17L11 18L13 18L13 19L12 19L12 21L13 21L13 19L14 19L14 18L13 18L13 17ZM17 17L17 20L20 20L20 17ZM18 18L18 19L19 19L19 18ZM15 21L15 22L17 22L17 21ZM22 21L22 22L23 22L23 23L22 23L22 24L24 24L24 22L23 22L23 21ZM13 23L13 24L14 24L14 23ZM0 0L0 7L7 7L7 0ZM1 1L1 6L6 6L6 1ZM2 2L2 5L5 5L5 2ZM18 0L18 7L25 7L25 0ZM19 1L19 6L24 6L24 1ZM20 2L20 5L23 5L23 2ZM0 18L0 25L7 25L7 18ZM1 19L1 24L6 24L6 19ZM2 20L2 23L5 23L5 20Z" fill="#282828"/></g></g></svg>
