<?xml version="1.0" encoding="UTF-8"?>
<svg xmlns="http://www.w3.org/2000/svg" version="1.1" width="90" height="90" viewBox="0 0 90 90"><rect x="0" y="0" width="90" height="90" fill="#ffffff"/><g transform="scale(2.903)"><g transform="translate(1,1)"><path fill-rule="evenodd" d="M8 0L8 4L9 4L9 5L8 5L8 7L9 7L9 6L10 6L10 9L11 9L11 8L12 8L12 9L13 9L13 11L12 11L12 12L11 12L11 13L10 13L10 14L9 14L9 13L8 13L8 15L9 15L9 16L6 16L6 15L7 15L7 14L6 14L6 15L3 15L3 14L4 14L4 13L7 13L7 12L10 12L10 11L11 11L11 10L9 10L9 11L8 11L8 10L4 10L4 11L3 11L3 9L2 9L2 8L0 8L0 9L2 9L2 10L1 10L1 13L2 13L2 14L0 14L0 16L1 16L1 17L0 17L0 18L1 18L1 17L3 17L3 18L2 18L2 19L4 19L4 20L0 20L0 21L7 21L7 20L8 20L8 22L9 22L9 23L8 23L8 25L9 25L9 27L8 27L8 29L10 29L10 28L11 28L11 29L12 29L12 28L13 28L13 29L15 29L15 27L17 27L17 28L19 28L19 27L20 27L20 29L22 29L22 25L28 25L28 26L27 26L27 29L28 29L28 28L29 28L29 25L28 25L28 24L26 24L26 23L25 23L25 22L27 22L27 23L29 23L29 21L26 21L26 20L25 20L25 19L23 19L23 18L25 18L25 17L26 17L26 16L25 16L25 17L22 17L22 16L24 16L24 15L26 15L26 14L25 14L25 13L27 13L27 15L28 15L28 17L27 17L27 18L26 18L26 19L29 19L29 13L27 13L27 12L28 12L28 11L29 11L29 10L28 10L28 9L29 9L29 8L25 8L25 9L24 9L24 8L23 8L23 10L22 10L22 9L21 9L21 8L20 8L20 9L18 9L18 10L17 10L17 8L19 8L19 6L20 6L20 7L21 7L21 6L20 6L20 3L21 3L21 1L20 1L20 0L18 0L18 1L16 1L16 0L15 0L15 1L14 1L14 0L13 0L13 1L11 1L11 2L12 2L12 5L13 5L13 6L12 6L12 7L11 7L11 3L10 3L10 2L9 2L9 0ZM13 1L13 3L14 3L14 4L13 4L13 5L15 5L15 7L16 7L16 6L17 6L17 7L18 7L18 6L19 6L19 4L17 4L17 5L15 5L15 3L14 3L14 1ZM15 1L15 2L16 2L16 1ZM18 1L18 2L19 2L19 1ZM13 6L13 7L12 7L12 8L13 8L13 9L14 9L14 11L13 11L13 12L12 12L12 13L11 13L11 14L10 14L10 16L9 16L9 17L8 17L8 18L9 18L9 19L8 19L8 20L9 20L9 22L12 22L12 21L13 21L13 22L16 22L16 23L17 23L17 22L18 22L18 21L19 21L19 20L21 20L21 19L22 19L22 20L23 20L23 19L22 19L22 18L21 18L21 17L20 17L20 18L19 18L19 16L22 16L22 15L20 15L20 14L22 14L22 13L23 13L23 15L24 15L24 13L25 13L25 10L27 10L27 11L26 11L26 12L27 12L27 11L28 11L28 10L27 10L27 9L25 9L25 10L24 10L24 12L23 12L23 11L21 11L21 12L22 12L22 13L20 13L20 10L21 10L21 9L20 9L20 10L19 10L19 13L20 13L20 14L18 14L18 13L17 13L17 14L16 14L16 13L15 13L15 14L16 14L16 15L14 15L14 17L15 17L15 18L13 18L13 17L12 17L12 16L13 16L13 15L12 15L12 16L11 16L11 14L12 14L12 13L13 13L13 14L14 14L14 13L13 13L13 12L17 12L17 10L16 10L16 11L15 11L15 9L16 9L16 8L15 8L15 9L14 9L14 6ZM4 8L4 9L7 9L7 8ZM6 11L6 12L7 12L7 11ZM3 12L3 13L4 13L4 12ZM17 14L17 15L16 15L16 16L15 16L15 17L16 17L16 18L15 18L15 19L14 19L14 20L13 20L13 19L12 19L12 20L11 20L11 17L9 17L9 18L10 18L10 19L9 19L9 20L10 20L10 21L12 21L12 20L13 20L13 21L15 21L15 19L16 19L16 20L18 20L18 19L19 19L19 18L17 18L17 17L16 17L16 16L18 16L18 14ZM1 15L1 16L2 16L2 15ZM4 16L4 18L7 18L7 17L6 17L6 16ZM16 18L16 19L17 19L17 18ZM5 19L5 20L7 20L7 19ZM16 21L16 22L17 22L17 21ZM21 21L21 24L24 24L24 21ZM22 22L22 23L23 23L23 22ZM10 23L10 26L11 26L11 28L12 28L12 27L13 27L13 28L14 28L14 27L15 27L15 26L16 26L16 25L17 25L17 26L21 26L21 25L19 25L19 24L20 24L20 23L19 23L19 24L15 24L15 23L14 23L14 25L15 25L15 26L13 26L13 25L12 25L12 24L13 24L13 23L12 23L12 24L11 24L11 23ZM9 27L9 28L10 28L10 27ZM24 27L24 28L23 28L23 29L24 29L24 28L25 28L25 29L26 29L26 27ZM0 0L0 7L7 7L7 0ZM1 1L1 6L6 6L6 1ZM2 2L2 5L5 5L5 2ZM22 0L22 7L29 7L29 0ZM23 1L23 6L28 6L28 1ZM24 2L24 5L27 5L27 2ZM0 22L0 29L7 29L7 22ZM1 23L1 28L6 28L6 23ZM2 24L2 27L5 27L5 24Z" fill="#282828"/></g></g></svg>
