<?xml version="1.0" encoding="UTF-8"?>
<svg xmlns="http://www.w3.org/2000/svg" version="1.1" width="90" height="90" viewBox="0 0 90 90"><rect x="0" y="0" width="90" height="90" fill="#ffffff"/><g transform="scale(3.333)"><g transform="translate(1,1)"><path fill-rule="evenodd" d="M8 0L8 4L9 4L9 5L8 5L8 7L9 7L9 9L8 9L8 10L6 10L6 11L4 11L4 12L5 12L5 13L4 13L4 14L3 14L3 10L0 10L0 11L2 11L2 13L0 13L0 14L3 14L3 15L2 15L2 16L0 16L0 17L3 17L3 15L4 15L4 14L6 14L6 15L5 15L5 16L4 16L4 17L5 17L5 16L6 16L6 17L7 17L7 16L8 16L8 18L9 18L9 19L8 19L8 21L10 21L10 22L9 22L9 23L8 23L8 25L9 25L9 23L10 23L10 25L13 25L13 22L14 22L14 23L15 23L15 25L16 25L16 23L18 23L18 24L17 24L17 25L18 25L18 24L19 24L19 25L21 25L21 24L22 24L22 25L25 25L25 24L24 24L24 22L23 22L23 23L22 23L22 22L21 22L21 21L23 21L23 20L24 20L24 21L25 21L25 20L24 20L24 17L25 17L25 15L24 15L24 13L22 13L22 12L23 12L23 11L24 11L24 9L25 9L25 8L21 8L21 11L20 11L20 12L19 12L19 11L18 11L18 10L19 10L19 9L20 9L20 8L19 8L19 9L18 9L18 10L17 10L17 9L14 9L14 7L15 7L15 8L17 8L17 5L16 5L16 4L17 4L17 2L15 2L15 3L13 3L13 4L14 4L14 5L12 5L12 2L11 2L11 3L10 3L10 1L13 1L13 2L14 2L14 0L10 0L10 1L9 1L9 0ZM16 0L16 1L17 1L17 0ZM9 3L9 4L10 4L10 3ZM9 5L9 7L10 7L10 9L9 9L9 10L10 10L10 11L11 11L11 12L9 12L9 11L6 11L6 12L8 12L8 14L7 14L7 13L6 13L6 14L7 14L7 15L6 15L6 16L7 16L7 15L8 15L8 16L10 16L10 14L13 14L13 15L12 15L12 16L11 16L11 17L9 17L9 18L11 18L11 17L12 17L12 19L11 19L11 21L12 21L12 22L13 22L13 21L15 21L15 23L16 23L16 22L17 22L17 21L16 21L16 17L15 17L15 16L19 16L19 15L20 15L20 16L21 16L21 17L22 17L22 18L23 18L23 17L24 17L24 15L23 15L23 14L20 14L20 13L21 13L21 12L22 12L22 11L21 11L21 12L20 12L20 13L19 13L19 12L18 12L18 11L17 11L17 14L16 14L16 15L15 15L15 14L14 14L14 12L12 12L12 11L11 11L11 10L10 10L10 9L12 9L12 10L13 10L13 7L14 7L14 6L13 6L13 7L12 7L12 5ZM15 5L15 7L16 7L16 5ZM10 6L10 7L11 7L11 8L12 8L12 7L11 7L11 6ZM0 8L0 9L2 9L2 8ZM4 8L4 9L7 9L7 8ZM22 9L22 10L23 10L23 9ZM14 10L14 11L15 11L15 13L16 13L16 11L15 11L15 10ZM11 12L11 13L12 13L12 12ZM9 13L9 14L8 14L8 15L9 15L9 14L10 14L10 13ZM17 14L17 15L19 15L19 14ZM14 15L14 16L15 16L15 15ZM22 15L22 16L23 16L23 15ZM12 16L12 17L13 17L13 16ZM14 17L14 18L13 18L13 19L14 19L14 20L15 20L15 17ZM17 17L17 20L20 20L20 17ZM18 18L18 19L19 19L19 18ZM9 19L9 20L10 20L10 19ZM21 19L21 20L22 20L22 19ZM19 21L19 22L20 22L20 23L19 23L19 24L21 24L21 22L20 22L20 21ZM10 22L10 23L11 23L11 24L12 24L12 23L11 23L11 22ZM0 0L0 7L7 7L7 0ZM1 1L1 6L6 6L6 1ZM2 2L2 5L5 5L5 2ZM18 0L18 7L25 7L25 0ZM19 1L19 6L24 6L24 1ZM20 2L20 5L23 5L23 2ZM0 18L0 25L7 25L7 18ZM1 19L1 24L6 24L6 19ZM2 20L2 23L5 23L5 20Z" fill="#282828"/></g></g></svg>
