<?xml version="1.0" encoding="UTF-8"?>
<svg xmlns="http://www.w3.org/2000/svg" version="1.1" width="90" height="90" viewBox="0 0 90 90"><rect x="0" y="0" width="90" height="90" fill="#ffffff"/><g transform="scale(3.333)"><g transform="translate(1,1)"><path fill-rule="evenodd" d="M9 0L9 1L8 1L8 3L9 3L9 4L8 4L8 8L6 8L6 9L5 9L5 10L4 10L4 8L3 8L3 9L2 9L2 8L0 8L0 12L1 12L1 9L2 9L2 10L3 10L3 11L2 11L2 15L1 15L1 14L0 14L0 15L1 15L1 16L0 16L0 17L2 17L2 15L3 15L3 16L4 16L4 17L7 17L7 16L9 16L9 15L10 15L10 17L13 17L13 18L12 18L12 20L11 20L11 18L9 18L9 17L8 17L8 19L9 19L9 21L8 21L8 22L9 22L9 23L8 23L8 25L9 25L9 23L10 23L10 25L12 25L12 24L11 24L11 22L9 22L9 21L12 21L12 20L13 20L13 22L14 22L14 23L13 23L13 25L15 25L15 24L16 24L16 25L17 25L17 23L15 23L15 22L16 22L16 21L19 21L19 22L20 22L20 23L19 23L19 24L20 24L20 25L21 25L21 24L22 24L22 23L23 23L23 22L22 22L22 20L23 20L23 21L24 21L24 20L23 20L23 18L24 18L24 19L25 19L25 13L24 13L24 14L23 14L23 15L24 15L24 17L23 17L23 18L22 18L22 20L21 20L21 15L22 15L22 14L20 14L20 13L19 13L19 12L21 12L21 13L23 13L23 12L24 12L24 11L25 11L25 9L24 9L24 8L22 8L22 9L24 9L24 11L23 11L23 10L22 10L22 11L23 11L23 12L21 12L21 10L20 10L20 11L19 11L19 9L21 9L21 8L18 8L18 9L17 9L17 8L16 8L16 7L17 7L17 4L16 4L16 3L15 3L15 2L17 2L17 1L16 1L16 0L14 0L14 5L13 5L13 6L12 6L12 5L11 5L11 6L10 6L10 5L9 5L9 4L12 4L12 3L13 3L13 0L12 0L12 1L11 1L11 2L9 2L9 1L10 1L10 0ZM14 5L14 6L13 6L13 8L12 8L12 6L11 6L11 7L10 7L10 6L9 6L9 7L10 7L10 8L8 8L8 9L6 9L6 10L10 10L10 8L11 8L11 9L12 9L12 10L11 10L11 11L8 11L8 14L7 14L7 13L6 13L6 14L5 14L5 15L6 15L6 16L7 16L7 15L9 15L9 13L12 13L12 12L13 12L13 11L14 11L14 13L13 13L13 15L14 15L14 16L13 16L13 17L15 17L15 16L18 16L18 15L20 15L20 14L17 14L17 13L16 13L16 12L17 12L17 11L18 11L18 10L17 10L17 11L16 11L16 9L15 9L15 10L14 10L14 6L15 6L15 7L16 7L16 6L15 6L15 5ZM3 11L3 12L4 12L4 13L5 13L5 11ZM6 11L6 12L7 12L7 11ZM15 11L15 12L16 12L16 11ZM14 13L14 14L15 14L15 13ZM3 14L3 15L4 15L4 14ZM6 14L6 15L7 15L7 14ZM11 14L11 16L12 16L12 14ZM17 17L17 20L20 20L20 17ZM13 18L13 20L14 20L14 21L16 21L16 19L15 19L15 20L14 20L14 18ZM18 18L18 19L19 19L19 18ZM21 22L21 23L22 23L22 22ZM24 22L24 23L25 23L25 22ZM14 23L14 24L15 24L15 23ZM23 24L23 25L25 25L25 24ZM0 0L0 7L7 7L7 0ZM1 1L1 6L6 6L6 1ZM2 2L2 5L5 5L5 2ZM18 0L18 7L25 7L25 0ZM19 1L19 6L24 6L24 1ZM20 2L20 5L23 5L23 2ZM0 18L0 25L7 25L7 18ZM1 19L1 24L6 24L6 19ZM2 20L2 23L5 23L5 20Z" fill="#282828"/></g></g></svg>
