<?xml version="1.0" encoding="UTF-8"?>
<svg xmlns="http://www.w3.org/2000/svg" version="1.1" width="90" height="90" viewBox="0 0 90 90"><rect x="0" y="0" width="90" height="90" fill="#ffffff"/><g transform="scale(3.333)"><g transform="translate(1,1)"><path fill-rule="evenodd" d="M10 0L10 1L8 1L8 3L9 3L9 4L8 4L8 8L6 8L6 9L8 9L8 10L10 10L10 9L8 9L8 8L9 8L9 5L10 5L10 8L12 8L12 7L13 7L13 6L14 6L14 7L15 7L15 8L13 8L13 9L15 9L15 8L16 8L16 10L17 10L17 11L15 11L15 10L13 10L13 16L14 16L14 15L15 15L15 16L16 16L16 17L13 17L13 18L14 18L14 22L15 22L15 25L18 25L18 24L19 24L19 25L20 25L20 24L21 24L21 19L22 19L22 20L24 20L24 19L25 19L25 13L24 13L24 14L23 14L23 15L24 15L24 17L22 17L22 18L21 18L21 16L16 16L16 15L17 15L17 14L18 14L18 15L20 15L20 14L19 14L19 12L21 12L21 13L23 13L23 12L24 12L24 11L25 11L25 9L24 9L24 8L22 8L22 9L21 9L21 8L18 8L18 9L17 9L17 8L16 8L16 7L17 7L17 4L15 4L15 3L16 3L16 2L17 2L17 1L16 1L16 0L14 0L14 1L13 1L13 2L14 2L14 5L13 5L13 4L12 4L12 5L13 5L13 6L12 6L12 7L11 7L11 4L10 4L10 3L9 3L9 2L11 2L11 0ZM14 1L14 2L15 2L15 1ZM15 6L15 7L16 7L16 6ZM0 8L0 11L1 11L1 12L0 12L0 13L2 13L2 15L1 15L1 14L0 14L0 15L1 15L1 16L0 16L0 17L4 17L4 16L5 16L5 13L7 13L7 14L6 14L6 15L7 15L7 16L6 16L6 17L7 17L7 16L8 16L8 19L9 19L9 16L11 16L11 15L12 15L12 14L11 14L11 15L10 15L10 14L9 14L9 16L8 16L8 12L10 12L10 13L12 13L12 12L11 12L11 11L8 11L8 12L6 12L6 11L7 11L7 10L6 10L6 11L4 11L4 10L5 10L5 9L4 9L4 8L3 8L3 9L2 9L2 8ZM1 9L1 11L2 11L2 9ZM19 9L19 10L18 10L18 11L17 11L17 12L19 12L19 10L21 10L21 12L23 12L23 11L24 11L24 9L23 9L23 10L21 10L21 9ZM3 11L3 12L2 12L2 13L3 13L3 15L4 15L4 13L3 13L3 12L4 12L4 11ZM14 11L14 14L15 14L15 15L16 15L16 14L17 14L17 13L15 13L15 11ZM21 14L21 15L22 15L22 14ZM10 17L10 18L12 18L12 17ZM17 17L17 20L20 20L20 17ZM18 18L18 19L19 19L19 18ZM23 18L23 19L24 19L24 18ZM10 19L10 20L9 20L9 21L8 21L8 22L9 22L9 23L8 23L8 25L9 25L9 24L11 24L11 23L10 23L10 22L11 22L11 21L12 21L12 23L13 23L13 25L14 25L14 23L13 23L13 20L12 20L12 19ZM10 20L10 21L11 21L11 20ZM15 20L15 22L16 22L16 23L17 23L17 24L18 24L18 23L20 23L20 22L19 22L19 21L16 21L16 20ZM22 21L22 22L23 22L23 21ZM24 22L24 23L25 23L25 22ZM23 24L23 25L25 25L25 24ZM0 0L0 7L7 7L7 0ZM1 1L1 6L6 6L6 1ZM2 2L2 5L5 5L5 2ZM18 0L18 7L25 7L25 0ZM19 1L19 6L24 6L24 1ZM20 2L20 5L23 5L23 2ZM0 18L0 25L7 25L7 18ZM1 19L1 24L6 24L6 19ZM2 20L2 23L5 23L5 20Z" fill="#282828"/></g></g></svg>
