<?xml version="1.0" encoding="UTF-8"?>
<svg xmlns="http://www.w3.org/2000/svg" version="1.1" width="90" height="90" viewBox="0 0 90 90"><rect x="0" y="0" width="90" height="90" fill="#ffffff"/><g transform="scale(3.333)"><g transform="translate(1,1)"><path fill-rule="evenodd" d="M10 0L10 1L8 1L8 2L9 2L9 3L8 3L8 4L9 4L9 3L13 3L13 4L10 4L10 5L8 5L8 7L9 7L9 8L6 8L6 9L5 9L5 8L0 8L0 9L1 9L1 10L0 10L0 11L1 11L1 10L2 10L2 12L4 12L4 13L2 13L2 14L3 14L3 16L2 16L2 17L3 17L3 16L4 16L4 17L5 17L5 16L4 16L4 15L5 15L5 14L6 14L6 15L8 15L8 19L9 19L9 20L8 20L8 25L10 25L10 24L11 24L11 25L15 25L15 24L17 24L17 23L18 23L18 24L19 24L19 25L25 25L25 21L24 21L24 19L25 19L25 18L24 18L24 17L25 17L25 16L24 16L24 15L25 15L25 14L24 14L24 13L22 13L22 15L23 15L23 16L24 16L24 17L22 17L22 16L20 16L20 14L18 14L18 15L17 15L17 13L19 13L19 11L18 11L18 10L20 10L20 8L19 8L19 9L18 9L18 8L15 8L15 6L16 6L16 7L17 7L17 6L16 6L16 5L17 5L17 4L16 4L16 5L14 5L14 8L13 8L13 6L12 6L12 9L11 9L11 10L10 10L10 11L11 11L11 10L12 10L12 12L13 12L13 10L12 10L12 9L14 9L14 8L15 8L15 9L16 9L16 10L15 10L15 12L14 12L14 13L16 13L16 14L15 14L15 15L14 15L14 16L13 16L13 19L14 19L14 20L12 20L12 19L9 19L9 18L11 18L11 17L12 17L12 15L11 15L11 14L12 14L12 13L11 13L11 12L9 12L9 13L7 13L7 12L8 12L8 11L9 11L9 10L8 10L8 9L10 9L10 8L11 8L11 6L10 6L10 5L13 5L13 4L15 4L15 3L16 3L16 2L17 2L17 0L16 0L16 1L15 1L15 0L14 0L14 2L15 2L15 3L13 3L13 2L10 2L10 1L13 1L13 0ZM9 6L9 7L10 7L10 6ZM21 8L21 10L24 10L24 11L23 11L23 12L25 12L25 10L24 10L24 8L23 8L23 9L22 9L22 8ZM2 9L2 10L3 10L3 9ZM6 9L6 10L5 10L5 13L4 13L4 14L5 14L5 13L6 13L6 14L7 14L7 13L6 13L6 12L7 12L7 11L8 11L8 10L7 10L7 9ZM17 9L17 10L18 10L18 9ZM6 10L6 11L7 11L7 10ZM0 12L0 17L1 17L1 12ZM16 12L16 13L17 13L17 12ZM20 12L20 13L21 13L21 12ZM9 13L9 14L11 14L11 13ZM23 14L23 15L24 15L24 14ZM9 15L9 16L10 16L10 15ZM6 16L6 17L7 17L7 16ZM14 17L14 19L15 19L15 20L16 20L16 17ZM17 17L17 20L20 20L20 17ZM21 17L21 20L23 20L23 19L24 19L24 18L22 18L22 17ZM18 18L18 19L19 19L19 18ZM9 20L9 22L10 22L10 23L12 23L12 24L14 24L14 23L12 23L12 22L13 22L13 21L12 21L12 22L10 22L10 21L11 21L11 20ZM14 21L14 22L15 22L15 23L17 23L17 22L16 22L16 21ZM19 21L19 22L18 22L18 23L19 23L19 24L24 24L24 22L22 22L22 21L21 21L21 22L20 22L20 21ZM19 22L19 23L20 23L20 22ZM21 22L21 23L22 23L22 22ZM0 0L0 7L7 7L7 0ZM1 1L1 6L6 6L6 1ZM2 2L2 5L5 5L5 2ZM18 0L18 7L25 7L25 0ZM19 1L19 6L24 6L24 1ZM20 2L20 5L23 5L23 2ZM0 18L0 25L7 25L7 18ZM1 19L1 24L6 24L6 19ZM2 20L2 23L5 23L5 20Z" fill="#282828"/></g></g></svg>
