<?xml version="1.0" encoding="UTF-8"?>
<svg xmlns="http://www.w3.org/2000/svg" version="1.1" width="90" height="90" viewBox="0 0 90 90"><rect x="0" y="0" width="90" height="90" fill="#ffffff"/><g transform="scale(3.333)"><g transform="translate(1,1)"><path fill-rule="evenodd" d="M8 0L8 4L10 4L10 3L11 3L11 4L12 4L12 2L11 2L11 0ZM12 0L12 1L13 1L13 0ZM14 0L14 3L13 3L13 5L11 5L11 6L10 6L10 7L9 7L9 5L8 5L8 7L9 7L9 8L10 8L10 7L11 7L11 6L12 6L12 8L11 8L11 9L8 9L8 10L4 10L4 9L7 9L7 8L4 8L4 9L3 9L3 10L1 10L1 11L0 11L0 12L1 12L1 13L0 13L0 14L1 14L1 13L2 13L2 14L4 14L4 13L5 13L5 15L2 15L2 16L0 16L0 17L4 17L4 16L6 16L6 17L7 17L7 16L6 16L6 15L7 15L7 14L6 14L6 13L8 13L8 14L10 14L10 17L12 17L12 18L11 18L11 20L10 20L10 19L8 19L8 21L9 21L9 22L10 22L10 23L13 23L13 22L15 22L15 21L12 21L12 19L13 19L13 18L14 18L14 17L13 17L13 15L14 15L14 16L16 16L16 21L19 21L19 22L17 22L17 24L18 24L18 25L19 25L19 23L20 23L20 21L21 21L21 20L22 20L22 21L23 21L23 22L21 22L21 23L22 23L22 24L23 24L23 25L25 25L25 24L24 24L24 22L25 22L25 21L23 21L23 19L24 19L24 17L25 17L25 15L24 15L24 13L23 13L23 14L22 14L22 13L20 13L20 12L21 12L21 10L25 10L25 8L21 8L21 9L20 9L20 8L19 8L19 9L20 9L20 11L19 11L19 10L17 10L17 8L16 8L16 7L17 7L17 6L16 6L16 7L15 7L15 5L17 5L17 0ZM15 1L15 2L16 2L16 1ZM9 2L9 3L10 3L10 2ZM13 6L13 8L12 8L12 9L11 9L11 10L8 10L8 11L6 11L6 12L8 12L8 13L10 13L10 14L11 14L11 16L12 16L12 15L13 15L13 14L15 14L15 13L16 13L16 16L18 16L18 15L19 15L19 16L22 16L22 15L21 15L21 14L20 14L20 13L19 13L19 11L17 11L17 12L14 12L14 9L15 9L15 10L16 10L16 8L14 8L14 6ZM0 8L0 9L2 9L2 8ZM12 9L12 10L11 10L11 11L10 11L10 13L11 13L11 12L12 12L12 13L14 13L14 12L12 12L12 11L13 11L13 9ZM1 11L1 12L2 12L2 13L4 13L4 12L5 12L5 11L4 11L4 12L2 12L2 11ZM8 11L8 12L9 12L9 11ZM22 11L22 12L23 12L23 11ZM17 12L17 13L18 13L18 14L17 14L17 15L18 15L18 14L19 14L19 15L20 15L20 14L19 14L19 13L18 13L18 12ZM8 15L8 16L9 16L9 15ZM23 15L23 17L21 17L21 18L22 18L22 19L23 19L23 17L24 17L24 15ZM8 17L8 18L9 18L9 17ZM17 17L17 20L20 20L20 17ZM18 18L18 19L19 19L19 18ZM8 23L8 25L11 25L11 24L9 24L9 23ZM14 23L14 25L16 25L16 23ZM20 24L20 25L21 25L21 24ZM0 0L0 7L7 7L7 0ZM1 1L1 6L6 6L6 1ZM2 2L2 5L5 5L5 2ZM18 0L18 7L25 7L25 0ZM19 1L19 6L24 6L24 1ZM20 2L20 5L23 5L23 2ZM0 18L0 25L7 25L7 18ZM1 19L1 24L6 24L6 19ZM2 20L2 23L5 23L5 20Z" fill="#282828"/></g></g></svg>
