<?xml version="1.0" encoding="UTF-8"?>
<svg xmlns="http://www.w3.org/2000/svg" version="1.1" width="90" height="90" viewBox="0 0 90 90"><rect x="0" y="0" width="90" height="90" fill="#ffffff"/><g transform="scale(3.333)"><g transform="translate(1,1)"><path fill-rule="evenodd" d="M9 0L9 1L8 1L8 3L9 3L9 4L8 4L8 8L6 8L6 9L4 9L4 8L3 8L3 9L2 9L2 8L0 8L0 9L1 9L1 11L2 11L2 10L3 10L3 9L4 9L4 11L3 11L3 12L2 12L2 13L1 13L1 12L0 12L0 13L1 13L1 14L0 14L0 15L1 15L1 16L0 16L0 17L3 17L3 16L2 16L2 15L1 15L1 14L2 14L2 13L3 13L3 14L5 14L5 15L4 15L4 16L5 16L5 15L11 15L11 14L12 14L12 16L11 16L11 17L10 17L10 18L9 18L9 17L8 17L8 16L6 16L6 17L8 17L8 19L10 19L10 18L11 18L11 17L13 17L13 18L14 18L14 19L16 19L16 21L15 21L15 20L13 20L13 25L17 25L17 24L16 24L16 21L17 21L17 22L18 22L18 21L19 21L19 22L20 22L20 23L19 23L19 24L18 24L18 25L25 25L25 24L21 24L21 22L22 22L22 21L21 21L21 20L23 20L23 21L24 21L24 20L23 20L23 19L21 19L21 18L22 18L22 17L23 17L23 18L24 18L24 19L25 19L25 13L24 13L24 14L23 14L23 12L24 12L24 11L25 11L25 10L23 10L23 9L24 9L24 8L22 8L22 10L21 10L21 11L23 11L23 12L22 12L22 15L24 15L24 17L23 17L23 16L20 16L20 13L19 13L19 12L20 12L20 11L19 11L19 9L21 9L21 8L18 8L18 9L17 9L17 4L16 4L16 3L17 3L17 2L15 2L15 3L14 3L14 5L13 5L13 6L12 6L12 5L11 5L11 6L10 6L10 5L9 5L9 4L12 4L12 3L13 3L13 1L17 1L17 0L12 0L12 1L11 1L11 2L9 2L9 1L10 1L10 0ZM15 4L15 5L14 5L14 6L13 6L13 8L12 8L12 6L11 6L11 7L10 7L10 6L9 6L9 7L10 7L10 8L8 8L8 10L7 10L7 9L6 9L6 10L5 10L5 11L4 11L4 12L5 12L5 11L6 11L6 12L7 12L7 13L6 13L6 14L7 14L7 13L8 13L8 14L9 14L9 13L12 13L12 12L13 12L13 13L15 13L15 15L16 15L16 16L13 16L13 17L14 17L14 18L15 18L15 17L16 17L16 16L19 16L19 14L17 14L17 13L15 13L15 12L16 12L16 11L18 11L18 12L19 12L19 11L18 11L18 10L16 10L16 9L14 9L14 12L13 12L13 8L15 8L15 7L16 7L16 4ZM14 6L14 7L15 7L15 6ZM10 8L10 10L8 10L8 11L11 11L11 10L12 10L12 9L11 9L11 8ZM6 10L6 11L7 11L7 10ZM8 12L8 13L9 13L9 12ZM17 17L17 20L20 20L20 17ZM18 18L18 19L19 19L19 18ZM11 19L11 20L9 20L9 21L8 21L8 22L9 22L9 21L10 21L10 23L8 23L8 25L9 25L9 24L10 24L10 25L11 25L11 24L12 24L12 23L11 23L11 20L12 20L12 19ZM14 21L14 22L15 22L15 21ZM24 22L24 23L25 23L25 22ZM10 23L10 24L11 24L11 23ZM14 23L14 24L15 24L15 23ZM0 0L0 7L7 7L7 0ZM1 1L1 6L6 6L6 1ZM2 2L2 5L5 5L5 2ZM18 0L18 7L25 7L25 0ZM19 1L19 6L24 6L24 1ZM20 2L20 5L23 5L23 2ZM0 18L0 25L7 25L7 18ZM1 19L1 24L6 24L6 19ZM2 20L2 23L5 23L5 20Z" fill="#282828"/></g></g></svg>
