<?xml version="1.0" encoding="UTF-8"?>
<svg xmlns="http://www.w3.org/2000/svg" version="1.1" width="90" height="90" viewBox="0 0 90 90"><rect x="0" y="0" width="90" height="90" fill="#ffffff"/><g transform="scale(3.333)"><g transform="translate(1,1)"><path fill-rule="evenodd" d="M9 0L9 1L8 1L8 2L9 2L9 3L8 3L8 4L10 4L10 7L11 7L11 4L12 4L12 5L13 5L13 6L12 6L12 9L14 9L14 10L15 10L15 12L13 12L13 13L12 13L12 11L13 11L13 10L11 10L11 11L10 11L10 9L11 9L11 8L6 8L6 9L5 9L5 8L0 8L0 9L3 9L3 10L0 10L0 11L2 11L2 13L3 13L3 14L2 14L2 15L3 15L3 16L4 16L4 17L5 17L5 15L7 15L7 16L6 16L6 17L7 17L7 16L8 16L8 19L9 19L9 18L10 18L10 17L11 17L11 16L10 16L10 15L11 15L11 13L12 13L12 14L13 14L13 13L15 13L15 15L14 15L14 16L13 16L13 15L12 15L12 17L14 17L14 18L11 18L11 21L12 21L12 22L13 22L13 23L12 23L12 25L13 25L13 24L14 24L14 25L16 25L16 24L17 24L17 25L25 25L25 20L23 20L23 22L24 22L24 24L20 24L20 22L22 22L22 20L21 20L21 19L22 19L22 17L23 17L23 18L24 18L24 19L25 19L25 18L24 18L24 17L25 17L25 16L24 16L24 15L25 15L25 13L24 13L24 11L25 11L25 9L24 9L24 8L23 8L23 9L24 9L24 10L23 10L23 12L22 12L22 13L21 13L21 11L22 11L22 10L20 10L20 8L19 8L19 10L18 10L18 11L17 11L17 9L18 9L18 8L17 8L17 6L16 6L16 5L17 5L17 4L15 4L15 3L17 3L17 2L16 2L16 1L17 1L17 0L15 0L15 2L14 2L14 4L12 4L12 2L13 2L13 1L11 1L11 2L10 2L10 0ZM10 3L10 4L11 4L11 3ZM8 5L8 7L9 7L9 5ZM13 6L13 8L14 8L14 6ZM15 6L15 7L16 7L16 6ZM15 8L15 9L17 9L17 8ZM21 8L21 9L22 9L22 8ZM6 9L6 10L4 10L4 11L6 11L6 12L7 12L7 11L6 11L6 10L7 10L7 9ZM8 10L8 13L5 13L5 12L3 12L3 13L4 13L4 15L5 15L5 14L7 14L7 15L8 15L8 13L9 13L9 10ZM19 10L19 11L20 11L20 10ZM16 11L16 12L15 12L15 13L17 13L17 11ZM0 12L0 17L1 17L1 12ZM10 12L10 13L11 13L11 12ZM19 12L19 13L18 13L18 14L19 14L19 13L20 13L20 15L19 15L19 16L20 16L20 15L21 15L21 13L20 13L20 12ZM22 13L22 14L23 14L23 13ZM9 14L9 15L10 15L10 14ZM15 15L15 16L14 16L14 17L15 17L15 18L14 18L14 19L12 19L12 21L14 21L14 22L15 22L15 20L16 20L16 19L15 19L15 18L16 18L16 17L15 17L15 16L18 16L18 15ZM22 15L22 16L23 16L23 17L24 17L24 16L23 16L23 15ZM9 16L9 17L10 17L10 16ZM17 17L17 20L20 20L20 17ZM18 18L18 19L19 19L19 18ZM14 19L14 20L15 20L15 19ZM8 20L8 25L9 25L9 24L10 24L10 25L11 25L11 24L10 24L10 23L11 23L11 22L9 22L9 20ZM16 21L16 23L17 23L17 24L18 24L18 23L19 23L19 22L20 22L20 21L19 21L19 22L17 22L17 21ZM14 23L14 24L15 24L15 23ZM0 0L0 7L7 7L7 0ZM1 1L1 6L6 6L6 1ZM2 2L2 5L5 5L5 2ZM18 0L18 7L25 7L25 0ZM19 1L19 6L24 6L24 1ZM20 2L20 5L23 5L23 2ZM0 18L0 25L7 25L7 18ZM1 19L1 24L6 24L6 19ZM2 20L2 23L5 23L5 20Z" fill="#282828"/></g></g></svg>
