<?xml version="1.0" encoding="UTF-8"?>
<svg xmlns="http://www.w3.org/2000/svg" version="1.1" width="90" height="90" viewBox="0 0 90 90"><rect x="0" y="0" width="90" height="90" fill="#ffffff"/><g transform="scale(3.333)"><g transform="translate(1,1)"><path fill-rule="evenodd" d="M8 0L8 4L9 4L9 5L8 5L8 7L9 7L9 6L10 6L10 9L11 9L11 8L12 8L12 9L13 9L13 10L14 10L14 9L13 9L13 8L12 8L12 7L13 7L13 6L12 6L12 7L11 7L11 3L10 3L10 2L9 2L9 0ZM13 0L13 1L11 1L11 2L12 2L12 5L13 5L13 2L14 2L14 4L15 4L15 5L16 5L16 7L15 7L15 6L14 6L14 8L17 8L17 4L16 4L16 2L15 2L15 1L17 1L17 0ZM0 8L0 9L2 9L2 8ZM4 8L4 9L3 9L3 10L2 10L2 11L1 11L1 10L0 10L0 12L3 12L3 14L2 14L2 16L0 16L0 17L4 17L4 16L3 16L3 14L4 14L4 15L5 15L5 17L7 17L7 16L6 16L6 15L9 15L9 14L11 14L11 16L12 16L12 17L13 17L13 19L12 19L12 20L11 20L11 21L9 21L9 19L11 19L11 18L9 18L9 16L8 16L8 18L9 18L9 19L8 19L8 21L9 21L9 22L10 22L10 23L8 23L8 25L11 25L11 24L12 24L12 25L14 25L14 23L15 23L15 25L16 25L16 23L15 23L15 22L16 22L16 21L17 21L17 25L20 25L20 22L21 22L21 21L22 21L22 20L23 20L23 23L22 23L22 24L23 24L23 25L25 25L25 24L24 24L24 22L25 22L25 19L24 19L24 17L25 17L25 15L24 15L24 17L23 17L23 15L22 15L22 14L21 14L21 13L23 13L23 14L25 14L25 13L24 13L24 12L25 12L25 11L24 11L24 12L23 12L23 10L22 10L22 9L24 9L24 10L25 10L25 8L21 8L21 9L20 9L20 8L19 8L19 9L18 9L18 10L17 10L17 9L15 9L15 11L18 11L18 10L19 10L19 9L20 9L20 10L21 10L21 11L19 11L19 12L18 12L18 13L20 13L20 14L21 14L21 15L19 15L19 16L18 16L18 14L17 14L17 13L16 13L16 12L15 12L15 13L12 13L12 12L13 12L13 11L12 11L12 12L11 12L11 13L9 13L9 12L10 12L10 11L11 11L11 10L8 10L8 9L7 9L7 8ZM5 9L5 11L4 11L4 12L5 12L5 13L6 13L6 14L7 14L7 13L6 13L6 12L9 12L9 11L6 11L6 10L7 10L7 9ZM21 11L21 12L22 12L22 11ZM0 13L0 14L1 14L1 13ZM8 13L8 14L9 14L9 13ZM11 13L11 14L12 14L12 13ZM13 14L13 15L12 15L12 16L13 16L13 17L14 17L14 19L13 19L13 20L12 20L12 21L11 21L11 22L12 22L12 21L13 21L13 22L14 22L14 21L13 21L13 20L14 20L14 19L15 19L15 21L16 21L16 17L14 17L14 15L15 15L15 14ZM16 14L16 15L17 15L17 14ZM21 16L21 18L23 18L23 17L22 17L22 16ZM17 17L17 20L20 20L20 17ZM18 18L18 19L19 19L19 18ZM21 19L21 20L22 20L22 19ZM18 22L18 24L19 24L19 22ZM10 23L10 24L11 24L11 23ZM12 23L12 24L13 24L13 23ZM0 0L0 7L7 7L7 0ZM1 1L1 6L6 6L6 1ZM2 2L2 5L5 5L5 2ZM18 0L18 7L25 7L25 0ZM19 1L19 6L24 6L24 1ZM20 2L20 5L23 5L23 2ZM0 18L0 25L7 25L7 18ZM1 19L1 24L6 24L6 19ZM2 20L2 23L5 23L5 20Z" fill="#282828"/></g></g></svg>
