<?xml version="1.0" encoding="UTF-8"?>
<svg xmlns="http://www.w3.org/2000/svg" version="1.1" width="90" height="90" viewBox="0 0 90 90"><rect x="0" y="0" width="90" height="90" fill="#ffffff"/><g transform="scale(2.903)"><g transform="translate(1,1)"><path fill-rule="evenodd" d="M8 0L8 1L10 1L10 0ZM14 0L14 2L11 2L11 4L10 4L10 3L9 3L9 2L8 2L8 5L9 5L9 6L8 6L8 7L9 7L9 8L8 8L8 9L7 9L7 8L6 8L6 9L4 9L4 8L0 8L0 12L3 12L3 11L5 11L5 10L6 10L6 11L7 11L7 12L4 12L4 13L2 13L2 15L1 15L1 13L0 13L0 15L1 15L1 18L0 18L0 19L1 19L1 18L2 18L2 19L3 19L3 18L4 18L4 19L5 19L5 21L7 21L7 20L6 20L6 19L8 19L8 22L10 22L10 20L11 20L11 21L12 21L12 22L11 22L11 23L10 23L10 24L9 24L9 25L8 25L8 29L10 29L10 28L9 28L9 27L11 27L11 28L12 28L12 29L13 29L13 28L12 28L12 26L13 26L13 27L14 27L14 29L16 29L16 28L17 28L17 27L14 27L14 26L17 26L17 25L18 25L18 24L17 24L17 25L16 25L16 24L14 24L14 26L13 26L13 24L12 24L12 25L11 25L11 26L10 26L10 24L11 24L11 23L14 23L14 22L16 22L16 23L20 23L20 28L18 28L18 29L21 29L21 26L22 26L22 25L23 25L23 27L22 27L22 28L23 28L23 29L24 29L24 28L25 28L25 27L24 27L24 25L25 25L25 26L27 26L27 24L29 24L29 23L27 23L27 21L28 21L28 22L29 22L29 20L27 20L27 19L28 19L28 17L26 17L26 18L27 18L27 19L25 19L25 20L22 20L22 19L21 19L21 18L20 18L20 19L21 19L21 20L19 20L19 19L17 19L17 18L16 18L16 17L19 17L19 15L20 15L20 14L19 14L19 15L18 15L18 16L16 16L16 15L17 15L17 14L18 14L18 13L19 13L19 12L21 12L21 11L19 11L19 10L21 10L21 9L22 9L22 10L23 10L23 11L26 11L26 10L27 10L27 11L28 11L28 12L27 12L27 14L28 14L28 15L27 15L27 16L28 16L28 15L29 15L29 13L28 13L28 12L29 12L29 11L28 11L28 10L27 10L27 8L24 8L24 9L22 9L22 8L19 8L19 6L20 6L20 7L21 7L21 5L20 5L20 3L21 3L21 0L17 0L17 2L16 2L16 3L15 3L15 4L13 4L13 5L12 5L12 3L14 3L14 2L15 2L15 0ZM18 1L18 2L17 2L17 3L18 3L18 6L17 6L17 7L18 7L18 6L19 6L19 3L20 3L20 1ZM18 2L18 3L19 3L19 2ZM16 4L16 5L15 5L15 9L13 9L13 7L14 7L14 5L13 5L13 7L12 7L12 5L10 5L10 6L9 6L9 7L10 7L10 8L9 8L9 9L10 9L10 10L9 10L9 11L8 11L8 12L7 12L7 13L6 13L6 14L5 14L5 13L4 13L4 14L3 14L3 15L2 15L2 16L3 16L3 15L4 15L4 16L7 16L7 17L6 17L6 18L7 18L7 17L8 17L8 16L9 16L9 15L11 15L11 16L10 16L10 17L11 17L11 18L12 18L12 17L14 17L14 18L13 18L13 20L14 20L14 21L15 21L15 17L16 17L16 16L15 16L15 15L16 15L16 14L15 14L15 12L16 12L16 13L17 13L17 12L18 12L18 11L17 11L17 12L16 12L16 10L18 10L18 9L17 9L17 8L16 8L16 5L17 5L17 4ZM10 6L10 7L11 7L11 8L12 8L12 7L11 7L11 6ZM28 8L28 9L29 9L29 8ZM2 9L2 10L1 10L1 11L2 11L2 10L3 10L3 9ZM6 9L6 10L7 10L7 9ZM14 10L14 11L11 11L11 13L10 13L10 12L9 12L9 13L7 13L7 14L6 14L6 15L7 15L7 14L8 14L8 15L9 15L9 14L12 14L12 16L11 16L11 17L12 17L12 16L14 16L14 15L15 15L15 14L14 14L14 13L13 13L13 14L12 14L12 12L15 12L15 10ZM22 13L22 14L23 14L23 15L24 15L24 16L23 16L23 19L24 19L24 17L25 17L25 16L26 16L26 15L24 15L24 14L23 14L23 13ZM25 13L25 14L26 14L26 13ZM4 14L4 15L5 15L5 14ZM13 14L13 15L14 15L14 14ZM20 16L20 17L22 17L22 16ZM4 17L4 18L5 18L5 17ZM8 18L8 19L9 19L9 18ZM11 19L11 20L12 20L12 19ZM1 20L1 21L2 21L2 20ZM3 20L3 21L4 21L4 20ZM16 20L16 21L17 21L17 20ZM19 21L19 22L20 22L20 21ZM21 21L21 24L24 24L24 21ZM22 22L22 23L23 23L23 22ZM25 22L25 25L26 25L26 24L27 24L27 23L26 23L26 22ZM28 25L28 27L27 27L27 29L28 29L28 27L29 27L29 25ZM23 27L23 28L24 28L24 27ZM0 0L0 7L7 7L7 0ZM1 1L1 6L6 6L6 1ZM2 2L2 5L5 5L5 2ZM22 0L22 7L29 7L29 0ZM23 1L23 6L28 6L28 1ZM24 2L24 5L27 5L27 2ZM0 22L0 29L7 29L7 22ZM1 23L1 28L6 28L6 23ZM2 24L2 27L5 27L5 24Z" fill="#282828"/></g></g></svg>
