<?xml version="1.0" encoding="UTF-8"?>
<svg xmlns="http://www.w3.org/2000/svg" version="1.1" width="90" height="90" viewBox="0 0 90 90"><rect x="0" y="0" width="90" height="90" fill="#ffffff"/><g transform="scale(2.903)"><g transform="translate(1,1)"><path fill-rule="evenodd" d="M9 0L9 1L10 1L10 2L8 2L8 3L9 3L9 4L10 4L10 5L9 5L9 6L8 6L8 8L4 8L4 9L3 9L3 8L0 8L0 9L3 9L3 11L4 11L4 12L1 12L1 11L2 11L2 10L1 10L1 11L0 11L0 12L1 12L1 13L0 13L0 16L1 16L1 18L0 18L0 19L1 19L1 20L0 20L0 21L1 21L1 20L2 20L2 19L4 19L4 18L6 18L6 19L5 19L5 20L3 20L3 21L7 21L7 20L6 20L6 19L7 19L7 18L8 18L8 19L10 19L10 23L12 23L12 24L11 24L11 26L12 26L12 24L14 24L14 25L15 25L15 26L16 26L16 27L15 27L15 28L16 28L16 29L21 29L21 27L23 27L23 28L22 28L22 29L23 29L23 28L24 28L24 29L25 29L25 28L26 28L26 27L27 27L27 29L29 29L29 28L28 28L28 27L29 27L29 25L27 25L27 26L24 26L24 25L25 25L25 20L22 20L22 19L25 19L25 18L23 18L23 17L24 17L24 15L23 15L23 12L25 12L25 11L26 11L26 10L27 10L27 11L29 11L29 10L27 10L27 8L26 8L26 10L23 10L23 8L20 8L20 7L21 7L21 6L20 6L20 5L19 5L19 4L21 4L21 1L20 1L20 0L17 0L17 2L16 2L16 1L14 1L14 0L12 0L12 1L10 1L10 0ZM13 1L13 3L12 3L12 2L11 2L11 3L12 3L12 4L11 4L11 5L10 5L10 6L9 6L9 7L10 7L10 6L11 6L11 8L12 8L12 10L10 10L10 8L9 8L9 9L6 9L6 10L5 10L5 11L6 11L6 12L7 12L7 13L5 13L5 15L3 15L3 14L2 14L2 13L1 13L1 16L2 16L2 15L3 15L3 18L4 18L4 17L5 17L5 16L7 16L7 17L6 17L6 18L7 18L7 17L8 17L8 18L10 18L10 19L12 19L12 20L11 20L11 21L12 21L12 20L13 20L13 19L14 19L14 20L15 20L15 23L17 23L17 22L18 22L18 23L19 23L19 24L18 24L18 25L20 25L20 23L19 23L19 19L20 19L20 20L21 20L21 19L22 19L22 18L20 18L20 16L21 16L21 17L22 17L22 16L23 16L23 15L22 15L22 14L20 14L20 13L21 13L21 12L22 12L22 11L23 11L23 10L21 10L21 9L20 9L20 8L18 8L18 9L17 9L17 10L16 10L16 9L15 9L15 8L16 8L16 6L15 6L15 4L14 4L14 3L16 3L16 2L14 2L14 1ZM18 1L18 2L17 2L17 4L16 4L16 5L18 5L18 3L19 3L19 1ZM13 5L13 6L12 6L12 8L13 8L13 10L14 10L14 11L13 11L13 12L12 12L12 11L11 11L11 12L12 12L12 13L11 13L11 14L10 14L10 13L9 13L9 11L10 11L10 10L8 10L8 13L7 13L7 14L6 14L6 15L7 15L7 16L9 16L9 17L11 17L11 18L12 18L12 16L13 16L13 18L14 18L14 19L15 19L15 20L16 20L16 22L17 22L17 21L18 21L18 18L17 18L17 17L18 17L18 16L19 16L19 15L17 15L17 17L16 17L16 18L17 18L17 19L15 19L15 16L14 16L14 15L13 15L13 14L15 14L15 10L14 10L14 7L15 7L15 6L14 6L14 5ZM13 6L13 7L14 7L14 6ZM17 6L17 7L18 7L18 6ZM19 6L19 7L20 7L20 6ZM6 10L6 11L7 11L7 10ZM17 11L17 13L16 13L16 14L18 14L18 11ZM19 11L19 13L20 13L20 11ZM26 12L26 14L25 14L25 15L27 15L27 16L28 16L28 19L27 19L27 17L26 17L26 19L27 19L27 21L26 21L26 23L27 23L27 24L29 24L29 20L28 20L28 19L29 19L29 16L28 16L28 15L29 15L29 12L28 12L28 15L27 15L27 12ZM8 14L8 15L9 15L9 14ZM11 15L11 16L12 16L12 15ZM1 18L1 19L2 19L2 18ZM8 20L8 25L10 25L10 24L9 24L9 20ZM21 21L21 24L24 24L24 21ZM27 21L27 23L28 23L28 21ZM13 22L13 23L14 23L14 22ZM22 22L22 23L23 23L23 22ZM21 25L21 26L23 26L23 25ZM8 26L8 29L9 29L9 28L10 28L10 29L11 29L11 28L12 28L12 29L13 29L13 28L12 28L12 27L9 27L9 26ZM13 26L13 27L14 27L14 26ZM17 26L17 27L16 27L16 28L17 28L17 27L19 27L19 28L20 28L20 26ZM27 26L27 27L28 27L28 26ZM24 27L24 28L25 28L25 27ZM0 0L0 7L7 7L7 0ZM1 1L1 6L6 6L6 1ZM2 2L2 5L5 5L5 2ZM22 0L22 7L29 7L29 0ZM23 1L23 6L28 6L28 1ZM24 2L24 5L27 5L27 2ZM0 22L0 29L7 29L7 22ZM1 23L1 28L6 28L6 23ZM2 24L2 27L5 27L5 24Z" fill="#282828"/></g></g></svg>
