<?xml version="1.0" encoding="UTF-8"?>
<svg xmlns="http://www.w3.org/2000/svg" version="1.1" width="90" height="90" viewBox="0 0 90 90"><rect x="0" y="0" width="90" height="90" fill="#ffffff"/><g transform="scale(2.903)"><g transform="translate(1,1)"><path fill-rule="evenodd" d="M9 0L9 1L10 1L10 2L8 2L8 3L9 3L9 4L10 4L10 5L9 5L9 6L8 6L8 8L4 8L4 9L3 9L3 8L0 8L0 9L3 9L3 11L4 11L4 12L5 12L5 13L3 13L3 14L2 14L2 12L0 12L0 14L1 14L1 15L0 15L0 16L2 16L2 17L1 17L1 18L0 18L0 19L1 19L1 20L0 20L0 21L1 21L1 20L3 20L3 19L4 19L4 21L8 21L8 25L10 25L10 26L12 26L12 24L14 24L14 25L15 25L15 26L16 26L16 27L15 27L15 28L16 28L16 29L21 29L21 28L22 28L22 27L23 27L23 28L24 28L24 27L26 27L26 25L27 25L27 26L28 26L28 27L27 27L27 29L29 29L29 28L28 28L28 27L29 27L29 25L27 25L27 24L29 24L29 20L28 20L28 19L29 19L29 16L28 16L28 15L29 15L29 10L27 10L27 8L26 8L26 10L24 10L24 12L25 12L25 11L26 11L26 10L27 10L27 11L28 11L28 15L27 15L27 12L26 12L26 14L25 14L25 16L26 16L26 15L27 15L27 16L28 16L28 19L27 19L27 21L28 21L28 23L27 23L27 22L26 22L26 21L25 21L25 20L26 20L26 19L25 19L25 18L23 18L23 17L24 17L24 15L23 15L23 12L21 12L21 11L23 11L23 8L21 8L21 9L20 9L20 10L21 10L21 11L19 11L19 10L18 10L18 7L19 7L19 6L20 6L20 7L21 7L21 6L20 6L20 5L21 5L21 4L20 4L20 3L21 3L21 2L20 2L20 1L19 1L19 0L18 0L18 1L19 1L19 2L20 2L20 3L18 3L18 4L17 4L17 2L16 2L16 1L14 1L14 0L12 0L12 1L10 1L10 0ZM13 1L13 3L12 3L12 2L11 2L11 3L12 3L12 4L11 4L11 5L10 5L10 6L9 6L9 7L10 7L10 6L11 6L11 8L12 8L12 10L10 10L10 8L9 8L9 10L8 10L8 11L6 11L6 10L7 10L7 9L6 9L6 10L5 10L5 12L8 12L8 13L9 13L9 14L10 14L10 15L11 15L11 16L12 16L12 18L11 18L11 19L10 19L10 17L9 17L9 15L8 15L8 16L7 16L7 15L6 15L6 14L7 14L7 13L6 13L6 14L4 14L4 16L3 16L3 15L2 15L2 16L3 16L3 17L2 17L2 18L1 18L1 19L2 19L2 18L3 18L3 17L4 17L4 19L5 19L5 20L7 20L7 19L10 19L10 20L9 20L9 23L11 23L11 24L12 24L12 23L11 23L11 22L10 22L10 20L11 20L11 21L12 21L12 20L13 20L13 19L14 19L14 20L15 20L15 19L16 19L16 20L17 20L17 19L18 19L18 22L17 22L17 23L16 23L16 21L15 21L15 25L17 25L17 23L19 23L19 24L18 24L18 25L19 25L19 27L21 27L21 26L23 26L23 25L20 25L20 23L19 23L19 22L20 22L20 20L19 20L19 19L20 19L20 17L22 17L22 13L21 13L21 16L19 16L19 15L20 15L20 12L18 12L18 13L19 13L19 15L18 15L18 17L17 17L17 16L15 16L15 15L16 15L16 13L17 13L17 12L15 12L15 14L13 14L13 15L14 15L14 16L15 16L15 19L14 19L14 18L13 18L13 16L12 16L12 15L11 15L11 13L12 13L12 12L13 12L13 11L14 11L14 10L15 10L15 11L16 11L16 8L15 8L15 7L16 7L16 6L15 6L15 4L14 4L14 3L15 3L15 2L14 2L14 1ZM16 4L16 5L17 5L17 4ZM13 5L13 6L12 6L12 8L13 8L13 10L14 10L14 7L15 7L15 6L14 6L14 5ZM18 5L18 6L17 6L17 7L18 7L18 6L19 6L19 5ZM13 6L13 7L14 7L14 6ZM0 10L0 11L1 11L1 10ZM9 10L9 11L8 11L8 12L9 12L9 11L10 11L10 10ZM17 10L17 11L18 11L18 10ZM11 11L11 12L12 12L12 11ZM4 16L4 17L5 17L5 19L7 19L7 18L6 18L6 17L7 17L7 16L6 16L6 17L5 17L5 16ZM8 17L8 18L9 18L9 17ZM16 17L16 18L17 18L17 17ZM26 17L26 18L27 18L27 17ZM21 18L21 19L22 19L22 20L23 20L23 19L22 19L22 18ZM11 19L11 20L12 20L12 19ZM24 19L24 20L25 20L25 19ZM21 21L21 24L24 24L24 21ZM22 22L22 23L23 23L23 22ZM25 22L25 25L26 25L26 24L27 24L27 23L26 23L26 22ZM8 26L8 29L10 29L10 27L9 27L9 26ZM13 26L13 27L14 27L14 26ZM11 27L11 28L12 28L12 29L13 29L13 28L12 28L12 27ZM16 27L16 28L17 28L17 27ZM0 0L0 7L7 7L7 0ZM1 1L1 6L6 6L6 1ZM2 2L2 5L5 5L5 2ZM22 0L22 7L29 7L29 0ZM23 1L23 6L28 6L28 1ZM24 2L24 5L27 5L27 2ZM0 22L0 29L7 29L7 22ZM1 23L1 28L6 28L6 23ZM2 24L2 27L5 27L5 24Z" fill="#282828"/></g></g></svg>
