<?xml version="1.0" encoding="UTF-8"?>
<svg xmlns="http://www.w3.org/2000/svg" version="1.1" width="90" height="90" viewBox="0 0 90 90"><rect x="0" y="0" width="90" height="90" fill="#ffffff"/><g transform="scale(2.903)"><g transform="translate(1,1)"><path fill-rule="evenodd" d="M9 0L9 1L10 1L10 2L8 2L8 3L9 3L9 4L10 4L10 5L9 5L9 6L8 6L8 8L4 8L4 12L3 12L3 13L2 13L2 11L1 11L1 9L2 9L2 10L3 10L3 8L0 8L0 16L1 16L1 15L2 15L2 16L3 16L3 15L4 15L4 13L5 13L5 12L6 12L6 13L7 13L7 12L6 12L6 11L7 11L7 10L8 10L8 12L9 12L9 11L10 11L10 10L12 10L12 8L15 8L15 9L14 9L14 10L13 10L13 12L12 12L12 11L11 11L11 12L12 12L12 13L11 13L11 15L8 15L8 14L5 14L5 15L7 15L7 16L6 16L6 17L7 17L7 18L6 18L6 19L9 19L9 21L8 21L8 20L3 20L3 19L4 19L4 18L5 18L5 16L4 16L4 18L2 18L2 17L1 17L1 18L0 18L0 19L1 19L1 20L0 20L0 21L1 21L1 20L3 20L3 21L8 21L8 25L9 25L9 26L8 26L8 29L11 29L11 27L10 27L10 26L12 26L12 25L13 25L13 26L14 26L14 27L13 27L13 29L15 29L15 28L16 28L16 29L18 29L18 27L19 27L19 29L21 29L21 28L22 28L22 27L23 27L23 28L24 28L24 27L26 27L26 25L27 25L27 26L28 26L28 27L27 27L27 29L29 29L29 28L28 28L28 27L29 27L29 25L28 25L28 23L29 23L29 20L28 20L28 19L29 19L29 16L28 16L28 15L29 15L29 10L27 10L27 8L26 8L26 10L24 10L24 12L25 12L25 11L26 11L26 10L27 10L27 11L28 11L28 15L27 15L27 12L26 12L26 14L25 14L25 16L26 16L26 15L27 15L27 16L28 16L28 19L27 19L27 21L28 21L28 23L27 23L27 22L26 22L26 21L25 21L25 20L26 20L26 19L25 19L25 18L23 18L23 17L24 17L24 15L23 15L23 12L21 12L21 11L23 11L23 8L21 8L21 9L20 9L20 10L21 10L21 11L16 11L16 12L15 12L15 11L14 11L14 10L15 10L15 9L16 9L16 10L18 10L18 8L19 8L19 6L20 6L20 7L21 7L21 6L20 6L20 5L21 5L21 4L20 4L20 3L21 3L21 2L20 2L20 1L16 1L16 0L14 0L14 1L13 1L13 0L12 0L12 1L10 1L10 0ZM14 1L14 2L13 2L13 3L12 3L12 2L11 2L11 3L12 3L12 4L11 4L11 5L10 5L10 6L9 6L9 7L10 7L10 6L11 6L11 8L12 8L12 6L13 6L13 7L14 7L14 6L13 6L13 4L14 4L14 3L15 3L15 4L16 4L16 6L15 6L15 8L16 8L16 6L17 6L17 7L18 7L18 6L19 6L19 5L18 5L18 6L17 6L17 4L18 4L18 2L17 2L17 3L15 3L15 1ZM19 2L19 3L20 3L20 2ZM9 8L9 9L8 9L8 10L10 10L10 8ZM6 9L6 10L5 10L5 11L6 11L6 10L7 10L7 9ZM14 12L14 13L15 13L15 15L14 15L14 14L13 14L13 15L14 15L14 18L13 18L13 16L12 16L12 15L11 15L11 16L10 16L10 17L11 17L11 16L12 16L12 18L11 18L11 19L10 19L10 18L9 18L9 16L7 16L7 17L8 17L8 18L9 18L9 19L10 19L10 20L11 20L11 21L12 21L12 20L13 20L13 19L14 19L14 18L15 18L15 19L16 19L16 20L15 20L15 22L13 22L13 23L14 23L14 24L15 24L15 27L14 27L14 28L15 28L15 27L18 27L18 26L19 26L19 27L21 27L21 26L23 26L23 25L20 25L20 23L19 23L19 24L18 24L18 25L17 25L17 24L15 24L15 23L17 23L17 21L16 21L16 20L17 20L17 19L18 19L18 22L20 22L20 20L19 20L19 19L20 19L20 17L22 17L22 13L21 13L21 16L19 16L19 15L20 15L20 12L18 12L18 13L17 13L17 14L16 14L16 13L15 13L15 12ZM1 13L1 14L2 14L2 13ZM9 13L9 14L10 14L10 13ZM17 14L17 15L15 15L15 18L16 18L16 19L17 19L17 18L19 18L19 17L18 17L18 14ZM26 17L26 18L27 18L27 17ZM1 18L1 19L2 19L2 18ZM21 18L21 19L22 19L22 20L23 20L23 19L22 19L22 18ZM11 19L11 20L12 20L12 19ZM24 19L24 20L25 20L25 19ZM9 21L9 22L10 22L10 23L9 23L9 24L10 24L10 25L11 25L11 24L12 24L12 23L11 23L11 22L10 22L10 21ZM21 21L21 24L24 24L24 21ZM22 22L22 23L23 23L23 22ZM25 22L25 25L26 25L26 24L27 24L27 23L26 23L26 22ZM16 25L16 26L17 26L17 25ZM0 0L0 7L7 7L7 0ZM1 1L1 6L6 6L6 1ZM2 2L2 5L5 5L5 2ZM22 0L22 7L29 7L29 0ZM23 1L23 6L28 6L28 1ZM24 2L24 5L27 5L27 2ZM0 22L0 29L7 29L7 22ZM1 23L1 28L6 28L6 23ZM2 24L2 27L5 27L5 24Z" fill="#282828"/></g></g></svg>
