<?xml version="1.0" encoding="UTF-8"?>
<svg xmlns="http://www.w3.org/2000/svg" version="1.1" width="90" height="90" viewBox="0 0 90 90"><rect x="0" y="0" width="90" height="90" fill="#ffffff"/><g transform="scale(3.333)"><g transform="translate(1,1)"><path fill-rule="evenodd" d="M8 0L8 1L9 1L9 2L8 2L8 5L9 5L9 4L11 4L11 5L10 5L10 10L6 10L6 9L7 9L7 8L6 8L6 9L4 9L4 8L0 8L0 10L1 10L1 9L2 9L2 10L3 10L3 9L4 9L4 12L3 12L3 11L0 11L0 12L2 12L2 13L1 13L1 15L0 15L0 16L1 16L1 15L2 15L2 17L3 17L3 16L5 16L5 17L8 17L8 18L9 18L9 21L8 21L8 25L10 25L10 24L11 24L11 23L13 23L13 24L12 24L12 25L15 25L15 24L16 24L16 23L15 23L15 22L17 22L17 25L19 25L19 24L20 24L20 23L21 23L21 22L22 22L22 24L21 24L21 25L25 25L25 24L23 24L23 23L24 23L24 22L25 22L25 17L22 17L22 16L20 16L20 15L22 15L22 14L23 14L23 13L21 13L21 12L23 12L23 11L24 11L24 9L25 9L25 8L24 8L24 9L23 9L23 8L20 8L20 9L19 9L19 10L18 10L18 11L19 11L19 12L17 12L17 11L16 11L16 12L14 12L14 11L15 11L15 10L17 10L17 9L18 9L18 8L17 8L17 9L15 9L15 8L13 8L13 6L14 6L14 7L15 7L15 5L13 5L13 3L14 3L14 4L16 4L16 7L17 7L17 4L16 4L16 3L14 3L14 1L13 1L13 0L12 0L12 1L11 1L11 0L10 0L10 1L9 1L9 0ZM15 0L15 1L16 1L16 2L17 2L17 0ZM11 2L11 4L12 4L12 3L13 3L13 2ZM12 5L12 6L11 6L11 8L12 8L12 9L11 9L11 10L12 10L12 11L11 11L11 13L10 13L10 14L11 14L11 16L9 16L9 11L8 11L8 13L6 13L6 14L5 14L5 13L4 13L4 15L6 15L6 16L9 16L9 18L10 18L10 17L11 17L11 16L12 16L12 15L13 15L13 17L12 17L12 18L11 18L11 19L12 19L12 18L14 18L14 17L15 17L15 19L13 19L13 23L14 23L14 24L15 24L15 23L14 23L14 20L15 20L15 21L16 21L16 16L18 16L18 15L20 15L20 14L18 14L18 13L17 13L17 12L16 12L16 14L14 14L14 12L12 12L12 11L13 11L13 10L14 10L14 9L13 9L13 8L12 8L12 6L13 6L13 5ZM8 6L8 7L9 7L9 6ZM8 8L8 9L9 9L9 8ZM12 9L12 10L13 10L13 9ZM20 9L20 10L21 10L21 11L20 11L20 12L19 12L19 13L20 13L20 12L21 12L21 11L23 11L23 9ZM5 11L5 12L7 12L7 11ZM24 12L24 14L25 14L25 12ZM2 13L2 15L3 15L3 13ZM6 14L6 15L7 15L7 14ZM13 14L13 15L14 15L14 16L16 16L16 15L18 15L18 14L16 14L16 15L14 15L14 14ZM24 15L24 16L25 16L25 15ZM17 17L17 20L20 20L20 17ZM21 17L21 18L22 18L22 22L23 22L23 21L24 21L24 18L22 18L22 17ZM18 18L18 19L19 19L19 18ZM10 20L10 22L9 22L9 23L11 23L11 21L12 21L12 20ZM20 21L20 22L21 22L21 21ZM18 23L18 24L19 24L19 23ZM0 0L0 7L7 7L7 0ZM1 1L1 6L6 6L6 1ZM2 2L2 5L5 5L5 2ZM18 0L18 7L25 7L25 0ZM19 1L19 6L24 6L24 1ZM20 2L20 5L23 5L23 2ZM0 18L0 25L7 25L7 18ZM1 19L1 24L6 24L6 19ZM2 20L2 23L5 23L5 20Z" fill="#282828"/></g></g></svg>
