<?xml version="1.0" encoding="UTF-8"?>
<svg xmlns="http://www.w3.org/2000/svg" version="1.1" width="90" height="90" viewBox="0 0 90 90"><rect x="0" y="0" width="90" height="90" fill="#ffffff"/><g transform="scale(2.903)"><g transform="translate(1,1)"><path fill-rule="evenodd" d="M9 0L9 1L8 1L8 2L9 2L9 3L8 3L8 4L10 4L10 7L11 7L11 4L12 4L12 5L13 5L13 6L12 6L12 9L13 9L13 8L14 8L14 9L18 9L18 11L19 11L19 9L18 9L18 8L17 8L17 6L18 6L18 7L19 7L19 6L18 6L18 5L20 5L20 8L21 8L21 9L20 9L20 10L22 10L22 11L21 11L21 12L23 12L23 11L25 11L25 13L21 13L21 14L20 14L20 13L19 13L19 12L17 12L17 13L16 13L16 11L17 11L17 10L15 10L15 11L14 11L14 12L15 12L15 13L12 13L12 11L13 11L13 10L11 10L11 11L10 11L10 9L11 9L11 8L6 8L6 9L7 9L7 10L6 10L6 11L5 11L5 10L4 10L4 11L3 11L3 12L4 12L4 13L2 13L2 14L1 14L1 11L0 11L0 16L1 16L1 17L0 17L0 21L1 21L1 17L3 17L3 18L2 18L2 20L4 20L4 21L5 21L5 20L6 20L6 21L8 21L8 23L9 23L9 24L8 24L8 29L9 29L9 28L10 28L10 29L12 29L12 27L13 27L13 26L11 26L11 23L10 23L10 22L11 22L11 21L12 21L12 22L13 22L13 23L12 23L12 25L13 25L13 24L14 24L14 25L16 25L16 22L17 22L17 16L16 16L16 14L17 14L17 13L18 13L18 16L19 16L19 14L20 14L20 16L21 16L21 17L18 17L18 18L20 18L20 19L19 19L19 20L20 20L20 21L19 21L19 23L18 23L18 24L20 24L20 25L23 25L23 28L24 28L24 29L25 29L25 28L26 28L26 29L27 29L27 28L28 28L28 26L29 26L29 25L25 25L25 24L26 24L26 23L25 23L25 19L24 19L24 20L22 20L22 18L25 18L25 17L28 17L28 18L26 18L26 19L27 19L27 20L26 20L26 21L27 21L27 20L28 20L28 18L29 18L29 17L28 17L28 14L29 14L29 13L28 13L28 14L27 14L27 16L26 16L26 15L25 15L25 13L26 13L26 11L27 11L27 9L28 9L28 8L27 8L27 9L26 9L26 8L25 8L25 9L24 9L24 8L23 8L23 9L22 9L22 8L21 8L21 2L20 2L20 4L18 4L18 3L16 3L16 1L15 1L15 0L14 0L14 3L15 3L15 4L18 4L18 5L17 5L17 6L16 6L16 5L14 5L14 4L12 4L12 2L13 2L13 1L11 1L11 2L10 2L10 0ZM17 0L17 2L18 2L18 1L21 1L21 0ZM10 3L10 4L11 4L11 3ZM8 5L8 7L9 7L9 5ZM13 6L13 7L14 7L14 8L15 8L15 7L16 7L16 6L15 6L15 7L14 7L14 6ZM0 8L0 9L5 9L5 8ZM8 10L8 11L6 11L6 12L5 12L5 13L6 13L6 14L5 14L5 15L4 15L4 14L3 14L3 17L4 17L4 16L7 16L7 17L5 17L5 18L9 18L9 19L6 19L6 20L11 20L11 19L10 19L10 18L13 18L13 19L12 19L12 21L16 21L16 19L15 19L15 18L16 18L16 17L14 17L14 16L15 16L15 15L14 15L14 16L13 16L13 17L12 17L12 15L13 15L13 14L12 14L12 13L11 13L11 12L10 12L10 13L11 13L11 14L8 14L8 12L9 12L9 10ZM6 12L6 13L7 13L7 12ZM15 13L15 14L16 14L16 13ZM6 14L6 15L7 15L7 16L8 16L8 17L9 17L9 18L10 18L10 17L9 17L9 16L10 16L10 15L9 15L9 16L8 16L8 15L7 15L7 14ZM21 14L21 16L22 16L22 17L23 17L23 15L24 15L24 14ZM24 16L24 17L25 17L25 16ZM3 18L3 19L4 19L4 20L5 20L5 19L4 19L4 18ZM14 19L14 20L15 20L15 19ZM20 19L20 20L21 20L21 19ZM21 21L21 24L24 24L24 21ZM28 21L28 22L27 22L27 23L28 23L28 22L29 22L29 21ZM22 22L22 23L23 23L23 22ZM14 23L14 24L15 24L15 23ZM17 25L17 26L15 26L15 27L14 27L14 28L15 28L15 29L16 29L16 27L18 27L18 26L19 26L19 25ZM24 25L24 26L25 26L25 25ZM21 26L21 27L19 27L19 29L20 29L20 28L21 28L21 27L22 27L22 26ZM26 26L26 28L27 28L27 26ZM10 27L10 28L11 28L11 27ZM0 0L0 7L7 7L7 0ZM1 1L1 6L6 6L6 1ZM2 2L2 5L5 5L5 2ZM22 0L22 7L29 7L29 0ZM23 1L23 6L28 6L28 1ZM24 2L24 5L27 5L27 2ZM0 22L0 29L7 29L7 22ZM1 23L1 28L6 28L6 23ZM2 24L2 27L5 27L5 24Z" fill="#282828"/></g></g></svg>
