<?xml version="1.0" encoding="UTF-8"?>
<svg xmlns="http://www.w3.org/2000/svg" version="1.1" width="90" height="90" viewBox="0 0 90 90"><rect x="0" y="0" width="90" height="90" fill="#ffffff"/><g transform="scale(2.903)"><g transform="translate(1,1)"><path fill-rule="evenodd" d="M9 0L9 1L10 1L10 2L8 2L8 3L9 3L9 4L10 4L10 5L9 5L9 6L8 6L8 8L4 8L4 9L3 9L3 8L0 8L0 9L2 9L2 11L1 11L1 10L0 10L0 15L1 15L1 17L2 17L2 19L1 19L1 18L0 18L0 19L1 19L1 20L0 20L0 21L1 21L1 20L2 20L2 21L3 21L3 20L4 20L4 21L5 21L5 20L6 20L6 21L7 21L7 20L6 20L6 19L7 19L7 18L8 18L8 17L10 17L10 18L9 18L9 19L8 19L8 20L9 20L9 21L8 21L8 25L9 25L9 26L8 26L8 29L9 29L9 26L10 26L10 24L11 24L11 26L12 26L12 24L14 24L14 25L15 25L15 24L16 24L16 25L18 25L18 24L19 24L19 23L20 23L20 25L19 25L19 26L20 26L20 28L19 28L19 29L22 29L22 28L23 28L23 27L25 27L25 26L24 26L24 25L25 25L25 22L26 22L26 23L27 23L27 24L26 24L26 25L27 25L27 26L26 26L26 27L27 27L27 28L26 28L26 29L29 29L29 28L28 28L28 27L29 27L29 25L27 25L27 24L29 24L29 20L28 20L28 19L29 19L29 16L28 16L28 15L29 15L29 14L27 14L27 13L28 13L28 12L29 12L29 10L28 10L28 9L27 9L27 8L26 8L26 10L24 10L24 11L23 11L23 10L22 10L22 9L23 9L23 8L21 8L21 6L20 6L20 3L21 3L21 0L18 0L18 1L17 1L17 2L18 2L18 3L17 3L17 6L16 6L16 4L15 4L15 3L16 3L16 0L14 0L14 1L13 1L13 0L12 0L12 1L10 1L10 0ZM18 1L18 2L19 2L19 3L20 3L20 2L19 2L19 1ZM11 2L11 3L12 3L12 4L11 4L11 5L10 5L10 6L9 6L9 7L10 7L10 6L11 6L11 8L12 8L12 10L10 10L10 8L9 8L9 9L8 9L8 11L9 11L9 14L10 14L10 15L8 15L8 16L7 16L7 15L6 15L6 14L8 14L8 12L7 12L7 11L6 11L6 10L7 10L7 9L6 9L6 10L5 10L5 11L3 11L3 12L2 12L2 13L3 13L3 14L5 14L5 16L3 16L3 15L2 15L2 14L1 14L1 15L2 15L2 16L3 16L3 19L4 19L4 20L5 20L5 18L7 18L7 17L8 17L8 16L12 16L12 18L10 18L10 21L9 21L9 23L11 23L11 24L12 24L12 23L11 23L11 22L10 22L10 21L12 21L12 20L13 20L13 19L14 19L14 20L15 20L15 19L16 19L16 21L17 21L17 23L16 23L16 22L15 22L15 23L14 23L14 22L13 22L13 23L14 23L14 24L15 24L15 23L16 23L16 24L17 24L17 23L18 23L18 22L19 22L19 20L20 20L20 16L19 16L19 15L21 15L21 14L24 14L24 15L22 15L22 16L21 16L21 17L22 17L22 16L23 16L23 19L22 19L22 18L21 18L21 19L22 19L22 20L24 20L24 19L25 19L25 18L27 18L27 19L26 19L26 20L25 20L25 21L26 21L26 22L27 22L27 23L28 23L28 21L27 21L27 19L28 19L28 16L27 16L27 15L25 15L25 14L26 14L26 13L27 13L27 12L28 12L28 11L25 11L25 13L24 13L24 12L23 12L23 11L22 11L22 10L21 10L21 12L23 12L23 13L21 13L21 14L20 14L20 13L19 13L19 12L18 12L18 13L19 13L19 15L18 15L18 17L17 17L17 16L16 16L16 13L15 13L15 12L16 12L16 11L18 11L18 10L19 10L19 11L20 11L20 9L19 9L19 8L18 8L18 10L16 10L16 9L15 9L15 8L16 8L16 6L15 6L15 8L14 8L14 9L15 9L15 11L14 11L14 10L13 10L13 8L12 8L12 6L13 6L13 7L14 7L14 5L15 5L15 4L14 4L14 5L13 5L13 3L15 3L15 2L13 2L13 3L12 3L12 2ZM17 6L17 7L18 7L18 6ZM19 6L19 7L20 7L20 6ZM9 10L9 11L10 11L10 10ZM5 11L5 14L6 14L6 13L7 13L7 12L6 12L6 11ZM11 11L11 12L12 12L12 13L11 13L11 15L12 15L12 16L13 16L13 18L15 18L15 14L14 14L14 11L13 11L13 12L12 12L12 11ZM3 12L3 13L4 13L4 12ZM13 14L13 15L14 15L14 14ZM6 16L6 17L7 17L7 16ZM24 16L24 17L25 17L25 16ZM16 17L16 18L17 18L17 17ZM11 19L11 20L12 20L12 19ZM17 19L17 21L18 21L18 19ZM21 21L21 24L24 24L24 21ZM22 22L22 23L23 23L23 22ZM21 25L21 28L22 28L22 26L23 26L23 25ZM13 26L13 27L14 27L14 26ZM17 26L17 27L15 27L15 28L16 28L16 29L18 29L18 26ZM27 26L27 27L28 27L28 26ZM11 27L11 28L10 28L10 29L11 29L11 28L12 28L12 29L13 29L13 28L12 28L12 27ZM0 0L0 7L7 7L7 0ZM1 1L1 6L6 6L6 1ZM2 2L2 5L5 5L5 2ZM22 0L22 7L29 7L29 0ZM23 1L23 6L28 6L28 1ZM24 2L24 5L27 5L27 2ZM0 22L0 29L7 29L7 22ZM1 23L1 28L6 28L6 23ZM2 24L2 27L5 27L5 24Z" fill="#282828"/></g></g></svg>
