<?xml version="1.0" encoding="UTF-8"?>
<svg xmlns="http://www.w3.org/2000/svg" version="1.1" width="90" height="90" viewBox="0 0 90 90"><rect x="0" y="0" width="90" height="90" fill="#ffffff"/><g transform="scale(2.903)"><g transform="translate(1,1)"><path fill-rule="evenodd" d="M8 0L8 4L10 4L10 3L11 3L11 4L12 4L12 2L11 2L11 0ZM12 0L12 1L13 1L13 2L14 2L14 0ZM16 0L16 2L15 2L15 3L14 3L14 4L16 4L16 5L18 5L18 7L17 7L17 6L16 6L16 7L15 7L15 6L14 6L14 8L15 8L15 9L16 9L16 10L15 10L15 11L16 11L16 10L17 10L17 9L18 9L18 8L20 8L20 9L21 9L21 5L18 5L18 4L19 4L19 3L18 3L18 2L20 2L20 3L21 3L21 2L20 2L20 1L21 1L21 0L20 0L20 1L19 1L19 0L18 0L18 2L17 2L17 0ZM9 2L9 3L10 3L10 2ZM8 5L8 7L9 7L9 8L10 8L10 7L11 7L11 6L12 6L12 8L11 8L11 9L7 9L7 8L4 8L4 9L2 9L2 8L0 8L0 10L1 10L1 11L0 11L0 14L2 14L2 15L1 15L1 16L0 16L0 18L2 18L2 17L3 17L3 19L2 19L2 20L0 20L0 21L4 21L4 20L5 20L5 21L7 21L7 20L5 20L5 19L8 19L8 22L9 22L9 21L10 21L10 20L12 20L12 21L13 21L13 22L14 22L14 21L16 21L16 22L15 22L15 24L13 24L13 23L12 23L12 24L9 24L9 23L8 23L8 25L9 25L9 27L8 27L8 29L11 29L11 28L12 28L12 29L14 29L14 27L15 27L15 28L17 28L17 29L19 29L19 25L20 25L20 26L21 26L21 27L20 27L20 29L22 29L22 28L21 28L21 27L23 27L23 28L24 28L24 29L25 29L25 28L26 28L26 27L27 27L27 29L28 29L28 28L29 28L29 24L28 24L28 23L29 23L29 21L28 21L28 20L29 20L29 17L26 17L26 14L25 14L25 13L26 13L26 10L25 10L25 9L29 9L29 8L25 8L25 9L24 9L24 8L23 8L23 9L22 9L22 10L23 10L23 11L21 11L21 10L20 10L20 11L21 11L21 12L20 12L20 13L22 13L22 14L21 14L21 15L20 15L20 17L21 17L21 15L22 15L22 16L23 16L23 14L25 14L25 17L22 17L22 18L21 18L21 20L20 20L20 19L19 19L19 17L18 17L18 16L19 16L19 13L18 13L18 11L19 11L19 10L18 10L18 11L17 11L17 13L16 13L16 14L15 14L15 13L13 13L13 12L12 12L12 11L13 11L13 10L14 10L14 9L12 9L12 8L13 8L13 5L11 5L11 6L10 6L10 7L9 7L9 5ZM19 6L19 7L20 7L20 6ZM16 8L16 9L17 9L17 8ZM1 9L1 10L2 10L2 9ZM5 9L5 10L7 10L7 9ZM11 9L11 10L8 10L8 11L9 11L9 12L7 12L7 11L6 11L6 12L5 12L5 11L4 11L4 10L3 10L3 11L1 11L1 12L3 12L3 13L2 13L2 14L4 14L4 15L6 15L6 16L5 16L5 17L4 17L4 19L5 19L5 17L6 17L6 18L8 18L8 19L9 19L9 20L10 20L10 19L9 19L9 18L10 18L10 16L12 16L12 17L11 17L11 18L12 18L12 17L14 17L14 18L13 18L13 19L12 19L12 20L13 20L13 21L14 21L14 20L15 20L15 19L14 19L14 18L16 18L16 19L18 19L18 21L19 21L19 22L20 22L20 21L19 21L19 19L18 19L18 18L16 18L16 17L17 17L17 15L18 15L18 14L17 14L17 15L15 15L15 14L13 14L13 13L12 13L12 12L11 12L11 13L10 13L10 11L11 11L11 10L12 10L12 9ZM24 10L24 11L23 11L23 12L22 12L22 13L25 13L25 12L24 12L24 11L25 11L25 10ZM28 10L28 11L29 11L29 10ZM3 11L3 12L4 12L4 14L6 14L6 15L7 15L7 14L9 14L9 13L7 13L7 12L6 12L6 13L5 13L5 12L4 12L4 11ZM27 12L27 14L28 14L28 15L27 15L27 16L29 16L29 14L28 14L28 13L29 13L29 12ZM6 13L6 14L7 14L7 13ZM10 14L10 15L11 15L11 14ZM2 15L2 16L1 16L1 17L2 17L2 16L3 16L3 15ZM8 15L8 17L9 17L9 15ZM12 15L12 16L13 16L13 15ZM14 15L14 17L16 17L16 16L15 16L15 15ZM6 16L6 17L7 17L7 16ZM25 17L25 18L26 18L26 19L25 19L25 20L26 20L26 21L27 21L27 18L26 18L26 17ZM23 19L23 20L24 20L24 19ZM16 20L16 21L17 21L17 20ZM21 21L21 24L24 24L24 21ZM10 22L10 23L11 23L11 22ZM17 22L17 23L16 23L16 24L15 24L15 26L16 26L16 25L17 25L17 26L18 26L18 25L19 25L19 23L18 23L18 22ZM22 22L22 23L23 23L23 22ZM25 22L25 23L26 23L26 24L27 24L27 25L22 25L22 26L23 26L23 27L25 27L25 26L28 26L28 24L27 24L27 22ZM17 23L17 25L18 25L18 23ZM12 24L12 25L10 25L10 27L9 27L9 28L11 28L11 26L12 26L12 25L13 25L13 26L14 26L14 25L13 25L13 24ZM12 27L12 28L13 28L13 27ZM0 0L0 7L7 7L7 0ZM1 1L1 6L6 6L6 1ZM2 2L2 5L5 5L5 2ZM22 0L22 7L29 7L29 0ZM23 1L23 6L28 6L28 1ZM24 2L24 5L27 5L27 2ZM0 22L0 29L7 29L7 22ZM1 23L1 28L6 28L6 23ZM2 24L2 27L5 27L5 24Z" fill="#282828"/></g></g></svg>
