<?xml version="1.0" encoding="UTF-8"?>
<svg xmlns="http://www.w3.org/2000/svg" version="1.1" width="90" height="90" viewBox="0 0 90 90"><rect x="0" y="0" width="90" height="90" fill="#ffffff"/><g transform="scale(2.903)"><g transform="translate(1,1)"><path fill-rule="evenodd" d="M10 0L10 1L9 1L9 2L8 2L8 3L9 3L9 5L10 5L10 7L11 7L11 8L12 8L12 9L11 9L11 10L10 10L10 9L9 9L9 6L8 6L8 8L4 8L4 9L3 9L3 8L0 8L0 9L1 9L1 11L0 11L0 14L1 14L1 15L2 15L2 16L1 16L1 17L3 17L3 15L5 15L5 17L4 17L4 18L2 18L2 19L1 19L1 18L0 18L0 19L1 19L1 20L0 20L0 21L1 21L1 20L2 20L2 19L3 19L3 20L4 20L4 21L8 21L8 25L10 25L10 26L11 26L11 27L10 27L10 28L11 28L11 29L13 29L13 28L14 28L14 29L17 29L17 28L19 28L19 29L23 29L23 28L21 28L21 27L20 27L20 26L21 26L21 25L23 25L23 27L26 27L26 25L27 25L27 26L28 26L28 27L27 27L27 29L29 29L29 28L28 28L28 27L29 27L29 25L27 25L27 24L25 24L25 22L26 22L26 23L27 23L27 22L26 22L26 21L25 21L25 20L26 20L26 19L25 19L25 18L26 18L26 16L25 16L25 18L23 18L23 17L24 17L24 15L25 15L25 14L24 14L24 15L23 15L23 12L25 12L25 11L26 11L26 10L27 10L27 12L26 12L26 13L27 13L27 12L28 12L28 15L29 15L29 12L28 12L28 11L29 11L29 10L27 10L27 8L26 8L26 10L24 10L24 11L22 11L22 10L23 10L23 8L20 8L20 9L19 9L19 12L18 12L18 10L17 10L17 9L18 9L18 8L19 8L19 6L18 6L18 5L20 5L20 7L21 7L21 4L19 4L19 3L21 3L21 1L20 1L20 0L19 0L19 1L15 1L15 0L14 0L14 1L13 1L13 2L15 2L15 3L12 3L12 2L11 2L11 3L12 3L12 5L10 5L10 3L9 3L9 2L10 2L10 1L11 1L11 0ZM16 2L16 3L15 3L15 4L14 4L14 5L13 5L13 7L12 7L12 6L11 6L11 7L12 7L12 8L13 8L13 7L14 7L14 5L18 5L18 2ZM15 6L15 8L14 8L14 9L15 9L15 8L17 8L17 7L18 7L18 6L17 6L17 7L16 7L16 6ZM2 9L2 11L3 11L3 9ZM6 9L6 10L7 10L7 11L6 11L6 12L5 12L5 14L7 14L7 15L6 15L6 16L8 16L8 18L7 18L7 17L5 17L5 18L4 18L4 19L5 19L5 18L7 18L7 19L6 19L6 20L8 20L8 21L10 21L10 22L9 22L9 23L12 23L12 24L11 24L11 25L12 25L12 24L13 24L13 23L14 23L14 22L13 22L13 20L12 20L12 19L11 19L11 18L10 18L10 19L9 19L9 17L10 17L10 16L11 16L11 17L12 17L12 16L13 16L13 15L14 15L14 14L15 14L15 17L16 17L16 16L17 16L17 17L18 17L18 18L17 18L17 19L16 19L16 18L13 18L13 19L14 19L14 20L15 20L15 23L16 23L16 24L15 24L15 25L16 25L16 24L17 24L17 27L18 27L18 26L19 26L19 25L20 25L20 24L17 24L17 23L18 23L18 21L20 21L20 20L24 20L24 19L23 19L23 18L21 18L21 19L20 19L20 18L19 18L19 17L20 17L20 15L22 15L22 13L21 13L21 14L20 14L20 12L22 12L22 11L21 11L21 10L20 10L20 12L19 12L19 13L18 13L18 14L17 14L17 15L16 15L16 14L15 14L15 11L16 11L16 12L17 12L17 10L15 10L15 11L14 11L14 10L13 10L13 11L14 11L14 14L13 14L13 12L12 12L12 11L11 11L11 12L12 12L12 14L11 14L11 15L10 15L10 14L9 14L9 13L10 13L10 12L9 12L9 11L10 11L10 10L9 10L9 11L8 11L8 9ZM4 10L4 11L5 11L5 10ZM7 11L7 12L6 12L6 13L7 13L7 12L8 12L8 13L9 13L9 12L8 12L8 11ZM3 12L3 13L4 13L4 12ZM2 14L2 15L3 15L3 14ZM8 14L8 16L10 16L10 15L9 15L9 14ZM18 14L18 15L17 15L17 16L18 16L18 15L19 15L19 14ZM26 14L26 15L27 15L27 14ZM11 15L11 16L12 16L12 15ZM28 16L28 19L27 19L27 21L28 21L28 24L29 24L29 20L28 20L28 19L29 19L29 16ZM18 18L18 19L17 19L17 20L16 20L16 19L15 19L15 20L16 20L16 21L17 21L17 20L20 20L20 19L19 19L19 18ZM8 19L8 20L9 20L9 19ZM10 19L10 21L11 21L11 22L12 22L12 20L11 20L11 19ZM21 21L21 24L24 24L24 21ZM22 22L22 23L23 23L23 22ZM8 26L8 29L9 29L9 26ZM13 26L13 27L14 27L14 28L16 28L16 26L15 26L15 27L14 27L14 26ZM11 27L11 28L12 28L12 27ZM25 28L25 29L26 29L26 28ZM0 0L0 7L7 7L7 0ZM1 1L1 6L6 6L6 1ZM2 2L2 5L5 5L5 2ZM22 0L22 7L29 7L29 0ZM23 1L23 6L28 6L28 1ZM24 2L24 5L27 5L27 2ZM0 22L0 29L7 29L7 22ZM1 23L1 28L6 28L6 23ZM2 24L2 27L5 27L5 24Z" fill="#282828"/></g></g></svg>
