<?xml version="1.0" encoding="UTF-8"?>
<svg xmlns="http://www.w3.org/2000/svg" version="1.1" width="90" height="90" viewBox="0 0 90 90"><rect x="0" y="0" width="90" height="90" fill="#ffffff"/><g transform="scale(2.903)"><g transform="translate(1,1)"><path fill-rule="evenodd" d="M9 0L9 1L8 1L8 3L9 3L9 4L8 4L8 8L6 8L6 9L8 9L8 10L6 10L6 11L5 11L5 13L4 13L4 14L3 14L3 15L1 15L1 14L2 14L2 12L1 12L1 13L0 13L0 15L1 15L1 16L0 16L0 17L2 17L2 18L4 18L4 19L2 19L2 20L4 20L4 19L5 19L5 21L8 21L8 23L11 23L11 25L10 25L10 24L9 24L9 25L8 25L8 26L9 26L9 27L8 27L8 29L9 29L9 28L10 28L10 29L11 29L11 28L12 28L12 29L14 29L14 28L12 28L12 24L14 24L14 25L13 25L13 27L15 27L15 28L16 28L16 27L17 27L17 29L19 29L19 28L20 28L20 29L21 29L21 28L20 28L20 27L19 27L19 26L20 26L20 25L22 25L22 27L23 27L23 26L24 26L24 27L27 27L27 28L25 28L25 29L28 29L28 27L29 27L29 26L28 26L28 25L27 25L27 24L29 24L29 23L27 23L27 22L26 22L26 21L28 21L28 22L29 22L29 17L28 17L28 19L27 19L27 20L26 20L26 21L25 21L25 18L27 18L27 17L25 17L25 14L26 14L26 13L27 13L27 11L28 11L28 10L27 10L27 9L28 9L28 8L26 8L26 10L27 10L27 11L26 11L26 13L25 13L25 10L23 10L23 11L24 11L24 13L25 13L25 14L23 14L23 12L21 12L21 11L20 11L20 10L22 10L22 9L25 9L25 8L22 8L22 9L19 9L19 13L20 13L20 14L21 14L21 15L22 15L22 14L23 14L23 15L24 15L24 17L21 17L21 18L20 18L20 16L19 16L19 15L16 15L16 16L14 16L14 15L15 15L15 14L16 14L16 13L15 13L15 12L17 12L17 10L18 10L18 8L20 8L20 7L21 7L21 6L20 6L20 3L21 3L21 0L18 0L18 1L17 1L17 2L16 2L16 1L14 1L14 0L12 0L12 1L11 1L11 2L9 2L9 1L10 1L10 0ZM18 1L18 2L19 2L19 3L20 3L20 1ZM13 2L13 3L12 3L12 4L9 4L9 5L10 5L10 6L9 6L9 7L10 7L10 8L8 8L8 9L9 9L9 10L10 10L10 8L11 8L11 9L12 9L12 10L11 10L11 11L9 11L9 12L8 12L8 14L7 14L7 13L6 13L6 14L7 14L7 15L6 15L6 16L3 16L3 17L4 17L4 18L5 18L5 17L6 17L6 18L7 18L7 17L6 17L6 16L9 16L9 15L8 15L8 14L9 14L9 13L12 13L12 12L13 12L13 8L15 8L15 9L14 9L14 10L15 10L15 11L14 11L14 12L15 12L15 11L16 11L16 10L15 10L15 9L16 9L16 8L17 8L17 7L18 7L18 4L17 4L17 3L16 3L16 2L15 2L15 4L14 4L14 2ZM13 4L13 6L12 6L12 5L11 5L11 6L10 6L10 7L11 7L11 6L12 6L12 8L13 8L13 6L14 6L14 7L15 7L15 8L16 8L16 7L17 7L17 6L16 6L16 5L17 5L17 4L16 4L16 5L14 5L14 4ZM15 6L15 7L16 7L16 6ZM19 6L19 7L20 7L20 6ZM0 8L0 11L2 11L2 10L3 10L3 12L4 12L4 10L5 10L5 9L4 9L4 8L3 8L3 9L2 9L2 8ZM6 11L6 12L7 12L7 11ZM28 12L28 13L29 13L29 12ZM13 13L13 15L14 15L14 13ZM10 14L10 16L12 16L12 17L9 17L9 18L8 18L8 20L9 20L9 21L11 21L11 20L9 20L9 18L10 18L10 19L12 19L12 20L14 20L14 21L16 21L16 20L17 20L17 19L20 19L20 20L18 20L18 21L17 21L17 22L15 22L15 23L14 23L14 24L16 24L16 23L17 23L17 25L16 25L16 26L15 26L15 25L14 25L14 26L15 26L15 27L16 27L16 26L17 26L17 25L18 25L18 26L19 26L19 25L20 25L20 23L19 23L19 21L20 21L20 20L21 20L21 19L22 19L22 18L21 18L21 19L20 19L20 18L18 18L18 17L19 17L19 16L16 16L16 17L17 17L17 18L15 18L15 17L14 17L14 16L12 16L12 14ZM28 14L28 15L29 15L29 14ZM13 17L13 18L14 18L14 20L15 20L15 18L14 18L14 17ZM24 17L24 18L23 18L23 20L24 20L24 18L25 18L25 17ZM0 18L0 19L1 19L1 18ZM6 19L6 20L7 20L7 19ZM0 20L0 21L1 21L1 20ZM21 21L21 24L24 24L24 21ZM22 22L22 23L23 23L23 22ZM18 23L18 24L19 24L19 23ZM25 23L25 24L26 24L26 23ZM9 25L9 26L10 26L10 25ZM24 25L24 26L25 26L25 25ZM26 25L26 26L27 26L27 27L28 27L28 26L27 26L27 25ZM10 27L10 28L11 28L11 27ZM22 28L22 29L23 29L23 28ZM0 0L0 7L7 7L7 0ZM1 1L1 6L6 6L6 1ZM2 2L2 5L5 5L5 2ZM22 0L22 7L29 7L29 0ZM23 1L23 6L28 6L28 1ZM24 2L24 5L27 5L27 2ZM0 22L0 29L7 29L7 22ZM1 23L1 28L6 28L6 23ZM2 24L2 27L5 27L5 24Z" fill="#282828"/></g></g></svg>
