<?xml version="1.0" encoding="UTF-8"?>
<svg xmlns="http://www.w3.org/2000/svg" version="1.1" width="90" height="90" viewBox="0 0 90 90"><rect x="0" y="0" width="90" height="90" fill="#ffffff"/><g transform="scale(3.333)"><g transform="translate(1,1)"><path fill-rule="evenodd" d="M9 0L9 1L8 1L8 3L9 3L9 4L8 4L8 8L6 8L6 9L7 9L7 10L5 10L5 9L4 9L4 8L3 8L3 9L2 9L2 8L0 8L0 9L2 9L2 10L1 10L1 11L2 11L2 12L1 12L1 13L2 13L2 14L3 14L3 16L2 16L2 15L1 15L1 14L0 14L0 15L1 15L1 16L0 16L0 17L3 17L3 16L4 16L4 17L5 17L5 16L4 16L4 14L5 14L5 13L7 13L7 12L6 12L6 11L8 11L8 8L10 8L10 10L9 10L9 11L11 11L11 12L12 12L12 11L13 11L13 13L14 13L14 11L15 11L15 12L16 12L16 13L17 13L17 14L16 14L16 15L17 15L17 14L19 14L19 15L18 15L18 16L15 16L15 15L13 15L13 17L14 17L14 16L15 16L15 19L14 19L14 18L12 18L12 17L11 17L11 18L12 18L12 19L11 19L11 20L10 20L10 19L9 19L9 18L10 18L10 17L9 17L9 16L10 16L10 14L11 14L11 16L12 16L12 14L11 14L11 13L10 13L10 14L8 14L8 16L6 16L6 17L8 17L8 19L9 19L9 21L8 21L8 22L11 22L11 21L12 21L12 20L13 20L13 24L12 24L12 25L14 25L14 24L15 24L15 25L20 25L20 24L21 24L21 19L22 19L22 20L23 20L23 21L22 21L22 22L23 22L23 21L24 21L24 20L25 20L25 16L24 16L24 15L25 15L25 12L24 12L24 11L25 11L25 9L24 9L24 8L22 8L22 9L21 9L21 8L18 8L18 9L21 9L21 10L17 10L17 8L15 8L15 6L16 6L16 7L17 7L17 6L16 6L16 5L17 5L17 4L15 4L15 3L13 3L13 0L12 0L12 1L11 1L11 2L9 2L9 1L10 1L10 0ZM14 0L14 1L15 1L15 2L16 2L16 3L17 3L17 2L16 2L16 1L17 1L17 0ZM12 3L12 4L9 4L9 5L10 5L10 6L9 6L9 7L10 7L10 8L11 8L11 9L12 9L12 10L11 10L11 11L12 11L12 10L14 10L14 9L12 9L12 6L13 6L13 8L14 8L14 6L13 6L13 5L14 5L14 4L13 4L13 3ZM11 5L11 6L10 6L10 7L11 7L11 6L12 6L12 5ZM15 9L15 11L16 11L16 12L19 12L19 14L20 14L20 15L19 15L19 16L21 16L21 18L22 18L22 17L23 17L23 14L24 14L24 12L23 12L23 11L24 11L24 9L22 9L22 10L21 10L21 12L19 12L19 11L16 11L16 9ZM2 10L2 11L3 11L3 12L2 12L2 13L3 13L3 12L5 12L5 10ZM22 10L22 11L23 11L23 10ZM8 12L8 13L9 13L9 12ZM21 12L21 13L23 13L23 12ZM6 14L6 15L7 15L7 14ZM21 14L21 15L22 15L22 14ZM17 17L17 20L20 20L20 17ZM18 18L18 19L19 19L19 18ZM23 18L23 20L24 20L24 18ZM13 19L13 20L14 20L14 19ZM15 19L15 21L16 21L16 23L17 23L17 22L18 22L18 24L19 24L19 23L20 23L20 22L19 22L19 21L16 21L16 19ZM24 22L24 23L25 23L25 22ZM8 23L8 25L11 25L11 24L10 24L10 23ZM23 24L23 25L25 25L25 24ZM0 0L0 7L7 7L7 0ZM1 1L1 6L6 6L6 1ZM2 2L2 5L5 5L5 2ZM18 0L18 7L25 7L25 0ZM19 1L19 6L24 6L24 1ZM20 2L20 5L23 5L23 2ZM0 18L0 25L7 25L7 18ZM1 19L1 24L6 24L6 19ZM2 20L2 23L5 23L5 20Z" fill="#282828"/></g></g></svg>
