<?xml version="1.0" encoding="UTF-8"?>
<svg xmlns="http://www.w3.org/2000/svg" version="1.1" width="90" height="90" viewBox="0 0 90 90"><rect x="0" y="0" width="90" height="90" fill="#ffffff"/><g transform="scale(3.333)"><g transform="translate(1,1)"><path fill-rule="evenodd" d="M9 0L9 1L8 1L8 2L9 2L9 3L8 3L8 4L10 4L10 7L11 7L11 4L12 4L12 5L13 5L13 6L12 6L12 9L13 9L13 10L11 10L11 11L10 11L10 9L11 9L11 8L6 8L6 9L5 9L5 8L0 8L0 9L2 9L2 10L3 10L3 9L4 9L4 11L3 11L3 12L2 12L2 14L4 14L4 16L2 16L2 17L7 17L7 16L6 16L6 15L8 15L8 19L9 19L9 20L8 20L8 25L9 25L9 24L10 24L10 25L11 25L11 24L10 24L10 23L11 23L11 22L12 22L12 23L13 23L13 21L15 21L15 22L16 22L16 23L14 23L14 24L13 24L13 25L14 25L14 24L16 24L16 23L17 23L17 24L18 24L18 25L20 25L20 23L19 23L19 21L20 21L20 22L21 22L21 21L22 21L22 22L24 22L24 24L21 24L21 25L25 25L25 21L23 21L23 20L21 20L21 17L22 17L22 18L24 18L24 19L25 19L25 18L24 18L24 17L25 17L25 14L24 14L24 13L25 13L25 10L24 10L24 8L23 8L23 10L22 10L22 11L23 11L23 12L24 12L24 13L22 13L22 15L23 15L23 14L24 14L24 16L23 16L23 17L22 17L22 16L19 16L19 14L20 14L20 13L19 13L19 12L20 12L20 11L21 11L21 10L20 10L20 8L19 8L19 9L18 9L18 8L17 8L17 4L15 4L15 3L16 3L16 2L17 2L17 0L15 0L15 1L14 1L14 0L13 0L13 1L11 1L11 2L10 2L10 0ZM12 2L12 4L14 4L14 6L13 6L13 9L14 9L14 10L15 10L15 9L17 9L17 10L16 10L16 13L15 13L15 14L18 14L18 13L17 13L17 11L18 11L18 9L17 9L17 8L15 8L15 9L14 9L14 6L15 6L15 7L16 7L16 6L15 6L15 4L14 4L14 3L15 3L15 2ZM10 3L10 4L11 4L11 3ZM8 5L8 7L9 7L9 5ZM21 8L21 9L22 9L22 8ZM6 9L6 10L5 10L5 12L3 12L3 13L4 13L4 14L5 14L5 15L6 15L6 14L7 14L7 13L9 13L9 14L8 14L8 15L9 15L9 14L10 14L10 15L12 15L12 16L11 16L11 17L13 17L13 18L10 18L10 19L11 19L11 21L10 21L10 22L11 22L11 21L13 21L13 20L16 20L16 19L15 19L15 18L14 18L14 17L13 17L13 16L14 16L14 15L13 15L13 14L12 14L12 13L11 13L11 12L10 12L10 13L9 13L9 9ZM6 10L6 11L7 11L7 12L5 12L5 14L6 14L6 13L7 13L7 12L8 12L8 11L7 11L7 10ZM23 10L23 11L24 11L24 10ZM0 11L0 17L1 17L1 11ZM12 11L12 12L13 12L13 13L14 13L14 11ZM10 13L10 14L11 14L11 13ZM9 16L9 17L10 17L10 16ZM17 17L17 20L20 20L20 17ZM18 18L18 19L19 19L19 18ZM12 19L12 20L13 20L13 19ZM16 21L16 22L17 22L17 23L18 23L18 24L19 24L19 23L18 23L18 22L17 22L17 21ZM0 0L0 7L7 7L7 0ZM1 1L1 6L6 6L6 1ZM2 2L2 5L5 5L5 2ZM18 0L18 7L25 7L25 0ZM19 1L19 6L24 6L24 1ZM20 2L20 5L23 5L23 2ZM0 18L0 25L7 25L7 18ZM1 19L1 24L6 24L6 19ZM2 20L2 23L5 23L5 20Z" fill="#282828"/></g></g></svg>
