<?xml version="1.0" encoding="UTF-8"?>
<svg xmlns="http://www.w3.org/2000/svg" version="1.1" width="90" height="90" viewBox="0 0 90 90"><rect x="0" y="0" width="90" height="90" fill="#ffffff"/><g transform="scale(3.333)"><g transform="translate(1,1)"><path fill-rule="evenodd" d="M8 0L8 1L9 1L9 2L8 2L8 5L9 5L9 4L11 4L11 5L10 5L10 10L9 10L9 13L7 13L7 12L5 12L5 14L4 14L4 11L5 11L5 10L6 10L6 11L8 11L8 10L6 10L6 9L7 9L7 8L6 8L6 9L5 9L5 10L0 10L0 11L1 11L1 12L2 12L2 13L1 13L1 15L0 15L0 16L1 16L1 15L2 15L2 17L4 17L4 16L5 16L5 14L6 14L6 15L7 15L7 16L6 16L6 17L8 17L8 18L9 18L9 17L8 17L8 14L9 14L9 16L10 16L10 18L11 18L11 16L12 16L12 17L13 17L13 18L14 18L14 20L16 20L16 21L14 21L14 23L9 23L9 21L10 21L10 22L11 22L11 20L12 20L12 19L11 19L11 20L10 20L10 19L9 19L9 21L8 21L8 25L10 25L10 24L11 24L11 25L13 25L13 24L15 24L15 25L16 25L16 24L15 24L15 22L16 22L16 21L17 21L17 25L18 25L18 24L19 24L19 25L20 25L20 24L21 24L21 25L22 25L22 24L23 24L23 25L25 25L25 24L23 24L23 23L24 23L24 22L25 22L25 21L24 21L24 20L25 20L25 17L23 17L23 16L20 16L20 15L18 15L18 13L19 13L19 14L22 14L22 15L23 15L23 14L22 14L22 12L24 12L24 14L25 14L25 12L24 12L24 11L23 11L23 10L25 10L25 8L24 8L24 9L23 9L23 8L20 8L20 9L18 9L18 8L17 8L17 9L16 9L16 8L14 8L14 11L13 11L13 6L12 6L12 5L14 5L14 7L15 7L15 5L16 5L16 3L17 3L17 2L16 2L16 3L15 3L15 2L13 2L13 1L14 1L14 0L12 0L12 1L11 1L11 0L10 0L10 1L9 1L9 0ZM15 0L15 1L17 1L17 0ZM11 2L11 4L12 4L12 3L13 3L13 4L14 4L14 5L15 5L15 4L14 4L14 3L13 3L13 2ZM8 6L8 7L9 7L9 6ZM11 6L11 8L12 8L12 6ZM16 6L16 7L17 7L17 6ZM0 8L0 9L4 9L4 8ZM8 8L8 9L9 9L9 8ZM11 9L11 10L12 10L12 9ZM15 9L15 11L14 11L14 12L15 12L15 13L17 13L17 12L18 12L18 9L17 9L17 10L16 10L16 9ZM20 9L20 10L22 10L22 9ZM11 11L11 13L10 13L10 16L11 16L11 13L12 13L12 12L13 12L13 11ZM19 12L19 13L21 13L21 12ZM2 13L2 15L3 15L3 16L4 16L4 15L3 15L3 13ZM6 13L6 14L7 14L7 13ZM13 13L13 14L12 14L12 16L14 16L14 15L16 15L16 16L15 16L15 18L16 18L16 16L18 16L18 15L17 15L17 14L14 14L14 13ZM13 14L13 15L14 15L14 14ZM24 15L24 16L25 16L25 15ZM17 17L17 20L20 20L20 17ZM21 17L21 18L22 18L22 17ZM18 18L18 19L19 19L19 18ZM23 18L23 19L21 19L21 21L20 21L20 22L21 22L21 23L23 23L23 20L24 20L24 18ZM21 21L21 22L22 22L22 21ZM18 22L18 23L19 23L19 24L20 24L20 23L19 23L19 22ZM0 0L0 7L7 7L7 0ZM1 1L1 6L6 6L6 1ZM2 2L2 5L5 5L5 2ZM18 0L18 7L25 7L25 0ZM19 1L19 6L24 6L24 1ZM20 2L20 5L23 5L23 2ZM0 18L0 25L7 25L7 18ZM1 19L1 24L6 24L6 19ZM2 20L2 23L5 23L5 20Z" fill="#282828"/></g></g></svg>
