<?xml version="1.0" encoding="UTF-8"?>
<svg xmlns="http://www.w3.org/2000/svg" version="1.1" width="90" height="90" viewBox="0 0 90 90"><rect x="0" y="0" width="90" height="90" fill="#ffffff"/><g transform="scale(3.333)"><g transform="translate(1,1)"><path fill-rule="evenodd" d="M8 0L8 1L9 1L9 2L10 2L10 3L11 3L11 1L13 1L13 0L11 0L11 1L9 1L9 0ZM14 0L14 1L16 1L16 0ZM12 2L12 4L11 4L11 5L10 5L10 4L9 4L9 5L10 5L10 8L9 8L9 6L8 6L8 8L9 8L9 9L8 9L8 10L5 10L5 11L4 11L4 12L2 12L2 13L4 13L4 16L3 16L3 15L2 15L2 14L1 14L1 13L0 13L0 17L1 17L1 15L2 15L2 16L3 16L3 17L5 17L5 16L6 16L6 17L8 17L8 18L9 18L9 17L11 17L11 18L10 18L10 20L11 20L11 19L12 19L12 21L13 21L13 20L15 20L15 22L14 22L14 24L12 24L12 25L15 25L15 22L16 22L16 21L18 21L18 22L17 22L17 23L16 23L16 25L23 25L23 24L24 24L24 25L25 25L25 20L24 20L24 19L25 19L25 18L23 18L23 14L24 14L24 17L25 17L25 14L24 14L24 13L25 13L25 8L24 8L24 9L23 9L23 10L22 10L22 9L20 9L20 10L14 10L14 11L16 11L16 14L15 14L15 13L13 13L13 11L12 11L12 10L13 10L13 9L12 9L12 7L13 7L13 8L14 8L14 9L15 9L15 8L16 8L16 9L17 9L17 3L16 3L16 2ZM13 3L13 4L12 4L12 5L11 5L11 7L12 7L12 5L13 5L13 4L14 4L14 5L15 5L15 7L14 7L14 6L13 6L13 7L14 7L14 8L15 8L15 7L16 7L16 5L15 5L15 4L16 4L16 3ZM0 8L0 12L1 12L1 10L2 10L2 11L3 11L3 10L4 10L4 9L5 9L5 8L3 8L3 10L2 10L2 8ZM6 8L6 9L7 9L7 8ZM18 8L18 9L19 9L19 8ZM10 9L10 10L8 10L8 11L6 11L6 12L7 12L7 13L6 13L6 14L7 14L7 15L6 15L6 16L10 16L10 15L9 15L9 12L8 12L8 11L10 11L10 10L12 10L12 9ZM21 10L21 11L22 11L22 10ZM23 10L23 12L24 12L24 10ZM19 11L19 14L18 14L18 12L17 12L17 14L16 14L16 15L15 15L15 14L14 14L14 15L12 15L12 16L11 16L11 17L13 17L13 18L12 18L12 19L13 19L13 18L14 18L14 19L15 19L15 18L14 18L14 17L13 17L13 16L17 16L17 14L18 14L18 15L19 15L19 14L20 14L20 16L21 16L21 18L22 18L22 19L21 19L21 20L22 20L22 21L19 21L19 22L18 22L18 23L19 23L19 22L22 22L22 23L23 23L23 22L22 22L22 21L23 21L23 18L22 18L22 16L21 16L21 14L20 14L20 13L21 13L21 12L20 12L20 11ZM10 12L10 14L13 14L13 13L11 13L11 12ZM22 13L22 14L23 14L23 13ZM17 17L17 20L20 20L20 17ZM18 18L18 19L19 19L19 18ZM8 20L8 22L11 22L11 21L9 21L9 20ZM12 22L12 23L13 23L13 22ZM8 23L8 25L10 25L10 24L11 24L11 23ZM20 23L20 24L21 24L21 23ZM0 0L0 7L7 7L7 0ZM1 1L1 6L6 6L6 1ZM2 2L2 5L5 5L5 2ZM18 0L18 7L25 7L25 0ZM19 1L19 6L24 6L24 1ZM20 2L20 5L23 5L23 2ZM0 18L0 25L7 25L7 18ZM1 19L1 24L6 24L6 19ZM2 20L2 23L5 23L5 20Z" fill="#282828"/></g></g></svg>
