<?xml version="1.0" encoding="UTF-8"?>
<svg xmlns="http://www.w3.org/2000/svg" version="1.1" width="90" height="90" viewBox="0 0 90 90"><rect x="0" y="0" width="90" height="90" fill="#ffffff"/><g transform="scale(3.333)"><g transform="translate(1,1)"><path fill-rule="evenodd" d="M9 0L9 1L8 1L8 3L9 3L9 4L8 4L8 8L6 8L6 9L7 9L7 10L6 10L6 11L8 11L8 12L5 12L5 14L4 14L4 13L3 13L3 14L2 14L2 15L1 15L1 14L0 14L0 15L1 15L1 16L0 16L0 17L2 17L2 15L3 15L3 17L4 17L4 15L5 15L5 17L8 17L8 19L9 19L9 21L8 21L8 22L9 22L9 21L10 21L10 19L11 19L11 21L12 21L12 22L13 22L13 23L10 23L10 24L11 24L11 25L12 25L12 24L16 24L16 25L19 25L19 24L20 24L20 25L21 25L21 24L22 24L22 23L23 23L23 22L22 22L22 20L23 20L23 18L24 18L24 19L25 19L25 16L24 16L24 15L25 15L25 9L24 9L24 8L22 8L22 9L21 9L21 8L18 8L18 9L17 9L17 8L16 8L16 11L15 11L15 10L14 10L14 8L15 8L15 6L16 6L16 7L17 7L17 6L16 6L16 5L17 5L17 4L15 4L15 3L14 3L14 4L13 4L13 2L14 2L14 1L13 1L13 0L12 0L12 1L11 1L11 0ZM15 0L15 2L16 2L16 3L17 3L17 2L16 2L16 0ZM9 1L9 2L11 2L11 1ZM12 1L12 2L13 2L13 1ZM9 4L9 5L10 5L10 6L9 6L9 7L10 7L10 8L8 8L8 9L9 9L9 10L8 10L8 11L9 11L9 16L8 16L8 17L9 17L9 19L10 19L10 18L11 18L11 19L12 19L12 21L13 21L13 20L14 20L14 18L13 18L13 19L12 19L12 18L11 18L11 17L12 17L12 16L13 16L13 17L15 17L15 16L13 16L13 15L17 15L17 13L16 13L16 12L14 12L14 13L15 13L15 14L13 14L13 12L12 12L12 10L13 10L13 8L14 8L14 6L15 6L15 5L14 5L14 6L13 6L13 5L11 5L11 4ZM10 6L10 7L11 7L11 6ZM12 6L12 7L13 7L13 6ZM0 8L0 9L1 9L1 10L2 10L2 11L1 11L1 12L0 12L0 13L1 13L1 12L2 12L2 11L5 11L5 9L4 9L4 8L3 8L3 10L2 10L2 8ZM10 8L10 10L9 10L9 11L11 11L11 9L12 9L12 8ZM19 9L19 11L20 11L20 12L19 12L19 13L20 13L20 16L21 16L21 20L22 20L22 18L23 18L23 14L24 14L24 9L22 9L22 10L21 10L21 9ZM17 10L17 11L18 11L18 10ZM20 10L20 11L21 11L21 10ZM21 12L21 13L23 13L23 12ZM6 13L6 14L8 14L8 13ZM10 13L10 15L11 15L11 16L12 16L12 14L11 14L11 13ZM3 14L3 15L4 15L4 14ZM18 14L18 16L19 16L19 14ZM21 14L21 15L22 15L22 14ZM6 15L6 16L7 16L7 15ZM17 17L17 20L20 20L20 17ZM15 18L15 21L16 21L16 22L15 22L15 23L17 23L17 24L19 24L19 23L20 23L20 22L21 22L21 23L22 23L22 22L21 22L21 21L20 21L20 22L19 22L19 21L16 21L16 18ZM18 18L18 19L19 19L19 18ZM24 22L24 23L25 23L25 22ZM8 23L8 25L9 25L9 23ZM23 24L23 25L25 25L25 24ZM0 0L0 7L7 7L7 0ZM1 1L1 6L6 6L6 1ZM2 2L2 5L5 5L5 2ZM18 0L18 7L25 7L25 0ZM19 1L19 6L24 6L24 1ZM20 2L20 5L23 5L23 2ZM0 18L0 25L7 25L7 18ZM1 19L1 24L6 24L6 19ZM2 20L2 23L5 23L5 20Z" fill="#282828"/></g></g></svg>
