<?xml version="1.0" encoding="UTF-8"?>
<svg xmlns="http://www.w3.org/2000/svg" version="1.1" width="90" height="90" viewBox="0 0 90 90"><rect x="0" y="0" width="90" height="90" fill="#ffffff"/><g transform="scale(3.333)"><g transform="translate(1,1)"><path fill-rule="evenodd" d="M8 0L8 1L9 1L9 2L8 2L8 5L9 5L9 2L10 2L10 3L11 3L11 2L12 2L12 3L13 3L13 4L14 4L14 5L12 5L12 7L11 7L11 4L10 4L10 9L11 9L11 10L9 10L9 12L8 12L8 13L7 13L7 12L6 12L6 11L8 11L8 9L9 9L9 8L8 8L8 9L7 9L7 8L6 8L6 9L5 9L5 10L4 10L4 11L2 11L2 9L4 9L4 8L0 8L0 9L1 9L1 10L0 10L0 12L1 12L1 11L2 11L2 12L4 12L4 13L2 13L2 14L1 14L1 15L0 15L0 16L1 16L1 15L3 15L3 16L2 16L2 17L4 17L4 16L5 16L5 15L4 15L4 13L5 13L5 12L6 12L6 13L7 13L7 14L6 14L6 15L7 15L7 14L9 14L9 15L10 15L10 16L8 16L8 18L10 18L10 16L12 16L12 18L13 18L13 19L14 19L14 21L15 21L15 18L14 18L14 16L16 16L16 21L17 21L17 23L18 23L18 24L17 24L17 25L19 25L19 24L20 24L20 23L21 23L21 22L22 22L22 24L21 24L21 25L25 25L25 24L23 24L23 23L24 23L24 22L25 22L25 17L21 17L21 16L19 16L19 14L20 14L20 15L22 15L22 14L23 14L23 13L21 13L21 12L23 12L23 11L24 11L24 14L25 14L25 11L24 11L24 9L25 9L25 8L24 8L24 9L23 9L23 8L20 8L20 9L19 9L19 11L20 11L20 13L19 13L19 12L17 12L17 13L16 13L16 12L15 12L15 10L14 10L14 9L15 9L15 8L16 8L16 7L17 7L17 5L16 5L16 3L17 3L17 2L16 2L16 3L14 3L14 2L12 2L12 1L14 1L14 0ZM16 0L16 1L17 1L17 0ZM10 1L10 2L11 2L11 1ZM15 5L15 7L14 7L14 6L13 6L13 7L12 7L12 8L11 8L11 9L12 9L12 11L11 11L11 13L9 13L9 14L10 14L10 15L12 15L12 16L14 16L14 15L12 15L12 13L13 13L13 14L14 14L14 13L13 13L13 9L14 9L14 8L15 8L15 7L16 7L16 5ZM8 6L8 7L9 7L9 6ZM17 8L17 9L16 9L16 10L17 10L17 11L18 11L18 8ZM6 9L6 10L5 10L5 11L4 11L4 12L5 12L5 11L6 11L6 10L7 10L7 9ZM20 9L20 11L21 11L21 9ZM22 9L22 11L23 11L23 9ZM15 13L15 15L16 15L16 16L18 16L18 14L17 14L17 15L16 15L16 13ZM24 15L24 16L25 16L25 15ZM6 16L6 17L7 17L7 16ZM17 17L17 20L20 20L20 17ZM18 18L18 19L19 19L19 18ZM22 18L22 22L23 22L23 20L24 20L24 18ZM10 19L10 20L11 20L11 21L8 21L8 25L9 25L9 24L10 24L10 25L11 25L11 24L12 24L12 25L15 25L15 23L16 23L16 22L14 22L14 23L13 23L13 22L12 22L12 20L11 20L11 19ZM20 21L20 22L21 22L21 21ZM12 23L12 24L13 24L13 23ZM0 0L0 7L7 7L7 0ZM1 1L1 6L6 6L6 1ZM2 2L2 5L5 5L5 2ZM18 0L18 7L25 7L25 0ZM19 1L19 6L24 6L24 1ZM20 2L20 5L23 5L23 2ZM0 18L0 25L7 25L7 18ZM1 19L1 24L6 24L6 19ZM2 20L2 23L5 23L5 20Z" fill="#282828"/></g></g></svg>
