<?xml version="1.0" encoding="UTF-8"?>
<svg xmlns="http://www.w3.org/2000/svg" version="1.1" width="90" height="90" viewBox="0 0 90 90"><rect x="0" y="0" width="90" height="90" fill="#ffffff"/><g transform="scale(2.903)"><g transform="translate(1,1)"><path fill-rule="evenodd" d="M9 0L9 1L8 1L8 2L9 2L9 3L8 3L8 4L10 4L10 7L11 7L11 4L12 4L12 5L13 5L13 6L12 6L12 9L13 9L13 8L14 8L14 9L17 9L17 10L18 10L18 11L19 11L19 10L20 10L20 11L21 11L21 10L22 10L22 11L23 11L23 10L24 10L24 12L26 12L26 11L27 11L27 13L24 13L24 14L25 14L25 15L26 15L26 14L27 14L27 16L26 16L26 17L22 17L22 18L21 18L21 15L22 15L22 14L23 14L23 13L20 13L20 12L15 12L15 11L16 11L16 10L15 10L15 11L14 11L14 12L15 12L15 13L12 13L12 11L13 11L13 10L11 10L11 11L10 11L10 9L11 9L11 8L6 8L6 9L9 9L9 10L6 10L6 11L5 11L5 10L4 10L4 9L5 9L5 8L0 8L0 10L2 10L2 11L4 11L4 12L6 12L6 13L5 13L5 14L3 14L3 12L2 12L2 14L1 14L1 12L0 12L0 14L1 14L1 15L0 15L0 21L1 21L1 18L2 18L2 21L4 21L4 20L5 20L5 21L7 21L7 20L8 20L8 23L9 23L9 22L10 22L10 24L11 24L11 21L12 21L12 22L13 22L13 23L12 23L12 25L13 25L13 24L14 24L14 25L16 25L16 26L15 26L15 27L14 27L14 28L15 28L15 27L16 27L16 29L17 29L17 25L18 25L18 27L20 27L20 28L19 28L19 29L20 29L20 28L23 28L23 29L25 29L25 28L26 28L26 29L27 29L27 28L28 28L28 26L29 26L29 25L28 25L28 24L29 24L29 23L28 23L28 22L29 22L29 21L28 21L28 22L27 22L27 23L28 23L28 24L27 24L27 25L26 25L26 27L25 27L25 26L21 26L21 27L20 27L20 25L25 25L25 24L26 24L26 23L25 23L25 18L26 18L26 19L27 19L27 20L26 20L26 21L27 21L27 20L28 20L28 18L29 18L29 17L28 17L28 16L29 16L29 15L28 15L28 14L29 14L29 13L28 13L28 12L29 12L29 11L27 11L27 9L28 9L28 8L27 8L27 9L26 9L26 8L25 8L25 9L24 9L24 8L23 8L23 10L22 10L22 8L21 8L21 9L19 9L19 10L18 10L18 8L14 8L14 7L15 7L15 6L16 6L16 7L17 7L17 6L16 6L16 4L12 4L12 2L13 2L13 1L11 1L11 2L10 2L10 0ZM15 0L15 1L17 1L17 2L16 2L16 3L17 3L17 4L18 4L18 5L20 5L20 7L21 7L21 4L20 4L20 3L21 3L21 2L18 2L18 1L21 1L21 0ZM14 2L14 3L15 3L15 2ZM17 2L17 3L18 3L18 4L19 4L19 3L18 3L18 2ZM10 3L10 4L11 4L11 3ZM8 5L8 7L9 7L9 5ZM13 6L13 7L14 7L14 6ZM18 6L18 7L19 7L19 6ZM6 11L6 12L7 12L7 11ZM8 11L8 12L9 12L9 11ZM10 12L10 13L6 13L6 14L7 14L7 15L6 15L6 16L8 16L8 17L6 17L6 18L10 18L10 21L11 21L11 18L13 18L13 19L12 19L12 21L15 21L15 22L16 22L16 24L18 24L18 25L20 25L20 23L19 23L19 22L20 22L20 20L21 20L21 18L20 18L20 16L18 16L18 13L15 13L15 14L16 14L16 15L17 15L17 17L14 17L14 16L15 16L15 15L14 15L14 16L13 16L13 17L12 17L12 15L13 15L13 14L12 14L12 13L11 13L11 12ZM10 13L10 14L11 14L11 13ZM27 13L27 14L28 14L28 13ZM8 14L8 15L9 15L9 14ZM19 14L19 15L21 15L21 14ZM1 15L1 17L3 17L3 18L4 18L4 19L3 19L3 20L4 20L4 19L5 19L5 17L4 17L4 15ZM23 15L23 16L24 16L24 15ZM10 16L10 18L11 18L11 16ZM17 17L17 18L15 18L15 19L14 19L14 20L15 20L15 21L16 21L16 22L17 22L17 23L18 23L18 22L19 22L19 21L18 21L18 20L19 20L19 19L18 19L18 18L19 18L19 17ZM27 17L27 18L28 18L28 17ZM22 18L22 19L23 19L23 20L24 20L24 19L23 19L23 18ZM6 19L6 20L7 20L7 19ZM16 19L16 21L17 21L17 22L18 22L18 21L17 21L17 20L18 20L18 19ZM21 21L21 24L24 24L24 21ZM22 22L22 23L23 23L23 22ZM14 23L14 24L15 24L15 23ZM8 24L8 29L9 29L9 28L11 28L11 29L12 29L12 27L13 27L13 26L11 26L11 25L9 25L9 24ZM10 26L10 27L11 27L11 26ZM26 27L26 28L27 28L27 27ZM0 0L0 7L7 7L7 0ZM1 1L1 6L6 6L6 1ZM2 2L2 5L5 5L5 2ZM22 0L22 7L29 7L29 0ZM23 1L23 6L28 6L28 1ZM24 2L24 5L27 5L27 2ZM0 22L0 29L7 29L7 22ZM1 23L1 28L6 28L6 23ZM2 24L2 27L5 27L5 24Z" fill="#282828"/></g></g></svg>
