<?xml version="1.0" encoding="UTF-8"?>
<svg xmlns="http://www.w3.org/2000/svg" version="1.1" width="90" height="90" viewBox="0 0 90 90"><rect x="0" y="0" width="90" height="90" fill="#ffffff"/><g transform="scale(2.903)"><g transform="translate(1,1)"><path fill-rule="evenodd" d="M8 0L8 1L10 1L10 0ZM14 0L14 1L15 1L15 0ZM18 0L18 1L16 1L16 3L15 3L15 5L16 5L16 7L17 7L17 9L16 9L16 11L15 11L15 12L16 12L16 14L18 14L18 13L19 13L19 15L18 15L18 16L17 16L17 18L16 18L16 17L15 17L15 19L16 19L16 20L15 20L15 21L14 21L14 20L13 20L13 18L14 18L14 17L12 17L12 16L14 16L14 15L15 15L15 16L16 16L16 15L15 15L15 13L13 13L13 14L12 14L12 12L14 12L14 10L15 10L15 9L14 9L14 10L13 10L13 11L11 11L11 13L10 13L10 12L9 12L9 13L8 13L8 14L6 14L6 13L7 13L7 12L8 12L8 11L9 11L9 10L10 10L10 9L9 9L9 8L10 8L10 7L11 7L11 8L12 8L12 7L13 7L13 5L12 5L12 3L13 3L13 4L14 4L14 2L11 2L11 4L10 4L10 3L9 3L9 2L8 2L8 5L9 5L9 6L8 6L8 7L9 7L9 8L8 8L8 11L7 11L7 10L6 10L6 11L5 11L5 9L4 9L4 8L0 8L0 10L2 10L2 11L3 11L3 12L1 12L1 13L2 13L2 14L1 14L1 15L2 15L2 16L3 16L3 15L2 15L2 14L4 14L4 15L5 15L5 14L6 14L6 15L7 15L7 16L6 16L6 17L5 17L5 16L4 16L4 17L5 17L5 18L6 18L6 19L9 19L9 20L11 20L11 21L8 21L8 22L11 22L11 23L10 23L10 24L9 24L9 25L8 25L8 29L9 29L9 28L10 28L10 27L9 27L9 26L11 26L11 28L12 28L12 29L13 29L13 28L12 28L12 26L13 26L13 27L14 27L14 29L15 29L15 27L16 27L16 25L15 25L15 24L16 24L16 23L17 23L17 21L18 21L18 24L17 24L17 26L18 26L18 24L19 24L19 23L20 23L20 25L19 25L19 27L20 27L20 28L18 28L18 27L17 27L17 29L22 29L22 28L23 28L23 29L24 29L24 28L25 28L25 27L24 27L24 25L25 25L25 26L27 26L27 24L28 24L28 23L27 23L27 21L28 21L28 22L29 22L29 20L27 20L27 19L28 19L28 17L26 17L26 18L27 18L27 19L25 19L25 18L24 18L24 17L25 17L25 16L26 16L26 15L24 15L24 14L23 14L23 12L24 12L24 11L26 11L26 10L27 10L27 11L28 11L28 10L27 10L27 8L24 8L24 9L22 9L22 8L21 8L21 5L20 5L20 4L19 4L19 5L17 5L17 4L18 4L18 3L21 3L21 0ZM18 1L18 2L17 2L17 3L16 3L16 4L17 4L17 3L18 3L18 2L20 2L20 1ZM10 5L10 6L9 6L9 7L10 7L10 6L11 6L11 7L12 7L12 5ZM14 6L14 8L15 8L15 6ZM17 6L17 7L18 7L18 8L20 8L20 9L21 9L21 8L20 8L20 6L19 6L19 7L18 7L18 6ZM6 8L6 9L7 9L7 8ZM28 8L28 9L29 9L29 8ZM17 9L17 11L16 11L16 12L18 12L18 9ZM3 10L3 11L4 11L4 10ZM19 10L19 13L20 13L20 15L19 15L19 17L18 17L18 20L19 20L19 22L20 22L20 19L21 19L21 20L24 20L24 19L23 19L23 18L22 18L22 16L21 16L21 15L22 15L22 12L21 12L21 13L20 13L20 11L23 11L23 10ZM6 11L6 12L7 12L7 11ZM25 13L25 14L26 14L26 13ZM27 13L27 14L28 14L28 15L27 15L27 16L29 16L29 13ZM9 14L9 16L10 16L10 18L12 18L12 17L11 17L11 16L12 16L12 14ZM13 14L13 15L14 15L14 14ZM10 15L10 16L11 16L11 15ZM23 15L23 16L24 16L24 15ZM7 16L7 17L6 17L6 18L7 18L7 17L8 17L8 18L9 18L9 17L8 17L8 16ZM20 16L20 17L21 17L21 16ZM1 17L1 18L0 18L0 19L1 19L1 18L2 18L2 20L1 20L1 21L2 21L2 20L3 20L3 21L4 21L4 20L5 20L5 19L3 19L3 18L2 18L2 17ZM21 18L21 19L22 19L22 18ZM11 19L11 20L12 20L12 19ZM6 20L6 21L7 21L7 20ZM11 21L11 22L12 22L12 21ZM15 21L15 22L14 22L14 23L11 23L11 24L10 24L10 25L12 25L12 24L13 24L13 26L14 26L14 27L15 27L15 26L14 26L14 24L15 24L15 23L16 23L16 21ZM21 21L21 24L24 24L24 21ZM22 22L22 23L23 23L23 22ZM25 22L25 25L26 25L26 24L27 24L27 23L26 23L26 22ZM21 25L21 26L20 26L20 27L21 27L21 26L22 26L22 25ZM28 25L28 27L27 27L27 29L28 29L28 27L29 27L29 25ZM23 27L23 28L24 28L24 27ZM0 0L0 7L7 7L7 0ZM1 1L1 6L6 6L6 1ZM2 2L2 5L5 5L5 2ZM22 0L22 7L29 7L29 0ZM23 1L23 6L28 6L28 1ZM24 2L24 5L27 5L27 2ZM0 22L0 29L7 29L7 22ZM1 23L1 28L6 28L6 23ZM2 24L2 27L5 27L5 24Z" fill="#282828"/></g></g></svg>
