<?xml version="1.0" encoding="UTF-8"?>
<svg xmlns="http://www.w3.org/2000/svg" version="1.1" width="90" height="90" viewBox="0 0 90 90"><rect x="0" y="0" width="90" height="90" fill="#ffffff"/><g transform="scale(3.333)"><g transform="translate(1,1)"><path fill-rule="evenodd" d="M9 0L9 1L8 1L8 2L9 2L9 3L8 3L8 4L10 4L10 3L13 3L13 4L11 4L11 5L10 5L10 7L11 7L11 5L12 5L12 7L13 7L13 5L15 5L15 6L14 6L14 8L13 8L13 9L11 9L11 8L6 8L6 9L7 9L7 10L5 10L5 11L4 11L4 9L5 9L5 8L0 8L0 11L3 11L3 13L0 13L0 17L1 17L1 14L3 14L3 15L2 15L2 16L3 16L3 17L4 17L4 16L5 16L5 17L8 17L8 19L9 19L9 20L8 20L8 25L11 25L11 22L9 22L9 21L10 21L10 19L11 19L11 21L12 21L12 19L11 19L11 18L12 18L12 17L11 17L11 16L10 16L10 15L11 15L11 14L12 14L12 16L13 16L13 17L15 17L15 18L16 18L16 19L14 19L14 20L13 20L13 21L14 21L14 23L15 23L15 24L13 24L13 23L12 23L12 25L15 25L15 24L17 24L17 23L16 23L16 22L15 22L15 21L17 21L17 22L19 22L19 23L20 23L20 22L19 22L19 21L21 21L21 25L25 25L25 21L24 21L24 20L22 20L22 21L21 21L21 19L22 19L22 18L21 18L21 17L22 17L22 16L20 16L20 13L21 13L21 11L17 11L17 9L18 9L18 8L17 8L17 9L16 9L16 8L15 8L15 6L16 6L16 7L17 7L17 6L16 6L16 5L17 5L17 3L15 3L15 2L17 2L17 0L16 0L16 1L15 1L15 2L14 2L14 3L13 3L13 1L14 1L14 0ZM9 1L9 2L10 2L10 1ZM11 1L11 2L12 2L12 1ZM15 4L15 5L16 5L16 4ZM8 5L8 7L9 7L9 5ZM14 8L14 9L13 9L13 10L11 10L11 9L10 9L10 11L11 11L11 12L10 12L10 13L12 13L12 14L13 14L13 16L15 16L15 15L14 15L14 12L15 12L15 10L16 10L16 9L15 9L15 8ZM19 8L19 10L20 10L20 8ZM21 8L21 9L22 9L22 8ZM23 8L23 10L22 10L22 11L23 11L23 10L24 10L24 11L25 11L25 10L24 10L24 8ZM1 9L1 10L2 10L2 9ZM7 10L7 11L6 11L6 12L5 12L5 13L3 13L3 14L7 14L7 15L5 15L5 16L7 16L7 15L8 15L8 16L9 16L9 17L10 17L10 16L9 16L9 15L10 15L10 14L9 14L9 15L8 15L8 13L9 13L9 11L8 11L8 10ZM12 11L12 13L13 13L13 11ZM6 12L6 13L8 13L8 12ZM16 12L16 13L17 13L17 12ZM19 12L19 13L18 13L18 14L16 14L16 16L17 16L17 15L18 15L18 16L19 16L19 15L18 15L18 14L19 14L19 13L20 13L20 12ZM24 12L24 13L22 13L22 15L23 15L23 14L24 14L24 16L23 16L23 18L24 18L24 19L25 19L25 18L24 18L24 17L25 17L25 14L24 14L24 13L25 13L25 12ZM3 15L3 16L4 16L4 15ZM17 17L17 20L20 20L20 17ZM18 18L18 19L19 19L19 18ZM22 21L22 22L23 22L23 23L22 23L22 24L24 24L24 22L23 22L23 21ZM9 23L9 24L10 24L10 23ZM18 24L18 25L19 25L19 24ZM0 0L0 7L7 7L7 0ZM1 1L1 6L6 6L6 1ZM2 2L2 5L5 5L5 2ZM18 0L18 7L25 7L25 0ZM19 1L19 6L24 6L24 1ZM20 2L20 5L23 5L23 2ZM0 18L0 25L7 25L7 18ZM1 19L1 24L6 24L6 19ZM2 20L2 23L5 23L5 20Z" fill="#282828"/></g></g></svg>
