<?xml version="1.0" encoding="UTF-8"?>
<svg xmlns="http://www.w3.org/2000/svg" version="1.1" width="90" height="90" viewBox="0 0 90 90"><rect x="0" y="0" width="90" height="90" fill="#ffffff"/><g transform="scale(2.903)"><g transform="translate(1,1)"><path fill-rule="evenodd" d="M8 0L8 4L10 4L10 3L11 3L11 4L12 4L12 2L11 2L11 0ZM12 0L12 1L13 1L13 0ZM14 0L14 1L15 1L15 0ZM18 0L18 2L16 2L16 3L14 3L14 2L13 2L13 3L14 3L14 4L13 4L13 5L11 5L11 6L10 6L10 7L9 7L9 5L8 5L8 7L9 7L9 8L10 8L10 7L11 7L11 6L12 6L12 8L11 8L11 9L7 9L7 8L4 8L4 10L3 10L3 9L2 9L2 8L0 8L0 9L2 9L2 10L0 10L0 14L1 14L1 15L0 15L0 18L2 18L2 17L1 17L1 16L4 16L4 17L3 17L3 18L5 18L5 19L7 19L7 20L6 20L6 21L7 21L7 20L8 20L8 22L9 22L9 23L8 23L8 25L9 25L9 27L8 27L8 29L9 29L9 27L10 27L10 26L11 26L11 28L10 28L10 29L11 29L11 28L12 28L12 29L14 29L14 27L15 27L15 29L16 29L16 27L17 27L17 28L18 28L18 27L19 27L19 25L20 25L20 27L23 27L23 26L22 26L22 25L24 25L24 26L25 26L25 25L28 25L28 26L26 26L26 27L24 27L24 28L23 28L23 29L28 29L28 28L29 28L29 25L28 25L28 24L29 24L29 21L28 21L28 20L29 20L29 17L26 17L26 16L24 16L24 17L23 17L23 18L27 18L27 20L26 20L26 19L24 19L24 20L19 20L19 18L20 18L20 17L22 17L22 15L23 15L23 14L26 14L26 15L27 15L27 16L28 16L28 15L29 15L29 14L28 14L28 13L29 13L29 12L27 12L27 13L25 13L25 12L26 12L26 11L25 11L25 9L26 9L26 10L27 10L27 9L29 9L29 8L25 8L25 9L24 9L24 8L23 8L23 9L22 9L22 10L21 10L21 11L18 11L18 10L20 10L20 9L21 9L21 5L20 5L20 4L19 4L19 3L18 3L18 2L20 2L20 3L21 3L21 2L20 2L20 1L21 1L21 0L20 0L20 1L19 1L19 0ZM9 2L9 3L10 3L10 2ZM16 3L16 5L15 5L15 7L16 7L16 8L15 8L15 9L13 9L13 8L14 8L14 6L13 6L13 8L12 8L12 9L11 9L11 10L9 10L9 13L10 13L10 14L9 14L9 15L5 15L5 16L7 16L7 17L6 17L6 18L7 18L7 19L8 19L8 20L9 20L9 19L10 19L10 18L12 18L12 17L13 17L13 18L15 18L15 17L16 17L16 16L15 16L15 17L13 17L13 16L14 16L14 15L15 15L15 14L13 14L13 13L12 13L12 12L13 12L13 11L12 11L12 12L11 12L11 13L10 13L10 11L11 11L11 10L12 10L12 9L13 9L13 10L15 10L15 9L16 9L16 11L17 11L17 9L20 9L20 8L17 8L17 7L18 7L18 6L19 6L19 7L20 7L20 6L19 6L19 5L17 5L17 3ZM16 6L16 7L17 7L17 6ZM16 8L16 9L17 9L17 8ZM5 9L5 10L7 10L7 11L4 11L4 12L3 12L3 11L2 11L2 12L3 12L3 13L1 13L1 14L2 14L2 15L3 15L3 13L4 13L4 14L7 14L7 13L8 13L8 10L7 10L7 9ZM23 9L23 10L24 10L24 9ZM28 10L28 11L29 11L29 10ZM14 11L14 13L17 13L17 15L18 15L18 16L17 16L17 18L16 18L16 19L14 19L14 21L15 21L15 22L13 22L13 21L12 21L12 20L13 20L13 19L12 19L12 20L10 20L10 21L9 21L9 22L10 22L10 24L12 24L12 25L11 25L11 26L12 26L12 25L13 25L13 26L16 26L16 25L19 25L19 24L20 24L20 23L19 23L19 22L18 22L18 23L19 23L19 24L17 24L17 22L16 22L16 21L15 21L15 20L17 20L17 21L19 21L19 20L17 20L17 18L18 18L18 17L19 17L19 16L21 16L21 15L20 15L20 14L23 14L23 13L24 13L24 12L25 12L25 11L24 11L24 12L22 12L22 13L20 13L20 12L15 12L15 11ZM4 12L4 13L7 13L7 12ZM19 13L19 14L20 14L20 13ZM10 14L10 15L9 15L9 16L8 16L8 17L7 17L7 18L8 18L8 17L9 17L9 18L10 18L10 17L12 17L12 16L13 16L13 15L12 15L12 16L11 16L11 14ZM27 14L27 15L28 15L28 14ZM2 19L2 20L0 20L0 21L5 21L5 20L4 20L4 19ZM21 21L21 24L24 24L24 21ZM25 21L25 22L27 22L27 21ZM15 22L15 23L14 23L14 24L13 24L13 23L12 23L12 24L13 24L13 25L15 25L15 24L16 24L16 22ZM22 22L22 23L23 23L23 22ZM26 23L26 24L27 24L27 23ZM12 27L12 28L13 28L13 27ZM26 27L26 28L27 28L27 27ZM20 28L20 29L21 29L21 28ZM0 0L0 7L7 7L7 0ZM1 1L1 6L6 6L6 1ZM2 2L2 5L5 5L5 2ZM22 0L22 7L29 7L29 0ZM23 1L23 6L28 6L28 1ZM24 2L24 5L27 5L27 2ZM0 22L0 29L7 29L7 22ZM1 23L1 28L6 28L6 23ZM2 24L2 27L5 27L5 24Z" fill="#282828"/></g></g></svg>
