<?xml version="1.0" encoding="UTF-8"?>
<svg xmlns="http://www.w3.org/2000/svg" version="1.1" width="90" height="90" viewBox="0 0 90 90"><rect x="0" y="0" width="90" height="90" fill="#ffffff"/><g transform="scale(2.903)"><g transform="translate(1,1)"><path fill-rule="evenodd" d="M8 0L8 2L10 2L10 4L8 4L8 9L7 9L7 8L5 8L5 9L7 9L7 10L4 10L4 9L3 9L3 8L0 8L0 9L1 9L1 10L2 10L2 11L1 11L1 13L2 13L2 14L3 14L3 13L2 13L2 11L3 11L3 12L5 12L5 11L8 11L8 13L10 13L10 11L8 11L8 9L9 9L9 10L11 10L11 11L12 11L12 10L11 10L11 8L13 8L13 10L15 10L15 11L16 11L16 8L17 8L17 9L18 9L18 8L20 8L20 10L19 10L19 11L18 11L18 10L17 10L17 11L18 11L18 12L15 12L15 14L13 14L13 13L14 13L14 11L13 11L13 12L11 12L11 13L12 13L12 15L10 15L10 14L8 14L8 15L7 15L7 14L6 14L6 13L7 13L7 12L6 12L6 13L4 13L4 14L6 14L6 15L3 15L3 16L4 16L4 19L2 19L2 18L3 18L3 17L2 17L2 18L0 18L0 19L2 19L2 20L0 20L0 21L2 21L2 20L3 20L3 21L5 21L5 20L6 20L6 21L8 21L8 22L9 22L9 23L8 23L8 24L9 24L9 25L10 25L10 27L12 27L12 26L11 26L11 25L10 25L10 24L9 24L9 23L10 23L10 22L9 22L9 20L10 20L10 21L12 21L12 23L11 23L11 24L13 24L13 26L15 26L15 27L16 27L16 29L18 29L18 28L19 28L19 27L18 27L18 28L17 28L17 26L18 26L18 24L16 24L16 26L15 26L15 23L16 23L16 22L17 22L17 21L18 21L18 20L17 20L17 19L20 19L20 22L18 22L18 23L19 23L19 25L21 25L21 27L22 27L22 29L23 29L23 26L22 26L22 25L25 25L25 26L24 26L24 28L25 28L25 29L27 29L27 28L26 28L26 26L27 26L27 27L29 27L29 24L28 24L28 26L27 26L27 24L26 24L26 23L29 23L29 20L28 20L28 21L27 21L27 20L26 20L26 19L29 19L29 14L28 14L28 13L27 13L27 14L28 14L28 16L27 16L27 18L24 18L24 19L23 19L23 18L22 18L22 19L21 19L21 15L22 15L22 17L24 17L24 16L23 16L23 15L26 15L26 14L24 14L24 13L25 13L25 12L26 12L26 11L27 11L27 12L29 12L29 10L28 10L28 11L27 11L27 10L26 10L26 9L25 9L25 8L21 8L21 5L20 5L20 3L18 3L18 2L19 2L19 1L20 1L20 0L14 0L14 1L13 1L13 0L11 0L11 1L9 1L9 0ZM11 1L11 2L12 2L12 1ZM15 1L15 5L13 5L13 4L14 4L14 2L13 2L13 3L11 3L11 4L12 4L12 6L11 6L11 5L9 5L9 8L10 8L10 6L11 6L11 7L12 7L12 6L13 6L13 8L14 8L14 6L15 6L15 8L16 8L16 6L17 6L17 8L18 8L18 3L17 3L17 5L16 5L16 2L17 2L17 1ZM19 5L19 7L20 7L20 5ZM27 8L27 9L29 9L29 8ZM2 9L2 10L3 10L3 9ZM21 9L21 10L22 10L22 12L21 12L21 11L19 11L19 12L18 12L18 13L17 13L17 15L15 15L15 16L16 16L16 17L17 17L17 18L16 18L16 19L17 19L17 18L20 18L20 17L18 17L18 16L20 16L20 15L21 15L21 13L22 13L22 14L23 14L23 13L22 13L22 12L23 12L23 11L24 11L24 10L25 10L25 9L24 9L24 10L23 10L23 9ZM19 12L19 14L18 14L18 15L20 15L20 13L21 13L21 12ZM0 14L0 15L1 15L1 14ZM6 15L6 16L7 16L7 15ZM8 15L8 16L9 16L9 18L8 18L8 19L6 19L6 20L9 20L9 18L12 18L12 19L10 19L10 20L13 20L13 19L14 19L14 21L13 21L13 22L16 22L16 21L17 21L17 20L15 20L15 18L13 18L13 16L14 16L14 15L13 15L13 16L11 16L11 17L10 17L10 16L9 16L9 15ZM0 16L0 17L1 17L1 16ZM25 16L25 17L26 17L26 16ZM5 17L5 18L7 18L7 17ZM4 19L4 20L5 20L5 19ZM22 19L22 20L23 20L23 19ZM24 19L24 20L25 20L25 19ZM21 21L21 24L24 24L24 21ZM25 21L25 23L26 23L26 22L27 22L27 21ZM22 22L22 23L23 23L23 22ZM13 23L13 24L14 24L14 23ZM8 26L8 29L10 29L10 28L9 28L9 26ZM13 27L13 28L11 28L11 29L14 29L14 27ZM20 28L20 29L21 29L21 28ZM28 28L28 29L29 29L29 28ZM0 0L0 7L7 7L7 0ZM1 1L1 6L6 6L6 1ZM2 2L2 5L5 5L5 2ZM22 0L22 7L29 7L29 0ZM23 1L23 6L28 6L28 1ZM24 2L24 5L27 5L27 2ZM0 22L0 29L7 29L7 22ZM1 23L1 28L6 28L6 23ZM2 24L2 27L5 27L5 24Z" fill="#282828"/></g></g></svg>
