<?xml version="1.0" encoding="UTF-8"?>
<svg xmlns="http://www.w3.org/2000/svg" version="1.1" width="90" height="90" viewBox="0 0 90 90"><rect x="0" y="0" width="90" height="90" fill="#ffffff"/><g transform="scale(3.333)"><g transform="translate(1,1)"><path fill-rule="evenodd" d="M8 0L8 4L9 4L9 5L8 5L8 7L9 7L9 6L10 6L10 9L11 9L11 10L9 10L9 9L7 9L7 8L4 8L4 9L7 9L7 10L5 10L5 11L3 11L3 9L2 9L2 8L0 8L0 10L1 10L1 11L0 11L0 14L2 14L2 13L4 13L4 12L5 12L5 14L4 14L4 15L2 15L2 16L0 16L0 17L2 17L2 16L3 16L3 17L4 17L4 16L5 16L5 17L7 17L7 16L8 16L8 18L10 18L10 20L11 20L11 21L10 21L10 23L8 23L8 25L9 25L9 24L10 24L10 25L11 25L11 24L12 24L12 25L13 25L13 24L12 24L12 23L14 23L14 24L15 24L15 25L16 25L16 24L17 24L17 25L18 25L18 22L20 22L20 21L21 21L21 22L22 22L22 25L25 25L25 24L24 24L24 22L25 22L25 21L24 21L24 20L25 20L25 19L24 19L24 17L25 17L25 16L24 16L24 13L25 13L25 11L24 11L24 9L25 9L25 8L21 8L21 9L20 9L20 8L19 8L19 9L18 9L18 10L17 10L17 9L16 9L16 8L15 8L15 6L14 6L14 5L15 5L15 4L16 4L16 5L17 5L17 3L16 3L16 2L17 2L17 1L16 1L16 0L10 0L10 1L13 1L13 2L15 2L15 3L14 3L14 5L13 5L13 3L11 3L11 2L9 2L9 0ZM15 1L15 2L16 2L16 1ZM10 4L10 5L11 5L11 7L12 7L12 5L11 5L11 4ZM13 6L13 8L11 8L11 9L15 9L15 10L16 10L16 11L17 11L17 12L16 12L16 13L15 13L15 12L14 12L14 10L13 10L13 11L12 11L12 12L11 12L11 11L10 11L10 12L9 12L9 10L7 10L7 11L5 11L5 12L9 12L9 13L8 13L8 14L10 14L10 15L8 15L8 16L9 16L9 17L10 17L10 16L11 16L11 17L12 17L12 18L14 18L14 17L15 17L15 18L16 18L16 17L15 17L15 16L14 16L14 15L15 15L15 14L16 14L16 13L17 13L17 12L19 12L19 10L20 10L20 11L21 11L21 12L22 12L22 13L24 13L24 11L23 11L23 12L22 12L22 11L21 11L21 10L23 10L23 9L21 9L21 10L20 10L20 9L19 9L19 10L18 10L18 11L17 11L17 10L16 10L16 9L15 9L15 8L14 8L14 6ZM16 6L16 7L17 7L17 6ZM1 9L1 10L2 10L2 9ZM1 11L1 12L2 12L2 11ZM12 12L12 13L10 13L10 14L11 14L11 16L12 16L12 13L13 13L13 12ZM6 13L6 14L5 14L5 15L6 15L6 16L7 16L7 15L6 15L6 14L7 14L7 13ZM14 13L14 14L13 14L13 15L14 15L14 14L15 14L15 13ZM19 13L19 14L18 14L18 15L19 15L19 16L21 16L21 17L23 17L23 16L22 16L22 15L23 15L23 14L20 14L20 13ZM16 15L16 16L17 16L17 15ZM17 17L17 20L20 20L20 17ZM18 18L18 19L19 19L19 18ZM21 18L21 21L22 21L22 18ZM8 19L8 21L9 21L9 19ZM11 19L11 20L12 20L12 21L11 21L11 22L13 22L13 21L16 21L16 22L15 22L15 23L16 23L16 22L17 22L17 21L16 21L16 19L15 19L15 20L14 20L14 19L13 19L13 20L12 20L12 19ZM19 23L19 24L20 24L20 25L21 25L21 24L20 24L20 23ZM0 0L0 7L7 7L7 0ZM1 1L1 6L6 6L6 1ZM2 2L2 5L5 5L5 2ZM18 0L18 7L25 7L25 0ZM19 1L19 6L24 6L24 1ZM20 2L20 5L23 5L23 2ZM0 18L0 25L7 25L7 18ZM1 19L1 24L6 24L6 19ZM2 20L2 23L5 23L5 20Z" fill="#282828"/></g></g></svg>
