<?xml version="1.0" encoding="UTF-8"?>
<svg xmlns="http://www.w3.org/2000/svg" version="1.1" width="90" height="90" viewBox="0 0 90 90"><rect x="0" y="0" width="90" height="90" fill="#ffffff"/><g transform="scale(3.333)"><g transform="translate(1,1)"><path fill-rule="evenodd" d="M8 0L8 1L10 1L10 3L11 3L11 2L13 2L13 3L12 3L12 5L14 5L14 7L15 7L15 5L17 5L17 4L16 4L16 2L17 2L17 0L16 0L16 2L15 2L15 1L13 1L13 0ZM8 2L8 5L9 5L9 6L8 6L8 7L9 7L9 6L10 6L10 8L8 8L8 9L7 9L7 8L6 8L6 9L5 9L5 10L4 10L4 8L0 8L0 11L1 11L1 9L3 9L3 10L2 10L2 11L3 11L3 12L2 12L2 14L1 14L1 15L0 15L0 16L1 16L1 15L2 15L2 14L3 14L3 13L4 13L4 12L5 12L5 16L4 16L4 15L3 15L3 16L2 16L2 17L5 17L5 16L6 16L6 17L8 17L8 18L9 18L9 20L11 20L11 23L9 23L9 21L8 21L8 25L10 25L10 24L11 24L11 23L13 23L13 24L12 24L12 25L15 25L15 23L17 23L17 25L18 25L18 24L19 24L19 25L25 25L25 24L23 24L23 23L24 23L24 22L23 22L23 21L22 21L22 22L23 22L23 23L21 23L21 20L22 20L22 19L21 19L21 18L22 18L22 17L21 17L21 16L20 16L20 15L17 15L17 16L16 16L16 15L15 15L15 17L16 17L16 19L15 19L15 20L14 20L14 21L13 21L13 22L12 22L12 20L13 20L13 18L14 18L14 17L11 17L11 15L10 15L10 16L9 16L9 17L8 17L8 15L7 15L7 14L6 14L6 13L7 13L7 12L5 12L5 10L6 10L6 11L7 11L7 10L9 10L9 11L10 11L10 12L9 12L9 13L8 13L8 14L9 14L9 13L10 13L10 12L11 12L11 14L12 14L12 16L13 16L13 15L14 15L14 14L16 14L16 12L17 12L17 14L19 14L19 12L20 12L20 14L21 14L21 15L22 15L22 14L23 14L23 13L21 13L21 12L24 12L24 14L25 14L25 11L24 11L24 9L25 9L25 8L24 8L24 9L23 9L23 8L20 8L20 9L18 9L18 8L16 8L16 9L15 9L15 8L14 8L14 10L12 10L12 9L13 9L13 8L12 8L12 7L13 7L13 6L12 6L12 7L11 7L11 4L10 4L10 5L9 5L9 2ZM14 2L14 3L15 3L15 2ZM16 6L16 7L17 7L17 6ZM11 8L11 9L12 9L12 8ZM6 9L6 10L7 10L7 9ZM17 9L17 10L15 10L15 11L14 11L14 13L13 13L13 12L12 12L12 13L13 13L13 14L14 14L14 13L15 13L15 12L16 12L16 11L17 11L17 12L18 12L18 9ZM20 9L20 10L19 10L19 11L20 11L20 12L21 12L21 11L22 11L22 10L23 10L23 9ZM20 10L20 11L21 11L21 10ZM0 12L0 13L1 13L1 12ZM6 15L6 16L7 16L7 15ZM24 15L24 16L25 16L25 15ZM9 17L9 18L11 18L11 19L12 19L12 18L11 18L11 17ZM17 17L17 20L20 20L20 17ZM23 17L23 18L24 18L24 19L23 19L23 20L24 20L24 19L25 19L25 17ZM18 18L18 19L19 19L19 18ZM15 20L15 21L14 21L14 22L17 22L17 21L16 21L16 20ZM19 21L19 22L20 22L20 21ZM20 23L20 24L21 24L21 23ZM0 0L0 7L7 7L7 0ZM1 1L1 6L6 6L6 1ZM2 2L2 5L5 5L5 2ZM18 0L18 7L25 7L25 0ZM19 1L19 6L24 6L24 1ZM20 2L20 5L23 5L23 2ZM0 18L0 25L7 25L7 18ZM1 19L1 24L6 24L6 19ZM2 20L2 23L5 23L5 20Z" fill="#282828"/></g></g></svg>
