<?xml version="1.0" encoding="UTF-8"?>
<svg xmlns="http://www.w3.org/2000/svg" version="1.1" width="90" height="90" viewBox="0 0 90 90"><rect x="0" y="0" width="90" height="90" fill="#ffffff"/><g transform="scale(2.903)"><g transform="translate(1,1)"><path fill-rule="evenodd" d="M9 0L9 1L8 1L8 2L9 2L9 3L8 3L8 4L10 4L10 7L11 7L11 4L12 4L12 5L13 5L13 6L12 6L12 9L13 9L13 8L14 8L14 9L17 9L17 6L18 6L18 8L20 8L20 9L18 9L18 10L15 10L15 11L14 11L14 12L15 12L15 13L12 13L12 11L13 11L13 10L11 10L11 11L10 11L10 9L11 9L11 8L6 8L6 9L7 9L7 10L3 10L3 9L5 9L5 8L0 8L0 9L1 9L1 10L0 10L0 12L1 12L1 11L2 11L2 13L1 13L1 14L2 14L2 15L1 15L1 16L0 16L0 21L1 21L1 16L3 16L3 17L2 17L2 19L3 19L3 20L2 20L2 21L5 21L5 20L6 20L6 21L7 21L7 20L8 20L8 23L10 23L10 24L8 24L8 29L10 29L10 28L9 28L9 26L10 26L10 24L11 24L11 22L9 22L9 20L10 20L10 21L12 21L12 22L13 22L13 23L12 23L12 25L13 25L13 24L14 24L14 25L16 25L16 26L15 26L15 27L14 27L14 28L15 28L15 27L16 27L16 29L17 29L17 24L16 24L16 22L17 22L17 21L16 21L16 19L18 19L18 20L19 20L19 21L18 21L18 22L19 22L19 23L18 23L18 24L20 24L20 25L18 25L18 26L20 26L20 25L26 25L26 23L25 23L25 19L24 19L24 18L25 18L25 17L28 17L28 18L26 18L26 19L27 19L27 20L26 20L26 21L27 21L27 20L28 20L28 18L29 18L29 17L28 17L28 16L29 16L29 15L28 15L28 14L29 14L29 13L28 13L28 14L27 14L27 15L28 15L28 16L26 16L26 15L25 15L25 14L26 14L26 13L21 13L21 11L22 11L22 10L23 10L23 12L26 12L26 11L27 11L27 9L28 9L28 8L27 8L27 9L26 9L26 8L25 8L25 9L24 9L24 8L23 8L23 9L22 9L22 8L21 8L21 4L17 4L17 5L16 5L16 4L12 4L12 2L13 2L13 1L11 1L11 2L10 2L10 0ZM15 0L15 1L17 1L17 0ZM18 0L18 3L19 3L19 1L20 1L20 2L21 2L21 1L20 1L20 0ZM14 2L14 3L15 3L15 2ZM16 2L16 3L17 3L17 2ZM10 3L10 4L11 4L11 3ZM8 5L8 7L9 7L9 5ZM18 5L18 6L19 6L19 7L20 7L20 5ZM13 6L13 7L14 7L14 8L16 8L16 6L15 6L15 7L14 7L14 6ZM18 10L18 11L15 11L15 12L17 12L17 13L15 13L15 14L16 14L16 15L17 15L17 17L14 17L14 16L15 16L15 15L14 15L14 16L13 16L13 17L12 17L12 15L13 15L13 14L12 14L12 13L11 13L11 12L10 12L10 13L11 13L11 14L9 14L9 12L8 12L8 11L6 11L6 12L3 12L3 13L6 13L6 14L4 14L4 15L3 15L3 16L4 16L4 17L3 17L3 18L4 18L4 17L5 17L5 19L6 19L6 20L7 20L7 19L6 19L6 18L9 18L9 19L8 19L8 20L9 20L9 19L10 19L10 18L13 18L13 19L12 19L12 21L15 21L15 22L16 22L16 21L15 21L15 20L14 20L14 19L15 19L15 18L17 18L17 17L19 17L19 15L20 15L20 14L18 14L18 15L17 15L17 13L20 13L20 10ZM28 11L28 12L29 12L29 11ZM6 12L6 13L7 13L7 14L6 14L6 15L8 15L8 16L11 16L11 15L9 15L9 14L8 14L8 13L7 13L7 12ZM21 14L21 15L22 15L22 17L25 17L25 15L24 15L24 14L23 14L23 15L22 15L22 14ZM5 16L5 17L7 17L7 16ZM20 16L20 17L21 17L21 16ZM18 18L18 19L20 19L20 20L21 20L21 19L20 19L20 18ZM22 18L22 20L24 20L24 19L23 19L23 18ZM19 21L19 22L20 22L20 21ZM21 21L21 24L24 24L24 21ZM28 21L28 22L27 22L27 23L28 23L28 24L27 24L27 26L26 26L26 27L25 27L25 26L23 26L23 28L22 28L22 29L23 29L23 28L24 28L24 29L25 29L25 28L26 28L26 29L27 29L27 28L28 28L28 26L29 26L29 25L28 25L28 24L29 24L29 23L28 23L28 22L29 22L29 21ZM22 22L22 23L23 23L23 22ZM14 23L14 24L15 24L15 23ZM11 26L11 29L12 29L12 27L13 27L13 26ZM20 27L20 28L19 28L19 29L20 29L20 28L21 28L21 27ZM26 27L26 28L27 28L27 27ZM0 0L0 7L7 7L7 0ZM1 1L1 6L6 6L6 1ZM2 2L2 5L5 5L5 2ZM22 0L22 7L29 7L29 0ZM23 1L23 6L28 6L28 1ZM24 2L24 5L27 5L27 2ZM0 22L0 29L7 29L7 22ZM1 23L1 28L6 28L6 23ZM2 24L2 27L5 27L5 24Z" fill="#282828"/></g></g></svg>
