<?xml version="1.0" encoding="UTF-8"?>
<svg xmlns="http://www.w3.org/2000/svg" version="1.1" width="90" height="90" viewBox="0 0 90 90"><rect x="0" y="0" width="90" height="90" fill="#ffffff"/><g transform="scale(2.903)"><g transform="translate(1,1)"><path fill-rule="evenodd" d="M9 0L9 1L8 1L8 2L9 2L9 3L8 3L8 4L10 4L10 7L11 7L11 4L12 4L12 5L13 5L13 6L12 6L12 9L13 9L13 8L14 8L14 9L15 9L15 10L17 10L17 9L16 9L16 7L17 7L17 5L16 5L16 4L17 4L17 2L18 2L18 1L19 1L19 0L15 0L15 1L17 1L17 2L16 2L16 4L12 4L12 2L13 2L13 1L11 1L11 2L10 2L10 0ZM20 0L20 2L19 2L19 4L20 4L20 7L19 7L19 6L18 6L18 7L19 7L19 9L18 9L18 11L19 11L19 9L20 9L20 10L21 10L21 12L24 12L24 13L23 13L23 14L24 14L24 15L22 15L22 14L21 14L21 13L20 13L20 12L19 12L19 13L17 13L17 14L16 14L16 13L12 13L12 11L13 11L13 10L11 10L11 11L10 11L10 9L11 9L11 8L6 8L6 9L9 9L9 11L8 11L8 10L5 10L5 11L3 11L3 12L2 12L2 13L1 13L1 14L2 14L2 13L3 13L3 15L1 15L1 16L2 16L2 18L4 18L4 17L5 17L5 18L6 18L6 19L7 19L7 20L6 20L6 21L7 21L7 20L8 20L8 19L10 19L10 18L11 18L11 21L10 21L10 20L9 20L9 21L8 21L8 23L9 23L9 24L8 24L8 29L9 29L9 28L10 28L10 29L12 29L12 27L13 27L13 26L11 26L11 21L12 21L12 22L13 22L13 23L12 23L12 25L13 25L13 24L14 24L14 25L18 25L18 24L17 24L17 23L18 23L18 21L17 21L17 20L15 20L15 19L17 19L17 18L15 18L15 19L14 19L14 20L15 20L15 21L12 21L12 19L13 19L13 18L11 18L11 17L10 17L10 16L11 16L11 13L12 13L12 14L13 14L13 15L12 15L12 17L13 17L13 16L14 16L14 17L15 17L15 16L16 16L16 17L17 17L17 16L16 16L16 15L17 15L17 14L18 14L18 16L20 16L20 15L22 15L22 16L24 16L24 17L23 17L23 18L22 18L22 17L20 17L20 18L22 18L22 20L21 20L21 19L20 19L20 21L19 21L19 22L20 22L20 23L19 23L19 24L20 24L20 25L24 25L24 26L23 26L23 27L22 27L22 26L21 26L21 27L20 27L20 28L21 28L21 29L23 29L23 28L24 28L24 29L25 29L25 28L26 28L26 27L25 27L25 22L26 22L26 23L28 23L28 22L29 22L29 21L28 21L28 22L27 22L27 20L28 20L28 18L29 18L29 17L28 17L28 16L29 16L29 15L28 15L28 14L29 14L29 12L27 12L27 13L28 13L28 14L27 14L27 15L28 15L28 16L26 16L26 15L25 15L25 14L26 14L26 13L25 13L25 12L26 12L26 11L27 11L27 9L28 9L28 8L27 8L27 9L26 9L26 8L25 8L25 9L24 9L24 8L23 8L23 11L22 11L22 10L21 10L21 9L22 9L22 8L21 8L21 4L20 4L20 2L21 2L21 0ZM14 2L14 3L15 3L15 2ZM10 3L10 4L11 4L11 3ZM8 5L8 7L9 7L9 5ZM13 6L13 7L14 7L14 8L15 8L15 7L16 7L16 6L15 6L15 7L14 7L14 6ZM0 8L0 9L1 9L1 10L0 10L0 12L1 12L1 11L2 11L2 10L4 10L4 9L5 9L5 8ZM20 8L20 9L21 9L21 8ZM5 11L5 14L8 14L8 15L5 15L5 16L8 16L8 15L9 15L9 16L10 16L10 15L9 15L9 14L10 14L10 13L11 13L11 12L10 12L10 13L9 13L9 12L7 12L7 11ZM14 11L14 12L15 12L15 11ZM16 11L16 12L17 12L17 11ZM6 12L6 13L7 13L7 12ZM8 13L8 14L9 14L9 13ZM19 13L19 15L20 15L20 13ZM14 15L14 16L15 16L15 15ZM0 17L0 21L1 21L1 17ZM6 17L6 18L7 18L7 17ZM8 17L8 18L10 18L10 17ZM18 17L18 19L19 19L19 17ZM25 17L25 18L23 18L23 19L24 19L24 20L25 20L25 21L26 21L26 20L27 20L27 19L26 19L26 18L28 18L28 17ZM2 19L2 21L3 21L3 19ZM4 20L4 21L5 21L5 20ZM15 21L15 22L16 22L16 23L17 23L17 21ZM21 21L21 24L24 24L24 21ZM22 22L22 23L23 23L23 22ZM14 23L14 24L15 24L15 23ZM26 24L26 25L27 25L27 28L28 28L28 26L29 26L29 25L28 25L28 24ZM9 26L9 27L11 27L11 26ZM15 26L15 27L14 27L14 28L15 28L15 29L16 29L16 27L17 27L17 26ZM18 26L18 28L17 28L17 29L18 29L18 28L19 28L19 26ZM21 27L21 28L22 28L22 27ZM0 0L0 7L7 7L7 0ZM1 1L1 6L6 6L6 1ZM2 2L2 5L5 5L5 2ZM22 0L22 7L29 7L29 0ZM23 1L23 6L28 6L28 1ZM24 2L24 5L27 5L27 2ZM0 22L0 29L7 29L7 22ZM1 23L1 28L6 28L6 23ZM2 24L2 27L5 27L5 24Z" fill="#282828"/></g></g></svg>
