<?xml version="1.0" encoding="UTF-8"?>
<svg xmlns="http://www.w3.org/2000/svg" version="1.1" width="90" height="90" viewBox="0 0 90 90"><rect x="0" y="0" width="90" height="90" fill="#ffffff"/><g transform="scale(2.903)"><g transform="translate(1,1)"><path fill-rule="evenodd" d="M9 0L9 1L8 1L8 2L9 2L9 3L8 3L8 4L10 4L10 7L11 7L11 4L12 4L12 5L13 5L13 4L14 4L14 7L15 7L15 9L14 9L14 8L13 8L13 6L12 6L12 9L14 9L14 10L15 10L15 11L16 11L16 13L15 13L15 14L14 14L14 13L12 13L12 11L13 11L13 10L11 10L11 11L10 11L10 9L11 9L11 8L6 8L6 9L7 9L7 10L6 10L6 11L3 11L3 10L5 10L5 8L0 8L0 9L1 9L1 10L0 10L0 13L1 13L1 12L2 12L2 13L3 13L3 14L2 14L2 15L1 15L1 14L0 14L0 21L1 21L1 17L5 17L5 18L6 18L6 19L4 19L4 18L3 18L3 19L2 19L2 21L4 21L4 20L5 20L5 21L8 21L8 23L11 23L11 22L10 22L10 20L9 20L9 21L8 21L8 19L11 19L11 21L12 21L12 22L13 22L13 23L12 23L12 25L13 25L13 24L14 24L14 25L15 25L15 27L14 27L14 28L15 28L15 29L17 29L17 28L15 28L15 27L17 27L17 25L15 25L15 24L16 24L16 23L18 23L18 22L19 22L19 23L20 23L20 24L19 24L19 26L21 26L21 28L19 28L19 27L18 27L18 28L19 28L19 29L21 29L21 28L22 28L22 27L25 27L25 28L24 28L24 29L27 29L27 28L28 28L28 26L29 26L29 25L27 25L27 28L26 28L26 27L25 27L25 26L21 26L21 25L26 25L26 23L25 23L25 20L23 20L23 19L25 19L25 18L26 18L26 19L27 19L27 20L26 20L26 21L27 21L27 20L28 20L28 18L29 18L29 17L28 17L28 18L27 18L27 16L28 16L28 14L29 14L29 13L28 13L28 11L27 11L27 9L28 9L28 8L27 8L27 9L26 9L26 8L25 8L25 9L24 9L24 8L23 8L23 9L22 9L22 8L21 8L21 6L20 6L20 7L19 7L19 6L18 6L18 5L19 5L19 4L20 4L20 5L21 5L21 4L20 4L20 3L21 3L21 0L20 0L20 2L19 2L19 4L16 4L16 2L18 2L18 1L19 1L19 0L18 0L18 1L15 1L15 0L14 0L14 2L15 2L15 4L14 4L14 3L13 3L13 4L12 4L12 2L13 2L13 1L11 1L11 2L10 2L10 0ZM10 3L10 4L11 4L11 3ZM15 4L15 5L16 5L16 6L15 6L15 7L16 7L16 8L17 8L17 12L19 12L19 13L20 13L20 14L19 14L19 16L18 16L18 13L17 13L17 16L16 16L16 15L14 15L14 16L13 16L13 17L12 17L12 15L13 15L13 14L12 14L12 13L11 13L11 12L10 12L10 13L11 13L11 14L9 14L9 9L8 9L8 12L7 12L7 11L6 11L6 12L7 12L7 13L6 13L6 14L3 14L3 16L5 16L5 17L6 17L6 18L7 18L7 17L8 17L8 18L9 18L9 17L8 17L8 16L9 16L9 15L11 15L11 16L10 16L10 18L13 18L13 19L12 19L12 21L19 21L19 22L20 22L20 21L19 21L19 20L18 20L18 19L20 19L20 20L22 20L22 19L23 19L23 17L26 17L26 16L27 16L27 14L28 14L28 13L27 13L27 11L26 11L26 12L24 12L24 11L25 11L25 10L24 10L24 11L23 11L23 10L20 10L20 9L21 9L21 8L18 8L18 6L17 6L17 5L16 5L16 4ZM8 5L8 7L9 7L9 5ZM16 6L16 7L17 7L17 6ZM15 9L15 10L16 10L16 9ZM18 9L18 10L19 10L19 9ZM2 11L2 12L3 12L3 13L5 13L5 12L3 12L3 11ZM21 12L21 15L20 15L20 16L19 16L19 17L18 17L18 18L17 18L17 17L16 17L16 16L14 16L14 17L15 17L15 19L14 19L14 20L15 20L15 19L16 19L16 20L17 20L17 19L18 19L18 18L20 18L20 19L21 19L21 18L22 18L22 17L20 17L20 16L22 16L22 14L25 14L25 15L26 15L26 14L27 14L27 13L22 13L22 12ZM6 14L6 15L7 15L7 16L6 16L6 17L7 17L7 16L8 16L8 14ZM23 15L23 16L24 16L24 15ZM16 18L16 19L17 19L17 18ZM3 19L3 20L4 20L4 19ZM6 19L6 20L7 20L7 19ZM21 21L21 24L24 24L24 21ZM28 21L28 22L27 22L27 23L28 23L28 24L29 24L29 23L28 23L28 22L29 22L29 21ZM22 22L22 23L23 23L23 22ZM14 23L14 24L15 24L15 23ZM8 24L8 29L9 29L9 28L10 28L10 26L11 26L11 29L12 29L12 27L13 27L13 26L11 26L11 25L9 25L9 24ZM0 0L0 7L7 7L7 0ZM1 1L1 6L6 6L6 1ZM2 2L2 5L5 5L5 2ZM22 0L22 7L29 7L29 0ZM23 1L23 6L28 6L28 1ZM24 2L24 5L27 5L27 2ZM0 22L0 29L7 29L7 22ZM1 23L1 28L6 28L6 23ZM2 24L2 27L5 27L5 24Z" fill="#282828"/></g></g></svg>
