<?xml version="1.0" encoding="UTF-8"?>
<svg xmlns="http://www.w3.org/2000/svg" version="1.1" width="90" height="90" viewBox="0 0 90 90"><rect x="0" y="0" width="90" height="90" fill="#ffffff"/><g transform="scale(3.333)"><g transform="translate(1,1)"><path fill-rule="evenodd" d="M8 0L8 4L9 4L9 5L8 5L8 7L9 7L9 6L10 6L10 9L11 9L11 10L9 10L9 9L7 9L7 8L4 8L4 9L2 9L2 8L0 8L0 10L1 10L1 11L0 11L0 14L1 14L1 13L2 13L2 14L3 14L3 13L4 13L4 12L6 12L6 13L5 13L5 14L4 14L4 15L3 15L3 16L0 16L0 17L3 17L3 16L4 16L4 15L5 15L5 17L7 17L7 16L8 16L8 18L10 18L10 19L8 19L8 21L9 21L9 20L10 20L10 19L12 19L12 20L11 20L11 21L10 21L10 22L9 22L9 23L8 23L8 25L10 25L10 24L9 24L9 23L10 23L10 22L11 22L11 23L12 23L12 25L14 25L14 24L13 24L13 23L15 23L15 22L16 22L16 23L18 23L18 24L19 24L19 25L21 25L21 24L22 24L22 25L25 25L25 24L24 24L24 22L25 22L25 21L24 21L24 20L25 20L25 19L24 19L24 17L25 17L25 16L24 16L24 13L25 13L25 12L24 12L24 9L25 9L25 8L21 8L21 9L20 9L20 8L19 8L19 9L20 9L20 10L18 10L18 11L19 11L19 12L17 12L17 13L16 13L16 11L17 11L17 9L16 9L16 7L17 7L17 6L16 6L16 7L15 7L15 6L14 6L14 7L15 7L15 9L14 9L14 8L13 8L13 2L15 2L15 3L14 3L14 5L17 5L17 3L16 3L16 2L17 2L17 1L16 1L16 0L10 0L10 1L9 1L9 0ZM10 1L10 2L12 2L12 1ZM15 1L15 2L16 2L16 1ZM10 4L10 5L11 5L11 7L12 7L12 5L11 5L11 4ZM11 8L11 9L13 9L13 8ZM1 9L1 10L2 10L2 11L1 11L1 12L2 12L2 13L3 13L3 12L4 12L4 11L6 11L6 12L7 12L7 13L6 13L6 14L5 14L5 15L6 15L6 16L7 16L7 15L8 15L8 16L9 16L9 17L10 17L10 18L11 18L11 17L12 17L12 18L14 18L14 17L15 17L15 20L14 20L14 19L13 19L13 20L12 20L12 21L11 21L11 22L14 22L14 21L16 21L16 22L17 22L17 21L16 21L16 16L19 16L19 14L20 14L20 16L21 16L21 17L22 17L22 18L23 18L23 16L22 16L22 15L23 15L23 14L20 14L20 13L21 13L21 12L22 12L22 13L23 13L23 12L22 12L22 11L23 11L23 9L21 9L21 10L20 10L20 11L21 11L21 12L20 12L20 13L17 13L17 14L16 14L16 16L15 16L15 14L14 14L14 13L15 13L15 11L14 11L14 10L13 10L13 11L12 11L12 12L11 12L11 11L10 11L10 12L8 12L8 11L9 11L9 10L7 10L7 9L6 9L6 10L5 10L5 9L4 9L4 11L3 11L3 10L2 10L2 9ZM6 10L6 11L7 11L7 10ZM21 10L21 11L22 11L22 10ZM2 11L2 12L3 12L3 11ZM12 12L12 13L9 13L9 14L8 14L8 15L9 15L9 16L10 16L10 15L11 15L11 16L12 16L12 13L14 13L14 12ZM6 14L6 15L7 15L7 14ZM9 14L9 15L10 15L10 14ZM13 14L13 15L14 15L14 14ZM17 14L17 15L18 15L18 14ZM13 16L13 17L14 17L14 16ZM17 17L17 20L20 20L20 17ZM18 18L18 19L19 19L19 18ZM21 19L21 20L22 20L22 19ZM13 20L13 21L14 21L14 20ZM21 21L21 22L20 22L20 23L19 23L19 24L21 24L21 22L22 22L22 23L23 23L23 21ZM15 24L15 25L16 25L16 24ZM0 0L0 7L7 7L7 0ZM1 1L1 6L6 6L6 1ZM2 2L2 5L5 5L5 2ZM18 0L18 7L25 7L25 0ZM19 1L19 6L24 6L24 1ZM20 2L20 5L23 5L23 2ZM0 18L0 25L7 25L7 18ZM1 19L1 24L6 24L6 19ZM2 20L2 23L5 23L5 20Z" fill="#282828"/></g></g></svg>
