<?xml version="1.0" encoding="UTF-8"?>
<svg xmlns="http://www.w3.org/2000/svg" version="1.1" width="90" height="90" viewBox="0 0 90 90"><rect x="0" y="0" width="90" height="90" fill="#ffffff"/><g transform="scale(3.333)"><g transform="translate(1,1)"><path fill-rule="evenodd" d="M9 0L9 1L8 1L8 3L9 3L9 4L8 4L8 8L6 8L6 9L4 9L4 8L3 8L3 9L2 9L2 8L0 8L0 9L2 9L2 10L1 10L1 11L0 11L0 12L2 12L2 14L4 14L4 13L5 13L5 14L6 14L6 15L1 15L1 14L0 14L0 15L1 15L1 16L0 16L0 17L5 17L5 16L6 16L6 17L8 17L8 19L9 19L9 18L10 18L10 20L11 20L11 22L10 22L10 23L8 23L8 25L9 25L9 24L10 24L10 23L11 23L11 25L13 25L13 24L14 24L14 25L15 25L15 24L16 24L16 25L19 25L19 24L20 24L20 25L21 25L21 24L22 24L22 23L23 23L23 22L22 22L22 20L23 20L23 18L24 18L24 21L25 21L25 16L24 16L24 15L25 15L25 12L20 12L20 11L23 11L23 10L22 10L22 9L24 9L24 11L25 11L25 9L24 9L24 8L22 8L22 9L21 9L21 8L18 8L18 9L17 9L17 6L16 6L16 5L17 5L17 4L16 4L16 3L17 3L17 2L16 2L16 1L14 1L14 0L12 0L12 1L11 1L11 2L9 2L9 1L10 1L10 0ZM13 2L13 3L12 3L12 4L9 4L9 5L10 5L10 6L9 6L9 7L10 7L10 8L8 8L8 9L9 9L9 10L8 10L8 12L7 12L7 11L6 11L6 10L7 10L7 9L6 9L6 10L5 10L5 11L3 11L3 13L4 13L4 12L5 12L5 11L6 11L6 12L7 12L7 13L6 13L6 14L7 14L7 15L6 15L6 16L7 16L7 15L8 15L8 14L9 14L9 15L10 15L10 14L9 14L9 13L12 13L12 12L13 12L13 8L15 8L15 9L14 9L14 10L15 10L15 11L14 11L14 12L15 12L15 13L16 13L16 14L15 14L15 15L14 15L14 13L13 13L13 15L14 15L14 16L12 16L12 14L11 14L11 16L10 16L10 18L11 18L11 19L12 19L12 20L14 20L14 21L16 21L16 22L15 22L15 23L14 23L14 22L13 22L13 23L14 23L14 24L15 24L15 23L17 23L17 24L18 24L18 23L17 23L17 22L19 22L19 23L20 23L20 22L21 22L21 23L22 23L22 22L21 22L21 21L16 21L16 18L15 18L15 17L16 17L16 16L17 16L17 15L18 15L18 16L21 16L21 20L22 20L22 18L23 18L23 14L24 14L24 13L20 13L20 12L19 12L19 11L20 11L20 10L21 10L21 9L18 9L18 11L16 11L16 10L15 10L15 9L16 9L16 6L15 6L15 7L14 7L14 6L13 6L13 4L14 4L14 5L16 5L16 4L14 4L14 2ZM15 2L15 3L16 3L16 2ZM11 5L11 6L10 6L10 7L11 7L11 6L12 6L12 8L13 8L13 6L12 6L12 5ZM10 8L10 10L9 10L9 11L11 11L11 10L12 10L12 9L11 9L11 8ZM15 11L15 12L16 12L16 13L17 13L17 14L16 14L16 15L17 15L17 14L18 14L18 13L19 13L19 15L22 15L22 14L20 14L20 13L19 13L19 12L16 12L16 11ZM8 12L8 13L9 13L9 12ZM8 16L8 17L9 17L9 16ZM11 16L11 17L12 17L12 16ZM14 16L14 17L13 17L13 18L14 18L14 17L15 17L15 16ZM17 17L17 20L20 20L20 17ZM18 18L18 19L19 19L19 18ZM8 21L8 22L9 22L9 21ZM24 22L24 23L25 23L25 22ZM23 24L23 25L25 25L25 24ZM0 0L0 7L7 7L7 0ZM1 1L1 6L6 6L6 1ZM2 2L2 5L5 5L5 2ZM18 0L18 7L25 7L25 0ZM19 1L19 6L24 6L24 1ZM20 2L20 5L23 5L23 2ZM0 18L0 25L7 25L7 18ZM1 19L1 24L6 24L6 19ZM2 20L2 23L5 23L5 20Z" fill="#282828"/></g></g></svg>
