<?xml version="1.0" encoding="UTF-8"?>
<svg xmlns="http://www.w3.org/2000/svg" version="1.1" width="90" height="90" viewBox="0 0 90 90"><rect x="0" y="0" width="90" height="90" fill="#ffffff"/><g transform="scale(2.903)"><g transform="translate(1,1)"><path fill-rule="evenodd" d="M9 0L9 1L8 1L8 3L9 3L9 4L8 4L8 8L6 8L6 9L4 9L4 8L3 8L3 9L2 9L2 8L0 8L0 9L1 9L1 11L2 11L2 12L1 12L1 14L3 14L3 17L2 17L2 18L3 18L3 17L4 17L4 16L5 16L5 19L2 19L2 21L3 21L3 20L6 20L6 21L8 21L8 23L9 23L9 25L8 25L8 26L10 26L10 28L9 28L9 27L8 27L8 29L14 29L14 28L16 28L16 27L15 27L15 26L16 26L16 25L15 25L15 26L14 26L14 25L12 25L12 24L15 24L15 22L18 22L18 24L17 24L17 23L16 23L16 24L17 24L17 28L18 28L18 27L19 27L19 28L20 28L20 29L21 29L21 28L20 28L20 26L21 26L21 25L22 25L22 29L24 29L24 28L25 28L25 29L28 29L28 27L29 27L29 26L28 26L28 27L27 27L27 28L25 28L25 27L26 27L26 26L27 26L27 24L28 24L28 25L29 25L29 23L27 23L27 22L26 22L26 21L28 21L28 22L29 22L29 17L28 17L28 15L29 15L29 14L28 14L28 15L27 15L27 17L25 17L25 16L24 16L24 14L22 14L22 13L23 13L23 12L22 12L22 9L25 9L25 8L22 8L22 9L20 9L20 8L21 8L21 5L20 5L20 3L21 3L21 0L18 0L18 1L17 1L17 0L16 0L16 3L15 3L15 2L14 2L14 3L12 3L12 2L13 2L13 1L14 1L14 0L12 0L12 1L11 1L11 0ZM9 1L9 2L11 2L11 1ZM18 1L18 2L19 2L19 3L20 3L20 1ZM16 3L16 4L15 4L15 5L14 5L14 4L13 4L13 5L11 5L11 4L9 4L9 5L10 5L10 6L9 6L9 7L10 7L10 8L8 8L8 9L6 9L6 10L5 10L5 11L6 11L6 12L4 12L4 9L3 9L3 10L2 10L2 11L3 11L3 14L4 14L4 15L5 15L5 14L8 14L8 15L6 15L6 16L8 16L8 17L9 17L9 18L10 18L10 17L9 17L9 16L8 16L8 15L9 15L9 14L10 14L10 15L11 15L11 14L12 14L12 16L11 16L11 17L12 17L12 16L13 16L13 15L14 15L14 17L13 17L13 19L12 19L12 18L11 18L11 19L12 19L12 21L11 21L11 20L10 20L10 19L9 19L9 20L10 20L10 21L9 21L9 23L14 23L14 22L15 22L15 21L16 21L16 20L17 20L17 19L18 19L18 22L19 22L19 21L20 21L20 19L21 19L21 20L22 20L22 18L23 18L23 15L22 15L22 14L20 14L20 13L19 13L19 12L18 12L18 11L19 11L19 7L20 7L20 6L19 6L19 7L18 7L18 5L17 5L17 3ZM10 6L10 7L11 7L11 8L10 8L10 10L6 10L6 11L8 11L8 12L6 12L6 13L8 13L8 14L9 14L9 11L11 11L11 9L12 9L12 8L13 8L13 10L12 10L12 12L15 12L15 14L14 14L14 13L13 13L13 14L14 14L14 15L15 15L15 14L16 14L16 15L17 15L17 16L15 16L15 17L14 17L14 21L12 21L12 22L14 22L14 21L15 21L15 20L16 20L16 19L15 19L15 18L18 18L18 17L17 17L17 16L20 16L20 17L19 17L19 18L20 18L20 17L21 17L21 18L22 18L22 15L19 15L19 14L16 14L16 13L17 13L17 10L18 10L18 7L17 7L17 6L16 6L16 10L14 10L14 8L15 8L15 6L14 6L14 8L13 8L13 6L12 6L12 7L11 7L11 6ZM26 8L26 10L27 10L27 11L26 11L26 13L25 13L25 10L23 10L23 11L24 11L24 13L25 13L25 14L26 14L26 13L29 13L29 12L27 12L27 11L28 11L28 10L27 10L27 9L28 9L28 8ZM20 10L20 11L21 11L21 10ZM15 11L15 12L16 12L16 11ZM21 12L21 13L22 13L22 12ZM4 13L4 14L5 14L5 13ZM10 13L10 14L11 14L11 13ZM1 15L1 16L0 16L0 17L1 17L1 16L2 16L2 15ZM6 17L6 18L7 18L7 19L6 19L6 20L8 20L8 18L7 18L7 17ZM24 17L24 19L23 19L23 20L25 20L25 21L26 21L26 20L27 20L27 19L28 19L28 17L27 17L27 18L25 18L25 17ZM0 18L0 19L1 19L1 18ZM0 20L0 21L1 21L1 20ZM10 21L10 22L11 22L11 21ZM21 21L21 24L24 24L24 21ZM22 22L22 23L23 23L23 22ZM19 23L19 25L18 25L18 26L19 26L19 25L20 25L20 23ZM25 23L25 25L24 25L24 26L23 26L23 27L24 27L24 26L26 26L26 23ZM10 25L10 26L11 26L11 25ZM11 27L11 28L12 28L12 27ZM0 0L0 7L7 7L7 0ZM1 1L1 6L6 6L6 1ZM2 2L2 5L5 5L5 2ZM22 0L22 7L29 7L29 0ZM23 1L23 6L28 6L28 1ZM24 2L24 5L27 5L27 2ZM0 22L0 29L7 29L7 22ZM1 23L1 28L6 28L6 23ZM2 24L2 27L5 27L5 24Z" fill="#282828"/></g></g></svg>
