<?xml version="1.0" encoding="UTF-8"?>
<svg xmlns="http://www.w3.org/2000/svg" version="1.1" width="90" height="90" viewBox="0 0 90 90"><rect x="0" y="0" width="90" height="90" fill="#ffffff"/><g transform="scale(3.333)"><g transform="translate(1,1)"><path fill-rule="evenodd" d="M10 0L10 2L11 2L11 0ZM12 0L12 1L13 1L13 2L12 2L12 4L15 4L15 2L16 2L16 3L17 3L17 2L16 2L16 1L17 1L17 0L16 0L16 1L13 1L13 0ZM8 1L8 2L9 2L9 1ZM13 2L13 3L14 3L14 2ZM8 3L8 4L9 4L9 5L8 5L8 7L9 7L9 8L6 8L6 9L5 9L5 8L0 8L0 10L1 10L1 13L0 13L0 17L1 17L1 14L2 14L2 15L3 15L3 11L4 11L4 9L5 9L5 10L6 10L6 11L7 11L7 10L6 10L6 9L8 9L8 10L9 10L9 9L10 9L10 11L11 11L11 9L12 9L12 10L13 10L13 11L12 11L12 13L14 13L14 14L15 14L15 16L12 16L12 15L13 15L13 14L10 14L10 13L11 13L11 12L6 12L6 13L8 13L8 14L10 14L10 16L9 16L9 17L8 17L8 19L9 19L9 20L8 20L8 25L11 25L11 24L10 24L10 23L11 23L11 22L12 22L12 23L13 23L13 21L14 21L14 23L15 23L15 25L16 25L16 24L17 24L17 25L19 25L19 24L17 24L17 23L18 23L18 22L19 22L19 23L20 23L20 22L19 22L19 21L21 21L21 25L25 25L25 21L23 21L23 20L25 20L25 18L24 18L24 17L25 17L25 14L24 14L24 13L25 13L25 10L24 10L24 8L23 8L23 9L22 9L22 8L21 8L21 11L20 11L20 8L19 8L19 11L17 11L17 9L18 9L18 8L17 8L17 4L16 4L16 5L15 5L15 6L14 6L14 9L12 9L12 7L13 7L13 5L11 5L11 6L10 6L10 4L11 4L11 3ZM9 6L9 7L10 7L10 6ZM11 6L11 7L12 7L12 6ZM15 6L15 10L16 10L16 9L17 9L17 8L16 8L16 6ZM10 8L10 9L11 9L11 8ZM1 9L1 10L2 10L2 9ZM22 10L22 11L21 11L21 13L20 13L20 12L19 12L19 13L17 13L17 14L16 14L16 12L17 12L17 11L16 11L16 12L15 12L15 14L16 14L16 15L17 15L17 16L18 16L18 15L19 15L19 13L20 13L20 16L22 16L22 17L21 17L21 18L22 18L22 19L21 19L21 21L22 21L22 22L23 22L23 23L22 23L22 24L24 24L24 22L23 22L23 21L22 21L22 20L23 20L23 19L24 19L24 18L23 18L23 16L24 16L24 14L23 14L23 15L22 15L22 13L23 13L23 12L24 12L24 10ZM13 11L13 12L14 12L14 11ZM4 13L4 15L5 15L5 13ZM6 14L6 15L7 15L7 14ZM17 14L17 15L18 15L18 14ZM2 16L2 17L7 17L7 16ZM15 16L15 17L13 17L13 20L12 20L12 17L10 17L10 18L9 18L9 19L10 19L10 21L9 21L9 23L10 23L10 22L11 22L11 20L12 20L12 21L13 21L13 20L14 20L14 21L15 21L15 20L16 20L16 19L15 19L15 17L16 17L16 16ZM17 17L17 20L20 20L20 17ZM18 18L18 19L19 19L19 18ZM14 19L14 20L15 20L15 19ZM16 21L16 23L17 23L17 21ZM13 24L13 25L14 25L14 24ZM0 0L0 7L7 7L7 0ZM1 1L1 6L6 6L6 1ZM2 2L2 5L5 5L5 2ZM18 0L18 7L25 7L25 0ZM19 1L19 6L24 6L24 1ZM20 2L20 5L23 5L23 2ZM0 18L0 25L7 25L7 18ZM1 19L1 24L6 24L6 19ZM2 20L2 23L5 23L5 20Z" fill="#282828"/></g></g></svg>
