<?xml version="1.0" encoding="UTF-8"?>
<svg xmlns="http://www.w3.org/2000/svg" version="1.1" width="90" height="90" viewBox="0 0 90 90"><rect x="0" y="0" width="90" height="90" fill="#ffffff"/><g transform="scale(3.333)"><g transform="translate(1,1)"><path fill-rule="evenodd" d="M8 0L8 1L10 1L10 3L9 3L9 2L8 2L8 5L9 5L9 6L8 6L8 7L9 7L9 8L8 8L8 9L9 9L9 10L8 10L8 11L7 11L7 10L6 10L6 9L7 9L7 8L6 8L6 9L4 9L4 8L0 8L0 10L1 10L1 9L2 9L2 12L1 12L1 11L0 11L0 12L1 12L1 13L4 13L4 14L5 14L5 13L4 13L4 12L5 12L5 11L3 11L3 9L4 9L4 10L6 10L6 11L7 11L7 12L6 12L6 13L7 13L7 12L9 12L9 13L8 13L8 15L7 15L7 14L6 14L6 15L5 15L5 16L4 16L4 17L7 17L7 16L8 16L8 18L9 18L9 19L11 19L11 20L9 20L9 21L8 21L8 25L9 25L9 21L11 21L11 22L10 22L10 24L12 24L12 21L11 21L11 20L12 20L12 19L11 19L11 18L10 18L10 17L9 17L9 16L12 16L12 18L13 18L13 19L14 19L14 21L15 21L15 20L16 20L16 22L15 22L15 23L16 23L16 22L17 22L17 24L19 24L19 25L22 25L22 24L23 24L23 25L25 25L25 24L23 24L23 23L24 23L24 22L25 22L25 17L23 17L23 16L20 16L20 14L22 14L22 15L23 15L23 14L22 14L22 12L23 12L23 13L24 13L24 14L25 14L25 12L23 12L23 10L25 10L25 8L24 8L24 9L23 9L23 8L20 8L20 9L19 9L19 10L18 10L18 11L17 11L17 9L18 9L18 8L16 8L16 7L17 7L17 4L14 4L14 3L16 3L16 2L17 2L17 0L16 0L16 2L12 2L12 1L13 1L13 0ZM14 0L14 1L15 1L15 0ZM11 2L11 3L10 3L10 6L9 6L9 7L10 7L10 8L9 8L9 9L10 9L10 10L9 10L9 12L10 12L10 13L9 13L9 15L8 15L8 16L9 16L9 15L10 15L10 13L11 13L11 15L12 15L12 16L14 16L14 17L13 17L13 18L15 18L15 19L16 19L16 16L18 16L18 15L19 15L19 14L14 14L14 13L13 13L13 10L14 10L14 9L13 9L13 8L14 8L14 6L15 6L15 7L16 7L16 5L14 5L14 4L13 4L13 3L12 3L12 2ZM12 5L12 7L11 7L11 6L10 6L10 7L11 7L11 8L12 8L12 7L13 7L13 6L14 6L14 5ZM15 8L15 13L18 13L18 12L19 12L19 13L20 13L20 12L21 12L21 11L20 11L20 12L19 12L19 11L18 11L18 12L17 12L17 11L16 11L16 8ZM11 9L11 11L12 11L12 9ZM20 9L20 10L22 10L22 9ZM12 13L12 15L14 15L14 16L16 16L16 15L14 15L14 14L13 14L13 13ZM1 14L1 15L0 15L0 16L1 16L1 15L3 15L3 14ZM6 15L6 16L7 16L7 15ZM24 15L24 16L25 16L25 15ZM17 17L17 20L20 20L20 17ZM21 17L21 18L22 18L22 17ZM18 18L18 19L19 19L19 18ZM23 18L23 19L21 19L21 21L22 21L22 22L21 22L21 23L23 23L23 19L24 19L24 18ZM19 21L19 22L18 22L18 23L19 23L19 22L20 22L20 21ZM13 23L13 25L15 25L15 24L14 24L14 23ZM0 0L0 7L7 7L7 0ZM1 1L1 6L6 6L6 1ZM2 2L2 5L5 5L5 2ZM18 0L18 7L25 7L25 0ZM19 1L19 6L24 6L24 1ZM20 2L20 5L23 5L23 2ZM0 18L0 25L7 25L7 18ZM1 19L1 24L6 24L6 19ZM2 20L2 23L5 23L5 20Z" fill="#282828"/></g></g></svg>
