<?xml version="1.0" encoding="UTF-8"?>
<svg xmlns="http://www.w3.org/2000/svg" version="1.1" width="90" height="90" viewBox="0 0 90 90"><rect x="0" y="0" width="90" height="90" fill="#ffffff"/><g transform="scale(2.903)"><g transform="translate(1,1)"><path fill-rule="evenodd" d="M8 0L8 4L10 4L10 3L11 3L11 4L12 4L12 2L11 2L11 0ZM12 0L12 1L13 1L13 0ZM17 0L17 1L16 1L16 2L15 2L15 3L14 3L14 2L13 2L13 3L14 3L14 4L13 4L13 5L11 5L11 6L10 6L10 7L9 7L9 5L8 5L8 7L9 7L9 8L10 8L10 7L11 7L11 6L12 6L12 8L11 8L11 9L9 9L9 10L6 10L6 9L7 9L7 8L4 8L4 9L3 9L3 10L2 10L2 12L1 12L1 11L0 11L0 12L1 12L1 13L2 13L2 12L3 12L3 14L1 14L1 15L0 15L0 18L1 18L1 17L3 17L3 16L4 16L4 17L5 17L5 15L7 15L7 16L6 16L6 17L10 17L10 18L8 18L8 19L9 19L9 21L8 21L8 20L6 20L6 19L7 19L7 18L5 18L5 19L4 19L4 18L2 18L2 20L0 20L0 21L2 21L2 20L3 20L3 21L4 21L4 20L5 20L5 21L8 21L8 22L11 22L11 21L10 21L10 19L11 19L11 20L12 20L12 21L13 21L13 22L15 22L15 23L14 23L14 24L13 24L13 23L12 23L12 24L11 24L11 25L10 25L10 23L8 23L8 25L9 25L9 27L8 27L8 29L9 29L9 28L10 28L10 27L11 27L11 28L12 28L12 29L14 29L14 27L15 27L15 28L16 28L16 29L18 29L18 28L19 28L19 26L18 26L18 25L15 25L15 24L19 24L19 23L20 23L20 25L21 25L21 29L22 29L22 28L23 28L23 26L22 26L22 25L27 25L27 24L28 24L28 23L29 23L29 21L28 21L28 20L29 20L29 17L28 17L28 16L29 16L29 13L27 13L27 12L26 12L26 11L27 11L27 10L28 10L28 12L29 12L29 10L28 10L28 9L29 9L29 8L25 8L25 9L24 9L24 8L23 8L23 9L21 9L21 8L19 8L19 6L20 6L20 7L21 7L21 6L20 6L20 5L21 5L21 4L20 4L20 5L19 5L19 3L18 3L18 1L19 1L19 2L21 2L21 1L20 1L20 0ZM9 2L9 3L10 3L10 2ZM17 3L17 5L16 5L16 4L15 4L15 5L16 5L16 6L15 6L15 8L16 8L16 9L13 9L13 8L14 8L14 6L13 6L13 8L12 8L12 9L11 9L11 10L9 10L9 12L7 12L7 11L6 11L6 10L5 10L5 9L4 9L4 10L3 10L3 11L4 11L4 10L5 10L5 11L6 11L6 12L5 12L5 13L4 13L4 15L5 15L5 14L8 14L8 13L10 13L10 14L9 14L9 15L8 15L8 16L12 16L12 17L11 17L11 18L12 18L12 17L13 17L13 18L15 18L15 17L16 17L16 18L18 18L18 17L19 17L19 19L20 19L20 18L22 18L22 17L27 17L27 16L28 16L28 15L27 15L27 14L26 14L26 13L25 13L25 11L24 11L24 13L25 13L25 14L23 14L23 16L22 16L22 13L23 13L23 11L22 11L22 10L21 10L21 9L19 9L19 8L18 8L18 9L19 9L19 11L18 11L18 10L17 10L17 7L18 7L18 3ZM16 6L16 7L17 7L17 6ZM0 8L0 10L1 10L1 9L2 9L2 8ZM12 9L12 10L11 10L11 11L10 11L10 13L11 13L11 12L12 12L12 13L13 13L13 14L15 14L15 15L14 15L14 16L13 16L13 15L12 15L12 16L13 16L13 17L15 17L15 16L16 16L16 17L18 17L18 16L19 16L19 17L21 17L21 16L20 16L20 15L21 15L21 14L20 14L20 15L17 15L17 16L16 16L16 13L18 13L18 11L16 11L16 10L13 10L13 9ZM25 9L25 10L27 10L27 9ZM12 11L12 12L13 12L13 11ZM14 11L14 13L16 13L16 12L15 12L15 11ZM21 11L21 12L20 12L20 13L22 13L22 11ZM6 12L6 13L7 13L7 12ZM10 14L10 15L11 15L11 14ZM1 15L1 16L2 16L2 15ZM25 15L25 16L26 16L26 15ZM25 18L25 20L26 20L26 21L27 21L27 19L26 19L26 18ZM12 19L12 20L13 20L13 19ZM14 19L14 21L16 21L16 23L17 23L17 22L19 22L19 21L20 21L20 20L18 20L18 21L16 21L16 20L17 20L17 19L16 19L16 20L15 20L15 19ZM23 19L23 20L24 20L24 19ZM21 21L21 24L24 24L24 21ZM22 22L22 23L23 23L23 22ZM25 22L25 23L26 23L26 24L27 24L27 22ZM12 24L12 25L11 25L11 26L12 26L12 25L13 25L13 26L15 26L15 25L13 25L13 24ZM28 25L28 26L27 26L27 29L28 29L28 28L29 28L29 25ZM17 26L17 27L18 27L18 26ZM25 26L25 29L26 29L26 26ZM12 27L12 28L13 28L13 27ZM0 0L0 7L7 7L7 0ZM1 1L1 6L6 6L6 1ZM2 2L2 5L5 5L5 2ZM22 0L22 7L29 7L29 0ZM23 1L23 6L28 6L28 1ZM24 2L24 5L27 5L27 2ZM0 22L0 29L7 29L7 22ZM1 23L1 28L6 28L6 23ZM2 24L2 27L5 27L5 24Z" fill="#282828"/></g></g></svg>
