<?xml version="1.0" encoding="UTF-8"?>
<svg xmlns="http://www.w3.org/2000/svg" version="1.1" width="90" height="90" viewBox="0 0 90 90"><rect x="0" y="0" width="90" height="90" fill="#ffffff"/><g transform="scale(2.903)"><g transform="translate(1,1)"><path fill-rule="evenodd" d="M8 0L8 1L9 1L9 2L8 2L8 5L9 5L9 4L11 4L11 5L10 5L10 10L9 10L9 8L8 8L8 9L7 9L7 8L6 8L6 9L7 9L7 10L3 10L3 9L4 9L4 8L0 8L0 9L2 9L2 10L0 10L0 12L2 12L2 10L3 10L3 13L2 13L2 14L3 14L3 15L4 15L4 16L3 16L3 17L4 17L4 16L5 16L5 17L7 17L7 18L3 18L3 20L4 20L4 21L5 21L5 20L4 20L4 19L7 19L7 20L6 20L6 21L7 21L7 20L9 20L9 21L8 21L8 22L10 22L10 20L11 20L11 16L12 16L12 14L13 14L13 15L14 15L14 16L16 16L16 15L14 15L14 14L16 14L16 12L17 12L17 14L18 14L18 12L17 12L17 11L19 11L19 10L21 10L21 9L22 9L22 10L24 10L24 11L26 11L26 10L27 10L27 14L28 14L28 15L29 15L29 13L28 13L28 10L27 10L27 8L24 8L24 9L22 9L22 8L21 8L21 9L20 9L20 8L18 8L18 7L19 7L19 6L20 6L20 7L21 7L21 5L20 5L20 3L19 3L19 2L18 2L18 1L21 1L21 0L18 0L18 1L17 1L17 0L16 0L16 3L15 3L15 2L14 2L14 1L13 1L13 0L12 0L12 1L11 1L11 0L10 0L10 1L9 1L9 0ZM11 2L11 4L12 4L12 3L13 3L13 2ZM17 2L17 3L16 3L16 4L17 4L17 3L18 3L18 2ZM13 4L13 5L12 5L12 6L11 6L11 8L12 8L12 6L13 6L13 9L14 9L14 10L13 10L13 11L11 11L11 13L10 13L10 15L11 15L11 13L12 13L12 12L13 12L13 11L14 11L14 10L15 10L15 12L16 12L16 11L17 11L17 10L19 10L19 9L18 9L18 8L15 8L15 7L16 7L16 6L17 6L17 7L18 7L18 6L19 6L19 4L18 4L18 5L15 5L15 4ZM13 5L13 6L14 6L14 7L15 7L15 5ZM8 6L8 7L9 7L9 6ZM14 8L14 9L15 9L15 8ZM28 8L28 9L29 9L29 8ZM11 9L11 10L12 10L12 9ZM16 9L16 10L17 10L17 9ZM8 10L8 11L9 11L9 10ZM6 11L6 12L5 12L5 13L3 13L3 14L4 14L4 15L6 15L6 16L8 16L8 17L10 17L10 16L8 16L8 15L9 15L9 12L8 12L8 15L6 15L6 14L7 14L7 13L6 13L6 12L7 12L7 11ZM20 11L20 12L19 12L19 15L20 15L20 16L18 16L18 17L20 17L20 19L21 19L21 20L18 20L18 19L19 19L19 18L16 18L16 17L14 17L14 18L13 18L13 19L17 19L17 20L14 20L14 23L13 23L13 20L12 20L12 21L11 21L11 23L9 23L9 24L10 24L10 25L8 25L8 29L9 29L9 27L10 27L10 26L11 26L11 23L12 23L12 24L13 24L13 25L14 25L14 26L13 26L13 27L14 27L14 28L11 28L11 29L15 29L15 27L14 27L14 26L18 26L18 27L20 27L20 29L22 29L22 27L20 27L20 26L22 26L22 25L23 25L23 27L24 27L24 28L23 28L23 29L24 29L24 28L25 28L25 27L24 27L24 25L25 25L25 26L27 26L27 24L26 24L26 25L25 25L25 22L26 22L26 23L27 23L27 21L28 21L28 22L29 22L29 20L27 20L27 19L28 19L28 16L27 16L27 17L26 17L26 18L27 18L27 19L22 19L22 18L21 18L21 17L22 17L22 16L21 16L21 15L20 15L20 12L22 12L22 11ZM23 12L23 13L22 13L22 14L23 14L23 18L24 18L24 17L25 17L25 16L26 16L26 15L24 15L24 14L23 14L23 13L24 13L24 12ZM0 13L0 14L1 14L1 13ZM13 13L13 14L14 14L14 13ZM25 13L25 14L26 14L26 13ZM0 15L0 16L1 16L1 17L2 17L2 15ZM0 18L0 19L1 19L1 18ZM7 18L7 19L8 19L8 18ZM9 19L9 20L10 20L10 19ZM1 20L1 21L2 21L2 20ZM15 21L15 23L14 23L14 24L18 24L18 25L19 25L19 26L20 26L20 21L19 21L19 24L18 24L18 22L17 22L17 23L16 23L16 21ZM21 21L21 24L24 24L24 21ZM22 22L22 23L23 23L23 22ZM28 24L28 27L27 27L27 29L28 29L28 27L29 27L29 24ZM16 27L16 28L17 28L17 27ZM18 28L18 29L19 29L19 28ZM0 0L0 7L7 7L7 0ZM1 1L1 6L6 6L6 1ZM2 2L2 5L5 5L5 2ZM22 0L22 7L29 7L29 0ZM23 1L23 6L28 6L28 1ZM24 2L24 5L27 5L27 2ZM0 22L0 29L7 29L7 22ZM1 23L1 28L6 28L6 23ZM2 24L2 27L5 27L5 24Z" fill="#282828"/></g></g></svg>
