<?xml version="1.0" encoding="UTF-8"?>
<svg xmlns="http://www.w3.org/2000/svg" version="1.1" width="90" height="90" viewBox="0 0 90 90"><rect x="0" y="0" width="90" height="90" fill="#ffffff"/><g transform="scale(3.333)"><g transform="translate(1,1)"><path fill-rule="evenodd" d="M9 0L9 1L8 1L8 2L9 2L9 3L8 3L8 4L9 4L9 5L8 5L8 7L9 7L9 8L6 8L6 9L9 9L9 12L6 12L6 13L4 13L4 12L3 12L3 13L4 13L4 14L5 14L5 15L8 15L8 16L2 16L2 17L8 17L8 19L9 19L9 17L8 17L8 16L9 16L9 15L8 15L8 14L10 14L10 16L11 16L11 17L10 17L10 18L12 18L12 17L15 17L15 18L16 18L16 20L15 20L15 19L14 19L14 20L13 20L13 19L12 19L12 21L11 21L11 20L8 20L8 25L9 25L9 23L11 23L11 25L15 25L15 24L16 24L16 23L17 23L17 21L18 21L18 22L19 22L19 23L18 23L18 25L19 25L19 23L20 23L20 22L19 22L19 21L21 21L21 25L25 25L25 22L24 22L24 24L22 24L22 23L23 23L23 22L22 22L22 21L23 21L23 20L22 20L22 21L21 21L21 19L22 19L22 18L21 18L21 17L22 17L22 16L21 16L21 14L20 14L20 13L21 13L21 11L22 11L22 10L20 10L20 8L19 8L19 10L18 10L18 8L17 8L17 4L16 4L16 2L17 2L17 0L16 0L16 1L14 1L14 0ZM11 1L11 2L10 2L10 3L9 3L9 4L12 4L12 5L11 5L11 8L9 8L9 9L12 9L12 10L11 10L11 11L10 11L10 14L11 14L11 16L15 16L15 15L13 15L13 13L14 13L14 14L16 14L16 13L17 13L17 14L19 14L19 16L20 16L20 14L19 14L19 13L20 13L20 12L19 12L19 11L18 11L18 10L17 10L17 11L18 11L18 12L19 12L19 13L17 13L17 12L15 12L15 10L16 10L16 9L17 9L17 8L16 8L16 6L15 6L15 8L14 8L14 6L13 6L13 8L12 8L12 5L16 5L16 4L12 4L12 2L13 2L13 3L15 3L15 2L13 2L13 1ZM9 6L9 7L10 7L10 6ZM0 8L0 9L3 9L3 10L1 10L1 11L0 11L0 12L1 12L1 13L0 13L0 17L1 17L1 14L2 14L2 15L3 15L3 14L2 14L2 12L1 12L1 11L4 11L4 10L5 10L5 8ZM13 8L13 9L14 9L14 8ZM15 8L15 9L16 9L16 8ZM21 8L21 9L22 9L22 8ZM23 8L23 10L24 10L24 11L23 11L23 13L22 13L22 15L23 15L23 14L24 14L24 16L23 16L23 18L24 18L24 21L25 21L25 18L24 18L24 17L25 17L25 14L24 14L24 13L25 13L25 10L24 10L24 8ZM6 10L6 11L7 11L7 10ZM11 11L11 13L12 13L12 11ZM14 12L14 13L15 13L15 12ZM6 13L6 14L7 14L7 13ZM16 15L16 16L17 16L17 15ZM17 17L17 20L20 20L20 17ZM18 18L18 19L19 19L19 18ZM12 21L12 22L11 22L11 23L13 23L13 24L15 24L15 23L13 23L13 21ZM14 21L14 22L16 22L16 21ZM0 0L0 7L7 7L7 0ZM1 1L1 6L6 6L6 1ZM2 2L2 5L5 5L5 2ZM18 0L18 7L25 7L25 0ZM19 1L19 6L24 6L24 1ZM20 2L20 5L23 5L23 2ZM0 18L0 25L7 25L7 18ZM1 19L1 24L6 24L6 19ZM2 20L2 23L5 23L5 20Z" fill="#282828"/></g></g></svg>
