<?xml version="1.0" encoding="UTF-8"?>
<svg xmlns="http://www.w3.org/2000/svg" version="1.1" width="90" height="90" viewBox="0 0 90 90"><rect x="0" y="0" width="90" height="90" fill="#ffffff"/><g transform="scale(3.333)"><g transform="translate(1,1)"><path fill-rule="evenodd" d="M9 0L9 1L10 1L10 2L8 2L8 3L9 3L9 4L10 4L10 5L9 5L9 6L8 6L8 8L4 8L4 9L3 9L3 8L0 8L0 11L1 11L1 13L2 13L2 11L4 11L4 13L5 13L5 14L2 14L2 15L1 15L1 14L0 14L0 15L1 15L1 16L0 16L0 17L1 17L1 16L4 16L4 17L5 17L5 16L6 16L6 17L8 17L8 21L9 21L9 22L8 22L8 25L11 25L11 24L13 24L13 25L15 25L15 24L16 24L16 25L19 25L19 24L20 24L20 25L21 25L21 24L22 24L22 23L21 23L21 22L22 22L22 20L21 20L21 16L19 16L19 11L18 11L18 10L19 10L19 8L16 8L16 7L17 7L17 5L16 5L16 4L17 4L17 1L16 1L16 0L15 0L15 3L14 3L14 5L13 5L13 6L12 6L12 8L11 8L11 6L10 6L10 5L11 5L11 4L12 4L12 3L13 3L13 0L12 0L12 1L10 1L10 0ZM11 2L11 3L12 3L12 2ZM14 5L14 6L13 6L13 7L14 7L14 6L15 6L15 7L16 7L16 6L15 6L15 5ZM9 6L9 7L10 7L10 6ZM9 8L9 9L8 9L8 10L7 10L7 9L6 9L6 10L7 10L7 11L6 11L6 12L7 12L7 13L6 13L6 14L5 14L5 15L6 15L6 16L7 16L7 15L8 15L8 16L9 16L9 17L10 17L10 18L11 18L11 19L10 19L10 20L11 20L11 23L10 23L10 22L9 22L9 24L11 24L11 23L14 23L14 24L15 24L15 23L16 23L16 22L17 22L17 24L19 24L19 21L16 21L16 18L15 18L15 16L16 16L16 11L17 11L17 12L18 12L18 11L17 11L17 10L16 10L16 8L12 8L12 10L10 10L10 8ZM22 8L22 9L23 9L23 8ZM1 9L1 11L2 11L2 9ZM14 9L14 10L13 10L13 12L12 12L12 11L11 11L11 12L12 12L12 13L11 13L11 15L12 15L12 16L10 16L10 17L11 17L11 18L12 18L12 17L13 17L13 18L14 18L14 19L11 19L11 20L13 20L13 22L16 22L16 21L15 21L15 18L14 18L14 15L15 15L15 13L14 13L14 12L15 12L15 11L14 11L14 10L15 10L15 9ZM24 9L24 11L25 11L25 9ZM4 10L4 11L5 11L5 10ZM9 10L9 11L7 11L7 12L8 12L8 13L7 13L7 14L6 14L6 15L7 15L7 14L8 14L8 13L9 13L9 11L10 11L10 10ZM20 10L20 12L21 12L21 13L22 13L22 14L21 14L21 15L22 15L22 14L23 14L23 13L24 13L24 15L23 15L23 16L22 16L22 17L24 17L24 19L25 19L25 16L24 16L24 15L25 15L25 12L21 12L21 11L23 11L23 10ZM17 13L17 15L18 15L18 13ZM9 14L9 15L10 15L10 14ZM13 14L13 15L14 15L14 14ZM17 17L17 20L20 20L20 17ZM18 18L18 19L19 19L19 18ZM22 18L22 19L23 19L23 18ZM20 21L20 22L21 22L21 21ZM24 22L24 23L23 23L23 25L25 25L25 24L24 24L24 23L25 23L25 22ZM20 23L20 24L21 24L21 23ZM0 0L0 7L7 7L7 0ZM1 1L1 6L6 6L6 1ZM2 2L2 5L5 5L5 2ZM18 0L18 7L25 7L25 0ZM19 1L19 6L24 6L24 1ZM20 2L20 5L23 5L23 2ZM0 18L0 25L7 25L7 18ZM1 19L1 24L6 24L6 19ZM2 20L2 23L5 23L5 20Z" fill="#282828"/></g></g></svg>
