<?xml version="1.0" encoding="UTF-8"?>
<svg xmlns="http://www.w3.org/2000/svg" version="1.1" width="90" height="90" viewBox="0 0 90 90"><rect x="0" y="0" width="90" height="90" fill="#ffffff"/><g transform="scale(2.903)"><g transform="translate(1,1)"><path fill-rule="evenodd" d="M9 0L9 1L8 1L8 2L9 2L9 3L8 3L8 4L10 4L10 7L11 7L11 4L12 4L12 5L13 5L13 4L15 4L15 6L14 6L14 8L13 8L13 6L12 6L12 9L14 9L14 11L16 11L16 12L15 12L15 13L14 13L14 12L13 12L13 13L12 13L12 11L13 11L13 10L11 10L11 11L10 11L10 9L11 9L11 8L6 8L6 9L5 9L5 8L0 8L0 10L1 10L1 11L0 11L0 12L2 12L2 13L3 13L3 14L1 14L1 13L0 13L0 15L1 15L1 16L0 16L0 21L1 21L1 18L2 18L2 19L3 19L3 20L2 20L2 21L3 21L3 20L4 20L4 21L5 21L5 20L4 20L4 19L7 19L7 20L6 20L6 21L7 21L7 20L8 20L8 19L9 19L9 21L8 21L8 23L11 23L11 21L12 21L12 22L13 22L13 23L12 23L12 25L13 25L13 24L14 24L14 25L15 25L15 27L14 27L14 28L15 28L15 29L16 29L16 26L17 26L17 25L18 25L18 27L20 27L20 28L17 28L17 29L20 29L20 28L21 28L21 29L22 29L22 28L24 28L24 29L25 29L25 28L26 28L26 27L25 27L25 26L24 26L24 25L25 25L25 23L26 23L26 21L27 21L27 20L28 20L28 18L29 18L29 17L28 17L28 18L27 18L27 16L26 16L26 14L27 14L27 15L28 15L28 14L29 14L29 13L28 13L28 14L27 14L27 13L24 13L24 12L26 12L26 11L27 11L27 12L29 12L29 11L27 11L27 9L28 9L28 8L27 8L27 9L26 9L26 8L25 8L25 9L24 9L24 8L23 8L23 9L22 9L22 8L21 8L21 3L20 3L20 2L19 2L19 3L17 3L17 0L16 0L16 1L15 1L15 0L14 0L14 1L15 1L15 2L16 2L16 4L15 4L15 3L13 3L13 4L12 4L12 2L13 2L13 1L11 1L11 2L10 2L10 0ZM18 0L18 1L21 1L21 0ZM10 3L10 4L11 4L11 3ZM19 3L19 4L20 4L20 3ZM17 4L17 7L16 7L16 6L15 6L15 7L16 7L16 9L15 9L15 8L14 8L14 9L15 9L15 10L16 10L16 9L17 9L17 10L19 10L19 11L17 11L17 12L18 12L18 13L23 13L23 12L24 12L24 11L25 11L25 10L24 10L24 11L23 11L23 10L22 10L22 9L21 9L21 11L20 11L20 10L19 10L19 9L20 9L20 5L19 5L19 8L18 8L18 4ZM8 5L8 7L9 7L9 5ZM1 9L1 10L2 10L2 12L7 12L7 13L6 13L6 14L5 14L5 13L4 13L4 14L3 14L3 15L2 15L2 16L1 16L1 17L2 17L2 18L4 18L4 17L5 17L5 18L7 18L7 19L8 19L8 18L9 18L9 17L10 17L10 19L11 19L11 18L14 18L14 17L15 17L15 18L16 18L16 17L17 17L17 20L16 20L16 19L12 19L12 21L14 21L14 22L16 22L16 21L17 21L17 20L18 20L18 21L19 21L19 22L18 22L18 23L14 23L14 24L18 24L18 25L20 25L20 27L21 27L21 28L22 28L22 27L21 27L21 26L23 26L23 25L20 25L20 23L19 23L19 22L20 22L20 20L21 20L21 19L22 19L22 20L24 20L24 19L25 19L25 18L23 18L23 19L22 19L22 18L20 18L20 17L26 17L26 16L25 16L25 15L23 15L23 14L18 14L18 15L17 15L17 14L16 14L16 13L15 13L15 14L16 14L16 15L15 15L15 16L14 16L14 13L13 13L13 14L12 14L12 13L11 13L11 12L10 12L10 13L9 13L9 12L8 12L8 10L7 10L7 9L6 9L6 10L7 10L7 11L5 11L5 10L2 10L2 9ZM21 11L21 12L22 12L22 11ZM10 13L10 14L9 14L9 15L7 15L7 14L6 14L6 15L5 15L5 14L4 14L4 15L3 15L3 16L2 16L2 17L3 17L3 16L4 16L4 15L5 15L5 16L6 16L6 17L7 17L7 18L8 18L8 17L7 17L7 16L9 16L9 15L10 15L10 16L11 16L11 15L10 15L10 14L11 14L11 13ZM6 15L6 16L7 16L7 15ZM12 15L12 17L14 17L14 16L13 16L13 15ZM16 15L16 16L17 16L17 17L18 17L18 16L17 16L17 15ZM20 15L20 16L19 16L19 17L20 17L20 16L21 16L21 15ZM26 18L26 20L25 20L25 21L26 21L26 20L27 20L27 18ZM9 21L9 22L10 22L10 21ZM21 21L21 24L24 24L24 21ZM28 21L28 22L27 22L27 23L28 23L28 22L29 22L29 21ZM22 22L22 23L23 23L23 22ZM18 23L18 24L19 24L19 23ZM8 24L8 29L10 29L10 28L9 28L9 27L10 27L10 25L11 25L11 24ZM26 24L26 25L27 25L27 28L28 28L28 26L29 26L29 24ZM11 26L11 29L12 29L12 27L13 27L13 26ZM24 27L24 28L25 28L25 27ZM0 0L0 7L7 7L7 0ZM1 1L1 6L6 6L6 1ZM2 2L2 5L5 5L5 2ZM22 0L22 7L29 7L29 0ZM23 1L23 6L28 6L28 1ZM24 2L24 5L27 5L27 2ZM0 22L0 29L7 29L7 22ZM1 23L1 28L6 28L6 23ZM2 24L2 27L5 27L5 24Z" fill="#282828"/></g></g></svg>
