<?xml version="1.0" encoding="UTF-8"?>
<svg xmlns="http://www.w3.org/2000/svg" version="1.1" width="90" height="90" viewBox="0 0 90 90"><rect x="0" y="0" width="90" height="90" fill="#ffffff"/><g transform="scale(2.903)"><g transform="translate(1,1)"><path fill-rule="evenodd" d="M9 0L9 1L8 1L8 2L9 2L9 3L8 3L8 4L10 4L10 7L11 7L11 4L12 4L12 5L13 5L13 6L12 6L12 9L13 9L13 8L14 8L14 9L15 9L15 8L16 8L16 9L17 9L17 8L16 8L16 7L17 7L17 6L16 6L16 4L12 4L12 2L13 2L13 1L11 1L11 2L10 2L10 0ZM15 0L15 1L17 1L17 0ZM18 0L18 1L19 1L19 0ZM20 0L20 3L17 3L17 2L16 2L16 3L17 3L17 4L18 4L18 8L19 8L19 4L20 4L20 11L19 11L19 13L18 13L18 14L17 14L17 15L16 15L16 14L15 14L15 13L17 13L17 10L15 10L15 11L14 11L14 12L15 12L15 13L12 13L12 11L13 11L13 10L11 10L11 11L10 11L10 9L11 9L11 8L6 8L6 9L5 9L5 8L0 8L0 10L1 10L1 9L2 9L2 10L3 10L3 12L2 12L2 11L0 11L0 12L1 12L1 14L0 14L0 21L1 21L1 18L2 18L2 20L3 20L3 19L4 19L4 21L5 21L5 20L6 20L6 21L8 21L8 23L9 23L9 24L8 24L8 29L10 29L10 28L11 28L11 29L12 29L12 27L13 27L13 26L10 26L10 27L9 27L9 25L10 25L10 23L11 23L11 22L10 22L10 21L12 21L12 22L13 22L13 23L12 23L12 25L13 25L13 24L14 24L14 25L16 25L16 26L15 26L15 27L14 27L14 28L15 28L15 27L16 27L16 29L17 29L17 24L16 24L16 22L19 22L19 21L20 21L20 23L18 23L18 24L20 24L20 25L21 25L21 29L22 29L22 27L23 27L23 28L24 28L24 29L25 29L25 28L26 28L26 27L25 27L25 26L27 26L27 28L28 28L28 26L29 26L29 25L28 25L28 24L29 24L29 23L28 23L28 22L29 22L29 21L28 21L28 22L27 22L27 23L28 23L28 24L27 24L27 25L25 25L25 24L26 24L26 23L25 23L25 17L27 17L27 16L26 16L26 15L25 15L25 14L26 14L26 13L25 13L25 12L26 12L26 11L27 11L27 13L28 13L28 14L27 14L27 15L28 15L28 14L29 14L29 12L28 12L28 11L27 11L27 9L28 9L28 8L27 8L27 9L26 9L26 8L25 8L25 9L24 9L24 8L23 8L23 11L25 11L25 12L24 12L24 13L23 13L23 14L22 14L22 13L20 13L20 12L22 12L22 11L21 11L21 9L22 9L22 8L21 8L21 4L20 4L20 3L21 3L21 0ZM14 2L14 3L15 3L15 2ZM10 3L10 4L11 4L11 3ZM8 5L8 7L9 7L9 5ZM13 6L13 7L14 7L14 8L15 8L15 7L16 7L16 6L15 6L15 7L14 7L14 6ZM4 9L4 11L5 11L5 13L4 13L4 12L3 12L3 13L2 13L2 14L1 14L1 15L2 15L2 16L3 16L3 14L8 14L8 13L9 13L9 15L4 15L4 17L3 17L3 18L4 18L4 19L6 19L6 20L8 20L8 21L10 21L10 19L11 19L11 18L13 18L13 19L12 19L12 21L15 21L15 22L16 22L16 21L19 21L19 20L23 20L23 15L24 15L24 14L23 14L23 15L20 15L20 13L19 13L19 15L20 15L20 17L19 17L19 16L18 16L18 15L17 15L17 17L14 17L14 16L15 16L15 15L14 15L14 16L13 16L13 17L12 17L12 15L13 15L13 14L12 14L12 13L11 13L11 12L10 12L10 13L9 13L9 12L7 12L7 11L5 11L5 9ZM6 9L6 10L7 10L7 9ZM18 9L18 10L19 10L19 9ZM8 10L8 11L9 11L9 10ZM6 12L6 13L7 13L7 12ZM10 13L10 14L11 14L11 13ZM9 15L9 16L10 16L10 18L9 18L9 17L7 17L7 16L6 16L6 17L7 17L7 18L6 18L6 19L8 19L8 18L9 18L9 19L10 19L10 18L11 18L11 15ZM18 17L18 18L19 18L19 17ZM20 17L20 19L22 19L22 17ZM28 17L28 18L26 18L26 19L27 19L27 20L26 20L26 21L27 21L27 20L28 20L28 18L29 18L29 17ZM15 18L15 19L14 19L14 20L15 20L15 21L16 21L16 19L17 19L17 18ZM21 21L21 24L24 24L24 21ZM22 22L22 23L23 23L23 22ZM14 23L14 24L15 24L15 23ZM18 25L18 26L19 26L19 27L20 27L20 26L19 26L19 25ZM22 25L22 26L24 26L24 25ZM19 28L19 29L20 29L20 28ZM0 0L0 7L7 7L7 0ZM1 1L1 6L6 6L6 1ZM2 2L2 5L5 5L5 2ZM22 0L22 7L29 7L29 0ZM23 1L23 6L28 6L28 1ZM24 2L24 5L27 5L27 2ZM0 22L0 29L7 29L7 22ZM1 23L1 28L6 28L6 23ZM2 24L2 27L5 27L5 24Z" fill="#282828"/></g></g></svg>
