<?xml version="1.0" encoding="UTF-8"?>
<svg xmlns="http://www.w3.org/2000/svg" version="1.1" width="90" height="90" viewBox="0 0 90 90"><rect x="0" y="0" width="90" height="90" fill="#ffffff"/><g transform="scale(3.333)"><g transform="translate(1,1)"><path fill-rule="evenodd" d="M8 0L8 1L9 1L9 2L8 2L8 5L9 5L9 4L11 4L11 2L12 2L12 3L13 3L13 5L14 5L14 7L15 7L15 4L16 4L16 7L17 7L17 4L16 4L16 3L17 3L17 2L14 2L14 0L12 0L12 1L9 1L9 0ZM16 0L16 1L17 1L17 0ZM10 5L10 10L8 10L8 11L7 11L7 10L6 10L6 9L7 9L7 8L6 8L6 9L4 9L4 8L0 8L0 9L3 9L3 10L2 10L2 12L3 12L3 11L4 11L4 13L3 13L3 14L2 14L2 13L1 13L1 15L0 15L0 16L1 16L1 15L3 15L3 14L4 14L4 15L5 15L5 17L8 17L8 18L9 18L9 20L10 20L10 21L8 21L8 25L10 25L10 23L11 23L11 25L12 25L12 24L14 24L14 25L18 25L18 24L16 24L16 21L17 21L17 23L18 23L18 21L21 21L21 22L19 22L19 24L20 24L20 23L21 23L21 22L22 22L22 24L21 24L21 25L25 25L25 24L23 24L23 23L24 23L24 22L25 22L25 20L23 20L23 22L22 22L22 18L24 18L24 19L25 19L25 17L22 17L22 16L21 16L21 15L22 15L22 14L23 14L23 13L24 13L24 14L25 14L25 11L24 11L24 9L25 9L25 8L24 8L24 9L23 9L23 8L20 8L20 10L16 10L16 11L17 11L17 13L16 13L16 12L15 12L15 11L12 11L12 10L14 10L14 9L15 9L15 8L14 8L14 9L13 9L13 6L12 6L12 9L11 9L11 5ZM8 6L8 7L9 7L9 6ZM8 8L8 9L9 9L9 8ZM16 8L16 9L18 9L18 8ZM21 9L21 10L20 10L20 12L19 12L19 11L18 11L18 12L19 12L19 13L20 13L20 14L21 14L21 13L23 13L23 12L24 12L24 11L23 11L23 9ZM4 10L4 11L5 11L5 15L6 15L6 16L7 16L7 15L6 15L6 14L8 14L8 15L9 15L9 14L8 14L8 13L9 13L9 12L8 12L8 13L6 13L6 12L7 12L7 11L5 11L5 10ZM21 10L21 12L23 12L23 11L22 11L22 10ZM0 11L0 12L1 12L1 11ZM11 11L11 13L10 13L10 15L11 15L11 16L10 16L10 18L11 18L11 19L12 19L12 20L11 20L11 21L12 21L12 22L13 22L13 23L14 23L14 22L15 22L15 21L16 21L16 20L15 20L15 21L14 21L14 19L16 19L16 17L15 17L15 15L17 15L17 16L20 16L20 15L19 15L19 14L18 14L18 13L17 13L17 14L14 14L14 13L13 13L13 12L12 12L12 11ZM12 14L12 16L11 16L11 18L12 18L12 19L13 19L13 17L14 17L14 16L13 16L13 14ZM24 15L24 16L25 16L25 15ZM2 16L2 17L3 17L3 16ZM8 16L8 17L9 17L9 16ZM12 16L12 17L13 17L13 16ZM17 17L17 20L20 20L20 17ZM21 17L21 18L22 18L22 17ZM18 18L18 19L19 19L19 18ZM12 20L12 21L13 21L13 22L14 22L14 21L13 21L13 20ZM9 22L9 23L10 23L10 22ZM0 0L0 7L7 7L7 0ZM1 1L1 6L6 6L6 1ZM2 2L2 5L5 5L5 2ZM18 0L18 7L25 7L25 0ZM19 1L19 6L24 6L24 1ZM20 2L20 5L23 5L23 2ZM0 18L0 25L7 25L7 18ZM1 19L1 24L6 24L6 19ZM2 20L2 23L5 23L5 20Z" fill="#282828"/></g></g></svg>
