<?xml version="1.0" encoding="UTF-8"?>
<svg xmlns="http://www.w3.org/2000/svg" version="1.1" width="100" height="100" viewBox="0 0 100 100"><rect x="0" y="0" width="100" height="100" fill="#ffffff"/><g transform="scale(3.226)"><g transform="translate(1,1)"><path fill-rule="evenodd" d="M10 0L10 1L9 1L9 2L8 2L8 3L9 3L9 5L10 5L10 7L11 7L11 8L12 8L12 9L11 9L11 10L10 10L10 9L9 9L9 6L8 6L8 8L4 8L4 9L3 9L3 8L0 8L0 9L1 9L1 10L3 10L3 12L2 12L2 11L1 11L1 12L0 12L0 14L1 14L1 15L0 15L0 17L1 17L1 15L2 15L2 14L1 14L1 12L2 12L2 13L4 13L4 15L3 15L3 16L2 16L2 19L1 19L1 18L0 18L0 19L1 19L1 20L0 20L0 21L1 21L1 20L2 20L2 21L5 21L5 20L6 20L6 21L7 21L7 20L6 20L6 19L7 19L7 18L6 18L6 19L5 19L5 20L3 20L3 19L4 19L4 18L3 18L3 17L4 17L4 16L5 16L5 15L7 15L7 14L6 14L6 13L8 13L8 14L9 14L9 15L8 15L8 16L6 16L6 17L8 17L8 16L10 16L10 17L11 17L11 18L10 18L10 19L12 19L12 20L11 20L11 21L10 21L10 22L9 22L9 18L8 18L8 25L9 25L9 24L10 24L10 25L11 25L11 27L10 27L10 26L8 26L8 29L12 29L12 28L14 28L14 29L15 29L15 28L16 28L16 27L17 27L17 29L18 29L18 28L19 28L19 29L21 29L21 27L26 27L26 26L28 26L28 27L27 27L27 28L22 28L22 29L29 29L29 28L28 28L28 27L29 27L29 24L28 24L28 25L27 25L27 24L26 24L26 26L24 26L24 25L25 25L25 21L28 21L28 23L29 23L29 20L28 20L28 19L29 19L29 14L27 14L27 17L28 17L28 19L27 19L27 18L26 18L26 17L25 17L25 16L26 16L26 15L24 15L24 14L22 14L22 13L23 13L23 12L24 12L24 13L25 13L25 14L26 14L26 12L24 12L24 11L25 11L25 10L22 10L22 11L21 11L21 9L23 9L23 8L21 8L21 6L20 6L20 4L19 4L19 3L20 3L20 2L21 2L21 0L18 0L18 1L17 1L17 2L18 2L18 3L16 3L16 2L15 2L15 3L16 3L16 5L14 5L14 3L12 3L12 2L11 2L11 3L12 3L12 5L10 5L10 3L9 3L9 2L10 2L10 1L11 1L11 0ZM14 0L14 1L13 1L13 2L14 2L14 1L15 1L15 0ZM18 1L18 2L19 2L19 1ZM13 5L13 7L12 7L12 6L11 6L11 7L12 7L12 8L13 8L13 9L14 9L14 10L13 10L13 11L14 11L14 10L15 10L15 9L16 9L16 8L17 8L17 7L18 7L18 5L17 5L17 7L16 7L16 6L15 6L15 7L14 7L14 5ZM19 6L19 8L18 8L18 9L19 9L19 10L17 10L17 11L19 11L19 12L18 12L18 13L16 13L16 14L14 14L14 12L12 12L12 11L11 11L11 12L12 12L12 14L11 14L11 15L12 15L12 16L11 16L11 17L12 17L12 16L13 16L13 17L14 17L14 18L13 18L13 19L14 19L14 18L15 18L15 19L16 19L16 18L17 18L17 19L18 19L18 18L19 18L19 19L20 19L20 20L21 20L21 19L22 19L22 20L24 20L24 19L25 19L25 20L27 20L27 19L26 19L26 18L25 18L25 17L24 17L24 16L23 16L23 15L22 15L22 14L20 14L20 13L21 13L21 11L20 11L20 9L19 9L19 8L20 8L20 6ZM15 7L15 8L16 8L16 7ZM26 8L26 9L27 9L27 10L26 10L26 11L28 11L28 12L27 12L27 13L28 13L28 12L29 12L29 10L28 10L28 9L27 9L27 8ZM4 9L4 11L5 11L5 12L4 12L4 13L6 13L6 12L7 12L7 11L8 11L8 12L9 12L9 13L10 13L10 12L9 12L9 11L10 11L10 10L9 10L9 9L8 9L8 10L7 10L7 9ZM6 10L6 11L7 11L7 10ZM15 11L15 12L16 12L16 11ZM13 14L13 15L14 15L14 14ZM16 14L16 16L17 16L17 18L18 18L18 16L20 16L20 18L22 18L22 19L23 19L23 16L22 16L22 17L21 17L21 15L17 15L17 14ZM12 20L12 22L10 22L10 23L12 23L12 24L11 24L11 25L12 25L12 24L13 24L13 25L14 25L14 26L13 26L13 27L14 27L14 26L15 26L15 27L16 27L16 24L17 24L17 26L18 26L18 27L21 27L21 26L23 26L23 25L20 25L20 23L18 23L18 24L17 24L17 20L15 20L15 22L14 22L14 20ZM18 20L18 21L19 21L19 20ZM21 21L21 24L24 24L24 21ZM13 22L13 23L14 23L14 22ZM22 22L22 23L23 23L23 22ZM26 22L26 23L27 23L27 22ZM15 23L15 24L16 24L16 23ZM18 25L18 26L20 26L20 25ZM11 27L11 28L12 28L12 27ZM0 0L0 7L7 7L7 0ZM1 1L1 6L6 6L6 1ZM2 2L2 5L5 5L5 2ZM22 0L22 7L29 7L29 0ZM23 1L23 6L28 6L28 1ZM24 2L24 5L27 5L27 2ZM0 22L0 29L7 29L7 22ZM1 23L1 28L6 28L6 23ZM2 24L2 27L5 27L5 24Z" fill="#282828"/></g></g></svg>
