<?xml version="1.0" encoding="UTF-8"?>
<svg xmlns="http://www.w3.org/2000/svg" version="1.1" width="90" height="90" viewBox="0 0 90 90"><rect x="0" y="0" width="90" height="90" fill="#ffffff"/><g transform="scale(2.903)"><g transform="translate(1,1)"><path fill-rule="evenodd" d="M10 0L10 1L9 1L9 2L8 2L8 3L9 3L9 5L10 5L10 7L11 7L11 8L12 8L12 9L11 9L11 10L10 10L10 9L9 9L9 6L8 6L8 8L4 8L4 9L3 9L3 8L0 8L0 9L3 9L3 10L1 10L1 12L2 12L2 16L1 16L1 15L0 15L0 17L1 17L1 18L0 18L0 19L1 19L1 20L0 20L0 21L1 21L1 20L2 20L2 21L3 21L3 20L4 20L4 21L5 21L5 20L6 20L6 21L7 21L7 20L8 20L8 25L9 25L9 23L10 23L10 21L9 21L9 20L10 20L10 18L11 18L11 19L12 19L12 20L11 20L11 22L12 22L12 20L14 20L14 22L13 22L13 23L14 23L14 22L15 22L15 20L17 20L17 21L16 21L16 22L18 22L18 19L15 19L15 18L14 18L14 17L13 17L13 16L12 16L12 15L11 15L11 14L12 14L12 12L14 12L14 13L15 13L15 12L16 12L16 15L17 15L17 17L16 17L16 18L17 18L17 17L18 17L18 15L17 15L17 13L18 13L18 12L21 12L21 11L22 11L22 13L20 13L20 14L22 14L22 15L20 15L20 16L19 16L19 17L20 17L20 19L19 19L19 23L17 23L17 24L16 24L16 23L15 23L15 24L16 24L16 27L15 27L15 26L14 26L14 25L13 25L13 24L12 24L12 23L11 23L11 24L12 24L12 25L10 25L10 26L8 26L8 29L9 29L9 28L10 28L10 29L12 29L12 28L14 28L14 29L17 29L17 28L18 28L18 27L19 27L19 29L21 29L21 27L22 27L22 26L21 26L21 25L24 25L24 26L23 26L23 27L24 27L24 28L22 28L22 29L24 29L24 28L25 28L25 22L26 22L26 23L27 23L27 22L26 22L26 21L25 21L25 20L26 20L26 19L27 19L27 21L28 21L28 24L26 24L26 25L27 25L27 26L28 26L28 27L27 27L27 29L29 29L29 28L28 28L28 27L29 27L29 20L28 20L28 19L29 19L29 14L27 14L27 13L28 13L28 12L29 12L29 10L28 10L28 9L27 9L27 8L26 8L26 10L25 10L25 11L24 11L24 10L23 10L23 8L20 8L20 7L21 7L21 6L20 6L20 5L19 5L19 4L20 4L20 3L21 3L21 1L20 1L20 0L19 0L19 2L18 2L18 4L17 4L17 2L16 2L16 0L14 0L14 1L13 1L13 2L14 2L14 1L15 1L15 2L16 2L16 3L15 3L15 5L13 5L13 3L12 3L12 2L11 2L11 3L12 3L12 5L10 5L10 3L9 3L9 2L10 2L10 1L11 1L11 0ZM19 2L19 3L20 3L20 2ZM16 4L16 5L17 5L17 4ZM11 6L11 7L12 7L12 8L13 8L13 7L14 7L14 8L16 8L16 9L17 9L17 8L16 8L16 6L15 6L15 7L14 7L14 6L13 6L13 7L12 7L12 6ZM17 6L17 7L18 7L18 6ZM19 6L19 7L20 7L20 6ZM18 8L18 10L14 10L14 11L21 11L21 9L20 9L20 8ZM4 9L4 12L7 12L7 11L6 11L6 10L9 10L9 11L8 11L8 12L9 12L9 13L4 13L4 15L3 15L3 17L2 17L2 18L1 18L1 19L2 19L2 20L3 20L3 19L4 19L4 20L5 20L5 19L6 19L6 20L7 20L7 19L9 19L9 18L10 18L10 17L12 17L12 16L10 16L10 15L9 15L9 14L10 14L10 12L9 12L9 11L10 11L10 10L9 10L9 9ZM22 10L22 11L23 11L23 10ZM2 11L2 12L3 12L3 11ZM11 11L11 12L12 12L12 11ZM25 11L25 12L23 12L23 15L22 15L22 16L24 16L24 17L22 17L22 18L21 18L21 19L20 19L20 20L25 20L25 19L22 19L22 18L27 18L27 19L28 19L28 17L27 17L27 16L28 16L28 15L24 15L24 14L26 14L26 13L27 13L27 12L28 12L28 11ZM0 13L0 14L1 14L1 13ZM6 14L6 15L4 15L4 17L3 17L3 18L2 18L2 19L3 19L3 18L4 18L4 17L5 17L5 16L6 16L6 17L7 17L7 18L6 18L6 19L7 19L7 18L9 18L9 17L10 17L10 16L9 16L9 15L7 15L7 14ZM13 14L13 15L14 15L14 14ZM6 15L6 16L7 16L7 15ZM8 16L8 17L9 17L9 16ZM13 18L13 19L14 19L14 18ZM21 21L21 24L24 24L24 21ZM22 22L22 23L23 23L23 22ZM19 23L19 25L18 25L18 26L17 26L17 27L18 27L18 26L19 26L19 27L20 27L20 23ZM13 26L13 27L14 27L14 26ZM10 27L10 28L12 28L12 27ZM0 0L0 7L7 7L7 0ZM1 1L1 6L6 6L6 1ZM2 2L2 5L5 5L5 2ZM22 0L22 7L29 7L29 0ZM23 1L23 6L28 6L28 1ZM24 2L24 5L27 5L27 2ZM0 22L0 29L7 29L7 22ZM1 23L1 28L6 28L6 23ZM2 24L2 27L5 27L5 24Z" fill="#282828"/></g></g></svg>
