<?xml version="1.0" encoding="UTF-8"?>
<svg xmlns="http://www.w3.org/2000/svg" version="1.1" width="90" height="90" viewBox="0 0 90 90"><rect x="0" y="0" width="90" height="90" fill="#ffffff"/><g transform="scale(2.903)"><g transform="translate(1,1)"><path fill-rule="evenodd" d="M8 0L8 4L9 4L9 5L8 5L8 7L9 7L9 6L10 6L10 9L11 9L11 8L12 8L12 9L13 9L13 11L12 11L12 12L11 12L11 13L10 13L10 14L11 14L11 15L9 15L9 12L10 12L10 11L11 11L11 10L9 10L9 12L6 12L6 11L7 11L7 10L6 10L6 9L7 9L7 8L4 8L4 9L2 9L2 8L0 8L0 10L4 10L4 11L1 11L1 13L0 13L0 15L1 15L1 17L0 17L0 18L2 18L2 19L4 19L4 21L5 21L5 17L4 17L4 16L6 16L6 17L8 17L8 18L6 18L6 19L8 19L8 18L9 18L9 20L8 20L8 22L9 22L9 23L8 23L8 25L9 25L9 24L12 24L12 25L13 25L13 26L15 26L15 27L14 27L14 28L13 28L13 27L12 27L12 28L11 28L11 29L12 29L12 28L13 28L13 29L15 29L15 28L16 28L16 29L18 29L18 28L19 28L19 27L18 27L18 26L19 26L19 25L20 25L20 26L21 26L21 27L20 27L20 29L21 29L21 27L23 27L23 28L24 28L24 29L25 29L25 28L26 28L26 26L27 26L27 29L28 29L28 28L29 28L29 25L28 25L28 24L26 24L26 23L25 23L25 22L27 22L27 23L29 23L29 21L28 21L28 20L29 20L29 17L28 17L28 16L27 16L27 17L26 17L26 14L25 14L25 13L26 13L26 10L25 10L25 9L29 9L29 8L25 8L25 9L24 9L24 8L23 8L23 9L22 9L22 10L23 10L23 11L21 11L21 8L19 8L19 6L20 6L20 7L21 7L21 5L20 5L20 4L19 4L19 3L21 3L21 1L19 1L19 0L13 0L13 1L11 1L11 2L12 2L12 5L13 5L13 6L12 6L12 7L11 7L11 3L10 3L10 2L9 2L9 0ZM15 1L15 2L17 2L17 1ZM18 1L18 2L19 2L19 1ZM13 2L13 3L14 3L14 6L13 6L13 7L12 7L12 8L13 8L13 9L14 9L14 10L16 10L16 12L15 12L15 13L16 13L16 12L17 12L17 10L19 10L19 11L18 11L18 13L19 13L19 14L16 14L16 15L14 15L14 17L15 17L15 16L16 16L16 17L17 17L17 15L20 15L20 17L19 17L19 16L18 16L18 17L19 17L19 20L20 20L20 18L22 18L22 17L25 17L25 18L23 18L23 20L24 20L24 19L25 19L25 20L26 20L26 21L27 21L27 18L26 18L26 17L25 17L25 14L23 14L23 16L22 16L22 13L25 13L25 12L24 12L24 11L25 11L25 10L24 10L24 11L23 11L23 12L22 12L22 13L19 13L19 12L20 12L20 9L19 9L19 8L18 8L18 9L17 9L17 10L16 10L16 9L14 9L14 8L17 8L17 7L18 7L18 6L19 6L19 4L18 4L18 3L16 3L16 4L17 4L17 7L16 7L16 5L15 5L15 3L14 3L14 2ZM14 6L14 7L15 7L15 6ZM28 10L28 11L29 11L29 10ZM13 11L13 12L12 12L12 13L11 13L11 14L12 14L12 13L13 13L13 14L14 14L14 13L13 13L13 12L14 12L14 11ZM2 12L2 14L3 14L3 15L6 15L6 16L7 16L7 15L8 15L8 16L9 16L9 18L11 18L11 20L12 20L12 21L10 21L10 20L9 20L9 22L12 22L12 21L13 21L13 22L15 22L15 21L13 21L13 20L14 20L14 19L15 19L15 18L13 18L13 17L12 17L12 16L13 16L13 15L12 15L12 16L9 16L9 15L8 15L8 13L6 13L6 14L5 14L5 12L4 12L4 13L3 13L3 12ZM27 12L27 14L28 14L28 15L29 15L29 14L28 14L28 13L29 13L29 12ZM6 14L6 15L7 15L7 14ZM3 17L3 18L4 18L4 17ZM17 18L17 19L18 19L18 18ZM25 18L25 19L26 19L26 18ZM12 19L12 20L13 20L13 19ZM0 20L0 21L3 21L3 20ZM6 20L6 21L7 21L7 20ZM16 20L16 21L17 21L17 22L16 22L16 23L14 23L14 25L17 25L17 26L18 26L18 25L19 25L19 22L20 22L20 21L19 21L19 22L18 22L18 21L17 21L17 20ZM21 21L21 24L24 24L24 21ZM17 22L17 23L16 23L16 24L18 24L18 22ZM22 22L22 23L23 23L23 22ZM12 23L12 24L13 24L13 23ZM10 25L10 26L9 26L9 27L8 27L8 29L9 29L9 28L10 28L10 26L11 26L11 25ZM22 25L22 26L23 26L23 27L25 27L25 25ZM27 25L27 26L28 26L28 25ZM16 27L16 28L17 28L17 27ZM0 0L0 7L7 7L7 0ZM1 1L1 6L6 6L6 1ZM2 2L2 5L5 5L5 2ZM22 0L22 7L29 7L29 0ZM23 1L23 6L28 6L28 1ZM24 2L24 5L27 5L27 2ZM0 22L0 29L7 29L7 22ZM1 23L1 28L6 28L6 23ZM2 24L2 27L5 27L5 24Z" fill="#282828"/></g></g></svg>
