<?xml version="1.0" encoding="UTF-8"?>
<svg xmlns="http://www.w3.org/2000/svg" version="1.1" width="90" height="90" viewBox="0 0 90 90"><rect x="0" y="0" width="90" height="90" fill="#ffffff"/><g transform="scale(3.333)"><g transform="translate(1,1)"><path fill-rule="evenodd" d="M8 0L8 2L10 2L10 4L8 4L8 10L6 10L6 11L4 11L4 9L3 9L3 8L0 8L0 9L1 9L1 10L2 10L2 9L3 9L3 11L1 11L1 12L0 12L0 13L1 13L1 14L0 14L0 15L2 15L2 13L1 13L1 12L5 12L5 14L3 14L3 16L0 16L0 17L3 17L3 16L4 16L4 17L5 17L5 16L6 16L6 17L8 17L8 18L9 18L9 15L14 15L14 16L13 16L13 17L12 17L12 16L11 16L11 17L10 17L10 19L8 19L8 20L9 20L9 21L10 21L10 20L13 20L13 21L12 21L12 22L8 22L8 25L14 25L14 24L11 24L11 23L12 23L12 22L13 22L13 23L14 23L14 22L15 22L15 23L16 23L16 24L15 24L15 25L17 25L17 22L18 22L18 21L20 21L20 23L19 23L19 25L21 25L21 24L22 24L22 25L23 25L23 24L22 24L22 23L25 23L25 22L24 22L24 21L23 21L23 22L21 22L21 21L22 21L22 20L21 20L21 19L22 19L22 18L23 18L23 20L24 20L24 19L25 19L25 16L24 16L24 17L22 17L22 16L18 16L18 14L20 14L20 15L21 15L21 14L22 14L22 15L25 15L25 13L24 13L24 12L22 12L22 11L21 11L21 14L20 14L20 13L19 13L19 11L20 11L20 9L21 9L21 10L24 10L24 11L25 11L25 10L24 10L24 9L25 9L25 8L23 8L23 9L21 9L21 8L17 8L17 9L16 9L16 7L17 7L17 6L16 6L16 7L15 7L15 6L14 6L14 7L15 7L15 11L16 11L16 12L15 12L15 15L14 15L14 14L13 14L13 13L14 13L14 12L11 12L11 14L10 14L10 11L9 11L9 10L11 10L11 11L12 11L12 8L13 8L13 11L14 11L14 8L13 8L13 6L12 6L12 8L11 8L11 6L10 6L10 8L9 8L9 5L11 5L11 4L12 4L12 5L15 5L15 4L16 4L16 3L15 3L15 2L11 2L11 1L13 1L13 0L10 0L10 1L9 1L9 0ZM14 0L14 1L15 1L15 0ZM16 1L16 2L17 2L17 1ZM14 3L14 4L15 4L15 3ZM5 8L5 9L7 9L7 8ZM17 9L17 10L16 10L16 11L17 11L17 10L18 10L18 11L19 11L19 10L18 10L18 9ZM6 11L6 12L7 12L7 13L6 13L6 14L5 14L5 15L6 15L6 16L8 16L8 15L9 15L9 14L7 14L7 13L8 13L8 11ZM17 12L17 14L18 14L18 12ZM6 14L6 15L7 15L7 14ZM16 15L16 16L17 16L17 15ZM14 16L14 18L16 18L16 17L15 17L15 16ZM17 17L17 20L20 20L20 17ZM12 18L12 19L13 19L13 20L14 20L14 21L13 21L13 22L14 22L14 21L15 21L15 22L17 22L17 21L15 21L15 20L14 20L14 19L13 19L13 18ZM18 18L18 19L19 19L19 18ZM9 23L9 24L10 24L10 23ZM24 24L24 25L25 25L25 24ZM0 0L0 7L7 7L7 0ZM1 1L1 6L6 6L6 1ZM2 2L2 5L5 5L5 2ZM18 0L18 7L25 7L25 0ZM19 1L19 6L24 6L24 1ZM20 2L20 5L23 5L23 2ZM0 18L0 25L7 25L7 18ZM1 19L1 24L6 24L6 19ZM2 20L2 23L5 23L5 20Z" fill="#282828"/></g></g></svg>
