<?xml version="1.0" encoding="UTF-8"?>
<svg xmlns="http://www.w3.org/2000/svg" version="1.1" width="90" height="90" viewBox="0 0 90 90"><rect x="0" y="0" width="90" height="90" fill="#ffffff"/><g transform="scale(3.333)"><g transform="translate(1,1)"><path fill-rule="evenodd" d="M8 0L8 2L10 2L10 4L8 4L8 11L7 11L7 10L5 10L5 9L7 9L7 8L5 8L5 9L3 9L3 8L0 8L0 10L1 10L1 11L0 11L0 13L1 13L1 14L0 14L0 15L2 15L2 16L0 16L0 17L2 17L2 16L3 16L3 14L4 14L4 16L5 16L5 15L7 15L7 14L8 14L8 15L9 15L9 16L10 16L10 17L11 17L11 18L10 18L10 19L8 19L8 20L9 20L9 22L8 22L8 25L9 25L9 24L10 24L10 23L13 23L13 22L14 22L14 21L12 21L12 22L10 22L10 20L13 20L13 19L12 19L12 18L13 18L13 17L12 17L12 16L10 16L10 15L14 15L14 16L15 16L15 17L14 17L14 19L15 19L15 23L14 23L14 24L16 24L16 25L19 25L19 24L16 24L16 23L18 23L18 22L17 22L17 21L22 21L22 20L21 20L21 19L22 19L22 18L23 18L23 20L24 20L24 19L25 19L25 16L24 16L24 17L22 17L22 16L20 16L20 15L21 15L21 14L22 14L22 15L25 15L25 13L24 13L24 12L22 12L22 11L21 11L21 10L24 10L24 11L25 11L25 10L24 10L24 9L25 9L25 8L23 8L23 9L21 9L21 8L16 8L16 7L17 7L17 5L16 5L16 7L15 7L15 6L14 6L14 7L15 7L15 8L16 8L16 9L15 9L15 10L14 10L14 11L15 11L15 15L14 15L14 14L13 14L13 12L11 12L11 14L10 14L10 11L9 11L9 10L11 10L11 11L12 11L12 8L13 8L13 9L14 9L14 8L13 8L13 6L12 6L12 8L11 8L11 6L10 6L10 8L9 8L9 5L11 5L11 4L12 4L12 5L15 5L15 4L16 4L16 3L17 3L17 1L16 1L16 2L15 2L15 4L14 4L14 0L10 0L10 1L9 1L9 0ZM11 1L11 2L13 2L13 1ZM2 9L2 11L1 11L1 13L2 13L2 14L3 14L3 13L2 13L2 11L3 11L3 9ZM18 9L18 10L17 10L17 11L16 11L16 13L17 13L17 14L16 14L16 15L15 15L15 16L17 16L17 14L19 14L19 15L18 15L18 16L19 16L19 15L20 15L20 14L21 14L21 13L20 13L20 14L19 14L19 13L18 13L18 12L20 12L20 10L21 10L21 9L20 9L20 10L19 10L19 9ZM4 10L4 13L5 13L5 12L7 12L7 11L5 11L5 10ZM18 10L18 11L19 11L19 10ZM8 11L8 14L9 14L9 11ZM6 13L6 14L7 14L7 13ZM6 16L6 17L7 17L7 16ZM8 17L8 18L9 18L9 17ZM15 17L15 19L16 19L16 17ZM17 17L17 20L20 20L20 17ZM18 18L18 19L19 19L19 18ZM23 21L23 22L20 22L20 23L21 23L21 25L23 25L23 24L22 24L22 23L25 23L25 22L24 22L24 21ZM12 24L12 25L13 25L13 24ZM24 24L24 25L25 25L25 24ZM0 0L0 7L7 7L7 0ZM1 1L1 6L6 6L6 1ZM2 2L2 5L5 5L5 2ZM18 0L18 7L25 7L25 0ZM19 1L19 6L24 6L24 1ZM20 2L20 5L23 5L23 2ZM0 18L0 25L7 25L7 18ZM1 19L1 24L6 24L6 19ZM2 20L2 23L5 23L5 20Z" fill="#282828"/></g></g></svg>
