<?xml version="1.0" encoding="UTF-8"?>
<svg xmlns="http://www.w3.org/2000/svg" version="1.1" width="90" height="90" viewBox="0 0 90 90"><rect x="0" y="0" width="90" height="90" fill="#ffffff"/><g transform="scale(2.903)"><g transform="translate(1,1)"><path fill-rule="evenodd" d="M10 0L10 2L11 2L11 0ZM12 0L12 1L13 1L13 2L12 2L12 4L13 4L13 3L14 3L14 4L15 4L15 3L16 3L16 4L17 4L17 5L21 5L21 4L20 4L20 2L21 2L21 0L18 0L18 2L19 2L19 4L18 4L18 3L16 3L16 2L17 2L17 1L16 1L16 0L15 0L15 1L14 1L14 0ZM8 1L8 2L9 2L9 1ZM19 1L19 2L20 2L20 1ZM14 2L14 3L15 3L15 2ZM8 3L8 4L9 4L9 5L8 5L8 7L9 7L9 8L6 8L6 9L5 9L5 8L0 8L0 10L1 10L1 11L2 11L2 12L0 12L0 13L1 13L1 14L0 14L0 15L1 15L1 16L0 16L0 21L1 21L1 16L4 16L4 15L5 15L5 16L6 16L6 17L7 17L7 18L6 18L6 19L7 19L7 20L5 20L5 19L3 19L3 18L5 18L5 17L2 17L2 19L3 19L3 20L4 20L4 21L8 21L8 23L9 23L9 24L8 24L8 29L9 29L9 28L10 28L10 29L11 29L11 27L9 27L9 24L11 24L11 25L12 25L12 26L13 26L13 27L12 27L12 29L13 29L13 28L14 28L14 29L18 29L18 28L17 28L17 27L16 27L16 26L21 26L21 25L25 25L25 23L26 23L26 21L27 21L27 20L28 20L28 18L29 18L29 16L26 16L26 15L24 15L24 16L23 16L23 17L21 17L21 14L22 14L22 15L23 15L23 14L27 14L27 12L26 12L26 10L28 10L28 8L27 8L27 9L26 9L26 8L25 8L25 9L24 9L24 8L23 8L23 9L22 9L22 8L21 8L21 6L20 6L20 7L19 7L19 6L18 6L18 7L19 7L19 8L17 8L17 6L16 6L16 5L15 5L15 6L14 6L14 8L15 8L15 9L12 9L12 7L13 7L13 5L11 5L11 6L10 6L10 4L11 4L11 3ZM9 6L9 7L10 7L10 6ZM11 6L11 7L12 7L12 6ZM15 6L15 7L16 7L16 6ZM10 8L10 9L9 9L9 10L7 10L7 9L6 9L6 10L7 10L7 11L6 11L6 12L7 12L7 13L6 13L6 14L7 14L7 15L6 15L6 16L7 16L7 17L8 17L8 19L9 19L9 20L8 20L8 21L9 21L9 20L11 20L11 22L9 22L9 23L11 23L11 22L13 22L13 23L12 23L12 25L15 25L15 26L16 26L16 25L17 25L17 24L18 24L18 25L20 25L20 24L19 24L19 22L20 22L20 21L19 21L19 20L23 20L23 18L22 18L22 19L21 19L21 18L19 18L19 17L20 17L20 14L18 14L18 13L22 13L22 14L23 14L23 13L26 13L26 12L24 12L24 11L23 11L23 10L24 10L24 9L23 9L23 10L22 10L22 12L20 12L20 10L19 10L19 12L18 12L18 9L15 9L15 10L17 10L17 11L16 11L16 13L14 13L14 12L15 12L15 11L14 11L14 12L13 12L13 13L12 13L12 11L13 11L13 10L12 10L12 9L11 9L11 8ZM20 8L20 9L21 9L21 8ZM1 9L1 10L2 10L2 11L3 11L3 10L4 10L4 12L2 12L2 13L4 13L4 12L5 12L5 9ZM10 9L10 11L11 11L11 9ZM7 11L7 12L8 12L8 14L9 14L9 16L8 16L8 15L7 15L7 16L8 16L8 17L9 17L9 19L10 19L10 18L11 18L11 17L12 17L12 18L13 18L13 19L12 19L12 21L13 21L13 20L14 20L14 21L15 21L15 23L14 23L14 24L15 24L15 23L16 23L16 24L17 24L17 21L18 21L18 22L19 22L19 21L18 21L18 20L17 20L17 17L18 17L18 16L16 16L16 14L17 14L17 15L18 15L18 14L17 14L17 13L16 13L16 14L15 14L15 15L14 15L14 16L15 16L15 17L12 17L12 15L13 15L13 14L11 14L11 17L9 17L9 16L10 16L10 13L11 13L11 12L8 12L8 11ZM28 11L28 13L29 13L29 11ZM24 16L24 17L26 17L26 16ZM15 17L15 18L16 18L16 17ZM27 17L27 18L24 18L24 20L25 20L25 21L26 21L26 20L27 20L27 18L28 18L28 17ZM14 19L14 20L15 20L15 21L16 21L16 19ZM25 19L25 20L26 20L26 19ZM21 21L21 24L24 24L24 21ZM28 21L28 22L27 22L27 24L26 24L26 25L27 25L27 28L28 28L28 26L29 26L29 25L27 25L27 24L28 24L28 22L29 22L29 21ZM22 22L22 23L23 23L23 22ZM22 26L22 27L25 27L25 28L26 28L26 27L25 27L25 26ZM14 27L14 28L15 28L15 27ZM20 27L20 28L19 28L19 29L20 29L20 28L21 28L21 29L22 29L22 28L21 28L21 27ZM23 28L23 29L24 29L24 28ZM0 0L0 7L7 7L7 0ZM1 1L1 6L6 6L6 1ZM2 2L2 5L5 5L5 2ZM22 0L22 7L29 7L29 0ZM23 1L23 6L28 6L28 1ZM24 2L24 5L27 5L27 2ZM0 22L0 29L7 29L7 22ZM1 23L1 28L6 28L6 23ZM2 24L2 27L5 27L5 24Z" fill="#282828"/></g></g></svg>
