<?xml version="1.0" encoding="UTF-8"?>
<svg xmlns="http://www.w3.org/2000/svg" version="1.1" width="90" height="90" viewBox="0 0 90 90"><rect x="0" y="0" width="90" height="90" fill="#ffffff"/><g transform="scale(2.903)"><g transform="translate(1,1)"><path fill-rule="evenodd" d="M8 0L8 1L11 1L11 3L10 3L10 2L9 2L9 3L10 3L10 5L9 5L9 6L8 6L8 8L9 8L9 9L10 9L10 10L9 10L9 11L8 11L8 9L7 9L7 8L6 8L6 9L7 9L7 10L5 10L5 8L3 8L3 9L2 9L2 8L0 8L0 12L1 12L1 15L3 15L3 14L4 14L4 15L5 15L5 18L6 18L6 19L5 19L5 20L4 20L4 19L3 19L3 18L4 18L4 17L3 17L3 16L2 16L2 17L1 17L1 16L0 16L0 21L2 21L2 20L4 20L4 21L5 21L5 20L6 20L6 21L8 21L8 22L9 22L9 21L8 21L8 19L9 19L9 20L10 20L10 22L11 22L11 23L9 23L9 24L8 24L8 26L9 26L9 27L8 27L8 29L9 29L9 28L10 28L10 29L11 29L11 28L12 28L12 27L14 27L14 26L15 26L15 27L16 27L16 28L14 28L14 29L16 29L16 28L17 28L17 24L18 24L18 23L19 23L19 25L18 25L18 26L19 26L19 27L20 27L20 25L21 25L21 28L18 28L18 29L21 29L21 28L22 28L22 25L25 25L25 28L24 28L24 27L23 27L23 29L25 29L25 28L26 28L26 29L27 29L27 28L26 28L26 27L28 27L28 28L29 28L29 24L28 24L28 21L29 21L29 20L28 20L28 21L26 21L26 20L27 20L27 18L28 18L28 19L29 19L29 16L28 16L28 15L29 15L29 14L28 14L28 15L26 15L26 16L28 16L28 17L27 17L27 18L25 18L25 17L24 17L24 16L25 16L25 15L24 15L24 14L25 14L25 13L26 13L26 14L27 14L27 13L26 13L26 11L27 11L27 12L29 12L29 11L27 11L27 10L26 10L26 9L24 9L24 12L23 12L23 11L22 11L22 10L20 10L20 11L22 11L22 13L23 13L23 15L22 15L22 16L23 16L23 17L24 17L24 18L21 18L21 17L19 17L19 18L18 18L18 17L17 17L17 16L15 16L15 15L17 15L17 12L19 12L19 13L18 13L18 14L19 14L19 15L21 15L21 12L19 12L19 9L20 9L20 8L17 8L17 6L18 6L18 7L19 7L19 5L20 5L20 4L21 4L21 2L20 2L20 1L18 1L18 0L17 0L17 1L16 1L16 2L17 2L17 1L18 1L18 3L17 3L17 4L16 4L16 3L15 3L15 4L14 4L14 2L15 2L15 1L14 1L14 0L13 0L13 1L12 1L12 0ZM12 2L12 4L13 4L13 5L12 5L12 6L11 6L11 5L10 5L10 6L9 6L9 7L10 7L10 9L11 9L11 10L10 10L10 11L9 11L9 12L8 12L8 11L5 11L5 10L4 10L4 9L3 9L3 11L4 11L4 12L5 12L5 14L7 14L7 15L6 15L6 16L7 16L7 15L8 15L8 17L9 17L9 19L10 19L10 18L11 18L11 19L12 19L12 21L11 21L11 22L12 22L12 23L13 23L13 22L12 22L12 21L13 21L13 19L12 19L12 18L15 18L15 16L13 16L13 17L12 17L12 18L11 18L11 17L10 17L10 16L12 16L12 15L14 15L14 13L13 13L13 12L15 12L15 13L16 13L16 12L17 12L17 11L16 11L16 12L15 12L15 8L16 8L16 10L18 10L18 9L17 9L17 8L16 8L16 6L17 6L17 5L14 5L14 4L13 4L13 2ZM19 2L19 3L18 3L18 4L19 4L19 3L20 3L20 2ZM10 6L10 7L11 7L11 6ZM12 6L12 9L13 9L13 8L14 8L14 7L15 7L15 6L14 6L14 7L13 7L13 6ZM20 6L20 7L21 7L21 6ZM22 8L22 9L23 9L23 8ZM28 8L28 9L29 9L29 8ZM1 10L1 12L2 12L2 10ZM12 10L12 11L13 11L13 10ZM6 12L6 13L7 13L7 14L8 14L8 15L9 15L9 14L10 14L10 15L11 15L11 12L9 12L9 13L8 13L8 12ZM24 12L24 13L25 13L25 12ZM12 13L12 14L13 14L13 13ZM19 13L19 14L20 14L20 13ZM23 15L23 16L24 16L24 15ZM6 17L6 18L7 18L7 17ZM16 17L16 18L17 18L17 17ZM20 18L20 19L19 19L19 20L18 20L18 19L17 19L17 20L16 20L16 19L14 19L14 25L15 25L15 26L16 26L16 24L17 24L17 23L18 23L18 22L20 22L20 20L21 20L21 18ZM24 18L24 19L22 19L22 20L24 20L24 19L25 19L25 20L26 20L26 19L25 19L25 18ZM6 19L6 20L7 20L7 19ZM15 20L15 24L16 24L16 23L17 23L17 22L16 22L16 20ZM17 20L17 21L18 21L18 20ZM21 21L21 24L24 24L24 21ZM22 22L22 23L23 23L23 22ZM26 22L26 24L25 24L25 25L27 25L27 26L28 26L28 24L27 24L27 22ZM9 24L9 26L10 26L10 25L11 25L11 26L13 26L13 25L11 25L11 24ZM0 0L0 7L7 7L7 0ZM1 1L1 6L6 6L6 1ZM2 2L2 5L5 5L5 2ZM22 0L22 7L29 7L29 0ZM23 1L23 6L28 6L28 1ZM24 2L24 5L27 5L27 2ZM0 22L0 29L7 29L7 22ZM1 23L1 28L6 28L6 23ZM2 24L2 27L5 27L5 24Z" fill="#282828"/></g></g></svg>
