<?xml version="1.0" encoding="UTF-8"?>
<svg xmlns="http://www.w3.org/2000/svg" version="1.1" width="90" height="90" viewBox="0 0 90 90"><rect x="0" y="0" width="90" height="90" fill="#ffffff"/><g transform="scale(2.903)"><g transform="translate(1,1)"><path fill-rule="evenodd" d="M8 0L8 1L11 1L11 3L10 3L10 2L9 2L9 3L10 3L10 5L9 5L9 6L8 6L8 8L9 8L9 9L7 9L7 8L6 8L6 9L7 9L7 10L5 10L5 11L4 11L4 9L5 9L5 8L3 8L3 9L2 9L2 8L0 8L0 10L1 10L1 11L2 11L2 10L3 10L3 11L4 11L4 12L5 12L5 13L3 13L3 12L1 12L1 13L2 13L2 14L1 14L1 16L3 16L3 17L0 17L0 21L2 21L2 19L3 19L3 17L5 17L5 18L4 18L4 19L5 19L5 20L3 20L3 21L5 21L5 20L6 20L6 21L8 21L8 22L9 22L9 23L10 23L10 27L8 27L8 29L10 29L10 28L12 28L12 27L14 27L14 26L15 26L15 28L14 28L14 29L16 29L16 26L17 26L17 25L16 25L16 24L18 24L18 28L17 28L17 29L18 29L18 28L19 28L19 29L22 29L22 28L27 28L27 27L28 27L28 28L29 28L29 24L28 24L28 21L29 21L29 20L28 20L28 21L27 21L27 22L26 22L26 20L27 20L27 18L28 18L28 19L29 19L29 16L28 16L28 15L29 15L29 14L28 14L28 15L26 15L26 16L28 16L28 17L27 17L27 18L25 18L25 17L24 17L24 14L25 14L25 13L26 13L26 14L27 14L27 13L26 13L26 11L27 11L27 12L29 12L29 11L27 11L27 10L26 10L26 9L24 9L24 12L25 12L25 13L23 13L23 11L22 11L22 10L20 10L20 9L21 9L21 5L20 5L20 4L21 4L21 2L20 2L20 1L21 1L21 0L20 0L20 1L19 1L19 0L17 0L17 1L16 1L16 2L17 2L17 1L18 1L18 3L20 3L20 4L18 4L18 5L20 5L20 8L19 8L19 10L20 10L20 11L22 11L22 13L23 13L23 14L22 14L22 15L23 15L23 17L24 17L24 18L23 18L23 19L21 19L21 16L20 16L20 17L18 17L18 18L19 18L19 21L20 21L20 22L19 22L19 23L20 23L20 24L18 24L18 22L17 22L17 23L15 23L15 25L14 25L14 19L15 19L15 21L18 21L18 20L16 20L16 19L15 19L15 18L17 18L17 17L16 17L16 16L17 16L17 12L19 12L19 13L20 13L20 12L19 12L19 11L18 11L18 10L16 10L16 9L18 9L18 8L17 8L17 6L16 6L16 8L15 8L15 12L13 12L13 13L12 13L12 14L13 14L13 13L14 13L14 15L12 15L12 16L11 16L11 15L10 15L10 14L11 14L11 12L9 12L9 11L10 11L10 10L11 10L11 9L10 9L10 7L11 7L11 6L12 6L12 9L13 9L13 8L14 8L14 7L15 7L15 6L14 6L14 7L13 7L13 6L12 6L12 5L13 5L13 4L14 4L14 5L17 5L17 4L16 4L16 3L15 3L15 4L14 4L14 2L15 2L15 1L14 1L14 0L13 0L13 1L12 1L12 0ZM12 2L12 4L13 4L13 2ZM10 5L10 6L9 6L9 7L10 7L10 6L11 6L11 5ZM18 6L18 7L19 7L19 6ZM22 8L22 9L23 9L23 8ZM28 8L28 9L29 9L29 8ZM1 9L1 10L2 10L2 9ZM9 9L9 10L10 10L10 9ZM12 10L12 11L13 11L13 10ZM6 11L6 12L7 12L7 13L5 13L5 14L4 14L4 15L3 15L3 14L2 14L2 15L3 15L3 16L5 16L5 17L6 17L6 18L7 18L7 17L8 17L8 21L10 21L10 22L12 22L12 23L13 23L13 22L12 22L12 21L13 21L13 19L12 19L12 18L15 18L15 16L13 16L13 17L12 17L12 18L11 18L11 19L12 19L12 21L11 21L11 20L9 20L9 19L10 19L10 18L9 18L9 17L11 17L11 16L8 16L8 14L7 14L7 13L8 13L8 11ZM6 14L6 15L7 15L7 14ZM19 14L19 15L18 15L18 16L19 16L19 15L21 15L21 14ZM6 16L6 17L7 17L7 16ZM24 18L24 19L23 19L23 20L24 20L24 19L25 19L25 20L26 20L26 19L25 19L25 18ZM6 19L6 20L7 20L7 19ZM21 21L21 24L24 24L24 21ZM22 22L22 23L23 23L23 22ZM25 22L25 23L26 23L26 25L27 25L27 26L25 26L25 25L22 25L22 26L20 26L20 25L19 25L19 26L20 26L20 27L19 27L19 28L22 28L22 27L23 27L23 26L25 26L25 27L27 27L27 26L28 26L28 24L27 24L27 23L26 23L26 22ZM8 24L8 26L9 26L9 24ZM11 25L11 26L13 26L13 25ZM0 0L0 7L7 7L7 0ZM1 1L1 6L6 6L6 1ZM2 2L2 5L5 5L5 2ZM22 0L22 7L29 7L29 0ZM23 1L23 6L28 6L28 1ZM24 2L24 5L27 5L27 2ZM0 22L0 29L7 29L7 22ZM1 23L1 28L6 28L6 23ZM2 24L2 27L5 27L5 24Z" fill="#282828"/></g></g></svg>
