<?xml version="1.0" encoding="UTF-8"?>
<svg xmlns="http://www.w3.org/2000/svg" version="1.1" width="90" height="90" viewBox="0 0 90 90"><rect x="0" y="0" width="90" height="90" fill="#ffffff"/><g transform="scale(3.333)"><g transform="translate(1,1)"><path fill-rule="evenodd" d="M8 0L8 1L10 1L10 0ZM13 0L13 2L11 2L11 4L10 4L10 3L9 3L9 2L8 2L8 5L9 5L9 6L8 6L8 7L9 7L9 8L8 8L8 9L9 9L9 10L10 10L10 9L9 9L9 8L10 8L10 7L11 7L11 8L12 8L12 7L13 7L13 6L14 6L14 9L15 9L15 10L14 10L14 11L11 11L11 13L10 13L10 12L4 12L4 11L7 11L7 10L6 10L6 9L7 9L7 8L6 8L6 9L4 9L4 8L0 8L0 9L4 9L4 11L3 11L3 12L2 12L2 10L0 10L0 11L1 11L1 12L2 12L2 13L1 13L1 15L0 15L0 16L1 16L1 15L2 15L2 17L4 17L4 16L5 16L5 15L4 15L4 16L3 16L3 15L2 15L2 14L3 14L3 13L5 13L5 14L6 14L6 15L7 15L7 16L6 16L6 17L7 17L7 16L8 16L8 18L9 18L9 21L8 21L8 25L11 25L11 23L14 23L14 20L16 20L16 21L15 21L15 24L14 24L14 25L15 25L15 24L17 24L17 23L20 23L20 24L23 24L23 25L25 25L25 24L23 24L23 23L24 23L24 22L25 22L25 21L24 21L24 20L25 20L25 17L23 17L23 16L25 16L25 15L23 15L23 13L22 13L22 12L23 12L23 10L25 10L25 8L24 8L24 9L23 9L23 8L20 8L20 9L19 9L19 11L18 11L18 12L17 12L17 13L16 13L16 11L17 11L17 10L18 10L18 8L17 8L17 4L16 4L16 3L15 3L15 2L14 2L14 1L16 1L16 2L17 2L17 0ZM12 3L12 5L10 5L10 6L9 6L9 7L10 7L10 6L11 6L11 7L12 7L12 5L14 5L14 6L15 6L15 7L16 7L16 4L13 4L13 3ZM20 9L20 10L22 10L22 9ZM15 10L15 11L16 11L16 10ZM19 11L19 13L20 13L20 12L21 12L21 11ZM12 12L12 14L11 14L11 16L12 16L12 17L10 17L10 18L12 18L12 17L13 17L13 16L14 16L14 15L13 15L13 16L12 16L12 14L15 14L15 15L16 15L16 16L15 16L15 18L13 18L13 20L14 20L14 19L15 19L15 18L16 18L16 16L17 16L17 14L16 14L16 13L15 13L15 12L14 12L14 13L13 13L13 12ZM24 12L24 14L25 14L25 12ZM6 13L6 14L7 14L7 13ZM9 13L9 15L8 15L8 16L9 16L9 15L10 15L10 13ZM18 14L18 15L19 15L19 14ZM20 14L20 16L21 16L21 17L22 17L22 18L23 18L23 19L21 19L21 21L22 21L22 22L21 22L21 23L23 23L23 19L24 19L24 18L23 18L23 17L22 17L22 16L23 16L23 15L22 15L22 16L21 16L21 14ZM17 17L17 20L20 20L20 17ZM18 18L18 19L19 19L19 18ZM10 19L10 21L9 21L9 22L12 22L12 21L11 21L11 20L12 20L12 19ZM16 21L16 23L17 23L17 22L18 22L18 21ZM12 24L12 25L13 25L13 24ZM18 24L18 25L19 25L19 24ZM0 0L0 7L7 7L7 0ZM1 1L1 6L6 6L6 1ZM2 2L2 5L5 5L5 2ZM18 0L18 7L25 7L25 0ZM19 1L19 6L24 6L24 1ZM20 2L20 5L23 5L23 2ZM0 18L0 25L7 25L7 18ZM1 19L1 24L6 24L6 19ZM2 20L2 23L5 23L5 20Z" fill="#282828"/></g></g></svg>
