<?xml version="1.0" encoding="UTF-8"?>
<svg xmlns="http://www.w3.org/2000/svg" version="1.1" width="90" height="90" viewBox="0 0 90 90"><rect x="0" y="0" width="90" height="90" fill="#ffffff"/><g transform="scale(2.903)"><g transform="translate(1,1)"><path fill-rule="evenodd" d="M8 0L8 1L9 1L9 2L8 2L8 5L9 5L9 4L11 4L11 5L10 5L10 10L8 10L8 9L9 9L9 8L8 8L8 9L7 9L7 8L6 8L6 9L7 9L7 10L5 10L5 9L4 9L4 8L0 8L0 12L2 12L2 13L3 13L3 12L2 12L2 11L3 11L3 10L2 10L2 11L1 11L1 9L4 9L4 13L5 13L5 15L3 15L3 17L2 17L2 15L1 15L1 17L2 17L2 19L3 19L3 20L1 20L1 21L3 21L3 20L4 20L4 21L8 21L8 22L9 22L9 21L8 21L8 20L9 20L9 19L11 19L11 20L10 20L10 21L11 21L11 20L12 20L12 19L11 19L11 17L10 17L10 16L12 16L12 17L13 17L13 16L12 16L12 14L13 14L13 15L14 15L14 17L15 17L15 16L17 16L17 17L19 17L19 15L20 15L20 18L21 18L21 17L22 17L22 19L21 19L21 20L20 20L20 19L19 19L19 18L18 18L18 19L17 19L17 18L13 18L13 21L15 21L15 22L14 22L14 23L11 23L11 22L10 22L10 23L11 23L11 24L9 24L9 25L8 25L8 29L12 29L12 28L14 28L14 27L15 27L15 26L14 26L14 25L13 25L13 26L12 26L12 24L16 24L16 23L17 23L17 22L18 22L18 23L19 23L19 21L20 21L20 26L19 26L19 27L18 27L18 28L17 28L17 29L19 29L19 27L20 27L20 29L21 29L21 27L20 27L20 26L21 26L21 25L23 25L23 27L22 27L22 29L25 29L25 28L26 28L26 29L28 29L28 27L29 27L29 23L28 23L28 24L26 24L26 23L27 23L27 22L26 22L26 21L28 21L28 22L29 22L29 20L28 20L28 17L26 17L26 18L27 18L27 19L24 19L24 17L25 17L25 16L26 16L26 13L27 13L27 15L29 15L29 14L28 14L28 13L29 13L29 12L28 12L28 9L29 9L29 8L28 8L28 9L27 9L27 8L24 8L24 9L22 9L22 8L21 8L21 9L19 9L19 8L20 8L20 7L21 7L21 6L20 6L20 4L19 4L19 5L18 5L18 3L16 3L16 2L17 2L17 1L18 1L18 2L19 2L19 3L20 3L20 2L19 2L19 1L21 1L21 0L16 0L16 2L15 2L15 0L14 0L14 2L13 2L13 0L12 0L12 1L11 1L11 0L10 0L10 1L9 1L9 0ZM11 2L11 4L12 4L12 3L13 3L13 2ZM14 2L14 3L15 3L15 5L14 5L14 4L13 4L13 5L12 5L12 6L11 6L11 8L12 8L12 6L13 6L13 11L11 11L11 13L10 13L10 14L9 14L9 12L8 12L8 10L7 10L7 11L6 11L6 12L5 12L5 13L6 13L6 14L7 14L7 15L5 15L5 18L4 18L4 17L3 17L3 18L4 18L4 19L6 19L6 20L8 20L8 19L9 19L9 18L10 18L10 17L9 17L9 15L10 15L10 14L11 14L11 13L12 13L12 12L13 12L13 11L16 11L16 12L18 12L18 11L17 11L17 10L18 10L18 9L17 9L17 10L14 10L14 9L15 9L15 8L17 8L17 7L18 7L18 8L19 8L19 7L20 7L20 6L19 6L19 7L18 7L18 5L16 5L16 3L15 3L15 2ZM13 5L13 6L14 6L14 7L15 7L15 6L14 6L14 5ZM8 6L8 7L9 7L9 6ZM16 6L16 7L17 7L17 6ZM11 9L11 10L12 10L12 9ZM19 10L19 13L18 13L18 14L16 14L16 13L15 13L15 12L14 12L14 13L13 13L13 14L14 14L14 15L17 15L17 16L18 16L18 15L19 15L19 13L20 13L20 14L21 14L21 15L22 15L22 17L23 17L23 16L25 16L25 15L22 15L22 13L23 13L23 14L25 14L25 13L26 13L26 12L27 12L27 13L28 13L28 12L27 12L27 11L25 11L25 12L22 12L22 13L20 13L20 12L21 12L21 11L20 11L20 10ZM22 10L22 11L24 11L24 10ZM6 12L6 13L7 13L7 14L8 14L8 15L9 15L9 14L8 14L8 12ZM6 16L6 17L7 17L7 16ZM8 17L8 18L9 18L9 17ZM0 18L0 19L1 19L1 18ZM6 18L6 19L7 19L7 18ZM15 19L15 21L17 21L17 20L16 20L16 19ZM22 19L22 20L24 20L24 19ZM18 20L18 21L19 21L19 20ZM21 21L21 24L24 24L24 21ZM15 22L15 23L16 23L16 22ZM22 22L22 23L23 23L23 22ZM17 24L17 25L16 25L16 26L18 26L18 25L19 25L19 24ZM25 24L25 26L24 26L24 28L25 28L25 26L26 26L26 28L27 28L27 27L28 27L28 25L27 25L27 26L26 26L26 24ZM9 25L9 26L11 26L11 28L12 28L12 26L11 26L11 25ZM13 26L13 27L14 27L14 26ZM9 27L9 28L10 28L10 27ZM15 28L15 29L16 29L16 28ZM0 0L0 7L7 7L7 0ZM1 1L1 6L6 6L6 1ZM2 2L2 5L5 5L5 2ZM22 0L22 7L29 7L29 0ZM23 1L23 6L28 6L28 1ZM24 2L24 5L27 5L27 2ZM0 22L0 29L7 29L7 22ZM1 23L1 28L6 28L6 23ZM2 24L2 27L5 27L5 24Z" fill="#282828"/></g></g></svg>
