<?xml version="1.0" encoding="UTF-8"?>
<svg xmlns="http://www.w3.org/2000/svg" version="1.1" width="90" height="90" viewBox="0 0 90 90"><rect x="0" y="0" width="90" height="90" fill="#ffffff"/><g transform="scale(2.571)"><g transform="translate(1,1)"><path fill-rule="evenodd" d="M8 0L8 1L10 1L10 0ZM15 0L15 1L14 1L14 2L11 2L11 4L10 4L10 3L9 3L9 2L8 2L8 5L9 5L9 6L8 6L8 7L9 7L9 8L8 8L8 9L9 9L9 10L10 10L10 9L9 9L9 8L10 8L10 7L11 7L11 8L12 8L12 7L13 7L13 9L15 9L15 10L14 10L14 11L11 11L11 13L10 13L10 12L9 12L9 11L8 11L8 10L5 10L5 9L4 9L4 8L0 8L0 9L1 9L1 10L0 10L0 12L1 12L1 13L0 13L0 15L1 15L1 16L0 16L0 20L2 20L2 21L3 21L3 22L5 22L5 21L7 21L7 22L6 22L6 23L5 23L5 24L4 24L4 23L1 23L1 24L0 24L0 25L1 25L1 24L2 24L2 25L3 25L3 24L4 24L4 25L7 25L7 24L6 24L6 23L7 23L7 22L8 22L8 23L9 23L9 24L10 24L10 25L11 25L11 28L9 28L9 29L8 29L8 33L9 33L9 32L10 32L10 33L11 33L11 32L12 32L12 31L11 31L11 28L12 28L12 29L13 29L13 28L12 28L12 26L13 26L13 27L14 27L14 30L13 30L13 33L15 33L15 31L17 31L17 32L16 32L16 33L19 33L19 32L18 32L18 31L19 31L19 29L22 29L22 30L20 30L20 31L22 31L22 30L23 30L23 33L24 33L24 32L25 32L25 33L27 33L27 32L29 32L29 31L30 31L30 30L31 30L31 29L32 29L32 30L33 30L33 27L32 27L32 24L30 24L30 22L32 22L32 23L33 23L33 21L32 21L32 20L33 20L33 19L32 19L32 18L30 18L30 17L32 17L32 16L33 16L33 15L29 15L29 14L28 14L28 9L29 9L29 12L30 12L30 9L31 9L31 8L28 8L28 9L26 9L26 8L25 8L25 9L23 9L23 11L24 11L24 14L25 14L25 15L26 15L26 14L25 14L25 12L27 12L27 14L28 14L28 15L27 15L27 16L25 16L25 17L24 17L24 16L23 16L23 15L22 15L22 13L23 13L23 12L22 12L22 13L21 13L21 12L20 12L20 13L19 13L19 10L20 10L20 11L22 11L22 10L21 10L21 9L19 9L19 8L20 8L20 7L21 7L21 6L20 6L20 4L19 4L19 5L18 5L18 3L16 3L16 1L18 1L18 2L19 2L19 3L20 3L20 2L19 2L19 1L21 1L21 2L22 2L22 3L23 3L23 2L25 2L25 0L23 0L23 1L21 1L21 0ZM12 3L12 5L10 5L10 6L9 6L9 7L10 7L10 6L11 6L11 7L12 7L12 5L13 5L13 7L14 7L14 5L15 5L15 9L16 9L16 8L17 8L17 7L18 7L18 8L19 8L19 7L20 7L20 6L19 6L19 7L18 7L18 5L17 5L17 4L16 4L16 3ZM24 3L24 4L23 4L23 5L22 5L22 7L23 7L23 8L24 8L24 7L25 7L25 6L24 6L24 7L23 7L23 5L25 5L25 3ZM13 4L13 5L14 5L14 4ZM16 6L16 7L17 7L17 6ZM6 8L6 9L7 9L7 8ZM32 8L32 10L31 10L31 11L33 11L33 8ZM2 9L2 13L1 13L1 15L3 15L3 17L5 17L5 19L6 19L6 20L7 20L7 21L8 21L8 17L9 17L9 16L10 16L10 19L9 19L9 22L10 22L10 23L11 23L11 25L12 25L12 24L13 24L13 26L14 26L14 27L17 27L17 31L18 31L18 28L19 28L19 27L17 27L17 26L18 26L18 25L21 25L21 26L20 26L20 27L23 27L23 25L24 25L24 24L27 24L27 23L20 23L20 21L21 21L21 22L23 22L23 20L24 20L24 22L26 22L26 21L27 21L27 22L30 22L30 20L31 20L31 19L30 19L30 20L29 20L29 18L28 18L28 16L29 16L29 15L28 15L28 16L27 16L27 17L26 17L26 19L25 19L25 20L24 20L24 18L20 18L20 15L19 15L19 13L18 13L18 14L17 14L17 13L16 13L16 12L18 12L18 11L17 11L17 10L18 10L18 9L17 9L17 10L16 10L16 12L12 12L12 14L10 14L10 13L9 13L9 12L8 12L8 11L6 11L6 12L8 12L8 13L6 13L6 14L2 14L2 13L3 13L3 11L4 11L4 12L5 12L5 10L4 10L4 9ZM25 9L25 10L26 10L26 11L27 11L27 10L26 10L26 9ZM31 12L31 13L30 13L30 14L31 14L31 13L32 13L32 14L33 14L33 12ZM13 13L13 14L12 14L12 16L11 16L11 15L10 15L10 14L8 14L8 16L6 16L6 15L7 15L7 14L6 14L6 15L5 15L5 16L6 16L6 17L8 17L8 16L9 16L9 15L10 15L10 16L11 16L11 17L12 17L12 18L11 18L11 19L12 19L12 20L11 20L11 21L12 21L12 22L11 22L11 23L14 23L14 22L16 22L16 24L14 24L14 26L16 26L16 25L17 25L17 22L18 22L18 23L19 23L19 24L20 24L20 23L19 23L19 21L20 21L20 19L19 19L19 18L18 18L18 19L15 19L15 21L14 21L14 20L13 20L13 18L14 18L14 17L12 17L12 16L14 16L14 15L15 15L15 16L16 16L16 15L15 15L15 14L14 14L14 13ZM20 13L20 14L21 14L21 13ZM13 14L13 15L14 15L14 14ZM18 15L18 16L17 16L17 17L19 17L19 15ZM1 17L1 18L2 18L2 20L3 20L3 21L4 21L4 19L3 19L3 18L2 18L2 17ZM6 18L6 19L7 19L7 18ZM22 19L22 20L21 20L21 21L22 21L22 20L23 20L23 19ZM27 19L27 20L28 20L28 19ZM18 20L18 21L19 21L19 20ZM0 21L0 22L1 22L1 21ZM16 21L16 22L17 22L17 21ZM28 23L28 24L29 24L29 25L30 25L30 24L29 24L29 23ZM22 24L22 25L23 25L23 24ZM8 25L8 26L9 26L9 27L10 27L10 26L9 26L9 25ZM25 25L25 28L28 28L28 25ZM26 26L26 27L27 27L27 26ZM31 27L31 28L32 28L32 27ZM15 28L15 29L16 29L16 28ZM22 28L22 29L23 29L23 30L24 30L24 31L25 31L25 32L26 32L26 31L25 31L25 30L27 30L27 31L29 31L29 29L25 29L25 30L24 30L24 29L23 29L23 28ZM9 29L9 31L10 31L10 32L11 32L11 31L10 31L10 29ZM32 31L32 32L33 32L33 31ZM30 32L30 33L31 33L31 32ZM0 0L0 7L7 7L7 0ZM1 1L1 6L6 6L6 1ZM2 2L2 5L5 5L5 2ZM26 0L26 7L33 7L33 0ZM27 1L27 6L32 6L32 1ZM28 2L28 5L31 5L31 2ZM0 26L0 33L7 33L7 26ZM1 27L1 32L6 32L6 27ZM2 28L2 31L5 31L5 28Z" fill="#282828"/></g></g></svg>
