<?xml version="1.0" encoding="UTF-8"?>
<svg xmlns="http://www.w3.org/2000/svg" version="1.1" width="90" height="90" viewBox="0 0 90 90"><rect x="0" y="0" width="90" height="90" fill="#ffffff"/><g transform="scale(2.903)"><g transform="translate(1,1)"><path fill-rule="evenodd" d="M10 0L10 2L11 2L11 0ZM12 0L12 1L13 1L13 0ZM14 0L14 1L15 1L15 2L16 2L16 4L15 4L15 3L13 3L13 2L12 2L12 4L15 4L15 6L14 6L14 8L13 8L13 9L12 9L12 7L13 7L13 5L11 5L11 6L10 6L10 4L11 4L11 3L8 3L8 4L9 4L9 5L8 5L8 7L9 7L9 8L6 8L6 9L10 9L10 11L11 11L11 9L12 9L12 10L13 10L13 9L14 9L14 12L13 12L13 11L12 11L12 13L14 13L14 14L15 14L15 15L14 15L14 16L15 16L15 17L16 17L16 14L17 14L17 13L18 13L18 14L20 14L20 15L19 15L19 18L14 18L14 17L12 17L12 15L13 15L13 14L11 14L11 15L10 15L10 13L11 13L11 12L9 12L9 10L8 10L8 12L6 12L6 11L7 11L7 10L5 10L5 8L0 8L0 21L1 21L1 17L2 17L2 16L1 16L1 15L2 15L2 13L4 13L4 14L3 14L3 16L4 16L4 14L6 14L6 15L8 15L8 16L5 16L5 17L3 17L3 18L2 18L2 19L4 19L4 18L5 18L5 19L7 19L7 20L6 20L6 21L8 21L8 23L9 23L9 21L8 21L8 19L9 19L9 20L11 20L11 19L9 19L9 17L10 17L10 18L11 18L11 17L12 17L12 18L13 18L13 19L12 19L12 21L13 21L13 20L14 20L14 21L16 21L16 22L15 22L15 23L14 23L14 24L15 24L15 25L12 25L12 23L13 23L13 22L11 22L11 21L10 21L10 24L11 24L11 25L10 25L10 27L9 27L9 24L8 24L8 29L11 29L11 28L10 28L10 27L11 27L11 25L12 25L12 26L13 26L13 27L12 27L12 29L13 29L13 28L14 28L14 29L15 29L15 28L14 28L14 27L16 27L16 28L17 28L17 29L18 29L18 28L17 28L17 27L16 27L16 26L17 26L17 25L18 25L18 27L20 27L20 28L19 28L19 29L20 29L20 28L22 28L22 29L23 29L23 28L24 28L24 27L25 27L25 28L26 28L26 27L25 27L25 23L26 23L26 21L27 21L27 20L26 20L26 19L25 19L25 20L24 20L24 18L27 18L27 19L28 19L28 18L29 18L29 17L28 17L28 16L26 16L26 15L25 15L25 14L27 14L27 12L26 12L26 10L28 10L28 8L27 8L27 9L26 9L26 8L25 8L25 9L24 9L24 8L23 8L23 11L21 11L21 10L20 10L20 9L18 9L18 10L15 10L15 9L14 9L14 8L15 8L15 6L16 6L16 8L17 8L17 6L16 6L16 5L17 5L17 4L18 4L18 8L19 8L19 4L20 4L20 5L21 5L21 4L20 4L20 3L21 3L21 1L20 1L20 0L16 0L16 1L15 1L15 0ZM8 1L8 2L9 2L9 1ZM18 1L18 2L17 2L17 3L18 3L18 2L19 2L19 3L20 3L20 1ZM9 6L9 7L10 7L10 6ZM11 6L11 7L12 7L12 6ZM20 6L20 7L21 7L21 6ZM10 8L10 9L11 9L11 8ZM21 8L21 9L22 9L22 8ZM1 9L1 10L2 10L2 9ZM18 10L18 11L16 11L16 13L17 13L17 12L18 12L18 13L22 13L22 14L23 14L23 13L24 13L24 12L20 12L20 10ZM3 11L3 12L4 12L4 13L6 13L6 14L7 14L7 13L6 13L6 12L4 12L4 11ZM18 11L18 12L19 12L19 11ZM28 11L28 13L29 13L29 11ZM1 12L1 13L2 13L2 12ZM14 12L14 13L15 13L15 12ZM25 12L25 13L26 13L26 12ZM9 15L9 16L8 16L8 17L6 17L6 18L8 18L8 17L9 17L9 16L10 16L10 17L11 17L11 16L10 16L10 15ZM21 15L21 16L20 16L20 17L21 17L21 16L22 16L22 17L23 17L23 15ZM17 16L17 17L18 17L18 16ZM25 16L25 17L26 17L26 16ZM27 17L27 18L28 18L28 17ZM19 18L19 19L20 19L20 20L21 20L21 19L20 19L20 18ZM22 18L22 20L23 20L23 18ZM14 19L14 20L15 20L15 19ZM17 19L17 20L16 20L16 21L17 21L17 20L18 20L18 21L19 21L19 22L18 22L18 23L17 23L17 22L16 22L16 23L17 23L17 24L16 24L16 25L15 25L15 26L16 26L16 25L17 25L17 24L18 24L18 25L20 25L20 24L18 24L18 23L19 23L19 22L20 22L20 21L19 21L19 20L18 20L18 19ZM2 20L2 21L4 21L4 20ZM25 20L25 21L26 21L26 20ZM21 21L21 24L24 24L24 21ZM28 21L28 22L27 22L27 24L26 24L26 25L27 25L27 28L28 28L28 26L29 26L29 24L28 24L28 22L29 22L29 21ZM22 22L22 23L23 23L23 22ZM21 25L21 26L22 26L22 27L23 27L23 26L24 26L24 25ZM0 0L0 7L7 7L7 0ZM1 1L1 6L6 6L6 1ZM2 2L2 5L5 5L5 2ZM22 0L22 7L29 7L29 0ZM23 1L23 6L28 6L28 1ZM24 2L24 5L27 5L27 2ZM0 22L0 29L7 29L7 22ZM1 23L1 28L6 28L6 23ZM2 24L2 27L5 27L5 24Z" fill="#282828"/></g></g></svg>
