<?xml version="1.0" encoding="UTF-8"?>
<svg xmlns="http://www.w3.org/2000/svg" version="1.1" width="100" height="100" viewBox="0 0 100 100"><rect x="0" y="0" width="100" height="100" fill="#ffffff"/><g transform="scale(3.704)"><g transform="translate(1,1)"><path fill-rule="evenodd" d="M8 0L8 1L10 1L10 0ZM16 0L16 2L11 2L11 4L10 4L10 3L9 3L9 2L8 2L8 5L9 5L9 6L8 6L8 7L9 7L9 8L8 8L8 9L7 9L7 8L6 8L6 9L5 9L5 10L6 10L6 11L7 11L7 12L5 12L5 13L3 13L3 12L4 12L4 11L0 11L0 12L2 12L2 13L1 13L1 15L0 15L0 16L1 16L1 15L2 15L2 17L4 17L4 16L5 16L5 17L7 17L7 16L5 16L5 15L9 15L9 14L8 14L8 13L10 13L10 16L11 16L11 17L10 17L10 18L12 18L12 19L11 19L11 20L10 20L10 21L8 21L8 25L10 25L10 24L11 24L11 25L12 25L12 24L14 24L14 25L15 25L15 22L14 22L14 23L13 23L13 22L12 22L12 21L13 21L13 20L12 20L12 19L14 19L14 21L15 21L15 20L16 20L16 21L17 21L17 23L16 23L16 24L17 24L17 25L18 25L18 24L19 24L19 25L20 25L20 23L21 23L21 24L23 24L23 25L25 25L25 24L23 24L23 23L24 23L24 22L25 22L25 20L24 20L24 19L25 19L25 17L23 17L23 16L25 16L25 15L23 15L23 14L22 14L22 12L24 12L24 14L25 14L25 12L24 12L24 11L23 11L23 10L25 10L25 8L24 8L24 9L23 9L23 8L20 8L20 9L18 9L18 8L16 8L16 9L18 9L18 11L17 11L17 10L16 10L16 12L14 12L14 11L15 11L15 10L14 10L14 9L15 9L15 6L14 6L14 5L12 5L12 4L16 4L16 7L17 7L17 0ZM10 5L10 6L9 6L9 7L10 7L10 8L9 8L9 9L8 9L8 10L7 10L7 9L6 9L6 10L7 10L7 11L9 11L9 12L10 12L10 13L11 13L11 16L12 16L12 17L13 17L13 16L14 16L14 17L15 17L15 18L14 18L14 19L15 19L15 18L16 18L16 17L15 17L15 16L17 16L17 14L18 14L18 15L19 15L19 16L23 16L23 15L22 15L22 14L21 14L21 15L20 15L20 14L19 14L19 13L21 13L21 12L19 12L19 13L17 13L17 12L16 12L16 13L15 13L15 16L14 16L14 14L13 14L13 12L12 12L12 11L11 11L11 9L12 9L12 8L13 8L13 9L14 9L14 6L13 6L13 7L12 7L12 5ZM10 6L10 7L11 7L11 8L12 8L12 7L11 7L11 6ZM0 8L0 9L1 9L1 10L3 10L3 9L4 9L4 8ZM9 9L9 10L10 10L10 9ZM20 9L20 10L22 10L22 9ZM13 10L13 11L14 11L14 10ZM7 12L7 13L6 13L6 14L7 14L7 13L8 13L8 12ZM2 13L2 14L3 14L3 15L5 15L5 14L3 14L3 13ZM16 13L16 14L17 14L17 13ZM12 14L12 16L13 16L13 14ZM8 17L8 18L9 18L9 17ZM17 17L17 20L20 20L20 17ZM21 17L21 18L22 18L22 17ZM18 18L18 19L19 19L19 18ZM23 18L23 19L21 19L21 21L20 21L20 22L21 22L21 23L23 23L23 19L24 19L24 18ZM11 20L11 21L10 21L10 22L9 22L9 24L10 24L10 23L11 23L11 21L12 21L12 20ZM21 21L21 22L22 22L22 21ZM18 22L18 23L17 23L17 24L18 24L18 23L19 23L19 22ZM0 0L0 7L7 7L7 0ZM1 1L1 6L6 6L6 1ZM2 2L2 5L5 5L5 2ZM18 0L18 7L25 7L25 0ZM19 1L19 6L24 6L24 1ZM20 2L20 5L23 5L23 2ZM0 18L0 25L7 25L7 18ZM1 19L1 24L6 24L6 19ZM2 20L2 23L5 23L5 20Z" fill="#282828"/></g></g></svg>
