<?xml version="1.0" encoding="UTF-8"?>
<svg xmlns="http://www.w3.org/2000/svg" version="1.1" width="90" height="90" viewBox="0 0 90 90"><rect x="0" y="0" width="90" height="90" fill="#ffffff"/><g transform="scale(3.333)"><g transform="translate(1,1)"><path fill-rule="evenodd" d="M9 0L9 1L8 1L8 2L9 2L9 3L8 3L8 4L10 4L10 7L11 7L11 8L6 8L6 9L9 9L9 12L8 12L8 10L6 10L6 11L7 11L7 12L5 12L5 13L8 13L8 14L13 14L13 13L15 13L15 12L16 12L16 14L15 14L15 15L14 15L14 16L13 16L13 15L12 15L12 17L10 17L10 16L11 16L11 15L8 15L8 19L9 19L9 17L10 17L10 23L11 23L11 24L9 24L9 20L8 20L8 25L12 25L12 23L11 23L11 22L12 22L12 21L11 21L11 18L12 18L12 20L13 20L13 21L17 21L17 22L19 22L19 23L18 23L18 24L21 24L21 25L22 25L22 24L21 24L21 23L22 23L22 21L23 21L23 22L24 22L24 24L23 24L23 25L25 25L25 21L24 21L24 20L25 20L25 18L24 18L24 17L25 17L25 14L24 14L24 13L25 13L25 12L24 12L24 13L23 13L23 14L24 14L24 15L23 15L23 16L22 16L22 17L21 17L21 15L22 15L22 14L20 14L20 13L22 13L22 12L20 12L20 8L19 8L19 11L18 11L18 10L14 10L14 9L16 9L16 7L17 7L17 6L16 6L16 5L17 5L17 4L16 4L16 3L17 3L17 2L16 2L16 1L17 1L17 0L16 0L16 1L15 1L15 0L14 0L14 1L11 1L11 2L10 2L10 0ZM14 1L14 2L12 2L12 3L15 3L15 1ZM10 3L10 4L11 4L11 7L12 7L12 4L11 4L11 3ZM13 4L13 8L11 8L11 9L10 9L10 11L11 11L11 12L10 12L10 13L13 13L13 12L14 12L14 10L11 10L11 9L13 9L13 8L14 8L14 6L15 6L15 7L16 7L16 6L15 6L15 4ZM8 5L8 7L9 7L9 5ZM0 8L0 9L1 9L1 10L0 10L0 11L1 11L1 12L2 12L2 13L0 13L0 17L1 17L1 14L2 14L2 13L3 13L3 12L2 12L2 11L5 11L5 8ZM17 8L17 9L18 9L18 8ZM21 8L21 9L22 9L22 11L25 11L25 9L24 9L24 8L23 8L23 9L22 9L22 8ZM2 9L2 10L1 10L1 11L2 11L2 10L4 10L4 9ZM16 11L16 12L18 12L18 11ZM17 13L17 14L16 14L16 15L19 15L19 13ZM3 14L3 15L2 15L2 16L4 16L4 17L5 17L5 15L7 15L7 14L5 14L5 15L4 15L4 14ZM6 16L6 17L7 17L7 16ZM15 16L15 17L14 17L14 18L15 18L15 19L13 19L13 20L16 20L16 18L15 18L15 17L16 17L16 16ZM12 17L12 18L13 18L13 17ZM17 17L17 20L20 20L20 17ZM22 17L22 18L23 18L23 19L22 19L22 20L24 20L24 18L23 18L23 17ZM18 18L18 19L19 19L19 18ZM19 21L19 22L20 22L20 23L21 23L21 22L20 22L20 21ZM14 22L14 25L15 25L15 24L17 24L17 23L16 23L16 22ZM0 0L0 7L7 7L7 0ZM1 1L1 6L6 6L6 1ZM2 2L2 5L5 5L5 2ZM18 0L18 7L25 7L25 0ZM19 1L19 6L24 6L24 1ZM20 2L20 5L23 5L23 2ZM0 18L0 25L7 25L7 18ZM1 19L1 24L6 24L6 19ZM2 20L2 23L5 23L5 20Z" fill="#282828"/></g></g></svg>
