<?xml version="1.0" encoding="UTF-8"?>
<svg xmlns="http://www.w3.org/2000/svg" version="1.1" width="90" height="90" viewBox="0 0 90 90"><rect x="0" y="0" width="90" height="90" fill="#ffffff"/><g transform="scale(3.333)"><g transform="translate(1,1)"><path fill-rule="evenodd" d="M9 0L9 1L8 1L8 2L9 2L9 3L8 3L8 4L10 4L10 7L11 7L11 8L6 8L6 9L5 9L5 8L0 8L0 9L1 9L1 10L0 10L0 12L1 12L1 10L3 10L3 11L4 11L4 9L5 9L5 13L3 13L3 12L2 12L2 13L0 13L0 17L1 17L1 14L2 14L2 17L4 17L4 16L5 16L5 17L7 17L7 16L9 16L9 17L8 17L8 19L9 19L9 18L10 18L10 20L11 20L11 18L12 18L12 20L13 20L13 22L15 22L15 21L17 21L17 22L19 22L19 23L20 23L20 22L21 22L21 23L22 23L22 21L23 21L23 22L24 22L24 24L23 24L23 25L25 25L25 21L24 21L24 20L25 20L25 18L24 18L24 17L25 17L25 14L24 14L24 13L25 13L25 12L24 12L24 13L23 13L23 14L24 14L24 15L23 15L23 16L22 16L22 17L21 17L21 16L19 16L19 14L20 14L20 15L22 15L22 14L20 14L20 13L22 13L22 12L20 12L20 13L19 13L19 11L20 11L20 8L19 8L19 11L18 11L18 10L17 10L17 9L18 9L18 8L17 8L17 0L16 0L16 1L14 1L14 0L13 0L13 1L11 1L11 2L10 2L10 0ZM13 1L13 2L12 2L12 3L15 3L15 2L14 2L14 1ZM10 3L10 4L11 4L11 7L12 7L12 4L11 4L11 3ZM14 4L14 5L13 5L13 8L11 8L11 9L10 9L10 11L11 11L11 12L10 12L10 13L13 13L13 14L11 14L11 15L10 15L10 14L9 14L9 13L8 13L8 12L9 12L9 11L6 11L6 12L7 12L7 13L6 13L6 14L5 14L5 15L6 15L6 16L7 16L7 15L10 15L10 18L11 18L11 17L12 17L12 18L13 18L13 20L15 20L15 19L16 19L16 18L15 18L15 17L14 17L14 18L13 18L13 17L12 17L12 15L13 15L13 16L14 16L14 15L15 15L15 13L13 13L13 12L16 12L16 13L17 13L17 14L16 14L16 16L17 16L17 15L18 15L18 14L19 14L19 13L17 13L17 11L15 11L15 10L16 10L16 9L17 9L17 8L16 8L16 6L15 6L15 5L16 5L16 4ZM8 5L8 7L9 7L9 5ZM14 6L14 8L13 8L13 9L11 9L11 10L13 10L13 11L14 11L14 10L13 10L13 9L15 9L15 6ZM21 8L21 9L22 9L22 11L25 11L25 9L24 9L24 8L23 8L23 9L22 9L22 8ZM6 9L6 10L7 10L7 9ZM2 13L2 14L3 14L3 13ZM7 13L7 14L6 14L6 15L7 15L7 14L8 14L8 13ZM3 15L3 16L4 16L4 15ZM17 17L17 20L20 20L20 17ZM22 17L22 18L23 18L23 19L22 19L22 20L24 20L24 18L23 18L23 17ZM14 18L14 19L15 19L15 18ZM18 18L18 19L19 19L19 18ZM8 20L8 25L12 25L12 23L11 23L11 22L12 22L12 21L11 21L11 22L10 22L10 21L9 21L9 20ZM9 22L9 23L10 23L10 22ZM14 23L14 25L15 25L15 24L18 24L18 23ZM19 24L19 25L20 25L20 24ZM21 24L21 25L22 25L22 24ZM0 0L0 7L7 7L7 0ZM1 1L1 6L6 6L6 1ZM2 2L2 5L5 5L5 2ZM18 0L18 7L25 7L25 0ZM19 1L19 6L24 6L24 1ZM20 2L20 5L23 5L23 2ZM0 18L0 25L7 25L7 18ZM1 19L1 24L6 24L6 19ZM2 20L2 23L5 23L5 20Z" fill="#282828"/></g></g></svg>
