<?xml version="1.0" encoding="UTF-8"?>
<svg xmlns="http://www.w3.org/2000/svg" version="1.1" width="90" height="90" viewBox="0 0 90 90"><rect x="0" y="0" width="90" height="90" fill="#ffffff"/><g transform="scale(3.333)"><g transform="translate(1,1)"><path fill-rule="evenodd" d="M10 0L10 2L11 2L11 0ZM12 0L12 1L13 1L13 0ZM14 0L14 2L15 2L15 3L13 3L13 2L12 2L12 4L13 4L13 5L11 5L11 6L10 6L10 4L11 4L11 3L8 3L8 4L9 4L9 5L8 5L8 7L9 7L9 8L6 8L6 9L5 9L5 8L0 8L0 9L1 9L1 10L2 10L2 11L4 11L4 14L3 14L3 13L0 13L0 17L1 17L1 14L2 14L2 17L3 17L3 15L4 15L4 14L5 14L5 16L4 16L4 17L5 17L5 16L6 16L6 17L8 17L8 19L9 19L9 18L10 18L10 20L8 20L8 25L9 25L9 23L11 23L11 22L12 22L12 24L13 24L13 25L16 25L16 24L17 24L17 25L20 25L20 24L19 24L19 23L20 23L20 22L21 22L21 23L22 23L22 21L23 21L23 22L24 22L24 24L23 24L23 25L25 25L25 21L23 21L23 20L24 20L24 19L25 19L25 18L24 18L24 17L25 17L25 14L24 14L24 13L25 13L25 12L24 12L24 11L25 11L25 9L24 9L24 8L23 8L23 9L22 9L22 8L21 8L21 9L22 9L22 11L23 11L23 12L24 12L24 13L23 13L23 14L24 14L24 15L23 15L23 16L22 16L22 17L21 17L21 16L18 16L18 15L22 15L22 14L20 14L20 13L22 13L22 12L21 12L21 11L20 11L20 13L19 13L19 10L20 10L20 8L19 8L19 10L18 10L18 11L17 11L17 9L18 9L18 8L17 8L17 9L16 9L16 7L17 7L17 2L16 2L16 1L17 1L17 0L16 0L16 1L15 1L15 0ZM8 1L8 2L9 2L9 1ZM14 4L14 5L13 5L13 7L12 7L12 6L11 6L11 7L12 7L12 8L14 8L14 6L15 6L15 7L16 7L16 6L15 6L15 5L16 5L16 4ZM9 6L9 7L10 7L10 6ZM10 8L10 9L8 9L8 10L7 10L7 9L6 9L6 10L4 10L4 9L3 9L3 10L4 10L4 11L6 11L6 12L5 12L5 13L6 13L6 14L7 14L7 15L6 15L6 16L7 16L7 15L8 15L8 16L10 16L10 18L11 18L11 20L10 20L10 21L9 21L9 22L10 22L10 21L12 21L12 22L13 22L13 21L14 21L14 19L15 19L15 20L16 20L16 19L15 19L15 17L16 17L16 16L15 16L15 17L13 17L13 16L14 16L14 15L15 15L15 14L16 14L16 15L17 15L17 14L16 14L16 13L17 13L17 12L16 12L16 13L14 13L14 14L11 14L11 13L13 13L13 12L15 12L15 11L14 11L14 9L13 9L13 10L12 10L12 9L11 9L11 8ZM10 9L10 11L11 11L11 12L9 12L9 11L8 11L8 12L9 12L9 13L7 13L7 12L6 12L6 13L7 13L7 14L10 14L10 13L11 13L11 12L13 12L13 11L11 11L11 9ZM15 9L15 10L16 10L16 9ZM6 10L6 11L7 11L7 10ZM18 13L18 14L19 14L19 13ZM11 17L11 18L13 18L13 17ZM17 17L17 20L20 20L20 17ZM22 17L22 18L23 18L23 19L22 19L22 20L23 20L23 19L24 19L24 18L23 18L23 17ZM18 18L18 19L19 19L19 18ZM12 19L12 21L13 21L13 19ZM16 21L16 23L17 23L17 24L18 24L18 23L19 23L19 22L20 22L20 21L19 21L19 22L17 22L17 21ZM13 23L13 24L14 24L14 23ZM10 24L10 25L11 25L11 24ZM0 0L0 7L7 7L7 0ZM1 1L1 6L6 6L6 1ZM2 2L2 5L5 5L5 2ZM18 0L18 7L25 7L25 0ZM19 1L19 6L24 6L24 1ZM20 2L20 5L23 5L23 2ZM0 18L0 25L7 25L7 18ZM1 19L1 24L6 24L6 19ZM2 20L2 23L5 23L5 20Z" fill="#282828"/></g></g></svg>
