<?xml version="1.0" encoding="UTF-8"?>
<svg xmlns="http://www.w3.org/2000/svg" version="1.1" width="90" height="90" viewBox="0 0 90 90"><rect x="0" y="0" width="90" height="90" fill="#ffffff"/><g transform="scale(3.333)"><g transform="translate(1,1)"><path fill-rule="evenodd" d="M9 0L9 1L10 1L10 2L9 2L9 3L8 3L8 5L9 5L9 6L8 6L8 7L9 7L9 9L10 9L10 10L9 10L9 11L10 11L10 12L5 12L5 14L4 14L4 10L6 10L6 11L8 11L8 10L6 10L6 9L8 9L8 8L5 8L5 9L4 9L4 10L3 10L3 9L2 9L2 8L0 8L0 9L1 9L1 10L3 10L3 14L2 14L2 15L5 15L5 14L6 14L6 15L7 15L7 16L6 16L6 17L7 17L7 16L8 16L8 14L9 14L9 15L10 15L10 14L12 14L12 12L13 12L13 10L14 10L14 11L15 11L15 12L16 12L16 13L13 13L13 14L15 14L15 15L16 15L16 14L18 14L18 13L19 13L19 15L17 15L17 16L13 16L13 18L14 18L14 17L16 17L16 19L14 19L14 20L13 20L13 19L12 19L12 18L11 18L11 17L12 17L12 15L11 15L11 16L10 16L10 18L9 18L9 17L8 17L8 20L9 20L9 19L10 19L10 21L9 21L9 23L8 23L8 25L9 25L9 23L11 23L11 25L13 25L13 24L12 24L12 23L11 23L11 22L12 22L12 21L13 21L13 23L15 23L15 21L18 21L18 22L19 22L19 23L18 23L18 24L16 24L16 25L19 25L19 24L20 24L20 25L23 25L23 24L22 24L22 22L24 22L24 25L25 25L25 21L24 21L24 20L21 20L21 19L22 19L22 18L21 18L21 16L22 16L22 17L23 17L23 19L25 19L25 18L24 18L24 17L25 17L25 14L24 14L24 13L25 13L25 9L23 9L23 10L22 10L22 8L20 8L20 9L19 9L19 11L18 11L18 10L16 10L16 9L15 9L15 8L17 8L17 6L16 6L16 7L15 7L15 6L14 6L14 7L15 7L15 8L14 8L14 9L13 9L13 6L12 6L12 9L11 9L11 8L10 8L10 7L11 7L11 5L13 5L13 4L15 4L15 0L12 0L12 1L14 1L14 3L13 3L13 4L11 4L11 3L10 3L10 2L11 2L11 1L10 1L10 0ZM16 1L16 5L17 5L17 1ZM9 3L9 5L11 5L11 4L10 4L10 3ZM9 6L9 7L10 7L10 6ZM12 9L12 10L10 10L10 11L11 11L11 12L12 12L12 10L13 10L13 9ZM20 10L20 11L19 11L19 12L20 12L20 16L21 16L21 12L20 12L20 11L22 11L22 12L23 12L23 13L22 13L22 15L24 15L24 14L23 14L23 13L24 13L24 11L22 11L22 10ZM1 11L1 13L0 13L0 17L1 17L1 13L2 13L2 11ZM17 11L17 13L18 13L18 11ZM6 13L6 14L8 14L8 13ZM9 13L9 14L10 14L10 13ZM3 16L3 17L5 17L5 16ZM17 17L17 20L20 20L20 17ZM18 18L18 19L19 19L19 18ZM11 19L11 21L12 21L12 19ZM19 21L19 22L20 22L20 24L21 24L21 22L22 22L22 21ZM16 22L16 23L17 23L17 22ZM0 0L0 7L7 7L7 0ZM1 1L1 6L6 6L6 1ZM2 2L2 5L5 5L5 2ZM18 0L18 7L25 7L25 0ZM19 1L19 6L24 6L24 1ZM20 2L20 5L23 5L23 2ZM0 18L0 25L7 25L7 18ZM1 19L1 24L6 24L6 19ZM2 20L2 23L5 23L5 20Z" fill="#282828"/></g></g></svg>
