<?xml version="1.0" encoding="UTF-8"?>
<svg xmlns="http://www.w3.org/2000/svg" version="1.1" width="90" height="90" viewBox="0 0 90 90"><rect x="0" y="0" width="90" height="90" fill="#ffffff"/><g transform="scale(3.333)"><g transform="translate(1,1)"><path fill-rule="evenodd" d="M8 0L8 1L10 1L10 3L9 3L9 2L8 2L8 5L9 5L9 6L8 6L8 7L9 7L9 8L8 8L8 9L7 9L7 8L6 8L6 9L7 9L7 10L5 10L5 12L4 12L4 13L2 13L2 12L0 12L0 13L2 13L2 14L1 14L1 15L0 15L0 16L1 16L1 15L2 15L2 17L5 17L5 14L6 14L6 15L9 15L9 17L8 17L8 18L9 18L9 19L10 19L10 20L9 20L9 21L8 21L8 25L11 25L11 24L12 24L12 25L16 25L16 24L14 24L14 21L15 21L15 22L16 22L16 21L17 21L17 23L19 23L19 24L17 24L17 25L22 25L22 24L23 24L23 25L25 25L25 24L23 24L23 23L24 23L24 22L25 22L25 17L23 17L23 16L25 16L25 15L23 15L23 14L22 14L22 12L23 12L23 13L24 13L24 14L25 14L25 12L23 12L23 10L25 10L25 8L24 8L24 9L23 9L23 8L20 8L20 9L19 9L19 10L18 10L18 12L17 12L17 13L15 13L15 12L14 12L14 9L16 9L16 11L17 11L17 9L18 9L18 8L15 8L15 6L14 6L14 5L17 5L17 4L14 4L14 3L15 3L15 0ZM16 0L16 1L17 1L17 0ZM13 1L13 2L14 2L14 1ZM11 2L11 3L10 3L10 6L9 6L9 7L10 7L10 8L9 8L9 9L10 9L10 10L8 10L8 11L9 11L9 12L10 12L10 13L11 13L11 15L10 15L10 14L9 14L9 15L10 15L10 16L11 16L11 19L13 19L13 20L10 20L10 21L9 21L9 22L10 22L10 23L9 23L9 24L10 24L10 23L11 23L11 21L12 21L12 22L13 22L13 21L14 21L14 20L15 20L15 21L16 21L16 20L15 20L15 19L13 19L13 18L16 18L16 16L15 16L15 15L17 15L17 14L15 14L15 15L12 15L12 13L13 13L13 14L14 14L14 13L13 13L13 8L14 8L14 6L13 6L13 7L12 7L12 5L14 5L14 4L13 4L13 3L12 3L12 2ZM10 6L10 7L11 7L11 8L12 8L12 7L11 7L11 6ZM16 6L16 7L17 7L17 6ZM0 8L0 10L1 10L1 9L2 9L2 10L3 10L3 11L4 11L4 8ZM11 9L11 11L12 11L12 9ZM20 9L20 11L19 11L19 13L20 13L20 11L21 11L21 10L22 10L22 9ZM6 11L6 12L7 12L7 13L6 13L6 14L8 14L8 12L7 12L7 11ZM4 13L4 14L5 14L5 13ZM18 14L18 16L20 16L20 15L21 15L21 16L23 16L23 15L22 15L22 14ZM3 15L3 16L4 16L4 15ZM11 15L11 16L12 16L12 18L13 18L13 17L14 17L14 16L12 16L12 15ZM6 16L6 17L7 17L7 16ZM17 17L17 20L20 20L20 17ZM21 17L21 18L22 18L22 17ZM18 18L18 19L19 19L19 18ZM23 18L23 19L21 19L21 21L22 21L22 22L21 22L21 23L20 23L20 24L21 24L21 23L23 23L23 19L24 19L24 18ZM0 0L0 7L7 7L7 0ZM1 1L1 6L6 6L6 1ZM2 2L2 5L5 5L5 2ZM18 0L18 7L25 7L25 0ZM19 1L19 6L24 6L24 1ZM20 2L20 5L23 5L23 2ZM0 18L0 25L7 25L7 18ZM1 19L1 24L6 24L6 19ZM2 20L2 23L5 23L5 20Z" fill="#282828"/></g></g></svg>
