<?xml version="1.0" encoding="UTF-8"?>
<svg xmlns="http://www.w3.org/2000/svg" version="1.1" width="90" height="90" viewBox="0 0 90 90"><rect x="0" y="0" width="90" height="90" fill="#ffffff"/><g transform="scale(3.333)"><g transform="translate(1,1)"><path fill-rule="evenodd" d="M8 0L8 4L9 4L9 5L8 5L8 7L9 7L9 6L10 6L10 9L11 9L11 8L12 8L12 9L13 9L13 10L15 10L15 11L14 11L14 13L12 13L12 12L13 12L13 11L12 11L12 12L11 12L11 13L10 13L10 14L9 14L9 12L10 12L10 11L11 11L11 10L8 10L8 9L7 9L7 8L4 8L4 9L7 9L7 10L5 10L5 11L7 11L7 12L6 12L6 13L5 13L5 12L3 12L3 13L1 13L1 12L2 12L2 11L4 11L4 10L3 10L3 9L2 9L2 8L0 8L0 10L1 10L1 11L0 11L0 14L3 14L3 13L5 13L5 14L4 14L4 15L5 15L5 17L7 17L7 16L6 16L6 15L7 15L7 14L6 14L6 13L8 13L8 14L9 14L9 16L8 16L8 18L9 18L9 19L8 19L8 21L9 21L9 23L8 23L8 25L9 25L9 23L10 23L10 25L11 25L11 24L12 24L12 25L14 25L14 23L15 23L15 25L16 25L16 24L18 24L18 25L19 25L19 24L20 24L20 22L21 22L21 23L22 23L22 24L23 24L23 25L25 25L25 24L24 24L24 22L25 22L25 19L24 19L24 17L25 17L25 16L23 16L23 15L24 15L24 13L25 13L25 12L23 12L23 11L22 11L22 12L23 12L23 13L21 13L21 11L20 11L20 10L25 10L25 8L21 8L21 9L20 9L20 8L19 8L19 9L18 9L18 10L19 10L19 11L18 11L18 12L17 12L17 13L16 13L16 11L17 11L17 9L16 9L16 7L17 7L17 6L16 6L16 7L15 7L15 5L14 5L14 4L16 4L16 5L17 5L17 0L16 0L16 2L14 2L14 3L13 3L13 1L11 1L11 2L12 2L12 5L13 5L13 6L12 6L12 7L11 7L11 3L10 3L10 2L9 2L9 0ZM13 6L13 7L12 7L12 8L13 8L13 9L15 9L15 10L16 10L16 9L15 9L15 7L14 7L14 6ZM1 9L1 10L2 10L2 9ZM19 9L19 10L20 10L20 9ZM8 11L8 12L9 12L9 11ZM19 11L19 12L20 12L20 11ZM11 13L11 14L12 14L12 13ZM14 13L14 14L13 14L13 15L12 15L12 16L10 16L10 17L9 17L9 18L11 18L11 20L10 20L10 19L9 19L9 21L11 21L11 22L10 22L10 23L11 23L11 22L12 22L12 21L13 21L13 22L14 22L14 21L13 21L13 20L14 20L14 18L16 18L16 16L21 16L21 17L22 17L22 16L21 16L21 15L22 15L22 14L20 14L20 13L19 13L19 14L18 14L18 13L17 13L17 14L16 14L16 13ZM14 14L14 17L13 17L13 16L12 16L12 17L13 17L13 18L14 18L14 17L15 17L15 16L16 16L16 14ZM17 14L17 15L18 15L18 14ZM19 14L19 15L20 15L20 14ZM2 15L2 16L0 16L0 17L4 17L4 16L3 16L3 15ZM17 17L17 20L20 20L20 17ZM18 18L18 19L19 19L19 18ZM22 18L22 19L23 19L23 18ZM12 19L12 20L11 20L11 21L12 21L12 20L13 20L13 19ZM15 19L15 22L16 22L16 19ZM21 20L21 22L23 22L23 21L22 21L22 20ZM17 21L17 22L18 22L18 21ZM12 23L12 24L13 24L13 23ZM18 23L18 24L19 24L19 23ZM0 0L0 7L7 7L7 0ZM1 1L1 6L6 6L6 1ZM2 2L2 5L5 5L5 2ZM18 0L18 7L25 7L25 0ZM19 1L19 6L24 6L24 1ZM20 2L20 5L23 5L23 2ZM0 18L0 25L7 25L7 18ZM1 19L1 24L6 24L6 19ZM2 20L2 23L5 23L5 20Z" fill="#282828"/></g></g></svg>
