<?xml version="1.0" encoding="UTF-8"?>
<svg xmlns="http://www.w3.org/2000/svg" version="1.1" width="90" height="90" viewBox="0 0 90 90"><rect x="0" y="0" width="90" height="90" fill="#ffffff"/><g transform="scale(3.333)"><g transform="translate(1,1)"><path fill-rule="evenodd" d="M8 0L8 4L9 4L9 5L8 5L8 7L9 7L9 6L10 6L10 9L11 9L11 8L12 8L12 9L13 9L13 10L15 10L15 11L14 11L14 13L12 13L12 12L13 12L13 11L12 11L12 12L11 12L11 13L10 13L10 14L11 14L11 16L9 16L9 15L8 15L8 14L9 14L9 12L10 12L10 11L11 11L11 10L9 10L9 9L7 9L7 8L4 8L4 9L2 9L2 8L0 8L0 10L2 10L2 13L0 13L0 14L2 14L2 15L4 15L4 16L3 16L3 17L5 17L5 15L7 15L7 16L6 16L6 17L7 17L7 16L9 16L9 17L8 17L8 18L11 18L11 16L12 16L12 17L13 17L13 18L14 18L14 20L13 20L13 19L12 19L12 20L10 20L10 21L9 21L9 19L8 19L8 21L9 21L9 23L8 23L8 25L10 25L10 24L12 24L12 25L14 25L14 23L15 23L15 25L16 25L16 24L18 24L18 25L21 25L21 23L22 23L22 24L23 24L23 25L25 25L25 24L24 24L24 22L25 22L25 19L24 19L24 17L25 17L25 16L23 16L23 15L24 15L24 13L25 13L25 12L23 12L23 11L22 11L22 12L23 12L23 13L21 13L21 11L19 11L19 9L20 9L20 10L25 10L25 8L21 8L21 9L20 9L20 8L19 8L19 9L18 9L18 11L16 11L16 10L17 10L17 9L16 9L16 10L15 10L15 9L13 9L13 8L12 8L12 7L13 7L13 6L14 6L14 7L15 7L15 5L14 5L14 4L16 4L16 7L17 7L17 0L16 0L16 2L14 2L14 3L13 3L13 1L11 1L11 2L12 2L12 5L13 5L13 6L12 6L12 7L11 7L11 3L10 3L10 2L9 2L9 0ZM4 9L4 10L7 10L7 9ZM0 11L0 12L1 12L1 11ZM3 11L3 13L4 13L4 14L5 14L5 13L4 13L4 12L5 12L5 11ZM6 11L6 12L7 12L7 13L6 13L6 14L7 14L7 13L8 13L8 12L9 12L9 11L8 11L8 12L7 12L7 11ZM18 11L18 12L19 12L19 11ZM16 12L16 13L14 13L14 14L13 14L13 15L12 15L12 16L13 16L13 17L14 17L14 18L16 18L16 16L15 16L15 17L14 17L14 14L16 14L16 15L17 15L17 16L19 16L19 14L20 14L20 16L21 16L21 17L22 17L22 16L21 16L21 15L22 15L22 14L20 14L20 13L19 13L19 14L18 14L18 13L17 13L17 12ZM11 13L11 14L12 14L12 13ZM16 13L16 14L17 14L17 15L18 15L18 14L17 14L17 13ZM0 16L0 17L2 17L2 16ZM17 17L17 20L20 20L20 17ZM18 18L18 19L19 19L19 18ZM22 18L22 19L23 19L23 18ZM15 19L15 21L16 21L16 22L15 22L15 23L17 23L17 22L18 22L18 21L16 21L16 19ZM12 20L12 21L11 21L11 22L10 22L10 23L9 23L9 24L10 24L10 23L11 23L11 22L12 22L12 21L13 21L13 22L14 22L14 21L13 21L13 20ZM21 20L21 22L20 22L20 23L18 23L18 24L20 24L20 23L21 23L21 22L23 22L23 21L22 21L22 20ZM12 23L12 24L13 24L13 23ZM0 0L0 7L7 7L7 0ZM1 1L1 6L6 6L6 1ZM2 2L2 5L5 5L5 2ZM18 0L18 7L25 7L25 0ZM19 1L19 6L24 6L24 1ZM20 2L20 5L23 5L23 2ZM0 18L0 25L7 25L7 18ZM1 19L1 24L6 24L6 19ZM2 20L2 23L5 23L5 20Z" fill="#282828"/></g></g></svg>
