<?xml version="1.0" encoding="UTF-8"?>
<svg xmlns="http://www.w3.org/2000/svg" version="1.1" width="90" height="90" viewBox="0 0 90 90"><rect x="0" y="0" width="90" height="90" fill="#ffffff"/><g transform="scale(2.903)"><g transform="translate(1,1)"><path fill-rule="evenodd" d="M8 0L8 1L9 1L9 2L8 2L8 5L9 5L9 4L11 4L11 5L10 5L10 10L9 10L9 8L8 8L8 9L7 9L7 8L6 8L6 9L7 9L7 10L5 10L5 9L4 9L4 8L0 8L0 10L1 10L1 9L2 9L2 11L1 11L1 12L0 12L0 15L1 15L1 14L2 14L2 13L1 13L1 12L2 12L2 11L4 11L4 10L5 10L5 12L4 12L4 13L3 13L3 14L4 14L4 15L5 15L5 16L3 16L3 18L2 18L2 16L1 16L1 18L0 18L0 19L1 19L1 18L2 18L2 20L1 20L1 21L2 21L2 20L3 20L3 21L4 21L4 19L3 19L3 18L4 18L4 17L5 17L5 16L6 16L6 17L7 17L7 18L5 18L5 19L7 19L7 20L5 20L5 21L8 21L8 22L10 22L10 23L9 23L9 24L10 24L10 25L8 25L8 29L9 29L9 26L10 26L10 27L11 27L11 26L12 26L12 28L11 28L11 29L12 29L12 28L14 28L14 27L15 27L15 28L16 28L16 27L15 27L15 26L16 26L16 24L17 24L17 23L18 23L18 24L19 24L19 23L20 23L20 25L23 25L23 26L24 26L24 27L23 27L23 29L24 29L24 27L25 27L25 28L26 28L26 29L28 29L28 27L29 27L29 24L25 24L25 23L26 23L26 22L25 22L25 20L27 20L27 21L28 21L28 22L29 22L29 20L28 20L28 16L29 16L29 14L28 14L28 13L29 13L29 12L28 12L28 9L29 9L29 8L28 8L28 9L27 9L27 8L24 8L24 9L22 9L22 8L21 8L21 9L20 9L20 8L18 8L18 7L19 7L19 6L20 6L20 7L21 7L21 5L20 5L20 3L21 3L21 2L20 2L20 3L17 3L17 1L18 1L18 2L19 2L19 1L21 1L21 0L15 0L15 1L16 1L16 3L17 3L17 4L16 4L16 5L18 5L18 4L19 4L19 6L18 6L18 7L17 7L17 6L16 6L16 7L15 7L15 5L14 5L14 4L15 4L15 3L14 3L14 0L12 0L12 1L11 1L11 0L10 0L10 1L9 1L9 0ZM11 2L11 4L12 4L12 3L13 3L13 4L14 4L14 3L13 3L13 2ZM12 5L12 6L11 6L11 8L12 8L12 6L13 6L13 11L11 11L11 13L8 13L8 12L9 12L9 11L8 11L8 10L7 10L7 11L6 11L6 12L5 12L5 15L6 15L6 16L7 16L7 17L9 17L9 18L8 18L8 19L9 19L9 18L10 18L10 19L12 19L12 20L8 20L8 21L11 21L11 23L10 23L10 24L11 24L11 23L13 23L13 22L14 22L14 24L12 24L12 26L13 26L13 27L14 27L14 26L13 26L13 25L15 25L15 24L16 24L16 23L17 23L17 22L20 22L20 21L18 21L18 20L17 20L17 22L14 22L14 21L15 21L15 20L16 20L16 19L14 19L14 18L13 18L13 17L12 17L12 16L14 16L14 15L16 15L16 16L15 16L15 18L17 18L17 16L18 16L18 15L19 15L19 13L20 13L20 16L19 16L19 17L18 17L18 19L19 19L19 20L20 20L20 17L21 17L21 19L22 19L22 20L23 20L23 17L24 17L24 18L25 18L25 19L27 19L27 15L25 15L25 14L26 14L26 13L25 13L25 12L27 12L27 13L28 13L28 12L27 12L27 11L26 11L26 10L27 10L27 9L26 9L26 10L24 10L24 11L23 11L23 10L19 10L19 12L18 12L18 11L17 11L17 13L18 13L18 15L17 15L17 14L16 14L16 13L15 13L15 14L14 14L14 13L13 13L13 14L12 14L12 16L11 16L11 15L9 15L9 16L7 16L7 15L6 15L6 14L11 14L11 13L12 13L12 12L13 12L13 11L14 11L14 12L15 12L15 11L16 11L16 10L15 10L15 11L14 11L14 8L15 8L15 9L18 9L18 8L17 8L17 7L16 7L16 8L15 8L15 7L14 7L14 5ZM8 6L8 7L9 7L9 6ZM3 9L3 10L4 10L4 9ZM11 9L11 10L12 10L12 9ZM7 11L7 12L6 12L6 13L7 13L7 12L8 12L8 11ZM20 11L20 12L23 12L23 11ZM24 11L24 12L25 12L25 11ZM22 13L22 14L21 14L21 17L22 17L22 16L23 16L23 15L22 15L22 14L23 14L23 13ZM13 14L13 15L14 15L14 14ZM24 15L24 17L25 17L25 18L26 18L26 17L25 17L25 15ZM10 17L10 18L11 18L11 17ZM21 21L21 24L24 24L24 21ZM22 22L22 23L23 23L23 22ZM10 25L10 26L11 26L11 25ZM27 25L27 26L26 26L26 27L28 27L28 25ZM17 26L17 27L18 27L18 28L17 28L17 29L21 29L21 28L22 28L22 27L21 27L21 28L19 28L19 26ZM0 0L0 7L7 7L7 0ZM1 1L1 6L6 6L6 1ZM2 2L2 5L5 5L5 2ZM22 0L22 7L29 7L29 0ZM23 1L23 6L28 6L28 1ZM24 2L24 5L27 5L27 2ZM0 22L0 29L7 29L7 22ZM1 23L1 28L6 28L6 23ZM2 24L2 27L5 27L5 24Z" fill="#282828"/></g></g></svg>
