<?xml version="1.0" encoding="UTF-8"?>
<svg xmlns="http://www.w3.org/2000/svg" version="1.1" width="90" height="90" viewBox="0 0 90 90"><rect x="0" y="0" width="90" height="90" fill="#ffffff"/><g transform="scale(2.903)"><g transform="translate(1,1)"><path fill-rule="evenodd" d="M8 0L8 1L9 1L9 2L10 2L10 3L11 3L11 1L13 1L13 0L11 0L11 1L9 1L9 0ZM14 0L14 1L15 1L15 0ZM17 0L17 1L16 1L16 2L17 2L17 3L15 3L15 4L16 4L16 5L17 5L17 6L16 6L16 8L14 8L14 7L15 7L15 5L14 5L14 4L13 4L13 3L14 3L14 2L12 2L12 4L11 4L11 5L10 5L10 4L9 4L9 5L10 5L10 8L9 8L9 6L8 6L8 8L9 8L9 10L8 10L8 11L7 11L7 10L6 10L6 11L4 11L4 15L5 15L5 16L3 16L3 15L2 15L2 14L3 14L3 11L2 11L2 12L1 12L1 14L0 14L0 16L1 16L1 15L2 15L2 16L3 16L3 17L2 17L2 18L1 18L1 17L0 17L0 21L3 21L3 20L2 20L2 19L3 19L3 18L4 18L4 19L5 19L5 20L4 20L4 21L5 21L5 20L6 20L6 21L8 21L8 22L9 22L9 21L10 21L10 24L8 24L8 26L9 26L9 25L10 25L10 27L11 27L11 25L10 25L10 24L11 24L11 20L10 20L10 19L12 19L12 21L13 21L13 20L14 20L14 18L15 18L15 19L16 19L16 17L17 17L17 19L19 19L19 20L20 20L20 23L17 23L17 24L16 24L16 21L17 21L17 22L19 22L19 21L18 21L18 20L15 20L15 24L13 24L13 25L12 25L12 26L13 26L13 25L14 25L14 27L12 27L12 28L9 28L9 27L8 27L8 29L13 29L13 28L15 28L15 29L16 29L16 28L17 28L17 24L19 24L19 25L18 25L18 26L19 26L19 28L18 28L18 29L21 29L21 27L20 27L20 26L19 26L19 25L21 25L21 26L22 26L22 29L23 29L23 28L24 28L24 27L25 27L25 28L26 28L26 29L27 29L27 27L28 27L28 28L29 28L29 25L28 25L28 24L26 24L26 23L28 23L28 21L29 21L29 20L28 20L28 19L29 19L29 18L28 18L28 17L27 17L27 18L25 18L25 16L24 16L24 15L21 15L21 16L20 16L20 14L21 14L21 12L19 12L19 10L16 10L16 9L18 9L18 8L17 8L17 6L18 6L18 7L19 7L19 5L20 5L20 8L19 8L19 9L21 9L21 5L20 5L20 4L19 4L19 3L21 3L21 1L20 1L20 0ZM19 1L19 2L18 2L18 3L19 3L19 2L20 2L20 1ZM12 4L12 5L11 5L11 7L12 7L12 9L10 9L10 10L9 10L9 11L8 11L8 12L9 12L9 11L10 11L10 10L12 10L12 11L13 11L13 13L11 13L11 12L10 12L10 13L6 13L6 12L7 12L7 11L6 11L6 12L5 12L5 13L6 13L6 14L5 14L5 15L6 15L6 16L7 16L7 15L6 15L6 14L9 14L9 15L8 15L8 16L9 16L9 17L13 17L13 18L12 18L12 19L13 19L13 18L14 18L14 17L13 17L13 16L15 16L15 14L14 14L14 15L12 15L12 16L9 16L9 15L11 15L11 14L13 14L13 13L15 13L15 11L14 11L14 10L15 10L15 9L14 9L14 8L13 8L13 7L14 7L14 6L13 6L13 7L12 7L12 5L13 5L13 4ZM17 4L17 5L18 5L18 4ZM0 8L0 9L1 9L1 10L3 10L3 9L5 9L5 8L3 8L3 9L2 9L2 8ZM6 8L6 9L7 9L7 8ZM22 8L22 9L23 9L23 8ZM28 8L28 10L29 10L29 8ZM12 9L12 10L13 10L13 9ZM24 9L24 11L22 11L22 10L20 10L20 11L22 11L22 13L23 13L23 14L25 14L25 15L26 15L26 16L27 16L27 14L28 14L28 15L29 15L29 14L28 14L28 13L25 13L25 12L26 12L26 11L27 11L27 12L28 12L28 11L27 11L27 9ZM25 10L25 11L26 11L26 10ZM16 11L16 12L17 12L17 13L19 13L19 14L20 14L20 13L19 13L19 12L17 12L17 11ZM17 14L17 17L19 17L19 18L20 18L20 19L21 19L21 18L22 18L22 17L23 17L23 19L22 19L22 20L23 20L23 19L24 19L24 17L23 17L23 16L21 16L21 18L20 18L20 17L19 17L19 16L18 16L18 14ZM6 17L6 18L5 18L5 19L6 19L6 20L7 20L7 19L8 19L8 20L9 20L9 18L7 18L7 17ZM6 18L6 19L7 19L7 18ZM25 19L25 20L26 20L26 22L27 22L27 21L28 21L28 20L26 20L26 19ZM21 21L21 24L24 24L24 21ZM12 22L12 23L14 23L14 22ZM22 22L22 23L23 23L23 22ZM15 25L15 26L16 26L16 25ZM22 25L22 26L23 26L23 25ZM27 25L27 26L28 26L28 25ZM15 27L15 28L16 28L16 27ZM0 0L0 7L7 7L7 0ZM1 1L1 6L6 6L6 1ZM2 2L2 5L5 5L5 2ZM22 0L22 7L29 7L29 0ZM23 1L23 6L28 6L28 1ZM24 2L24 5L27 5L27 2ZM0 22L0 29L7 29L7 22ZM1 23L1 28L6 28L6 23ZM2 24L2 27L5 27L5 24Z" fill="#282828"/></g></g></svg>
