<?xml version="1.0" encoding="UTF-8"?>
<svg xmlns="http://www.w3.org/2000/svg" version="1.1" width="90" height="90" viewBox="0 0 90 90"><rect x="0" y="0" width="90" height="90" fill="#ffffff"/><g transform="scale(2.903)"><g transform="translate(1,1)"><path fill-rule="evenodd" d="M8 0L8 4L9 4L9 5L8 5L8 7L9 7L9 6L10 6L10 9L11 9L11 10L9 10L9 9L7 9L7 8L4 8L4 9L3 9L3 10L2 10L2 8L0 8L0 11L3 11L3 13L2 13L2 12L0 12L0 14L1 14L1 15L2 15L2 16L0 16L0 18L1 18L1 17L3 17L3 19L4 19L4 20L5 20L5 21L8 21L8 22L9 22L9 23L8 23L8 25L9 25L9 27L8 27L8 29L9 29L9 27L12 27L12 28L11 28L11 29L13 29L13 27L14 27L14 25L13 25L13 23L12 23L12 21L13 21L13 22L15 22L15 23L14 23L14 24L15 24L15 27L16 27L16 26L17 26L17 25L18 25L18 24L19 24L19 27L23 27L23 28L20 28L20 29L23 29L23 28L24 28L24 29L28 29L28 28L29 28L29 25L27 25L27 24L26 24L26 22L27 22L27 23L29 23L29 21L28 21L28 20L29 20L29 17L28 17L28 16L27 16L27 17L26 17L26 16L25 16L25 15L24 15L24 14L26 14L26 15L27 15L27 14L28 14L28 15L29 15L29 14L28 14L28 13L29 13L29 12L27 12L27 13L25 13L25 12L26 12L26 11L25 11L25 9L26 9L26 10L27 10L27 9L29 9L29 8L25 8L25 9L24 9L24 8L23 8L23 9L22 9L22 10L21 10L21 12L19 12L19 11L17 11L17 9L18 9L18 8L19 8L19 10L20 10L20 9L21 9L21 8L20 8L20 7L21 7L21 5L19 5L19 4L20 4L20 3L21 3L21 2L20 2L20 1L17 1L17 0L15 0L15 1L14 1L14 0L10 0L10 1L9 1L9 0ZM11 1L11 2L10 2L10 3L11 3L11 2L13 2L13 3L15 3L15 4L16 4L16 3L17 3L17 4L18 4L18 3L19 3L19 2L18 2L18 3L17 3L17 2L16 2L16 1L15 1L15 2L14 2L14 1ZM10 4L10 5L11 5L11 7L12 7L12 8L11 8L11 9L12 9L12 12L11 12L11 11L10 11L10 12L9 12L9 10L8 10L8 11L6 11L6 10L7 10L7 9L6 9L6 10L5 10L5 9L4 9L4 10L5 10L5 11L4 11L4 12L5 12L5 11L6 11L6 12L7 12L7 13L6 13L6 14L5 14L5 16L3 16L3 17L4 17L4 18L5 18L5 17L6 17L6 18L7 18L7 19L6 19L6 20L9 20L9 21L10 21L10 20L11 20L11 21L12 21L12 20L11 20L11 19L10 19L10 20L9 20L9 19L8 19L8 18L9 18L9 17L8 17L8 16L7 16L7 15L6 15L6 14L7 14L7 13L8 13L8 15L9 15L9 14L10 14L10 13L12 13L12 14L13 14L13 16L12 16L12 15L10 15L10 17L11 17L11 18L12 18L12 19L13 19L13 21L17 21L17 22L18 22L18 23L20 23L20 22L18 22L18 21L19 21L19 20L20 20L20 19L22 19L22 20L24 20L24 18L23 18L23 17L24 17L24 15L23 15L23 13L24 13L24 9L23 9L23 12L22 12L22 13L21 13L21 16L22 16L22 18L21 18L21 17L20 17L20 16L19 16L19 15L20 15L20 13L19 13L19 14L18 14L18 13L17 13L17 12L15 12L15 13L16 13L16 14L18 14L18 16L17 16L17 15L15 15L15 14L13 14L13 13L14 13L14 11L15 11L15 10L16 10L16 9L17 9L17 8L16 8L16 6L17 6L17 7L18 7L18 5L15 5L15 8L14 8L14 6L13 6L13 5L14 5L14 4L13 4L13 5L11 5L11 4ZM12 6L12 7L13 7L13 6ZM19 6L19 7L20 7L20 6ZM12 8L12 9L13 9L13 11L14 11L14 9L13 9L13 8ZM28 10L28 11L29 11L29 10ZM8 12L8 13L9 13L9 12ZM1 13L1 14L2 14L2 13ZM3 13L3 15L4 15L4 13ZM22 15L22 16L23 16L23 15ZM6 16L6 17L7 17L7 18L8 18L8 17L7 17L7 16ZM11 16L11 17L12 17L12 16ZM13 16L13 17L14 17L14 18L15 18L15 20L16 20L16 19L17 19L17 21L18 21L18 18L20 18L20 17L17 17L17 18L16 18L16 16L15 16L15 17L14 17L14 16ZM22 18L22 19L23 19L23 18ZM25 18L25 19L26 19L26 20L28 20L28 19L27 19L27 18ZM0 20L0 21L2 21L2 20ZM21 21L21 24L24 24L24 21ZM25 21L25 22L26 22L26 21ZM10 22L10 23L9 23L9 24L10 24L10 25L11 25L11 24L10 24L10 23L11 23L11 22ZM22 22L22 23L23 23L23 22ZM16 23L16 25L17 25L17 23ZM12 25L12 26L13 26L13 25ZM20 25L20 26L21 26L21 25ZM22 25L22 26L23 26L23 27L25 27L25 26L26 26L26 28L27 28L27 25L25 25L25 26L24 26L24 25ZM17 27L17 29L18 29L18 27ZM15 28L15 29L16 29L16 28ZM0 0L0 7L7 7L7 0ZM1 1L1 6L6 6L6 1ZM2 2L2 5L5 5L5 2ZM22 0L22 7L29 7L29 0ZM23 1L23 6L28 6L28 1ZM24 2L24 5L27 5L27 2ZM0 22L0 29L7 29L7 22ZM1 23L1 28L6 28L6 23ZM2 24L2 27L5 27L5 24Z" fill="#282828"/></g></g></svg>
