<?xml version="1.0" encoding="UTF-8"?>
<svg xmlns="http://www.w3.org/2000/svg" version="1.1" width="90" height="90" viewBox="0 0 90 90"><rect x="0" y="0" width="90" height="90" fill="#ffffff"/><g transform="scale(2.903)"><g transform="translate(1,1)"><path fill-rule="evenodd" d="M9 0L9 1L10 1L10 2L8 2L8 3L9 3L9 4L10 4L10 5L9 5L9 6L8 6L8 8L4 8L4 9L3 9L3 8L0 8L0 9L2 9L2 10L0 10L0 11L1 11L1 12L0 12L0 13L2 13L2 14L1 14L1 15L0 15L0 16L2 16L2 17L1 17L1 18L0 18L0 19L1 19L1 20L0 20L0 21L1 21L1 20L2 20L2 21L3 21L3 19L1 19L1 18L2 18L2 17L3 17L3 18L4 18L4 21L5 21L5 20L6 20L6 21L8 21L8 25L9 25L9 26L8 26L8 29L9 29L9 27L11 27L11 28L10 28L10 29L11 29L11 28L12 28L12 29L13 29L13 28L12 28L12 27L11 27L11 26L12 26L12 24L14 24L14 26L13 26L13 27L14 27L14 26L15 26L15 24L16 24L16 27L15 27L15 29L18 29L18 28L19 28L19 29L22 29L22 28L24 28L24 29L26 29L26 28L25 28L25 27L26 27L26 26L28 26L28 27L27 27L27 29L29 29L29 28L28 28L28 27L29 27L29 24L28 24L28 23L29 23L29 20L26 20L26 21L25 21L25 18L26 18L26 19L27 19L27 18L26 18L26 17L25 17L25 18L23 18L23 17L24 17L24 13L23 13L23 12L24 12L24 11L25 11L25 10L24 10L24 11L23 11L23 12L22 12L22 11L21 11L21 10L22 10L22 9L23 9L23 8L21 8L21 5L20 5L20 4L21 4L21 2L20 2L20 0L16 0L16 1L15 1L15 0L12 0L12 1L10 1L10 0ZM13 1L13 2L14 2L14 1ZM18 1L18 2L16 2L16 3L17 3L17 7L18 7L18 6L19 6L19 8L20 8L20 6L19 6L19 4L18 4L18 3L19 3L19 1ZM11 2L11 3L12 3L12 4L11 4L11 5L10 5L10 6L9 6L9 7L10 7L10 6L11 6L11 8L12 8L12 10L10 10L10 8L9 8L9 10L10 10L10 11L8 11L8 10L7 10L7 9L6 9L6 10L7 10L7 11L6 11L6 12L5 12L5 11L4 11L4 12L3 12L3 11L2 11L2 12L3 12L3 13L4 13L4 14L3 14L3 15L2 15L2 16L3 16L3 17L4 17L4 16L5 16L5 13L6 13L6 14L7 14L7 15L6 15L6 16L7 16L7 15L9 15L9 14L11 14L11 13L12 13L12 12L13 12L13 13L14 13L14 14L13 14L13 15L14 15L14 14L15 14L15 15L16 15L16 16L15 16L15 18L14 18L14 16L12 16L12 15L11 15L11 16L8 16L8 17L6 17L6 18L8 18L8 19L9 19L9 20L10 20L10 21L9 21L9 24L12 24L12 23L10 23L10 21L12 21L12 20L13 20L13 21L14 21L14 22L13 22L13 23L14 23L14 22L15 22L15 23L16 23L16 22L15 22L15 20L16 20L16 21L17 21L17 20L16 20L16 19L18 19L18 18L19 18L19 19L20 19L20 18L21 18L21 19L22 19L22 17L20 17L20 16L23 16L23 15L22 15L22 14L21 14L21 15L20 15L20 14L19 14L19 13L20 13L20 12L21 12L21 11L20 11L20 9L18 9L18 10L17 10L17 8L15 8L15 10L14 10L14 8L12 8L12 6L13 6L13 7L14 7L14 6L15 6L15 7L16 7L16 6L15 6L15 5L14 5L14 4L13 4L13 3L12 3L12 2ZM13 5L13 6L14 6L14 5ZM26 8L26 9L27 9L27 10L26 10L26 11L28 11L28 12L27 12L27 13L28 13L28 12L29 12L29 10L28 10L28 9L27 9L27 8ZM4 9L4 10L5 10L5 9ZM13 10L13 11L14 11L14 10ZM18 10L18 11L17 11L17 12L16 12L16 11L15 11L15 12L16 12L16 15L17 15L17 17L16 17L16 18L18 18L18 15L19 15L19 16L20 16L20 15L19 15L19 14L18 14L18 15L17 15L17 12L18 12L18 11L19 11L19 10ZM7 11L7 12L6 12L6 13L7 13L7 12L8 12L8 11ZM11 11L11 12L12 12L12 11ZM25 12L25 14L26 14L26 12ZM8 13L8 14L9 14L9 13ZM27 14L27 15L28 15L28 16L27 16L27 17L28 17L28 19L29 19L29 14ZM3 15L3 16L4 16L4 15ZM25 15L25 16L26 16L26 15ZM11 16L11 17L8 17L8 18L9 18L9 19L10 19L10 20L12 20L12 19L11 19L11 18L12 18L12 16ZM13 18L13 19L14 19L14 18ZM6 19L6 20L7 20L7 19ZM18 20L18 21L20 21L20 20ZM21 21L21 24L24 24L24 21ZM26 21L26 22L25 22L25 26L26 26L26 25L27 25L27 23L28 23L28 21ZM22 22L22 23L23 23L23 22ZM18 23L18 25L17 25L17 26L18 26L18 27L19 27L19 25L20 25L20 27L21 27L21 28L22 28L22 27L23 27L23 25L20 25L20 23ZM10 25L10 26L11 26L11 25ZM0 0L0 7L7 7L7 0ZM1 1L1 6L6 6L6 1ZM2 2L2 5L5 5L5 2ZM22 0L22 7L29 7L29 0ZM23 1L23 6L28 6L28 1ZM24 2L24 5L27 5L27 2ZM0 22L0 29L7 29L7 22ZM1 23L1 28L6 28L6 23ZM2 24L2 27L5 27L5 24Z" fill="#282828"/></g></g></svg>
