<?xml version="1.0" encoding="UTF-8"?>
<svg xmlns="http://www.w3.org/2000/svg" version="1.1" width="90" height="90" viewBox="0 0 90 90"><rect x="0" y="0" width="90" height="90" fill="#ffffff"/><g transform="scale(3.333)"><g transform="translate(1,1)"><path fill-rule="evenodd" d="M10 0L10 1L9 1L9 2L8 2L8 3L9 3L9 5L10 5L10 7L11 7L11 8L12 8L12 9L11 9L11 10L10 10L10 9L9 9L9 6L8 6L8 8L4 8L4 9L3 9L3 8L0 8L0 9L1 9L1 11L0 11L0 12L1 12L1 14L0 14L0 15L1 15L1 16L0 16L0 17L1 17L1 16L4 16L4 17L5 17L5 16L4 16L4 15L5 15L5 14L6 14L6 15L7 15L7 16L6 16L6 17L7 17L7 16L9 16L9 15L7 15L7 14L6 14L6 13L8 13L8 12L10 12L10 15L11 15L11 16L10 16L10 17L8 17L8 21L9 21L9 19L11 19L11 20L13 20L13 22L14 22L14 23L13 23L13 24L12 24L12 23L10 23L10 22L11 22L11 21L10 21L10 22L8 22L8 25L10 25L10 24L12 24L12 25L14 25L14 23L15 23L15 22L17 22L17 21L19 21L19 22L18 22L18 23L17 23L17 24L15 24L15 25L21 25L21 22L22 22L22 23L23 23L23 24L22 24L22 25L25 25L25 24L24 24L24 23L25 23L25 22L24 22L24 23L23 23L23 22L22 22L22 21L21 21L21 20L22 20L22 19L21 19L21 18L22 18L22 16L21 16L21 15L20 15L20 14L17 14L17 15L20 15L20 16L16 16L16 15L15 15L15 14L14 14L14 12L16 12L16 13L19 13L19 10L18 10L18 9L19 9L19 8L17 8L17 6L16 6L16 4L15 4L15 3L16 3L16 2L17 2L17 1L16 1L16 0L15 0L15 1L13 1L13 2L15 2L15 3L14 3L14 4L13 4L13 3L12 3L12 2L11 2L11 3L12 3L12 5L10 5L10 3L9 3L9 2L10 2L10 1L11 1L11 0ZM14 5L14 6L13 6L13 7L12 7L12 6L11 6L11 7L12 7L12 8L13 8L13 7L14 7L14 6L15 6L15 7L16 7L16 6L15 6L15 5ZM14 8L14 9L15 9L15 8ZM22 8L22 10L21 10L21 11L20 11L20 13L21 13L21 11L22 11L22 10L23 10L23 12L22 12L22 13L23 13L23 12L24 12L24 11L25 11L25 10L23 10L23 8ZM2 9L2 10L3 10L3 9ZM5 9L5 10L4 10L4 13L3 13L3 12L2 12L2 13L3 13L3 14L4 14L4 13L6 13L6 12L7 12L7 11L8 11L8 9ZM5 10L5 11L7 11L7 10ZM9 10L9 11L10 11L10 10ZM15 10L15 11L16 11L16 12L18 12L18 11L16 11L16 10ZM11 11L11 12L12 12L12 11ZM12 13L12 14L11 14L11 15L12 15L12 17L11 17L11 19L13 19L13 18L14 18L14 19L15 19L15 20L14 20L14 21L16 21L16 18L14 18L14 17L15 17L15 16L13 16L13 15L14 15L14 14L13 14L13 13ZM24 13L24 15L25 15L25 13ZM1 14L1 15L2 15L2 14ZM12 14L12 15L13 15L13 14ZM22 14L22 15L23 15L23 14ZM23 16L23 17L24 17L24 19L23 19L23 20L25 20L25 16ZM17 17L17 20L20 20L20 17ZM18 18L18 19L19 19L19 18ZM20 21L20 22L21 22L21 21ZM18 23L18 24L19 24L19 23ZM0 0L0 7L7 7L7 0ZM1 1L1 6L6 6L6 1ZM2 2L2 5L5 5L5 2ZM18 0L18 7L25 7L25 0ZM19 1L19 6L24 6L24 1ZM20 2L20 5L23 5L23 2ZM0 18L0 25L7 25L7 18ZM1 19L1 24L6 24L6 19ZM2 20L2 23L5 23L5 20Z" fill="#282828"/></g></g></svg>
