<?xml version="1.0" encoding="UTF-8"?>
<svg xmlns="http://www.w3.org/2000/svg" version="1.1" width="90" height="90" viewBox="0 0 90 90"><rect x="0" y="0" width="90" height="90" fill="#ffffff"/><g transform="scale(3.333)"><g transform="translate(1,1)"><path fill-rule="evenodd" d="M8 0L8 1L10 1L10 0ZM14 0L14 1L13 1L13 2L11 2L11 4L10 4L10 3L9 3L9 2L8 2L8 5L9 5L9 6L8 6L8 7L9 7L9 8L8 8L8 9L7 9L7 8L6 8L6 9L4 9L4 8L0 8L0 10L1 10L1 9L4 9L4 10L2 10L2 11L0 11L0 13L1 13L1 12L2 12L2 13L3 13L3 14L1 14L1 15L0 15L0 16L1 16L1 15L2 15L2 17L3 17L3 16L4 16L4 17L8 17L8 18L9 18L9 16L10 16L10 15L11 15L11 14L12 14L12 16L11 16L11 17L12 17L12 18L11 18L11 19L12 19L12 20L11 20L11 21L12 21L12 22L11 22L11 23L12 23L12 22L13 22L13 21L12 21L12 20L13 20L13 18L14 18L14 16L13 16L13 15L14 15L14 14L12 14L12 12L13 12L13 13L15 13L15 14L16 14L16 15L15 15L15 17L16 17L16 18L15 18L15 20L16 20L16 21L14 21L14 22L16 22L16 21L17 21L17 23L19 23L19 24L17 24L17 25L22 25L22 24L23 24L23 25L25 25L25 24L23 24L23 23L24 23L24 22L25 22L25 20L24 20L24 19L25 19L25 17L23 17L23 16L25 16L25 15L23 15L23 14L22 14L22 12L23 12L23 10L25 10L25 8L24 8L24 9L23 9L23 8L20 8L20 9L19 9L19 10L17 10L17 9L18 9L18 8L17 8L17 6L16 6L16 8L17 8L17 9L16 9L16 11L14 11L14 10L15 10L15 8L13 8L13 11L11 11L11 13L10 13L10 12L5 12L5 11L7 11L7 10L10 10L10 9L9 9L9 8L10 8L10 7L11 7L11 8L12 8L12 7L13 7L13 6L14 6L14 7L15 7L15 6L14 6L14 5L17 5L17 4L15 4L15 0ZM16 0L16 3L17 3L17 0ZM12 3L12 5L10 5L10 6L9 6L9 7L10 7L10 6L11 6L11 7L12 7L12 5L14 5L14 4L13 4L13 3ZM6 9L6 10L7 10L7 9ZM20 9L20 10L22 10L22 9ZM2 11L2 12L3 12L3 13L4 13L4 15L6 15L6 16L8 16L8 15L10 15L10 14L8 14L8 13L5 13L5 12L3 12L3 11ZM16 11L16 12L15 12L15 13L17 13L17 15L18 15L18 16L19 16L19 15L20 15L20 14L18 14L18 13L17 13L17 11ZM18 11L18 12L21 12L21 11ZM24 13L24 14L25 14L25 13ZM6 14L6 15L8 15L8 14ZM21 14L21 16L23 16L23 15L22 15L22 14ZM12 16L12 17L13 17L13 16ZM17 17L17 20L20 20L20 17ZM21 17L21 18L22 18L22 17ZM18 18L18 19L19 19L19 18ZM23 18L23 19L21 19L21 21L22 21L22 22L21 22L21 23L20 23L20 24L21 24L21 23L23 23L23 21L24 21L24 20L23 20L23 19L24 19L24 18ZM9 20L9 21L8 21L8 25L9 25L9 24L10 24L10 25L12 25L12 24L10 24L10 23L9 23L9 22L10 22L10 20ZM19 21L19 22L20 22L20 21ZM13 23L13 25L14 25L14 24L15 24L15 25L16 25L16 24L15 24L15 23ZM0 0L0 7L7 7L7 0ZM1 1L1 6L6 6L6 1ZM2 2L2 5L5 5L5 2ZM18 0L18 7L25 7L25 0ZM19 1L19 6L24 6L24 1ZM20 2L20 5L23 5L23 2ZM0 18L0 25L7 25L7 18ZM1 19L1 24L6 24L6 19ZM2 20L2 23L5 23L5 20Z" fill="#282828"/></g></g></svg>
