<?xml version="1.0" encoding="UTF-8"?>
<svg xmlns="http://www.w3.org/2000/svg" version="1.1" width="90" height="90" viewBox="0 0 90 90"><rect x="0" y="0" width="90" height="90" fill="#ffffff"/><g transform="scale(3.333)"><g transform="translate(1,1)"><path fill-rule="evenodd" d="M8 0L8 1L9 1L9 2L8 2L8 5L9 5L9 4L11 4L11 5L10 5L10 10L8 10L8 9L9 9L9 8L8 8L8 9L7 9L7 8L6 8L6 9L7 9L7 10L6 10L6 11L7 11L7 10L8 10L8 11L9 11L9 12L5 12L5 11L4 11L4 10L3 10L3 9L4 9L4 8L0 8L0 13L2 13L2 12L3 12L3 13L4 13L4 14L1 14L1 15L0 15L0 16L1 16L1 15L2 15L2 16L3 16L3 17L4 17L4 16L5 16L5 15L4 15L4 14L5 14L5 13L7 13L7 14L6 14L6 15L7 15L7 16L6 16L6 17L7 17L7 16L10 16L10 17L8 17L8 18L9 18L9 19L10 19L10 18L11 18L11 16L12 16L12 14L14 14L14 16L13 16L13 18L15 18L15 19L14 19L14 21L15 21L15 22L14 22L14 23L13 23L13 20L12 20L12 19L11 19L11 20L10 20L10 21L11 21L11 23L9 23L9 21L8 21L8 25L9 25L9 24L10 24L10 25L11 25L11 23L12 23L12 24L13 24L13 25L14 25L14 24L15 24L15 25L16 25L16 24L15 24L15 22L16 22L16 21L17 21L17 23L19 23L19 24L17 24L17 25L19 25L19 24L20 24L20 23L22 23L22 24L21 24L21 25L25 25L25 24L23 24L23 23L24 23L24 22L25 22L25 20L24 20L24 21L23 21L23 23L22 23L22 22L19 22L19 21L21 21L21 20L22 20L22 19L21 19L21 18L22 18L22 17L23 17L23 18L24 18L24 19L25 19L25 17L23 17L23 16L25 16L25 15L23 15L23 13L22 13L22 12L24 12L24 11L23 11L23 10L25 10L25 8L24 8L24 9L23 9L23 8L20 8L20 9L19 9L19 10L18 10L18 12L17 12L17 11L16 11L16 12L17 12L17 13L15 13L15 11L14 11L14 9L15 9L15 8L14 8L14 9L13 9L13 6L12 6L12 5L17 5L17 4L15 4L15 2L13 2L13 0L12 0L12 1L11 1L11 0L10 0L10 1L9 1L9 0ZM16 0L16 2L17 2L17 0ZM11 2L11 4L12 4L12 3L13 3L13 2ZM8 6L8 7L9 7L9 6ZM11 6L11 8L12 8L12 6ZM14 6L14 7L15 7L15 6ZM16 6L16 7L17 7L17 6ZM16 8L16 10L17 10L17 9L18 9L18 8ZM11 9L11 10L12 10L12 9ZM20 9L20 11L19 11L19 13L20 13L20 11L21 11L21 10L22 10L22 9ZM1 10L1 11L2 11L2 10ZM3 11L3 12L4 12L4 11ZM11 11L11 13L10 13L10 14L9 14L9 13L8 13L8 15L10 15L10 16L11 16L11 13L12 13L12 12L13 12L13 13L14 13L14 14L15 14L15 16L14 16L14 17L15 17L15 18L16 18L16 16L17 16L17 14L15 14L15 13L14 13L14 12L13 12L13 11ZM24 13L24 14L25 14L25 13ZM18 14L18 16L19 16L19 15L21 15L21 17L22 17L22 16L23 16L23 15L21 15L21 14ZM17 17L17 20L20 20L20 17ZM18 18L18 19L19 19L19 18ZM15 20L15 21L16 21L16 20ZM0 0L0 7L7 7L7 0ZM1 1L1 6L6 6L6 1ZM2 2L2 5L5 5L5 2ZM18 0L18 7L25 7L25 0ZM19 1L19 6L24 6L24 1ZM20 2L20 5L23 5L23 2ZM0 18L0 25L7 25L7 18ZM1 19L1 24L6 24L6 19ZM2 20L2 23L5 23L5 20Z" fill="#282828"/></g></g></svg>
