<?xml version="1.0" encoding="UTF-8"?>
<svg xmlns="http://www.w3.org/2000/svg" version="1.1" width="90" height="90" viewBox="0 0 90 90"><rect x="0" y="0" width="90" height="90" fill="#ffffff"/><g transform="scale(3.333)"><g transform="translate(1,1)"><path fill-rule="evenodd" d="M10 0L10 2L11 2L11 0ZM12 0L12 1L13 1L13 2L12 2L12 4L15 4L15 3L13 3L13 2L16 2L16 3L17 3L17 0L16 0L16 1L14 1L14 0ZM8 1L8 2L9 2L9 1ZM8 3L8 4L9 4L9 5L8 5L8 7L9 7L9 8L6 8L6 9L5 9L5 8L0 8L0 10L1 10L1 12L2 12L2 10L3 10L3 11L4 11L4 12L5 12L5 13L4 13L4 15L3 15L3 13L0 13L0 17L1 17L1 14L2 14L2 17L3 17L3 16L4 16L4 15L5 15L5 17L8 17L8 19L9 19L9 18L10 18L10 20L8 20L8 25L9 25L9 23L10 23L10 25L11 25L11 22L13 22L13 21L16 21L16 22L15 22L15 23L14 23L14 24L13 24L13 25L14 25L14 24L17 24L17 25L19 25L19 23L20 23L20 22L19 22L19 21L23 21L23 22L24 22L24 24L22 24L22 23L21 23L21 25L25 25L25 21L23 21L23 20L25 20L25 18L24 18L24 17L25 17L25 14L24 14L24 13L22 13L22 12L21 12L21 11L20 11L20 13L19 13L19 10L20 10L20 8L19 8L19 10L18 10L18 11L17 11L17 13L19 13L19 15L18 15L18 14L15 14L15 13L16 13L16 10L17 10L17 9L18 9L18 8L17 8L17 4L16 4L16 5L11 5L11 6L10 6L10 4L11 4L11 3ZM9 6L9 7L10 7L10 6ZM11 6L11 7L12 7L12 9L11 9L11 8L10 8L10 9L6 9L6 10L7 10L7 11L6 11L6 12L7 12L7 13L5 13L5 14L8 14L8 15L9 15L9 14L13 14L13 13L14 13L14 11L15 11L15 9L17 9L17 8L15 8L15 9L13 9L13 8L14 8L14 6L13 6L13 7L12 7L12 6ZM15 6L15 7L16 7L16 6ZM21 8L21 9L22 9L22 11L23 11L23 12L25 12L25 9L24 9L24 8L23 8L23 9L22 9L22 8ZM4 9L4 11L5 11L5 9ZM10 9L10 11L11 11L11 9ZM12 9L12 10L13 10L13 9ZM8 10L8 11L7 11L7 12L9 12L9 13L11 13L11 12L9 12L9 10ZM12 11L12 13L13 13L13 11ZM20 13L20 14L21 14L21 15L19 15L19 16L23 16L23 15L24 15L24 14L22 14L22 13ZM6 15L6 16L7 16L7 15ZM12 15L12 16L14 16L14 15ZM15 15L15 17L16 17L16 15ZM10 16L10 17L11 17L11 20L12 20L12 21L13 21L13 20L16 20L16 18L14 18L14 17L13 17L13 18L12 18L12 17L11 17L11 16ZM17 17L17 20L20 20L20 17ZM21 17L21 20L23 20L23 19L24 19L24 18L22 18L22 17ZM18 18L18 19L19 19L19 18ZM12 19L12 20L13 20L13 19ZM10 21L10 22L11 22L11 21ZM17 22L17 23L19 23L19 22ZM0 0L0 7L7 7L7 0ZM1 1L1 6L6 6L6 1ZM2 2L2 5L5 5L5 2ZM18 0L18 7L25 7L25 0ZM19 1L19 6L24 6L24 1ZM20 2L20 5L23 5L23 2ZM0 18L0 25L7 25L7 18ZM1 19L1 24L6 24L6 19ZM2 20L2 23L5 23L5 20Z" fill="#282828"/></g></g></svg>
