<?xml version="1.0" encoding="UTF-8"?>
<svg xmlns="http://www.w3.org/2000/svg" version="1.1" width="90" height="90" viewBox="0 0 90 90"><rect x="0" y="0" width="90" height="90" fill="#ffffff"/><g transform="scale(3.333)"><g transform="translate(1,1)"><path fill-rule="evenodd" d="M9 0L9 1L8 1L8 2L9 2L9 3L8 3L8 4L9 4L9 5L8 5L8 7L9 7L9 8L6 8L6 9L8 9L8 10L9 10L9 9L10 9L10 8L11 8L11 9L12 9L12 7L13 7L13 6L12 6L12 7L11 7L11 5L12 5L12 4L9 4L9 3L11 3L11 2L10 2L10 0ZM11 0L11 1L12 1L12 3L13 3L13 4L15 4L15 3L13 3L13 2L16 2L16 3L17 3L17 2L16 2L16 1L17 1L17 0L16 0L16 1L14 1L14 0L13 0L13 1L12 1L12 0ZM16 4L16 5L15 5L15 6L14 6L14 8L13 8L13 9L14 9L14 8L15 8L15 9L16 9L16 10L15 10L15 11L18 11L18 10L17 10L17 9L18 9L18 8L17 8L17 9L16 9L16 7L17 7L17 4ZM9 6L9 7L10 7L10 6ZM15 6L15 7L16 7L16 6ZM0 8L0 9L1 9L1 11L0 11L0 12L1 12L1 13L0 13L0 17L1 17L1 13L3 13L3 12L1 12L1 11L4 11L4 14L5 14L5 12L6 12L6 13L8 13L8 15L9 15L9 16L6 16L6 17L8 17L8 19L10 19L10 20L8 20L8 25L10 25L10 23L11 23L11 22L10 22L10 20L11 20L11 21L13 21L13 22L12 22L12 25L14 25L14 24L16 24L16 23L17 23L17 22L16 22L16 21L18 21L18 22L19 22L19 23L18 23L18 25L19 25L19 23L20 23L20 22L19 22L19 21L23 21L23 22L24 22L24 24L22 24L22 23L21 23L21 25L25 25L25 21L24 21L24 19L25 19L25 18L24 18L24 17L25 17L25 13L24 13L24 11L25 11L25 9L24 9L24 8L23 8L23 9L22 9L22 8L21 8L21 9L22 9L22 10L23 10L23 12L14 12L14 13L13 13L13 12L8 12L8 11L7 11L7 10L5 10L5 11L4 11L4 9L5 9L5 8ZM19 8L19 10L20 10L20 11L21 11L21 10L20 10L20 8ZM2 9L2 10L3 10L3 9ZM23 9L23 10L24 10L24 9ZM10 10L10 11L11 11L11 10ZM6 11L6 12L7 12L7 11ZM9 13L9 14L10 14L10 15L11 15L11 16L9 16L9 17L10 17L10 18L11 18L11 19L13 19L13 21L14 21L14 22L15 22L15 21L14 21L14 19L13 19L13 18L15 18L15 20L16 20L16 18L15 18L15 17L16 17L16 15L13 15L13 13ZM14 13L14 14L16 14L16 13ZM17 13L17 15L18 15L18 14L19 14L19 13ZM20 13L20 16L23 16L23 14L22 14L22 13ZM6 14L6 15L7 15L7 14ZM21 14L21 15L22 15L22 14ZM2 15L2 16L3 16L3 17L5 17L5 16L3 16L3 15ZM12 15L12 17L13 17L13 15ZM14 16L14 17L15 17L15 16ZM17 17L17 20L20 20L20 17ZM21 17L21 18L22 18L22 19L21 19L21 20L23 20L23 19L24 19L24 18L22 18L22 17ZM18 18L18 19L19 19L19 18ZM9 22L9 23L10 23L10 22ZM13 23L13 24L14 24L14 23ZM0 0L0 7L7 7L7 0ZM1 1L1 6L6 6L6 1ZM2 2L2 5L5 5L5 2ZM18 0L18 7L25 7L25 0ZM19 1L19 6L24 6L24 1ZM20 2L20 5L23 5L23 2ZM0 18L0 25L7 25L7 18ZM1 19L1 24L6 24L6 19ZM2 20L2 23L5 23L5 20Z" fill="#282828"/></g></g></svg>
