<?xml version="1.0" encoding="UTF-8"?>
<svg xmlns="http://www.w3.org/2000/svg" version="1.1" width="90" height="90" viewBox="0 0 90 90"><rect x="0" y="0" width="90" height="90" fill="#ffffff"/><g transform="scale(3.333)"><g transform="translate(1,1)"><path fill-rule="evenodd" d="M10 0L10 1L8 1L8 3L9 3L9 2L11 2L11 4L10 4L10 7L9 7L9 4L8 4L8 8L6 8L6 9L7 9L7 10L5 10L5 9L4 9L4 8L3 8L3 9L2 9L2 8L0 8L0 9L2 9L2 11L3 11L3 10L4 10L4 12L5 12L5 14L6 14L6 15L4 15L4 14L3 14L3 13L2 13L2 12L1 12L1 11L0 11L0 12L1 12L1 14L0 14L0 15L1 15L1 16L0 16L0 17L2 17L2 15L4 15L4 17L5 17L5 16L6 16L6 17L8 17L8 19L9 19L9 21L8 21L8 22L9 22L9 23L8 23L8 25L9 25L9 23L10 23L10 25L11 25L11 24L13 24L13 25L14 25L14 24L15 24L15 25L19 25L19 22L18 22L18 23L17 23L17 24L16 24L16 22L15 22L15 23L14 23L14 21L15 21L15 20L16 20L16 21L21 21L21 22L20 22L20 25L21 25L21 22L22 22L22 21L21 21L21 20L23 20L23 22L24 22L24 23L25 23L25 20L24 20L24 19L25 19L25 12L24 12L24 14L23 14L23 12L22 12L22 15L23 15L23 16L16 16L16 15L17 15L17 14L16 14L16 13L19 13L19 14L18 14L18 15L21 15L21 14L20 14L20 13L21 13L21 11L25 11L25 10L23 10L23 9L24 9L24 8L22 8L22 10L20 10L20 11L19 11L19 10L18 10L18 11L17 11L17 4L16 4L16 5L15 5L15 3L16 3L16 1L15 1L15 0L13 0L13 1L14 1L14 3L13 3L13 2L12 2L12 0ZM12 4L12 5L11 5L11 9L13 9L13 11L14 11L14 12L15 12L15 13L13 13L13 15L10 15L10 14L8 14L8 11L10 11L10 12L9 12L9 13L10 13L10 12L11 12L11 14L12 14L12 10L9 10L9 8L8 8L8 11L5 11L5 12L7 12L7 13L6 13L6 14L8 14L8 15L6 15L6 16L8 16L8 17L10 17L10 18L9 18L9 19L10 19L10 18L11 18L11 19L12 19L12 20L14 20L14 19L15 19L15 18L11 18L11 17L13 17L13 15L14 15L14 17L16 17L16 16L15 16L15 15L16 15L16 14L15 14L15 13L16 13L16 12L15 12L15 11L16 11L16 10L15 10L15 9L14 9L14 8L16 8L16 6L15 6L15 7L14 7L14 5L13 5L13 4ZM12 5L12 8L13 8L13 5ZM18 8L18 9L21 9L21 8ZM19 12L19 13L20 13L20 12ZM1 14L1 15L2 15L2 14ZM9 15L9 16L10 16L10 15ZM17 17L17 20L20 20L20 17ZM22 17L22 18L21 18L21 19L24 19L24 18L23 18L23 17ZM18 18L18 19L19 19L19 18ZM10 20L10 21L9 21L9 22L10 22L10 21L11 21L11 23L13 23L13 22L12 22L12 21L11 21L11 20ZM22 24L22 25L25 25L25 24ZM0 0L0 7L7 7L7 0ZM1 1L1 6L6 6L6 1ZM2 2L2 5L5 5L5 2ZM18 0L18 7L25 7L25 0ZM19 1L19 6L24 6L24 1ZM20 2L20 5L23 5L23 2ZM0 18L0 25L7 25L7 18ZM1 19L1 24L6 24L6 19ZM2 20L2 23L5 23L5 20Z" fill="#282828"/></g></g></svg>
