<?xml version="1.0" encoding="UTF-8"?>
<svg xmlns="http://www.w3.org/2000/svg" version="1.1" width="100" height="100" viewBox="0 0 100 100"><rect x="0" y="0" width="100" height="100" fill="#ffffff"/><g transform="scale(3.704)"><g transform="translate(1,1)"><path fill-rule="evenodd" d="M11 0L11 1L8 1L8 3L9 3L9 4L8 4L8 8L6 8L6 9L5 9L5 10L4 10L4 8L3 8L3 9L2 9L2 8L0 8L0 10L1 10L1 9L2 9L2 12L3 12L3 13L7 13L7 14L6 14L6 15L7 15L7 16L5 16L5 17L7 17L7 16L9 16L9 17L8 17L8 19L11 19L11 20L9 20L9 21L8 21L8 22L9 22L9 23L8 23L8 25L9 25L9 23L10 23L10 25L11 25L11 24L12 24L12 25L14 25L14 23L15 23L15 25L18 25L18 24L19 24L19 25L25 25L25 24L21 24L21 22L22 22L22 21L21 21L21 20L25 20L25 12L24 12L24 14L23 14L23 12L21 12L21 11L25 11L25 10L23 10L23 9L24 9L24 8L22 8L22 10L18 10L18 9L21 9L21 8L18 8L18 9L17 9L17 5L16 5L16 3L17 3L17 1L15 1L15 0L14 0L14 1L13 1L13 0ZM12 1L12 2L11 2L11 3L10 3L10 2L9 2L9 3L10 3L10 5L9 5L9 8L8 8L8 9L6 9L6 10L5 10L5 11L4 11L4 10L3 10L3 12L5 12L5 11L6 11L6 12L7 12L7 11L6 11L6 10L8 10L8 11L11 11L11 13L10 13L10 12L9 12L9 13L10 13L10 14L8 14L8 15L9 15L9 16L12 16L12 17L9 17L9 18L11 18L11 19L13 19L13 20L15 20L15 21L14 21L14 22L15 22L15 23L16 23L16 24L17 24L17 23L18 23L18 22L19 22L19 23L20 23L20 22L21 22L21 21L20 21L20 22L19 22L19 21L17 21L17 23L16 23L16 18L14 18L14 19L13 19L13 18L12 18L12 17L16 17L16 16L17 16L17 13L18 13L18 12L20 12L20 11L18 11L18 12L17 12L17 11L16 11L16 10L15 10L15 9L16 9L16 8L15 8L15 9L13 9L13 11L12 11L12 9L11 9L11 8L10 8L10 5L11 5L11 7L12 7L12 8L14 8L14 6L15 6L15 7L16 7L16 6L15 6L15 5L14 5L14 3L16 3L16 2L15 2L15 1L14 1L14 2L13 2L13 1ZM11 3L11 5L12 5L12 7L13 7L13 3ZM8 9L8 10L10 10L10 9ZM0 11L0 13L1 13L1 14L0 14L0 15L1 15L1 16L0 16L0 17L2 17L2 16L3 16L3 17L4 17L4 15L5 15L5 14L4 14L4 15L1 15L1 14L2 14L2 13L1 13L1 11ZM13 11L13 13L12 13L12 14L11 14L11 15L12 15L12 16L16 16L16 15L12 15L12 14L14 14L14 12L15 12L15 14L16 14L16 13L17 13L17 12L15 12L15 11ZM20 13L20 15L18 15L18 16L23 16L23 15L22 15L22 14L21 14L21 13ZM17 17L17 20L20 20L20 17ZM22 17L22 18L21 18L21 19L24 19L24 18L23 18L23 17ZM18 18L18 19L19 19L19 18ZM9 21L9 22L10 22L10 21ZM11 21L11 23L12 23L12 24L13 24L13 22L12 22L12 21ZM24 22L24 23L25 23L25 22ZM0 0L0 7L7 7L7 0ZM1 1L1 6L6 6L6 1ZM2 2L2 5L5 5L5 2ZM18 0L18 7L25 7L25 0ZM19 1L19 6L24 6L24 1ZM20 2L20 5L23 5L23 2ZM0 18L0 25L7 25L7 18ZM1 19L1 24L6 24L6 19ZM2 20L2 23L5 23L5 20Z" fill="#282828"/></g></g></svg>
