<?xml version="1.0" encoding="UTF-8"?>
<svg xmlns="http://www.w3.org/2000/svg" version="1.1" width="90" height="90" viewBox="0 0 90 90"><rect x="0" y="0" width="90" height="90" fill="#ffffff"/><g transform="scale(3.333)"><g transform="translate(1,1)"><path fill-rule="evenodd" d="M9 0L9 1L8 1L8 2L9 2L9 3L8 3L8 4L10 4L10 7L11 7L11 4L12 4L12 5L13 5L13 4L16 4L16 5L14 5L14 7L15 7L15 6L16 6L16 8L14 8L14 9L13 9L13 6L12 6L12 9L13 9L13 10L11 10L11 11L10 11L10 9L11 9L11 8L6 8L6 9L5 9L5 8L0 8L0 9L1 9L1 10L0 10L0 11L1 11L1 13L0 13L0 17L1 17L1 13L3 13L3 12L4 12L4 14L2 14L2 15L5 15L5 16L4 16L4 17L8 17L8 19L9 19L9 16L10 16L10 17L11 17L11 15L9 15L9 14L5 14L5 12L6 12L6 13L8 13L8 11L9 11L9 13L10 13L10 14L11 14L11 13L12 13L12 14L13 14L13 13L14 13L14 14L15 14L15 16L13 16L13 15L12 15L12 17L15 17L15 19L14 19L14 20L12 20L12 19L13 19L13 18L11 18L11 19L10 19L10 20L11 20L11 21L12 21L12 24L13 24L13 25L14 25L14 24L13 24L13 23L15 23L15 25L16 25L16 24L18 24L18 25L20 25L20 22L21 22L21 23L22 23L22 21L23 21L23 22L24 22L24 24L23 24L23 25L25 25L25 21L23 21L23 20L22 20L22 19L23 19L23 18L24 18L24 20L25 20L25 18L24 18L24 17L25 17L25 16L22 16L22 17L21 17L21 16L20 16L20 15L19 15L19 14L20 14L20 13L22 13L22 12L20 12L20 11L21 11L21 10L20 10L20 8L19 8L19 10L18 10L18 11L16 11L16 10L17 10L17 9L18 9L18 8L17 8L17 4L16 4L16 2L17 2L17 0L16 0L16 1L15 1L15 0L14 0L14 1L11 1L11 2L10 2L10 0ZM14 1L14 2L12 2L12 4L13 4L13 3L15 3L15 1ZM10 3L10 4L11 4L11 3ZM8 5L8 7L9 7L9 5ZM21 8L21 9L22 9L22 11L24 11L24 13L23 13L23 14L24 14L24 15L25 15L25 14L24 14L24 13L25 13L25 9L24 9L24 8L23 8L23 9L22 9L22 8ZM2 9L2 12L3 12L3 9ZM6 9L6 10L7 10L7 11L6 11L6 12L7 12L7 11L8 11L8 9ZM15 9L15 10L16 10L16 9ZM12 11L12 13L13 13L13 12L14 12L14 11ZM10 12L10 13L11 13L11 12ZM16 12L16 13L15 13L15 14L16 14L16 13L17 13L17 12ZM18 13L18 14L17 14L17 16L19 16L19 15L18 15L18 14L19 14L19 13ZM21 14L21 15L22 15L22 14ZM6 15L6 16L7 16L7 15ZM2 16L2 17L3 17L3 16ZM17 17L17 20L20 20L20 17ZM22 17L22 18L23 18L23 17ZM18 18L18 19L19 19L19 18ZM15 19L15 20L14 20L14 21L13 21L13 22L14 22L14 21L15 21L15 20L16 20L16 19ZM8 20L8 25L11 25L11 24L9 24L9 22L10 22L10 23L11 23L11 22L10 22L10 21L9 21L9 20ZM16 21L16 23L19 23L19 22L20 22L20 21L19 21L19 22L17 22L17 21ZM21 24L21 25L22 25L22 24ZM0 0L0 7L7 7L7 0ZM1 1L1 6L6 6L6 1ZM2 2L2 5L5 5L5 2ZM18 0L18 7L25 7L25 0ZM19 1L19 6L24 6L24 1ZM20 2L20 5L23 5L23 2ZM0 18L0 25L7 25L7 18ZM1 19L1 24L6 24L6 19ZM2 20L2 23L5 23L5 20Z" fill="#282828"/></g></g></svg>
