<?xml version="1.0" encoding="UTF-8"?>
<svg xmlns="http://www.w3.org/2000/svg" version="1.1" width="90" height="90" viewBox="0 0 90 90"><rect x="0" y="0" width="90" height="90" fill="#ffffff"/><g transform="scale(2.903)"><g transform="translate(1,1)"><path fill-rule="evenodd" d="M9 0L9 1L10 1L10 0ZM12 0L12 2L9 2L9 3L8 3L8 5L9 5L9 6L8 6L8 7L9 7L9 9L10 9L10 10L8 10L8 12L9 12L9 15L8 15L8 16L9 16L9 17L7 17L7 16L6 16L6 15L7 15L7 14L8 14L8 13L7 13L7 12L6 12L6 11L7 11L7 10L6 10L6 9L8 9L8 8L5 8L5 9L2 9L2 8L0 8L0 9L2 9L2 10L0 10L0 11L1 11L1 12L0 12L0 21L1 21L1 19L4 19L4 21L7 21L7 20L8 20L8 24L9 24L9 25L10 25L10 23L11 23L11 24L12 24L12 25L14 25L14 26L13 26L13 27L14 27L14 26L15 26L15 28L14 28L14 29L15 29L15 28L16 28L16 26L17 26L17 23L19 23L19 25L18 25L18 27L21 27L21 28L22 28L22 29L23 29L23 28L25 28L25 27L28 27L28 28L29 28L29 27L28 27L28 26L29 26L29 23L28 23L28 21L26 21L26 22L25 22L25 20L26 20L26 19L28 19L28 20L29 20L29 17L28 17L28 16L29 16L29 15L27 15L27 14L28 14L28 13L27 13L27 14L26 14L26 17L27 17L27 18L25 18L25 17L24 17L24 16L25 16L25 15L24 15L24 16L23 16L23 15L22 15L22 14L25 14L25 13L24 13L24 12L23 12L23 11L25 11L25 12L26 12L26 11L25 11L25 10L27 10L27 9L26 9L26 8L24 8L24 9L23 9L23 11L22 11L22 10L20 10L20 9L21 9L21 8L20 8L20 7L21 7L21 6L20 6L20 7L19 7L19 6L18 6L18 8L17 8L17 5L21 5L21 3L19 3L19 0L17 0L17 1L16 1L16 0ZM20 0L20 2L21 2L21 0ZM13 1L13 2L12 2L12 3L11 3L11 4L10 4L10 3L9 3L9 5L11 5L11 7L10 7L10 6L9 6L9 7L10 7L10 8L11 8L11 9L12 9L12 10L10 10L10 11L9 11L9 12L10 12L10 11L11 11L11 12L12 12L12 14L11 14L11 15L12 15L12 17L9 17L9 18L7 18L7 17L6 17L6 16L5 16L5 15L6 15L6 14L7 14L7 13L6 13L6 12L5 12L5 11L6 11L6 10L4 10L4 12L5 12L5 13L6 13L6 14L5 14L5 15L4 15L4 13L3 13L3 15L1 15L1 16L2 16L2 17L1 17L1 18L2 18L2 17L4 17L4 19L5 19L5 17L6 17L6 18L7 18L7 19L6 19L6 20L7 20L7 19L8 19L8 20L9 20L9 21L10 21L10 22L9 22L9 23L10 23L10 22L11 22L11 23L12 23L12 24L14 24L14 25L15 25L15 26L16 26L16 25L15 25L15 24L16 24L16 23L17 23L17 22L20 22L20 20L19 20L19 19L16 19L16 20L15 20L15 21L14 21L14 19L13 19L13 18L16 18L16 17L17 17L17 16L18 16L18 17L20 17L20 16L21 16L21 18L20 18L20 19L21 19L21 20L22 20L22 17L23 17L23 16L22 16L22 15L20 15L20 14L19 14L19 12L21 12L21 11L20 11L20 10L18 10L18 11L17 11L17 8L16 8L16 9L15 9L15 8L14 8L14 6L15 6L15 7L16 7L16 5L14 5L14 4L17 4L17 3L18 3L18 4L19 4L19 3L18 3L18 1L17 1L17 3L16 3L16 1L15 1L15 3L14 3L14 1ZM11 4L11 5L13 5L13 6L12 6L12 9L14 9L14 10L15 10L15 12L16 12L16 14L15 14L15 15L14 15L14 14L13 14L13 15L14 15L14 17L16 17L16 16L15 16L15 15L17 15L17 11L16 11L16 10L15 10L15 9L14 9L14 8L13 8L13 6L14 6L14 5L13 5L13 4ZM18 8L18 9L19 9L19 8ZM28 9L28 10L29 10L29 9ZM12 10L12 12L13 12L13 13L14 13L14 12L13 12L13 10ZM2 11L2 12L3 12L3 11ZM27 11L27 12L29 12L29 11ZM21 13L21 14L22 14L22 13ZM3 15L3 16L4 16L4 15ZM9 15L9 16L10 16L10 15ZM10 18L10 19L9 19L9 20L10 20L10 19L11 19L11 20L12 20L12 21L13 21L13 20L12 20L12 18ZM17 20L17 21L18 21L18 20ZM21 21L21 24L24 24L24 21ZM12 22L12 23L14 23L14 24L15 24L15 23L16 23L16 22L15 22L15 23L14 23L14 22ZM22 22L22 23L23 23L23 22ZM19 25L19 26L20 26L20 25ZM22 25L22 26L27 26L27 25ZM9 26L9 27L8 27L8 29L9 29L9 28L10 28L10 27L11 27L11 29L13 29L13 28L12 28L12 27L11 27L11 26ZM22 27L22 28L23 28L23 27ZM19 28L19 29L20 29L20 28ZM26 28L26 29L27 29L27 28ZM0 0L0 7L7 7L7 0ZM1 1L1 6L6 6L6 1ZM2 2L2 5L5 5L5 2ZM22 0L22 7L29 7L29 0ZM23 1L23 6L28 6L28 1ZM24 2L24 5L27 5L27 2ZM0 22L0 29L7 29L7 22ZM1 23L1 28L6 28L6 23ZM2 24L2 27L5 27L5 24Z" fill="#282828"/></g></g></svg>
