<?xml version="1.0" encoding="UTF-8"?>
<svg xmlns="http://www.w3.org/2000/svg" version="1.1" width="90" height="90" viewBox="0 0 90 90"><rect x="0" y="0" width="90" height="90" fill="#ffffff"/><g transform="scale(2.903)"><g transform="translate(1,1)"><path fill-rule="evenodd" d="M8 0L8 4L9 4L9 5L8 5L8 7L9 7L9 6L10 6L10 9L11 9L11 10L8 10L8 9L7 9L7 8L4 8L4 9L7 9L7 10L4 10L4 11L3 11L3 10L2 10L2 8L0 8L0 9L1 9L1 10L0 10L0 13L1 13L1 10L2 10L2 11L3 11L3 13L4 13L4 11L7 11L7 12L6 12L6 13L5 13L5 14L4 14L4 15L2 15L2 14L1 14L1 15L0 15L0 18L1 18L1 16L3 16L3 17L2 17L2 18L3 18L3 17L4 17L4 16L5 16L5 18L4 18L4 19L5 19L5 21L8 21L8 22L10 22L10 20L11 20L11 19L13 19L13 20L12 20L12 21L11 21L11 24L9 24L9 23L8 23L8 25L9 25L9 26L10 26L10 27L12 27L12 25L13 25L13 26L14 26L14 27L16 27L16 29L17 29L17 28L19 28L19 27L20 27L20 29L21 29L21 27L22 27L22 25L26 25L26 23L29 23L29 21L28 21L28 19L29 19L29 17L26 17L26 16L25 16L25 17L24 17L24 16L23 16L23 15L22 15L22 14L26 14L26 15L27 15L27 14L28 14L28 16L29 16L29 14L28 14L28 13L29 13L29 12L27 12L27 13L22 13L22 10L25 10L25 9L26 9L26 10L27 10L27 9L29 9L29 8L25 8L25 9L24 9L24 8L23 8L23 9L21 9L21 8L19 8L19 9L18 9L18 10L17 10L17 8L18 8L18 7L19 7L19 6L20 6L20 7L21 7L21 6L20 6L20 3L21 3L21 1L20 1L20 0L18 0L18 1L19 1L19 3L18 3L18 2L17 2L17 0L16 0L16 2L17 2L17 3L16 3L16 10L15 10L15 6L14 6L14 9L13 9L13 8L12 8L12 7L13 7L13 6L12 6L12 7L11 7L11 5L15 5L15 3L14 3L14 4L13 4L13 0L10 0L10 1L12 1L12 3L10 3L10 2L9 2L9 0ZM14 0L14 1L15 1L15 0ZM10 4L10 5L11 5L11 4ZM17 6L17 7L18 7L18 6ZM11 8L11 9L12 9L12 12L11 12L11 11L10 11L10 12L9 12L9 11L8 11L8 10L7 10L7 11L8 11L8 12L7 12L7 13L6 13L6 14L8 14L8 13L9 13L9 16L8 16L8 15L6 15L6 16L8 16L8 17L9 17L9 18L8 18L8 20L10 20L10 17L11 17L11 18L13 18L13 16L12 16L12 15L11 15L11 14L10 14L10 13L12 13L12 14L13 14L13 12L14 12L14 13L15 13L15 14L14 14L14 15L15 15L15 14L16 14L16 15L18 15L18 16L14 16L14 17L15 17L15 18L14 18L14 19L15 19L15 22L14 22L14 20L13 20L13 21L12 21L12 22L13 22L13 23L12 23L12 24L13 24L13 25L16 25L16 27L17 27L17 26L18 26L18 25L19 25L19 26L21 26L21 25L19 25L19 24L14 24L14 23L15 23L15 22L16 22L16 21L17 21L17 23L18 23L18 22L20 22L20 21L19 21L19 20L20 20L20 18L22 18L22 17L23 17L23 16L22 16L22 15L20 15L20 14L22 14L22 13L21 13L21 11L20 11L20 10L21 10L21 9L19 9L19 11L20 11L20 13L19 13L19 12L17 12L17 13L19 13L19 15L18 15L18 14L16 14L16 11L17 11L17 10L16 10L16 11L15 11L15 10L13 10L13 9L12 9L12 8ZM28 10L28 11L29 11L29 10ZM23 11L23 12L24 12L24 11ZM25 11L25 12L26 12L26 11ZM9 16L9 17L10 17L10 16ZM11 16L11 17L12 17L12 16ZM20 16L20 17L21 17L21 16ZM6 17L6 18L5 18L5 19L6 19L6 20L7 20L7 19L6 19L6 18L7 18L7 17ZM16 17L16 18L15 18L15 19L16 19L16 20L19 20L19 17L18 17L18 19L17 19L17 17ZM23 18L23 20L25 20L25 19L26 19L26 21L25 21L25 23L26 23L26 21L27 21L27 18L25 18L25 19L24 19L24 18ZM0 20L0 21L4 21L4 20ZM21 21L21 24L24 24L24 21ZM22 22L22 23L23 23L23 22ZM27 25L27 26L25 26L25 27L23 27L23 29L24 29L24 28L25 28L25 29L26 29L26 27L27 27L27 29L28 29L28 28L29 28L29 25ZM8 27L8 29L11 29L11 28L9 28L9 27ZM0 0L0 7L7 7L7 0ZM1 1L1 6L6 6L6 1ZM2 2L2 5L5 5L5 2ZM22 0L22 7L29 7L29 0ZM23 1L23 6L28 6L28 1ZM24 2L24 5L27 5L27 2ZM0 22L0 29L7 29L7 22ZM1 23L1 28L6 28L6 23ZM2 24L2 27L5 27L5 24Z" fill="#282828"/></g></g></svg>
