<?xml version="1.0" encoding="UTF-8"?>
<svg xmlns="http://www.w3.org/2000/svg" version="1.1" width="90" height="90" viewBox="0 0 90 90"><rect x="0" y="0" width="90" height="90" fill="#ffffff"/><g transform="scale(3.333)"><g transform="translate(1,1)"><path fill-rule="evenodd" d="M10 0L10 1L9 1L9 2L8 2L8 3L9 3L9 5L10 5L10 7L11 7L11 8L12 8L12 9L11 9L11 10L10 10L10 9L9 9L9 6L8 6L8 8L4 8L4 9L3 9L3 8L0 8L0 10L2 10L2 11L3 11L3 10L4 10L4 12L3 12L3 13L4 13L4 14L2 14L2 13L1 13L1 14L0 14L0 15L1 15L1 16L0 16L0 17L1 17L1 16L2 16L2 17L4 17L4 16L6 16L6 17L8 17L8 21L10 21L10 22L11 22L11 21L10 21L10 19L11 19L11 16L12 16L12 15L11 15L11 14L12 14L12 13L13 13L13 16L16 16L16 17L14 17L14 18L12 18L12 20L13 20L13 22L14 22L14 23L13 23L13 24L12 24L12 23L10 23L10 25L11 25L11 24L12 24L12 25L14 25L14 23L15 23L15 25L19 25L19 23L20 23L20 25L21 25L21 23L20 23L20 21L21 21L21 22L22 22L22 23L23 23L23 24L22 24L22 25L25 25L25 24L24 24L24 23L25 23L25 22L24 22L24 23L23 23L23 22L22 22L22 21L21 21L21 20L22 20L22 19L21 19L21 18L22 18L22 16L20 16L20 14L21 14L21 13L19 13L19 12L21 12L21 11L22 11L22 10L23 10L23 11L25 11L25 10L23 10L23 8L22 8L22 10L19 10L19 8L16 8L16 9L15 9L15 10L14 10L14 11L13 11L13 9L14 9L14 7L15 7L15 6L14 6L14 7L13 7L13 3L12 3L12 2L11 2L11 3L12 3L12 5L10 5L10 3L9 3L9 2L10 2L10 1L11 1L11 0ZM14 0L14 1L13 1L13 2L14 2L14 4L15 4L15 5L16 5L16 7L17 7L17 4L15 4L15 2L16 2L16 3L17 3L17 1L16 1L16 0ZM11 6L11 7L12 7L12 8L13 8L13 7L12 7L12 6ZM2 9L2 10L3 10L3 9ZM5 9L5 10L7 10L7 11L6 11L6 12L9 12L9 13L8 13L8 14L7 14L7 13L6 13L6 14L7 14L7 15L6 15L6 16L8 16L8 17L10 17L10 12L9 12L9 11L10 11L10 10L9 10L9 9L8 9L8 10L7 10L7 9ZM8 10L8 11L9 11L9 10ZM16 10L16 11L15 11L15 12L14 12L14 14L15 14L15 15L16 15L16 16L17 16L17 15L18 15L18 13L17 13L17 15L16 15L16 14L15 14L15 13L16 13L16 12L17 12L17 10ZM0 11L0 12L1 12L1 11ZM11 11L11 12L12 12L12 11ZM18 11L18 12L19 12L19 11ZM22 12L22 13L23 13L23 12ZM24 12L24 15L23 15L23 14L22 14L22 15L23 15L23 17L24 17L24 19L23 19L23 20L25 20L25 12ZM1 14L1 15L2 15L2 14ZM8 14L8 16L9 16L9 14ZM17 17L17 20L20 20L20 17ZM14 18L14 19L15 19L15 18ZM18 18L18 19L19 19L19 18ZM14 20L14 21L15 21L15 23L16 23L16 20ZM17 21L17 23L19 23L19 21ZM8 22L8 25L9 25L9 22ZM0 0L0 7L7 7L7 0ZM1 1L1 6L6 6L6 1ZM2 2L2 5L5 5L5 2ZM18 0L18 7L25 7L25 0ZM19 1L19 6L24 6L24 1ZM20 2L20 5L23 5L23 2ZM0 18L0 25L7 25L7 18ZM1 19L1 24L6 24L6 19ZM2 20L2 23L5 23L5 20Z" fill="#282828"/></g></g></svg>
