<?xml version="1.0" encoding="UTF-8"?>
<svg xmlns="http://www.w3.org/2000/svg" version="1.1" width="90" height="90" viewBox="0 0 90 90"><rect x="0" y="0" width="90" height="90" fill="#ffffff"/><g transform="scale(2.903)"><g transform="translate(1,1)"><path fill-rule="evenodd" d="M8 0L8 1L10 1L10 0ZM15 0L15 1L14 1L14 2L11 2L11 4L10 4L10 3L9 3L9 2L8 2L8 5L9 5L9 6L8 6L8 7L9 7L9 8L8 8L8 13L7 13L7 12L6 12L6 11L7 11L7 10L6 10L6 11L2 11L2 13L0 13L0 14L1 14L1 15L0 15L0 16L1 16L1 15L2 15L2 14L3 14L3 12L5 12L5 14L4 14L4 15L3 15L3 16L2 16L2 20L1 20L1 21L2 21L2 20L3 20L3 19L5 19L5 18L6 18L6 19L7 19L7 20L5 20L5 21L8 21L8 22L9 22L9 23L10 23L10 25L11 25L11 27L10 27L10 26L9 26L9 25L8 25L8 29L9 29L9 27L10 27L10 29L11 29L11 28L12 28L12 29L13 29L13 28L12 28L12 26L13 26L13 27L14 27L14 29L15 29L15 28L16 28L16 29L17 29L17 28L16 28L16 27L20 27L20 25L21 25L21 26L22 26L22 25L23 25L23 27L22 27L22 28L21 28L21 29L23 29L23 28L25 28L25 29L26 29L26 27L27 27L27 29L28 29L28 27L29 27L29 25L28 25L28 24L29 24L29 23L27 23L27 24L26 24L26 25L25 25L25 23L26 23L26 22L27 22L27 21L28 21L28 22L29 22L29 19L28 19L28 17L27 17L27 19L25 19L25 20L23 20L23 19L24 19L24 17L25 17L25 18L26 18L26 17L25 17L25 15L27 15L27 16L29 16L29 14L28 14L28 13L29 13L29 12L28 12L28 9L29 9L29 8L28 8L28 9L27 9L27 8L24 8L24 9L22 9L22 8L20 8L20 7L21 7L21 5L20 5L20 2L19 2L19 1L21 1L21 0ZM16 1L16 3L12 3L12 5L10 5L10 6L9 6L9 7L10 7L10 8L9 8L9 9L10 9L10 10L9 10L9 12L10 12L10 13L9 13L9 14L10 14L10 13L11 13L11 11L14 11L14 10L15 10L15 9L16 9L16 8L17 8L17 7L18 7L18 8L19 8L19 7L20 7L20 6L19 6L19 7L18 7L18 6L17 6L17 4L16 4L16 3L18 3L18 5L19 5L19 2L17 2L17 1ZM13 4L13 5L12 5L12 7L11 7L11 6L10 6L10 7L11 7L11 8L12 8L12 7L13 7L13 9L15 9L15 5L14 5L14 4ZM13 5L13 7L14 7L14 5ZM16 6L16 7L17 7L17 6ZM0 8L0 9L2 9L2 10L4 10L4 8ZM6 8L6 9L7 9L7 8ZM17 9L17 10L16 10L16 12L12 12L12 14L11 14L11 16L10 16L10 17L9 17L9 19L10 19L10 20L12 20L12 19L10 19L10 18L12 18L12 17L14 17L14 18L13 18L13 20L14 20L14 21L15 21L15 22L14 22L14 23L11 23L11 25L12 25L12 24L13 24L13 26L14 26L14 27L16 27L16 26L14 26L14 24L16 24L16 25L17 25L17 26L18 26L18 25L19 25L19 23L17 23L17 24L16 24L16 22L18 22L18 21L17 21L17 20L15 20L15 17L16 17L16 16L17 16L17 18L16 18L16 19L20 19L20 17L18 17L18 16L20 16L20 15L22 15L22 17L21 17L21 18L22 18L22 17L23 17L23 16L24 16L24 15L25 15L25 14L26 14L26 13L25 13L25 12L27 12L27 13L28 13L28 12L27 12L27 11L26 11L26 10L27 10L27 9L26 9L26 10L25 10L25 12L23 12L23 10L22 10L22 13L21 13L21 11L20 11L20 9ZM0 10L0 12L1 12L1 10ZM19 11L19 12L20 12L20 11ZM17 12L17 13L18 13L18 12ZM6 13L6 14L5 14L5 15L4 15L4 16L5 16L5 17L6 17L6 18L7 18L7 19L8 19L8 18L7 18L7 17L8 17L8 16L9 16L9 15L8 15L8 14L7 14L7 13ZM13 13L13 14L12 14L12 16L11 16L11 17L12 17L12 16L14 16L14 15L15 15L15 14L14 14L14 13ZM19 13L19 15L20 15L20 14L21 14L21 13ZM22 13L22 15L24 15L24 14L23 14L23 13ZM6 14L6 15L7 15L7 14ZM13 14L13 15L14 15L14 14ZM16 14L16 15L17 15L17 14ZM6 16L6 17L7 17L7 16ZM3 17L3 18L4 18L4 17ZM0 18L0 19L1 19L1 18ZM21 19L21 20L22 20L22 19ZM27 19L27 20L26 20L26 21L25 21L25 22L26 22L26 21L27 21L27 20L28 20L28 19ZM8 20L8 21L9 21L9 22L12 22L12 21L9 21L9 20ZM19 20L19 22L20 22L20 20ZM21 21L21 24L24 24L24 21ZM22 22L22 23L23 23L23 22ZM26 25L26 26L24 26L24 27L26 27L26 26L27 26L27 27L28 27L28 25ZM18 28L18 29L20 29L20 28ZM0 0L0 7L7 7L7 0ZM1 1L1 6L6 6L6 1ZM2 2L2 5L5 5L5 2ZM22 0L22 7L29 7L29 0ZM23 1L23 6L28 6L28 1ZM24 2L24 5L27 5L27 2ZM0 22L0 29L7 29L7 22ZM1 23L1 28L6 28L6 23ZM2 24L2 27L5 27L5 24Z" fill="#282828"/></g></g></svg>
