<?xml version="1.0" encoding="UTF-8"?>
<svg xmlns="http://www.w3.org/2000/svg" version="1.1" width="90" height="90" viewBox="0 0 90 90"><rect x="0" y="0" width="90" height="90" fill="#ffffff"/><g transform="scale(2.903)"><g transform="translate(1,1)"><path fill-rule="evenodd" d="M8 0L8 1L10 1L10 0ZM15 0L15 1L14 1L14 2L11 2L11 4L10 4L10 3L9 3L9 2L8 2L8 5L9 5L9 6L8 6L8 7L9 7L9 8L8 8L8 9L7 9L7 8L6 8L6 9L7 9L7 10L6 10L6 11L7 11L7 10L10 10L10 9L9 9L9 8L10 8L10 7L11 7L11 8L12 8L12 7L13 7L13 9L15 9L15 10L14 10L14 11L11 11L11 13L10 13L10 12L9 12L9 11L8 11L8 12L6 12L6 13L5 13L5 14L3 14L3 13L2 13L2 12L0 12L0 15L1 15L1 16L2 16L2 20L1 20L1 21L3 21L3 20L6 20L6 21L8 21L8 22L9 22L9 21L12 21L12 22L10 22L10 23L14 23L14 22L15 22L15 21L14 21L14 20L13 20L13 18L14 18L14 17L12 17L12 16L14 16L14 15L15 15L15 14L14 14L14 13L13 13L13 14L12 14L12 12L16 12L16 10L17 10L17 9L18 9L18 12L17 12L17 14L16 14L16 15L17 15L17 14L18 14L18 12L22 12L22 10L20 10L20 8L21 8L21 9L22 9L22 8L21 8L21 6L20 6L20 5L19 5L19 4L20 4L20 3L19 3L19 1L21 1L21 0ZM16 1L16 3L12 3L12 5L10 5L10 6L9 6L9 7L10 7L10 6L11 6L11 7L12 7L12 5L13 5L13 7L14 7L14 5L15 5L15 9L16 9L16 8L17 8L17 7L18 7L18 5L17 5L17 4L16 4L16 3L18 3L18 4L19 4L19 3L18 3L18 1ZM13 4L13 5L14 5L14 4ZM16 6L16 7L17 7L17 6ZM19 6L19 8L20 8L20 6ZM0 8L0 9L2 9L2 10L3 10L3 11L5 11L5 9L4 9L4 8ZM24 8L24 9L23 9L23 11L24 11L24 10L26 10L26 11L27 11L27 12L25 12L25 13L26 13L26 14L25 14L25 15L27 15L27 16L29 16L29 14L28 14L28 13L29 13L29 12L28 12L28 9L29 9L29 8L28 8L28 9L27 9L27 8ZM3 9L3 10L4 10L4 9ZM26 9L26 10L27 10L27 9ZM0 10L0 11L1 11L1 10ZM19 10L19 11L20 11L20 10ZM8 12L8 14L7 14L7 13L6 13L6 14L7 14L7 15L6 15L6 16L7 16L7 15L10 15L10 13L9 13L9 12ZM27 12L27 13L28 13L28 12ZM19 13L19 15L20 15L20 22L19 22L19 20L18 20L18 17L19 17L19 16L18 16L18 17L17 17L17 16L16 16L16 17L15 17L15 20L17 20L17 21L18 21L18 24L19 24L19 23L20 23L20 25L21 25L21 26L22 26L22 25L23 25L23 26L24 26L24 27L23 27L23 28L22 28L22 29L24 29L24 27L25 27L25 28L26 28L26 29L28 29L28 27L29 27L29 25L28 25L28 24L29 24L29 23L27 23L27 24L26 24L26 25L25 25L25 21L26 21L26 22L27 22L27 21L28 21L28 22L29 22L29 19L28 19L28 17L27 17L27 19L24 19L24 17L25 17L25 18L26 18L26 17L25 17L25 16L24 16L24 15L23 15L23 18L22 18L22 19L23 19L23 20L21 20L21 17L22 17L22 16L21 16L21 14L20 14L20 13ZM22 13L22 14L24 14L24 13ZM1 14L1 15L3 15L3 14ZM11 14L11 16L9 16L9 18L8 18L8 17L5 17L5 18L7 18L7 19L6 19L6 20L7 20L7 19L8 19L8 21L9 21L9 20L12 20L12 19L9 19L9 18L10 18L10 17L11 17L11 18L12 18L12 17L11 17L11 16L12 16L12 14ZM13 14L13 15L14 15L14 14ZM3 17L3 19L4 19L4 17ZM0 18L0 19L1 19L1 18ZM16 18L16 19L17 19L17 18ZM27 19L27 20L26 20L26 21L27 21L27 20L28 20L28 19ZM21 21L21 24L24 24L24 21ZM16 22L16 24L14 24L14 26L13 26L13 24L12 24L12 25L11 25L11 24L9 24L9 25L8 25L8 29L11 29L11 28L12 28L12 29L13 29L13 28L12 28L12 26L13 26L13 27L14 27L14 29L15 29L15 28L16 28L16 29L17 29L17 28L16 28L16 27L19 27L19 28L18 28L18 29L21 29L21 27L20 27L20 26L19 26L19 25L18 25L18 26L17 26L17 25L16 25L16 24L17 24L17 22ZM22 22L22 23L23 23L23 22ZM26 25L26 26L25 26L25 27L26 27L26 26L27 26L27 27L28 27L28 25ZM14 26L14 27L16 27L16 26ZM9 27L9 28L11 28L11 27ZM0 0L0 7L7 7L7 0ZM1 1L1 6L6 6L6 1ZM2 2L2 5L5 5L5 2ZM22 0L22 7L29 7L29 0ZM23 1L23 6L28 6L28 1ZM24 2L24 5L27 5L27 2ZM0 22L0 29L7 29L7 22ZM1 23L1 28L6 28L6 23ZM2 24L2 27L5 27L5 24Z" fill="#282828"/></g></g></svg>
