<?xml version="1.0" encoding="UTF-8"?>
<svg xmlns="http://www.w3.org/2000/svg" version="1.1" width="90" height="90" viewBox="0 0 90 90"><rect x="0" y="0" width="90" height="90" fill="#ffffff"/><g transform="scale(3.333)"><g transform="translate(1,1)"><path fill-rule="evenodd" d="M9 0L9 1L8 1L8 2L9 2L9 3L8 3L8 4L10 4L10 7L11 7L11 4L12 4L12 5L13 5L13 4L14 4L14 5L15 5L15 3L16 3L16 2L17 2L17 0L13 0L13 1L11 1L11 2L10 2L10 0ZM12 2L12 4L13 4L13 3L14 3L14 2ZM10 3L10 4L11 4L11 3ZM8 5L8 7L9 7L9 5ZM16 5L16 7L17 7L17 5ZM12 6L12 9L15 9L15 10L16 10L16 11L17 11L17 12L15 12L15 11L14 11L14 12L13 12L13 13L12 13L12 11L13 11L13 10L11 10L11 11L10 11L10 9L11 9L11 8L6 8L6 9L9 9L9 11L8 11L8 10L6 10L6 11L7 11L7 12L6 12L6 13L7 13L7 12L9 12L9 14L10 14L10 15L9 15L9 16L10 16L10 17L8 17L8 16L5 16L5 17L8 17L8 19L9 19L9 20L8 20L8 25L9 25L9 20L10 20L10 22L11 22L11 21L12 21L12 22L13 22L13 23L12 23L12 25L13 25L13 24L14 24L14 25L15 25L15 24L17 24L17 25L19 25L19 23L20 23L20 24L21 24L21 25L22 25L22 24L21 24L21 23L22 23L22 21L23 21L23 22L24 22L24 24L23 24L23 25L25 25L25 20L22 20L22 19L23 19L23 18L24 18L24 19L25 19L25 18L24 18L24 17L25 17L25 16L22 16L22 17L21 17L21 15L22 15L22 14L20 14L20 13L19 13L19 12L18 12L18 10L19 10L19 11L20 11L20 12L21 12L21 13L22 13L22 12L21 12L21 10L20 10L20 8L19 8L19 9L18 9L18 8L17 8L17 9L16 9L16 8L13 8L13 6ZM14 6L14 7L15 7L15 6ZM0 8L0 9L2 9L2 10L3 10L3 11L1 11L1 10L0 10L0 12L2 12L2 13L0 13L0 17L1 17L1 14L2 14L2 13L3 13L3 12L5 12L5 8ZM21 8L21 9L22 9L22 11L24 11L24 12L23 12L23 14L24 14L24 15L25 15L25 14L24 14L24 13L25 13L25 9L24 9L24 8L23 8L23 9L22 9L22 8ZM3 9L3 10L4 10L4 9ZM17 9L17 10L18 10L18 9ZM10 12L10 13L11 13L11 18L9 18L9 19L11 19L11 18L13 18L13 19L12 19L12 21L14 21L14 22L15 22L15 23L14 23L14 24L15 24L15 23L16 23L16 22L17 22L17 23L18 23L18 22L17 22L17 21L16 21L16 22L15 22L15 20L16 20L16 18L15 18L15 19L14 19L14 17L16 17L16 16L18 16L18 14L19 14L19 13L18 13L18 12L17 12L17 15L16 15L16 16L15 16L15 15L13 15L13 14L14 14L14 13L15 13L15 14L16 14L16 13L15 13L15 12L14 12L14 13L13 13L13 14L12 14L12 13L11 13L11 12ZM4 13L4 15L3 15L3 16L2 16L2 17L3 17L3 16L4 16L4 15L5 15L5 13ZM6 14L6 15L7 15L7 14ZM12 15L12 17L14 17L14 16L13 16L13 15ZM17 17L17 20L20 20L20 17ZM22 17L22 18L23 18L23 17ZM18 18L18 19L19 19L19 18ZM19 21L19 22L20 22L20 23L21 23L21 21ZM10 24L10 25L11 25L11 24ZM0 0L0 7L7 7L7 0ZM1 1L1 6L6 6L6 1ZM2 2L2 5L5 5L5 2ZM18 0L18 7L25 7L25 0ZM19 1L19 6L24 6L24 1ZM20 2L20 5L23 5L23 2ZM0 18L0 25L7 25L7 18ZM1 19L1 24L6 24L6 19ZM2 20L2 23L5 23L5 20Z" fill="#282828"/></g></g></svg>
