<?xml version="1.0" encoding="UTF-8"?>
<svg xmlns="http://www.w3.org/2000/svg" version="1.1" width="90" height="90" viewBox="0 0 90 90"><rect x="0" y="0" width="90" height="90" fill="#ffffff"/><g transform="scale(3.333)"><g transform="translate(1,1)"><path fill-rule="evenodd" d="M8 0L8 1L10 1L10 0ZM13 0L13 2L11 2L11 4L10 4L10 3L9 3L9 2L8 2L8 5L9 5L9 6L8 6L8 7L9 7L9 8L8 8L8 9L9 9L9 10L6 10L6 9L7 9L7 8L6 8L6 9L4 9L4 8L0 8L0 11L1 11L1 12L0 12L0 13L2 13L2 14L1 14L1 15L0 15L0 16L1 16L1 15L5 15L5 14L3 14L3 12L4 12L4 10L6 10L6 11L5 11L5 13L7 13L7 12L6 12L6 11L9 11L9 10L10 10L10 9L9 9L9 8L10 8L10 7L11 7L11 8L12 8L12 7L13 7L13 6L14 6L14 9L15 9L15 10L14 10L14 11L11 11L11 13L10 13L10 12L8 12L8 14L6 14L6 15L7 15L7 16L6 16L6 17L8 17L8 18L9 18L9 20L10 20L10 21L8 21L8 25L9 25L9 24L10 24L10 25L11 25L11 23L14 23L14 20L16 20L16 21L15 21L15 22L16 22L16 21L20 21L20 22L17 22L17 23L18 23L18 24L17 24L17 25L20 25L20 24L19 24L19 23L21 23L21 25L22 25L22 24L23 24L23 25L25 25L25 24L23 24L23 23L24 23L24 22L25 22L25 21L24 21L24 20L25 20L25 17L23 17L23 16L21 16L21 15L20 15L20 14L22 14L22 15L23 15L23 14L22 14L22 12L23 12L23 13L24 13L24 14L25 14L25 12L23 12L23 10L25 10L25 8L24 8L24 9L23 9L23 8L20 8L20 9L19 9L19 11L18 11L18 8L16 8L16 7L17 7L17 6L16 6L16 7L15 7L15 6L14 6L14 5L12 5L12 3L13 3L13 4L15 4L15 3L16 3L16 2L17 2L17 0ZM14 1L14 2L16 2L16 1ZM16 4L16 5L17 5L17 4ZM10 5L10 6L9 6L9 7L10 7L10 6L11 6L11 7L12 7L12 5ZM1 9L1 10L2 10L2 11L3 11L3 9ZM20 9L20 10L22 10L22 9ZM15 10L15 11L16 11L16 12L14 12L14 13L13 13L13 12L12 12L12 14L11 14L11 15L10 15L10 14L8 14L8 16L9 16L9 17L10 17L10 19L11 19L11 20L12 20L12 19L11 19L11 18L12 18L12 17L13 17L13 16L15 16L15 18L16 18L16 16L17 16L17 15L18 15L18 16L19 16L19 13L20 13L20 12L18 12L18 14L17 14L17 15L16 15L16 13L17 13L17 11L16 11L16 10ZM12 14L12 16L11 16L11 17L12 17L12 16L13 16L13 14ZM14 14L14 15L15 15L15 14ZM2 16L2 17L3 17L3 16ZM17 17L17 20L20 20L20 17ZM21 17L21 18L22 18L22 17ZM13 18L13 20L14 20L14 18ZM18 18L18 19L19 19L19 18ZM23 18L23 19L21 19L21 21L22 21L22 22L21 22L21 23L23 23L23 19L24 19L24 18ZM10 21L10 23L11 23L11 22L12 22L12 21ZM12 24L12 25L13 25L13 24ZM14 24L14 25L16 25L16 24ZM0 0L0 7L7 7L7 0ZM1 1L1 6L6 6L6 1ZM2 2L2 5L5 5L5 2ZM18 0L18 7L25 7L25 0ZM19 1L19 6L24 6L24 1ZM20 2L20 5L23 5L23 2ZM0 18L0 25L7 25L7 18ZM1 19L1 24L6 24L6 19ZM2 20L2 23L5 23L5 20Z" fill="#282828"/></g></g></svg>
