<?xml version="1.0" encoding="UTF-8"?>
<svg xmlns="http://www.w3.org/2000/svg" version="1.1" width="90" height="90" viewBox="0 0 90 90"><rect x="0" y="0" width="90" height="90" fill="#ffffff"/><g transform="scale(2.903)"><g transform="translate(1,1)"><path fill-rule="evenodd" d="M8 0L8 1L11 1L11 3L10 3L10 2L9 2L9 3L10 3L10 5L9 5L9 6L8 6L8 8L9 8L9 9L8 9L8 10L4 10L4 11L3 11L3 9L5 9L5 8L3 8L3 9L2 9L2 8L0 8L0 9L2 9L2 12L1 12L1 10L0 10L0 14L1 14L1 16L2 16L2 17L0 17L0 21L3 21L3 20L4 20L4 19L5 19L5 20L6 20L6 21L8 21L8 22L9 22L9 23L10 23L10 24L11 24L11 25L13 25L13 26L10 26L10 25L9 25L9 24L8 24L8 26L10 26L10 27L8 27L8 29L11 29L11 28L12 28L12 29L13 29L13 28L12 28L12 27L15 27L15 28L14 28L14 29L15 29L15 28L16 28L16 26L17 26L17 24L18 24L18 28L17 28L17 29L18 29L18 28L19 28L19 29L23 29L23 28L24 28L24 29L25 29L25 28L27 28L27 27L28 27L28 28L29 28L29 25L28 25L28 21L29 21L29 18L28 18L28 17L27 17L27 18L25 18L25 17L24 17L24 16L23 16L23 15L26 15L26 16L29 16L29 14L28 14L28 13L24 13L24 12L26 12L26 11L27 11L27 12L28 12L28 11L27 11L27 9L24 9L24 10L23 10L23 11L22 11L22 10L20 10L20 11L22 11L22 13L23 13L23 15L22 15L22 16L23 16L23 17L24 17L24 18L23 18L23 19L21 19L21 12L19 12L19 13L17 13L17 12L18 12L18 10L19 10L19 9L20 9L20 8L19 8L19 5L20 5L20 4L21 4L21 1L19 1L19 0L18 0L18 1L16 1L16 0L14 0L14 1L16 1L16 2L18 2L18 1L19 1L19 5L18 5L18 3L15 3L15 4L12 4L12 2L13 2L13 3L14 3L14 2L13 2L13 1L12 1L12 0ZM10 5L10 6L9 6L9 7L10 7L10 9L9 9L9 10L8 10L8 11L9 11L9 12L11 12L11 15L10 15L10 13L8 13L8 14L7 14L7 13L5 13L5 14L2 14L2 16L4 16L4 17L2 17L2 20L3 20L3 19L4 19L4 18L5 18L5 19L6 19L6 20L7 20L7 19L8 19L8 20L9 20L9 19L8 19L8 18L7 18L7 17L8 17L8 16L9 16L9 17L10 17L10 16L12 16L12 15L13 15L13 16L14 16L14 17L12 17L12 18L10 18L10 19L12 19L12 21L11 21L11 20L10 20L10 21L9 21L9 22L10 22L10 23L11 23L11 22L12 22L12 23L13 23L13 25L14 25L14 26L16 26L16 24L17 24L17 22L18 22L18 24L19 24L19 22L20 22L20 20L21 20L21 19L18 19L18 18L17 18L17 17L20 17L20 15L19 15L19 14L20 14L20 13L19 13L19 14L18 14L18 15L15 15L15 14L16 14L16 12L17 12L17 11L16 11L16 12L14 12L14 11L15 11L15 10L18 10L18 9L19 9L19 8L18 8L18 5L15 5L15 7L14 7L14 6L13 6L13 5L12 5L12 6L11 6L11 5ZM10 6L10 7L11 7L11 6ZM12 6L12 9L13 9L13 10L12 10L12 11L14 11L14 9L15 9L15 8L16 8L16 9L18 9L18 8L16 8L16 7L17 7L17 6L16 6L16 7L15 7L15 8L14 8L14 7L13 7L13 6ZM20 6L20 7L21 7L21 6ZM6 8L6 9L7 9L7 8ZM22 8L22 9L23 9L23 8ZM28 8L28 10L29 10L29 8ZM10 9L10 10L9 10L9 11L10 11L10 10L11 10L11 9ZM25 10L25 11L26 11L26 10ZM6 11L6 12L7 12L7 11ZM23 11L23 12L24 12L24 11ZM2 12L2 13L3 13L3 12ZM12 13L12 14L13 14L13 15L14 15L14 16L15 16L15 17L17 17L17 16L15 16L15 15L14 15L14 13ZM5 14L5 16L6 16L6 17L7 17L7 16L8 16L8 15L9 15L9 16L10 16L10 15L9 15L9 14L8 14L8 15L7 15L7 14ZM27 14L27 15L28 15L28 14ZM6 15L6 16L7 16L7 15ZM18 15L18 16L19 16L19 15ZM6 18L6 19L7 19L7 18ZM12 18L12 19L13 19L13 20L14 20L14 19L15 19L15 21L18 21L18 22L19 22L19 21L18 21L18 20L17 20L17 19L16 19L16 18ZM24 18L24 19L23 19L23 20L24 20L24 19L25 19L25 20L26 20L26 21L25 21L25 22L27 22L27 21L28 21L28 19L27 19L27 20L26 20L26 19L25 19L25 18ZM12 21L12 22L13 22L13 23L14 23L14 22L13 22L13 21ZM21 21L21 24L24 24L24 21ZM15 22L15 24L14 24L14 25L15 25L15 24L16 24L16 22ZM22 22L22 23L23 23L23 22ZM26 23L26 25L24 25L24 26L28 26L28 25L27 25L27 23ZM19 25L19 26L20 26L20 27L19 27L19 28L21 28L21 27L23 27L23 25L22 25L22 26L20 26L20 25ZM10 27L10 28L11 28L11 27ZM24 27L24 28L25 28L25 27ZM0 0L0 7L7 7L7 0ZM1 1L1 6L6 6L6 1ZM2 2L2 5L5 5L5 2ZM22 0L22 7L29 7L29 0ZM23 1L23 6L28 6L28 1ZM24 2L24 5L27 5L27 2ZM0 22L0 29L7 29L7 22ZM1 23L1 28L6 28L6 23ZM2 24L2 27L5 27L5 24Z" fill="#282828"/></g></g></svg>
