<?xml version="1.0" encoding="UTF-8"?>
<svg xmlns="http://www.w3.org/2000/svg" version="1.1" width="90" height="90" viewBox="0 0 90 90"><rect x="0" y="0" width="90" height="90" fill="#ffffff"/><g transform="scale(2.903)"><g transform="translate(1,1)"><path fill-rule="evenodd" d="M8 0L8 4L9 4L9 5L8 5L8 7L9 7L9 6L10 6L10 9L11 9L11 8L12 8L12 9L14 9L14 8L16 8L16 7L17 7L17 9L15 9L15 10L13 10L13 11L12 11L12 12L11 12L11 13L10 13L10 15L9 15L9 13L7 13L7 12L6 12L6 11L8 11L8 12L10 12L10 11L11 11L11 10L9 10L9 9L7 9L7 8L4 8L4 9L3 9L3 10L1 10L1 9L2 9L2 8L0 8L0 11L2 11L2 12L1 12L1 13L0 13L0 14L2 14L2 15L0 15L0 18L1 18L1 17L2 17L2 18L3 18L3 19L4 19L4 18L5 18L5 17L4 17L4 16L6 16L6 17L7 17L7 16L6 16L6 15L7 15L7 14L8 14L8 15L9 15L9 16L8 16L8 18L6 18L6 19L5 19L5 20L6 20L6 21L8 21L8 22L9 22L9 23L8 23L8 25L10 25L10 26L9 26L9 27L8 27L8 29L9 29L9 28L10 28L10 27L11 27L11 24L12 24L12 25L13 25L13 26L14 26L14 28L13 28L13 27L12 27L12 28L11 28L11 29L15 29L15 28L17 28L17 29L19 29L19 27L18 27L18 26L19 26L19 25L20 25L20 27L21 27L21 28L20 28L20 29L21 29L21 28L23 28L23 29L28 29L28 28L29 28L29 24L28 24L28 26L26 26L26 27L24 27L24 28L23 28L23 27L22 27L22 26L21 26L21 25L23 25L23 26L25 26L25 25L27 25L27 24L26 24L26 23L29 23L29 21L28 21L28 19L29 19L29 17L28 17L28 16L29 16L29 14L28 14L28 13L29 13L29 12L27 12L27 13L25 13L25 12L26 12L26 11L25 11L25 9L26 9L26 10L27 10L27 9L29 9L29 8L25 8L25 9L24 9L24 8L23 8L23 10L24 10L24 11L23 11L23 12L24 12L24 13L23 13L23 14L24 14L24 17L23 17L23 19L24 19L24 18L27 18L27 20L26 20L26 19L25 19L25 20L21 20L21 19L18 19L18 18L19 18L19 17L22 17L22 15L21 15L21 14L20 14L20 15L19 15L19 14L18 14L18 15L17 15L17 17L16 17L16 16L15 16L15 17L13 17L13 16L12 16L12 15L13 15L13 14L14 14L14 13L12 13L12 12L13 12L13 11L14 11L14 12L15 12L15 11L16 11L16 13L15 13L15 15L16 15L16 14L17 14L17 13L18 13L18 12L19 12L19 13L20 13L20 11L19 11L19 9L18 9L18 7L19 7L19 6L20 6L20 7L21 7L21 6L20 6L20 5L19 5L19 3L18 3L18 2L20 2L20 3L21 3L21 0L20 0L20 1L19 1L19 0L18 0L18 2L17 2L17 3L16 3L16 4L15 4L15 1L17 1L17 0L13 0L13 1L11 1L11 2L12 2L12 5L13 5L13 6L12 6L12 7L11 7L11 3L10 3L10 2L9 2L9 0ZM13 1L13 3L14 3L14 1ZM14 5L14 6L13 6L13 7L12 7L12 8L14 8L14 6L15 6L15 7L16 7L16 5ZM17 5L17 7L18 7L18 6L19 6L19 5ZM20 8L20 9L21 9L21 8ZM4 9L4 10L5 10L5 11L6 11L6 10L7 10L7 9L6 9L6 10L5 10L5 9ZM8 10L8 11L9 11L9 10ZM17 10L17 11L18 11L18 10ZM28 10L28 11L29 11L29 10ZM3 11L3 12L4 12L4 11ZM21 12L21 13L22 13L22 12ZM2 13L2 14L3 14L3 15L6 15L6 14L7 14L7 13L6 13L6 14L5 14L5 13ZM11 13L11 14L12 14L12 13ZM25 14L25 16L26 16L26 17L27 17L27 16L28 16L28 14L27 14L27 15L26 15L26 14ZM10 15L10 16L11 16L11 20L10 20L10 17L9 17L9 18L8 18L8 19L9 19L9 21L10 21L10 22L12 22L12 21L14 21L14 22L15 22L15 21L14 21L14 19L15 19L15 18L13 18L13 17L12 17L12 16L11 16L11 15ZM18 15L18 17L17 17L17 18L18 18L18 17L19 17L19 15ZM3 17L3 18L4 18L4 17ZM6 19L6 20L7 20L7 19ZM12 19L12 20L11 20L11 21L12 21L12 20L13 20L13 19ZM16 19L16 21L17 21L17 19ZM0 20L0 21L3 21L3 20ZM18 20L18 21L20 21L20 20ZM21 21L21 24L24 24L24 21ZM25 21L25 22L27 22L27 21ZM17 22L17 23L12 23L12 24L13 24L13 25L14 25L14 26L16 26L16 25L17 25L17 26L18 26L18 25L19 25L19 23L18 23L18 22ZM22 22L22 23L23 23L23 22ZM17 23L17 25L18 25L18 23ZM14 24L14 25L15 25L15 24ZM26 27L26 28L27 28L27 27ZM0 0L0 7L7 7L7 0ZM1 1L1 6L6 6L6 1ZM2 2L2 5L5 5L5 2ZM22 0L22 7L29 7L29 0ZM23 1L23 6L28 6L28 1ZM24 2L24 5L27 5L27 2ZM0 22L0 29L7 29L7 22ZM1 23L1 28L6 28L6 23ZM2 24L2 27L5 27L5 24Z" fill="#282828"/></g></g></svg>
