<?xml version="1.0" encoding="UTF-8"?>
<svg xmlns="http://www.w3.org/2000/svg" version="1.1" width="90" height="90" viewBox="0 0 90 90"><rect x="0" y="0" width="90" height="90" fill="#ffffff"/><g transform="scale(3.333)"><g transform="translate(1,1)"><path fill-rule="evenodd" d="M8 0L8 1L10 1L10 0ZM13 0L13 2L11 2L11 4L10 4L10 3L9 3L9 2L8 2L8 5L9 5L9 6L8 6L8 7L9 7L9 8L8 8L8 11L7 11L7 10L6 10L6 11L5 11L5 9L4 9L4 8L0 8L0 11L1 11L1 9L3 9L3 10L2 10L2 12L1 12L1 13L3 13L3 15L2 15L2 14L1 14L1 15L0 15L0 16L1 16L1 15L2 15L2 16L3 16L3 17L7 17L7 16L8 16L8 18L9 18L9 19L10 19L10 18L11 18L11 19L12 19L12 20L9 20L9 21L8 21L8 25L10 25L10 24L11 24L11 23L14 23L14 20L16 20L16 21L15 21L15 22L17 22L17 23L16 23L16 24L17 24L17 23L21 23L21 24L18 24L18 25L22 25L22 24L23 24L23 25L25 25L25 24L23 24L23 23L24 23L24 22L25 22L25 21L24 21L24 20L25 20L25 17L23 17L23 16L22 16L22 15L23 15L23 13L24 13L24 14L25 14L25 11L24 11L24 12L23 12L23 10L25 10L25 8L24 8L24 9L23 9L23 8L20 8L20 9L18 9L18 8L17 8L17 4L16 4L16 3L17 3L17 0ZM14 1L14 2L15 2L15 3L16 3L16 1ZM12 3L12 5L10 5L10 6L9 6L9 7L10 7L10 8L9 8L9 9L10 9L10 10L9 10L9 11L8 11L8 13L6 13L6 14L7 14L7 15L4 15L4 16L7 16L7 15L8 15L8 14L9 14L9 12L10 12L10 13L11 13L11 11L14 11L14 10L15 10L15 12L14 12L14 13L13 13L13 12L12 12L12 14L10 14L10 15L9 15L9 16L10 16L10 15L11 15L11 16L12 16L12 17L11 17L11 18L12 18L12 17L13 17L13 16L15 16L15 19L16 19L16 16L15 16L15 15L19 15L19 16L21 16L21 17L22 17L22 18L23 18L23 19L21 19L21 21L19 21L19 22L21 22L21 23L23 23L23 19L24 19L24 18L23 18L23 17L22 17L22 16L21 16L21 14L19 14L19 13L21 13L21 12L19 12L19 13L18 13L18 14L15 14L15 13L17 13L17 11L19 11L19 10L18 10L18 9L17 9L17 10L16 10L16 9L14 9L14 6L15 6L15 8L16 8L16 5L15 5L15 4L13 4L13 3ZM12 5L12 7L11 7L11 6L10 6L10 7L11 7L11 8L12 8L12 7L13 7L13 6L14 6L14 5ZM6 8L6 9L7 9L7 8ZM20 9L20 10L22 10L22 9ZM4 11L4 13L5 13L5 11ZM6 11L6 12L7 12L7 11ZM22 12L22 13L23 13L23 12ZM12 14L12 16L13 16L13 14ZM14 14L14 15L15 15L15 14ZM17 17L17 20L20 20L20 17ZM18 18L18 19L19 19L19 18ZM13 19L13 20L14 20L14 19ZM10 21L10 22L12 22L12 21ZM17 21L17 22L18 22L18 21ZM21 21L21 22L22 22L22 21ZM9 23L9 24L10 24L10 23ZM12 24L12 25L13 25L13 24ZM14 24L14 25L15 25L15 24ZM0 0L0 7L7 7L7 0ZM1 1L1 6L6 6L6 1ZM2 2L2 5L5 5L5 2ZM18 0L18 7L25 7L25 0ZM19 1L19 6L24 6L24 1ZM20 2L20 5L23 5L23 2ZM0 18L0 25L7 25L7 18ZM1 19L1 24L6 24L6 19ZM2 20L2 23L5 23L5 20Z" fill="#282828"/></g></g></svg>
