<?xml version="1.0" encoding="UTF-8"?>
<svg xmlns="http://www.w3.org/2000/svg" version="1.1" width="90" height="90" viewBox="0 0 90 90"><rect x="0" y="0" width="90" height="90" fill="#ffffff"/><g transform="scale(2.903)"><g transform="translate(1,1)"><path fill-rule="evenodd" d="M9 0L9 1L8 1L8 2L9 2L9 3L8 3L8 4L10 4L10 7L11 7L11 4L12 4L12 5L13 5L13 6L12 6L12 9L14 9L14 10L11 10L11 11L10 11L10 9L11 9L11 8L6 8L6 9L5 9L5 8L0 8L0 10L1 10L1 12L0 12L0 16L1 16L1 12L2 12L2 13L3 13L3 14L2 14L2 15L3 15L3 14L4 14L4 13L3 13L3 12L4 12L4 11L5 11L5 10L6 10L6 11L9 11L9 12L6 12L6 13L5 13L5 15L4 15L4 17L2 17L2 18L3 18L3 19L2 19L2 21L4 21L4 20L5 20L5 21L8 21L8 23L9 23L9 24L8 24L8 29L12 29L12 27L13 27L13 26L11 26L11 27L9 27L9 26L10 26L10 25L11 25L11 21L12 21L12 22L13 22L13 23L12 23L12 25L13 25L13 24L14 24L14 25L16 25L16 26L15 26L15 27L14 27L14 28L15 28L15 27L16 27L16 28L17 28L17 29L18 29L18 28L17 28L17 27L16 27L16 26L18 26L18 27L22 27L22 28L23 28L23 29L26 29L26 25L25 25L25 24L26 24L26 22L27 22L27 23L28 23L28 24L29 24L29 23L28 23L28 22L29 22L29 21L28 21L28 22L27 22L27 21L25 21L25 20L26 20L26 19L25 19L25 16L24 16L24 15L25 15L25 13L27 13L27 12L26 12L26 11L25 11L25 10L26 10L26 8L25 8L25 9L24 9L24 8L23 8L23 10L22 10L22 8L21 8L21 10L20 10L20 9L18 9L18 8L17 8L17 6L18 6L18 7L19 7L19 5L17 5L17 4L18 4L18 3L16 3L16 1L17 1L17 0L16 0L16 1L15 1L15 2L14 2L14 3L13 3L13 4L12 4L12 2L13 2L13 1L11 1L11 2L10 2L10 0ZM18 0L18 1L21 1L21 0ZM20 2L20 3L19 3L19 4L20 4L20 5L21 5L21 4L20 4L20 3L21 3L21 2ZM10 3L10 4L11 4L11 3ZM14 3L14 4L13 4L13 5L14 5L14 4L15 4L15 5L16 5L16 4L15 4L15 3ZM8 5L8 7L9 7L9 5ZM13 6L13 8L14 8L14 9L16 9L16 6L15 6L15 7L14 7L14 6ZM20 6L20 7L21 7L21 6ZM27 8L27 10L28 10L28 8ZM1 9L1 10L3 10L3 11L2 11L2 12L3 12L3 11L4 11L4 10L3 10L3 9ZM6 9L6 10L9 10L9 9ZM16 10L16 11L17 11L17 12L16 12L16 13L15 13L15 12L14 12L14 11L12 11L12 13L11 13L11 12L10 12L10 13L9 13L9 15L10 15L10 13L11 13L11 18L10 18L10 16L8 16L8 18L7 18L7 17L6 17L6 16L7 16L7 15L8 15L8 13L6 13L6 14L7 14L7 15L6 15L6 16L5 16L5 20L7 20L7 19L8 19L8 18L9 18L9 20L11 20L11 18L13 18L13 19L12 19L12 21L15 21L15 22L16 22L16 21L15 21L15 20L19 20L19 23L20 23L20 20L19 20L19 19L20 19L20 17L22 17L22 18L21 18L21 19L22 19L22 18L23 18L23 17L24 17L24 16L23 16L23 14L24 14L24 13L25 13L25 12L24 12L24 10L23 10L23 12L22 12L22 11L21 11L21 12L20 12L20 10ZM18 11L18 12L17 12L17 13L16 13L16 14L14 14L14 13L12 13L12 14L13 14L13 15L12 15L12 17L13 17L13 16L14 16L14 17L15 17L15 16L16 16L16 15L17 15L17 14L18 14L18 15L19 15L19 17L18 17L18 16L17 16L17 17L16 17L16 18L15 18L15 19L14 19L14 20L15 20L15 19L16 19L16 18L17 18L17 17L18 17L18 18L19 18L19 17L20 17L20 16L21 16L21 15L19 15L19 13L18 13L18 12L19 12L19 11ZM28 11L28 13L29 13L29 11ZM20 13L20 14L22 14L22 13ZM26 14L26 15L27 15L27 14ZM14 15L14 16L15 16L15 15ZM28 15L28 16L29 16L29 15ZM26 16L26 17L27 17L27 16ZM0 17L0 21L1 21L1 17ZM28 17L28 18L27 18L27 20L29 20L29 19L28 19L28 18L29 18L29 17ZM6 18L6 19L7 19L7 18ZM3 19L3 20L4 20L4 19ZM23 19L23 20L25 20L25 19ZM17 21L17 24L16 24L16 23L14 23L14 24L16 24L16 25L20 25L20 24L18 24L18 21ZM21 21L21 24L24 24L24 21ZM9 22L9 23L10 23L10 22ZM22 22L22 23L23 23L23 22ZM9 24L9 25L10 25L10 24ZM21 25L21 26L22 26L22 27L23 27L23 28L24 28L24 27L23 27L23 26L24 26L24 25ZM27 25L27 28L28 28L28 26L29 26L29 25ZM19 28L19 29L20 29L20 28ZM0 0L0 7L7 7L7 0ZM1 1L1 6L6 6L6 1ZM2 2L2 5L5 5L5 2ZM22 0L22 7L29 7L29 0ZM23 1L23 6L28 6L28 1ZM24 2L24 5L27 5L27 2ZM0 22L0 29L7 29L7 22ZM1 23L1 28L6 28L6 23ZM2 24L2 27L5 27L5 24Z" fill="#282828"/></g></g></svg>
