<?xml version="1.0" encoding="UTF-8"?>
<svg xmlns="http://www.w3.org/2000/svg" version="1.1" width="90" height="90" viewBox="0 0 90 90"><rect x="0" y="0" width="90" height="90" fill="#ffffff"/><g transform="scale(2.903)"><g transform="translate(1,1)"><path fill-rule="evenodd" d="M8 0L8 1L11 1L11 3L10 3L10 2L9 2L9 3L10 3L10 5L9 5L9 6L8 6L8 8L9 8L9 9L10 9L10 10L9 10L9 11L10 11L10 10L11 10L11 9L10 9L10 7L11 7L11 6L12 6L12 9L13 9L13 8L17 8L17 6L18 6L18 7L19 7L19 8L20 8L20 7L21 7L21 5L20 5L20 7L19 7L19 4L18 4L18 5L17 5L17 4L16 4L16 5L17 5L17 6L16 6L16 7L15 7L15 5L13 5L13 4L15 4L15 3L17 3L17 2L15 2L15 0L13 0L13 1L12 1L12 0ZM17 0L17 1L18 1L18 0ZM19 0L19 2L18 2L18 3L20 3L20 4L21 4L21 2L20 2L20 0ZM12 2L12 4L13 4L13 2ZM10 5L10 6L9 6L9 7L10 7L10 6L11 6L11 5ZM12 5L12 6L13 6L13 7L14 7L14 6L13 6L13 5ZM0 8L0 10L1 10L1 12L0 12L0 13L1 13L1 14L0 14L0 16L1 16L1 14L2 14L2 12L3 12L3 11L2 11L2 10L5 10L5 11L4 11L4 12L6 12L6 13L4 13L4 14L6 14L6 15L7 15L7 16L6 16L6 17L7 17L7 18L6 18L6 19L5 19L5 18L2 18L2 17L4 17L4 15L2 15L2 17L0 17L0 21L2 21L2 20L3 20L3 19L4 19L4 20L5 20L5 21L7 21L7 20L8 20L8 22L10 22L10 21L12 21L12 22L11 22L11 23L9 23L9 24L8 24L8 26L9 26L9 27L8 27L8 29L9 29L9 27L10 27L10 26L9 26L9 24L10 24L10 25L13 25L13 26L11 26L11 28L10 28L10 29L11 29L11 28L12 28L12 27L14 27L14 26L15 26L15 27L16 27L16 26L17 26L17 27L18 27L18 28L17 28L17 29L18 29L18 28L19 28L19 29L21 29L21 28L22 28L22 29L26 29L26 28L27 28L27 27L28 27L28 28L29 28L29 24L28 24L28 21L29 21L29 18L28 18L28 17L27 17L27 18L25 18L25 17L24 17L24 16L23 16L23 15L26 15L26 16L28 16L28 15L29 15L29 14L28 14L28 13L24 13L24 12L26 12L26 11L27 11L27 12L28 12L28 11L27 11L27 9L24 9L24 12L23 12L23 11L22 11L22 10L20 10L20 11L22 11L22 13L23 13L23 15L22 15L22 14L21 14L21 12L18 12L18 10L19 10L19 9L17 9L17 10L15 10L15 11L14 11L14 10L12 10L12 11L14 11L14 12L13 12L13 13L12 13L12 14L13 14L13 13L14 13L14 15L12 15L12 16L10 16L10 15L11 15L11 12L8 12L8 14L6 14L6 13L7 13L7 12L6 12L6 11L8 11L8 9L7 9L7 8L6 8L6 9L7 9L7 10L5 10L5 8L3 8L3 9L2 9L2 8ZM22 8L22 9L23 9L23 8ZM28 8L28 10L29 10L29 8ZM1 9L1 10L2 10L2 9ZM25 10L25 11L26 11L26 10ZM15 11L15 12L17 12L17 15L16 15L16 16L13 16L13 17L12 17L12 18L10 18L10 19L8 19L8 20L11 20L11 19L12 19L12 21L13 21L13 19L12 19L12 18L16 18L16 19L17 19L17 21L15 21L15 19L14 19L14 25L15 25L15 26L16 26L16 24L17 24L17 23L16 23L16 24L15 24L15 22L18 22L18 25L19 25L19 22L20 22L20 20L19 20L19 19L18 19L18 17L20 17L20 16L21 16L21 18L20 18L20 19L21 19L21 20L22 20L22 19L23 19L23 18L24 18L24 17L23 17L23 16L21 16L21 14L20 14L20 13L19 13L19 14L20 14L20 15L19 15L19 16L18 16L18 12L17 12L17 11ZM15 13L15 14L16 14L16 13ZM9 14L9 15L8 15L8 16L7 16L7 17L10 17L10 16L9 16L9 15L10 15L10 14ZM27 14L27 15L28 15L28 14ZM17 16L17 17L18 17L18 16ZM6 19L6 20L7 20L7 19ZM24 19L24 20L26 20L26 22L25 22L25 23L26 23L26 25L22 25L22 27L23 27L23 26L25 26L25 27L24 27L24 28L25 28L25 27L27 27L27 26L28 26L28 24L27 24L27 23L26 23L26 22L27 22L27 21L28 21L28 19L27 19L27 20L26 20L26 19ZM18 21L18 22L19 22L19 21ZM21 21L21 24L24 24L24 21ZM12 22L12 23L13 23L13 22ZM22 22L22 23L23 23L23 22ZM20 25L20 28L21 28L21 25ZM26 25L26 26L27 26L27 25ZM18 26L18 27L19 27L19 26ZM14 28L14 29L15 29L15 28ZM0 0L0 7L7 7L7 0ZM1 1L1 6L6 6L6 1ZM2 2L2 5L5 5L5 2ZM22 0L22 7L29 7L29 0ZM23 1L23 6L28 6L28 1ZM24 2L24 5L27 5L27 2ZM0 22L0 29L7 29L7 22ZM1 23L1 28L6 28L6 23ZM2 24L2 27L5 27L5 24Z" fill="#282828"/></g></g></svg>
