<?xml version="1.0" encoding="UTF-8"?>
<svg xmlns="http://www.w3.org/2000/svg" version="1.1" width="90" height="90" viewBox="0 0 90 90"><rect x="0" y="0" width="90" height="90" fill="#ffffff"/><g transform="scale(2.903)"><g transform="translate(1,1)"><path fill-rule="evenodd" d="M8 0L8 4L9 4L9 5L8 5L8 7L9 7L9 6L10 6L10 9L11 9L11 8L12 8L12 9L13 9L13 10L15 10L15 9L14 9L14 7L15 7L15 8L20 8L20 9L18 9L18 10L20 10L20 9L21 9L21 5L20 5L20 4L19 4L19 2L20 2L20 3L21 3L21 1L20 1L20 0L18 0L18 2L17 2L17 5L16 5L16 7L15 7L15 6L14 6L14 7L13 7L13 6L12 6L12 7L11 7L11 3L10 3L10 2L9 2L9 0ZM13 0L13 1L11 1L11 2L12 2L12 5L13 5L13 2L14 2L14 3L15 3L15 2L16 2L16 1L17 1L17 0L16 0L16 1L15 1L15 0ZM17 5L17 7L18 7L18 6L19 6L19 7L20 7L20 6L19 6L19 5ZM12 7L12 8L13 8L13 7ZM0 8L0 9L2 9L2 10L0 10L0 11L1 11L1 14L2 14L2 11L4 11L4 10L6 10L6 11L5 11L5 14L4 14L4 13L3 13L3 15L2 15L2 16L1 16L1 15L0 15L0 16L1 16L1 17L0 17L0 18L3 18L3 20L0 20L0 21L4 21L4 20L5 20L5 21L7 21L7 20L6 20L6 19L7 19L7 18L6 18L6 19L4 19L4 15L5 15L5 14L6 14L6 15L7 15L7 16L5 16L5 17L8 17L8 15L7 15L7 14L6 14L6 13L8 13L8 14L9 14L9 15L10 15L10 14L11 14L11 16L12 16L12 17L13 17L13 18L15 18L15 19L14 19L14 20L13 20L13 19L12 19L12 20L11 20L11 17L10 17L10 16L9 16L9 18L8 18L8 20L9 20L9 18L10 18L10 21L8 21L8 22L9 22L9 23L8 23L8 25L10 25L10 24L9 24L9 23L11 23L11 24L12 24L12 25L13 25L13 26L15 26L15 27L14 27L14 28L13 28L13 27L12 27L12 28L10 28L10 27L11 27L11 26L9 26L9 27L8 27L8 29L12 29L12 28L13 28L13 29L15 29L15 28L16 28L16 29L18 29L18 28L19 28L19 27L20 27L20 29L21 29L21 27L22 27L22 25L25 25L25 27L23 27L23 29L25 29L25 28L26 28L26 26L27 26L27 29L28 29L28 28L29 28L29 25L28 25L28 26L27 26L27 25L26 25L26 23L25 23L25 22L26 22L26 21L27 21L27 23L28 23L28 24L29 24L29 21L28 21L28 19L29 19L29 14L28 14L28 13L29 13L29 12L27 12L27 13L22 13L22 14L21 14L21 12L19 12L19 13L18 13L18 14L13 14L13 13L16 13L16 12L15 12L15 11L14 11L14 12L13 12L13 11L12 11L12 12L11 12L11 13L9 13L9 12L10 12L10 11L11 11L11 10L9 10L9 11L8 11L8 10L6 10L6 9L7 9L7 8L4 8L4 9L2 9L2 8ZM23 8L23 9L22 9L22 12L26 12L26 11L23 11L23 10L25 10L25 9L26 9L26 10L27 10L27 9L29 9L29 8L25 8L25 9L24 9L24 8ZM16 9L16 11L17 11L17 12L18 12L18 11L17 11L17 9ZM28 10L28 11L29 11L29 10ZM6 11L6 12L8 12L8 11ZM12 12L12 13L11 13L11 14L12 14L12 13L13 13L13 12ZM19 13L19 16L17 16L17 17L16 17L16 18L17 18L17 17L19 17L19 19L18 19L18 20L17 20L17 19L15 19L15 21L13 21L13 20L12 20L12 21L10 21L10 22L12 22L12 21L13 21L13 22L15 22L15 21L16 21L16 23L17 23L17 22L18 22L18 21L19 21L19 22L20 22L20 21L19 21L19 19L20 19L20 20L21 20L21 19L22 19L22 20L25 20L25 21L26 21L26 20L27 20L27 18L23 18L23 16L22 16L22 17L19 17L19 16L21 16L21 15L20 15L20 13ZM25 14L25 15L24 15L24 17L25 17L25 16L26 16L26 17L28 17L28 16L27 16L27 15L28 15L28 14L27 14L27 15L26 15L26 14ZM12 15L12 16L13 16L13 15ZM14 15L14 17L15 17L15 15ZM2 16L2 17L3 17L3 16ZM22 18L22 19L23 19L23 18ZM25 19L25 20L26 20L26 19ZM16 20L16 21L17 21L17 20ZM21 21L21 24L24 24L24 21ZM22 22L22 23L23 23L23 22ZM12 23L12 24L13 24L13 23ZM14 23L14 25L18 25L18 26L17 26L17 27L18 27L18 26L21 26L21 25L19 25L19 24L15 24L15 23ZM0 0L0 7L7 7L7 0ZM1 1L1 6L6 6L6 1ZM2 2L2 5L5 5L5 2ZM22 0L22 7L29 7L29 0ZM23 1L23 6L28 6L28 1ZM24 2L24 5L27 5L27 2ZM0 22L0 29L7 29L7 22ZM1 23L1 28L6 28L6 23ZM2 24L2 27L5 27L5 24Z" fill="#282828"/></g></g></svg>
