<?xml version="1.0" encoding="UTF-8"?>
<svg xmlns="http://www.w3.org/2000/svg" version="1.1" width="90" height="90" viewBox="0 0 90 90"><rect x="0" y="0" width="90" height="90" fill="#ffffff"/><g transform="scale(2.903)"><g transform="translate(1,1)"><path fill-rule="evenodd" d="M8 0L8 1L11 1L11 3L10 3L10 2L9 2L9 3L10 3L10 5L9 5L9 6L8 6L8 8L9 8L9 9L8 9L8 12L5 12L5 13L2 13L2 10L3 10L3 12L4 12L4 11L5 11L5 10L4 10L4 9L5 9L5 8L3 8L3 9L2 9L2 8L0 8L0 10L1 10L1 11L0 11L0 12L1 12L1 13L0 13L0 16L5 16L5 15L4 15L4 14L6 14L6 15L7 15L7 16L6 16L6 17L7 17L7 18L6 18L6 19L8 19L8 22L9 22L9 23L10 23L10 27L8 27L8 29L9 29L9 28L12 28L12 27L14 27L14 26L15 26L15 27L16 27L16 28L14 28L14 29L17 29L17 27L18 27L18 23L19 23L19 25L20 25L20 26L19 26L19 27L20 27L20 26L22 26L22 27L23 27L23 29L25 29L25 28L26 28L26 29L27 29L27 27L28 27L28 28L29 28L29 23L28 23L28 21L29 21L29 18L28 18L28 17L29 17L29 14L28 14L28 13L25 13L25 12L26 12L26 11L27 11L27 12L28 12L28 11L27 11L27 9L23 9L23 8L22 8L22 13L23 13L23 14L22 14L22 15L21 15L21 14L19 14L19 13L20 13L20 11L21 11L21 10L20 10L20 9L18 9L18 8L21 8L21 5L20 5L20 4L21 4L21 2L20 2L20 1L21 1L21 0L20 0L20 1L19 1L19 0L17 0L17 1L18 1L18 3L20 3L20 4L17 4L17 5L20 5L20 7L19 7L19 6L18 6L18 8L15 8L15 5L16 5L16 3L15 3L15 2L16 2L16 0L13 0L13 1L12 1L12 0ZM12 2L12 4L14 4L14 5L15 5L15 4L14 4L14 3L13 3L13 2ZM10 5L10 6L9 6L9 7L10 7L10 9L9 9L9 10L10 10L10 11L9 11L9 12L11 12L11 15L10 15L10 13L6 13L6 14L9 14L9 15L10 15L10 17L9 17L9 18L10 18L10 19L9 19L9 22L10 22L10 23L11 23L11 22L12 22L12 23L13 23L13 22L12 22L12 21L13 21L13 19L12 19L12 18L15 18L15 17L16 17L16 15L15 15L15 16L13 16L13 17L12 17L12 18L11 18L11 16L12 16L12 15L14 15L14 14L17 14L17 13L19 13L19 12L17 12L17 9L15 9L15 11L16 11L16 12L15 12L15 13L13 13L13 12L14 12L14 9L12 9L12 6L13 6L13 8L14 8L14 6L13 6L13 5L12 5L12 6L11 6L11 5ZM10 6L10 7L11 7L11 6ZM16 6L16 7L17 7L17 6ZM6 8L6 9L7 9L7 8ZM28 8L28 10L29 10L29 8ZM10 9L10 10L11 10L11 9ZM6 10L6 11L7 11L7 10ZM12 10L12 11L13 11L13 10ZM18 10L18 11L20 11L20 10ZM23 10L23 12L24 12L24 10ZM25 10L25 11L26 11L26 10ZM16 12L16 13L17 13L17 12ZM1 13L1 15L2 15L2 13ZM12 13L12 14L13 14L13 13ZM18 14L18 15L17 15L17 17L18 17L18 18L17 18L17 20L16 20L16 21L17 21L17 22L18 22L18 21L19 21L19 20L23 20L23 19L24 19L24 20L26 20L26 22L25 22L25 23L26 23L26 24L27 24L27 21L28 21L28 19L27 19L27 20L26 20L26 19L24 19L24 17L23 17L23 16L24 16L24 15L25 15L25 18L27 18L27 16L28 16L28 14L27 14L27 16L26 16L26 15L25 15L25 14L23 14L23 16L22 16L22 17L21 17L21 18L23 18L23 19L19 19L19 20L18 20L18 18L19 18L19 17L20 17L20 16L21 16L21 15L19 15L19 14ZM7 16L7 17L8 17L8 16ZM0 17L0 21L2 21L2 20L3 20L3 21L4 21L4 20L5 20L5 21L7 21L7 20L5 20L5 19L4 19L4 20L3 20L3 18L2 18L2 17ZM4 17L4 18L5 18L5 17ZM11 19L11 20L10 20L10 22L11 22L11 21L12 21L12 19ZM14 19L14 25L15 25L15 24L16 24L16 23L15 23L15 19ZM17 20L17 21L18 21L18 20ZM21 21L21 24L24 24L24 21ZM22 22L22 23L23 23L23 22ZM8 24L8 26L9 26L9 24ZM11 25L11 26L13 26L13 25ZM22 25L22 26L24 26L24 25ZM25 25L25 26L26 26L26 27L27 27L27 26L28 26L28 25L27 25L27 26L26 26L26 25ZM19 28L19 29L22 29L22 28ZM0 0L0 7L7 7L7 0ZM1 1L1 6L6 6L6 1ZM2 2L2 5L5 5L5 2ZM22 0L22 7L29 7L29 0ZM23 1L23 6L28 6L28 1ZM24 2L24 5L27 5L27 2ZM0 22L0 29L7 29L7 22ZM1 23L1 28L6 28L6 23ZM2 24L2 27L5 27L5 24Z" fill="#282828"/></g></g></svg>
