<?xml version="1.0" encoding="UTF-8"?>
<svg xmlns="http://www.w3.org/2000/svg" version="1.1" width="90" height="90" viewBox="0 0 90 90"><rect x="0" y="0" width="90" height="90" fill="#ffffff"/><g transform="scale(2.903)"><g transform="translate(1,1)"><path fill-rule="evenodd" d="M8 0L8 1L11 1L11 3L10 3L10 2L9 2L9 3L10 3L10 5L9 5L9 6L8 6L8 8L9 8L9 9L10 9L10 10L8 10L8 9L7 9L7 8L6 8L6 9L7 9L7 10L6 10L6 11L5 11L5 8L3 8L3 9L2 9L2 8L0 8L0 9L1 9L1 10L3 10L3 12L2 12L2 11L0 11L0 12L1 12L1 13L0 13L0 21L2 21L2 18L1 18L1 16L2 16L2 17L3 17L3 16L4 16L4 18L3 18L3 19L5 19L5 20L3 20L3 21L8 21L8 22L9 22L9 23L10 23L10 22L9 22L9 21L8 21L8 20L6 20L6 19L7 19L7 18L9 18L9 20L10 20L10 21L12 21L12 22L11 22L11 24L8 24L8 26L10 26L10 27L8 27L8 29L11 29L11 28L12 28L12 27L14 27L14 26L15 26L15 27L16 27L16 28L14 28L14 29L16 29L16 28L17 28L17 27L16 27L16 26L18 26L18 28L19 28L19 29L21 29L21 28L22 28L22 29L23 29L23 27L25 27L25 28L26 28L26 29L27 29L27 27L28 27L28 28L29 28L29 25L28 25L28 24L29 24L29 23L28 23L28 21L29 21L29 18L28 18L28 17L29 17L29 14L28 14L28 13L25 13L25 12L26 12L26 11L27 11L27 12L28 12L28 11L27 11L27 9L23 9L23 8L22 8L22 9L21 9L21 10L24 10L24 11L22 11L22 13L23 13L23 14L21 14L21 16L20 16L20 18L19 18L19 16L18 16L18 17L17 17L17 18L16 18L16 21L14 21L14 19L15 19L15 17L16 17L16 16L17 16L17 15L15 15L15 14L16 14L16 13L17 13L17 12L19 12L19 13L18 13L18 14L19 14L19 15L20 15L20 14L19 14L19 13L21 13L21 12L19 12L19 11L18 11L18 10L20 10L20 9L18 9L18 8L19 8L19 6L18 6L18 5L20 5L20 4L21 4L21 3L20 3L20 1L19 1L19 0L17 0L17 1L16 1L16 0L15 0L15 1L16 1L16 2L13 2L13 1L12 1L12 0ZM17 1L17 2L16 2L16 3L14 3L14 4L13 4L13 2L12 2L12 4L13 4L13 5L12 5L12 6L11 6L11 5L10 5L10 6L9 6L9 7L10 7L10 9L11 9L11 10L10 10L10 11L9 11L9 12L11 12L11 16L12 16L12 15L13 15L13 16L14 16L14 14L15 14L15 13L16 13L16 11L17 11L17 9L16 9L16 8L15 8L15 9L16 9L16 11L15 11L15 13L14 13L14 8L13 8L13 9L12 9L12 6L13 6L13 7L14 7L14 6L15 6L15 7L16 7L16 3L18 3L18 4L17 4L17 5L18 5L18 4L19 4L19 1ZM10 6L10 7L11 7L11 6ZM17 6L17 8L18 8L18 6ZM20 6L20 7L21 7L21 6ZM28 8L28 10L29 10L29 8ZM3 9L3 10L4 10L4 9ZM7 10L7 11L6 11L6 12L3 12L3 13L1 13L1 15L2 15L2 14L3 14L3 15L4 15L4 16L5 16L5 17L6 17L6 18L5 18L5 19L6 19L6 18L7 18L7 17L8 17L8 16L9 16L9 18L10 18L10 20L11 20L11 19L12 19L12 21L13 21L13 19L12 19L12 18L13 18L13 17L12 17L12 18L10 18L10 16L9 16L9 15L10 15L10 13L8 13L8 14L9 14L9 15L8 15L8 16L7 16L7 15L6 15L6 14L7 14L7 13L6 13L6 12L7 12L7 11L8 11L8 10ZM12 10L12 11L13 11L13 10ZM25 10L25 11L26 11L26 10ZM4 13L4 15L5 15L5 13ZM12 13L12 14L14 14L14 13ZM23 14L23 16L21 16L21 20L22 20L22 19L25 19L25 20L26 20L26 21L28 21L28 19L27 19L27 20L26 20L26 19L25 19L25 18L27 18L27 16L26 16L26 15L25 15L25 16L24 16L24 14ZM27 14L27 15L28 15L28 14ZM6 16L6 17L7 17L7 16ZM23 16L23 17L22 17L22 18L25 18L25 17L24 17L24 16ZM17 19L17 21L16 21L16 23L18 23L18 24L16 24L16 25L19 25L19 26L20 26L20 27L19 27L19 28L20 28L20 27L21 27L21 26L20 26L20 25L19 25L19 24L20 24L20 23L18 23L18 21L19 21L19 22L20 22L20 21L19 21L19 20L18 20L18 19ZM21 21L21 24L24 24L24 21ZM12 22L12 23L13 23L13 22ZM14 22L14 25L15 25L15 22ZM22 22L22 23L23 23L23 22ZM25 22L25 23L26 23L26 24L27 24L27 23L26 23L26 22ZM11 25L11 26L13 26L13 25ZM22 25L22 26L24 26L24 25ZM27 25L27 26L25 26L25 27L27 27L27 26L28 26L28 25ZM10 27L10 28L11 28L11 27ZM0 0L0 7L7 7L7 0ZM1 1L1 6L6 6L6 1ZM2 2L2 5L5 5L5 2ZM22 0L22 7L29 7L29 0ZM23 1L23 6L28 6L28 1ZM24 2L24 5L27 5L27 2ZM0 22L0 29L7 29L7 22ZM1 23L1 28L6 28L6 23ZM2 24L2 27L5 27L5 24Z" fill="#282828"/></g></g></svg>
