<?xml version="1.0" encoding="UTF-8"?>
<svg xmlns="http://www.w3.org/2000/svg" version="1.1" width="90" height="90" viewBox="0 0 90 90"><rect x="0" y="0" width="90" height="90" fill="#ffffff"/><g transform="scale(2.903)"><g transform="translate(1,1)"><path fill-rule="evenodd" d="M9 0L9 1L8 1L8 2L9 2L9 3L8 3L8 4L10 4L10 7L11 7L11 4L12 4L12 5L13 5L13 4L14 4L14 5L15 5L15 6L14 6L14 7L15 7L15 6L16 6L16 8L13 8L13 6L12 6L12 9L15 9L15 11L14 11L14 12L13 12L13 13L12 13L12 11L13 11L13 10L11 10L11 11L10 11L10 9L11 9L11 8L6 8L6 9L5 9L5 8L0 8L0 10L3 10L3 11L4 11L4 10L3 10L3 9L5 9L5 11L8 11L8 10L6 10L6 9L9 9L9 13L10 13L10 14L9 14L9 15L7 15L7 14L8 14L8 13L7 13L7 12L6 12L6 13L7 13L7 14L6 14L6 15L7 15L7 16L5 16L5 14L4 14L4 13L5 13L5 12L4 12L4 13L3 13L3 12L2 12L2 11L0 11L0 12L1 12L1 13L0 13L0 15L1 15L1 17L0 17L0 21L1 21L1 18L2 18L2 19L3 19L3 21L4 21L4 18L6 18L6 19L7 19L7 20L6 20L6 21L8 21L8 23L9 23L9 22L11 22L11 21L12 21L12 22L13 22L13 23L12 23L12 25L13 25L13 24L14 24L14 25L15 25L15 27L14 27L14 28L15 28L15 29L16 29L16 26L17 26L17 27L18 27L18 26L19 26L19 25L18 25L18 26L17 26L17 25L16 25L16 23L18 23L18 24L20 24L20 25L25 25L25 24L26 24L26 25L27 25L27 28L26 28L26 26L23 26L23 27L25 27L25 28L26 28L26 29L27 29L27 28L28 28L28 26L29 26L29 24L26 24L26 23L25 23L25 22L26 22L26 21L25 21L25 20L26 20L26 19L25 19L25 17L22 17L22 16L20 16L20 15L18 15L18 16L20 16L20 17L18 17L18 19L19 19L19 18L20 18L20 19L21 19L21 20L20 20L20 22L19 22L19 21L17 21L17 19L16 19L16 18L17 18L17 17L16 17L16 15L17 15L17 13L14 13L14 12L15 12L15 11L16 11L16 12L17 12L17 11L16 11L16 10L17 10L17 9L18 9L18 12L19 12L19 13L18 13L18 14L23 14L23 16L25 16L25 13L27 13L27 12L26 12L26 11L25 11L25 10L26 10L26 8L25 8L25 9L24 9L24 8L23 8L23 9L22 9L22 8L21 8L21 9L20 9L20 10L19 10L19 8L20 8L20 7L21 7L21 5L20 5L20 3L19 3L19 2L18 2L18 1L21 1L21 0L13 0L13 1L11 1L11 2L10 2L10 0ZM12 2L12 4L13 4L13 3L14 3L14 2ZM16 2L16 4L17 4L17 8L16 8L16 9L17 9L17 8L19 8L19 7L20 7L20 6L19 6L19 5L18 5L18 4L19 4L19 3L18 3L18 2ZM10 3L10 4L11 4L11 3ZM17 3L17 4L18 4L18 3ZM8 5L8 7L9 7L9 5ZM18 6L18 7L19 7L19 6ZM27 8L27 10L28 10L28 8ZM20 10L20 11L19 11L19 12L20 12L20 13L25 13L25 11L24 11L24 10L23 10L23 11L22 11L22 10ZM20 11L20 12L22 12L22 11ZM23 11L23 12L24 12L24 11ZM28 11L28 13L29 13L29 11ZM10 12L10 13L11 13L11 14L10 14L10 15L9 15L9 18L8 18L8 16L7 16L7 17L6 17L6 18L7 18L7 19L8 19L8 20L9 20L9 21L11 21L11 18L13 18L13 19L12 19L12 21L14 21L14 22L15 22L15 20L14 20L14 19L15 19L15 18L13 18L13 17L12 17L12 15L13 15L13 16L14 16L14 17L15 17L15 15L13 15L13 14L14 14L14 13L13 13L13 14L12 14L12 13L11 13L11 12ZM1 13L1 14L2 14L2 15L4 15L4 14L3 14L3 13ZM26 14L26 15L27 15L27 14ZM10 15L10 17L11 17L11 15ZM3 16L3 18L4 18L4 16ZM26 16L26 17L28 17L28 18L27 18L27 20L29 20L29 19L28 19L28 18L29 18L29 16ZM22 18L22 20L25 20L25 19L23 19L23 18ZM9 19L9 20L10 20L10 19ZM21 21L21 24L24 24L24 21ZM28 21L28 22L27 22L27 23L28 23L28 22L29 22L29 21ZM18 22L18 23L19 23L19 22ZM22 22L22 23L23 23L23 22ZM14 23L14 24L15 24L15 23ZM8 24L8 29L9 29L9 28L10 28L10 29L12 29L12 27L13 27L13 26L11 26L11 25L10 25L10 24ZM9 25L9 27L10 27L10 28L11 28L11 27L10 27L10 25ZM20 26L20 28L17 28L17 29L20 29L20 28L22 28L22 29L24 29L24 28L22 28L22 26ZM0 0L0 7L7 7L7 0ZM1 1L1 6L6 6L6 1ZM2 2L2 5L5 5L5 2ZM22 0L22 7L29 7L29 0ZM23 1L23 6L28 6L28 1ZM24 2L24 5L27 5L27 2ZM0 22L0 29L7 29L7 22ZM1 23L1 28L6 28L6 23ZM2 24L2 27L5 27L5 24Z" fill="#282828"/></g></g></svg>
