<?xml version="1.0" encoding="UTF-8"?>
<svg xmlns="http://www.w3.org/2000/svg" version="1.1" width="90" height="90" viewBox="0 0 90 90"><rect x="0" y="0" width="90" height="90" fill="#ffffff"/><g transform="scale(3.333)"><g transform="translate(1,1)"><path fill-rule="evenodd" d="M8 0L8 1L9 1L9 2L8 2L8 5L9 5L9 6L8 6L8 7L9 7L9 8L8 8L8 9L7 9L7 8L6 8L6 9L5 9L5 11L4 11L4 12L3 12L3 10L1 10L1 9L4 9L4 8L0 8L0 10L1 10L1 11L0 11L0 12L1 12L1 13L5 13L5 11L8 11L8 13L7 13L7 12L6 12L6 13L7 13L7 14L6 14L6 15L7 15L7 14L8 14L8 15L10 15L10 14L13 14L13 15L14 15L14 16L13 16L13 17L9 17L9 16L6 16L6 17L8 17L8 18L9 18L9 20L10 20L10 21L8 21L8 25L9 25L9 24L10 24L10 23L9 23L9 22L10 22L10 21L11 21L11 24L12 24L12 23L13 23L13 25L15 25L15 23L16 23L16 22L15 22L15 20L16 20L16 21L17 21L17 22L18 22L18 23L21 23L21 25L25 25L25 24L23 24L23 23L24 23L24 22L25 22L25 17L23 17L23 16L22 16L22 15L21 15L21 14L23 14L23 15L24 15L24 14L23 14L23 13L24 13L24 12L25 12L25 11L22 11L22 10L23 10L23 8L20 8L20 9L19 9L19 10L20 10L20 11L19 11L19 12L18 12L18 10L17 10L17 9L18 9L18 8L17 8L17 6L16 6L16 11L17 11L17 13L15 13L15 11L14 11L14 10L12 10L12 9L13 9L13 8L12 8L12 7L13 7L13 6L12 6L12 7L11 7L11 6L10 6L10 3L11 3L11 2L13 2L13 3L12 3L12 5L13 5L13 4L14 4L14 7L15 7L15 5L16 5L16 3L17 3L17 2L16 2L16 3L15 3L15 4L14 4L14 0ZM15 0L15 1L17 1L17 0ZM9 2L9 3L10 3L10 2ZM9 6L9 7L10 7L10 8L9 8L9 9L8 9L8 11L9 11L9 12L10 12L10 13L8 13L8 14L10 14L10 13L11 13L11 9L12 9L12 8L11 8L11 7L10 7L10 6ZM14 8L14 9L15 9L15 8ZM24 8L24 10L25 10L25 8ZM6 9L6 10L7 10L7 9ZM9 9L9 10L10 10L10 9ZM20 9L20 10L22 10L22 9ZM1 11L1 12L2 12L2 11ZM20 11L20 12L19 12L19 15L17 15L17 16L19 16L19 15L20 15L20 12L22 12L22 11ZM12 12L12 13L13 13L13 14L15 14L15 15L16 15L16 14L15 14L15 13L13 13L13 12ZM1 14L1 15L0 15L0 16L1 16L1 15L2 15L2 14ZM3 14L3 16L2 16L2 17L5 17L5 15L4 15L4 14ZM11 15L11 16L12 16L12 15ZM14 16L14 18L10 18L10 19L12 19L12 20L11 20L11 21L12 21L12 22L14 22L14 20L15 20L15 19L16 19L16 17L15 17L15 16ZM21 16L21 18L22 18L22 20L23 20L23 19L24 19L24 18L22 18L22 16ZM17 17L17 20L20 20L20 17ZM14 18L14 19L15 19L15 18ZM18 18L18 19L19 19L19 18ZM19 21L19 22L20 22L20 21ZM22 22L22 23L23 23L23 22ZM17 24L17 25L18 25L18 24ZM0 0L0 7L7 7L7 0ZM1 1L1 6L6 6L6 1ZM2 2L2 5L5 5L5 2ZM18 0L18 7L25 7L25 0ZM19 1L19 6L24 6L24 1ZM20 2L20 5L23 5L23 2ZM0 18L0 25L7 25L7 18ZM1 19L1 24L6 24L6 19ZM2 20L2 23L5 23L5 20Z" fill="#282828"/></g></g></svg>
