<?xml version="1.0" encoding="UTF-8"?>
<svg xmlns="http://www.w3.org/2000/svg" version="1.1" width="90" height="90" viewBox="0 0 90 90"><rect x="0" y="0" width="90" height="90" fill="#ffffff"/><g transform="scale(3.333)"><g transform="translate(1,1)"><path fill-rule="evenodd" d="M10 0L10 2L11 2L11 0ZM12 0L12 1L13 1L13 2L12 2L12 4L14 4L14 5L15 5L15 6L14 6L14 8L15 8L15 9L16 9L16 10L14 10L14 9L12 9L12 7L13 7L13 5L11 5L11 6L10 6L10 4L11 4L11 3L8 3L8 4L9 4L9 5L8 5L8 7L9 7L9 8L6 8L6 9L5 9L5 8L0 8L0 9L2 9L2 10L3 10L3 11L4 11L4 12L2 12L2 11L1 11L1 12L0 12L0 17L1 17L1 12L2 12L2 13L4 13L4 12L5 12L5 11L7 11L7 10L6 10L6 9L8 9L8 11L9 11L9 9L10 9L10 11L11 11L11 9L12 9L12 10L13 10L13 11L12 11L12 13L13 13L13 12L14 12L14 13L15 13L15 15L14 15L14 16L15 16L15 15L16 15L16 17L12 17L12 15L13 15L13 14L11 14L11 15L10 15L10 17L12 17L12 18L13 18L13 19L12 19L12 21L13 21L13 20L14 20L14 21L15 21L15 22L16 22L16 23L14 23L14 24L16 24L16 23L17 23L17 25L18 25L18 23L19 23L19 21L20 21L20 22L21 22L21 23L22 23L22 21L23 21L23 22L24 22L24 24L23 24L23 25L25 25L25 20L24 20L24 19L25 19L25 18L24 18L24 17L25 17L25 16L24 16L24 15L25 15L25 14L24 14L24 13L25 13L25 9L24 9L24 8L23 8L23 9L22 9L22 8L21 8L21 9L22 9L22 11L23 11L23 12L24 12L24 13L23 13L23 14L24 14L24 15L23 15L23 16L22 16L22 17L21 17L21 16L18 16L18 15L19 15L19 14L20 14L20 13L19 13L19 12L21 12L21 10L20 10L20 8L19 8L19 9L18 9L18 8L16 8L16 7L17 7L17 6L16 6L16 5L17 5L17 4L16 4L16 2L17 2L17 1L15 1L15 0L14 0L14 1L13 1L13 0ZM8 1L8 2L9 2L9 1ZM13 2L13 3L14 3L14 4L15 4L15 5L16 5L16 4L15 4L15 3L14 3L14 2ZM9 6L9 7L10 7L10 6ZM11 6L11 7L12 7L12 6ZM15 6L15 7L16 7L16 6ZM10 8L10 9L11 9L11 8ZM3 9L3 10L4 10L4 9ZM17 9L17 10L18 10L18 11L17 11L17 12L19 12L19 10L18 10L18 9ZM14 11L14 12L15 12L15 13L16 13L16 11ZM6 12L6 13L5 13L5 14L2 14L2 17L4 17L4 15L7 15L7 16L5 16L5 17L7 17L7 16L8 16L8 15L9 15L9 13L11 13L11 12ZM6 13L6 14L7 14L7 13ZM17 13L17 14L18 14L18 13ZM21 13L21 15L22 15L22 13ZM8 17L8 19L9 19L9 20L8 20L8 25L9 25L9 24L10 24L10 25L12 25L12 23L13 23L13 22L10 22L10 23L9 23L9 20L10 20L10 21L11 21L11 20L10 20L10 19L9 19L9 17ZM17 17L17 20L20 20L20 17ZM22 17L22 18L23 18L23 19L22 19L22 20L23 20L23 21L24 21L24 20L23 20L23 19L24 19L24 18L23 18L23 17ZM18 18L18 19L19 19L19 18ZM14 19L14 20L16 20L16 19ZM16 21L16 22L17 22L17 23L18 23L18 22L17 22L17 21ZM10 23L10 24L11 24L11 23ZM0 0L0 7L7 7L7 0ZM1 1L1 6L6 6L6 1ZM2 2L2 5L5 5L5 2ZM18 0L18 7L25 7L25 0ZM19 1L19 6L24 6L24 1ZM20 2L20 5L23 5L23 2ZM0 18L0 25L7 25L7 18ZM1 19L1 24L6 24L6 19ZM2 20L2 23L5 23L5 20Z" fill="#282828"/></g></g></svg>
