<?xml version="1.0" encoding="UTF-8"?>
<svg xmlns="http://www.w3.org/2000/svg" version="1.1" width="90" height="90" viewBox="0 0 90 90"><rect x="0" y="0" width="90" height="90" fill="#ffffff"/><g transform="scale(3.333)"><g transform="translate(1,1)"><path fill-rule="evenodd" d="M9 0L9 1L11 1L11 2L9 2L9 3L8 3L8 5L9 5L9 6L8 6L8 7L9 7L9 9L10 9L10 10L9 10L9 11L10 11L10 12L9 12L9 13L8 13L8 12L6 12L6 13L5 13L5 14L6 14L6 15L2 15L2 17L5 17L5 16L6 16L6 17L8 17L8 20L9 20L9 22L10 22L10 23L8 23L8 25L10 25L10 23L11 23L11 25L12 25L12 24L13 24L13 23L14 23L14 25L17 25L17 24L18 24L18 25L19 25L19 24L20 24L20 25L21 25L21 24L22 24L22 25L23 25L23 24L22 24L22 22L24 22L24 25L25 25L25 21L23 21L23 20L21 20L21 19L22 19L22 18L21 18L21 16L22 16L22 17L23 17L23 19L24 19L24 20L25 20L25 18L24 18L24 17L25 17L25 16L24 16L24 15L25 15L25 14L24 14L24 13L25 13L25 12L22 12L22 11L25 11L25 9L23 9L23 10L22 10L22 8L20 8L20 9L19 9L19 10L20 10L20 11L19 11L19 12L18 12L18 13L19 13L19 15L16 15L16 14L17 14L17 11L18 11L18 10L14 10L14 9L15 9L15 8L16 8L16 7L17 7L17 1L16 1L16 0L14 0L14 2L15 2L15 1L16 1L16 3L15 3L15 5L14 5L14 4L12 4L12 2L13 2L13 1L12 1L12 0ZM9 3L9 5L10 5L10 3ZM11 4L11 7L10 7L10 6L9 6L9 7L10 7L10 8L11 8L11 10L10 10L10 11L11 11L11 10L13 10L13 9L14 9L14 6L13 6L13 5L12 5L12 4ZM15 5L15 7L16 7L16 5ZM12 6L12 9L13 9L13 6ZM0 8L0 10L1 10L1 11L0 11L0 17L1 17L1 12L2 12L2 11L4 11L4 12L5 12L5 10L1 10L1 9L2 9L2 8ZM5 8L5 9L7 9L7 10L6 10L6 11L7 11L7 10L8 10L8 8ZM21 10L21 11L22 11L22 10ZM12 11L12 12L11 12L11 19L12 19L12 20L14 20L14 21L13 21L13 22L16 22L16 23L15 23L15 24L16 24L16 23L19 23L19 22L20 22L20 23L21 23L21 22L22 22L22 21L19 21L19 22L16 22L16 21L15 21L15 20L14 20L14 19L12 19L12 18L16 18L16 17L12 17L12 15L13 15L13 16L14 16L14 15L15 15L15 14L16 14L16 13L15 13L15 12L16 12L16 11L15 11L15 12L14 12L14 11ZM20 12L20 15L19 15L19 16L21 16L21 14L22 14L22 15L24 15L24 14L23 14L23 13L22 13L22 12ZM2 13L2 14L3 14L3 13ZM6 13L6 14L8 14L8 13ZM12 13L12 14L13 14L13 13ZM14 13L14 14L15 14L15 13ZM6 15L6 16L9 16L9 17L10 17L10 15ZM17 17L17 20L20 20L20 17ZM9 18L9 20L10 20L10 21L11 21L11 23L12 23L12 21L11 21L11 20L10 20L10 18ZM18 18L18 19L19 19L19 18ZM0 0L0 7L7 7L7 0ZM1 1L1 6L6 6L6 1ZM2 2L2 5L5 5L5 2ZM18 0L18 7L25 7L25 0ZM19 1L19 6L24 6L24 1ZM20 2L20 5L23 5L23 2ZM0 18L0 25L7 25L7 18ZM1 19L1 24L6 24L6 19ZM2 20L2 23L5 23L5 20Z" fill="#282828"/></g></g></svg>
