<?xml version="1.0" encoding="UTF-8"?>
<svg xmlns="http://www.w3.org/2000/svg" version="1.1" width="90" height="90" viewBox="0 0 90 90"><rect x="0" y="0" width="90" height="90" fill="#ffffff"/><g transform="scale(3.913)"><g transform="translate(1,1)"><path fill-rule="evenodd" d="M8 0L8 1L9 1L9 2L8 2L8 5L11 5L11 4L12 4L12 5L13 5L13 2L12 2L12 0L11 0L11 1L10 1L10 0ZM9 2L9 3L10 3L10 4L11 4L11 3L10 3L10 2ZM8 6L8 7L9 7L9 8L8 8L8 9L9 9L9 10L8 10L8 11L7 11L7 10L6 10L6 9L7 9L7 8L6 8L6 9L4 9L4 8L0 8L0 9L1 9L1 10L0 10L0 11L1 11L1 12L5 12L5 10L6 10L6 11L7 11L7 12L6 12L6 13L8 13L8 14L9 14L9 17L8 17L8 21L9 21L9 19L10 19L10 18L9 18L9 17L11 17L11 19L12 19L12 20L15 20L15 19L16 19L16 21L19 21L19 20L17 20L17 19L16 19L16 18L15 18L15 19L13 19L13 18L14 18L14 17L13 17L13 16L12 16L12 14L13 14L13 15L14 15L14 14L15 14L15 16L16 16L16 15L17 15L17 16L19 16L19 15L20 15L20 12L21 12L21 8L20 8L20 9L19 9L19 8L16 8L16 9L15 9L15 10L13 10L13 11L15 11L15 13L14 13L14 12L12 12L12 14L11 14L11 12L10 12L10 11L9 11L9 10L11 10L11 6L10 6L10 7L9 7L9 6ZM12 6L12 7L13 7L13 6ZM9 8L9 9L10 9L10 8ZM13 8L13 9L14 9L14 8ZM2 9L2 10L3 10L3 11L4 11L4 10L3 10L3 9ZM16 9L16 14L18 14L18 13L17 13L17 11L18 11L18 12L20 12L20 10L19 10L19 11L18 11L18 9ZM9 12L9 13L10 13L10 12ZM13 13L13 14L14 14L14 13ZM10 15L10 16L11 16L11 17L12 17L12 18L13 18L13 17L12 17L12 16L11 16L11 15ZM20 16L20 17L21 17L21 16ZM18 18L18 19L19 19L19 18ZM20 19L20 20L21 20L21 19ZM0 0L0 7L7 7L7 0ZM1 1L1 6L6 6L6 1ZM2 2L2 5L5 5L5 2ZM14 0L14 7L21 7L21 0ZM15 1L15 6L20 6L20 1ZM16 2L16 5L19 5L19 2ZM0 14L0 21L7 21L7 14ZM1 15L1 20L6 20L6 15ZM2 16L2 19L5 19L5 16Z" fill="#282828"/></g></g></svg>
