<?xml version="1.0" encoding="UTF-8"?>
<svg xmlns="http://www.w3.org/2000/svg" version="1.1" width="90" height="90" viewBox="0 0 90 90"><rect x="0" y="0" width="90" height="90" fill="#ffffff"/><g transform="scale(2.903)"><g transform="translate(1,1)"><path fill-rule="evenodd" d="M8 0L8 4L9 4L9 5L8 5L8 7L9 7L9 6L10 6L10 9L11 9L11 8L12 8L12 9L13 9L13 10L15 10L15 9L14 9L14 7L15 7L15 8L19 8L19 9L20 9L20 12L19 12L19 10L17 10L17 9L16 9L16 11L17 11L17 12L19 12L19 13L17 13L17 14L13 14L13 13L16 13L16 12L15 12L15 11L14 11L14 12L13 12L13 11L12 11L12 12L11 12L11 13L9 13L9 12L10 12L10 11L11 11L11 10L9 10L9 11L7 11L7 10L8 10L8 9L7 9L7 8L4 8L4 9L3 9L3 10L2 10L2 8L0 8L0 9L1 9L1 12L0 12L0 14L1 14L1 15L0 15L0 18L2 18L2 19L3 19L3 20L0 20L0 21L5 21L5 19L4 19L4 17L5 17L5 18L6 18L6 19L7 19L7 20L6 20L6 21L8 21L8 22L9 22L9 23L8 23L8 25L9 25L9 23L10 23L10 26L9 26L9 27L8 27L8 29L9 29L9 28L10 28L10 29L12 29L12 28L13 28L13 29L15 29L15 28L16 28L16 29L18 29L18 28L19 28L19 27L20 27L20 26L21 26L21 28L20 28L20 29L22 29L22 27L23 27L23 26L22 26L22 25L24 25L24 27L25 27L25 29L28 29L28 28L29 28L29 25L28 25L28 26L27 26L27 28L26 28L26 25L27 25L27 24L26 24L26 23L28 23L28 24L29 24L29 21L28 21L28 20L26 20L26 19L25 19L25 18L27 18L27 19L29 19L29 17L28 17L28 16L29 16L29 14L28 14L28 13L29 13L29 12L27 12L27 13L25 13L25 12L26 12L26 11L25 11L25 10L28 10L28 11L29 11L29 10L28 10L28 9L29 9L29 8L25 8L25 9L24 9L24 8L23 8L23 10L24 10L24 13L22 13L22 14L21 14L21 20L20 20L20 19L19 19L19 18L20 18L20 15L17 15L17 14L20 14L20 13L21 13L21 12L22 12L22 11L21 11L21 8L19 8L19 6L20 6L20 7L21 7L21 5L20 5L20 4L19 4L19 3L20 3L20 0L16 0L16 1L15 1L15 0L13 0L13 1L11 1L11 2L12 2L12 5L13 5L13 2L14 2L14 3L15 3L15 2L16 2L16 1L18 1L18 2L17 2L17 5L16 5L16 7L15 7L15 6L14 6L14 7L13 7L13 6L12 6L12 7L11 7L11 3L10 3L10 2L9 2L9 0ZM18 2L18 3L19 3L19 2ZM18 5L18 6L17 6L17 7L18 7L18 6L19 6L19 5ZM12 7L12 8L13 8L13 7ZM4 9L4 10L3 10L3 12L1 12L1 14L2 14L2 15L1 15L1 16L2 16L2 17L3 17L3 16L5 16L5 17L6 17L6 18L7 18L7 17L6 17L6 16L8 16L8 18L9 18L9 20L8 20L8 21L9 21L9 20L10 20L10 22L12 22L12 21L13 21L13 22L15 22L15 21L16 21L16 23L17 23L17 21L19 21L19 23L20 23L20 21L19 21L19 20L17 20L17 18L18 18L18 17L19 17L19 16L17 16L17 15L16 15L16 16L15 16L15 15L14 15L14 17L16 17L16 19L15 19L15 18L13 18L13 17L12 17L12 16L13 16L13 15L12 15L12 16L11 16L11 15L10 15L10 14L9 14L9 15L10 15L10 16L11 16L11 18L9 18L9 16L8 16L8 14L7 14L7 13L8 13L8 12L7 12L7 11L6 11L6 10L7 10L7 9ZM4 10L4 11L5 11L5 12L4 12L4 14L5 14L5 13L7 13L7 12L6 12L6 11L5 11L5 10ZM12 12L12 13L11 13L11 14L12 14L12 13L13 13L13 12ZM6 14L6 15L7 15L7 14ZM23 14L23 15L25 15L25 16L26 16L26 17L27 17L27 15L28 15L28 14L27 14L27 15L26 15L26 14ZM2 15L2 16L3 16L3 15ZM16 16L16 17L17 17L17 16ZM22 16L22 18L23 18L23 19L24 19L24 20L25 20L25 21L26 21L26 20L25 20L25 19L24 19L24 18L25 18L25 17L24 17L24 16ZM10 19L10 20L11 20L11 21L12 21L12 20L13 20L13 21L15 21L15 19L14 19L14 20L13 20L13 19L12 19L12 20L11 20L11 19ZM16 20L16 21L17 21L17 20ZM21 21L21 24L24 24L24 21ZM22 22L22 23L23 23L23 22ZM12 23L12 24L11 24L11 26L10 26L10 28L12 28L12 27L13 27L13 28L14 28L14 27L15 27L15 26L13 26L13 25L12 25L12 24L13 24L13 23ZM14 23L14 25L18 25L18 26L17 26L17 27L18 27L18 26L20 26L20 25L19 25L19 24L15 24L15 23ZM23 28L23 29L24 29L24 28ZM0 0L0 7L7 7L7 0ZM1 1L1 6L6 6L6 1ZM2 2L2 5L5 5L5 2ZM22 0L22 7L29 7L29 0ZM23 1L23 6L28 6L28 1ZM24 2L24 5L27 5L27 2ZM0 22L0 29L7 29L7 22ZM1 23L1 28L6 28L6 23ZM2 24L2 27L5 27L5 24Z" fill="#282828"/></g></g></svg>
