<?xml version="1.0" encoding="UTF-8"?>
<svg xmlns="http://www.w3.org/2000/svg" version="1.1" width="90" height="90" viewBox="0 0 90 90"><rect x="0" y="0" width="90" height="90" fill="#ffffff"/><g transform="scale(2.903)"><g transform="translate(1,1)"><path fill-rule="evenodd" d="M10 0L10 1L9 1L9 2L8 2L8 3L9 3L9 5L10 5L10 7L11 7L11 8L12 8L12 9L11 9L11 10L10 10L10 9L9 9L9 6L8 6L8 8L4 8L4 9L3 9L3 8L0 8L0 9L3 9L3 10L2 10L2 11L1 11L1 10L0 10L0 11L1 11L1 13L0 13L0 14L1 14L1 13L4 13L4 14L5 14L5 13L4 13L4 12L5 12L5 10L6 10L6 11L7 11L7 12L6 12L6 13L7 13L7 12L8 12L8 14L9 14L9 15L8 15L8 16L9 16L9 17L7 17L7 16L6 16L6 15L7 15L7 14L6 14L6 15L5 15L5 16L6 16L6 17L7 17L7 18L4 18L4 17L2 17L2 15L3 15L3 14L2 14L2 15L1 15L1 17L2 17L2 18L4 18L4 19L5 19L5 20L4 20L4 21L5 21L5 20L6 20L6 21L7 21L7 20L6 20L6 19L8 19L8 18L9 18L9 20L8 20L8 25L9 25L9 26L8 26L8 29L9 29L9 26L10 26L10 27L12 27L12 28L10 28L10 29L12 29L12 28L14 28L14 29L15 29L15 28L16 28L16 27L17 27L17 29L18 29L18 28L19 28L19 29L24 29L24 28L25 28L25 26L26 26L26 27L27 27L27 28L26 28L26 29L29 29L29 28L28 28L28 27L29 27L29 24L28 24L28 25L27 25L27 24L26 24L26 25L25 25L25 23L26 23L26 21L28 21L28 23L29 23L29 16L28 16L28 15L29 15L29 14L27 14L27 17L28 17L28 20L26 20L26 21L25 21L25 20L23 20L23 19L25 19L25 18L26 18L26 19L27 19L27 18L26 18L26 17L25 17L25 16L26 16L26 15L24 15L24 14L23 14L23 12L22 12L22 13L21 13L21 11L22 11L22 9L23 9L23 8L21 8L21 6L20 6L20 5L21 5L21 4L20 4L20 3L21 3L21 2L20 2L20 1L19 1L19 2L18 2L18 1L17 1L17 2L18 2L18 3L16 3L16 2L15 2L15 3L16 3L16 5L14 5L14 3L12 3L12 2L11 2L11 3L12 3L12 5L10 5L10 3L9 3L9 2L10 2L10 1L11 1L11 0ZM14 0L14 1L13 1L13 2L14 2L14 1L15 1L15 0ZM19 2L19 3L20 3L20 2ZM13 5L13 7L12 7L12 6L11 6L11 7L12 7L12 8L13 8L13 9L14 9L14 10L13 10L13 11L14 11L14 10L15 10L15 9L16 9L16 8L17 8L17 9L18 9L18 10L17 10L17 11L19 11L19 12L17 12L17 13L16 13L16 14L14 14L14 12L12 12L12 11L11 11L11 12L12 12L12 14L10 14L10 12L9 12L9 11L10 11L10 10L9 10L9 11L8 11L8 10L7 10L7 9L6 9L6 10L7 10L7 11L8 11L8 12L9 12L9 14L10 14L10 16L11 16L11 17L12 17L12 16L13 16L13 17L14 17L14 18L13 18L13 19L14 19L14 18L15 18L15 22L14 22L14 20L12 20L12 19L11 19L11 20L10 20L10 21L9 21L9 22L10 22L10 21L11 21L11 20L12 20L12 22L11 22L11 23L12 23L12 24L11 24L11 25L12 25L12 24L13 24L13 25L14 25L14 26L13 26L13 27L14 27L14 26L15 26L15 27L16 27L16 24L17 24L17 26L18 26L18 27L19 27L19 26L20 26L20 28L21 28L21 27L22 27L22 26L25 26L25 25L19 25L19 24L20 24L20 22L19 22L19 21L20 21L20 20L22 20L22 18L25 18L25 17L24 17L24 16L23 16L23 15L22 15L22 14L19 14L19 15L18 15L18 16L15 16L15 15L16 15L16 14L17 14L17 13L19 13L19 12L20 12L20 11L21 11L21 10L19 10L19 8L20 8L20 6L19 6L19 5L18 5L18 6L17 6L17 7L16 7L16 6L15 6L15 7L14 7L14 5ZM18 6L18 7L17 7L17 8L19 8L19 6ZM15 7L15 8L16 8L16 7ZM26 8L26 9L25 9L25 10L23 10L23 11L25 11L25 10L26 10L26 11L28 11L28 12L27 12L27 13L28 13L28 12L29 12L29 10L26 10L26 9L27 9L27 8ZM4 9L4 10L3 10L3 12L4 12L4 10L5 10L5 9ZM15 11L15 12L16 12L16 11ZM24 12L24 13L25 13L25 14L26 14L26 12ZM13 14L13 15L14 15L14 14ZM11 15L11 16L12 16L12 15ZM19 15L19 17L17 17L17 19L16 19L16 20L18 20L18 19L20 19L20 17L23 17L23 16L22 16L22 15L21 15L21 16L20 16L20 15ZM9 17L9 18L10 18L10 17ZM0 18L0 19L1 19L1 20L0 20L0 21L1 21L1 20L2 20L2 21L3 21L3 20L2 20L2 19L1 19L1 18ZM17 21L17 22L18 22L18 21ZM21 21L21 24L24 24L24 21ZM13 22L13 23L14 23L14 22ZM22 22L22 23L23 23L23 22ZM15 23L15 24L16 24L16 23ZM17 23L17 24L19 24L19 23ZM18 25L18 26L19 26L19 25ZM27 26L27 27L28 27L28 26ZM23 27L23 28L24 28L24 27ZM0 0L0 7L7 7L7 0ZM1 1L1 6L6 6L6 1ZM2 2L2 5L5 5L5 2ZM22 0L22 7L29 7L29 0ZM23 1L23 6L28 6L28 1ZM24 2L24 5L27 5L27 2ZM0 22L0 29L7 29L7 22ZM1 23L1 28L6 28L6 23ZM2 24L2 27L5 27L5 24Z" fill="#282828"/></g></g></svg>
