<?xml version="1.0" encoding="UTF-8"?>
<svg xmlns="http://www.w3.org/2000/svg" version="1.1" width="90" height="90" viewBox="0 0 90 90"><rect x="0" y="0" width="90" height="90" fill="#ffffff"/><g transform="scale(3.333)"><g transform="translate(1,1)"><path fill-rule="evenodd" d="M8 0L8 1L9 1L9 2L10 2L10 3L11 3L11 1L13 1L13 0L11 0L11 1L9 1L9 0ZM14 0L14 1L16 1L16 0ZM12 2L12 4L11 4L11 5L10 5L10 4L9 4L9 5L10 5L10 8L9 8L9 6L8 6L8 8L9 8L9 9L8 9L8 10L6 10L6 9L7 9L7 8L6 8L6 9L5 9L5 8L3 8L3 9L2 9L2 8L0 8L0 17L1 17L1 15L2 15L2 17L3 17L3 16L4 16L4 17L5 17L5 16L4 16L4 14L6 14L6 15L9 15L9 14L10 14L10 16L9 16L9 17L8 17L8 16L6 16L6 17L8 17L8 18L10 18L10 20L11 20L11 19L12 19L12 21L9 21L9 20L8 20L8 22L10 22L10 25L12 25L12 24L13 24L13 23L14 23L14 24L15 24L15 25L18 25L18 24L19 24L19 23L20 23L20 24L21 24L21 25L23 25L23 24L24 24L24 25L25 25L25 21L22 21L22 20L21 20L21 19L22 19L22 18L23 18L23 20L24 20L24 19L25 19L25 18L23 18L23 16L24 16L24 17L25 17L25 16L24 16L24 15L25 15L25 14L24 14L24 13L25 13L25 8L24 8L24 9L23 9L23 10L22 10L22 9L19 9L19 8L18 8L18 9L17 9L17 4L16 4L16 3L17 3L17 2L16 2L16 3L15 3L15 2ZM13 3L13 4L12 4L12 5L11 5L11 7L12 7L12 8L13 8L13 7L14 7L14 8L16 8L16 5L15 5L15 3ZM12 5L12 7L13 7L13 5ZM14 5L14 7L15 7L15 5ZM1 9L1 14L2 14L2 13L4 13L4 12L2 12L2 9ZM3 9L3 11L5 11L5 9ZM10 9L10 10L8 10L8 11L6 11L6 12L5 12L5 13L6 13L6 14L8 14L8 13L9 13L9 12L8 12L8 11L10 11L10 10L12 10L12 13L13 13L13 14L11 14L11 12L10 12L10 14L11 14L11 15L12 15L12 17L11 17L11 18L12 18L12 19L13 19L13 18L16 18L16 17L15 17L15 16L16 16L16 15L17 15L17 14L18 14L18 16L19 16L19 15L21 15L21 14L23 14L23 15L24 15L24 14L23 14L23 13L24 13L24 10L23 10L23 13L22 13L22 12L21 12L21 11L22 11L22 10L20 10L20 11L19 11L19 13L18 13L18 12L17 12L17 11L18 11L18 10L19 10L19 9L18 9L18 10L17 10L17 9L15 9L15 10L16 10L16 12L14 12L14 9L13 9L13 10L12 10L12 9ZM6 12L6 13L7 13L7 12ZM13 12L13 13L14 13L14 16L15 16L15 15L16 15L16 14L17 14L17 12L16 12L16 14L15 14L15 13L14 13L14 12ZM20 13L20 14L21 14L21 13ZM21 16L21 18L22 18L22 16ZM12 17L12 18L13 18L13 17ZM17 17L17 20L20 20L20 17ZM18 18L18 19L19 19L19 18ZM14 19L14 20L15 20L15 19ZM12 21L12 22L13 22L13 21ZM14 21L14 23L15 23L15 24L17 24L17 23L19 23L19 22L22 22L22 23L23 23L23 22L22 22L22 21L19 21L19 22L16 22L16 21ZM15 22L15 23L16 23L16 22ZM8 23L8 25L9 25L9 23ZM0 0L0 7L7 7L7 0ZM1 1L1 6L6 6L6 1ZM2 2L2 5L5 5L5 2ZM18 0L18 7L25 7L25 0ZM19 1L19 6L24 6L24 1ZM20 2L20 5L23 5L23 2ZM0 18L0 25L7 25L7 18ZM1 19L1 24L6 24L6 19ZM2 20L2 23L5 23L5 20Z" fill="#282828"/></g></g></svg>
