<?xml version="1.0" encoding="UTF-8"?>
<svg xmlns="http://www.w3.org/2000/svg" version="1.1" width="90" height="90" viewBox="0 0 90 90"><rect x="0" y="0" width="90" height="90" fill="#ffffff"/><g transform="scale(3.333)"><g transform="translate(1,1)"><path fill-rule="evenodd" d="M8 0L8 1L9 1L9 2L8 2L8 5L9 5L9 4L11 4L11 5L10 5L10 10L8 10L8 11L9 11L9 14L8 14L8 12L6 12L6 11L7 11L7 10L5 10L5 9L4 9L4 8L0 8L0 9L1 9L1 10L2 10L2 11L0 11L0 12L3 12L3 13L2 13L2 14L1 14L1 15L0 15L0 16L1 16L1 15L2 15L2 14L3 14L3 13L4 13L4 15L3 15L3 17L4 17L4 15L5 15L5 17L7 17L7 16L6 16L6 15L7 15L7 14L8 14L8 15L10 15L10 13L11 13L11 11L12 11L12 12L13 12L13 14L12 14L12 15L11 15L11 17L8 17L8 18L9 18L9 20L10 20L10 22L11 22L11 23L9 23L9 21L8 21L8 25L9 25L9 24L11 24L11 23L12 23L12 21L11 21L11 20L12 20L12 19L10 19L10 18L12 18L12 17L13 17L13 19L14 19L14 20L13 20L13 25L15 25L15 23L14 23L14 22L15 22L15 20L16 20L16 21L17 21L17 22L19 22L19 23L21 23L21 25L22 25L22 24L23 24L23 25L25 25L25 24L23 24L23 23L24 23L24 22L25 22L25 17L23 17L23 16L24 16L24 15L23 15L23 14L22 14L22 15L23 15L23 16L21 16L21 13L19 13L19 10L20 10L20 11L21 11L21 12L23 12L23 13L24 13L24 14L25 14L25 12L24 12L24 11L23 11L23 10L25 10L25 8L24 8L24 9L23 9L23 8L20 8L20 9L18 9L18 8L16 8L16 9L17 9L17 10L16 10L16 12L14 12L14 11L13 11L13 9L12 9L12 8L13 8L13 6L12 6L12 5L13 5L13 4L15 4L15 3L16 3L16 2L13 2L13 0L12 0L12 1L11 1L11 0L10 0L10 1L9 1L9 0ZM16 0L16 1L17 1L17 0ZM11 2L11 4L12 4L12 3L13 3L13 2ZM16 4L16 7L17 7L17 4ZM8 6L8 7L9 7L9 6ZM11 6L11 8L12 8L12 6ZM14 6L14 7L15 7L15 6ZM6 8L6 9L7 9L7 8ZM8 8L8 9L9 9L9 8ZM14 8L14 10L15 10L15 8ZM2 9L2 10L3 10L3 11L5 11L5 10L4 10L4 9ZM11 9L11 10L12 10L12 9ZM20 9L20 10L22 10L22 9ZM17 11L17 12L16 12L16 13L15 13L15 16L14 16L14 14L13 14L13 15L12 15L12 16L14 16L14 17L15 17L15 18L14 18L14 19L15 19L15 18L16 18L16 17L15 17L15 16L16 16L16 13L17 13L17 12L18 12L18 11ZM5 12L5 14L7 14L7 13L6 13L6 12ZM18 13L18 14L19 14L19 13ZM18 15L18 16L19 16L19 15ZM17 17L17 20L20 20L20 17ZM21 17L21 18L22 18L22 17ZM18 18L18 19L19 19L19 18ZM23 18L23 19L21 19L21 21L19 21L19 22L21 22L21 23L23 23L23 21L24 21L24 18ZM21 21L21 22L22 22L22 21ZM16 23L16 24L17 24L17 25L19 25L19 24L18 24L18 23ZM0 0L0 7L7 7L7 0ZM1 1L1 6L6 6L6 1ZM2 2L2 5L5 5L5 2ZM18 0L18 7L25 7L25 0ZM19 1L19 6L24 6L24 1ZM20 2L20 5L23 5L23 2ZM0 18L0 25L7 25L7 18ZM1 19L1 24L6 24L6 19ZM2 20L2 23L5 23L5 20Z" fill="#282828"/></g></g></svg>
