<?xml version="1.0" encoding="UTF-8"?>
<svg xmlns="http://www.w3.org/2000/svg" version="1.1" width="90" height="90" viewBox="0 0 90 90"><rect x="0" y="0" width="90" height="90" fill="#ffffff"/><g transform="scale(3.333)"><g transform="translate(1,1)"><path fill-rule="evenodd" d="M9 0L9 1L11 1L11 2L9 2L9 3L8 3L8 5L9 5L9 6L8 6L8 7L9 7L9 9L8 9L8 8L5 8L5 9L7 9L7 10L6 10L6 11L5 11L5 10L2 10L2 11L1 11L1 12L0 12L0 17L1 17L1 13L2 13L2 14L3 14L3 15L2 15L2 17L3 17L3 15L4 15L4 17L5 17L5 16L6 16L6 17L8 17L8 20L9 20L9 18L10 18L10 17L9 17L9 15L8 15L8 13L9 13L9 14L11 14L11 12L12 12L12 11L14 11L14 12L13 12L13 13L12 13L12 14L13 14L13 15L12 15L12 17L13 17L13 16L14 16L14 17L15 17L15 16L16 16L16 18L12 18L12 19L10 19L10 21L9 21L9 22L10 22L10 24L11 24L11 25L14 25L14 23L15 23L15 24L16 24L16 25L19 25L19 23L20 23L20 22L19 22L19 21L22 21L22 22L21 22L21 24L20 24L20 25L23 25L23 24L22 24L22 22L24 22L24 25L25 25L25 18L24 18L24 17L25 17L25 16L24 16L24 15L25 15L25 14L24 14L24 13L25 13L25 12L24 12L24 11L25 11L25 9L23 9L23 10L22 10L22 8L20 8L20 9L19 9L19 10L18 10L18 11L20 11L20 12L18 12L18 13L19 13L19 14L20 14L20 15L21 15L21 16L19 16L19 15L17 15L17 13L16 13L16 12L17 12L17 10L11 10L11 8L10 8L10 7L11 7L11 4L12 4L12 5L13 5L13 6L12 6L12 9L14 9L14 8L16 8L16 9L17 9L17 4L16 4L16 7L15 7L15 3L16 3L16 2L14 2L14 3L13 3L13 4L12 4L12 2L13 2L13 1L15 1L15 0L13 0L13 1L12 1L12 0ZM9 3L9 5L10 5L10 3ZM13 4L13 5L14 5L14 4ZM9 6L9 7L10 7L10 6ZM13 6L13 8L14 8L14 6ZM0 8L0 9L2 9L2 8ZM9 9L9 10L10 10L10 11L9 11L9 12L10 12L10 11L11 11L11 10L10 10L10 9ZM7 10L7 11L6 11L6 12L4 12L4 11L3 11L3 12L2 12L2 13L5 13L5 15L6 15L6 16L7 16L7 15L6 15L6 14L7 14L7 13L8 13L8 10ZM20 10L20 11L22 11L22 12L20 12L20 14L22 14L22 15L24 15L24 14L23 14L23 13L24 13L24 12L23 12L23 11L22 11L22 10ZM6 12L6 13L7 13L7 12ZM22 12L22 13L23 13L23 12ZM14 13L14 14L16 14L16 13ZM10 15L10 16L11 16L11 15ZM16 15L16 16L17 16L17 15ZM21 16L21 18L22 18L22 19L21 19L21 20L24 20L24 19L23 19L23 17L22 17L22 16ZM17 17L17 20L20 20L20 17ZM18 18L18 19L19 19L19 18ZM12 19L12 21L10 21L10 22L11 22L11 24L12 24L12 23L13 23L13 22L12 22L12 21L14 21L14 22L15 22L15 20L14 20L14 19ZM16 21L16 24L18 24L18 23L19 23L19 22L18 22L18 21ZM8 23L8 25L9 25L9 23ZM0 0L0 7L7 7L7 0ZM1 1L1 6L6 6L6 1ZM2 2L2 5L5 5L5 2ZM18 0L18 7L25 7L25 0ZM19 1L19 6L24 6L24 1ZM20 2L20 5L23 5L23 2ZM0 18L0 25L7 25L7 18ZM1 19L1 24L6 24L6 19ZM2 20L2 23L5 23L5 20Z" fill="#282828"/></g></g></svg>
