<?xml version="1.0" encoding="UTF-8"?>
<svg xmlns="http://www.w3.org/2000/svg" version="1.1" width="90" height="90" viewBox="0 0 90 90"><rect x="0" y="0" width="90" height="90" fill="#ffffff"/><g transform="scale(3.913)"><g transform="translate(1,1)"><path fill-rule="evenodd" d="M11 0L11 1L10 1L10 2L9 2L9 1L8 1L8 2L9 2L9 3L8 3L8 4L10 4L10 5L8 5L8 7L9 7L9 6L10 6L10 8L6 8L6 9L5 9L5 8L0 8L0 13L1 13L1 11L2 11L2 12L3 12L3 13L4 13L4 11L5 11L5 12L6 12L6 13L8 13L8 15L10 15L10 16L8 16L8 21L13 21L13 20L14 20L14 19L13 19L13 17L12 17L12 15L15 15L15 16L14 16L14 17L15 17L15 21L16 21L16 20L17 20L17 21L18 21L18 20L19 20L19 21L20 21L20 20L19 20L19 18L20 18L20 17L19 17L19 15L18 15L18 13L19 13L19 14L21 14L21 13L20 13L20 12L21 12L21 11L18 11L18 10L21 10L21 9L20 9L20 8L19 8L19 9L18 9L18 8L17 8L17 11L16 11L16 12L15 12L15 13L16 13L16 12L17 12L17 17L16 17L16 15L15 15L15 14L14 14L14 11L15 11L15 10L16 10L16 8L15 8L15 9L14 9L14 8L13 8L13 5L12 5L12 4L13 4L13 3L12 3L12 2L13 2L13 1L12 1L12 0ZM11 1L11 2L10 2L10 4L11 4L11 2L12 2L12 1ZM11 5L11 7L12 7L12 5ZM10 8L10 9L9 9L9 10L8 10L8 9L6 9L6 10L5 10L5 9L1 9L1 10L3 10L3 11L4 11L4 10L5 10L5 11L6 11L6 12L8 12L8 13L9 13L9 14L10 14L10 15L11 15L11 13L12 13L12 14L13 14L13 13L12 13L12 11L10 11L10 9L11 9L11 10L13 10L13 9L12 9L12 8ZM6 10L6 11L7 11L7 10ZM9 12L9 13L10 13L10 12ZM10 16L10 18L9 18L9 19L10 19L10 20L12 20L12 19L10 19L10 18L11 18L11 16ZM17 17L17 18L16 18L16 19L18 19L18 17ZM0 0L0 7L7 7L7 0ZM1 1L1 6L6 6L6 1ZM2 2L2 5L5 5L5 2ZM14 0L14 7L21 7L21 0ZM15 1L15 6L20 6L20 1ZM16 2L16 5L19 5L19 2ZM0 14L0 21L7 21L7 14ZM1 15L1 20L6 20L6 15ZM2 16L2 19L5 19L5 16Z" fill="#282828"/></g></g></svg>
