<?xml version="1.0" encoding="UTF-8"?>
<svg xmlns="http://www.w3.org/2000/svg" version="1.1" width="90" height="90" viewBox="0 0 90 90"><rect x="0" y="0" width="90" height="90" fill="#ffffff"/><g transform="scale(3.333)"><g transform="translate(1,1)"><path fill-rule="evenodd" d="M8 0L8 4L9 4L9 5L8 5L8 7L9 7L9 8L12 8L12 7L13 7L13 6L14 6L14 9L13 9L13 10L12 10L12 9L11 9L11 11L10 11L10 13L12 13L12 12L13 12L13 13L14 13L14 14L10 14L10 15L9 15L9 13L8 13L8 12L9 12L9 10L10 10L10 9L7 9L7 8L4 8L4 9L2 9L2 8L0 8L0 9L2 9L2 10L1 10L1 11L2 11L2 10L4 10L4 11L5 11L5 10L6 10L6 11L7 11L7 12L6 12L6 13L2 13L2 16L0 16L0 17L2 17L2 16L3 16L3 17L5 17L5 16L6 16L6 17L8 17L8 18L9 18L9 19L8 19L8 21L9 21L9 22L10 22L10 23L8 23L8 25L14 25L14 24L15 24L15 25L16 25L16 24L17 24L17 25L21 25L21 23L22 23L22 24L23 24L23 25L25 25L25 24L24 24L24 22L25 22L25 21L24 21L24 20L25 20L25 19L24 19L24 17L25 17L25 15L24 15L24 13L23 13L23 14L21 14L21 13L22 13L22 12L24 12L24 11L22 11L22 12L21 12L21 13L20 13L20 14L21 14L21 15L20 15L20 16L19 16L19 15L18 15L18 13L19 13L19 12L17 12L17 13L14 13L14 12L13 12L13 10L15 10L15 6L16 6L16 8L17 8L17 5L16 5L16 4L17 4L17 2L14 2L14 3L13 3L13 5L12 5L12 2L11 2L11 1L17 1L17 0L10 0L10 1L9 1L9 0ZM10 2L10 3L9 3L9 4L10 4L10 3L11 3L11 2ZM15 3L15 4L16 4L16 3ZM9 5L9 7L10 7L10 6L11 6L11 7L12 7L12 5ZM14 5L14 6L15 6L15 5ZM19 8L19 9L20 9L20 11L21 11L21 10L25 10L25 8L21 8L21 9L20 9L20 8ZM4 9L4 10L5 10L5 9ZM6 9L6 10L7 10L7 11L8 11L8 10L7 10L7 9ZM16 9L16 11L15 11L15 12L16 12L16 11L19 11L19 10L17 10L17 9ZM11 11L11 12L12 12L12 11ZM0 12L0 14L1 14L1 12ZM6 13L6 14L8 14L8 13ZM4 14L4 15L3 15L3 16L5 16L5 14ZM16 14L16 15L17 15L17 16L18 16L18 15L17 15L17 14ZM6 15L6 16L8 16L8 15ZM10 15L10 16L11 16L11 18L10 18L10 19L9 19L9 20L10 20L10 19L11 19L11 20L12 20L12 19L11 19L11 18L13 18L13 16L14 16L14 17L15 17L15 20L14 20L14 19L13 19L13 20L14 20L14 21L15 21L15 22L13 22L13 21L10 21L10 22L12 22L12 23L10 23L10 24L12 24L12 23L13 23L13 24L14 24L14 23L17 23L17 24L18 24L18 23L17 23L17 22L18 22L18 21L17 21L17 22L16 22L16 16L15 16L15 15L13 15L13 16L11 16L11 15ZM21 15L21 16L22 16L22 15ZM23 15L23 16L24 16L24 15ZM17 17L17 20L20 20L20 17ZM21 17L21 18L22 18L22 19L23 19L23 20L24 20L24 19L23 19L23 17ZM18 18L18 19L19 19L19 18ZM21 20L21 21L20 21L20 23L21 23L21 22L23 22L23 21L22 21L22 20ZM0 0L0 7L7 7L7 0ZM1 1L1 6L6 6L6 1ZM2 2L2 5L5 5L5 2ZM18 0L18 7L25 7L25 0ZM19 1L19 6L24 6L24 1ZM20 2L20 5L23 5L23 2ZM0 18L0 25L7 25L7 18ZM1 19L1 24L6 24L6 19ZM2 20L2 23L5 23L5 20Z" fill="#282828"/></g></g></svg>
