<?xml version="1.0" encoding="UTF-8"?>
<svg xmlns="http://www.w3.org/2000/svg" version="1.1" width="90" height="90" viewBox="0 0 90 90"><rect x="0" y="0" width="90" height="90" fill="#ffffff"/><g transform="scale(3.333)"><g transform="translate(1,1)"><path fill-rule="evenodd" d="M10 0L10 2L11 2L11 0ZM12 0L12 1L13 1L13 2L12 2L12 4L13 4L13 5L11 5L11 6L10 6L10 4L11 4L11 3L8 3L8 4L9 4L9 5L8 5L8 7L9 7L9 8L6 8L6 9L8 9L8 10L6 10L6 11L5 11L5 8L0 8L0 10L1 10L1 9L4 9L4 11L5 11L5 12L3 12L3 14L2 14L2 15L7 15L7 16L5 16L5 17L7 17L7 16L10 16L10 17L12 17L12 18L13 18L13 19L12 19L12 21L13 21L13 22L11 22L11 21L10 21L10 22L9 22L9 20L8 20L8 25L9 25L9 24L10 24L10 25L13 25L13 24L12 24L12 23L13 23L13 22L15 22L15 25L16 25L16 24L17 24L17 25L22 25L22 24L21 24L21 23L22 23L22 21L23 21L23 22L24 22L24 24L23 24L23 25L25 25L25 20L24 20L24 19L25 19L25 18L24 18L24 17L25 17L25 16L24 16L24 15L25 15L25 14L24 14L24 13L23 13L23 14L24 14L24 15L23 15L23 16L22 16L22 17L21 17L21 16L20 16L20 15L22 15L22 13L21 13L21 14L20 14L20 13L19 13L19 12L17 12L17 11L18 11L18 10L19 10L19 11L20 11L20 8L19 8L19 9L18 9L18 8L17 8L17 9L18 9L18 10L17 10L17 11L16 11L16 10L15 10L15 9L16 9L16 7L17 7L17 6L16 6L16 5L17 5L17 4L15 4L15 3L14 3L14 4L13 4L13 2L16 2L16 3L17 3L17 2L16 2L16 1L14 1L14 0ZM8 1L8 2L9 2L9 1ZM9 6L9 7L10 7L10 6ZM11 6L11 7L12 7L12 9L11 9L11 8L10 8L10 9L9 9L9 10L8 10L8 11L6 11L6 12L8 12L8 13L5 13L5 14L8 14L8 13L9 13L9 14L10 14L10 15L11 15L11 14L13 14L13 15L12 15L12 17L13 17L13 18L14 18L14 17L15 17L15 16L17 16L17 15L15 15L15 14L18 14L18 16L19 16L19 14L18 14L18 13L17 13L17 12L16 12L16 11L15 11L15 10L14 10L14 9L13 9L13 8L14 8L14 6L13 6L13 7L12 7L12 6ZM15 6L15 7L16 7L16 6ZM21 8L21 9L22 9L22 11L24 11L24 12L25 12L25 9L24 9L24 8L23 8L23 9L22 9L22 8ZM10 9L10 11L11 11L11 9ZM12 9L12 10L13 10L13 9ZM2 10L2 11L0 11L0 17L1 17L1 12L2 12L2 11L3 11L3 10ZM12 11L12 13L15 13L15 12L13 12L13 11ZM9 12L9 13L11 13L11 12ZM14 15L14 16L13 16L13 17L14 17L14 16L15 16L15 15ZM2 16L2 17L4 17L4 16ZM8 17L8 19L9 19L9 17ZM17 17L17 20L20 20L20 17ZM22 17L22 18L23 18L23 19L22 19L22 20L23 20L23 19L24 19L24 18L23 18L23 17ZM10 18L10 20L11 20L11 18ZM18 18L18 19L19 19L19 18ZM13 19L13 20L14 20L14 21L15 21L15 20L16 20L16 19L15 19L15 20L14 20L14 19ZM16 21L16 23L17 23L17 21ZM19 21L19 22L20 22L20 23L19 23L19 24L20 24L20 23L21 23L21 21ZM10 22L10 23L11 23L11 22ZM0 0L0 7L7 7L7 0ZM1 1L1 6L6 6L6 1ZM2 2L2 5L5 5L5 2ZM18 0L18 7L25 7L25 0ZM19 1L19 6L24 6L24 1ZM20 2L20 5L23 5L23 2ZM0 18L0 25L7 25L7 18ZM1 19L1 24L6 24L6 19ZM2 20L2 23L5 23L5 20Z" fill="#282828"/></g></g></svg>
