<?xml version="1.0" encoding="UTF-8"?>
<svg xmlns="http://www.w3.org/2000/svg" version="1.1" width="90" height="90" viewBox="0 0 90 90"><rect x="0" y="0" width="90" height="90" fill="#ffffff"/><g transform="scale(3.333)"><g transform="translate(1,1)"><path fill-rule="evenodd" d="M8 0L8 1L9 1L9 0ZM10 0L10 1L11 1L11 3L13 3L13 5L12 5L12 7L11 7L11 6L10 6L10 3L9 3L9 2L8 2L8 5L9 5L9 6L8 6L8 7L9 7L9 8L8 8L8 9L7 9L7 8L6 8L6 9L7 9L7 10L6 10L6 11L5 11L5 10L4 10L4 8L0 8L0 9L1 9L1 10L0 10L0 11L2 11L2 13L1 13L1 12L0 12L0 13L1 13L1 15L0 15L0 16L1 16L1 15L3 15L3 14L4 14L4 12L6 12L6 13L7 13L7 12L8 12L8 10L10 10L10 9L9 9L9 8L10 8L10 7L11 7L11 8L12 8L12 7L13 7L13 6L14 6L14 8L16 8L16 7L17 7L17 6L16 6L16 7L15 7L15 5L17 5L17 4L16 4L16 3L17 3L17 0L16 0L16 2L15 2L15 1L14 1L14 2L13 2L13 0ZM9 6L9 7L10 7L10 6ZM17 8L17 9L16 9L16 12L14 12L14 11L15 11L15 10L14 10L14 11L13 11L13 12L14 12L14 13L12 13L12 15L11 15L11 16L12 16L12 18L14 18L14 19L15 19L15 20L13 20L13 19L10 19L10 20L9 20L9 21L8 21L8 25L9 25L9 24L10 24L10 23L9 23L9 21L10 21L10 22L11 22L11 25L13 25L13 24L14 24L14 25L16 25L16 24L15 24L15 23L14 23L14 22L13 22L13 23L12 23L12 22L11 22L11 20L13 20L13 21L15 21L15 22L16 22L16 21L20 21L20 22L17 22L17 23L18 23L18 24L17 24L17 25L19 25L19 23L21 23L21 25L22 25L22 24L23 24L23 25L25 25L25 24L23 24L23 23L24 23L24 22L25 22L25 17L23 17L23 16L24 16L24 15L23 15L23 14L22 14L22 15L23 15L23 16L21 16L21 12L24 12L24 11L23 11L23 10L25 10L25 8L24 8L24 9L23 9L23 8L20 8L20 9L19 9L19 10L20 10L20 11L21 11L21 12L20 12L20 13L19 13L19 16L18 16L18 15L17 15L17 14L18 14L18 12L19 12L19 11L18 11L18 8ZM2 9L2 11L4 11L4 10L3 10L3 9ZM11 9L11 11L12 11L12 9ZM20 9L20 10L22 10L22 9ZM6 11L6 12L7 12L7 11ZM17 11L17 12L16 12L16 13L17 13L17 12L18 12L18 11ZM9 12L9 15L10 15L10 14L11 14L11 13L10 13L10 12ZM24 13L24 14L25 14L25 13ZM5 14L5 15L4 15L4 16L3 16L3 17L4 17L4 16L5 16L5 17L8 17L8 18L11 18L11 17L8 17L8 15L7 15L7 14ZM13 14L13 15L12 15L12 16L13 16L13 17L14 17L14 18L15 18L15 17L16 17L16 16L17 16L17 15L16 15L16 14ZM5 15L5 16L7 16L7 15ZM14 15L14 16L16 16L16 15ZM17 17L17 20L20 20L20 17ZM21 17L21 18L22 18L22 17ZM18 18L18 19L19 19L19 18ZM23 18L23 19L21 19L21 21L22 21L22 22L21 22L21 23L23 23L23 19L24 19L24 18ZM15 20L15 21L16 21L16 20ZM0 0L0 7L7 7L7 0ZM1 1L1 6L6 6L6 1ZM2 2L2 5L5 5L5 2ZM18 0L18 7L25 7L25 0ZM19 1L19 6L24 6L24 1ZM20 2L20 5L23 5L23 2ZM0 18L0 25L7 25L7 18ZM1 19L1 24L6 24L6 19ZM2 20L2 23L5 23L5 20Z" fill="#282828"/></g></g></svg>
