<?xml version="1.0" encoding="UTF-8"?>
<svg xmlns="http://www.w3.org/2000/svg" version="1.1" width="100" height="100" viewBox="0 0 100 100"><rect x="0" y="0" width="100" height="100" fill="#ffffff"/><g transform="scale(3.704)"><g transform="translate(1,1)"><path fill-rule="evenodd" d="M8 0L8 4L9 4L9 5L8 5L8 7L9 7L9 6L10 6L10 9L11 9L11 8L12 8L12 9L13 9L13 8L14 8L14 10L16 10L16 8L17 8L17 6L16 6L16 7L15 7L15 5L17 5L17 3L16 3L16 2L17 2L17 0L13 0L13 1L11 1L11 2L12 2L12 5L14 5L14 7L13 7L13 6L12 6L12 7L11 7L11 3L10 3L10 2L9 2L9 0ZM14 1L14 3L13 3L13 4L14 4L14 3L15 3L15 4L16 4L16 3L15 3L15 2L16 2L16 1ZM12 7L12 8L13 8L13 7ZM0 8L0 9L2 9L2 8ZM4 8L4 10L1 10L1 11L0 11L0 14L1 14L1 11L2 11L2 12L4 12L4 14L5 14L5 15L3 15L3 13L2 13L2 16L0 16L0 17L2 17L2 16L4 16L4 17L7 17L7 16L8 16L8 15L9 15L9 17L8 17L8 18L9 18L9 17L10 17L10 18L11 18L11 20L10 20L10 21L9 21L9 19L8 19L8 21L9 21L9 23L8 23L8 25L9 25L9 24L10 24L10 25L11 25L11 24L12 24L12 21L14 21L14 20L15 20L15 18L16 18L16 21L18 21L18 22L13 22L13 23L14 23L14 24L15 24L15 25L16 25L16 24L18 24L18 25L19 25L19 24L18 24L18 23L20 23L20 25L21 25L21 23L20 23L20 22L22 22L22 24L23 24L23 25L25 25L25 24L24 24L24 22L25 22L25 21L23 21L23 22L22 22L22 21L21 21L21 19L22 19L22 20L25 20L25 19L24 19L24 17L25 17L25 15L24 15L24 16L23 16L23 15L22 15L22 14L21 14L21 13L23 13L23 14L25 14L25 13L24 13L24 12L25 12L25 11L24 11L24 12L23 12L23 10L25 10L25 8L21 8L21 9L20 9L20 8L19 8L19 9L18 9L18 12L17 12L17 11L16 11L16 12L17 12L17 13L16 13L16 14L19 14L19 15L20 15L20 14L21 14L21 16L16 16L16 17L15 17L15 18L14 18L14 17L10 17L10 16L11 16L11 15L12 15L12 16L13 16L13 15L14 15L14 16L15 16L15 13L14 13L14 14L13 14L13 11L12 11L12 12L11 12L11 13L10 13L10 14L8 14L8 13L7 13L7 12L8 12L8 11L9 11L9 12L10 12L10 11L11 11L11 10L9 10L9 9L7 9L7 8ZM5 9L5 10L4 10L4 12L5 12L5 14L7 14L7 13L6 13L6 12L7 12L7 11L5 11L5 10L7 10L7 9ZM19 9L19 11L21 11L21 12L22 12L22 11L21 11L21 10L23 10L23 9L21 9L21 10L20 10L20 9ZM14 11L14 12L15 12L15 11ZM11 13L11 14L10 14L10 15L11 15L11 14L12 14L12 13ZM19 13L19 14L20 14L20 13ZM5 15L5 16L7 16L7 15ZM21 16L21 18L23 18L23 17L22 17L22 16ZM17 17L17 20L20 20L20 17ZM13 18L13 19L12 19L12 20L11 20L11 21L10 21L10 24L11 24L11 21L12 21L12 20L14 20L14 18ZM18 18L18 19L19 19L19 18ZM15 23L15 24L16 24L16 23ZM0 0L0 7L7 7L7 0ZM1 1L1 6L6 6L6 1ZM2 2L2 5L5 5L5 2ZM18 0L18 7L25 7L25 0ZM19 1L19 6L24 6L24 1ZM20 2L20 5L23 5L23 2ZM0 18L0 25L7 25L7 18ZM1 19L1 24L6 24L6 19ZM2 20L2 23L5 23L5 20Z" fill="#282828"/></g></g></svg>
