<?xml version="1.0" encoding="UTF-8"?>
<svg xmlns="http://www.w3.org/2000/svg" version="1.1" width="90" height="90" viewBox="0 0 90 90"><rect x="0" y="0" width="90" height="90" fill="#ffffff"/><g transform="scale(3.333)"><g transform="translate(1,1)"><path fill-rule="evenodd" d="M8 0L8 1L9 1L9 2L10 2L10 3L11 3L11 1L13 1L13 2L12 2L12 4L11 4L11 5L10 5L10 4L9 4L9 5L10 5L10 8L9 8L9 6L8 6L8 8L9 8L9 10L6 10L6 9L7 9L7 8L6 8L6 9L5 9L5 8L3 8L3 9L2 9L2 8L0 8L0 10L3 10L3 11L4 11L4 10L6 10L6 11L5 11L5 12L4 12L4 14L5 14L5 13L8 13L8 11L9 11L9 15L8 15L8 16L9 16L9 17L8 17L8 18L10 18L10 19L9 19L9 20L8 20L8 22L9 22L9 23L8 23L8 25L9 25L9 23L10 23L10 22L11 22L11 19L12 19L12 21L14 21L14 24L13 24L13 25L15 25L15 22L16 22L16 25L17 25L17 23L19 23L19 25L23 25L23 24L24 24L24 25L25 25L25 20L24 20L24 19L25 19L25 18L23 18L23 17L24 17L24 16L25 16L25 14L24 14L24 13L25 13L25 8L24 8L24 9L23 9L23 10L22 10L22 9L20 9L20 10L16 10L16 8L15 8L15 6L14 6L14 7L13 7L13 5L12 5L12 4L15 4L15 3L16 3L16 7L17 7L17 0L16 0L16 2L15 2L15 1L13 1L13 0L11 0L11 1L9 1L9 0ZM14 2L14 3L15 3L15 2ZM11 5L11 7L12 7L12 9L10 9L10 10L9 10L9 11L10 11L10 10L12 10L12 11L13 11L13 10L12 10L12 9L13 9L13 7L12 7L12 5ZM14 8L14 9L15 9L15 8ZM18 8L18 9L19 9L19 8ZM3 9L3 10L4 10L4 9ZM14 10L14 13L15 13L15 14L14 14L14 15L12 15L12 16L11 16L11 14L13 14L13 13L11 13L11 12L10 12L10 15L9 15L9 16L10 16L10 18L11 18L11 17L14 17L14 16L15 16L15 14L16 14L16 13L17 13L17 14L18 14L18 15L20 15L20 16L21 16L21 18L22 18L22 19L21 19L21 20L22 20L22 21L21 21L21 22L22 22L22 23L23 23L23 22L22 22L22 21L24 21L24 20L23 20L23 18L22 18L22 16L21 16L21 14L23 14L23 16L24 16L24 14L23 14L23 13L22 13L22 12L21 12L21 11L22 11L22 10L21 10L21 11L19 11L19 12L21 12L21 14L20 14L20 13L19 13L19 14L18 14L18 12L17 12L17 11L16 11L16 12L15 12L15 10ZM23 10L23 11L24 11L24 10ZM0 11L0 12L1 12L1 11ZM6 11L6 12L7 12L7 11ZM2 12L2 14L1 14L1 13L0 13L0 17L1 17L1 15L2 15L2 16L3 16L3 17L4 17L4 16L5 16L5 17L7 17L7 16L5 16L5 15L4 15L4 16L3 16L3 15L2 15L2 14L3 14L3 12ZM6 14L6 15L7 15L7 14ZM17 17L17 20L20 20L20 17ZM12 18L12 19L13 19L13 20L14 20L14 19L15 19L15 18ZM18 18L18 19L19 19L19 18ZM16 21L16 22L17 22L17 21ZM19 21L19 22L20 22L20 21ZM12 22L12 23L13 23L13 22ZM20 23L20 24L21 24L21 23ZM0 0L0 7L7 7L7 0ZM1 1L1 6L6 6L6 1ZM2 2L2 5L5 5L5 2ZM18 0L18 7L25 7L25 0ZM19 1L19 6L24 6L24 1ZM20 2L20 5L23 5L23 2ZM0 18L0 25L7 25L7 18ZM1 19L1 24L6 24L6 19ZM2 20L2 23L5 23L5 20Z" fill="#282828"/></g></g></svg>
