<?xml version="1.0" encoding="UTF-8"?>
<svg xmlns="http://www.w3.org/2000/svg" version="1.1" width="90" height="90" viewBox="0 0 90 90"><rect x="0" y="0" width="90" height="90" fill="#ffffff"/><g transform="scale(3.333)"><g transform="translate(1,1)"><path fill-rule="evenodd" d="M8 0L8 4L9 4L9 5L8 5L8 7L9 7L9 6L10 6L10 9L11 9L11 8L12 8L12 9L13 9L13 8L12 8L12 7L13 7L13 6L12 6L12 7L11 7L11 3L10 3L10 2L9 2L9 0ZM14 0L14 1L11 1L11 2L12 2L12 5L14 5L14 8L17 8L17 6L16 6L16 7L15 7L15 4L16 4L16 5L17 5L17 4L16 4L16 3L15 3L15 1L17 1L17 0ZM13 2L13 3L14 3L14 2ZM0 8L0 12L2 12L2 11L1 11L1 10L3 10L3 11L5 11L5 12L3 12L3 13L0 13L0 14L2 14L2 16L0 16L0 17L5 17L5 16L6 16L6 17L7 17L7 16L8 16L8 18L9 18L9 19L8 19L8 21L9 21L9 23L8 23L8 25L10 25L10 24L9 24L9 23L11 23L11 24L12 24L12 25L13 25L13 24L12 24L12 23L13 23L13 22L14 22L14 21L12 21L12 18L13 18L13 19L14 19L14 20L15 20L15 19L16 19L16 21L15 21L15 22L16 22L16 21L17 21L17 23L15 23L15 25L16 25L16 24L17 24L17 25L19 25L19 24L20 24L20 22L21 22L21 23L22 23L22 24L23 24L23 25L25 25L25 24L24 24L24 22L25 22L25 21L23 21L23 20L25 20L25 19L24 19L24 17L23 17L23 16L24 16L24 13L25 13L25 12L24 12L24 11L22 11L22 12L21 12L21 10L25 10L25 8L21 8L21 9L20 9L20 8L19 8L19 9L17 9L17 10L16 10L16 9L14 9L14 10L13 10L13 11L12 11L12 12L11 12L11 13L10 13L10 14L9 14L9 13L8 13L8 11L9 11L9 12L10 12L10 11L11 11L11 10L9 10L9 9L8 9L8 10L5 10L5 9L7 9L7 8L4 8L4 10L3 10L3 9L2 9L2 8ZM19 9L19 10L18 10L18 11L19 11L19 10L20 10L20 9ZM14 10L14 11L13 11L13 14L12 14L12 13L11 13L11 14L10 14L10 15L9 15L9 14L8 14L8 15L9 15L9 16L10 16L10 19L11 19L11 17L13 17L13 18L16 18L16 16L14 16L14 15L15 15L15 14L16 14L16 15L17 15L17 14L18 14L18 16L19 16L19 14L20 14L20 13L18 13L18 12L16 12L16 13L15 13L15 12L14 12L14 11L15 11L15 10ZM6 11L6 12L7 12L7 11ZM22 12L22 13L21 13L21 14L23 14L23 13L24 13L24 12ZM3 13L3 16L4 16L4 15L5 15L5 14L7 14L7 13L5 13L5 14L4 14L4 13ZM16 13L16 14L17 14L17 13ZM11 14L11 15L10 15L10 16L12 16L12 14ZM6 15L6 16L7 16L7 15ZM21 15L21 16L22 16L22 15ZM13 16L13 17L14 17L14 16ZM17 17L17 20L20 20L20 17ZM21 17L21 18L22 18L22 19L23 19L23 17ZM18 18L18 19L19 19L19 18ZM9 20L9 21L11 21L11 20ZM21 20L21 22L23 22L23 21L22 21L22 20ZM18 22L18 24L19 24L19 22ZM0 0L0 7L7 7L7 0ZM1 1L1 6L6 6L6 1ZM2 2L2 5L5 5L5 2ZM18 0L18 7L25 7L25 0ZM19 1L19 6L24 6L24 1ZM20 2L20 5L23 5L23 2ZM0 18L0 25L7 25L7 18ZM1 19L1 24L6 24L6 19ZM2 20L2 23L5 23L5 20Z" fill="#282828"/></g></g></svg>
