<?xml version="1.0" encoding="UTF-8"?>
<svg xmlns="http://www.w3.org/2000/svg" version="1.1" width="90" height="90" viewBox="0 0 90 90"><rect x="0" y="0" width="90" height="90" fill="#ffffff"/><g transform="scale(3.333)"><g transform="translate(1,1)"><path fill-rule="evenodd" d="M8 0L8 1L11 1L11 3L10 3L10 2L9 2L9 3L10 3L10 5L9 5L9 6L8 6L8 8L9 8L9 9L10 9L10 10L9 10L9 11L10 11L10 10L11 10L11 9L10 9L10 7L11 7L11 6L12 6L12 9L13 9L13 10L12 10L12 11L14 11L14 12L16 12L16 14L15 14L15 15L14 15L14 13L12 13L12 14L13 14L13 15L12 15L12 16L10 16L10 14L11 14L11 12L9 12L9 13L8 13L8 12L6 12L6 13L8 13L8 14L5 14L5 13L3 13L3 11L1 11L1 10L5 10L5 11L4 11L4 12L5 12L5 11L7 11L7 10L8 10L8 9L7 9L7 8L6 8L6 9L5 9L5 8L3 8L3 9L2 9L2 8L0 8L0 9L1 9L1 10L0 10L0 17L1 17L1 15L2 15L2 16L4 16L4 17L8 17L8 18L9 18L9 17L10 17L10 20L8 20L8 22L11 22L11 25L12 25L12 24L13 24L13 23L12 23L12 22L14 22L14 23L16 23L16 22L17 22L17 23L18 23L18 22L19 22L19 23L21 23L21 24L20 24L20 25L23 25L23 24L24 24L24 25L25 25L25 21L22 21L22 20L21 20L21 19L22 19L22 18L23 18L23 19L24 19L24 20L25 20L25 18L23 18L23 17L24 17L24 16L25 16L25 14L24 14L24 13L25 13L25 8L24 8L24 9L23 9L23 10L22 10L22 9L19 9L19 8L18 8L18 9L19 9L19 10L22 10L22 11L18 11L18 10L17 10L17 11L18 11L18 13L20 13L20 14L21 14L21 15L20 15L20 16L19 16L19 14L17 14L17 12L16 12L16 10L15 10L15 11L14 11L14 9L16 9L16 7L17 7L17 6L16 6L16 7L15 7L15 5L17 5L17 1L16 1L16 0L14 0L14 1L12 1L12 0ZM14 1L14 2L16 2L16 1ZM12 2L12 4L13 4L13 5L12 5L12 6L13 6L13 7L14 7L14 8L15 8L15 7L14 7L14 4L16 4L16 3L13 3L13 2ZM10 5L10 6L9 6L9 7L10 7L10 6L11 6L11 5ZM6 9L6 10L7 10L7 9ZM23 10L23 12L24 12L24 10ZM1 12L1 14L3 14L3 13L2 13L2 12ZM20 12L20 13L21 13L21 14L23 14L23 16L24 16L24 14L23 14L23 13L22 13L22 12ZM4 15L4 16L5 16L5 15ZM6 15L6 16L7 16L7 15ZM8 15L8 17L9 17L9 15ZM13 15L13 16L14 16L14 17L12 17L12 18L11 18L11 19L12 19L12 20L13 20L13 21L14 21L14 22L15 22L15 20L16 20L16 17L15 17L15 16L16 16L16 15L15 15L15 16L14 16L14 15ZM21 16L21 18L22 18L22 16ZM17 17L17 20L20 20L20 17ZM12 18L12 19L13 19L13 20L14 20L14 19L15 19L15 18ZM18 18L18 19L19 19L19 18ZM10 20L10 21L11 21L11 22L12 22L12 21L11 21L11 20ZM19 21L19 22L22 22L22 23L23 23L23 22L22 22L22 21ZM8 23L8 25L10 25L10 24L9 24L9 23ZM14 24L14 25L15 25L15 24ZM16 24L16 25L19 25L19 24ZM0 0L0 7L7 7L7 0ZM1 1L1 6L6 6L6 1ZM2 2L2 5L5 5L5 2ZM18 0L18 7L25 7L25 0ZM19 1L19 6L24 6L24 1ZM20 2L20 5L23 5L23 2ZM0 18L0 25L7 25L7 18ZM1 19L1 24L6 24L6 19ZM2 20L2 23L5 23L5 20Z" fill="#282828"/></g></g></svg>
