<?xml version="1.0" encoding="UTF-8"?>
<svg xmlns="http://www.w3.org/2000/svg" version="1.1" width="90" height="90" viewBox="0 0 90 90"><rect x="0" y="0" width="90" height="90" fill="#ffffff"/><g transform="scale(3.333)"><g transform="translate(1,1)"><path fill-rule="evenodd" d="M8 0L8 1L9 1L9 2L8 2L8 5L9 5L9 4L11 4L11 5L10 5L10 10L8 10L8 9L9 9L9 8L8 8L8 9L7 9L7 8L6 8L6 9L7 9L7 10L6 10L6 11L4 11L4 10L5 10L5 9L4 9L4 8L0 8L0 13L1 13L1 10L2 10L2 9L3 9L3 11L2 11L2 14L1 14L1 15L0 15L0 16L1 16L1 15L2 15L2 17L4 17L4 15L5 15L5 14L4 14L4 13L5 13L5 12L6 12L6 13L7 13L7 12L8 12L8 13L9 13L9 14L8 14L8 15L7 15L7 14L6 14L6 15L7 15L7 16L6 16L6 17L8 17L8 18L9 18L9 21L8 21L8 25L9 25L9 22L10 22L10 20L12 20L12 19L11 19L11 18L10 18L10 15L11 15L11 16L12 16L12 17L13 17L13 16L12 16L12 14L13 14L13 15L14 15L14 18L13 18L13 21L15 21L15 20L16 20L16 22L14 22L14 23L10 23L10 24L11 24L11 25L12 25L12 24L15 24L15 23L16 23L16 24L17 24L17 25L18 25L18 24L20 24L20 25L22 25L22 24L23 24L23 25L25 25L25 24L23 24L23 23L24 23L24 22L25 22L25 21L23 21L23 23L21 23L21 22L22 22L22 21L21 21L21 19L23 19L23 18L24 18L24 20L25 20L25 15L24 15L24 16L19 16L19 15L20 15L20 14L22 14L22 15L23 15L23 14L22 14L22 12L23 12L23 10L25 10L25 8L24 8L24 9L23 9L23 8L20 8L20 9L18 9L18 8L17 8L17 9L16 9L16 11L15 11L15 12L14 12L14 14L13 14L13 12L12 12L12 13L11 13L11 11L14 11L14 8L15 8L15 6L14 6L14 8L13 8L13 6L12 6L12 5L13 5L13 4L14 4L14 2L15 2L15 0L12 0L12 1L11 1L11 0L10 0L10 1L9 1L9 0ZM13 1L13 2L11 2L11 4L12 4L12 3L13 3L13 2L14 2L14 1ZM16 1L16 3L15 3L15 5L16 5L16 7L17 7L17 4L16 4L16 3L17 3L17 1ZM8 6L8 7L9 7L9 6ZM11 6L11 8L12 8L12 6ZM11 9L11 10L12 10L12 9ZM17 9L17 11L16 11L16 12L15 12L15 14L14 14L14 15L15 15L15 16L16 16L16 15L17 15L17 16L18 16L18 15L19 15L19 13L21 13L21 12L20 12L20 11L19 11L19 10L18 10L18 9ZM20 9L20 10L22 10L22 9ZM6 11L6 12L7 12L7 11ZM8 11L8 12L9 12L9 11ZM17 11L17 12L16 12L16 14L17 14L17 15L18 15L18 14L17 14L17 13L19 13L19 12L18 12L18 11ZM24 11L24 14L25 14L25 11ZM3 12L3 13L4 13L4 12ZM10 13L10 14L11 14L11 13ZM2 14L2 15L4 15L4 14ZM8 15L8 16L9 16L9 15ZM15 17L15 18L16 18L16 17ZM17 17L17 20L20 20L20 17ZM21 17L21 18L22 18L22 17ZM18 18L18 19L19 19L19 18ZM19 21L19 22L18 22L18 23L20 23L20 21ZM16 22L16 23L17 23L17 22ZM0 0L0 7L7 7L7 0ZM1 1L1 6L6 6L6 1ZM2 2L2 5L5 5L5 2ZM18 0L18 7L25 7L25 0ZM19 1L19 6L24 6L24 1ZM20 2L20 5L23 5L23 2ZM0 18L0 25L7 25L7 18ZM1 19L1 24L6 24L6 19ZM2 20L2 23L5 23L5 20Z" fill="#282828"/></g></g></svg>
