<?xml version="1.0" encoding="UTF-8"?>
<svg xmlns="http://www.w3.org/2000/svg" version="1.1" width="90" height="90" viewBox="0 0 90 90"><rect x="0" y="0" width="90" height="90" fill="#ffffff"/><g transform="scale(3.333)"><g transform="translate(1,1)"><path fill-rule="evenodd" d="M8 0L8 4L10 4L10 3L11 3L11 4L12 4L12 2L11 2L11 0ZM12 0L12 1L13 1L13 2L15 2L15 5L14 5L14 3L13 3L13 5L11 5L11 6L10 6L10 7L9 7L9 5L8 5L8 7L9 7L9 8L10 8L10 7L11 7L11 6L12 6L12 8L11 8L11 9L9 9L9 10L8 10L8 11L7 11L7 10L6 10L6 11L7 11L7 12L6 12L6 13L5 13L5 14L4 14L4 15L3 15L3 16L0 16L0 17L3 17L3 16L4 16L4 15L5 15L5 17L7 17L7 16L6 16L6 15L8 15L8 14L9 14L9 16L8 16L8 18L10 18L10 19L8 19L8 21L9 21L9 22L10 22L10 23L8 23L8 25L10 25L10 23L11 23L11 22L10 22L10 21L9 21L9 20L12 20L12 21L13 21L13 22L15 22L15 23L14 23L14 24L13 24L13 23L12 23L12 24L11 24L11 25L12 25L12 24L13 24L13 25L15 25L15 24L16 24L16 23L18 23L18 24L17 24L17 25L18 25L18 24L20 24L20 22L21 22L21 23L22 23L22 24L23 24L23 25L25 25L25 24L24 24L24 22L25 22L25 19L24 19L24 17L23 17L23 16L24 16L24 13L25 13L25 11L22 11L22 12L24 12L24 13L23 13L23 14L22 14L22 13L21 13L21 12L20 12L20 11L19 11L19 9L20 9L20 10L25 10L25 8L21 8L21 9L20 9L20 8L19 8L19 9L18 9L18 12L15 12L15 13L14 13L14 11L16 11L16 10L17 10L17 6L16 6L16 7L15 7L15 5L17 5L17 1L16 1L16 0L15 0L15 1L13 1L13 0ZM15 1L15 2L16 2L16 1ZM9 2L9 3L10 3L10 2ZM13 5L13 8L12 8L12 9L11 9L11 10L9 10L9 12L7 12L7 13L6 13L6 14L5 14L5 15L6 15L6 14L8 14L8 13L9 13L9 14L11 14L11 16L12 16L12 17L11 17L11 18L12 18L12 17L13 17L13 18L16 18L16 17L13 17L13 16L14 16L14 15L15 15L15 16L16 16L16 15L15 15L15 14L16 14L16 13L15 13L15 14L13 14L13 13L12 13L12 12L13 12L13 11L12 11L12 12L11 12L11 13L10 13L10 11L11 11L11 10L12 10L12 9L13 9L13 10L14 10L14 9L13 9L13 8L15 8L15 9L16 9L16 8L15 8L15 7L14 7L14 5ZM0 8L0 9L2 9L2 8ZM4 8L4 10L2 10L2 11L1 11L1 10L0 10L0 11L1 11L1 12L3 12L3 13L2 13L2 14L3 14L3 13L4 13L4 12L5 12L5 9L7 9L7 8ZM19 12L19 14L18 14L18 13L17 13L17 16L18 16L18 15L19 15L19 14L20 14L20 16L22 16L22 15L21 15L21 14L20 14L20 12ZM0 13L0 14L1 14L1 13ZM12 15L12 16L13 16L13 15ZM9 16L9 17L10 17L10 16ZM17 17L17 20L20 20L20 17ZM21 17L21 18L22 18L22 19L23 19L23 21L22 21L22 20L21 20L21 22L23 22L23 21L24 21L24 19L23 19L23 17ZM18 18L18 19L19 19L19 18ZM12 19L12 20L13 20L13 19ZM14 19L14 21L15 21L15 22L17 22L17 21L16 21L16 19ZM18 22L18 23L19 23L19 22ZM0 0L0 7L7 7L7 0ZM1 1L1 6L6 6L6 1ZM2 2L2 5L5 5L5 2ZM18 0L18 7L25 7L25 0ZM19 1L19 6L24 6L24 1ZM20 2L20 5L23 5L23 2ZM0 18L0 25L7 25L7 18ZM1 19L1 24L6 24L6 19ZM2 20L2 23L5 23L5 20Z" fill="#282828"/></g></g></svg>
