<?xml version="1.0" encoding="UTF-8"?>
<svg xmlns="http://www.w3.org/2000/svg" version="1.1" width="90" height="90" viewBox="0 0 90 90"><rect x="0" y="0" width="90" height="90" fill="#ffffff"/><g transform="scale(2.903)"><g transform="translate(1,1)"><path fill-rule="evenodd" d="M9 0L9 1L8 1L8 2L9 2L9 3L8 3L8 4L10 4L10 7L11 7L11 4L12 4L12 5L13 5L13 6L12 6L12 9L13 9L13 8L14 8L14 9L15 9L15 10L17 10L17 11L16 11L16 12L17 12L17 13L18 13L18 16L19 16L19 17L20 17L20 21L19 21L19 18L17 18L17 19L18 19L18 20L16 20L16 18L15 18L15 19L14 19L14 20L16 20L16 21L17 21L17 22L15 22L15 21L12 21L12 19L13 19L13 18L11 18L11 16L10 16L10 14L11 14L11 13L12 13L12 14L13 14L13 15L12 15L12 17L13 17L13 16L14 16L14 17L17 17L17 16L14 16L14 15L17 15L17 14L16 14L16 13L12 13L12 11L13 11L13 10L11 10L11 11L10 11L10 9L11 9L11 8L6 8L6 9L5 9L5 8L0 8L0 10L2 10L2 9L4 9L4 10L3 10L3 12L2 12L2 11L0 11L0 12L1 12L1 14L0 14L0 16L2 16L2 17L0 17L0 21L1 21L1 18L3 18L3 16L6 16L6 17L5 17L5 20L6 20L6 21L8 21L8 23L9 23L9 22L10 22L10 24L8 24L8 29L9 29L9 28L10 28L10 26L11 26L11 29L12 29L12 27L13 27L13 26L11 26L11 22L10 22L10 21L12 21L12 22L13 22L13 23L12 23L12 25L13 25L13 24L14 24L14 25L16 25L16 26L15 26L15 27L14 27L14 28L15 28L15 29L18 29L18 28L16 28L16 26L17 26L17 27L18 27L18 25L16 25L16 23L18 23L18 24L20 24L20 25L19 25L19 27L20 27L20 25L25 25L25 24L26 24L26 25L27 25L27 28L26 28L26 26L23 26L23 28L22 28L22 26L21 26L21 29L23 29L23 28L24 28L24 29L27 29L27 28L28 28L28 26L29 26L29 25L28 25L28 24L26 24L26 23L28 23L28 22L29 22L29 20L28 20L28 18L29 18L29 17L28 17L28 16L29 16L29 15L28 15L28 16L26 16L26 17L28 17L28 18L27 18L27 21L28 21L28 22L25 22L25 20L26 20L26 19L25 19L25 17L23 17L23 18L22 18L22 17L20 17L20 16L22 16L22 14L23 14L23 16L24 16L24 15L25 15L25 13L27 13L27 12L26 12L26 11L25 11L25 10L26 10L26 8L25 8L25 9L24 9L24 8L23 8L23 9L22 9L22 8L21 8L21 1L20 1L20 0L18 0L18 3L19 3L19 1L20 1L20 8L21 8L21 9L20 9L20 11L18 11L18 10L19 10L19 6L18 6L18 5L19 5L19 4L17 4L17 2L16 2L16 4L12 4L12 2L13 2L13 1L11 1L11 2L10 2L10 0ZM15 0L15 1L17 1L17 0ZM14 2L14 3L15 3L15 2ZM10 3L10 4L11 4L11 3ZM16 4L16 5L17 5L17 4ZM8 5L8 7L9 7L9 5ZM13 6L13 7L14 7L14 8L15 8L15 7L16 7L16 9L17 9L17 8L18 8L18 6L17 6L17 7L16 7L16 6L15 6L15 7L14 7L14 6ZM27 8L27 10L28 10L28 8ZM6 9L6 10L7 10L7 9ZM8 9L8 10L9 10L9 9ZM21 9L21 10L22 10L22 11L23 11L23 12L22 12L22 13L25 13L25 11L23 11L23 10L22 10L22 9ZM4 10L4 12L3 12L3 13L5 13L5 14L4 14L4 15L6 15L6 16L7 16L7 17L6 17L6 18L7 18L7 17L8 17L8 16L7 16L7 15L8 15L8 14L9 14L9 13L6 13L6 12L9 12L9 11L6 11L6 12L5 12L5 10ZM14 11L14 12L15 12L15 11ZM17 11L17 12L18 12L18 11ZM20 11L20 13L19 13L19 16L20 16L20 13L21 13L21 11ZM28 11L28 13L29 13L29 11ZM10 12L10 13L11 13L11 12ZM1 14L1 15L3 15L3 14ZM6 14L6 15L7 15L7 14ZM26 14L26 15L27 15L27 14ZM8 18L8 19L6 19L6 20L8 20L8 21L10 21L10 20L11 20L11 18ZM21 18L21 20L25 20L25 19L22 19L22 18ZM2 19L2 21L4 21L4 19ZM9 19L9 20L10 20L10 19ZM21 21L21 24L24 24L24 21ZM18 22L18 23L20 23L20 22ZM22 22L22 23L23 23L23 22ZM14 23L14 24L15 24L15 23ZM9 25L9 26L10 26L10 25ZM24 27L24 28L25 28L25 27ZM19 28L19 29L20 29L20 28ZM0 0L0 7L7 7L7 0ZM1 1L1 6L6 6L6 1ZM2 2L2 5L5 5L5 2ZM22 0L22 7L29 7L29 0ZM23 1L23 6L28 6L28 1ZM24 2L24 5L27 5L27 2ZM0 22L0 29L7 29L7 22ZM1 23L1 28L6 28L6 23ZM2 24L2 27L5 27L5 24Z" fill="#282828"/></g></g></svg>
