<?xml version="1.0" encoding="UTF-8"?>
<svg xmlns="http://www.w3.org/2000/svg" version="1.1" width="90" height="90" viewBox="0 0 90 90"><rect x="0" y="0" width="90" height="90" fill="#ffffff"/><g transform="scale(2.903)"><g transform="translate(1,1)"><path fill-rule="evenodd" d="M8 0L8 1L10 1L10 0ZM15 0L15 1L14 1L14 2L11 2L11 4L10 4L10 3L9 3L9 2L8 2L8 5L9 5L9 6L8 6L8 7L9 7L9 8L8 8L8 9L7 9L7 8L6 8L6 9L7 9L7 10L6 10L6 11L5 11L5 9L4 9L4 8L0 8L0 10L1 10L1 11L2 11L2 10L1 10L1 9L4 9L4 10L3 10L3 12L1 12L1 13L0 13L0 16L1 16L1 17L2 17L2 16L1 16L1 15L3 15L3 16L4 16L4 14L5 14L5 15L7 15L7 16L6 16L6 17L3 17L3 18L2 18L2 19L7 19L7 20L6 20L6 21L8 21L8 22L9 22L9 21L8 21L8 20L10 20L10 19L7 19L7 18L8 18L8 17L9 17L9 18L11 18L11 19L12 19L12 20L11 20L11 21L10 21L10 23L14 23L14 22L15 22L15 21L16 21L16 20L15 20L15 21L14 21L14 20L13 20L13 18L14 18L14 17L12 17L12 16L14 16L14 15L15 15L15 14L14 14L14 13L13 13L13 14L12 14L12 12L16 12L16 10L17 10L17 11L18 11L18 12L17 12L17 13L18 13L18 12L19 12L19 14L18 14L18 15L19 15L19 16L18 16L18 17L17 17L17 16L16 16L16 17L15 17L15 19L16 19L16 18L18 18L18 19L17 19L17 21L20 21L20 22L19 22L19 24L20 24L20 25L21 25L21 26L20 26L20 29L21 29L21 26L22 26L22 29L23 29L23 28L26 28L26 29L28 29L28 27L29 27L29 25L28 25L28 24L29 24L29 23L27 23L27 21L26 21L26 20L27 20L27 19L28 19L28 17L27 17L27 19L25 19L25 18L26 18L26 17L25 17L25 18L24 18L24 14L22 14L22 13L20 13L20 12L23 12L23 11L22 11L22 8L21 8L21 6L20 6L20 5L19 5L19 4L18 4L18 3L19 3L19 2L18 2L18 1L21 1L21 0L18 0L18 1L17 1L17 0ZM16 1L16 3L12 3L12 5L10 5L10 6L9 6L9 7L10 7L10 8L9 8L9 9L8 9L8 11L6 11L6 12L5 12L5 11L4 11L4 12L3 12L3 13L1 13L1 14L3 14L3 13L6 13L6 14L7 14L7 15L9 15L9 17L10 17L10 13L11 13L11 11L14 11L14 10L15 10L15 9L16 9L16 8L17 8L17 7L18 7L18 6L19 6L19 8L20 8L20 10L18 10L18 11L19 11L19 12L20 12L20 10L21 10L21 8L20 8L20 6L19 6L19 5L18 5L18 6L17 6L17 4L16 4L16 3L18 3L18 2L17 2L17 1ZM13 4L13 5L12 5L12 7L11 7L11 6L10 6L10 7L11 7L11 8L12 8L12 7L13 7L13 9L15 9L15 5L14 5L14 4ZM13 5L13 7L14 7L14 5ZM16 6L16 7L17 7L17 6ZM24 8L24 9L23 9L23 10L24 10L24 13L26 13L26 14L25 14L25 15L28 15L28 16L29 16L29 14L28 14L28 13L29 13L29 12L28 12L28 9L29 9L29 8L28 8L28 9L27 9L27 8ZM9 9L9 10L10 10L10 9ZM26 9L26 10L25 10L25 12L27 12L27 13L28 13L28 12L27 12L27 11L26 11L26 10L27 10L27 9ZM6 12L6 13L7 13L7 12ZM9 12L9 13L10 13L10 12ZM11 14L11 16L12 16L12 14ZM13 14L13 15L14 15L14 14ZM20 14L20 16L19 16L19 17L18 17L18 18L19 18L19 20L20 20L20 19L21 19L21 20L25 20L25 19L23 19L23 15L21 15L21 14ZM6 17L6 18L7 18L7 17ZM11 17L11 18L12 18L12 17ZM19 17L19 18L21 18L21 19L22 19L22 18L21 18L21 17ZM0 18L0 19L1 19L1 18ZM1 20L1 21L2 21L2 20ZM3 20L3 21L4 21L4 20ZM11 21L11 22L12 22L12 21ZM21 21L21 24L24 24L24 21ZM28 21L28 22L29 22L29 21ZM16 22L16 24L14 24L14 26L13 26L13 24L12 24L12 25L11 25L11 24L10 24L10 25L8 25L8 29L11 29L11 28L12 28L12 29L13 29L13 28L12 28L12 26L13 26L13 27L14 27L14 29L15 29L15 28L16 28L16 29L17 29L17 28L16 28L16 27L19 27L19 25L18 25L18 26L17 26L17 25L16 25L16 24L17 24L17 22ZM22 22L22 23L23 23L23 22ZM25 23L25 25L22 25L22 26L24 26L24 27L25 27L25 26L26 26L26 25L27 25L27 27L26 27L26 28L27 28L27 27L28 27L28 25L27 25L27 23ZM10 25L10 27L11 27L11 25ZM14 26L14 27L16 27L16 26ZM18 28L18 29L19 29L19 28ZM0 0L0 7L7 7L7 0ZM1 1L1 6L6 6L6 1ZM2 2L2 5L5 5L5 2ZM22 0L22 7L29 7L29 0ZM23 1L23 6L28 6L28 1ZM24 2L24 5L27 5L27 2ZM0 22L0 29L7 29L7 22ZM1 23L1 28L6 28L6 23ZM2 24L2 27L5 27L5 24Z" fill="#282828"/></g></g></svg>
