<?xml version="1.0" encoding="UTF-8"?>
<svg xmlns="http://www.w3.org/2000/svg" version="1.1" width="90" height="90" viewBox="0 0 90 90"><rect x="0" y="0" width="90" height="90" fill="#ffffff"/><g transform="scale(2.903)"><g transform="translate(1,1)"><path fill-rule="evenodd" d="M8 0L8 1L11 1L11 3L10 3L10 2L9 2L9 3L10 3L10 5L9 5L9 6L8 6L8 8L9 8L9 9L10 9L10 10L9 10L9 11L7 11L7 10L8 10L8 9L7 9L7 8L6 8L6 9L7 9L7 10L6 10L6 11L4 11L4 9L5 9L5 8L3 8L3 9L2 9L2 8L0 8L0 12L1 12L1 13L0 13L0 15L1 15L1 16L0 16L0 21L2 21L2 20L3 20L3 19L4 19L4 21L8 21L8 22L11 22L11 24L10 24L10 25L13 25L13 26L11 26L11 28L10 28L10 27L8 27L8 29L9 29L9 28L10 28L10 29L11 29L11 28L12 28L12 27L14 27L14 26L15 26L15 27L16 27L16 28L14 28L14 29L17 29L17 27L18 27L18 22L19 22L19 25L20 25L20 26L19 26L19 27L21 27L21 28L19 28L19 29L22 29L22 25L23 25L23 29L25 29L25 28L27 28L27 27L28 27L28 28L29 28L29 23L28 23L28 20L27 20L27 19L29 19L29 18L28 18L28 17L27 17L27 18L26 18L26 17L24 17L24 16L23 16L23 17L24 17L24 18L22 18L22 17L21 17L21 16L20 16L20 14L19 14L19 13L18 13L18 10L20 10L20 11L19 11L19 12L20 12L20 13L21 13L21 11L22 11L22 14L21 14L21 15L22 15L22 14L23 14L23 15L25 15L25 16L27 16L27 15L25 15L25 13L26 13L26 11L27 11L27 12L28 12L28 11L27 11L27 10L26 10L26 9L24 9L24 12L23 12L23 11L22 11L22 10L20 10L20 7L21 7L21 3L20 3L20 2L21 2L21 1L20 1L20 0L17 0L17 2L18 2L18 3L20 3L20 4L18 4L18 5L20 5L20 7L19 7L19 6L18 6L18 7L19 7L19 9L17 9L17 8L15 8L15 5L16 5L16 3L15 3L15 2L16 2L16 0L13 0L13 1L12 1L12 0ZM12 2L12 4L14 4L14 5L15 5L15 4L14 4L14 3L13 3L13 2ZM10 5L10 6L9 6L9 7L10 7L10 9L11 9L11 10L10 10L10 11L9 11L9 12L8 12L8 13L9 13L9 14L8 14L8 15L5 15L5 13L6 13L6 14L7 14L7 13L6 13L6 12L7 12L7 11L6 11L6 12L2 12L2 11L1 11L1 12L2 12L2 13L1 13L1 14L2 14L2 18L3 18L3 17L4 17L4 18L5 18L5 19L6 19L6 20L7 20L7 19L6 19L6 18L7 18L7 17L8 17L8 18L9 18L9 17L10 17L10 15L11 15L11 16L12 16L12 15L14 15L14 14L17 14L17 15L15 15L15 16L13 16L13 17L12 17L12 18L10 18L10 20L9 20L9 19L8 19L8 20L9 20L9 21L10 21L10 20L11 20L11 19L12 19L12 21L11 21L11 22L12 22L12 23L13 23L13 22L12 22L12 21L13 21L13 19L12 19L12 18L15 18L15 16L18 16L18 17L17 17L17 19L14 19L14 25L15 25L15 24L16 24L16 23L15 23L15 21L17 21L17 22L18 22L18 21L19 21L19 22L20 22L20 21L19 21L19 20L18 20L18 19L19 19L19 18L18 18L18 17L19 17L19 14L18 14L18 13L16 13L16 12L17 12L17 9L15 9L15 11L16 11L16 12L15 12L15 13L13 13L13 12L14 12L14 9L12 9L12 6L13 6L13 8L14 8L14 6L13 6L13 5L12 5L12 6L11 6L11 5ZM10 6L10 7L11 7L11 6ZM16 6L16 7L17 7L17 6ZM22 8L22 9L23 9L23 8ZM28 8L28 10L29 10L29 8ZM1 9L1 10L2 10L2 9ZM12 10L12 11L13 11L13 10ZM9 12L9 13L10 13L10 14L11 14L11 12ZM24 12L24 13L25 13L25 12ZM3 13L3 16L5 16L5 15L4 15L4 13ZM12 13L12 14L13 14L13 13ZM27 13L27 14L28 14L28 16L29 16L29 14L28 14L28 13ZM8 15L8 17L9 17L9 15ZM6 16L6 17L7 17L7 16ZM20 18L20 20L21 20L21 19L22 19L22 20L24 20L24 19L26 19L26 18L24 18L24 19L22 19L22 18ZM21 21L21 24L24 24L24 21ZM25 21L25 23L26 23L26 25L24 25L24 26L25 26L25 27L27 27L27 26L28 26L28 25L27 25L27 23L26 23L26 21ZM22 22L22 23L23 23L23 22ZM8 24L8 26L9 26L9 24ZM0 0L0 7L7 7L7 0ZM1 1L1 6L6 6L6 1ZM2 2L2 5L5 5L5 2ZM22 0L22 7L29 7L29 0ZM23 1L23 6L28 6L28 1ZM24 2L24 5L27 5L27 2ZM0 22L0 29L7 29L7 22ZM1 23L1 28L6 28L6 23ZM2 24L2 27L5 27L5 24Z" fill="#282828"/></g></g></svg>
