<?xml version="1.0" encoding="UTF-8"?>
<svg xmlns="http://www.w3.org/2000/svg" version="1.1" width="90" height="90" viewBox="0 0 90 90"><rect x="0" y="0" width="90" height="90" fill="#ffffff"/><g transform="scale(2.903)"><g transform="translate(1,1)"><path fill-rule="evenodd" d="M10 0L10 1L9 1L9 2L8 2L8 3L9 3L9 5L10 5L10 7L11 7L11 8L12 8L12 9L11 9L11 10L10 10L10 9L9 9L9 6L8 6L8 8L4 8L4 9L3 9L3 8L0 8L0 9L1 9L1 10L0 10L0 11L2 11L2 13L3 13L3 14L0 14L0 16L1 16L1 15L2 15L2 17L1 17L1 18L0 18L0 19L1 19L1 20L0 20L0 21L1 21L1 20L2 20L2 21L7 21L7 20L8 20L8 25L10 25L10 27L12 27L12 28L11 28L11 29L12 29L12 28L14 28L14 29L15 29L15 28L16 28L16 27L17 27L17 29L18 29L18 28L19 28L19 29L24 29L24 28L25 28L25 26L26 26L26 25L27 25L27 26L28 26L28 27L27 27L27 28L26 28L26 29L29 29L29 28L28 28L28 27L29 27L29 24L28 24L28 25L27 25L27 24L26 24L26 25L25 25L25 22L26 22L26 23L27 23L27 22L26 22L26 21L25 21L25 20L26 20L26 19L27 19L27 20L28 20L28 19L29 19L29 16L28 16L28 15L29 15L29 14L27 14L27 13L28 13L28 12L29 12L29 10L28 10L28 9L27 9L27 8L26 8L26 10L25 10L25 11L24 11L24 13L25 13L25 11L28 11L28 12L27 12L27 13L26 13L26 14L23 14L23 12L22 12L22 13L21 13L21 12L20 12L20 11L23 11L23 10L22 10L22 9L23 9L23 8L19 8L19 6L20 6L20 7L21 7L21 6L20 6L20 4L21 4L21 3L19 3L19 2L21 2L21 1L20 1L20 0L17 0L17 2L18 2L18 4L17 4L17 3L16 3L16 2L15 2L15 3L16 3L16 5L14 5L14 3L12 3L12 2L11 2L11 3L12 3L12 5L10 5L10 3L9 3L9 2L10 2L10 1L11 1L11 0ZM14 0L14 1L13 1L13 2L14 2L14 1L15 1L15 0ZM13 5L13 7L12 7L12 6L11 6L11 7L12 7L12 8L13 8L13 9L14 9L14 10L13 10L13 11L14 11L14 10L15 10L15 9L16 9L16 8L17 8L17 7L18 7L18 6L19 6L19 5L18 5L18 6L17 6L17 7L16 7L16 6L15 6L15 7L14 7L14 5ZM15 7L15 8L16 8L16 7ZM18 8L18 10L17 10L17 11L20 11L20 9L19 9L19 8ZM4 9L4 10L3 10L3 13L4 13L4 12L5 12L5 13L6 13L6 14L5 14L5 15L4 15L4 16L3 16L3 18L4 18L4 17L5 17L5 19L3 19L3 20L7 20L7 19L8 19L8 18L10 18L10 17L12 17L12 16L13 16L13 17L14 17L14 18L13 18L13 19L14 19L14 18L15 18L15 19L16 19L16 21L15 21L15 22L14 22L14 20L12 20L12 19L11 19L11 20L10 20L10 19L9 19L9 21L11 21L11 20L12 20L12 22L10 22L10 23L9 23L9 24L10 24L10 25L12 25L12 24L13 24L13 25L14 25L14 26L13 26L13 27L14 27L14 26L15 26L15 27L16 27L16 24L17 24L17 26L18 26L18 27L19 27L19 28L20 28L20 26L18 26L18 25L20 25L20 23L19 23L19 19L20 19L20 20L24 20L24 19L23 19L23 18L27 18L27 19L28 19L28 17L27 17L27 15L22 15L22 14L21 14L21 13L20 13L20 12L18 12L18 13L16 13L16 14L14 14L14 12L12 12L12 11L11 11L11 12L12 12L12 14L11 14L11 15L12 15L12 16L10 16L10 17L9 17L9 15L8 15L8 12L7 12L7 11L10 11L10 10L8 10L8 9L6 9L6 10L5 10L5 9ZM4 10L4 11L5 11L5 10ZM6 10L6 11L7 11L7 10ZM15 11L15 12L16 12L16 11ZM0 12L0 13L1 13L1 12ZM6 12L6 13L7 13L7 12ZM9 12L9 14L10 14L10 12ZM6 14L6 15L7 15L7 14ZM13 14L13 15L14 15L14 14ZM16 14L16 15L15 15L15 16L17 16L17 17L18 17L18 14ZM19 15L19 16L20 16L20 18L21 18L21 19L22 19L22 18L23 18L23 16L22 16L22 15ZM6 16L6 17L8 17L8 16ZM24 16L24 17L25 17L25 16ZM1 18L1 19L2 19L2 18ZM6 18L6 19L7 19L7 18ZM16 18L16 19L17 19L17 22L18 22L18 18ZM21 21L21 24L24 24L24 21ZM28 21L28 23L29 23L29 21ZM13 22L13 23L14 23L14 22ZM22 22L22 23L23 23L23 22ZM10 23L10 24L12 24L12 23ZM15 23L15 24L16 24L16 23ZM17 23L17 24L19 24L19 23ZM21 25L21 27L22 27L22 28L24 28L24 27L23 27L23 25ZM24 25L24 26L25 26L25 25ZM8 26L8 29L9 29L9 26ZM0 0L0 7L7 7L7 0ZM1 1L1 6L6 6L6 1ZM2 2L2 5L5 5L5 2ZM22 0L22 7L29 7L29 0ZM23 1L23 6L28 6L28 1ZM24 2L24 5L27 5L27 2ZM0 22L0 29L7 29L7 22ZM1 23L1 28L6 28L6 23ZM2 24L2 27L5 27L5 24Z" fill="#282828"/></g></g></svg>
