<?xml version="1.0" encoding="UTF-8"?>
<svg xmlns="http://www.w3.org/2000/svg" version="1.1" width="90" height="90" viewBox="0 0 90 90"><rect x="0" y="0" width="90" height="90" fill="#ffffff"/><g transform="scale(3.333)"><g transform="translate(1,1)"><path fill-rule="evenodd" d="M8 0L8 1L11 1L11 3L10 3L10 2L9 2L9 3L10 3L10 5L9 5L9 6L8 6L8 8L9 8L9 9L10 9L10 10L8 10L8 11L7 11L7 10L6 10L6 11L2 11L2 10L1 10L1 9L2 9L2 8L0 8L0 10L1 10L1 11L0 11L0 12L1 12L1 11L2 11L2 12L4 12L4 13L7 13L7 14L3 14L3 15L7 15L7 16L6 16L6 17L8 17L8 18L11 18L11 19L12 19L12 20L14 20L14 22L15 22L15 21L17 21L17 22L16 22L16 23L17 23L17 24L16 24L16 25L17 25L17 24L18 24L18 25L21 25L21 24L22 24L22 25L23 25L23 24L24 24L24 25L25 25L25 21L24 21L24 20L25 20L25 18L23 18L23 17L24 17L24 16L25 16L25 14L24 14L24 13L25 13L25 8L24 8L24 9L23 9L23 10L22 10L22 9L19 9L19 8L18 8L18 9L19 9L19 10L18 10L18 13L19 13L19 11L20 11L20 10L22 10L22 11L21 11L21 13L20 13L20 15L18 15L18 14L17 14L17 15L18 15L18 16L15 16L15 17L16 17L16 19L13 19L13 18L14 18L14 16L13 16L13 15L14 15L14 14L15 14L15 15L16 15L16 13L17 13L17 11L16 11L16 10L15 10L15 9L16 9L16 7L17 7L17 3L15 3L15 1L14 1L14 0L13 0L13 1L12 1L12 0ZM13 1L13 2L12 2L12 3L13 3L13 2L14 2L14 1ZM16 1L16 2L17 2L17 1ZM14 3L14 4L13 4L13 5L12 5L12 6L11 6L11 5L10 5L10 6L9 6L9 7L10 7L10 9L14 9L14 8L15 8L15 7L16 7L16 4L15 4L15 3ZM14 4L14 7L13 7L13 6L12 6L12 7L13 7L13 8L14 8L14 7L15 7L15 4ZM10 6L10 7L11 7L11 6ZM3 8L3 9L4 9L4 10L5 10L5 8ZM6 8L6 9L7 9L7 8ZM10 10L10 11L9 11L9 12L7 12L7 11L6 11L6 12L7 12L7 13L8 13L8 14L7 14L7 15L8 15L8 16L12 16L12 15L13 15L13 14L14 14L14 13L15 13L15 12L16 12L16 11L15 11L15 10L13 10L13 12L11 12L11 10ZM23 10L23 13L22 13L22 14L23 14L23 16L24 16L24 14L23 14L23 13L24 13L24 10ZM9 12L9 13L10 13L10 15L11 15L11 14L13 14L13 13L11 13L11 12ZM0 13L0 17L1 17L1 15L2 15L2 13ZM8 14L8 15L9 15L9 14ZM20 15L20 16L21 16L21 18L22 18L22 19L21 19L21 20L22 20L22 21L19 21L19 22L18 22L18 24L20 24L20 23L19 23L19 22L22 22L22 23L23 23L23 22L22 22L22 21L23 21L23 20L24 20L24 19L23 19L23 18L22 18L22 16L21 16L21 15ZM2 16L2 17L4 17L4 16ZM11 17L11 18L13 18L13 17ZM17 17L17 20L20 20L20 17ZM18 18L18 19L19 19L19 18ZM9 19L9 20L8 20L8 22L9 22L9 23L8 23L8 25L9 25L9 23L10 23L10 24L11 24L11 23L12 23L12 21L11 21L11 20L10 20L10 19ZM9 20L9 21L10 21L10 23L11 23L11 21L10 21L10 20ZM14 23L14 24L13 24L13 25L14 25L14 24L15 24L15 23ZM0 0L0 7L7 7L7 0ZM1 1L1 6L6 6L6 1ZM2 2L2 5L5 5L5 2ZM18 0L18 7L25 7L25 0ZM19 1L19 6L24 6L24 1ZM20 2L20 5L23 5L23 2ZM0 18L0 25L7 25L7 18ZM1 19L1 24L6 24L6 19ZM2 20L2 23L5 23L5 20Z" fill="#282828"/></g></g></svg>
