<?xml version="1.0" encoding="UTF-8"?>
<svg xmlns="http://www.w3.org/2000/svg" version="1.1" width="90" height="90" viewBox="0 0 90 90"><rect x="0" y="0" width="90" height="90" fill="#ffffff"/><g transform="scale(3.333)"><g transform="translate(1,1)"><path fill-rule="evenodd" d="M8 0L8 1L9 1L9 2L8 2L8 5L9 5L9 4L11 4L11 5L10 5L10 10L9 10L9 8L8 8L8 11L7 11L7 10L5 10L5 11L7 11L7 12L4 12L4 8L0 8L0 10L1 10L1 9L3 9L3 12L2 12L2 11L0 11L0 12L1 12L1 13L2 13L2 14L1 14L1 15L0 15L0 16L1 16L1 15L2 15L2 17L5 17L5 16L4 16L4 14L5 14L5 15L8 15L8 16L9 16L9 17L8 17L8 18L10 18L10 17L11 17L11 16L12 16L12 14L14 14L14 16L13 16L13 18L15 18L15 17L16 17L16 19L14 19L14 21L15 21L15 22L14 22L14 23L13 23L13 25L14 25L14 24L17 24L17 23L19 23L19 24L18 24L18 25L22 25L22 24L23 24L23 25L25 25L25 24L23 24L23 23L24 23L24 22L25 22L25 20L24 20L24 21L23 21L23 23L21 23L21 22L22 22L22 21L21 21L21 19L23 19L23 18L24 18L24 19L25 19L25 15L24 15L24 16L21 16L21 14L22 14L22 15L23 15L23 14L22 14L22 12L23 12L23 13L24 13L24 14L25 14L25 12L24 12L24 11L23 11L23 10L25 10L25 8L24 8L24 9L23 9L23 8L20 8L20 9L18 9L18 8L17 8L17 6L16 6L16 11L13 11L13 6L12 6L12 5L14 5L14 9L15 9L15 5L17 5L17 4L15 4L15 1L14 1L14 0L12 0L12 1L11 1L11 0L10 0L10 1L9 1L9 0ZM16 0L16 1L17 1L17 0ZM13 1L13 2L11 2L11 4L12 4L12 3L13 3L13 2L14 2L14 1ZM8 6L8 7L9 7L9 6ZM11 6L11 8L12 8L12 6ZM6 8L6 9L7 9L7 8ZM11 9L11 10L12 10L12 9ZM17 9L17 11L18 11L18 12L19 12L19 13L18 13L18 14L19 14L19 15L20 15L20 14L19 14L19 13L21 13L21 11L20 11L20 10L22 10L22 9L20 9L20 10L18 10L18 9ZM8 11L8 12L9 12L9 11ZM11 11L11 13L10 13L10 14L9 14L9 13L8 13L8 14L9 14L9 16L10 16L10 14L11 14L11 13L12 13L12 12L13 12L13 13L14 13L14 14L15 14L15 16L14 16L14 17L15 17L15 16L16 16L16 15L17 15L17 14L15 14L15 13L14 13L14 12L13 12L13 11ZM3 13L3 14L4 14L4 13ZM5 13L5 14L7 14L7 13ZM6 16L6 17L7 17L7 16ZM17 17L17 20L20 20L20 17ZM21 17L21 18L22 18L22 17ZM18 18L18 19L19 19L19 18ZM9 19L9 20L10 20L10 23L12 23L12 22L13 22L13 19L11 19L11 20L10 20L10 19ZM11 20L11 21L12 21L12 20ZM15 20L15 21L16 21L16 20ZM8 21L8 25L9 25L9 21ZM17 21L17 22L15 22L15 23L17 23L17 22L18 22L18 21ZM19 21L19 22L21 22L21 21ZM10 24L10 25L12 25L12 24ZM0 0L0 7L7 7L7 0ZM1 1L1 6L6 6L6 1ZM2 2L2 5L5 5L5 2ZM18 0L18 7L25 7L25 0ZM19 1L19 6L24 6L24 1ZM20 2L20 5L23 5L23 2ZM0 18L0 25L7 25L7 18ZM1 19L1 24L6 24L6 19ZM2 20L2 23L5 23L5 20Z" fill="#282828"/></g></g></svg>
