<?xml version="1.0" encoding="UTF-8"?>
<svg xmlns="http://www.w3.org/2000/svg" version="1.1" width="90" height="90" viewBox="0 0 90 90"><rect x="0" y="0" width="90" height="90" fill="#ffffff"/><g transform="scale(3.333)"><g transform="translate(1,1)"><path fill-rule="evenodd" d="M8 0L8 1L11 1L11 3L10 3L10 2L9 2L9 3L10 3L10 5L9 5L9 6L8 6L8 8L9 8L9 9L10 9L10 10L8 10L8 11L10 11L10 10L11 10L11 9L10 9L10 7L11 7L11 6L12 6L12 9L13 9L13 8L14 8L14 13L15 13L15 11L17 11L17 12L16 12L16 14L15 14L15 15L14 15L14 14L13 14L13 13L12 13L12 14L13 14L13 15L12 15L12 16L11 16L11 15L10 15L10 16L9 16L9 15L8 15L8 16L6 16L6 15L7 15L7 14L6 14L6 15L4 15L4 14L3 14L3 15L2 15L2 14L1 14L1 13L3 13L3 12L2 12L2 11L3 11L3 10L1 10L1 9L2 9L2 8L0 8L0 10L1 10L1 12L0 12L0 17L1 17L1 15L2 15L2 17L3 17L3 15L4 15L4 16L6 16L6 17L8 17L8 18L9 18L9 19L10 19L10 18L12 18L12 19L11 19L11 20L10 20L10 23L11 23L11 25L14 25L14 22L15 22L15 23L16 23L16 25L19 25L19 23L20 23L20 25L23 25L23 24L24 24L24 25L25 25L25 20L23 20L23 21L22 21L22 20L21 20L21 19L22 19L22 18L23 18L23 19L25 19L25 18L23 18L23 17L24 17L24 16L25 16L25 14L24 14L24 13L25 13L25 12L24 12L24 11L25 11L25 8L24 8L24 9L23 9L23 10L22 10L22 9L19 9L19 8L18 8L18 9L17 9L17 8L16 8L16 7L17 7L17 3L16 3L16 2L17 2L17 1L16 1L16 0L15 0L15 1L16 1L16 2L13 2L13 1L12 1L12 0ZM12 2L12 4L13 4L13 5L12 5L12 6L13 6L13 7L14 7L14 6L15 6L15 7L16 7L16 5L15 5L15 4L16 4L16 3L14 3L14 4L13 4L13 2ZM10 5L10 6L9 6L9 7L10 7L10 6L11 6L11 5ZM3 8L3 9L5 9L5 10L4 10L4 11L5 11L5 10L6 10L6 11L7 11L7 10L6 10L6 9L7 9L7 8L6 8L6 9L5 9L5 8ZM15 9L15 10L17 10L17 11L18 11L18 10L19 10L19 9L18 9L18 10L17 10L17 9ZM12 10L12 11L13 11L13 10ZM21 10L21 11L22 11L22 10ZM23 10L23 11L24 11L24 10ZM19 11L19 12L20 12L20 13L18 13L18 12L17 12L17 13L18 13L18 14L16 14L16 16L15 16L15 18L14 18L14 17L12 17L12 18L13 18L13 19L12 19L12 21L11 21L11 22L12 22L12 23L13 23L13 22L12 22L12 21L13 21L13 19L15 19L15 18L16 18L16 16L20 16L20 15L19 15L19 14L20 14L20 13L21 13L21 12L20 12L20 11ZM4 12L4 13L7 13L7 12ZM8 12L8 13L10 13L10 14L11 14L11 12ZM23 12L23 13L22 13L22 14L23 14L23 16L24 16L24 14L23 14L23 13L24 13L24 12ZM13 15L13 16L14 16L14 15ZM8 16L8 17L9 17L9 16ZM21 16L21 18L22 18L22 16ZM17 17L17 20L20 20L20 17ZM18 18L18 19L19 19L19 18ZM8 20L8 22L9 22L9 20ZM14 20L14 21L15 21L15 20ZM16 21L16 22L18 22L18 23L19 23L19 22L18 22L18 21ZM20 21L20 22L22 22L22 23L23 23L23 22L22 22L22 21ZM8 23L8 25L9 25L9 23ZM0 0L0 7L7 7L7 0ZM1 1L1 6L6 6L6 1ZM2 2L2 5L5 5L5 2ZM18 0L18 7L25 7L25 0ZM19 1L19 6L24 6L24 1ZM20 2L20 5L23 5L23 2ZM0 18L0 25L7 25L7 18ZM1 19L1 24L6 24L6 19ZM2 20L2 23L5 23L5 20Z" fill="#282828"/></g></g></svg>
