<?xml version="1.0" encoding="UTF-8"?>
<svg xmlns="http://www.w3.org/2000/svg" version="1.1" width="90" height="90" viewBox="0 0 90 90"><rect x="0" y="0" width="90" height="90" fill="#ffffff"/><g transform="scale(3.333)"><g transform="translate(1,1)"><path fill-rule="evenodd" d="M8 0L8 1L10 1L10 0ZM13 0L13 2L11 2L11 4L10 4L10 3L9 3L9 2L8 2L8 5L9 5L9 6L8 6L8 7L9 7L9 8L8 8L8 9L7 9L7 8L6 8L6 9L7 9L7 10L6 10L6 11L8 11L8 9L9 9L9 10L10 10L10 9L9 9L9 8L10 8L10 7L11 7L11 8L12 8L12 7L13 7L13 6L14 6L14 9L15 9L15 6L14 6L14 5L12 5L12 3L13 3L13 4L15 4L15 5L16 5L16 8L17 8L17 9L16 9L16 12L17 12L17 13L15 13L15 14L16 14L16 15L17 15L17 16L16 16L16 17L15 17L15 16L13 16L13 15L14 15L14 12L15 12L15 10L14 10L14 11L11 11L11 13L10 13L10 12L9 12L9 13L10 13L10 14L12 14L12 16L11 16L11 17L10 17L10 16L6 16L6 17L8 17L8 18L11 18L11 19L12 19L12 20L11 20L11 21L10 21L10 20L9 20L9 21L8 21L8 25L11 25L11 23L14 23L14 20L16 20L16 21L15 21L15 23L16 23L16 24L17 24L17 23L20 23L20 25L22 25L22 24L23 24L23 25L25 25L25 24L23 24L23 23L24 23L24 22L25 22L25 21L24 21L24 20L25 20L25 15L24 15L24 16L21 16L21 14L22 14L22 15L23 15L23 14L22 14L22 12L23 12L23 13L24 13L24 14L25 14L25 11L24 11L24 12L23 12L23 10L25 10L25 8L24 8L24 9L23 9L23 8L20 8L20 9L18 9L18 8L17 8L17 2L14 2L14 1L17 1L17 0ZM15 3L15 4L16 4L16 3ZM10 5L10 6L9 6L9 7L10 7L10 6L11 6L11 7L12 7L12 5ZM0 8L0 10L2 10L2 9L4 9L4 8ZM17 9L17 10L18 10L18 11L17 11L17 12L18 12L18 11L19 11L19 13L18 13L18 15L20 15L20 14L19 14L19 13L21 13L21 12L20 12L20 11L19 11L19 10L18 10L18 9ZM20 9L20 10L22 10L22 9ZM3 10L3 12L4 12L4 13L3 13L3 14L1 14L1 15L0 15L0 16L1 16L1 15L2 15L2 16L3 16L3 17L5 17L5 16L4 16L4 15L3 15L3 14L4 14L4 13L7 13L7 14L5 14L5 15L7 15L7 14L8 14L8 15L9 15L9 14L8 14L8 13L7 13L7 12L5 12L5 10ZM1 11L1 12L0 12L0 13L1 13L1 12L2 12L2 11ZM12 12L12 14L13 14L13 12ZM12 16L12 17L11 17L11 18L12 18L12 17L13 17L13 16ZM17 17L17 20L20 20L20 17ZM21 17L21 18L22 18L22 17ZM15 18L15 19L16 19L16 18ZM18 18L18 19L19 19L19 18ZM23 18L23 19L21 19L21 21L19 21L19 22L21 22L21 23L23 23L23 19L24 19L24 18ZM13 19L13 20L14 20L14 19ZM9 21L9 24L10 24L10 21ZM11 21L11 22L12 22L12 21ZM17 21L17 22L16 22L16 23L17 23L17 22L18 22L18 21ZM21 21L21 22L22 22L22 21ZM12 24L12 25L13 25L13 24ZM14 24L14 25L15 25L15 24ZM18 24L18 25L19 25L19 24ZM0 0L0 7L7 7L7 0ZM1 1L1 6L6 6L6 1ZM2 2L2 5L5 5L5 2ZM18 0L18 7L25 7L25 0ZM19 1L19 6L24 6L24 1ZM20 2L20 5L23 5L23 2ZM0 18L0 25L7 25L7 18ZM1 19L1 24L6 24L6 19ZM2 20L2 23L5 23L5 20Z" fill="#282828"/></g></g></svg>
