<?xml version="1.0" encoding="UTF-8"?>
<svg xmlns="http://www.w3.org/2000/svg" version="1.1" width="90" height="90" viewBox="0 0 90 90"><rect x="0" y="0" width="90" height="90" fill="#ffffff"/><g transform="scale(3.333)"><g transform="translate(1,1)"><path fill-rule="evenodd" d="M9 0L9 1L8 1L8 2L9 2L9 3L8 3L8 4L10 4L10 7L11 7L11 4L12 4L12 5L15 5L15 6L14 6L14 7L15 7L15 6L16 6L16 9L14 9L14 8L13 8L13 6L12 6L12 9L14 9L14 10L11 10L11 11L10 11L10 9L11 9L11 8L6 8L6 9L9 9L9 10L6 10L6 11L8 11L8 13L9 13L9 14L6 14L6 13L7 13L7 12L6 12L6 13L5 13L5 8L0 8L0 9L2 9L2 10L1 10L1 11L2 11L2 13L1 13L1 12L0 12L0 17L1 17L1 14L3 14L3 15L4 15L4 14L3 14L3 12L4 12L4 13L5 13L5 14L6 14L6 15L5 15L5 16L4 16L4 17L8 17L8 19L10 19L10 21L9 21L9 20L8 20L8 25L10 25L10 23L11 23L11 22L10 22L10 21L12 21L12 22L13 22L13 23L12 23L12 25L13 25L13 24L14 24L14 25L15 25L15 24L16 24L16 23L15 23L15 21L18 21L18 22L19 22L19 23L18 23L18 25L22 25L22 24L20 24L20 22L21 22L21 23L22 23L22 21L23 21L23 22L24 22L24 24L23 24L23 25L25 25L25 18L24 18L24 17L23 17L23 16L22 16L22 17L21 17L21 16L19 16L19 15L20 15L20 13L22 13L22 12L19 12L19 11L17 11L17 9L18 9L18 8L17 8L17 3L16 3L16 1L17 1L17 0L16 0L16 1L15 1L15 2L14 2L14 3L13 3L13 4L12 4L12 2L13 2L13 1L11 1L11 2L10 2L10 0ZM10 3L10 4L11 4L11 3ZM14 3L14 4L15 4L15 5L16 5L16 4L15 4L15 3ZM8 5L8 7L9 7L9 5ZM19 8L19 10L20 10L20 11L21 11L21 10L20 10L20 8ZM21 8L21 9L22 9L22 11L23 11L23 14L24 14L24 16L25 16L25 14L24 14L24 13L25 13L25 12L24 12L24 11L25 11L25 9L24 9L24 8L23 8L23 9L22 9L22 8ZM3 9L3 10L2 10L2 11L4 11L4 9ZM12 11L12 13L11 13L11 12L10 12L10 13L11 13L11 16L10 16L10 15L9 15L9 16L10 16L10 18L13 18L13 19L12 19L12 21L15 21L15 20L16 20L16 19L15 19L15 17L16 17L16 16L17 16L17 15L14 15L14 16L13 16L13 17L12 17L12 15L13 15L13 14L12 14L12 13L14 13L14 14L15 14L15 12L14 12L14 11ZM16 12L16 13L17 13L17 14L19 14L19 13L17 13L17 12ZM21 14L21 15L22 15L22 14ZM6 15L6 16L7 16L7 15ZM2 16L2 17L3 17L3 16ZM14 16L14 17L15 17L15 16ZM17 17L17 20L20 20L20 17ZM22 17L22 18L23 18L23 19L22 19L22 20L24 20L24 18L23 18L23 17ZM18 18L18 19L19 19L19 18ZM14 19L14 20L15 20L15 19ZM19 21L19 22L20 22L20 21ZM9 22L9 23L10 23L10 22ZM14 23L14 24L15 24L15 23ZM0 0L0 7L7 7L7 0ZM1 1L1 6L6 6L6 1ZM2 2L2 5L5 5L5 2ZM18 0L18 7L25 7L25 0ZM19 1L19 6L24 6L24 1ZM20 2L20 5L23 5L23 2ZM0 18L0 25L7 25L7 18ZM1 19L1 24L6 24L6 19ZM2 20L2 23L5 23L5 20Z" fill="#282828"/></g></g></svg>
