<?xml version="1.0" encoding="UTF-8"?>
<svg xmlns="http://www.w3.org/2000/svg" version="1.1" width="90" height="90" viewBox="0 0 90 90"><rect x="0" y="0" width="90" height="90" fill="#ffffff"/><g transform="scale(3.333)"><g transform="translate(1,1)"><path fill-rule="evenodd" d="M8 0L8 1L10 1L10 0ZM16 0L16 1L17 1L17 0ZM14 1L14 2L11 2L11 4L10 4L10 3L9 3L9 2L8 2L8 5L9 5L9 6L8 6L8 7L9 7L9 8L8 8L8 9L7 9L7 8L6 8L6 9L5 9L5 10L4 10L4 8L0 8L0 11L1 11L1 10L2 10L2 9L3 9L3 10L4 10L4 11L3 11L3 12L0 12L0 13L1 13L1 15L0 15L0 16L1 16L1 15L2 15L2 16L3 16L3 17L5 17L5 16L3 16L3 14L6 14L6 15L8 15L8 16L6 16L6 17L8 17L8 18L9 18L9 19L12 19L12 20L9 20L9 21L8 21L8 25L9 25L9 24L10 24L10 25L11 25L11 23L14 23L14 22L17 22L17 23L21 23L21 25L22 25L22 24L23 24L23 25L25 25L25 24L23 24L23 23L24 23L24 22L25 22L25 21L24 21L24 19L25 19L25 15L24 15L24 16L21 16L21 14L22 14L22 15L23 15L23 14L22 14L22 12L23 12L23 13L24 13L24 14L25 14L25 11L23 11L23 10L25 10L25 8L24 8L24 9L23 9L23 8L20 8L20 9L22 9L22 10L19 10L19 11L21 11L21 13L19 13L19 12L17 12L17 13L16 13L16 12L15 12L15 11L14 11L14 10L16 10L16 11L18 11L18 10L17 10L17 9L18 9L18 8L17 8L17 6L16 6L16 7L15 7L15 6L14 6L14 3L15 3L15 5L17 5L17 2L16 2L16 3L15 3L15 1ZM12 3L12 5L10 5L10 6L9 6L9 7L10 7L10 8L9 8L9 9L10 9L10 10L8 10L8 11L6 11L6 10L7 10L7 9L6 9L6 10L5 10L5 11L6 11L6 12L7 12L7 13L6 13L6 14L8 14L8 13L9 13L9 15L10 15L10 16L8 16L8 17L9 17L9 18L10 18L10 17L11 17L11 18L12 18L12 17L14 17L14 18L13 18L13 20L14 20L14 21L16 21L16 20L15 20L15 19L16 19L16 17L15 17L15 15L16 15L16 16L17 16L17 14L15 14L15 15L14 15L14 14L13 14L13 13L15 13L15 12L12 12L12 14L10 14L10 13L11 13L11 11L13 11L13 10L14 10L14 9L15 9L15 8L14 8L14 6L13 6L13 7L12 7L12 5L13 5L13 3ZM10 6L10 7L11 7L11 8L12 8L12 7L11 7L11 6ZM16 8L16 9L17 9L17 8ZM8 11L8 12L9 12L9 13L10 13L10 12L9 12L9 11ZM18 13L18 14L19 14L19 16L20 16L20 14L19 14L19 13ZM12 14L12 16L11 16L11 17L12 17L12 16L14 16L14 15L13 15L13 14ZM17 17L17 20L20 20L20 17ZM21 17L21 18L22 18L22 17ZM18 18L18 19L19 19L19 18ZM23 18L23 19L21 19L21 21L19 21L19 22L21 22L21 23L23 23L23 19L24 19L24 18ZM9 21L9 23L11 23L11 22L12 22L12 21L11 21L11 22L10 22L10 21ZM21 21L21 22L22 22L22 21ZM15 23L15 24L14 24L14 25L15 25L15 24L16 24L16 23ZM12 24L12 25L13 25L13 24ZM17 24L17 25L20 25L20 24ZM0 0L0 7L7 7L7 0ZM1 1L1 6L6 6L6 1ZM2 2L2 5L5 5L5 2ZM18 0L18 7L25 7L25 0ZM19 1L19 6L24 6L24 1ZM20 2L20 5L23 5L23 2ZM0 18L0 25L7 25L7 18ZM1 19L1 24L6 24L6 19ZM2 20L2 23L5 23L5 20Z" fill="#282828"/></g></g></svg>
