<?xml version="1.0" encoding="UTF-8"?>
<svg xmlns="http://www.w3.org/2000/svg" version="1.1" width="90" height="90" viewBox="0 0 90 90"><rect x="0" y="0" width="90" height="90" fill="#ffffff"/><g transform="scale(3.333)"><g transform="translate(1,1)"><path fill-rule="evenodd" d="M10 0L10 1L8 1L8 3L9 3L9 4L8 4L8 8L6 8L6 9L7 9L7 10L5 10L5 9L4 9L4 8L3 8L3 9L2 9L2 8L0 8L0 9L1 9L1 10L4 10L4 12L5 12L5 13L7 13L7 14L6 14L6 15L5 15L5 14L3 14L3 11L2 11L2 12L1 12L1 11L0 11L0 13L2 13L2 15L1 15L1 14L0 14L0 15L1 15L1 16L0 16L0 17L4 17L4 16L5 16L5 17L8 17L8 19L9 19L9 21L8 21L8 22L10 22L10 24L11 24L11 22L12 22L12 21L10 21L10 20L11 20L11 19L12 19L12 20L13 20L13 18L14 18L14 20L15 20L15 18L16 18L16 21L19 21L19 22L18 22L18 23L17 23L17 24L16 24L16 23L14 23L14 24L15 24L15 25L20 25L20 24L21 24L21 22L22 22L22 21L21 21L21 20L24 20L24 21L25 21L25 20L24 20L24 19L25 19L25 17L23 17L23 16L24 16L24 15L25 15L25 13L24 13L24 14L23 14L23 12L22 12L22 15L23 15L23 16L20 16L20 13L21 13L21 12L20 12L20 13L19 13L19 12L18 12L18 11L17 11L17 10L18 10L18 9L21 9L21 8L18 8L18 9L16 9L16 8L15 8L15 9L14 9L14 8L12 8L12 7L13 7L13 6L14 6L14 7L15 7L15 6L16 6L16 7L17 7L17 1L16 1L16 0L14 0L14 1L15 1L15 2L14 2L14 3L15 3L15 5L13 5L13 3L12 3L12 7L11 7L11 4L10 4L10 3L9 3L9 2L11 2L11 0ZM15 2L15 3L16 3L16 2ZM9 5L9 8L8 8L8 9L10 9L10 10L9 10L9 11L5 11L5 12L7 12L7 13L10 13L10 14L8 14L8 16L9 16L9 19L11 19L11 18L12 18L12 16L14 16L14 17L15 17L15 16L17 16L17 13L18 13L18 12L17 12L17 11L16 11L16 10L15 10L15 11L16 11L16 12L15 12L15 13L14 13L14 12L12 12L12 16L10 16L10 14L11 14L11 13L10 13L10 12L9 12L9 11L11 11L11 8L10 8L10 5ZM22 8L22 10L21 10L21 11L25 11L25 10L23 10L23 9L24 9L24 8ZM13 9L13 10L14 10L14 9ZM19 10L19 11L20 11L20 10ZM16 12L16 13L15 13L15 14L14 14L14 13L13 13L13 15L15 15L15 14L16 14L16 13L17 13L17 12ZM2 15L2 16L4 16L4 15ZM6 15L6 16L7 16L7 15ZM18 15L18 16L19 16L19 15ZM17 17L17 20L20 20L20 17ZM22 17L22 18L21 18L21 19L24 19L24 18L23 18L23 17ZM18 18L18 19L19 19L19 18ZM14 21L14 22L15 22L15 21ZM20 21L20 22L19 22L19 24L20 24L20 22L21 22L21 21ZM24 22L24 23L25 23L25 22ZM8 23L8 25L9 25L9 23ZM12 24L12 25L13 25L13 24ZM22 24L22 25L25 25L25 24ZM0 0L0 7L7 7L7 0ZM1 1L1 6L6 6L6 1ZM2 2L2 5L5 5L5 2ZM18 0L18 7L25 7L25 0ZM19 1L19 6L24 6L24 1ZM20 2L20 5L23 5L23 2ZM0 18L0 25L7 25L7 18ZM1 19L1 24L6 24L6 19ZM2 20L2 23L5 23L5 20Z" fill="#282828"/></g></g></svg>
