<?xml version="1.0" encoding="UTF-8"?>
<svg xmlns="http://www.w3.org/2000/svg" version="1.1" width="90" height="90" viewBox="0 0 90 90"><rect x="0" y="0" width="90" height="90" fill="#ffffff"/><g transform="scale(3.333)"><g transform="translate(1,1)"><path fill-rule="evenodd" d="M8 0L8 1L9 1L9 2L10 2L10 3L11 3L11 1L13 1L13 0L11 0L11 1L9 1L9 0ZM14 0L14 1L16 1L16 0ZM12 2L12 4L11 4L11 5L10 5L10 4L9 4L9 5L10 5L10 8L9 8L9 6L8 6L8 8L9 8L9 10L10 10L10 11L9 11L9 13L10 13L10 12L11 12L11 13L13 13L13 14L11 14L11 16L12 16L12 15L14 15L14 14L15 14L15 15L16 15L16 14L17 14L17 13L19 13L19 12L20 12L20 11L21 11L21 13L20 13L20 14L21 14L21 16L19 16L19 14L18 14L18 16L13 16L13 17L10 17L10 14L9 14L9 17L8 17L8 18L9 18L9 19L10 19L10 18L11 18L11 19L12 19L12 21L13 21L13 22L12 22L12 23L13 23L13 22L14 22L14 24L12 24L12 25L15 25L15 24L16 24L16 25L17 25L17 23L18 23L18 24L19 24L19 25L21 25L21 24L22 24L22 25L23 25L23 24L24 24L24 25L25 25L25 20L24 20L24 19L25 19L25 18L23 18L23 17L24 17L24 16L25 16L25 14L24 14L24 12L25 12L25 8L24 8L24 9L23 9L23 10L22 10L22 9L19 9L19 8L18 8L18 9L19 9L19 10L17 10L17 11L16 11L16 10L14 10L14 11L16 11L16 12L15 12L15 13L13 13L13 11L12 11L12 10L13 10L13 9L12 9L12 7L13 7L13 8L14 8L14 9L17 9L17 2L16 2L16 3L15 3L15 2ZM13 3L13 4L12 4L12 5L11 5L11 7L12 7L12 5L13 5L13 4L14 4L14 5L15 5L15 7L14 7L14 6L13 6L13 7L14 7L14 8L16 8L16 5L15 5L15 3ZM0 8L0 9L2 9L2 8ZM3 8L3 9L5 9L5 8ZM6 8L6 9L7 9L7 8ZM10 9L10 10L12 10L12 9ZM2 10L2 11L1 11L1 12L3 12L3 13L0 13L0 17L1 17L1 15L2 15L2 16L3 16L3 17L4 17L4 16L3 16L3 14L4 14L4 15L5 15L5 14L6 14L6 15L7 15L7 16L6 16L6 17L7 17L7 16L8 16L8 12L6 12L6 13L5 13L5 14L4 14L4 12L5 12L5 11L8 11L8 10L5 10L5 11L3 11L3 10ZM19 10L19 11L20 11L20 10ZM21 10L21 11L22 11L22 10ZM23 10L23 12L24 12L24 10ZM17 11L17 12L16 12L16 13L15 13L15 14L16 14L16 13L17 13L17 12L18 12L18 11ZM6 13L6 14L7 14L7 13ZM22 13L22 14L23 14L23 16L24 16L24 14L23 14L23 13ZM21 16L21 18L22 18L22 19L21 19L21 20L22 20L22 21L19 21L19 22L22 22L22 23L23 23L23 22L22 22L22 21L23 21L23 18L22 18L22 16ZM15 17L15 18L16 18L16 17ZM17 17L17 20L20 20L20 17ZM12 18L12 19L13 19L13 18ZM18 18L18 19L19 19L19 18ZM8 20L8 22L9 22L9 23L8 23L8 25L9 25L9 23L10 23L10 24L11 24L11 23L10 23L10 22L11 22L11 21L10 21L10 20ZM13 20L13 21L14 21L14 22L15 22L15 23L17 23L17 22L15 22L15 20ZM19 23L19 24L20 24L20 23ZM0 0L0 7L7 7L7 0ZM1 1L1 6L6 6L6 1ZM2 2L2 5L5 5L5 2ZM18 0L18 7L25 7L25 0ZM19 1L19 6L24 6L24 1ZM20 2L20 5L23 5L23 2ZM0 18L0 25L7 25L7 18ZM1 19L1 24L6 24L6 19ZM2 20L2 23L5 23L5 20Z" fill="#282828"/></g></g></svg>
