<?xml version="1.0" encoding="UTF-8"?>
<svg xmlns="http://www.w3.org/2000/svg" version="1.1" width="90" height="90" viewBox="0 0 90 90"><rect x="0" y="0" width="90" height="90" fill="#ffffff"/><g transform="scale(2.903)"><g transform="translate(1,1)"><path fill-rule="evenodd" d="M8 0L8 4L10 4L10 3L11 3L11 4L12 4L12 2L11 2L11 0ZM12 0L12 1L13 1L13 0ZM18 0L18 2L17 2L17 1L16 1L16 2L15 2L15 3L14 3L14 2L13 2L13 3L14 3L14 4L13 4L13 5L11 5L11 6L10 6L10 7L9 7L9 5L8 5L8 7L9 7L9 8L10 8L10 7L11 7L11 6L12 6L12 8L11 8L11 9L8 9L8 10L6 10L6 9L7 9L7 8L4 8L4 9L2 9L2 8L0 8L0 9L1 9L1 10L0 10L0 11L1 11L1 12L0 12L0 13L1 13L1 14L2 14L2 16L3 16L3 17L1 17L1 16L0 16L0 18L2 18L2 20L0 20L0 21L2 21L2 20L3 20L3 21L4 21L4 20L6 20L6 21L8 21L8 22L9 22L9 23L8 23L8 25L9 25L9 26L10 26L10 27L8 27L8 29L9 29L9 28L10 28L10 29L11 29L11 28L12 28L12 29L14 29L14 27L16 27L16 26L17 26L17 29L18 29L18 27L19 27L19 26L20 26L20 25L25 25L25 26L26 26L26 27L25 27L25 29L26 29L26 27L27 27L27 29L28 29L28 28L29 28L29 25L28 25L28 26L27 26L27 25L25 25L25 24L26 24L26 22L27 22L27 24L28 24L28 23L29 23L29 18L28 18L28 17L29 17L29 16L26 16L26 15L23 15L23 16L25 16L25 17L22 17L22 16L19 16L19 15L18 15L18 14L19 14L19 13L18 13L18 11L19 11L19 9L18 9L18 10L13 10L13 9L16 9L16 8L15 8L15 6L16 6L16 7L17 7L17 8L18 8L18 7L19 7L19 6L20 6L20 7L21 7L21 6L20 6L20 5L19 5L19 4L20 4L20 3L21 3L21 2L20 2L20 1L19 1L19 0ZM9 2L9 3L10 3L10 2ZM19 2L19 3L17 3L17 5L16 5L16 4L15 4L15 5L16 5L16 6L17 6L17 7L18 7L18 4L19 4L19 3L20 3L20 2ZM13 6L13 8L12 8L12 9L11 9L11 10L9 10L9 11L8 11L8 12L9 12L9 13L6 13L6 12L7 12L7 11L6 11L6 10L5 10L5 9L4 9L4 11L3 11L3 10L1 10L1 11L2 11L2 12L1 12L1 13L2 13L2 12L3 12L3 13L4 13L4 11L6 11L6 12L5 12L5 14L7 14L7 15L4 15L4 16L9 16L9 19L8 19L8 21L9 21L9 19L11 19L11 18L12 18L12 17L13 17L13 18L15 18L15 17L17 17L17 18L18 18L18 19L20 19L20 20L22 20L22 18L21 18L21 17L19 17L19 16L18 16L18 17L17 17L17 16L15 16L15 17L13 17L13 16L14 16L14 15L15 15L15 14L13 14L13 13L12 13L12 12L13 12L13 11L12 11L12 12L11 12L11 13L10 13L10 11L11 11L11 10L12 10L12 9L13 9L13 8L14 8L14 6ZM20 8L20 9L21 9L21 10L22 10L22 11L21 11L21 12L20 12L20 13L22 13L22 14L27 14L27 13L28 13L28 12L29 12L29 8L25 8L25 9L24 9L24 8L23 8L23 9L21 9L21 8ZM23 10L23 11L24 11L24 12L22 12L22 13L25 13L25 12L26 12L26 13L27 13L27 11L28 11L28 10L27 10L27 11L26 11L26 10ZM14 11L14 13L15 13L15 11ZM16 13L16 15L17 15L17 13ZM8 14L8 15L9 15L9 16L11 16L11 17L10 17L10 18L11 18L11 17L12 17L12 16L13 16L13 15L12 15L12 16L11 16L11 15L10 15L10 14ZM20 14L20 15L21 15L21 14ZM28 14L28 15L29 15L29 14ZM4 17L4 18L3 18L3 20L4 20L4 18L8 18L8 17ZM18 17L18 18L19 18L19 17ZM26 17L26 18L27 18L27 19L26 19L26 21L28 21L28 20L27 20L27 19L28 19L28 18L27 18L27 17ZM24 18L24 19L23 19L23 20L25 20L25 18ZM6 19L6 20L7 20L7 19ZM12 19L12 20L11 20L11 21L10 21L10 22L11 22L11 24L10 24L10 23L9 23L9 24L10 24L10 26L12 26L12 25L13 25L13 26L16 26L16 25L13 25L13 24L14 24L14 23L15 23L15 24L17 24L17 22L16 22L16 23L15 23L15 22L13 22L13 21L12 21L12 20L13 20L13 19ZM14 19L14 21L16 21L16 20L15 20L15 19ZM18 20L18 21L19 21L19 22L20 22L20 21L19 21L19 20ZM21 21L21 24L24 24L24 21ZM22 22L22 23L23 23L23 22ZM12 23L12 24L11 24L11 25L12 25L12 24L13 24L13 23ZM18 23L18 25L19 25L19 23ZM21 26L21 28L20 28L20 29L21 29L21 28L23 28L23 27L22 27L22 26ZM12 27L12 28L13 28L13 27ZM15 28L15 29L16 29L16 28ZM0 0L0 7L7 7L7 0ZM1 1L1 6L6 6L6 1ZM2 2L2 5L5 5L5 2ZM22 0L22 7L29 7L29 0ZM23 1L23 6L28 6L28 1ZM24 2L24 5L27 5L27 2ZM0 22L0 29L7 29L7 22ZM1 23L1 28L6 28L6 23ZM2 24L2 27L5 27L5 24Z" fill="#282828"/></g></g></svg>
