<?xml version="1.0" encoding="UTF-8"?>
<svg xmlns="http://www.w3.org/2000/svg" version="1.1" width="90" height="90" viewBox="0 0 90 90"><rect x="0" y="0" width="90" height="90" fill="#ffffff"/><g transform="scale(3.333)"><g transform="translate(1,1)"><path fill-rule="evenodd" d="M9 0L9 1L10 1L10 0ZM12 0L12 1L13 1L13 0ZM14 0L14 2L15 2L15 3L16 3L16 4L15 4L15 5L14 5L14 8L13 8L13 6L12 6L12 9L11 9L11 8L10 8L10 7L11 7L11 5L13 5L13 4L14 4L14 3L13 3L13 2L12 2L12 3L10 3L10 2L9 2L9 3L8 3L8 5L9 5L9 6L8 6L8 7L9 7L9 9L10 9L10 10L8 10L8 8L5 8L5 9L2 9L2 8L0 8L0 9L2 9L2 10L1 10L1 11L0 11L0 17L1 17L1 12L2 12L2 13L3 13L3 12L4 12L4 13L5 13L5 14L6 14L6 15L7 15L7 14L8 14L8 15L9 15L9 17L8 17L8 20L9 20L9 23L8 23L8 25L9 25L9 24L10 24L10 23L11 23L11 25L12 25L12 24L13 24L13 22L12 22L12 21L14 21L14 23L15 23L15 21L16 21L16 22L19 22L19 25L23 25L23 24L22 24L22 22L24 22L24 25L25 25L25 21L24 21L24 20L21 20L21 19L22 19L22 18L21 18L21 16L22 16L22 17L23 17L23 19L25 19L25 18L24 18L24 17L23 17L23 16L25 16L25 14L24 14L24 13L25 13L25 9L23 9L23 10L22 10L22 8L20 8L20 9L19 9L19 11L18 11L18 13L19 13L19 14L18 14L18 15L16 15L16 14L17 14L17 12L15 12L15 16L13 16L13 18L14 18L14 17L15 17L15 18L16 18L16 19L15 19L15 20L13 20L13 19L12 19L12 18L10 18L10 19L12 19L12 21L10 21L10 20L9 20L9 17L12 17L12 15L10 15L10 14L12 14L12 12L13 12L13 10L14 10L14 9L15 9L15 11L17 11L17 10L18 10L18 9L16 9L16 8L15 8L15 5L17 5L17 3L16 3L16 2L17 2L17 1L16 1L16 2L15 2L15 0ZM9 3L9 5L11 5L11 4L10 4L10 3ZM12 3L12 4L13 4L13 3ZM9 6L9 7L10 7L10 6ZM16 6L16 7L17 7L17 6ZM6 9L6 10L5 10L5 11L6 11L6 12L5 12L5 13L6 13L6 14L7 14L7 13L6 13L6 12L8 12L8 14L10 14L10 13L9 13L9 12L10 12L10 11L11 11L11 12L12 12L12 10L13 10L13 9L12 9L12 10L10 10L10 11L8 11L8 10L7 10L7 9ZM6 10L6 11L7 11L7 10ZM20 10L20 14L19 14L19 15L20 15L20 16L21 16L21 11L22 11L22 12L24 12L24 11L22 11L22 10ZM22 13L22 15L24 15L24 14L23 14L23 13ZM2 14L2 15L4 15L4 16L3 16L3 17L4 17L4 16L5 16L5 17L7 17L7 16L5 16L5 15L4 15L4 14ZM17 17L17 20L20 20L20 17ZM18 18L18 19L19 19L19 18ZM19 21L19 22L20 22L20 24L21 24L21 22L22 22L22 21ZM11 22L11 23L12 23L12 22ZM16 23L16 25L18 25L18 23ZM0 0L0 7L7 7L7 0ZM1 1L1 6L6 6L6 1ZM2 2L2 5L5 5L5 2ZM18 0L18 7L25 7L25 0ZM19 1L19 6L24 6L24 1ZM20 2L20 5L23 5L23 2ZM0 18L0 25L7 25L7 18ZM1 19L1 24L6 24L6 19ZM2 20L2 23L5 23L5 20Z" fill="#282828"/></g></g></svg>
