<?xml version="1.0" encoding="UTF-8"?>
<svg xmlns="http://www.w3.org/2000/svg" version="1.1" width="90" height="90" viewBox="0 0 90 90"><rect x="0" y="0" width="90" height="90" fill="#ffffff"/><g transform="scale(3.333)"><g transform="translate(1,1)"><path fill-rule="evenodd" d="M8 0L8 1L11 1L11 2L10 2L10 3L9 3L9 2L8 2L8 5L9 5L9 6L8 6L8 7L9 7L9 8L8 8L8 10L10 10L10 9L9 9L9 8L10 8L10 7L11 7L11 8L12 8L12 7L13 7L13 6L14 6L14 7L15 7L15 4L16 4L16 7L17 7L17 4L16 4L16 3L17 3L17 0L16 0L16 3L14 3L14 2L13 2L13 1L14 1L14 0ZM11 2L11 3L10 3L10 6L9 6L9 7L10 7L10 6L11 6L11 7L12 7L12 5L14 5L14 4L13 4L13 2ZM11 3L11 4L12 4L12 3ZM0 8L0 9L2 9L2 13L3 13L3 9L4 9L4 10L5 10L5 9L4 9L4 8ZM6 8L6 9L7 9L7 8ZM14 8L14 9L13 9L13 10L14 10L14 11L13 11L13 13L12 13L12 15L11 15L11 13L10 13L10 12L9 12L9 11L8 11L8 14L6 14L6 13L7 13L7 12L6 12L6 11L7 11L7 10L6 10L6 11L4 11L4 12L5 12L5 13L4 13L4 14L6 14L6 15L7 15L7 16L5 16L5 15L4 15L4 16L2 16L2 17L7 17L7 16L8 16L8 18L9 18L9 17L10 17L10 16L8 16L8 14L9 14L9 15L11 15L11 16L12 16L12 18L13 18L13 19L14 19L14 21L15 21L15 22L16 22L16 24L17 24L17 25L18 25L18 24L17 24L17 23L18 23L18 22L19 22L19 25L22 25L22 24L23 24L23 25L25 25L25 24L23 24L23 23L24 23L24 22L25 22L25 15L23 15L23 14L22 14L22 12L23 12L23 10L25 10L25 8L24 8L24 9L23 9L23 8L20 8L20 9L18 9L18 8L16 8L16 9L17 9L17 10L16 10L16 11L17 11L17 12L14 12L14 11L15 11L15 8ZM11 9L11 11L12 11L12 9ZM20 9L20 11L19 11L19 10L17 10L17 11L18 11L18 12L19 12L19 13L18 13L18 14L19 14L19 15L17 15L17 14L16 14L16 13L15 13L15 14L14 14L14 13L13 13L13 14L14 14L14 15L12 15L12 16L14 16L14 17L13 17L13 18L16 18L16 17L15 17L15 16L16 16L16 15L17 15L17 16L20 16L20 14L19 14L19 13L21 13L21 12L20 12L20 11L21 11L21 10L22 10L22 9ZM0 10L0 13L1 13L1 10ZM24 12L24 14L25 14L25 12ZM9 13L9 14L10 14L10 13ZM1 14L1 15L0 15L0 16L1 16L1 15L3 15L3 14ZM21 14L21 16L23 16L23 15L22 15L22 14ZM14 15L14 16L15 16L15 15ZM17 17L17 20L20 20L20 17ZM21 17L21 18L22 18L22 17ZM18 18L18 19L19 19L19 18ZM23 18L23 19L21 19L21 21L19 21L19 22L21 22L21 23L23 23L23 19L24 19L24 18ZM9 19L9 21L8 21L8 25L11 25L11 24L12 24L12 21L11 21L11 22L10 22L10 24L9 24L9 21L10 21L10 20L12 20L12 19ZM15 20L15 21L16 21L16 22L17 22L17 21L16 21L16 20ZM21 21L21 22L22 22L22 21ZM13 23L13 25L15 25L15 24L14 24L14 23ZM0 0L0 7L7 7L7 0ZM1 1L1 6L6 6L6 1ZM2 2L2 5L5 5L5 2ZM18 0L18 7L25 7L25 0ZM19 1L19 6L24 6L24 1ZM20 2L20 5L23 5L23 2ZM0 18L0 25L7 25L7 18ZM1 19L1 24L6 24L6 19ZM2 20L2 23L5 23L5 20Z" fill="#282828"/></g></g></svg>
