<?xml version="1.0" encoding="UTF-8"?>
<svg xmlns="http://www.w3.org/2000/svg" version="1.1" width="90" height="90" viewBox="0 0 90 90"><rect x="0" y="0" width="90" height="90" fill="#ffffff"/><g transform="scale(3.333)"><g transform="translate(1,1)"><path fill-rule="evenodd" d="M8 0L8 4L9 4L9 3L10 3L10 5L12 5L12 7L11 7L11 6L10 6L10 7L9 7L9 5L8 5L8 7L9 7L9 8L10 8L10 7L11 7L11 8L12 8L12 7L13 7L13 6L14 6L14 7L15 7L15 4L14 4L14 3L16 3L16 7L17 7L17 2L15 2L15 0ZM16 0L16 1L17 1L17 0ZM9 1L9 2L10 2L10 3L11 3L11 2L12 2L12 5L13 5L13 3L14 3L14 2L13 2L13 1ZM0 8L0 9L2 9L2 10L0 10L0 11L3 11L3 9L2 9L2 8ZM4 8L4 9L7 9L7 8ZM13 8L13 10L12 10L12 9L11 9L11 11L10 11L10 13L12 13L12 12L13 12L13 14L10 14L10 15L9 15L9 16L12 16L12 17L13 17L13 19L12 19L12 18L11 18L11 17L10 17L10 18L9 18L9 17L8 17L8 16L6 16L6 15L7 15L7 14L6 14L6 13L7 13L7 12L8 12L8 11L7 11L7 10L4 10L4 12L5 12L5 11L7 11L7 12L6 12L6 13L3 13L3 14L2 14L2 13L1 13L1 12L0 12L0 14L2 14L2 15L3 15L3 16L0 16L0 17L8 17L8 18L9 18L9 19L8 19L8 21L10 21L10 23L8 23L8 25L14 25L14 24L16 24L16 23L17 23L17 25L22 25L22 24L23 24L23 25L25 25L25 24L24 24L24 22L25 22L25 21L24 21L24 20L25 20L25 19L24 19L24 17L23 17L23 15L24 15L24 13L25 13L25 12L24 12L24 13L23 13L23 14L22 14L22 13L21 13L21 12L19 12L19 11L20 11L20 10L25 10L25 8L21 8L21 9L20 9L20 8L19 8L19 9L18 9L18 12L17 12L17 13L16 13L16 12L15 12L15 11L16 11L16 10L17 10L17 9L16 9L16 10L15 10L15 9L14 9L14 8ZM8 9L8 10L10 10L10 9ZM19 9L19 10L20 10L20 9ZM14 10L14 11L13 11L13 12L14 12L14 13L15 13L15 14L13 14L13 15L12 15L12 16L14 16L14 17L15 17L15 18L14 18L14 19L13 19L13 20L14 20L14 21L12 21L12 20L10 20L10 19L11 19L11 18L10 18L10 19L9 19L9 20L10 20L10 21L11 21L11 22L12 22L12 23L10 23L10 24L12 24L12 23L13 23L13 24L14 24L14 23L15 23L15 22L17 22L17 21L16 21L16 19L15 19L15 18L16 18L16 17L15 17L15 16L17 16L17 15L18 15L18 16L22 16L22 15L20 15L20 13L19 13L19 14L18 14L18 13L17 13L17 15L15 15L15 14L16 14L16 13L15 13L15 12L14 12L14 11L15 11L15 10ZM11 11L11 12L12 12L12 11ZM22 11L22 12L23 12L23 11ZM3 14L3 15L5 15L5 14ZM14 15L14 16L15 16L15 15ZM17 17L17 20L20 20L20 17ZM21 17L21 18L22 18L22 19L23 19L23 20L24 20L24 19L23 19L23 17ZM18 18L18 19L19 19L19 18ZM21 20L21 22L20 22L20 21L19 21L19 22L18 22L18 24L22 24L22 23L21 23L21 22L23 22L23 21L22 21L22 20ZM14 21L14 22L15 22L15 21ZM19 22L19 23L20 23L20 22ZM0 0L0 7L7 7L7 0ZM1 1L1 6L6 6L6 1ZM2 2L2 5L5 5L5 2ZM18 0L18 7L25 7L25 0ZM19 1L19 6L24 6L24 1ZM20 2L20 5L23 5L23 2ZM0 18L0 25L7 25L7 18ZM1 19L1 24L6 24L6 19ZM2 20L2 23L5 23L5 20Z" fill="#282828"/></g></g></svg>
