<?xml version="1.0" encoding="UTF-8"?>
<svg xmlns="http://www.w3.org/2000/svg" version="1.1" width="90" height="90" viewBox="0 0 90 90"><rect x="0" y="0" width="90" height="90" fill="#ffffff"/><g transform="scale(3.333)"><g transform="translate(1,1)"><path fill-rule="evenodd" d="M8 0L8 1L10 1L10 0ZM13 0L13 1L14 1L14 2L11 2L11 4L10 4L10 3L9 3L9 2L8 2L8 5L9 5L9 6L8 6L8 7L9 7L9 8L8 8L8 10L6 10L6 9L7 9L7 8L6 8L6 9L5 9L5 10L6 10L6 11L8 11L8 12L9 12L9 13L8 13L8 14L6 14L6 13L7 13L7 12L5 12L5 11L4 11L4 8L0 8L0 10L1 10L1 12L0 12L0 13L1 13L1 12L2 12L2 13L3 13L3 14L1 14L1 15L0 15L0 16L1 16L1 15L3 15L3 17L4 17L4 16L5 16L5 17L7 17L7 16L6 16L6 15L8 15L8 18L9 18L9 20L10 20L10 21L8 21L8 25L9 25L9 23L10 23L10 24L11 24L11 23L13 23L13 24L12 24L12 25L15 25L15 24L14 24L14 23L15 23L15 20L14 20L14 23L13 23L13 20L12 20L12 19L11 19L11 20L10 20L10 18L9 18L9 17L10 17L10 16L11 16L11 18L12 18L12 17L13 17L13 15L14 15L14 16L16 16L16 21L17 21L17 23L16 23L16 24L18 24L18 25L19 25L19 24L18 24L18 22L19 22L19 23L20 23L20 24L21 24L21 25L22 25L22 24L23 24L23 25L25 25L25 24L23 24L23 23L24 23L24 22L25 22L25 15L23 15L23 14L22 14L22 12L24 12L24 14L25 14L25 12L24 12L24 11L23 11L23 10L25 10L25 8L24 8L24 9L23 9L23 8L20 8L20 9L18 9L18 8L16 8L16 9L15 9L15 4L16 4L16 5L17 5L17 4L16 4L16 3L17 3L17 2L15 2L15 1L17 1L17 0L15 0L15 1L14 1L14 0ZM12 3L12 5L10 5L10 6L9 6L9 7L10 7L10 8L9 8L9 9L10 9L10 10L8 10L8 11L9 11L9 12L10 12L10 13L11 13L11 11L14 11L14 12L13 12L13 13L12 13L12 14L11 14L11 16L12 16L12 14L14 14L14 15L16 15L16 16L23 16L23 15L22 15L22 14L19 14L19 13L21 13L21 10L22 10L22 9L20 9L20 10L19 10L19 11L18 11L18 12L19 12L19 13L18 13L18 14L19 14L19 15L16 15L16 13L17 13L17 12L16 12L16 13L15 13L15 14L14 14L14 12L15 12L15 11L16 11L16 10L15 10L15 9L13 9L13 8L14 8L14 5L13 5L13 4L14 4L14 3ZM12 5L12 7L11 7L11 6L10 6L10 7L11 7L11 8L12 8L12 7L13 7L13 5ZM16 6L16 7L17 7L17 6ZM1 9L1 10L2 10L2 12L3 12L3 13L4 13L4 12L3 12L3 10L2 10L2 9ZM17 9L17 10L18 10L18 9ZM19 11L19 12L20 12L20 11ZM3 14L3 15L4 15L4 14ZM5 14L5 15L6 15L6 14ZM8 14L8 15L9 15L9 14ZM14 17L14 18L13 18L13 19L15 19L15 17ZM17 17L17 20L20 20L20 17ZM21 17L21 18L22 18L22 17ZM18 18L18 19L19 19L19 18ZM23 18L23 19L21 19L21 21L19 21L19 22L21 22L21 23L23 23L23 21L24 21L24 20L23 20L23 19L24 19L24 18ZM10 21L10 23L11 23L11 21ZM21 21L21 22L22 22L22 21ZM0 0L0 7L7 7L7 0ZM1 1L1 6L6 6L6 1ZM2 2L2 5L5 5L5 2ZM18 0L18 7L25 7L25 0ZM19 1L19 6L24 6L24 1ZM20 2L20 5L23 5L23 2ZM0 18L0 25L7 25L7 18ZM1 19L1 24L6 24L6 19ZM2 20L2 23L5 23L5 20Z" fill="#282828"/></g></g></svg>
