<?xml version="1.0" encoding="UTF-8"?>
<svg xmlns="http://www.w3.org/2000/svg" version="1.1" width="90" height="90" viewBox="0 0 90 90"><rect x="0" y="0" width="90" height="90" fill="#ffffff"/><g transform="scale(3.333)"><g transform="translate(1,1)"><path fill-rule="evenodd" d="M8 0L8 1L11 1L11 3L10 3L10 2L9 2L9 3L10 3L10 5L9 5L9 6L8 6L8 8L9 8L9 9L10 9L10 10L9 10L9 11L10 11L10 10L11 10L11 9L10 9L10 7L11 7L11 6L12 6L12 9L13 9L13 8L14 8L14 13L15 13L15 12L16 12L16 14L15 14L15 15L16 15L16 17L15 17L15 16L13 16L13 15L14 15L14 14L13 14L13 13L12 13L12 14L13 14L13 15L12 15L12 16L11 16L11 12L8 12L8 9L7 9L7 8L6 8L6 9L5 9L5 8L3 8L3 9L2 9L2 8L0 8L0 9L1 9L1 10L0 10L0 17L1 17L1 15L2 15L2 16L4 16L4 15L5 15L5 17L8 17L8 18L10 18L10 20L8 20L8 22L9 22L9 21L10 21L10 20L11 20L11 21L12 21L12 22L10 22L10 23L8 23L8 25L14 25L14 22L15 22L15 23L16 23L16 22L19 22L19 23L17 23L17 24L15 24L15 25L18 25L18 24L19 24L19 25L20 25L20 24L19 24L19 23L21 23L21 24L22 24L22 25L23 25L23 24L24 24L24 25L25 25L25 20L23 20L23 21L22 21L22 20L21 20L21 19L22 19L22 18L23 18L23 19L25 19L25 18L23 18L23 17L24 17L24 16L25 16L25 14L24 14L24 13L25 13L25 12L24 12L24 11L25 11L25 8L24 8L24 9L23 9L23 10L22 10L22 9L19 9L19 8L18 8L18 9L19 9L19 10L22 10L22 11L21 11L21 13L20 13L20 14L21 14L21 15L20 15L20 16L19 16L19 14L17 14L17 12L16 12L16 11L18 11L18 13L19 13L19 12L20 12L20 11L18 11L18 10L15 10L15 6L14 6L14 7L13 7L13 6L12 6L12 5L13 5L13 4L14 4L14 3L15 3L15 2L13 2L13 1L12 1L12 0ZM15 0L15 1L16 1L16 0ZM12 2L12 4L13 4L13 2ZM16 2L16 4L15 4L15 5L17 5L17 2ZM10 5L10 6L9 6L9 7L10 7L10 6L11 6L11 5ZM16 6L16 9L17 9L17 6ZM6 9L6 10L5 10L5 11L3 11L3 10L2 10L2 13L3 13L3 14L2 14L2 15L4 15L4 12L5 12L5 13L6 13L6 14L7 14L7 15L6 15L6 16L7 16L7 15L8 15L8 17L10 17L10 18L11 18L11 19L12 19L12 21L13 21L13 19L14 19L14 17L12 17L12 18L11 18L11 16L9 16L9 14L10 14L10 13L8 13L8 14L7 14L7 13L6 13L6 12L7 12L7 11L6 11L6 10L7 10L7 9ZM12 10L12 11L13 11L13 10ZM23 10L23 11L24 11L24 10ZM22 13L22 14L23 14L23 15L24 15L24 14L23 14L23 13ZM16 14L16 15L17 15L17 14ZM21 16L21 18L22 18L22 16ZM17 17L17 20L20 20L20 17ZM12 18L12 19L13 19L13 18ZM18 18L18 19L19 19L19 18ZM14 20L14 21L15 21L15 22L16 22L16 21L15 21L15 20ZM19 21L19 22L22 22L22 23L23 23L23 22L22 22L22 21ZM12 22L12 23L13 23L13 22ZM0 0L0 7L7 7L7 0ZM1 1L1 6L6 6L6 1ZM2 2L2 5L5 5L5 2ZM18 0L18 7L25 7L25 0ZM19 1L19 6L24 6L24 1ZM20 2L20 5L23 5L23 2ZM0 18L0 25L7 25L7 18ZM1 19L1 24L6 24L6 19ZM2 20L2 23L5 23L5 20Z" fill="#282828"/></g></g></svg>
