<?xml version="1.0" encoding="UTF-8"?>
<svg xmlns="http://www.w3.org/2000/svg" version="1.1" width="90" height="90" viewBox="0 0 90 90"><rect x="0" y="0" width="90" height="90" fill="#ffffff"/><g transform="scale(3.333)"><g transform="translate(1,1)"><path fill-rule="evenodd" d="M9 0L9 1L8 1L8 2L9 2L9 3L8 3L8 4L10 4L10 7L11 7L11 4L12 4L12 5L13 5L13 4L14 4L14 5L15 5L15 6L14 6L14 7L15 7L15 8L13 8L13 6L12 6L12 9L16 9L16 10L15 10L15 11L14 11L14 12L13 12L13 13L12 13L12 11L13 11L13 10L11 10L11 11L10 11L10 9L11 9L11 8L6 8L6 9L5 9L5 8L0 8L0 11L1 11L1 10L3 10L3 9L5 9L5 10L6 10L6 11L7 11L7 10L8 10L8 9L9 9L9 11L8 11L8 13L7 13L7 12L6 12L6 13L7 13L7 14L6 14L6 15L9 15L9 16L8 16L8 19L9 19L9 20L8 20L8 25L11 25L11 24L10 24L10 23L9 23L9 20L10 20L10 21L12 21L12 22L13 22L13 23L12 23L12 25L13 25L13 24L14 24L14 25L15 25L15 24L17 24L17 23L19 23L19 24L18 24L18 25L19 25L19 24L20 24L20 25L21 25L21 24L20 24L20 22L19 22L19 21L21 21L21 23L22 23L22 21L23 21L23 22L24 22L24 24L23 24L23 25L25 25L25 20L22 20L22 19L23 19L23 18L24 18L24 19L25 19L25 18L24 18L24 17L23 17L23 16L25 16L25 14L24 14L24 13L25 13L25 12L24 12L24 13L23 13L23 14L24 14L24 15L23 15L23 16L22 16L22 17L21 17L21 15L22 15L22 14L20 14L20 13L19 13L19 12L21 12L21 13L22 13L22 12L21 12L21 11L20 11L20 8L19 8L19 9L18 9L18 8L17 8L17 3L15 3L15 2L16 2L16 1L17 1L17 0L13 0L13 1L11 1L11 2L10 2L10 0ZM12 2L12 4L13 4L13 3L14 3L14 2ZM10 3L10 4L11 4L11 3ZM15 4L15 5L16 5L16 4ZM8 5L8 7L9 7L9 5ZM15 6L15 7L16 7L16 6ZM16 8L16 9L17 9L17 11L16 11L16 12L14 12L14 13L15 13L15 14L12 14L12 13L11 13L11 12L10 12L10 13L11 13L11 14L9 14L9 13L8 13L8 14L9 14L9 15L10 15L10 16L9 16L9 19L10 19L10 20L11 20L11 18L14 18L14 19L12 19L12 21L14 21L14 22L16 22L16 23L17 23L17 21L15 21L15 20L16 20L16 17L15 17L15 16L16 16L16 15L17 15L17 16L18 16L18 14L19 14L19 13L18 13L18 12L19 12L19 11L18 11L18 9L17 9L17 8ZM21 8L21 9L22 9L22 11L25 11L25 9L24 9L24 8L23 8L23 9L22 9L22 8ZM6 9L6 10L7 10L7 9ZM2 11L2 12L1 12L1 13L0 13L0 17L1 17L1 14L2 14L2 15L4 15L4 16L2 16L2 17L4 17L4 16L5 16L5 14L4 14L4 13L5 13L5 11ZM3 12L3 13L4 13L4 12ZM16 13L16 14L15 14L15 15L14 15L14 16L13 16L13 15L12 15L12 17L14 17L14 18L15 18L15 17L14 17L14 16L15 16L15 15L16 15L16 14L17 14L17 13ZM6 16L6 17L7 17L7 16ZM10 16L10 17L11 17L11 16ZM17 17L17 20L20 20L20 17ZM22 17L22 18L23 18L23 17ZM18 18L18 19L19 19L19 18ZM14 23L14 24L15 24L15 23ZM0 0L0 7L7 7L7 0ZM1 1L1 6L6 6L6 1ZM2 2L2 5L5 5L5 2ZM18 0L18 7L25 7L25 0ZM19 1L19 6L24 6L24 1ZM20 2L20 5L23 5L23 2ZM0 18L0 25L7 25L7 18ZM1 19L1 24L6 24L6 19ZM2 20L2 23L5 23L5 20Z" fill="#282828"/></g></g></svg>
