<?xml version="1.0" encoding="UTF-8"?>
<svg xmlns="http://www.w3.org/2000/svg" version="1.1" width="90" height="90" viewBox="0 0 90 90"><rect x="0" y="0" width="90" height="90" fill="#ffffff"/><g transform="scale(3.333)"><g transform="translate(1,1)"><path fill-rule="evenodd" d="M8 0L8 1L11 1L11 3L10 3L10 2L9 2L9 3L10 3L10 5L9 5L9 6L8 6L8 8L9 8L9 9L7 9L7 8L6 8L6 9L7 9L7 10L6 10L6 11L5 11L5 12L6 12L6 13L4 13L4 14L2 14L2 13L3 13L3 12L1 12L1 13L0 13L0 17L1 17L1 15L5 15L5 16L4 16L4 17L7 17L7 16L6 16L6 15L8 15L8 16L9 16L9 17L8 17L8 18L9 18L9 17L13 17L13 18L10 18L10 19L12 19L12 20L14 20L14 22L15 22L15 23L14 23L14 24L13 24L13 25L14 25L14 24L15 24L15 23L17 23L17 24L16 24L16 25L18 25L18 24L19 24L19 23L20 23L20 25L21 25L21 24L22 24L22 25L23 25L23 24L24 24L24 25L25 25L25 21L24 21L24 20L25 20L25 18L23 18L23 17L24 17L24 16L25 16L25 14L24 14L24 13L25 13L25 12L23 12L23 10L24 10L24 11L25 11L25 8L24 8L24 9L23 9L23 10L22 10L22 9L21 9L21 10L20 10L20 9L19 9L19 8L18 8L18 10L17 10L17 11L16 11L16 10L15 10L15 9L16 9L16 8L17 8L17 1L16 1L16 2L15 2L15 3L16 3L16 7L15 7L15 6L14 6L14 5L15 5L15 4L14 4L14 5L13 5L13 3L12 3L12 2L14 2L14 1L15 1L15 0L14 0L14 1L12 1L12 0ZM10 5L10 6L9 6L9 7L10 7L10 9L9 9L9 10L10 10L10 11L9 11L9 12L8 12L8 13L6 13L6 14L9 14L9 12L11 12L11 13L14 13L14 14L10 14L10 15L9 15L9 16L10 16L10 15L11 15L11 16L12 16L12 15L13 15L13 16L14 16L14 18L15 18L15 19L14 19L14 20L15 20L15 19L16 19L16 17L15 17L15 16L17 16L17 15L19 15L19 16L20 16L20 15L21 15L21 14L20 14L20 13L21 13L21 12L20 12L20 13L19 13L19 11L20 11L20 10L19 10L19 11L17 11L17 12L18 12L18 13L16 13L16 15L15 15L15 12L16 12L16 11L15 11L15 12L14 12L14 10L12 10L12 11L13 11L13 12L11 12L11 10L10 10L10 9L15 9L15 7L14 7L14 6L13 6L13 5L12 5L12 6L11 6L11 5ZM10 6L10 7L11 7L11 8L13 8L13 6L12 6L12 7L11 7L11 6ZM0 8L0 9L1 9L1 10L2 10L2 11L4 11L4 10L2 10L2 8ZM3 8L3 9L5 9L5 8ZM21 10L21 11L22 11L22 10ZM6 11L6 12L7 12L7 11ZM22 13L22 14L23 14L23 15L24 15L24 14L23 14L23 13ZM14 15L14 16L15 16L15 15ZM21 16L21 18L22 18L22 19L21 19L21 20L22 20L22 21L19 21L19 22L17 22L17 23L19 23L19 22L22 22L22 23L23 23L23 22L22 22L22 21L23 21L23 20L24 20L24 19L23 19L23 18L22 18L22 16ZM17 17L17 20L20 20L20 17ZM18 18L18 19L19 19L19 18ZM8 20L8 22L9 22L9 21L10 21L10 23L8 23L8 25L11 25L11 24L10 24L10 23L12 23L12 21L10 21L10 20ZM0 0L0 7L7 7L7 0ZM1 1L1 6L6 6L6 1ZM2 2L2 5L5 5L5 2ZM18 0L18 7L25 7L25 0ZM19 1L19 6L24 6L24 1ZM20 2L20 5L23 5L23 2ZM0 18L0 25L7 25L7 18ZM1 19L1 24L6 24L6 19ZM2 20L2 23L5 23L5 20Z" fill="#282828"/></g></g></svg>
