<?xml version="1.0" encoding="UTF-8"?>
<svg xmlns="http://www.w3.org/2000/svg" version="1.1" width="90" height="90" viewBox="0 0 90 90"><rect x="0" y="0" width="90" height="90" fill="#ffffff"/><g transform="scale(3.333)"><g transform="translate(1,1)"><path fill-rule="evenodd" d="M8 0L8 1L9 1L9 2L8 2L8 5L9 5L9 4L11 4L11 5L10 5L10 10L9 10L9 8L8 8L8 10L9 10L9 11L8 11L8 12L6 12L6 13L7 13L7 14L5 14L5 12L2 12L2 13L1 13L1 12L0 12L0 13L1 13L1 15L0 15L0 16L1 16L1 15L2 15L2 16L3 16L3 17L8 17L8 18L9 18L9 19L10 19L10 18L11 18L11 17L8 17L8 15L7 15L7 14L9 14L9 13L11 13L11 15L10 15L10 16L12 16L12 17L14 17L14 18L15 18L15 21L14 21L14 22L13 22L13 23L10 23L10 22L11 22L11 21L10 21L10 22L9 22L9 21L8 21L8 25L9 25L9 24L10 24L10 25L13 25L13 24L15 24L15 23L21 23L21 25L22 25L22 24L23 24L23 25L25 25L25 24L23 24L23 23L24 23L24 22L25 22L25 21L24 21L24 20L25 20L25 15L23 15L23 14L22 14L22 12L24 12L24 14L25 14L25 11L23 11L23 10L25 10L25 8L24 8L24 9L23 9L23 8L20 8L20 9L22 9L22 10L19 10L19 12L17 12L17 11L18 11L18 10L17 10L17 9L18 9L18 8L17 8L17 9L16 9L16 12L17 12L17 13L19 13L19 15L21 15L21 14L22 14L22 15L23 15L23 16L16 16L16 18L15 18L15 15L16 15L16 13L15 13L15 12L14 12L14 11L15 11L15 8L16 8L16 7L17 7L17 4L15 4L15 2L13 2L13 0L12 0L12 1L11 1L11 0L10 0L10 1L9 1L9 0ZM16 0L16 3L17 3L17 0ZM11 2L11 4L12 4L12 3L13 3L13 4L14 4L14 5L12 5L12 6L11 6L11 8L12 8L12 6L13 6L13 11L11 11L11 13L12 13L12 12L13 12L13 11L14 11L14 8L15 8L15 7L16 7L16 5L15 5L15 4L14 4L14 3L13 3L13 2ZM14 5L14 7L15 7L15 5ZM8 6L8 7L9 7L9 6ZM0 8L0 10L2 10L2 9L4 9L4 11L7 11L7 10L6 10L6 9L7 9L7 8L6 8L6 9L4 9L4 8ZM11 9L11 10L12 10L12 9ZM20 11L20 12L19 12L19 13L21 13L21 11ZM8 12L8 13L9 13L9 12ZM2 13L2 15L3 15L3 16L5 16L5 15L3 15L3 13ZM13 13L13 14L12 14L12 16L14 16L14 15L15 15L15 14L14 14L14 13ZM13 14L13 15L14 15L14 14ZM17 14L17 15L18 15L18 14ZM6 15L6 16L7 16L7 15ZM17 17L17 20L20 20L20 17ZM21 17L21 18L22 18L22 17ZM18 18L18 19L19 19L19 18ZM23 18L23 19L21 19L21 21L19 21L19 22L21 22L21 23L23 23L23 20L24 20L24 18ZM11 19L11 20L12 20L12 19ZM16 21L16 22L17 22L17 21ZM21 21L21 22L22 22L22 21ZM17 24L17 25L20 25L20 24ZM0 0L0 7L7 7L7 0ZM1 1L1 6L6 6L6 1ZM2 2L2 5L5 5L5 2ZM18 0L18 7L25 7L25 0ZM19 1L19 6L24 6L24 1ZM20 2L20 5L23 5L23 2ZM0 18L0 25L7 25L7 18ZM1 19L1 24L6 24L6 19ZM2 20L2 23L5 23L5 20Z" fill="#282828"/></g></g></svg>
