<?xml version="1.0" encoding="UTF-8"?>
<svg xmlns="http://www.w3.org/2000/svg" version="1.1" width="90" height="90" viewBox="0 0 90 90"><rect x="0" y="0" width="90" height="90" fill="#ffffff"/><g transform="scale(3.333)"><g transform="translate(1,1)"><path fill-rule="evenodd" d="M8 0L8 4L9 4L9 5L8 5L8 7L9 7L9 6L10 6L10 9L11 9L11 8L12 8L12 9L13 9L13 11L12 11L12 12L11 12L11 13L10 13L10 14L9 14L9 13L8 13L8 11L7 11L7 10L8 10L8 9L7 9L7 8L4 8L4 9L5 9L5 10L3 10L3 9L2 9L2 8L0 8L0 9L2 9L2 10L0 10L0 11L1 11L1 12L0 12L0 14L3 14L3 15L4 15L4 16L6 16L6 17L7 17L7 16L10 16L10 17L8 17L8 18L10 18L10 17L11 17L11 21L10 21L10 22L9 22L9 23L8 23L8 25L9 25L9 24L10 24L10 25L11 25L11 24L12 24L12 25L13 25L13 24L12 24L12 23L13 23L13 22L14 22L14 21L12 21L12 19L14 19L14 20L15 20L15 19L16 19L16 21L15 21L15 22L17 22L17 23L15 23L15 25L16 25L16 24L17 24L17 25L20 25L20 22L21 22L21 23L22 23L22 24L21 24L21 25L22 25L22 24L23 24L23 25L25 25L25 24L24 24L24 22L25 22L25 21L23 21L23 20L25 20L25 19L24 19L24 17L23 17L23 15L24 15L24 13L25 13L25 12L24 12L24 11L22 11L22 12L23 12L23 14L22 14L22 13L21 13L21 12L19 12L19 11L20 11L20 10L25 10L25 8L21 8L21 9L20 9L20 8L19 8L19 9L18 9L18 11L17 11L17 12L18 12L18 13L20 13L20 15L19 15L19 16L18 16L18 14L17 14L17 13L16 13L16 12L15 12L15 13L14 13L14 12L13 12L13 11L14 11L14 10L15 10L15 11L16 11L16 9L14 9L14 8L17 8L17 6L16 6L16 7L15 7L15 6L14 6L14 5L15 5L15 0L13 0L13 1L11 1L11 2L12 2L12 5L13 5L13 6L12 6L12 7L11 7L11 3L10 3L10 2L9 2L9 0ZM16 0L16 1L17 1L17 0ZM13 2L13 5L14 5L14 2ZM16 2L16 3L17 3L17 2ZM16 4L16 5L17 5L17 4ZM13 6L13 7L12 7L12 8L14 8L14 6ZM6 9L6 10L7 10L7 9ZM19 9L19 10L20 10L20 9ZM9 10L9 12L10 12L10 11L11 11L11 10ZM2 11L2 12L1 12L1 13L2 13L2 12L3 12L3 13L5 13L5 15L6 15L6 16L7 16L7 15L8 15L8 14L7 14L7 13L5 13L5 12L3 12L3 11ZM6 11L6 12L7 12L7 11ZM11 13L11 14L12 14L12 15L13 15L13 16L11 16L11 17L13 17L13 18L16 18L16 16L17 16L17 15L16 15L16 16L14 16L14 15L13 15L13 14L14 14L14 13L13 13L13 14L12 14L12 13ZM15 13L15 14L16 14L16 13ZM6 14L6 15L7 15L7 14ZM20 15L20 16L22 16L22 15ZM0 16L0 17L3 17L3 16ZM13 16L13 17L14 17L14 16ZM17 17L17 20L20 20L20 17ZM21 17L21 18L22 18L22 19L23 19L23 17ZM18 18L18 19L19 19L19 18ZM8 19L8 21L9 21L9 20L10 20L10 19ZM21 20L21 22L23 22L23 21L22 21L22 20ZM19 21L19 22L18 22L18 23L17 23L17 24L18 24L18 23L19 23L19 22L20 22L20 21ZM10 23L10 24L11 24L11 23ZM0 0L0 7L7 7L7 0ZM1 1L1 6L6 6L6 1ZM2 2L2 5L5 5L5 2ZM18 0L18 7L25 7L25 0ZM19 1L19 6L24 6L24 1ZM20 2L20 5L23 5L23 2ZM0 18L0 25L7 25L7 18ZM1 19L1 24L6 24L6 19ZM2 20L2 23L5 23L5 20Z" fill="#282828"/></g></g></svg>
