<?xml version="1.0" encoding="UTF-8"?>
<svg xmlns="http://www.w3.org/2000/svg" version="1.1" width="90" height="90" viewBox="0 0 90 90"><rect x="0" y="0" width="90" height="90" fill="#ffffff"/><g transform="scale(3.333)"><g transform="translate(1,1)"><path fill-rule="evenodd" d="M8 0L8 1L10 1L10 0ZM13 0L13 1L14 1L14 2L11 2L11 4L10 4L10 3L9 3L9 2L8 2L8 5L9 5L9 6L8 6L8 7L9 7L9 8L8 8L8 10L6 10L6 9L7 9L7 8L6 8L6 9L5 9L5 10L3 10L3 11L1 11L1 12L3 12L3 13L1 13L1 15L0 15L0 16L1 16L1 15L2 15L2 17L5 17L5 16L6 16L6 17L8 17L8 18L10 18L10 20L9 20L9 21L8 21L8 25L11 25L11 23L13 23L13 24L12 24L12 25L15 25L15 24L14 24L14 23L15 23L15 20L16 20L16 21L17 21L17 22L19 22L19 23L18 23L18 24L19 24L19 25L22 25L22 24L23 24L23 25L25 25L25 24L23 24L23 23L24 23L24 22L25 22L25 15L23 15L23 14L22 14L22 12L23 12L23 13L24 13L24 14L25 14L25 12L23 12L23 10L25 10L25 8L24 8L24 9L23 9L23 8L20 8L20 9L18 9L18 8L17 8L17 6L16 6L16 7L15 7L15 5L16 5L16 3L17 3L17 2L16 2L16 3L15 3L15 1L17 1L17 0ZM12 3L12 5L10 5L10 6L9 6L9 7L10 7L10 8L9 8L9 9L10 9L10 10L8 10L8 11L9 11L9 12L10 12L10 13L6 13L6 12L7 12L7 11L6 11L6 10L5 10L5 11L3 11L3 12L4 12L4 13L5 13L5 14L2 14L2 15L6 15L6 16L8 16L8 17L9 17L9 16L10 16L10 17L11 17L11 16L13 16L13 17L12 17L12 18L11 18L11 19L12 19L12 20L13 20L13 23L14 23L14 20L15 20L15 19L13 19L13 18L14 18L14 17L15 17L15 18L16 18L16 17L15 17L15 15L17 15L17 16L18 16L18 15L20 15L20 14L16 14L16 13L18 13L18 12L16 12L16 13L15 13L15 15L14 15L14 14L13 14L13 13L14 13L14 12L13 12L13 13L12 13L12 14L11 14L11 15L10 15L10 13L11 13L11 11L14 11L14 10L15 10L15 11L18 11L18 9L17 9L17 10L15 10L15 9L13 9L13 8L14 8L14 5L15 5L15 4L14 4L14 3ZM12 5L12 7L11 7L11 6L10 6L10 7L11 7L11 8L12 8L12 7L13 7L13 5ZM0 8L0 9L1 9L1 10L2 10L2 9L4 9L4 8ZM20 9L20 10L19 10L19 13L21 13L21 11L20 11L20 10L22 10L22 9ZM6 14L6 15L8 15L8 16L9 16L9 15L8 15L8 14ZM21 14L21 16L23 16L23 15L22 15L22 14ZM17 17L17 20L20 20L20 17ZM21 17L21 18L22 18L22 17ZM18 18L18 19L19 19L19 18ZM23 18L23 19L21 19L21 21L19 21L19 22L21 22L21 23L19 23L19 24L21 24L21 23L23 23L23 21L24 21L24 20L23 20L23 19L24 19L24 18ZM9 21L9 22L11 22L11 21ZM21 21L21 22L22 22L22 21ZM9 23L9 24L10 24L10 23ZM16 23L16 24L17 24L17 23ZM0 0L0 7L7 7L7 0ZM1 1L1 6L6 6L6 1ZM2 2L2 5L5 5L5 2ZM18 0L18 7L25 7L25 0ZM19 1L19 6L24 6L24 1ZM20 2L20 5L23 5L23 2ZM0 18L0 25L7 25L7 18ZM1 19L1 24L6 24L6 19ZM2 20L2 23L5 23L5 20Z" fill="#282828"/></g></g></svg>
