<?xml version="1.0" encoding="UTF-8"?>
<svg xmlns="http://www.w3.org/2000/svg" version="1.1" width="90" height="90" viewBox="0 0 90 90"><rect x="0" y="0" width="90" height="90" fill="#ffffff"/><g transform="scale(2.903)"><g transform="translate(1,1)"><path fill-rule="evenodd" d="M9 0L9 1L8 1L8 3L9 3L9 4L8 4L8 8L6 8L6 9L8 9L8 8L10 8L10 10L8 10L8 11L11 11L11 10L12 10L12 9L11 9L11 8L10 8L10 7L11 7L11 6L12 6L12 8L13 8L13 6L14 6L14 8L15 8L15 9L14 9L14 10L15 10L15 9L16 9L16 8L18 8L18 9L17 9L17 10L16 10L16 11L14 11L14 12L16 12L16 13L17 13L17 14L16 14L16 15L13 15L13 12L12 12L12 13L9 13L9 12L8 12L8 14L6 14L6 13L7 13L7 12L6 12L6 11L7 11L7 10L6 10L6 11L5 11L5 9L4 9L4 8L3 8L3 9L2 9L2 8L0 8L0 10L3 10L3 11L0 11L0 13L1 13L1 14L3 14L3 16L2 16L2 15L1 15L1 18L0 18L0 19L1 19L1 18L2 18L2 17L3 17L3 16L4 16L4 14L5 14L5 15L8 15L8 16L5 16L5 17L4 17L4 20L2 20L2 21L5 21L5 20L6 20L6 21L7 21L7 20L6 20L6 19L7 19L7 18L6 18L6 19L5 19L5 17L8 17L8 18L9 18L9 17L8 17L8 16L9 16L9 15L10 15L10 16L11 16L11 17L12 17L12 16L13 16L13 17L15 17L15 16L16 16L16 18L17 18L17 16L19 16L19 17L20 17L20 18L21 18L21 17L22 17L22 16L20 16L20 15L19 15L19 14L18 14L18 13L17 13L17 12L16 12L16 11L17 11L17 10L18 10L18 11L20 11L20 12L21 12L21 13L20 13L20 14L22 14L22 15L23 15L23 16L24 16L24 17L23 17L23 18L22 18L22 19L20 19L20 21L18 21L18 20L19 20L19 18L18 18L18 19L17 19L17 21L16 21L16 20L14 20L14 18L13 18L13 20L12 20L12 19L11 19L11 18L10 18L10 19L8 19L8 20L10 20L10 21L8 21L8 23L9 23L9 22L10 22L10 23L11 23L11 28L12 28L12 29L14 29L14 28L12 28L12 24L14 24L14 25L13 25L13 27L15 27L15 29L16 29L16 28L20 28L20 29L25 29L25 28L24 28L24 27L26 27L26 26L28 26L28 27L27 27L27 28L26 28L26 29L28 29L28 27L29 27L29 26L28 26L28 25L29 25L29 24L28 24L28 23L26 23L26 19L27 19L27 17L28 17L28 20L29 20L29 17L28 17L28 16L27 16L27 17L26 17L26 15L29 15L29 13L28 13L28 12L29 12L29 11L28 11L28 8L26 8L26 9L27 9L27 10L24 10L24 11L26 11L26 12L25 12L25 13L26 13L26 12L27 12L27 13L28 13L28 14L26 14L26 15L25 15L25 14L24 14L24 13L23 13L23 11L22 11L22 12L21 12L21 10L22 10L22 9L25 9L25 8L22 8L22 9L20 9L20 8L19 8L19 6L20 6L20 7L21 7L21 6L20 6L20 4L21 4L21 2L20 2L20 3L19 3L19 2L18 2L18 1L19 1L19 0L16 0L16 1L15 1L15 0L12 0L12 1L11 1L11 2L9 2L9 1L10 1L10 0ZM16 1L16 2L14 2L14 3L17 3L17 1ZM12 3L12 4L9 4L9 5L10 5L10 6L9 6L9 7L10 7L10 6L11 6L11 5L12 5L12 6L13 6L13 3ZM16 4L16 5L17 5L17 7L18 7L18 6L19 6L19 5L18 5L18 4ZM15 6L15 7L16 7L16 6ZM18 9L18 10L19 10L19 9ZM27 11L27 12L28 12L28 11ZM2 12L2 13L5 13L5 12ZM10 14L10 15L11 15L11 16L12 16L12 14ZM17 14L17 15L16 15L16 16L17 16L17 15L18 15L18 14ZM23 14L23 15L24 15L24 16L25 16L25 15L24 15L24 14ZM24 17L24 18L23 18L23 19L22 19L22 20L23 20L23 19L24 19L24 18L25 18L25 19L26 19L26 18L25 18L25 17ZM0 20L0 21L1 21L1 20ZM13 20L13 21L14 21L14 22L15 22L15 23L14 23L14 24L15 24L15 25L16 25L16 26L15 26L15 27L16 27L16 26L17 26L17 27L19 27L19 26L21 26L21 27L20 27L20 28L22 28L22 25L20 25L20 23L17 23L17 25L16 25L16 24L15 24L15 23L16 23L16 22L15 22L15 21L14 21L14 20ZM21 21L21 24L24 24L24 21ZM28 21L28 22L29 22L29 21ZM22 22L22 23L23 23L23 22ZM25 23L25 25L24 25L24 26L23 26L23 27L24 27L24 26L26 26L26 23ZM9 24L9 25L8 25L8 26L9 26L9 27L8 27L8 29L9 29L9 27L10 27L10 26L9 26L9 25L10 25L10 24ZM0 0L0 7L7 7L7 0ZM1 1L1 6L6 6L6 1ZM2 2L2 5L5 5L5 2ZM22 0L22 7L29 7L29 0ZM23 1L23 6L28 6L28 1ZM24 2L24 5L27 5L27 2ZM0 22L0 29L7 29L7 22ZM1 23L1 28L6 28L6 23ZM2 24L2 27L5 27L5 24Z" fill="#282828"/></g></g></svg>
