<?xml version="1.0" encoding="UTF-8"?>
<svg xmlns="http://www.w3.org/2000/svg" version="1.1" width="90" height="90" viewBox="0 0 90 90"><rect x="0" y="0" width="90" height="90" fill="#ffffff"/><g transform="scale(2.903)"><g transform="translate(1,1)"><path fill-rule="evenodd" d="M8 0L8 2L10 2L10 4L8 4L8 9L7 9L7 8L5 8L5 9L4 9L4 10L3 10L3 8L0 8L0 9L2 9L2 10L0 10L0 12L1 12L1 13L2 13L2 12L1 12L1 11L2 11L2 10L3 10L3 12L4 12L4 10L5 10L5 9L7 9L7 10L6 10L6 11L5 11L5 13L4 13L4 14L3 14L3 15L1 15L1 14L0 14L0 15L1 15L1 16L0 16L0 17L1 17L1 18L0 18L0 19L2 19L2 20L0 20L0 21L2 21L2 20L3 20L3 21L5 21L5 20L6 20L6 21L7 21L7 20L6 20L6 19L7 19L7 18L5 18L5 17L7 17L7 16L3 16L3 15L8 15L8 13L9 13L9 15L10 15L10 16L8 16L8 17L10 17L10 18L11 18L11 19L8 19L8 20L9 20L9 21L8 21L8 22L10 22L10 23L8 23L8 24L9 24L9 25L10 25L10 23L11 23L11 24L12 24L12 25L13 25L13 26L11 26L11 28L10 28L10 29L12 29L12 28L13 28L13 27L14 27L14 29L15 29L15 27L16 27L16 25L18 25L18 24L15 24L15 23L18 23L18 22L17 22L17 21L18 21L18 20L17 20L17 19L16 19L16 18L17 18L17 17L18 17L18 19L19 19L19 20L20 20L20 23L19 23L19 25L21 25L21 26L20 26L20 29L21 29L21 28L22 28L22 29L27 29L27 27L29 27L29 25L28 25L28 26L27 26L27 27L26 27L26 26L25 26L25 24L26 24L26 23L29 23L29 21L28 21L28 19L29 19L29 14L28 14L28 13L26 13L26 12L25 12L25 11L23 11L23 10L24 10L24 9L25 9L25 10L26 10L26 11L27 11L27 12L29 12L29 10L28 10L28 11L27 11L27 9L29 9L29 8L27 8L27 9L25 9L25 8L19 8L19 6L18 6L18 5L20 5L20 4L21 4L21 2L19 2L19 3L18 3L18 2L17 2L17 1L20 1L20 0L17 0L17 1L16 1L16 0L11 0L11 1L9 1L9 0ZM11 1L11 2L12 2L12 1ZM13 1L13 2L14 2L14 3L11 3L11 4L12 4L12 6L11 6L11 5L9 5L9 8L10 8L10 6L11 6L11 7L12 7L12 6L13 6L13 8L11 8L11 10L9 10L9 9L8 9L8 10L7 10L7 11L6 11L6 12L7 12L7 11L8 11L8 12L9 12L9 11L10 11L10 14L11 14L11 15L12 15L12 13L11 13L11 12L14 12L14 13L15 13L15 14L13 14L13 16L10 16L10 17L11 17L11 18L12 18L12 19L11 19L11 20L13 20L13 22L16 22L16 21L15 21L15 20L16 20L16 19L13 19L13 18L14 18L14 17L15 17L15 18L16 18L16 17L17 17L17 16L18 16L18 17L19 17L19 16L20 16L20 17L21 17L21 18L20 18L20 19L21 19L21 20L24 20L24 18L27 18L27 17L28 17L28 14L26 14L26 15L25 15L25 12L24 12L24 14L23 14L23 15L21 15L21 14L22 14L22 13L21 13L21 12L22 12L22 11L19 11L19 8L18 8L18 6L17 6L17 7L16 7L16 5L18 5L18 3L17 3L17 2L16 2L16 1ZM15 2L15 3L14 3L14 7L15 7L15 5L16 5L16 2ZM19 3L19 4L20 4L20 3ZM20 6L20 7L21 7L21 6ZM13 8L13 9L14 9L14 8ZM15 8L15 9L16 9L16 10L13 10L13 11L14 11L14 12L15 12L15 11L16 11L16 14L15 14L15 15L14 15L14 16L15 16L15 17L16 17L16 15L18 15L18 16L19 16L19 15L20 15L20 16L21 16L21 15L20 15L20 14L21 14L21 13L18 13L18 12L19 12L19 11L18 11L18 12L17 12L17 10L18 10L18 8ZM20 9L20 10L21 10L21 9ZM11 10L11 11L12 11L12 10ZM5 13L5 14L7 14L7 13ZM17 13L17 14L18 14L18 15L19 15L19 14L18 14L18 13ZM1 16L1 17L2 17L2 18L3 18L3 17L2 17L2 16ZM22 16L22 17L23 17L23 18L24 18L24 17L23 17L23 16ZM25 16L25 17L26 17L26 16ZM4 18L4 19L3 19L3 20L5 20L5 18ZM26 19L26 20L25 20L25 21L26 21L26 22L27 22L27 21L26 21L26 20L27 20L27 19ZM10 21L10 22L11 22L11 23L12 23L12 21ZM21 21L21 24L24 24L24 21ZM22 22L22 23L23 23L23 22ZM13 23L13 25L14 25L14 23ZM22 25L22 28L23 28L23 26L24 26L24 27L25 27L25 26L24 26L24 25ZM8 26L8 29L9 29L9 26ZM17 26L17 27L18 27L18 28L17 28L17 29L18 29L18 28L19 28L19 27L18 27L18 26ZM28 28L28 29L29 29L29 28ZM0 0L0 7L7 7L7 0ZM1 1L1 6L6 6L6 1ZM2 2L2 5L5 5L5 2ZM22 0L22 7L29 7L29 0ZM23 1L23 6L28 6L28 1ZM24 2L24 5L27 5L27 2ZM0 22L0 29L7 29L7 22ZM1 23L1 28L6 28L6 23ZM2 24L2 27L5 27L5 24Z" fill="#282828"/></g></g></svg>
