<?xml version="1.0" encoding="UTF-8"?>
<svg xmlns="http://www.w3.org/2000/svg" version="1.1" width="90" height="90" viewBox="0 0 90 90"><rect x="0" y="0" width="90" height="90" fill="#ffffff"/><g transform="scale(2.903)"><g transform="translate(1,1)"><path fill-rule="evenodd" d="M9 0L9 1L10 1L10 2L8 2L8 3L9 3L9 4L10 4L10 5L9 5L9 6L8 6L8 8L4 8L4 9L5 9L5 12L4 12L4 13L5 13L5 14L3 14L3 11L4 11L4 10L3 10L3 11L2 11L2 10L0 10L0 11L2 11L2 13L0 13L0 14L1 14L1 15L0 15L0 16L1 16L1 15L2 15L2 14L3 14L3 15L4 15L4 16L2 16L2 17L1 17L1 18L0 18L0 19L1 19L1 20L0 20L0 21L1 21L1 20L2 20L2 21L5 21L5 20L6 20L6 21L8 21L8 25L9 25L9 26L8 26L8 29L9 29L9 26L12 26L12 24L14 24L14 26L13 26L13 27L14 27L14 26L16 26L16 28L15 28L15 29L17 29L17 28L18 28L18 27L19 27L19 29L21 29L21 28L23 28L23 27L25 27L25 26L24 26L24 25L27 25L27 26L26 26L26 27L27 27L27 28L26 28L26 29L29 29L29 28L28 28L28 27L29 27L29 25L27 25L27 24L28 24L28 23L29 23L29 21L28 21L28 23L27 23L27 22L26 22L26 21L25 21L25 20L26 20L26 19L27 19L27 18L25 18L25 20L22 20L22 19L23 19L23 16L22 16L22 17L21 17L21 16L20 16L20 15L17 15L17 16L16 16L16 15L15 15L15 14L18 14L18 13L17 13L17 12L18 12L18 10L20 10L20 12L19 12L19 14L21 14L21 13L23 13L23 12L24 12L24 13L25 13L25 12L24 12L24 11L28 11L28 12L27 12L27 13L26 13L26 14L25 14L25 15L27 15L27 16L28 16L28 15L29 15L29 14L27 14L27 13L28 13L28 12L29 12L29 10L28 10L28 9L27 9L27 8L26 8L26 10L23 10L23 11L22 11L22 9L23 9L23 8L21 8L21 6L20 6L20 5L19 5L19 4L20 4L20 3L21 3L21 0L18 0L18 1L16 1L16 0L15 0L15 2L14 2L14 1L13 1L13 0L12 0L12 1L10 1L10 0ZM18 1L18 2L16 2L16 3L15 3L15 5L14 5L14 2L13 2L13 3L12 3L12 2L11 2L11 3L12 3L12 4L11 4L11 5L10 5L10 6L9 6L9 7L10 7L10 6L11 6L11 8L12 8L12 10L10 10L10 8L9 8L9 10L10 10L10 11L8 11L8 9L6 9L6 10L7 10L7 11L6 11L6 12L7 12L7 13L6 13L6 14L7 14L7 15L5 15L5 16L4 16L4 18L5 18L5 19L6 19L6 20L7 20L7 19L8 19L8 20L9 20L9 19L8 19L8 18L9 18L9 17L10 17L10 16L9 16L9 15L10 15L10 14L11 14L11 13L12 13L12 12L13 12L13 11L14 11L14 9L13 9L13 8L12 8L12 6L13 6L13 7L14 7L14 6L15 6L15 7L16 7L16 8L15 8L15 9L16 9L16 8L17 8L17 9L19 9L19 8L20 8L20 6L19 6L19 5L18 5L18 4L16 4L16 3L18 3L18 2L19 2L19 3L20 3L20 2L19 2L19 1ZM13 5L13 6L14 6L14 5ZM15 5L15 6L16 6L16 7L17 7L17 8L19 8L19 6L18 6L18 5ZM17 6L17 7L18 7L18 6ZM0 8L0 9L3 9L3 8ZM15 10L15 12L16 12L16 10ZM7 11L7 12L8 12L8 13L7 13L7 14L8 14L8 15L9 15L9 12L8 12L8 11ZM11 11L11 12L12 12L12 11ZM13 13L13 15L14 15L14 16L12 16L12 15L11 15L11 16L12 16L12 18L11 18L11 19L12 19L12 20L11 20L11 21L9 21L9 22L11 22L11 21L12 21L12 20L13 20L13 21L14 21L14 22L13 22L13 23L14 23L14 22L15 22L15 23L16 23L16 22L15 22L15 20L16 20L16 21L18 21L18 22L17 22L17 23L19 23L19 25L18 25L18 26L17 26L17 27L18 27L18 26L20 26L20 28L21 28L21 27L22 27L22 26L23 26L23 25L21 25L21 26L20 26L20 22L19 22L19 19L20 19L20 20L21 20L21 19L22 19L22 18L21 18L21 19L20 19L20 18L19 18L19 17L20 17L20 16L17 16L17 19L16 19L16 18L15 18L15 17L16 17L16 16L15 16L15 15L14 15L14 13ZM5 16L5 18L6 18L6 19L7 19L7 18L8 18L8 17L9 17L9 16L8 16L8 17L7 17L7 16ZM14 16L14 17L15 17L15 16ZM24 16L24 17L25 17L25 16ZM6 17L6 18L7 18L7 17ZM28 17L28 19L29 19L29 17ZM1 18L1 19L2 19L2 20L3 20L3 19L2 19L2 18ZM13 18L13 19L14 19L14 18ZM17 19L17 20L18 20L18 19ZM21 21L21 24L24 24L24 21ZM22 22L22 23L23 23L23 22ZM25 22L25 24L27 24L27 23L26 23L26 22ZM9 23L9 25L10 25L10 23ZM11 23L11 24L12 24L12 23ZM15 24L15 25L16 25L16 24ZM27 26L27 27L28 27L28 26ZM11 27L11 28L12 28L12 29L13 29L13 28L12 28L12 27ZM0 0L0 7L7 7L7 0ZM1 1L1 6L6 6L6 1ZM2 2L2 5L5 5L5 2ZM22 0L22 7L29 7L29 0ZM23 1L23 6L28 6L28 1ZM24 2L24 5L27 5L27 2ZM0 22L0 29L7 29L7 22ZM1 23L1 28L6 28L6 23ZM2 24L2 27L5 27L5 24Z" fill="#282828"/></g></g></svg>
