<?xml version="1.0" encoding="UTF-8"?>
<svg xmlns="http://www.w3.org/2000/svg" version="1.1" width="90" height="90" viewBox="0 0 90 90"><rect x="0" y="0" width="90" height="90" fill="#ffffff"/><g transform="scale(3.333)"><g transform="translate(1,1)"><path fill-rule="evenodd" d="M8 0L8 4L9 4L9 5L8 5L8 7L9 7L9 8L10 8L10 7L11 7L11 8L12 8L12 7L13 7L13 5L12 5L12 2L11 2L11 3L10 3L10 2L9 2L9 1L13 1L13 2L14 2L14 5L15 5L15 3L16 3L16 5L17 5L17 0L16 0L16 2L15 2L15 0ZM9 3L9 4L10 4L10 3ZM9 5L9 7L10 7L10 6L11 6L11 7L12 7L12 5ZM14 6L14 7L15 7L15 8L14 8L14 9L13 9L13 10L12 10L12 9L11 9L11 11L10 11L10 13L12 13L12 12L13 12L13 13L14 13L14 15L16 15L16 16L15 16L15 17L14 17L14 16L13 16L13 14L10 14L10 15L7 15L7 14L8 14L8 12L9 12L9 10L10 10L10 9L7 9L7 8L4 8L4 9L2 9L2 8L0 8L0 10L1 10L1 12L0 12L0 14L3 14L3 10L4 10L4 11L7 11L7 10L8 10L8 12L6 12L6 13L5 13L5 12L4 12L4 13L5 13L5 16L4 16L4 15L3 15L3 16L0 16L0 17L3 17L3 16L4 16L4 17L5 17L5 16L6 16L6 17L8 17L8 18L9 18L9 19L8 19L8 21L9 21L9 23L8 23L8 25L9 25L9 23L12 23L12 25L14 25L14 24L13 24L13 23L15 23L15 24L16 24L16 23L17 23L17 24L18 24L18 23L17 23L17 22L19 22L19 23L20 23L20 25L22 25L22 24L23 24L23 25L25 25L25 24L24 24L24 22L25 22L25 21L24 21L24 20L25 20L25 19L24 19L24 17L23 17L23 15L24 15L24 13L21 13L21 12L18 12L18 11L17 11L17 13L16 13L16 14L15 14L15 13L14 13L14 12L13 12L13 10L15 10L15 12L16 12L16 10L19 10L19 11L21 11L21 10L25 10L25 8L21 8L21 9L20 9L20 8L19 8L19 9L16 9L16 7L17 7L17 6L16 6L16 7L15 7L15 6ZM1 9L1 10L2 10L2 9ZM5 9L5 10L7 10L7 9ZM15 9L15 10L16 10L16 9ZM19 9L19 10L20 10L20 9ZM11 11L11 12L12 12L12 11ZM22 11L22 12L23 12L23 11ZM1 12L1 13L2 13L2 12ZM6 13L6 14L7 14L7 13ZM17 13L17 14L16 14L16 15L17 15L17 16L18 16L18 13ZM19 13L19 14L20 14L20 15L19 15L19 16L20 16L20 15L22 15L22 14L20 14L20 13ZM6 15L6 16L7 16L7 15ZM10 15L10 16L8 16L8 17L11 17L11 18L13 18L13 20L14 20L14 21L11 21L11 20L12 20L12 19L9 19L9 21L10 21L10 22L14 22L14 21L15 21L15 22L17 22L17 21L16 21L16 19L15 19L15 18L16 18L16 17L15 17L15 18L14 18L14 17L11 17L11 15ZM21 16L21 17L22 17L22 16ZM17 17L17 20L20 20L20 17ZM18 18L18 19L19 19L19 18ZM22 18L22 19L23 19L23 20L24 20L24 19L23 19L23 18ZM14 19L14 20L15 20L15 19ZM21 20L21 22L20 22L20 23L21 23L21 24L22 24L22 23L21 23L21 22L23 22L23 21L22 21L22 20ZM10 24L10 25L11 25L11 24ZM0 0L0 7L7 7L7 0ZM1 1L1 6L6 6L6 1ZM2 2L2 5L5 5L5 2ZM18 0L18 7L25 7L25 0ZM19 1L19 6L24 6L24 1ZM20 2L20 5L23 5L23 2ZM0 18L0 25L7 25L7 18ZM1 19L1 24L6 24L6 19ZM2 20L2 23L5 23L5 20Z" fill="#282828"/></g></g></svg>
