<?xml version="1.0" encoding="UTF-8"?>
<svg xmlns="http://www.w3.org/2000/svg" version="1.1" width="90" height="90" viewBox="0 0 90 90"><rect x="0" y="0" width="90" height="90" fill="#ffffff"/><g transform="scale(2.903)"><g transform="translate(1,1)"><path fill-rule="evenodd" d="M8 0L8 4L10 4L10 3L11 3L11 4L12 4L12 2L11 2L11 0ZM12 0L12 1L13 1L13 2L14 2L14 3L13 3L13 4L14 4L14 3L15 3L15 5L11 5L11 6L10 6L10 7L9 7L9 5L8 5L8 7L9 7L9 8L10 8L10 7L11 7L11 6L12 6L12 8L11 8L11 9L9 9L9 10L11 10L11 11L10 11L10 13L8 13L8 15L9 15L9 16L10 16L10 17L8 17L8 18L9 18L9 19L7 19L7 18L6 18L6 17L7 17L7 16L6 16L6 15L7 15L7 14L5 14L5 13L4 13L4 12L5 12L5 10L6 10L6 11L8 11L8 10L6 10L6 9L7 9L7 8L4 8L4 9L5 9L5 10L4 10L4 11L3 11L3 10L2 10L2 8L0 8L0 10L2 10L2 11L3 11L3 12L2 12L2 14L1 14L1 15L0 15L0 16L3 16L3 17L0 17L0 18L3 18L3 19L4 19L4 20L5 20L5 21L7 21L7 20L8 20L8 22L10 22L10 23L8 23L8 25L9 25L9 26L10 26L10 27L8 27L8 29L9 29L9 28L10 28L10 29L11 29L11 28L12 28L12 29L14 29L14 27L15 27L15 29L16 29L16 28L20 28L20 29L22 29L22 28L23 28L23 29L24 29L24 28L25 28L25 29L26 29L26 26L25 26L25 27L24 27L24 28L23 28L23 27L22 27L22 25L23 25L23 26L24 26L24 25L28 25L28 26L27 26L27 29L28 29L28 28L29 28L29 25L28 25L28 23L29 23L29 18L28 18L28 17L29 17L29 16L27 16L27 17L26 17L26 15L25 15L25 17L23 17L23 18L20 18L20 20L19 20L19 17L18 17L18 19L17 19L17 17L16 17L16 18L13 18L13 17L15 17L15 16L16 16L16 14L18 14L18 15L17 15L17 16L18 16L18 15L19 15L19 13L16 13L16 14L15 14L15 13L14 13L14 11L15 11L15 12L16 12L16 10L17 10L17 12L19 12L19 11L18 11L18 10L19 10L19 9L21 9L21 6L20 6L20 5L21 5L21 4L20 4L20 5L19 5L19 2L21 2L21 1L20 1L20 0ZM15 1L15 2L19 2L19 1ZM9 2L9 3L10 3L10 2ZM16 3L16 4L17 4L17 5L18 5L18 4L17 4L17 3ZM15 5L15 8L17 8L17 10L18 10L18 9L19 9L19 8L20 8L20 6L19 6L19 7L18 7L18 6L17 6L17 7L16 7L16 5ZM13 6L13 8L12 8L12 9L11 9L11 10L12 10L12 9L13 9L13 10L14 10L14 9L13 9L13 8L14 8L14 6ZM17 7L17 8L18 8L18 7ZM23 8L23 9L22 9L22 12L23 12L23 11L24 11L24 12L25 12L25 13L22 13L22 14L21 14L21 15L20 15L20 17L22 17L22 16L24 16L24 15L23 15L23 14L25 14L25 13L26 13L26 11L25 11L25 9L28 9L28 12L27 12L27 13L29 13L29 8L25 8L25 9L24 9L24 8ZM15 9L15 10L16 10L16 9ZM0 11L0 13L1 13L1 11ZM12 11L12 12L11 12L11 13L10 13L10 14L9 14L9 15L10 15L10 16L12 16L12 17L10 17L10 20L11 20L11 21L10 21L10 22L11 22L11 24L12 24L12 25L11 25L11 26L12 26L12 25L13 25L13 26L16 26L16 27L17 27L17 26L16 26L16 25L19 25L19 22L18 22L18 21L17 21L17 19L14 19L14 21L15 21L15 22L13 22L13 21L12 21L12 20L13 20L13 19L12 19L12 20L11 20L11 18L12 18L12 17L13 17L13 16L14 16L14 15L15 15L15 14L13 14L13 13L12 13L12 12L13 12L13 11ZM20 11L20 13L21 13L21 11ZM6 12L6 13L7 13L7 12ZM2 14L2 15L3 15L3 14ZM28 14L28 15L29 15L29 14ZM12 15L12 16L13 16L13 15ZM3 17L3 18L4 18L4 19L5 19L5 18L4 18L4 17ZM25 17L25 18L26 18L26 19L24 19L24 20L26 20L26 21L28 21L28 18L26 18L26 17ZM6 19L6 20L7 20L7 19ZM21 19L21 20L23 20L23 19ZM0 20L0 21L3 21L3 20ZM16 21L16 22L15 22L15 23L14 23L14 24L13 24L13 23L12 23L12 24L13 24L13 25L16 25L16 22L17 22L17 24L18 24L18 22L17 22L17 21ZM21 21L21 24L24 24L24 21ZM22 22L22 23L23 23L23 22ZM25 22L25 23L26 23L26 24L27 24L27 22ZM9 24L9 25L10 25L10 24ZM20 25L20 26L19 26L19 27L21 27L21 25ZM12 27L12 28L13 28L13 27ZM0 0L0 7L7 7L7 0ZM1 1L1 6L6 6L6 1ZM2 2L2 5L5 5L5 2ZM22 0L22 7L29 7L29 0ZM23 1L23 6L28 6L28 1ZM24 2L24 5L27 5L27 2ZM0 22L0 29L7 29L7 22ZM1 23L1 28L6 28L6 23ZM2 24L2 27L5 27L5 24Z" fill="#282828"/></g></g></svg>
